<?xml version="1.0" encoding="UTF-8" standalone="no"?>
<!DOCTYPE svg PUBLIC "-//W3C//DTD SVG 1.1//EN"
 "http://www.w3.org/Graphics/SVG/1.1/DTD/svg11.dtd">
<!-- Generated by graphviz version 2.47.0 (20210316.0004)
 -->
<!-- Title: dependencies Pages: 1 -->
<svg width="504pt" height="211pt"
 viewBox="0.00 0.00 504.00 211.00" xmlns="http://www.w3.org/2000/svg" xmlns:xlink="http://www.w3.org/1999/xlink">
<g id="graph0" class="graph" transform="scale(1 1) rotate(0) translate(4 207)">
<title>dependencies</title>
<polygon fill="white" stroke="transparent" points="-4,4 -4,-207 500,-207 500,4 -4,4"/>
<text text-anchor="start" x="227.01" y="-42.4" font-family="Times-12" font-weight="bold" font-size="14.00">Legend</text>
<polygon fill="#ffffb3" stroke="transparent" points="14,-10 14,-30 34,-30 34,-10 14,-10"/>
<text text-anchor="start" x="37.63" y="-15.4" font-family="Times-12" font-size="14.00"> &#160;Declarations</text>
<polygon fill="#8dd3c7" stroke="transparent" points="127,-10 127,-30 147,-30 147,-10 127,-10"/>
<text text-anchor="start" x="150.73" y="-15.4" font-family="Times-12" font-size="14.00"> &#160;Module</text>
<polygon fill="#80b1d3" stroke="transparent" points="213,-10 213,-30 233,-30 233,-10 213,-10"/>
<text text-anchor="start" x="236.78" y="-15.4" font-family="Times-12" font-size="14.00"> &#160;Bootstrap</text>
<polygon fill="#fdb462" stroke="transparent" points="310,-10 310,-30 330,-30 330,-10 310,-10"/>
<text text-anchor="start" x="333.67" y="-15.4" font-family="Times-12" font-size="14.00"> &#160;Providers</text>
<polygon fill="#fb8072" stroke="transparent" points="406,-10 406,-30 426,-30 426,-10 406,-10"/>
<text text-anchor="start" x="429.73" y="-15.4" font-family="Times-12" font-size="14.00"> &#160;Exports</text>
<g id="clust1" class="cluster">
<title>cluster_UserPanelModule</title>
<polygon fill="none" stroke="black" stroke-dasharray="1,5" points="12,-70 12,-195 484,-195 484,-70 12,-70"/>
</g>
<g id="clust2" class="cluster">
<title>cluster_UserPanelModule_declarations</title>
<polygon fill="none" stroke="black" points="322,-78 322,-130 476,-130 476,-78 322,-78"/>
</g>
<g id="clust4" class="cluster">
<title>cluster_UserPanelModule_imports</title>
<polygon fill="none" stroke="black" points="20,-78 20,-130 314,-130 314,-78 20,-78"/>
</g>
<!-- UserPanelComponent -->
<g id="node1" class="node">
<title>UserPanelComponent</title>
<polygon fill="#ffffb3" stroke="black" points="468.36,-122 329.64,-122 329.64,-86 468.36,-86 468.36,-122"/>
<text text-anchor="middle" x="399" y="-99.8" font-family="Times,serif" font-size="14.00">UserPanelComponent</text>
</g>
<!-- UserPanelModule -->
<g id="node2" class="node">
<title>UserPanelModule</title>
<polygon fill="#8dd3c7" stroke="black" points="315.58,-187 312.58,-191 291.58,-191 288.58,-187 198.42,-187 198.42,-151 315.58,-151 315.58,-187"/>
<text text-anchor="middle" x="257" y="-164.8" font-family="Times,serif" font-size="14.00">UserPanelModule</text>
</g>
<!-- UserPanelComponent&#45;&gt;UserPanelModule -->
<g id="edge1" class="edge">
<title>UserPanelComponent&#45;&gt;UserPanelModule</title>
<path fill="none" stroke="black" d="M329.56,-104C318.64,-104 310.88,-104 310.88,-104 310.88,-104 310.88,-140.89 310.88,-140.89"/>
<polygon fill="black" stroke="black" points="307.38,-140.89 310.88,-150.89 314.38,-140.89 307.38,-140.89"/>
</g>
<!-- SharedModule -->
<g id="node3" class="node">
<title>SharedModule</title>
<polygon fill="#8dd3c7" stroke="black" points="306.42,-122 303.42,-126 282.42,-126 279.42,-122 207.58,-122 207.58,-86 306.42,-86 306.42,-122"/>
<text text-anchor="middle" x="257" y="-99.8" font-family="Times,serif" font-size="14.00">SharedModule</text>
</g>
<!-- SharedModule&#45;&gt;UserPanelModule -->
<g id="edge2" class="edge">
<title>SharedModule&#45;&gt;UserPanelModule</title>
<path fill="none" stroke="black" d="M257,-122.11C257,-122.11 257,-140.99 257,-140.99"/>
<polygon fill="black" stroke="black" points="253.5,-140.99 257,-150.99 260.5,-140.99 253.5,-140.99"/>
</g>
<!-- UserPanelRoutingModule -->
<g id="node4" class="node">
<title>UserPanelRoutingModule</title>
<polygon fill="#8dd3c7" stroke="black" points="190.2,-122 187.2,-126 166.2,-126 163.2,-122 27.8,-122 27.8,-86 190.2,-86 190.2,-122"/>
<text text-anchor="middle" x="109" y="-99.8" font-family="Times,serif" font-size="14.00">UserPanelRoutingModule</text>
</g>
<!-- UserPanelRoutingModule&#45;&gt;UserPanelModule -->
<g id="edge3" class="edge">
<title>UserPanelRoutingModule&#45;&gt;UserPanelModule</title>
<path fill="none" stroke="black" d="M190.43,-104C198.13,-104 203.12,-104 203.12,-104 203.12,-104 203.12,-140.89 203.12,-140.89"/>
<polygon fill="black" stroke="black" points="199.62,-140.89 203.12,-150.89 206.62,-140.89 199.62,-140.89"/>
</g>
</g>
</svg>
