<?xml version="1.0" encoding="UTF-8"?> <svg xmlns="http://www.w3.org/2000/svg" width="615" height="457" viewBox="0 0 615 457" fill="none"><path d="M377.73 239.08C377.531 239.08 377.336 239 377.187 238.846C375.825 237.415 374.419 235.988 373.003 234.607C372.709 234.318 372.704 233.844 372.988 233.55C373.277 233.256 373.751 233.251 374.045 233.535C375.476 234.931 376.892 236.372 378.269 237.813C378.553 238.113 378.543 238.586 378.244 238.871C378.099 239.01 377.915 239.075 377.73 239.075V239.08ZM369.173 230.718C368.994 230.718 368.814 230.653 368.67 230.523C367.204 229.192 365.698 227.871 364.192 226.594C363.878 226.325 363.838 225.856 364.102 225.542C364.367 225.228 364.84 225.188 365.154 225.452C366.675 226.739 368.196 228.07 369.672 229.416C369.976 229.696 370.001 230.169 369.722 230.474C369.572 230.638 369.373 230.718 369.168 230.718H369.173ZM360.038 222.989C359.879 222.989 359.714 222.939 359.575 222.829C358.024 221.608 356.423 220.401 354.828 219.234C354.494 218.99 354.419 218.521 354.663 218.187C354.908 217.853 355.376 217.778 355.71 218.023C357.326 219.199 358.937 220.421 360.502 221.653C360.826 221.907 360.881 222.376 360.627 222.705C360.477 222.894 360.258 222.989 360.038 222.989ZM350.37 215.938C350.225 215.938 350.081 215.898 349.951 215.809C348.31 214.702 346.63 213.61 344.955 212.563C344.606 212.343 344.496 211.884 344.715 211.53C344.935 211.181 345.394 211.072 345.748 211.291C347.438 212.348 349.133 213.445 350.789 214.562C351.133 214.791 351.223 215.26 350.988 215.599C350.844 215.814 350.609 215.928 350.37 215.928V215.938ZM340.218 209.606C340.093 209.606 339.963 209.576 339.844 209.506C338.133 208.524 336.378 207.556 334.628 206.629C334.264 206.434 334.124 205.986 334.314 205.617C334.508 205.253 334.957 205.113 335.326 205.302C337.091 206.235 338.861 207.212 340.592 208.204C340.951 208.409 341.07 208.868 340.866 209.227C340.726 209.466 340.477 209.601 340.218 209.601V209.606ZM329.637 204.021C329.527 204.021 329.417 203.996 329.313 203.946C327.527 203.084 325.707 202.246 323.902 201.458C323.523 201.293 323.354 200.85 323.518 200.471C323.683 200.092 324.127 199.922 324.506 200.087C326.326 200.885 328.166 201.727 329.966 202.6C330.34 202.779 330.494 203.228 330.315 203.597C330.185 203.866 329.921 204.021 329.642 204.021H329.637ZM318.677 199.219C318.587 199.219 318.492 199.204 318.402 199.164C316.567 198.436 314.688 197.733 312.823 197.075C312.434 196.935 312.229 196.511 312.369 196.123C312.509 195.734 312.932 195.529 313.321 195.669C315.201 196.332 317.096 197.045 318.951 197.778C319.335 197.928 319.524 198.366 319.37 198.75C319.255 199.045 318.971 199.224 318.677 199.224V199.219ZM307.398 195.23C307.323 195.23 307.248 195.22 307.173 195.195C305.293 194.607 303.368 194.038 301.459 193.515C301.06 193.405 300.826 192.996 300.935 192.597C301.045 192.198 301.454 191.964 301.853 192.074C303.782 192.602 305.722 193.171 307.622 193.769C308.016 193.894 308.235 194.313 308.111 194.706C308.011 195.026 307.717 195.23 307.398 195.23Z" fill="white"></path><path d="M371.107 40.881C371.067 40.881 371.027 40.881 370.992 40.871C370.583 40.8062 370.304 40.4222 370.369 40.0184L370.967 36.1988C371.032 35.7899 371.416 35.5107 371.82 35.5755C372.229 35.6403 372.508 36.0243 372.443 36.4282L371.845 40.2527C371.785 40.6217 371.471 40.886 371.107 40.886V40.881Z" fill="#24AFB5"></path><path d="M369.714 49.7822C369.674 49.7822 369.634 49.7822 369.599 49.7722C369.191 49.7074 368.911 49.3234 368.976 48.9195L369.574 45.1C369.639 44.6911 370.023 44.4169 370.427 44.4767C370.836 44.5415 371.115 44.9255 371.05 45.3294L370.452 49.1489C370.392 49.5179 370.078 49.7822 369.714 49.7822Z" fill="#24AFB5"></path><path d="M368.168 43.02C368.128 43.02 368.089 43.02 368.054 43.01L364.234 42.4116C363.825 42.3468 363.546 41.9629 363.611 41.559C363.676 41.1501 364.06 40.8758 364.464 40.9357L368.283 41.534C368.692 41.5989 368.971 41.9828 368.906 42.3867C368.847 42.7557 368.532 43.02 368.168 43.02Z" fill="#24AFB5"></path><path d="M377.071 44.4165C377.031 44.4165 376.991 44.4165 376.956 44.4065L373.137 43.8081C372.728 43.7433 372.448 43.3594 372.513 42.9555C372.578 42.5466 372.962 42.2723 373.366 42.3322L377.186 42.9305C377.594 42.9953 377.874 43.3793 377.809 43.7832C377.749 44.1522 377.435 44.4165 377.071 44.4165Z" fill="#24AFB5"></path><path d="M348.035 47.6606C347.302 47.6606 346.564 47.4711 345.896 47.0672C344.954 46.4988 344.291 45.5962 344.036 44.5242C343.777 43.4371 343.961 42.3102 344.56 41.3479C345.781 39.3882 348.364 38.7549 350.319 39.9367C351.261 40.5052 351.925 41.4077 352.179 42.4798C352.438 43.5668 352.254 44.6937 351.655 45.6561C350.853 46.9475 349.451 47.6606 348.035 47.6606ZM346.669 45.7857C347.926 46.5436 349.596 46.1298 350.389 44.8632C350.773 44.2449 350.892 43.5219 350.728 42.8288C350.563 42.1507 350.15 41.5772 349.551 41.2182C348.295 40.4603 346.624 40.8741 345.836 42.1407C345.452 42.759 345.333 43.482 345.497 44.1751C345.662 44.8533 346.081 45.4267 346.674 45.7857H346.669Z" fill="#24AFB5"></path><path d="M332.758 437.7C332.025 437.7 331.287 437.51 330.619 437.106C329.676 436.538 329.013 435.635 328.759 434.563C328.5 433.476 328.684 432.349 329.282 431.387C330.504 429.427 333.087 428.794 335.042 429.976C335.984 430.544 336.647 431.447 336.902 432.519C337.161 433.606 336.976 434.733 336.378 435.695C335.575 436.987 334.174 437.7 332.758 437.7ZM331.392 435.825C332.648 436.583 334.319 436.169 335.112 434.902C335.495 434.284 335.62 433.561 335.451 432.868C335.286 432.19 334.867 431.616 334.274 431.257C333.017 430.499 331.347 430.913 330.554 432.18C330.17 432.798 330.05 433.521 330.215 434.214C330.38 434.892 330.793 435.466 331.392 435.825Z" fill="#24AFB5"></path><path d="M350.147 438.598C349.414 438.598 348.676 438.409 348.007 438.005C347.065 437.436 346.402 436.529 346.148 435.462C345.888 434.375 346.073 433.248 346.671 432.285C347.893 430.326 350.476 429.692 352.43 430.874C353.373 431.443 354.036 432.345 354.29 433.417C354.55 434.504 354.365 435.636 353.767 436.594C352.964 437.885 351.563 438.598 350.147 438.598ZM348.78 436.723C350.042 437.481 351.707 437.067 352.5 435.801C352.884 435.182 353.004 434.459 352.839 433.766C352.675 433.088 352.261 432.515 351.663 432.156C350.406 431.398 348.736 431.812 347.943 433.078C347.559 433.696 347.439 434.42 347.604 435.113C347.768 435.791 348.182 436.364 348.78 436.723Z" fill="#24AFB5"></path><path d="M534.178 381.933L530.677 385.149C528.009 387.598 524.434 388.729 520.993 388.211L150.093 332.304C145.162 331.561 142.773 326.43 142.724 321.379L140.25 65.7283C140.22 62.7115 142.035 50.6844 142.035 50.6844C142.035 50.6844 151.056 44.1872 156.441 41.689C158.899 40.5472 161.597 40.1483 164.195 40.5322L531.485 94.8685C535.235 95.422 537.932 98.5734 537.942 102.418L538.77 371.591C538.78 375.461 537.1 379.24 534.173 381.933H534.178Z" fill="#E1F9FA"></path><path d="M522.934 387.573L151.286 332.593C145.517 331.741 141.373 326.894 141.353 320.985L140.535 55.307C140.525 52.1855 143.377 49.6774 146.424 50.1311L519.06 105.255C522.809 105.809 525.507 108.96 525.517 112.805L526.354 384.566C526.359 386.381 524.704 387.837 522.934 387.573Z" fill="#26D0D8"></path><path d="M140.978 198.954C140.564 198.954 140.23 198.62 140.23 198.206L139.791 55.3067C139.791 53.5864 140.549 51.9359 141.88 50.7841C143.187 49.6522 144.887 49.1436 146.538 49.3879L372.833 83.2802C373.242 83.34 373.522 83.724 373.462 84.1328C373.402 84.5417 373.018 84.8259 372.609 84.7611L146.313 50.8689C145.097 50.6893 143.835 51.0683 142.853 51.916C141.85 52.7836 141.277 54.0202 141.282 55.3017L141.721 198.201C141.721 198.615 141.387 198.949 140.973 198.949L140.978 198.954Z" fill="#24AFB5"></path><path d="M523.347 388.349C523.172 388.349 522.998 388.335 522.828 388.31L501.312 385.103C500.903 385.043 500.624 384.66 500.684 384.251C500.744 383.842 501.128 383.558 501.532 383.622L523.048 386.829C523.666 386.918 524.304 386.724 524.803 386.295C525.317 385.851 525.611 385.218 525.606 384.565L524.768 112.803C524.763 110.729 523.875 108.799 522.34 107.508C522.026 107.244 521.981 106.77 522.25 106.456C522.514 106.142 522.988 106.097 523.302 106.366C525.177 107.942 526.254 110.285 526.259 112.803L527.097 384.565C527.097 385.657 526.618 386.699 525.775 387.432C525.082 388.03 524.219 388.354 523.342 388.354L523.347 388.349Z" fill="#24AFB5"></path><path d="M441.146 280.387L271.261 253.66C267.108 253.006 264.141 249.496 264.141 245.233V90.2518C264.141 84.4925 269.431 79.8901 275.046 80.7727L444.931 107.5C449.085 108.153 452.051 111.663 452.051 115.927V270.912C452.051 276.672 446.761 281.274 441.146 280.392V280.387Z" fill="white"></path><path d="M282.177 239.515L277.35 238.643C275.231 238.259 273.535 236.099 273.535 233.786L273.58 208.495C273.58 206.122 275.365 204.496 277.539 204.875L282.321 205.713C284.445 206.087 286.151 208.246 286.151 210.564V235.89C286.151 238.274 284.356 239.909 282.172 239.515H282.177Z" fill="#E1F9FA"></path><path d="M299.279 242.203L294.447 241.331C292.328 240.947 290.633 238.788 290.633 236.474L290.683 195.217C290.683 192.843 292.468 191.213 294.642 191.597L299.424 192.435C301.548 192.809 303.253 194.963 303.253 197.286V238.583C303.253 240.967 301.458 242.597 299.274 242.203H299.279Z" fill="#E1F9FA"></path><path d="M316.379 244.896L311.547 244.023C309.428 243.639 307.732 241.48 307.732 239.167L307.782 206.416C307.782 204.043 309.567 202.412 311.741 202.796L316.523 203.634C318.648 204.008 320.353 206.167 320.353 208.485V241.271C320.353 243.654 318.558 245.29 316.374 244.896H316.379Z" fill="#E1F9FA"></path><path d="M333.482 247.583L328.65 246.71C326.531 246.326 324.836 244.172 324.836 241.853L324.891 177.43C324.891 175.056 326.676 173.426 328.85 173.804L333.627 174.642C335.751 175.016 337.456 177.175 337.456 179.494V243.958C337.456 246.341 335.661 247.972 333.477 247.578L333.482 247.583Z" fill="#E1F9FA"></path><path d="M350.58 250.278L345.748 249.405C343.629 249.021 341.934 246.867 341.934 244.553L341.988 163.54C341.988 161.167 343.774 159.531 345.948 159.915L350.724 160.753C352.849 161.127 354.554 163.281 354.554 165.604V246.658C354.554 249.041 352.759 250.677 350.575 250.283L350.58 250.278Z" fill="#E1F9FA"></path><path d="M367.683 252.964L362.852 252.091C360.732 251.707 359.037 249.553 359.037 247.239L359.092 153.89C359.092 151.516 360.877 149.881 363.051 150.265L367.828 151.102C369.952 151.476 371.657 153.63 371.657 155.954V249.344C371.657 251.727 369.862 253.363 367.678 252.969L367.683 252.964Z" fill="#26D0D8"></path><path d="M384.785 255.657L379.953 254.784C377.834 254.4 376.139 252.246 376.139 249.933L376.194 183.619C376.194 181.245 377.979 179.615 380.153 179.994L384.93 180.832C387.054 181.206 388.759 183.365 388.759 185.683V252.032C388.759 254.415 386.964 256.046 384.78 255.652L384.785 255.657Z" fill="#E1F9FA"></path><path d="M401.885 258.345L397.053 257.472C394.934 257.088 393.238 254.934 393.238 252.62L393.293 164.626C393.293 162.253 395.078 160.617 397.252 161.001L402.029 161.839C404.153 162.213 405.859 164.372 405.859 166.69V254.725C405.859 257.108 404.064 258.739 401.88 258.345H401.885Z" fill="#E1F9FA"></path><path d="M418.988 261.037L414.156 260.164C412.037 259.78 410.342 257.626 410.342 255.313L410.397 140.886C410.397 138.512 412.182 136.877 414.356 137.261L419.133 138.098C421.257 138.472 422.962 140.632 422.962 142.95V257.412C422.962 259.795 421.167 261.426 418.983 261.032L418.988 261.037Z" fill="#E1F9FA"></path><path d="M436.32 263.764L431.488 262.892C429.369 262.508 427.674 260.354 427.674 258.04L427.729 125.857C427.729 123.483 429.514 121.847 431.688 122.231L436.465 123.069C438.589 123.443 440.294 125.602 440.294 127.921V260.139C440.294 262.523 438.499 264.153 436.315 263.759L436.32 263.764Z" fill="#26D0D8"></path><path d="M387.43 356.98L319.372 346.1C317.203 345.751 315.447 343.612 315.447 341.313V273.623C315.447 271.325 317.208 269.744 319.372 270.093L387.43 280.973C389.599 281.322 391.355 283.461 391.355 285.76V353.45C391.355 355.749 389.594 357.329 387.43 356.98Z" fill="white"></path><path d="M333.532 342.6L326.73 341.513V292.636L333.532 293.728V342.6Z" fill="#26D0D8"></path><path d="M333.532 342.599L326.73 341.512V309.978L333.532 311.065V342.599Z" fill="#E1F9FA"></path><path d="M346.288 344.639L339.486 343.552V301.886L346.288 302.973V344.639Z" fill="#26D0D8"></path><path d="M346.288 344.639L339.486 343.552V319.677L346.288 320.765V344.639Z" fill="#E1F9FA"></path><path d="M358.194 346.767L351.393 345.68V307.844L358.194 308.931V346.767Z" fill="#26D0D8"></path><path d="M358.194 346.767L351.393 345.68V328.113L358.194 329.2V346.767Z" fill="#E1F9FA"></path><path d="M370.417 349.171L363.615 348.084V299.213L370.417 300.3V349.171Z" fill="#26D0D8"></path><path d="M370.417 349.171L363.615 348.084V307.32L370.417 308.407V349.171Z" fill="#E1F9FA"></path><path d="M382.747 350.918L375.945 349.831V304.336L382.747 305.423V350.918Z" fill="#26D0D8"></path><path d="M382.747 350.919L375.945 349.832V319.879L382.747 320.966V350.919Z" fill="#E1F9FA"></path><path d="M387.004 352.289C386.964 352.289 386.924 352.289 386.884 352.279L320.959 341.738C319.603 341.518 318.546 340.242 318.551 338.821L318.81 281.069C318.81 280.655 319.144 280.326 319.558 280.326C319.972 280.326 320.306 280.665 320.301 281.079L320.042 338.831C320.042 339.509 320.565 340.162 321.189 340.262L387.113 350.803C387.522 350.868 387.801 351.252 387.731 351.661C387.672 352.03 387.353 352.289 386.994 352.289H387.004Z" fill="#E1F9FA"></path><path d="M346.96 283.262L326.516 279.991V276.162L346.96 279.433V283.262Z" fill="#26D0D8"></path><path d="M347.036 289.127L326.592 285.861V282.031L347.036 285.302V289.127Z" fill="#26D0D8"></path><path d="M247.311 238.639L154.066 222.294C151.827 221.9 150.191 219.955 150.191 217.681V68.5246C150.191 65.6175 152.814 63.4136 155.681 63.9122L248.926 80.2575C251.165 80.6514 252.801 82.5961 252.801 84.8699V234.027C252.801 236.934 250.178 239.138 247.311 238.639Z" fill="white"></path><path d="M231.626 162.159C247.153 147.44 246.029 121.044 229.116 103.203C212.203 85.3614 185.905 82.8303 170.378 97.5495C154.851 112.269 155.974 138.664 172.888 156.506C189.801 174.347 216.099 176.878 231.626 162.159Z" fill="#E1F9FA"></path><path d="M201.748 130.012L228.256 164.827C238.368 157.352 243.977 144.522 242.008 129.932C240.761 120.683 236.658 112.131 230.734 105.195L201.748 130.012Z" fill="#26D0D8"></path><path d="M204.28 88.9939L201.752 130.012L230.738 105.205C223.847 97.1366 214.492 91.2527 204.28 88.9939Z" fill="#E1F9FA"></path><path d="M210.337 139.703C215.068 135.218 214.725 127.176 209.572 121.74C204.418 116.303 196.406 115.532 191.675 120.017C186.944 124.501 187.287 132.543 192.44 137.98C197.594 143.416 205.606 144.187 210.337 139.703Z" fill="white"></path><path d="M241.509 199.485L160.541 188.326V179.455L241.509 190.619V199.485Z" fill="#E1F9FA"></path><path d="M241.688 215.984L160.725 204.82V195.949L241.688 207.113V215.984Z" fill="#E1F9FA"></path><path d="M252.799 131.343C252.386 131.343 252.052 131.009 252.052 130.595V84.8701C252.052 82.9553 250.685 81.3248 248.795 80.9957L155.551 64.6504C154.404 64.446 153.232 64.7651 152.344 65.5131C151.452 66.261 150.943 67.358 150.943 68.5248V129.149C150.943 129.563 150.609 129.897 150.195 129.897C149.781 129.897 149.447 129.563 149.447 129.149V68.5248C149.447 66.9192 150.155 65.4034 151.382 64.3662C152.614 63.329 154.229 62.9002 155.81 63.1745L249.055 79.5197C251.658 79.9785 253.547 82.2223 253.547 84.8651V130.59C253.547 131.004 253.213 131.338 252.799 131.338V131.343Z" fill="#24AFB5"></path><path d="M510 318.002L405.092 301.173V290.338L510 307.162V318.002Z" fill="#E1F9FA"></path><path d="M510.488 335.391L405.58 318.562V307.726L510.488 324.55V335.391Z" fill="#E1F9FA"></path><path d="M510.652 353.425L405.744 336.596V325.756L510.652 342.585V353.425Z" fill="#E1F9FA"></path><path d="M510.652 370.208L405.744 353.379V342.539L510.652 359.368V370.208Z" fill="#E1F9FA"></path><path d="M509.459 132.169L470.4 126.634V116.492L509.459 122.032V132.169Z" fill="#E1F9FA"></path><path d="M513.428 160.467L463.484 153.386V143.244L513.428 150.325V160.467Z" fill="#E1F9FA"></path><path d="M513.588 176.922L463.645 169.841V159.699L513.588 166.78V176.922Z" fill="#E1F9FA"></path><path d="M513.748 210.16L463.805 203.08V192.937L513.748 200.018V210.16Z" fill="#E1F9FA"></path><path d="M513.588 226.745L463.645 219.664V209.527L513.588 216.608V226.745Z" fill="#E1F9FA"></path><path d="M513.268 243.136L463.324 236.055V225.429L513.268 232.51V243.136Z" fill="#E1F9FA"></path><path d="M346.541 362.261C346.506 362.261 346.466 362.261 346.431 362.251L296.318 354.771C295.909 354.711 295.63 354.327 295.69 353.919C295.75 353.51 296.133 353.225 296.542 353.29L346.655 360.77C347.064 360.83 347.343 361.214 347.284 361.622C347.229 361.991 346.91 362.261 346.546 362.261H346.541Z" fill="#24AFB5"></path><path d="M502.367 143.308C528.055 117.619 528.055 75.9698 502.367 50.2811C476.678 24.5925 435.028 24.5924 409.34 50.2811C383.651 75.9698 383.651 117.619 409.34 143.308C435.028 168.997 476.678 168.997 502.367 143.308Z" fill="#24AFB5"></path><path d="M494.263 143.308C519.952 117.619 519.952 75.9698 494.263 50.2811C468.574 24.5925 426.925 24.5924 401.236 50.2811C375.548 75.9698 375.547 117.619 401.236 143.308C426.925 168.997 468.574 168.997 494.263 143.308Z" fill="#E1F9FA"></path><path d="M447.753 163.321C411.068 163.321 381.225 133.478 381.225 96.7933C381.225 60.1087 411.068 30.2654 447.753 30.2654C484.437 30.2654 514.281 60.1087 514.281 96.7933C514.281 133.478 484.437 163.321 447.753 163.321ZM447.753 31.7613C411.896 31.7613 382.721 60.9315 382.721 96.7933C382.721 132.655 411.891 161.825 447.753 161.825C483.615 161.825 512.785 132.65 512.785 96.7933C512.785 60.9365 483.61 31.7613 447.753 31.7613Z" fill="#24AFB5"></path><path d="M478.761 127.805C495.887 110.678 495.887 82.911 478.761 65.7845C461.635 48.6581 433.867 48.6581 416.741 65.7845C399.614 82.911 399.614 110.678 416.741 127.805C433.867 144.931 461.635 144.931 478.761 127.805Z" fill="white"></path><path d="M452.8 118.195C464.585 115.414 471.884 103.605 469.102 91.8204C466.321 80.0353 454.512 72.7365 442.727 75.5181C430.942 78.2996 423.644 90.1081 426.425 101.893C429.207 113.678 441.015 120.977 452.8 118.195Z" fill="#E1F9FA"></path><path d="M448.241 97.3372L461.041 87.4841L462.322 89.364L448.49 97.7012C448.251 97.8458 448.021 97.5067 448.241 97.3372Z" fill="white"></path><path d="M448.371 98.4843C448.062 98.4843 447.762 98.3347 447.573 98.0555C447.279 97.6266 447.369 97.0582 447.782 96.7441L460.582 86.891C460.747 86.7664 460.951 86.7115 461.156 86.7464C461.36 86.7763 461.54 86.891 461.654 87.0655L462.936 88.9454C463.051 89.1149 463.095 89.3244 463.051 89.5288C463.006 89.7283 462.881 89.9028 462.707 90.0075L448.874 98.3447C448.715 98.4394 448.54 98.4893 448.371 98.4893V98.4843ZM460.867 88.5614L456.045 92.2763L461.256 89.1349L460.867 88.5664V88.5614Z" fill="#24AFB5"></path><path d="M460.726 89.0732C460.227 88.3452 460.417 87.353 461.145 86.8593L466.316 83.324L468.116 85.9568L462.945 89.4921C462.217 89.9907 461.225 89.8013 460.731 89.0732H460.726Z" fill="white"></path><path d="M462.046 90.5189C461.298 90.5189 460.56 90.1599 460.106 89.4967C459.378 88.4296 459.653 86.9686 460.72 86.2406L465.891 82.7053C466.055 82.5956 466.26 82.5507 466.449 82.5856C466.644 82.6205 466.818 82.7352 466.928 82.8997L468.728 85.5325C468.962 85.8716 468.872 86.3403 468.533 86.5697L463.363 90.105C462.959 90.3793 462.5 90.5139 462.046 90.5139V90.5189ZM461.343 88.654C461.607 89.0379 462.136 89.1377 462.52 88.8734L467.072 85.7619L466.115 84.3657L461.557 87.4772C461.174 87.7415 461.074 88.27 461.338 88.654H461.343Z" fill="#24AFB5"></path><path d="M464.703 86.8109L464.284 86.1976C463.546 85.1205 463.825 83.6496 464.902 82.9116L525.835 41.2855C526.912 40.5475 528.383 40.8267 529.121 41.9038L529.54 42.5171C530.278 43.5942 529.999 45.0651 528.922 45.8031L467.989 87.4292C466.912 88.1672 465.441 87.888 464.703 86.8109Z" fill="white"></path><path d="M466.656 88.5909C465.664 88.5909 464.687 88.1172 464.083 87.2346L463.664 86.6213C462.697 85.2051 463.061 83.2654 464.477 82.2981L525.41 40.672C526.827 39.7046 528.766 40.0686 529.734 41.4848L530.153 42.0981C531.12 43.5142 530.756 45.4539 529.34 46.4213L468.406 88.0474C467.873 88.4114 467.26 88.5859 466.656 88.5859V88.5909ZM527.166 41.6294C526.852 41.6294 526.537 41.7191 526.258 41.9086L465.325 83.5347C464.971 83.779 464.726 84.148 464.647 84.5719C464.567 84.9957 464.657 85.4245 464.901 85.7836L465.32 86.3969C465.824 87.1349 466.831 87.3194 467.564 86.8207L528.497 45.1946C529.23 44.691 529.42 43.6837 528.921 42.9508L528.502 42.3374C528.188 41.8787 527.684 41.6344 527.166 41.6344V41.6294Z" fill="#24AFB5"></path><path d="M507.9 53.541L507.765 45.6028C507.71 42.4763 509.236 39.5294 511.819 37.7642L523.392 29.8608C523.811 29.5716 524.385 29.8708 524.395 30.3794L524.594 42.1373L507.905 53.541H507.9Z" fill="#E1F9FA"></path><path d="M507.9 54.2894C507.78 54.2894 507.665 54.2594 507.556 54.2046C507.311 54.0799 507.157 53.8306 507.152 53.5514L507.017 45.6131C506.957 42.2224 508.598 39.056 511.395 37.1463L522.969 29.2429C523.392 28.9537 523.936 28.9188 524.39 29.1581C524.843 29.3925 525.133 29.8562 525.138 30.3698L525.337 42.1276C525.337 42.3769 525.217 42.6163 525.013 42.7559L508.324 54.1597C508.199 54.2445 508.049 54.2894 507.9 54.2894ZM523.647 30.5942L512.238 38.3879C509.855 40.0134 508.463 42.711 508.513 45.5931L508.623 52.1402L523.836 41.7487L523.647 30.5942Z" fill="#24AFB5"></path><path d="M510.984 58.0539L518.329 61.0657C521.221 62.2525 524.522 61.9034 527.105 60.1382L538.678 52.2349C539.097 51.9457 539.033 51.3074 538.559 51.1129L527.679 46.6501L510.989 58.0539H510.984Z" fill="#E1F9FA"></path><path d="M521.86 62.5117C520.573 62.5117 519.277 62.2623 518.04 61.7587L510.696 58.747C510.441 58.6422 510.267 58.4079 510.237 58.1336C510.207 57.8594 510.332 57.5951 510.561 57.4355L527.25 46.0317C527.46 45.8921 527.724 45.8622 527.958 45.957L538.838 50.4197C539.312 50.6142 539.641 51.053 539.691 51.5616C539.746 52.0702 539.517 52.5639 539.093 52.8531L527.519 60.7565C525.819 61.9183 523.849 62.5117 521.855 62.5117H521.86ZM512.55 57.8893L518.609 60.3725C521.277 61.4645 524.293 61.1504 526.677 59.5198L538.086 51.7262L527.764 47.4927L512.55 57.8843V57.8893Z" fill="#24AFB5"></path><path d="M525.342 50.3142L534.218 53.7698L525.342 50.3142Z" fill="white"></path><path d="M534.218 54.5179C534.128 54.5179 534.033 54.503 533.948 54.4681L525.073 51.0125C524.689 50.8629 524.499 50.4291 524.649 50.0452C524.798 49.6612 525.232 49.4668 525.616 49.6213L534.492 53.0769C534.876 53.2265 535.065 53.6603 534.916 54.0442C534.801 54.3384 534.517 54.5229 534.218 54.5229V54.5179Z" fill="#24AFB5"></path><path d="M520.898 53.3533L529.774 56.8088L520.898 53.3533Z" fill="white"></path><path d="M529.774 57.557C529.685 57.557 529.59 57.542 529.505 57.5071L520.629 54.0516C520.245 53.902 520.056 53.4682 520.205 53.0842C520.355 52.7003 520.789 52.5058 521.173 52.6604L530.049 56.1159C530.432 56.2655 530.622 56.6993 530.472 57.0833C530.358 57.3775 530.073 57.562 529.774 57.562V57.557Z" fill="#24AFB5"></path><path d="M505.77 56.6541L507.31 58.9079L505.77 56.6541Z" fill="white"></path><path d="M507.315 59.6559C507.076 59.6559 506.842 59.5412 506.697 59.3318L505.156 57.0779C504.922 56.7389 505.012 56.2702 505.351 56.0408C505.69 55.8064 506.158 55.8962 506.388 56.2353L507.929 58.4891C508.163 58.8282 508.073 59.2969 507.734 59.5262C507.605 59.616 507.46 59.6559 507.315 59.6559Z" fill="#24AFB5"></path><path d="M508.381 54.8669L509.922 57.1208L508.381 54.8669Z" fill="white"></path><path d="M509.921 57.8744C509.681 57.8744 509.447 57.7597 509.303 57.5503L507.762 55.2965C507.527 54.9574 507.617 54.4887 507.956 54.2593C508.295 54.0299 508.764 54.1147 508.993 54.4538L510.534 56.7076C510.769 57.0467 510.679 57.5154 510.34 57.7448C510.21 57.8345 510.065 57.8744 509.921 57.8744Z" fill="#24AFB5"></path><path d="M510.992 53.0896L512.533 55.3434L510.992 53.0896Z" fill="white"></path><path d="M512.532 56.0903C512.293 56.0903 512.058 55.9756 511.914 55.7662L510.373 53.5124C510.139 53.1733 510.228 52.7046 510.567 52.4702C510.907 52.2409 511.375 52.3256 511.61 52.6647L513.15 54.9185C513.385 55.2576 513.295 55.7263 512.956 55.9557C512.826 56.0455 512.682 56.0853 512.532 56.0853V56.0903Z" fill="#24AFB5"></path><path d="M396.606 400.774L398.636 395.773L393.794 392.412C394.058 391.171 394.213 389.924 394.263 388.683L399.773 386.603L399.025 381.258L393.146 380.769C392.752 379.577 392.263 378.421 391.68 377.309L395.42 372.746L392.099 368.488L386.773 370.996C385.846 370.168 384.844 369.41 383.766 368.737L384.724 362.918L379.723 360.889L376.362 365.73C375.12 365.466 373.874 365.311 372.632 365.262L370.553 359.752L365.207 360.5L364.719 366.379C363.527 366.772 362.37 367.261 361.258 367.845L356.696 364.105L352.437 367.426L354.945 372.751C354.118 373.679 353.36 374.681 352.686 375.758L346.867 374.801L344.838 379.802L349.68 383.163C349.416 384.404 349.261 385.651 349.211 386.892L343.701 388.967L344.449 394.312L350.328 394.801C350.717 395.993 351.211 397.149 351.794 398.261L348.054 402.824L351.375 407.082L356.701 404.574C357.628 405.402 358.63 406.16 359.707 406.833L358.75 412.652L363.751 414.681L367.112 409.84C368.354 410.104 369.6 410.259 370.842 410.308L372.921 415.818L378.267 415.07L378.755 409.191C379.947 408.803 381.104 408.309 382.216 407.725L386.778 411.465L391.037 408.144L388.528 402.819C389.356 401.891 390.114 400.889 390.787 399.812L396.606 400.769V400.774ZM366.519 400.665C359.408 397.783 355.978 389.68 358.86 382.569C361.742 375.459 369.845 372.028 376.955 374.91C384.066 377.792 387.496 385.895 384.614 393.006C381.732 400.116 373.629 403.547 366.519 400.665Z" fill="#E1F9FA"></path><path d="M371.889 414.117C371.58 414.117 371.301 413.927 371.191 413.633L369.287 408.582C368.334 408.522 367.372 408.402 366.419 408.223L363.338 412.661C363.138 412.945 362.769 413.059 362.44 412.93L357.439 410.9C357.115 410.771 356.925 410.432 356.98 410.088L357.858 404.757C357.045 404.219 356.267 403.635 355.544 403.017L350.663 405.321C350.348 405.47 349.969 405.38 349.755 405.101L346.434 400.843C346.22 400.569 346.225 400.18 346.444 399.91L349.875 395.727C349.446 394.864 349.067 393.977 348.748 393.069L343.357 392.62C343.008 392.59 342.729 392.326 342.679 391.977L341.931 386.632C341.882 386.288 342.081 385.954 342.41 385.829L347.461 383.924C347.521 382.972 347.641 382.014 347.82 381.052L343.382 377.97C343.093 377.771 342.983 377.397 343.113 377.073L345.143 372.072C345.272 371.747 345.616 371.563 345.955 371.613L351.291 372.49C351.829 371.678 352.408 370.905 353.031 370.177L350.727 365.295C350.578 364.981 350.667 364.602 350.942 364.388L355.2 361.067C355.474 360.852 355.863 360.857 356.133 361.077L360.316 364.507C361.179 364.078 362.066 363.699 362.974 363.38L363.423 357.99C363.452 357.641 363.717 357.362 364.066 357.312L369.411 356.564C369.75 356.514 370.089 356.714 370.214 357.043L372.119 362.094C373.071 362.154 374.034 362.273 374.986 362.453L378.068 358.015C378.267 357.726 378.636 357.616 378.965 357.746L383.966 359.775C384.291 359.905 384.48 360.244 384.425 360.588L383.548 365.923C384.36 366.457 385.133 367.04 385.861 367.664L390.743 365.36C391.062 365.21 391.436 365.3 391.65 365.579L394.971 369.838C395.186 370.112 395.181 370.501 394.961 370.77L391.531 374.954C391.96 375.811 392.338 376.704 392.658 377.611L398.048 378.06C398.397 378.09 398.676 378.354 398.726 378.703L399.474 384.049C399.524 384.393 399.324 384.727 398.995 384.852L393.944 386.756C393.884 387.709 393.765 388.671 393.585 389.624L398.023 392.705C398.312 392.905 398.422 393.279 398.292 393.603L396.263 398.604C396.133 398.928 395.789 399.113 395.45 399.063L390.115 398.185C389.581 398.998 388.998 399.771 388.374 400.499L390.673 405.38C390.823 405.695 390.733 406.074 390.459 406.288L386.2 409.609C385.926 409.823 385.537 409.818 385.268 409.599L381.084 406.168C380.222 406.597 379.334 406.976 378.427 407.295L377.978 412.685C377.948 413.034 377.684 413.314 377.335 413.364L371.989 414.112C371.954 414.112 371.919 414.117 371.884 414.117H371.889ZM366.08 406.642C366.13 406.642 366.185 406.647 366.235 406.657C367.437 406.911 368.648 407.061 369.84 407.111C370.139 407.121 370.403 407.315 370.508 407.594L372.373 412.546L376.537 411.967L376.976 406.687C377 406.388 377.2 406.133 377.489 406.039C378.636 405.66 379.763 405.186 380.835 404.623C381.099 404.483 381.423 404.518 381.658 404.707L385.756 408.068L389.072 405.485L386.819 400.698C386.689 400.424 386.739 400.105 386.938 399.88C387.736 398.993 388.469 398.016 389.122 396.978C389.282 396.724 389.581 396.594 389.875 396.639L395.101 397.502L396.677 393.608L392.323 390.586C392.074 390.416 391.955 390.112 392.019 389.818C392.274 388.616 392.423 387.405 392.473 386.213C392.483 385.914 392.677 385.649 392.957 385.545L397.908 383.68L397.33 379.516L392.049 379.077C391.75 379.052 391.496 378.848 391.401 378.564C391.022 377.412 390.548 376.29 389.985 375.218C389.845 374.954 389.88 374.63 390.07 374.395L393.431 370.296L390.848 366.981L386.061 369.234C385.791 369.364 385.467 369.314 385.243 369.115C384.355 368.317 383.378 367.584 382.336 366.931C382.082 366.771 381.947 366.472 381.997 366.178L382.859 360.952L378.965 359.376L375.943 363.729C375.774 363.979 375.47 364.093 375.175 364.034C373.974 363.779 372.762 363.63 371.57 363.58C371.271 363.57 371.007 363.375 370.902 363.096L369.037 358.145L364.874 358.723L364.435 364.004C364.41 364.303 364.205 364.557 363.921 364.652C362.769 365.031 361.647 365.505 360.575 366.068C360.311 366.208 359.987 366.173 359.753 365.983L355.654 362.622L352.338 365.205L354.592 369.992C354.721 370.267 354.672 370.586 354.472 370.81C353.679 371.698 352.941 372.675 352.288 373.717C352.129 373.971 351.829 374.106 351.535 374.056L346.309 373.194L344.734 377.088L349.087 380.11C349.336 380.279 349.456 380.583 349.391 380.877C349.137 382.084 348.987 383.296 348.937 384.483C348.927 384.782 348.733 385.046 348.454 385.151L343.502 387.016L344.08 391.179L349.361 391.618C349.66 391.643 349.915 391.842 350.009 392.132C350.388 393.284 350.862 394.405 351.425 395.478C351.565 395.742 351.53 396.066 351.341 396.3L347.98 400.399L350.563 403.715L355.35 401.461C355.619 401.332 355.943 401.381 356.168 401.581C357.055 402.374 358.032 403.112 359.074 403.765C359.329 403.924 359.463 404.224 359.414 404.518L358.551 409.744L362.445 411.319L365.467 406.966C365.607 406.762 365.841 406.647 366.08 406.647V406.642ZM370.708 399.99C368.848 399.99 366.983 399.631 365.208 398.908C357.723 395.876 354.103 387.32 357.135 379.835C360.167 372.351 368.723 368.731 376.208 371.762C379.833 373.233 382.67 376.026 384.191 379.626C385.717 383.226 385.747 387.21 384.276 390.835C382.805 394.46 380.012 397.298 376.412 398.823C374.577 399.601 372.642 399.99 370.708 399.99ZM370.723 372.191C365.522 372.191 360.59 375.293 358.521 380.399C355.798 387.115 359.049 394.799 365.771 397.522C369.027 398.843 372.598 398.813 375.834 397.442C379.07 396.071 381.573 393.528 382.894 390.272C384.216 387.016 384.186 383.445 382.815 380.209C381.443 376.973 378.9 374.47 375.644 373.149C374.034 372.495 372.363 372.186 370.723 372.186V372.191Z" fill="#24AFB5"></path><path d="M498.679 412.045L502.15 403.484L493.863 397.73C494.311 395.605 494.581 393.471 494.666 391.342L504.095 387.787L502.818 378.637L492.761 377.799C492.093 375.76 491.255 373.78 490.258 371.88L496.655 364.077L490.976 356.792L481.86 361.085C480.275 359.669 478.554 358.372 476.72 357.215L478.36 347.263L469.799 343.792L464.044 352.079C461.92 351.631 459.786 351.361 457.657 351.277L454.101 341.847L444.951 343.124L444.114 353.181C442.074 353.85 440.095 354.687 438.195 355.685L430.391 349.287L423.106 354.967L427.4 364.082C425.978 365.667 424.687 367.388 423.53 369.223L413.577 367.582L410.107 376.144L418.394 381.898C417.945 384.022 417.676 386.156 417.591 388.285L408.162 391.841L409.439 400.991L419.496 401.828C420.164 403.868 421.002 405.847 421.999 407.747L415.602 415.551L421.281 422.836L430.396 418.543C431.982 419.964 433.702 421.255 435.537 422.412L433.897 432.365L442.458 435.835L448.213 427.548C450.337 427.997 452.471 428.266 454.6 428.351L458.155 437.78L467.305 436.503L468.143 426.446C470.182 425.778 472.162 424.94 474.062 423.943L481.865 430.34L489.151 424.661L484.857 415.546C486.278 413.96 487.57 412.24 488.727 410.405L498.679 412.045ZM447.2 411.856C435.029 406.924 429.16 393.057 434.091 380.886C439.023 368.714 452.89 362.845 465.061 367.776C477.233 372.708 483.102 386.575 478.171 398.747C473.239 410.918 459.372 416.787 447.2 411.856Z" fill="#E1F9FA"></path><path d="M456.379 434.345C456.07 434.345 455.791 434.155 455.681 433.861L452.3 424.891C450.47 424.796 448.616 424.561 446.776 424.197L441.306 432.081C441.106 432.37 440.732 432.48 440.408 432.35L431.846 428.88C431.522 428.75 431.333 428.411 431.388 428.067L432.949 418.598C431.373 417.581 429.882 416.454 428.496 415.252L419.824 419.336C419.505 419.485 419.131 419.396 418.917 419.121L413.237 411.836C413.023 411.562 413.028 411.173 413.247 410.904L419.336 403.479C418.493 401.829 417.77 400.108 417.167 398.358L407.603 397.56C407.254 397.53 406.975 397.266 406.925 396.917L405.648 387.767C405.598 387.423 405.798 387.089 406.127 386.964L415.097 383.584C415.192 381.754 415.426 379.899 415.79 378.059L407.907 372.589C407.618 372.389 407.508 372.015 407.638 371.691L411.108 363.13C411.238 362.805 411.582 362.621 411.921 362.671L421.39 364.231C422.412 362.656 423.534 361.16 424.736 359.779L420.652 351.107C420.503 350.793 420.592 350.414 420.867 350.2L428.152 344.52C428.426 344.306 428.815 344.311 429.084 344.53L436.509 350.619C438.159 349.781 439.88 349.053 441.63 348.45L442.428 338.886C442.458 338.537 442.722 338.258 443.071 338.208L452.221 336.931C452.565 336.881 452.899 337.081 453.024 337.41L456.404 346.38C458.234 346.48 460.089 346.709 461.929 347.073L467.399 339.19C467.599 338.901 467.968 338.791 468.297 338.921L476.858 342.391C477.182 342.521 477.372 342.86 477.317 343.204L475.756 352.673C477.332 353.69 478.823 354.817 480.209 356.019L488.88 351.935C489.2 351.786 489.574 351.875 489.788 352.15L495.467 359.435C495.682 359.709 495.677 360.098 495.457 360.367L489.369 367.792C490.207 369.442 490.935 371.163 491.538 372.913L501.102 373.711C501.451 373.74 501.73 374.005 501.78 374.354L503.057 383.504C503.106 383.848 502.907 384.182 502.578 384.307L493.607 387.687C493.513 389.517 493.278 391.372 492.914 393.212L500.798 398.682C501.087 398.882 501.197 399.256 501.067 399.58L497.597 408.141C497.467 408.465 497.123 408.65 496.784 408.6L487.315 407.039C486.292 408.615 485.171 410.111 483.969 411.492L488.053 420.163C488.202 420.478 488.113 420.857 487.838 421.071L480.553 426.75C480.279 426.965 479.89 426.96 479.621 426.74L472.196 420.652C470.546 421.49 468.825 422.218 467.075 422.821L466.277 432.385C466.247 432.734 465.983 433.013 465.634 433.063L456.484 434.34C456.449 434.34 456.414 434.345 456.379 434.345ZM446.442 422.617C446.491 422.617 446.546 422.622 446.596 422.632C448.68 423.07 450.79 423.335 452.854 423.42C453.153 423.43 453.418 423.624 453.522 423.903L456.863 432.774L464.826 431.662L465.614 422.203C465.639 421.904 465.843 421.649 466.128 421.555C468.122 420.901 470.072 420.074 471.932 419.096C472.196 418.957 472.52 418.992 472.755 419.181L480.094 425.2L486.437 420.258L482.398 411.682C482.269 411.407 482.318 411.088 482.518 410.864C483.899 409.323 485.176 407.628 486.313 405.823C486.472 405.568 486.771 405.439 487.065 405.484L496.43 407.024L499.451 399.57L491.658 394.16C491.409 393.99 491.289 393.686 491.354 393.392C491.792 391.302 492.057 389.198 492.142 387.134C492.152 386.835 492.346 386.57 492.625 386.466L501.496 383.125L500.384 375.162L490.925 374.374C490.626 374.349 490.371 374.144 490.277 373.86C489.623 371.866 488.796 369.911 487.818 368.056C487.679 367.792 487.714 367.468 487.903 367.233L493.922 359.893L488.98 353.551L480.409 357.59C480.134 357.719 479.815 357.669 479.591 357.47C478.045 356.089 476.35 354.812 474.55 353.675C474.295 353.516 474.161 353.217 474.211 352.922L475.751 343.558L468.297 340.536L462.887 348.33C462.717 348.579 462.413 348.694 462.119 348.634C460.034 348.195 457.925 347.931 455.856 347.846C455.557 347.836 455.292 347.642 455.188 347.363L451.847 338.492L443.884 339.604L443.096 349.063C443.071 349.362 442.866 349.616 442.582 349.711C440.588 350.364 438.638 351.192 436.778 352.169C436.514 352.309 436.19 352.274 435.955 352.085L428.615 346.066L422.273 351.008L426.312 359.579C426.441 359.853 426.391 360.173 426.192 360.397C424.811 361.938 423.534 363.633 422.397 365.438C422.238 365.692 421.944 365.827 421.644 365.777L412.28 364.236L409.263 371.691L417.057 377.101C417.306 377.271 417.426 377.575 417.361 377.869C416.922 379.953 416.658 382.063 416.573 384.127C416.563 384.426 416.369 384.691 416.09 384.795L407.219 388.141L408.331 396.104L417.79 396.892C418.089 396.917 418.343 397.117 418.438 397.406C419.091 399.4 419.919 401.35 420.896 403.21C421.036 403.474 421.001 403.798 420.812 404.033L414.793 411.373L419.735 417.715L428.311 413.676C428.58 413.547 428.905 413.596 429.129 413.796C430.67 415.177 432.37 416.454 434.17 417.59C434.424 417.75 434.559 418.049 434.509 418.343L432.968 427.708L440.423 430.73L445.833 422.936C445.973 422.731 446.207 422.617 446.447 422.617H446.442ZM454.32 410.156C451.258 410.156 448.147 409.577 445.14 408.361C439.067 405.902 434.32 401.22 431.767 395.192C429.214 389.158 429.164 382.492 431.622 376.423C434.08 370.35 438.763 365.603 444.791 363.05C450.825 360.497 457.491 360.447 463.56 362.905C469.633 365.363 474.38 370.046 476.933 376.074C479.486 382.108 479.536 388.774 477.078 394.848C473.218 404.372 464.013 410.161 454.315 410.161L454.32 410.156ZM445.704 406.975C451.403 409.283 457.666 409.238 463.33 406.84C468.995 404.441 473.388 399.984 475.697 394.279C480.464 382.511 474.769 369.053 463.001 364.286C457.302 361.978 451.039 362.023 445.374 364.421C439.71 366.819 435.317 371.277 433.008 376.982C430.7 382.681 430.745 388.944 433.143 394.608C435.541 400.273 439.999 404.666 445.704 406.975Z" fill="#24AFB5"></path><path d="M315.423 159.358C325.029 152.803 327.533 139.745 321.015 130.194C314.496 120.642 301.425 118.213 291.819 124.769C282.213 131.324 279.71 144.381 286.228 153.933C292.746 163.484 305.817 165.913 315.423 159.358Z" fill="white"></path><path d="M303.521 163.796C302.27 163.796 301.003 163.686 299.727 163.462C294.007 162.455 289.031 159.278 285.725 154.521C282.419 149.764 281.167 144 282.21 138.286C284.359 126.493 295.713 118.595 307.52 120.679C313.24 121.686 318.216 124.862 321.522 129.619C324.828 134.371 326.079 140.141 325.037 145.85C323.118 156.371 313.878 163.791 303.521 163.791V163.796ZM283.68 138.56C282.713 143.88 283.875 149.246 286.952 153.669C290.033 158.096 294.66 161.048 299.986 161.991C310.986 163.931 321.562 156.571 323.561 145.586C324.529 140.265 323.372 134.9 320.29 130.477C317.209 126.049 312.581 123.097 307.256 122.155C296.261 120.215 285.68 127.575 283.68 138.56Z" fill="#24AFB5"></path><path d="M316.419 133.986L309.119 136.669C308.74 136.808 308.64 137.297 308.934 137.571L309.797 138.374C310.016 138.578 310.026 138.917 309.822 139.137L305.898 143.355C305.693 143.575 305.354 143.585 305.135 143.385L300.118 138.718C299.899 138.514 299.56 138.528 299.355 138.748L290.609 148.097C290.405 148.317 290.42 148.656 290.639 148.86L292.474 150.566C292.694 150.77 293.033 150.755 293.237 150.536L299.54 143.814C299.744 143.595 300.083 143.585 300.303 143.784L305.319 148.451C305.538 148.656 305.877 148.641 306.082 148.421L312.445 141.585C312.649 141.366 312.988 141.356 313.207 141.56L314.135 142.428C314.429 142.702 314.918 142.567 315.023 142.178L317.122 134.639C317.241 134.215 316.828 133.836 316.414 133.986H316.419Z" fill="#E1F9FA"></path><path d="M238.609 410.948L239.781 422.098L247.321 422.98V409.761L238.609 410.948Z" fill="white"></path><path d="M247.319 423.73C247.289 423.73 247.259 423.73 247.234 423.73L239.695 422.848C239.346 422.808 239.077 422.529 239.037 422.185L237.865 411.035C237.825 410.631 238.109 410.272 238.508 410.217L247.214 409.031C247.429 409.006 247.643 409.066 247.808 409.21C247.972 409.355 248.062 409.559 248.062 409.774V422.992C248.062 423.207 247.972 423.411 247.813 423.551C247.673 423.676 247.499 423.74 247.314 423.74L247.319 423.73ZM240.463 421.427L246.571 422.145V410.626L239.431 411.599L240.463 421.432V421.427Z" fill="#24AFB5"></path><path d="M248.507 442.392C245.365 442.835 240.214 443.224 234.166 442.387C232.186 442.112 230.87 440.188 231.349 438.248C232.68 432.838 234.974 422.571 238.913 417.814L239.89 420.392L241.241 417.964C241.426 417.629 241.76 417.405 242.139 417.36L245.096 416.986C245.714 416.906 246.288 417.315 246.417 417.929L246.886 420.168L247.918 417.231L251.359 438.627C251.598 440.457 250.327 442.142 248.502 442.402L248.507 442.392Z" fill="#E1F9FA"></path><path d="M241.381 443.627C239.162 443.627 236.699 443.492 234.066 443.128C232.909 442.969 231.867 442.321 231.214 441.358C230.561 440.396 230.346 439.199 230.626 438.072L230.91 436.9C232.276 431.291 234.56 421.901 238.339 417.334C238.509 417.129 238.773 417.03 239.038 417.075C239.302 417.12 239.521 417.299 239.616 417.548L240.025 418.625L240.593 417.603C240.893 417.065 241.436 416.696 242.049 416.621L245.006 416.247C245.889 416.137 246.732 416.651 247.056 417.449L247.22 416.98C247.335 416.656 247.654 416.456 247.993 416.481C248.332 416.511 248.611 416.77 248.666 417.11L252.107 438.506C252.406 440.76 250.835 442.824 248.616 443.138C246.756 443.403 244.283 443.632 241.386 443.632L241.381 443.627ZM238.698 419.353C235.597 423.966 233.597 432.188 232.361 437.254L232.077 438.426C231.897 439.154 232.032 439.897 232.451 440.515C232.869 441.129 233.533 441.543 234.271 441.647C240.179 442.465 245.216 442.101 248.402 441.652C249.813 441.453 250.805 440.137 250.621 438.72L247.649 420.251L247.594 420.411C247.484 420.725 247.17 420.929 246.841 420.909C246.507 420.889 246.228 420.645 246.158 420.316L245.689 418.077C245.639 417.848 245.425 417.693 245.196 417.723L242.239 418.097C242.099 418.117 241.974 418.202 241.905 418.326L240.553 420.755C240.414 421.009 240.135 421.158 239.845 421.139C239.556 421.119 239.302 420.929 239.202 420.66L238.708 419.358L238.698 419.353Z" fill="#24AFB5"></path><path d="M239.771 440.04C237.741 440.04 235.542 439.861 233.353 439.362C232.949 439.272 232.7 438.868 232.79 438.464C232.88 438.061 233.283 437.811 233.687 437.901C241.002 439.566 248.646 437.422 248.726 437.402C249.12 437.288 249.539 437.517 249.649 437.916C249.763 438.315 249.534 438.729 249.135 438.838C248.901 438.903 244.862 440.035 239.771 440.035V440.04Z" fill="#24AFB5"></path><path d="M237.977 431.748C237.573 431.748 237.244 431.429 237.229 431.025C237.214 430.612 237.538 430.268 237.952 430.253L245.018 430.018C245.436 429.998 245.776 430.327 245.791 430.741C245.806 431.155 245.481 431.499 245.068 431.514L238.002 431.748C238.002 431.748 237.987 431.748 237.977 431.748Z" fill="#24AFB5"></path><path d="M273.916 405.015L275.043 421.281H284.113L284.537 405.015H273.916Z" fill="white"></path><path d="M284.118 422.029H275.048C274.654 422.029 274.33 421.725 274.3 421.331L273.168 405.06C273.153 404.856 273.228 404.651 273.367 404.497C273.507 404.347 273.706 404.258 273.916 404.258H284.537C284.736 404.258 284.931 404.337 285.07 404.482C285.21 404.627 285.29 404.821 285.28 405.025L284.856 421.296C284.846 421.7 284.512 422.024 284.108 422.024L284.118 422.029ZM275.746 420.533H283.39L283.774 405.758H274.719L275.746 420.533Z" fill="#24AFB5"></path><path d="M272.676 430.466C272.651 432.007 273.703 433.358 275.204 433.707C280.42 434.919 292.163 437.621 295.514 438.12C299.862 438.768 305.207 437.437 307.506 434.894C309.805 432.351 302.36 426.278 298.83 424.069C293.584 420.788 288.543 414.3 286.429 414.006C284.314 413.712 280.37 419.845 280.37 419.845L273.918 417.138C273.918 417.138 272.796 422.662 272.676 430.471V430.466Z" fill="#E1F9FA"></path><path d="M297.778 439.032C296.975 439.032 296.182 438.977 295.404 438.863C292.138 438.374 281.238 435.881 275.035 434.435C273.205 434.011 271.898 432.335 271.928 430.456C272.043 422.672 273.17 417.042 273.185 416.987C273.23 416.768 273.369 416.579 273.569 416.474C273.768 416.369 274.003 416.359 274.207 416.444L280.086 418.912C281.367 417.002 284.354 412.973 286.533 413.263C287.77 413.432 289.336 414.868 291.988 417.386C294.187 419.471 296.676 421.834 299.229 423.43C301.517 424.861 308.164 429.752 308.658 433.313C308.773 434.116 308.563 434.834 308.064 435.392C306.07 437.601 301.856 439.027 297.778 439.027V439.032ZM274.486 418.189C274.172 420.054 273.509 424.641 273.424 430.48C273.404 431.662 274.227 432.714 275.374 432.979C280.35 434.135 292.288 436.883 295.623 437.382C299.817 438.005 304.898 436.664 306.947 434.39C307.077 434.25 307.237 434.006 307.172 433.522C306.838 431.124 301.881 426.86 298.431 424.701C295.748 423.026 293.2 420.607 290.951 418.473C289.081 416.698 287.142 414.858 286.319 414.749C285.327 414.594 282.769 417.486 280.989 420.253C280.794 420.558 280.405 420.677 280.071 420.538L274.481 418.189H274.486Z" fill="#24AFB5"></path><path d="M297.702 436.035C288.173 436.035 275.478 430.909 274.765 430.615C274.381 430.461 274.202 430.022 274.356 429.638C274.511 429.254 274.949 429.07 275.333 429.229C275.563 429.324 298.345 438.529 304.957 432.56C305.262 432.286 305.735 432.306 306.015 432.615C306.294 432.919 306.269 433.393 305.96 433.672C304.05 435.397 301.078 436.035 297.707 436.035H297.702Z" fill="#24AFB5"></path><path d="M287.65 426.192C287.446 426.192 287.241 426.107 287.097 425.943C286.822 425.634 286.842 425.165 287.151 424.886L291.764 420.727C292.068 420.448 292.542 420.473 292.821 420.782C293.095 421.091 293.075 421.56 292.766 421.839L288.154 425.998C288.009 426.127 287.83 426.192 287.655 426.192H287.65Z" fill="#24AFB5"></path><path d="M236.042 298.961C236.042 298.961 233.23 349.817 231.759 367.374C230.288 384.931 235.2 413.148 235.2 413.148L249.202 412.41C249.202 412.41 250.159 378.099 251.201 368.57C251.201 368.57 257.115 355.651 258.865 344.132C260.62 332.614 266.589 314.414 266.589 314.414C266.589 314.414 271.436 405.24 271.904 412.375C271.904 412.375 282.884 412.864 286.819 410.386C286.819 410.386 293.794 377.267 292.792 359.251C291.79 341.23 292.892 296.463 292.892 296.463L236.042 298.956V298.961Z" fill="#24AFB5"></path><path d="M248.622 369.318H244.344C243.93 369.318 243.596 368.984 243.596 368.57C243.596 368.156 243.93 367.822 244.344 367.822H248.622C249.036 367.822 249.37 368.156 249.37 368.57C249.37 368.984 249.036 369.318 248.622 369.318Z" fill="white"></path><path d="M279.104 395.731H279.089C278.675 395.721 278.346 395.382 278.356 394.968C278.51 386.486 287.77 371.362 288.164 370.724C288.378 370.37 288.842 370.265 289.191 370.48C289.545 370.694 289.65 371.158 289.435 371.507C289.341 371.662 279.996 386.92 279.847 394.993C279.837 395.402 279.508 395.726 279.099 395.726L279.104 395.731Z" fill="white"></path><path d="M297.318 217.622C298.335 217.542 303.342 227.789 318.994 227.36C334.651 226.931 347.212 209.414 347.212 209.414C347.212 209.414 352.617 200.299 356.721 197.003C360.824 193.707 361.468 193.273 361.468 193.273C361.468 193.273 362.754 194.988 361.468 197.003C360.181 199.022 356.631 202.792 356.631 202.792C356.631 202.792 360.545 204.941 358.78 209.414C356.751 214.56 351.031 214.146 351.031 214.146C351.031 214.146 339.423 265.535 291.449 241.117L297.318 217.627V217.622Z" fill="white"></path><path d="M315.239 248.447C307.904 248.447 299.836 246.223 291.11 241.78C290.801 241.621 290.641 241.272 290.726 240.933L296.595 217.442C296.674 217.128 296.944 216.903 297.263 216.878C297.841 216.823 298.23 217.267 299.083 218.215C301.426 220.828 306.902 226.921 318.978 226.612C333.813 226.203 346.049 209.738 346.588 209C346.992 208.322 352.173 199.695 356.256 196.414C360.335 193.138 361.023 192.665 361.053 192.645C361.382 192.42 361.831 192.495 362.071 192.814C362.135 192.899 363.651 194.968 362.105 197.397C361.108 198.962 358.854 201.48 357.772 202.657C359.233 203.849 360.819 206.282 359.478 209.678C357.693 214.206 353.27 214.814 351.614 214.884C350.657 218.504 344.823 238.006 328.916 245.47C324.698 247.45 320.13 248.437 315.244 248.437L315.239 248.447ZM292.321 240.718C306.203 247.659 318.295 248.811 328.273 244.129C345.087 236.24 350.253 214.201 350.303 213.981C350.383 213.622 350.712 213.368 351.086 213.403C351.295 213.418 356.286 213.697 358.086 209.145C359.592 205.325 356.411 203.525 356.276 203.45C356.072 203.34 355.932 203.141 355.897 202.912C355.863 202.682 355.932 202.453 356.092 202.283C356.127 202.248 359.612 198.539 360.844 196.604C361.392 195.741 361.347 194.953 361.193 194.42C360.55 194.913 359.358 195.851 357.194 197.586C353.245 200.762 347.914 209.708 347.859 209.798C347.849 209.818 347.834 209.833 347.824 209.853C347.301 210.581 334.865 227.679 319.023 228.113C318.689 228.123 318.36 228.128 318.036 228.128C305.959 228.128 300.389 221.915 297.971 219.222C297.901 219.142 297.831 219.062 297.757 218.983L292.326 240.723L292.321 240.718Z" fill="#24AFB5"></path><path d="M219.727 241.112C219.727 241.112 224.424 210.79 241.023 203.326C257.623 195.866 280.076 196.903 286.269 200.628C292.463 204.353 308.603 221.202 308.603 221.202L294.342 241.112C294.342 241.112 297.603 294.711 295.026 308.862C295.026 308.862 279.159 310.712 272.432 308.064C265.701 305.417 243.576 301.702 233 306.558L234.92 238.699L219.732 241.112H219.727Z" fill="#E1F9FA"></path><path d="M283.84 310.244C279.587 310.244 275.074 309.91 272.152 308.758C265.221 306.026 243.356 302.625 233.308 307.237C233.074 307.347 232.8 307.322 232.585 307.183C232.371 307.038 232.241 306.794 232.251 306.539L234.146 239.582L219.845 241.856C219.611 241.891 219.371 241.816 219.202 241.647C219.032 241.477 218.953 241.238 218.993 241.004C219.187 239.747 223.944 210.193 240.723 202.649C257.168 195.259 279.931 195.942 286.662 199.991C292.87 203.726 308.488 219.996 309.151 220.684C309.4 220.943 309.43 221.342 309.221 221.637L295.114 241.333C295.388 245.89 298.271 295.28 295.772 308.993C295.713 309.317 295.448 309.561 295.124 309.601C294.75 309.646 289.535 310.239 283.86 310.239L283.84 310.244ZM247.365 303.448C257.452 303.448 268.338 305.647 272.701 307.367C278.485 309.646 291.529 308.469 294.381 308.18C296.74 293.49 293.628 241.692 293.593 241.163C293.583 240.994 293.633 240.824 293.733 240.684L307.635 221.278C305.032 218.585 291.364 204.573 285.889 201.277C280.11 197.802 257.851 196.59 241.336 204.015C226.991 210.462 221.655 234.905 220.653 240.216L234.804 237.967C235.024 237.932 235.248 237.997 235.418 238.141C235.582 238.286 235.677 238.5 235.672 238.725L233.782 305.422C237.512 303.996 242.344 303.448 247.37 303.448H247.365Z" fill="#24AFB5"></path><path d="M247.575 293.318C247.221 293.318 246.902 293.064 246.837 292.7C246.767 292.291 247.037 291.907 247.446 291.832C272.477 287.409 279.797 270.102 279.867 269.927C280.021 269.543 280.46 269.359 280.839 269.518C281.223 269.673 281.407 270.107 281.253 270.49C281.178 270.675 273.594 288.731 247.705 293.308C247.66 293.318 247.615 293.318 247.575 293.318Z" fill="#24AFB5"></path><path d="M293.14 262.31H260.838L270.955 226.228H303.252L293.14 262.31Z" fill="#24AFB5"></path><path d="M222.573 241.227L238.918 233.922C238.918 233.922 236.614 261.621 269.689 248.831C269.689 248.831 268.467 245.271 268.642 241.112C268.816 236.953 271.299 240.977 271.648 244.358C271.997 247.739 279.761 246.368 284.428 245.036C289.096 243.705 295.219 244.577 284.428 250.531C273.638 256.485 271.274 253.827 271.274 253.827C271.274 253.827 257.492 273.109 240.349 269.016C219.257 263.974 222.573 241.237 222.573 241.237V241.227Z" fill="white"></path><path d="M245.25 270.337C243.6 270.337 241.909 270.152 240.174 269.738C218.668 264.602 221.799 241.356 221.834 241.122C221.869 240.867 222.034 240.653 222.268 240.548L238.613 233.243C238.853 233.133 239.137 233.163 239.351 233.318C239.566 233.472 239.685 233.727 239.666 233.991C239.656 234.091 238.928 243.974 245.375 248.791C250.336 252.495 258.205 252.361 268.771 248.387C268.417 247.125 267.759 244.293 267.893 241.092C267.918 240.488 267.993 238.643 269.28 238.603C269.29 238.603 269.299 238.603 269.314 238.603C270.95 238.603 272.187 242.293 272.391 244.293C272.431 244.657 272.595 244.926 272.92 245.146C274.645 246.312 279.841 245.574 284.219 244.328C286.253 243.749 290.297 243.146 291.07 245.016C291.698 246.542 289.763 248.451 284.782 251.194C276.505 255.761 272.875 255.407 271.464 254.824C269.26 257.701 258.808 270.352 245.24 270.352L245.25 270.337ZM223.27 241.74C223.131 243.126 222.802 247.918 224.288 253.074C226.616 261.147 232.076 266.268 240.523 268.282C256.993 272.221 270.531 253.577 270.666 253.388C270.8 253.203 271.005 253.089 271.234 253.074C271.459 253.064 271.683 253.154 271.833 253.323C271.833 253.323 274.256 255.283 284.069 249.868C289.754 246.731 289.694 245.569 289.689 245.559C289.459 245.205 287.305 244.991 284.632 245.749C282.409 246.382 274.939 248.302 272.082 246.367C271.394 245.903 270.985 245.23 270.905 244.427C270.726 242.692 269.978 240.987 269.474 240.329C269.439 240.508 269.404 240.767 269.389 241.141C269.225 245.111 270.387 248.551 270.397 248.586C270.526 248.965 270.332 249.379 269.958 249.529C258.544 253.941 249.967 254.091 244.467 249.977C238.718 245.674 238.125 238.075 238.13 235.093L223.265 241.74H223.27Z" fill="#24AFB5"></path><path d="M266.208 189.506C264.797 190.797 262.034 192.378 259.875 191.291C258.265 190.483 257.367 188.384 257.422 185.98C256.679 186.04 255.702 185.99 255.004 185.372C253.931 184.424 254.131 182.679 254.176 181.532C254.37 176.242 251.294 175.429 252.047 171.839C252.64 169.017 254.854 167.336 255.268 167.022C257.362 165.436 258.778 165.945 262.299 165.028C268.217 163.477 268.407 160.924 272.306 160.914C272.531 160.914 277.841 160.974 279.641 164.639C281.107 167.62 279.397 171.246 277.627 173.15C275.333 175.619 273.692 174.397 271.389 176.466C267.35 180.096 270.401 185.671 266.203 189.511L266.208 189.506Z" fill="#24AFB5"></path><path d="M278.021 180.061L277.787 179.861C276.615 178.849 275.393 177.677 275.084 176.166C273.763 169.724 267.864 167.385 267.59 173.299C267.52 174.79 262.07 174.715 262.718 176.281C264.403 180.365 264.443 179.268 262.06 180.774C261.79 180.784 261.521 180.844 261.272 180.963C260.05 181.532 259.621 183.187 260.309 184.663C260.728 185.561 261.461 186.174 262.244 186.398V192.851C262.244 195.269 260.783 197.448 258.544 198.366L256.365 199.258C256.365 199.258 266.527 205.89 276.839 198.61L275.463 197.992C273.04 196.905 271.449 194.531 271.364 191.873L271.354 190.612C272.047 190.672 272.721 190.627 273.339 190.447C276.221 189.61 277.183 186.284 276.69 182.155L277.861 181.522C278.41 181.227 278.49 180.475 278.021 180.071V180.061Z" fill="white"></path><path d="M266.417 202.738C260.443 202.738 256.025 199.921 255.955 199.876C255.721 199.727 255.592 199.457 255.621 199.178C255.646 198.904 255.826 198.66 256.085 198.555L258.264 197.662C260.229 196.86 261.5 194.965 261.5 192.841V186.902C260.703 186.523 260.039 185.84 259.635 184.967C258.773 183.122 259.371 181.013 260.962 180.275C261.231 180.15 261.52 180.065 261.829 180.036C262.203 179.806 262.513 179.642 262.762 179.507C262.907 179.427 263.066 179.347 263.166 179.283C263.101 179.048 262.892 178.56 262.667 178.046C262.493 177.647 262.283 177.158 262.034 176.56C261.879 176.186 261.889 175.812 262.054 175.468C262.443 174.665 263.565 174.351 264.856 173.987C265.484 173.813 266.641 173.488 266.851 173.219C267.03 169.639 269.095 169.2 269.728 169.15C269.798 169.145 269.872 169.14 269.942 169.14C272.136 169.14 274.939 171.688 275.826 176.002C276.095 177.303 277.237 178.38 278.284 179.283L278.519 179.482C278.928 179.836 279.137 180.365 279.077 180.898C279.017 181.432 278.698 181.905 278.225 182.16L277.492 182.554C277.915 187.171 276.494 190.288 273.552 191.145C273.104 191.275 272.62 191.35 272.111 191.365V191.848C272.191 194.182 273.627 196.326 275.771 197.288L277.148 197.907C277.392 198.016 277.561 198.251 277.586 198.515C277.611 198.784 277.492 199.044 277.272 199.198C273.497 201.861 269.723 202.723 266.422 202.723L266.417 202.738ZM258.095 199.353C260.937 200.739 267.933 203.212 275.283 198.729L275.148 198.67C272.48 197.473 270.7 194.815 270.61 191.893L270.6 190.617C270.6 190.407 270.685 190.203 270.84 190.058C270.994 189.914 271.209 189.844 271.413 189.864C272.041 189.919 272.615 189.874 273.124 189.724C276.355 188.782 276.17 184.174 275.941 182.235C275.906 181.93 276.061 181.631 276.33 181.487L277.502 180.853C277.547 180.828 277.566 180.793 277.576 180.749C277.576 180.714 277.576 180.669 277.526 180.629L277.292 180.429C276.056 179.367 274.709 178.081 274.345 176.316C273.562 172.501 271.169 170.537 269.833 170.651C268.586 170.751 268.367 172.561 268.332 173.334C268.277 174.59 266.736 175.019 265.25 175.438C264.672 175.603 263.734 175.862 263.445 176.086C263.674 176.635 263.869 177.084 264.028 177.458C264.836 179.323 265.11 179.951 263.455 180.833C263.191 180.978 262.857 181.153 262.458 181.407C262.348 181.477 262.218 181.517 262.089 181.521C261.904 181.526 261.735 181.566 261.585 181.641C260.742 182.035 260.468 183.247 260.982 184.349C261.291 185.007 261.834 185.506 262.448 185.68C262.767 185.77 262.991 186.064 262.991 186.398V192.851C262.991 195.583 261.356 198.021 258.823 199.054L258.095 199.353Z" fill="#24AFB5"></path><path d="M271.354 191.356C271.315 191.356 271.28 191.356 271.24 191.346C266.932 190.688 264.987 187.382 264.907 187.243C264.703 186.884 264.827 186.425 265.181 186.22C265.54 186.016 265.994 186.136 266.203 186.495C266.273 186.609 267.894 189.317 271.469 189.865C271.878 189.925 272.157 190.309 272.092 190.718C272.038 191.087 271.718 191.351 271.354 191.351V191.356Z" fill="#24AFB5"></path><path d="M197.698 178.943C192.916 173.767 185.805 172.68 180.465 174.136C173.703 175.981 170.293 181.835 167.889 185.958C163.636 193.253 165.69 195.896 162.349 200.13C156.43 207.634 142.075 202.668 135.084 208.427C118.29 222.274 127.445 245.166 142.329 255.967C152.257 263.172 165.76 259.004 169.435 257.872C180.584 254.431 199.064 247.689 200.854 231.589C202.056 220.763 191.006 212.082 196.945 203.062C198.456 200.763 199.707 200.14 200.834 197.267C202.659 192.6 203.068 184.742 197.703 178.938L197.698 178.943Z" fill="#24AFB5"></path><path d="M180.241 180.22C182.779 178.161 181.173 172.082 179.548 168.801C178.939 167.575 176.212 162.075 172.627 162.289C168.942 162.508 165.416 168.692 166.733 173.588C168.378 179.711 177.269 182.638 180.246 180.22H180.241Z" fill="#24AFB5"></path><path d="M163.085 217.543C170.749 215.04 182.427 213.25 196.389 217.693C201.48 219.314 205.13 223.796 205.758 229.102L217.132 294.578C217.696 299.34 211.333 303.967 206.85 305.662C202.168 307.438 195.093 309.113 185.07 309.113C174.324 309.113 161.35 309.053 156.992 307.143C156.862 307.088 156.732 307.029 156.598 306.964C150.993 304.351 147.692 298.432 148.241 292.274L150.554 282.65C153.107 272.039 154.294 261.139 154.08 250.224L153.706 231.166C153.422 225.033 157.251 219.443 163.09 217.539L163.085 217.543Z" fill="#E1F9FA"></path><path d="M216.783 245.677C216.783 245.677 207.703 220.53 197.525 218.117L202.701 253.744L216.783 245.677Z" fill="#E1F9FA"></path><path d="M140.545 260.353C136.656 257.277 135.02 252.151 136.407 247.389C137.653 243.106 139.224 237.95 140.595 234.215C145.277 221.45 154.991 218.598 158.77 217.695C159.364 217.551 166.095 216.658 166.095 216.658L162.046 255.711L144.744 262.797L140.545 260.348V260.353Z" fill="#E1F9FA"></path><path d="M152.816 291.494C152.696 291.494 152.582 291.464 152.467 291.409C152.103 291.215 151.963 290.766 152.153 290.397C155.783 283.501 163.088 278.769 173.28 276.71C181.742 274.999 190.328 275.493 195.105 276.435C201.827 277.762 208.534 282.08 208.818 282.264C209.167 282.489 209.262 282.952 209.037 283.296C208.813 283.641 208.349 283.74 208.005 283.516C207.94 283.471 201.249 279.168 194.816 277.901C184.654 275.897 161.173 276.48 153.479 291.095C153.345 291.349 153.085 291.494 152.816 291.494Z" fill="#24AFB5"></path><path d="M180.827 266.215L225.405 266.146C226.537 266.146 227.519 265.373 227.788 264.276L235.353 232.822C235.737 231.271 234.56 229.775 232.964 229.775L188.386 229.845C187.254 229.845 186.272 230.618 186.003 231.715L178.438 263.169C178.054 264.72 179.231 266.215 180.827 266.215Z" fill="#26D0D8"></path><path d="M180.822 266.963C179.83 266.963 178.913 266.515 178.299 265.737C177.686 264.954 177.472 263.957 177.711 262.989L185.275 231.54C185.629 230.104 186.906 229.097 188.387 229.097L232.965 229.027C233.957 229.027 234.875 229.476 235.488 230.254C236.101 231.037 236.316 232.034 236.076 233.001L228.512 264.45C228.158 265.886 226.881 266.893 225.401 266.893L180.822 266.963ZM232.965 230.523L188.387 230.593C187.599 230.593 186.916 231.131 186.726 231.894L179.162 263.343C179.032 263.862 179.147 264.395 179.476 264.814C179.8 265.228 180.294 265.467 180.822 265.467L225.401 265.398C226.188 265.398 226.871 264.859 227.061 264.096L234.625 232.647C234.755 232.129 234.64 231.595 234.311 231.176C233.987 230.762 233.493 230.523 232.965 230.523Z" fill="#24AFB5"></path><path d="M210.81 248.592C210.366 250.492 208.571 251.694 206.806 251.28C205.041 250.866 203.969 248.991 204.413 247.091C204.856 245.191 206.652 243.99 208.417 244.404C210.182 244.817 211.254 246.692 210.81 248.592Z" fill="white"></path><path d="M232.741 244.797L232.172 247.06C231.933 248.013 230.881 248.511 229.993 248.093L222.454 244.517C221.452 244.044 220.255 244.542 219.906 245.594C219.198 247.743 219.796 251.558 229.395 255.452C235.259 257.831 235.468 251.389 234.511 247.459C234.087 245.719 232.741 244.802 232.741 244.802V244.797Z" fill="white"></path><path d="M231.669 256.71C230.906 256.71 230.053 256.521 229.116 256.137C219.293 252.152 218.3 248.074 219.198 245.351C219.427 244.653 219.951 244.085 220.634 243.79C221.322 243.496 222.105 243.511 222.778 243.83L230.318 247.405C230.537 247.51 230.791 247.51 231.011 247.405C231.23 247.301 231.395 247.106 231.45 246.867L232.018 244.603C232.078 244.369 232.247 244.174 232.477 244.085C232.706 243.995 232.96 244.025 233.165 244.164C233.23 244.209 234.756 245.266 235.244 247.266C235.947 250.143 236.047 254.117 234.032 255.857C233.384 256.416 232.596 256.695 231.669 256.695V256.71ZM221.656 245.082C221.507 245.082 221.357 245.112 221.218 245.172C220.928 245.296 220.714 245.531 220.614 245.825C219.627 248.817 222.848 251.988 229.674 254.755C231.19 255.369 232.327 255.364 233.05 254.74C234.386 253.584 234.431 250.293 233.788 247.635C233.653 247.081 233.399 246.623 233.145 246.269L232.901 247.241C232.731 247.914 232.277 248.468 231.649 248.767C231.021 249.061 230.303 249.061 229.674 248.767L222.135 245.192C221.985 245.122 221.821 245.087 221.656 245.087V245.082Z" fill="#24AFB5"></path><path d="M167.659 235.155C167.659 235.155 147.639 246.434 143.51 249.974C139.381 253.515 134.904 256.202 140.743 263.916C145.704 270.473 154.445 264.609 169.853 242.515C170.576 241.477 171.758 240.839 172.99 240.56C174.535 240.216 176.779 238.994 177.811 234.94C177.811 234.94 185.116 235.977 185.76 232.417L174.79 230.672C173.319 230.413 171.818 230.896 170.776 231.963L167.664 235.16L167.659 235.155Z" fill="white"></path><path d="M145.301 267.192C143.297 267.192 141.561 266.24 140.14 264.365C134.321 256.681 138.261 253.39 142.065 250.209C142.379 249.945 142.698 249.68 143.017 249.406C147.051 245.945 165.526 235.499 167.191 234.557L170.228 231.44C171.445 230.194 173.195 229.63 174.91 229.934L185.865 231.679C186.065 231.709 186.239 231.819 186.359 231.984C186.479 232.148 186.519 232.353 186.484 232.547C185.84 236.097 180.291 235.918 178.351 235.748C177.104 239.817 174.581 240.964 173.145 241.288C171.973 241.552 171.021 242.136 170.462 242.939C159.004 259.374 151.046 267.083 145.426 267.192C145.386 267.192 145.341 267.192 145.301 267.192ZM173.998 231.345C172.986 231.345 172.018 231.749 171.305 232.482L168.194 235.679C168.144 235.728 168.089 235.773 168.024 235.808C167.825 235.923 148.019 247.092 143.995 250.543C143.671 250.817 143.352 251.091 143.027 251.356C139.168 254.582 136.376 256.91 141.332 263.463C142.469 264.963 143.765 265.696 145.296 265.696C145.326 265.696 145.361 265.696 145.391 265.696C150.422 265.597 158.221 257.873 169.231 242.086C170.004 240.974 171.28 240.176 172.816 239.832C174.252 239.513 176.157 238.371 177.074 234.756C177.169 234.387 177.533 234.148 177.902 234.198C177.962 234.208 183.272 234.891 184.693 233.006L174.661 231.41C174.437 231.37 174.212 231.35 173.993 231.35L173.998 231.345Z" fill="#24AFB5"></path><path d="M188.2 205.489C189.277 206.028 190.578 205.809 191.431 204.951C192.393 203.984 193.166 202.961 193.8 201.919L195.021 201.944C195.41 201.954 195.739 201.645 195.754 201.256L195.964 196.479C196.906 194.943 197.285 193.647 197.37 192.6C197.514 190.825 195.934 187.633 194.333 186.85C192.164 185.793 188.25 185.22 186.2 188.297C185.323 189.618 183.897 190.565 183.034 190.411C182.221 190.266 181.887 189.573 181.488 188.85C180.74 187.509 178.885 186.247 177.1 188.366C175.29 190.515 176.547 192.49 177.669 194.141C178.122 194.804 177.634 196.654 177.449 197.437L174.801 208.706C174.123 211.603 172.049 213.976 169.272 215.038L166.439 216.125C166.439 216.125 169.566 225.614 182.092 225.345C191.65 225.141 190.917 217.297 190.917 217.297L189.661 216.744C186.375 215.293 184.575 211.717 185.368 208.217L186.21 204.497L188.195 205.489H188.2Z" fill="white"></path><path d="M181.582 226.093C169.091 226.093 165.765 216.455 165.735 216.355C165.61 215.976 165.805 215.567 166.179 215.422L169.011 214.335C171.559 213.358 173.454 211.189 174.077 208.531L176.765 197.073C177.184 195.312 177.154 194.729 177.049 194.555C176.027 193.049 174.307 190.521 176.53 187.883C177.602 186.611 178.675 186.422 179.398 186.492C180.674 186.616 181.656 187.599 182.145 188.481L182.225 188.621C182.609 189.314 182.798 189.603 183.172 189.668C183.616 189.758 184.793 189.07 185.586 187.878C187.705 184.696 191.779 184.766 194.666 186.177C196.605 187.125 198.281 190.69 198.121 192.66C198.017 193.941 197.543 195.302 196.705 196.704L196.501 201.291C196.466 202.069 195.813 202.692 195.035 202.692H195.005L194.207 202.677C193.554 203.695 192.801 204.637 191.958 205.48C190.871 206.572 189.226 206.846 187.859 206.158L186.728 205.589L186.094 208.377C185.381 211.523 187.007 214.754 189.959 216.056L191.215 216.609C191.465 216.719 191.634 216.953 191.659 217.222C191.674 217.362 191.948 220.613 189.669 223.171C188.009 225.036 185.461 226.013 182.105 226.088C181.926 226.088 181.751 226.093 181.577 226.093H181.582ZM167.425 216.544C168.378 218.624 172.038 224.812 182.08 224.587C185.007 224.528 187.186 223.71 188.557 222.169C189.974 220.583 190.173 218.629 190.188 217.781L189.365 217.417C185.76 215.826 183.775 211.882 184.643 208.043L185.486 204.323C185.536 204.098 185.69 203.909 185.895 203.809C186.104 203.709 186.344 203.714 186.548 203.819L188.533 204.811C189.32 205.205 190.273 205.046 190.901 204.413C191.759 203.55 192.517 202.578 193.16 201.52C193.299 201.291 193.539 201.176 193.813 201.161L195.035 201.186L195.219 196.434C195.224 196.31 195.264 196.185 195.329 196.075C196.102 194.819 196.536 193.622 196.625 192.525C196.755 190.979 195.259 188.122 194.008 187.509C192.342 186.696 188.692 185.893 186.827 188.696C185.925 190.052 184.249 191.368 182.903 191.134C181.791 190.939 181.302 190.047 180.908 189.334L180.834 189.199C180.544 188.676 179.951 188.042 179.253 187.973C178.724 187.918 178.196 188.212 177.672 188.835C176.286 190.481 177.054 191.892 178.286 193.707C178.844 194.53 178.56 195.991 178.221 197.412L178.176 197.591L175.528 208.86C174.79 212.002 172.551 214.565 169.54 215.722L167.42 216.534L167.425 216.544Z" fill="#24AFB5"></path><path d="M187.545 401.915L180.908 421.721C180.908 421.721 188.138 421.102 188.832 421.237C189.525 421.372 197.981 403.171 197.981 403.171L187.55 401.91L187.545 401.915Z" fill="white"></path><path d="M180.907 422.467C180.678 422.467 180.463 422.363 180.319 422.183C180.164 421.984 180.119 421.724 180.199 421.485L186.836 401.679C186.951 401.345 187.28 401.131 187.634 401.176L198.065 402.437C198.304 402.467 198.514 402.607 198.629 402.816C198.743 403.026 198.753 403.28 198.653 403.494C198.634 403.539 196.509 408.102 194.33 412.589C189.678 422.173 189.404 422.113 188.681 421.979C188.202 421.919 184.383 422.178 180.967 422.472C180.947 422.472 180.922 422.472 180.902 422.472L180.907 422.467ZM188.062 402.726L181.979 420.877C184.133 420.702 187.319 420.448 188.556 420.473C189.548 419.092 193.408 411.208 196.868 403.788L188.062 402.726ZM188.93 420.493C188.93 420.493 188.96 420.493 188.975 420.498C188.96 420.498 188.945 420.498 188.93 420.493Z" fill="#24AFB5"></path><path d="M182.428 417.368C182.428 417.368 192.411 413.274 194.26 418.41C196.609 424.942 200.279 434.91 200.279 434.91C200.902 436.645 199.706 438.495 197.871 438.644C194.221 438.939 188.781 439.173 186.242 438.285C182.238 436.879 175.602 424.214 175.602 424.214L177.651 413.433C177.651 413.433 181.271 412.925 182.433 417.363L182.428 417.368Z" fill="#26D0D8"></path><path d="M191.997 439.661C189.623 439.661 187.41 439.492 185.993 438.993C181.835 437.532 175.632 425.884 174.939 424.563C174.859 424.413 174.834 424.243 174.864 424.074L176.913 413.293C176.973 412.979 177.227 412.735 177.541 412.69C178.918 412.496 181.68 413.059 182.907 416.385C184.762 415.727 189.559 414.281 192.6 415.632C193.752 416.146 194.545 416.993 194.964 418.155C197.282 424.612 200.942 434.55 200.982 434.65C201.361 435.702 201.232 436.839 200.628 437.776C200.025 438.714 199.043 439.297 197.931 439.387C196.101 439.537 193.996 439.656 192.002 439.656L191.997 439.661ZM176.385 424.099C178.299 427.709 183.505 436.535 186.492 437.582C188.332 438.225 192.351 438.34 197.811 437.901C198.454 437.851 199.023 437.507 199.372 436.969C199.721 436.43 199.796 435.772 199.576 435.169C199.541 435.074 195.881 425.126 193.558 418.669C193.278 417.896 192.77 417.352 191.992 417.008C189.354 415.836 184.398 417.372 182.712 418.065C182.513 418.145 182.288 418.14 182.094 418.04C181.9 417.946 181.76 417.771 181.705 417.562C180.967 414.734 179.177 414.236 178.27 414.176L176.385 424.104V424.099Z" fill="#24AFB5"></path><path d="M197.721 435.078H187.469C187.055 435.078 186.721 434.744 186.721 434.33C186.721 433.916 187.055 433.582 187.469 433.582H197.721C198.135 433.582 198.469 433.916 198.469 434.33C198.469 434.744 198.135 435.078 197.721 435.078Z" fill="#24AFB5"></path><path d="M168.721 406.78L170.98 426.706L180.055 424.212L179.352 406.261L168.721 406.78Z" fill="white"></path><path d="M170.979 427.452C170.829 427.452 170.684 427.407 170.56 427.323C170.38 427.198 170.261 427.004 170.236 426.789L167.982 406.864C167.957 406.659 168.022 406.45 168.156 406.295C168.291 406.136 168.485 406.041 168.69 406.031L179.321 405.512C179.515 405.502 179.715 405.572 179.864 405.707C180.009 405.841 180.099 406.031 180.109 406.23L180.807 424.181C180.822 424.53 180.592 424.84 180.258 424.929L171.183 427.417C171.118 427.437 171.053 427.442 170.984 427.442L170.979 427.452ZM169.557 407.487L171.627 425.752L179.286 423.653L178.638 407.048L169.557 407.492V407.487Z" fill="#24AFB5"></path><path d="M170.117 441.377H184.472C186.417 441.377 187.908 439.652 187.624 437.732C187.145 434.491 185.584 429.111 180.902 421.716C180.393 420.908 179.501 420.42 178.543 420.42H174.175C173.422 420.42 172.789 420.988 172.714 421.736L172.385 424.887L171.064 423.531C170.545 422.998 169.643 423.202 169.409 423.91C168.571 426.458 167.045 431.913 166.93 438.141C166.895 439.921 168.336 441.382 170.117 441.382V441.377Z" fill="#26D0D8"></path><path d="M184.472 442.126H170.117C169.054 442.126 168.057 441.707 167.309 440.949C166.561 440.192 166.162 439.184 166.182 438.122C166.297 431.854 167.808 426.379 168.695 423.672C168.885 423.088 169.359 422.66 169.957 422.52C170.555 422.38 171.169 422.56 171.597 423.004L171.807 423.218L171.971 421.657C172.091 420.525 173.038 419.668 174.18 419.668H178.548C179.77 419.668 180.887 420.281 181.54 421.313C186.302 428.843 187.883 434.338 188.372 437.619C188.541 438.751 188.207 439.892 187.459 440.76C186.711 441.628 185.624 442.121 184.482 442.121L184.472 442.126ZM170.351 423.971C170.351 423.971 170.306 423.971 170.291 423.976C170.241 423.986 170.151 424.021 170.117 424.136C169.254 426.763 167.788 432.074 167.678 438.147C167.668 438.805 167.913 439.429 168.376 439.897C168.84 440.366 169.458 440.625 170.117 440.625H184.472C185.18 440.625 185.853 440.316 186.317 439.783C186.781 439.249 186.985 438.536 186.881 437.838C186.417 434.697 184.891 429.421 180.269 422.111C179.9 421.528 179.237 421.159 178.543 421.159H174.175C173.806 421.159 173.497 421.438 173.457 421.807L173.128 424.958C173.098 425.247 172.904 425.492 172.63 425.587C172.36 425.681 172.051 425.611 171.847 425.402L170.525 424.046C170.466 423.986 170.401 423.971 170.351 423.971Z" fill="#24AFB5"></path><path d="M184.489 438.695H169.949C169.535 438.695 169.201 438.361 169.201 437.947C169.201 437.533 169.535 437.199 169.949 437.199H184.489C184.903 437.199 185.237 437.533 185.237 437.947C185.237 438.361 184.903 438.695 184.489 438.695Z" fill="#24AFB5"></path><path d="M202.801 287.118C202.422 286.2 201.665 285.497 200.717 285.198C195.467 283.553 177.162 279.21 158.323 291.296C157.436 291.865 156.867 292.822 156.792 293.874C156.109 303.448 153.571 353.506 169.403 412.769L180.069 412.011L182.243 310.678C182.243 310.678 198.044 347.827 185.195 406.95L196.289 408.999C196.289 408.999 212.525 387.653 215.432 355.032C218.005 326.176 205.679 294.134 202.801 287.123V287.118Z" fill="#24AFB5"></path><path d="M172.121 366.002C172.121 366.002 172.101 366.002 172.086 366.002C161.939 365.563 160.797 351.835 160.787 351.696C160.757 351.282 161.066 350.928 161.475 350.893C161.884 350.858 162.243 351.172 162.278 351.581C162.288 351.706 163.335 364.122 172.151 364.501C172.565 364.521 172.884 364.87 172.864 365.279C172.844 365.683 172.515 365.997 172.116 365.997L172.121 366.002Z" fill="#E1F9FA"></path><path d="M183.17 320.717C182.766 320.717 182.437 320.398 182.422 319.989L182.138 310.36C182.073 308.201 183.09 306.167 184.86 304.925L189.014 302.003C189.348 301.769 189.817 301.848 190.056 302.188C190.295 302.527 190.211 302.99 189.872 303.23L185.718 306.152C184.362 307.104 183.584 308.665 183.629 310.32L183.913 319.949C183.923 320.363 183.599 320.707 183.19 320.717C183.18 320.717 183.175 320.717 183.165 320.717H183.17Z" fill="#E1F9FA"></path><line x1="312.828" y1="26" x2="345.828" y2="26" stroke="#12B9C0" stroke-width="6" stroke-linecap="round"></line><line x1="235.828" y1="24.7574" x2="235.585" y2="25" stroke="#12B9C0" stroke-width="6" stroke-linecap="round"></line><path d="M247.328 14.5L264.828 3L285.328 10L290.328 22L301.828 14L310.828 19.5L312.828 28.5H244.828L247.328 14.5Z" fill="#E1F9FA"></path><path d="M289.828 25.5C289.828 13.0736 279.755 3 267.328 3C254.902 3 244.828 13.0736 244.828 25.5" stroke="#12B9C0" stroke-width="6" stroke-linecap="round"></path><path d="M312.828 26C312.828 19.3726 307.679 14 301.328 14C294.977 14 289.828 19.3726 289.828 26" stroke="#12B9C0" stroke-width="6" stroke-linecap="round"></path><line x1="81" y1="173.922" x2="114" y2="173.922" stroke="#12B9C0" stroke-width="6" stroke-linecap="round"></line><line x1="4" y1="172.679" x2="3.75736" y2="172.922" stroke="#12B9C0" stroke-width="6" stroke-linecap="round"></line><path d="M15.5 162.422L33 150.922L53.5 157.922L58.5 169.922L70 161.922L79 167.422L81 176.422H13L15.5 162.422Z" fill="#E1F9FA"></path><path d="M58 173.422C58 160.995 47.9264 150.922 35.5 150.922C23.0736 150.922 13 160.995 13 173.422" stroke="#12B9C0" stroke-width="6" stroke-linecap="round"></path><path d="M81 173.922C81 167.294 75.8513 161.922 69.5 161.922C63.1487 161.922 58 167.294 58 173.922" stroke="#12B9C0" stroke-width="6" stroke-linecap="round"></path><line x1="578.49" y1="453.9" x2="611.49" y2="453.9" stroke="#12B9C0" stroke-width="6" stroke-linecap="round"></line><line x1="501.49" y1="452.658" x2="501.248" y2="452.9" stroke="#12B9C0" stroke-width="6" stroke-linecap="round"></line><path d="M512.99 442.4L530.49 430.9L550.99 437.9L555.99 449.9L567.49 441.9L576.49 447.4L578.49 456.4H510.49L512.99 442.4Z" fill="#E1F9FA"></path><path d="M555.49 453.4C555.49 440.974 545.417 430.9 532.99 430.9C520.564 430.9 510.49 440.974 510.49 453.4" stroke="#12B9C0" stroke-width="6" stroke-linecap="round"></path><path d="M578.49 453.9C578.49 447.273 573.342 441.9 566.99 441.9C560.639 441.9 555.49 447.273 555.49 453.9" stroke="#12B9C0" stroke-width="6" stroke-linecap="round"></path></svg> 