<?xml version="1.0" encoding="UTF-8"?> <svg xmlns="http://www.w3.org/2000/svg" width="502" height="498" viewBox="0 0 502 498" fill="none"><path d="M338.545 305.646L245.9 306.227C245.301 306.227 245.101 306.783 245.101 307.321V386.142C245.101 393.689 192.459 413.295 191.951 412.297L191.885 420.636C191.885 422.19 193.245 423.569 194.987 423.569H273.844C277.449 423.569 281.01 422.765 284.27 421.398L326.976 403.413C334.663 400.178 339.512 393.224 339.512 385.64V306.735C339.512 306.196 339.137 305.64 338.533 305.64L338.545 305.646Z" fill="white"></path><path d="M235.722 301.636V380.475C235.722 388.246 230.72 395.327 222.859 398.683L194.049 410.978C192.169 411.782 192.81 414.304 194.896 414.304H274.056C277.618 414.304 281.131 413.602 284.348 412.248L316.272 398.81C324.188 395.478 329.244 388.367 329.244 380.56V301.642C329.244 301.321 328.947 301.055 328.591 301.055H236.381C236.018 301.055 235.728 301.315 235.728 301.642L235.722 301.636Z" fill="#E1F9FA"></path><path d="M63.1377 346.304L444.084 347.132L450.699 347.144L463 347.169C466.495 347.169 469.368 344.441 469.809 340.964L501.66 92.0435C502.434 85.9901 498.02 80.2693 491.924 80.2693L97.2386 80.6261L63.1377 346.298V346.304Z" fill="#24AFB5"></path><path d="M477.126 80.222C483.995 80.222 489.583 87.1402 488.7 93.9737L456.619 340.989C456.172 344.461 453.221 347.061 449.731 347.061L446.726 347.176L57.8578 347.061C53.667 347.061 50.4316 343.372 50.9698 339.205L83.698 87.1644C84.1455 83.6932 86.8184 80.222 90.3077 80.222H477.126Z" fill="#E1F9FA"></path><path d="M57.8588 347.968C55.6032 347.968 53.4564 346.994 51.9627 345.301C50.469 343.602 49.7735 341.334 50.0637 339.09L73.2553 165.943C73.3219 165.447 73.7814 165.102 74.2773 165.163C74.7732 165.229 75.124 165.683 75.0574 166.185L51.8658 339.326C51.6421 341.05 52.1743 342.797 53.3294 344.103C54.4784 345.41 56.1293 346.153 57.8588 346.153L449.853 345.446C452.871 345.446 455.755 342.852 456.149 339.786L487.8 93.8585C488.187 90.853 487.262 87.8293 485.267 85.5555C483.277 83.2938 480.411 81.9936 477.405 81.9936H436.858C436.356 81.9936 435.951 81.5885 435.951 81.0865C435.951 80.5846 436.356 80.1794 436.858 80.1794H477.405C480.931 80.1794 484.299 81.7034 486.627 84.3521C488.968 87.0129 490.056 90.5627 489.602 94.0823L457.951 340.009C457.437 344.001 453.808 347.248 449.859 347.248L57.8649 347.956L57.8588 347.968Z" fill="#24AFB5"></path><path d="M368.837 81.9941L110.41 81.8611C109.908 81.8611 109.503 81.4559 109.503 80.954C109.503 80.452 109.908 80.0469 110.41 80.0469L368.837 80.1799C369.339 80.1799 369.744 80.5851 369.744 81.087C369.744 81.5889 369.339 81.9941 368.837 81.9941Z" fill="#24AFB5"></path><path d="M443.273 332.361C443.231 332.361 443.195 332.361 443.152 332.355C442.657 332.288 442.306 331.835 442.372 331.339L473.214 96.702C473.28 96.2061 473.734 95.8554 474.23 95.9219C474.726 95.9884 475.076 96.442 475.01 96.9379L444.168 331.575C444.108 332.034 443.721 332.361 443.267 332.361H443.273Z" fill="#CADDFF"></path><path d="M252.677 186.416H131.204L146.97 64.7433H268.443L252.677 186.416Z" fill="white"></path><path d="M214.562 77.8235C215.632 78.144 216.654 78.5915 217.603 79.1721C228.096 85.5762 219.043 100.416 223.209 110.032C226.783 118.274 223.475 124.781 216.448 131.312C212.385 135.092 208.617 138.23 206.839 143.528C205.811 146.582 205.261 149.726 204.07 152.738C198.192 167.602 180.34 172.223 167.302 168.993C161.466 167.548 156.247 164.5 152.238 160.309C147.605 155.465 142.012 147.15 148.773 140.232C150.962 137.995 153.798 136.531 156.628 135.328C161.557 133.241 169.836 131.101 172.085 125.41C173.778 121.122 171.081 116.629 173.99 112.463C176.264 109.209 180.57 108.211 182.976 105.037C185.057 102.291 185.129 98.7715 185.486 95.5301C187.463 77.5575 203.791 74.6003 214.556 77.8235H214.562Z" fill="#24AFB5"></path><path d="M142.162 185.881C146.758 172.886 151.584 156.497 156.428 145.824C158.98 140.188 164.277 136.293 170.403 135.423C189.476 132.713 208.036 131.74 225.839 133.27C230.55 133.675 234.608 136.735 236.319 141.137C241.036 153.25 243.795 168.79 246.426 186.63L142.162 185.881Z" fill="#26D0D8"></path><path d="M246.691 187.097H246.672L142.145 186.788C141.855 186.788 141.583 186.637 141.419 186.395C141.256 186.153 141.214 185.851 141.311 185.579C142.774 181.436 144.298 176.846 145.773 172.402C148.979 162.744 152.292 152.76 155.606 145.442C158.285 139.522 163.776 135.44 170.283 134.515C190.766 131.606 208.968 130.899 225.925 132.356C231.005 132.791 235.316 136.027 237.173 140.804C242.023 153.268 245.082 168.979 247.592 186.056C247.628 186.322 247.549 186.589 247.374 186.788C247.198 186.982 246.957 187.097 246.697 187.097H246.691ZM143.433 184.998L245.632 185.258C243.165 168.628 240.16 153.504 235.474 141.463C233.865 137.339 230.146 134.545 225.762 134.17C208.944 132.725 190.874 133.426 170.531 136.317C164.641 137.152 159.676 140.846 157.251 146.192C153.974 153.419 150.678 163.361 147.491 172.97C146.154 177.004 144.776 181.158 143.433 184.998Z" fill="#24AFB5"></path><path d="M196.709 114.846L192.089 132.589L183.175 133.914C183.175 133.914 185.14 144.563 196.612 145.349C208.084 146.135 214.609 138.032 215.812 133.75L207.733 132.589L208.568 115.366L196.709 114.84V114.846Z" fill="white"></path><path d="M198.154 146.304C197.628 146.304 197.096 146.286 196.552 146.25C184.517 145.421 182.304 134.185 182.286 134.076C182.244 133.834 182.298 133.586 182.437 133.387C182.582 133.187 182.8 133.054 183.042 133.018L191.363 131.784L195.832 114.622C195.941 114.205 196.316 113.927 196.751 113.945L208.61 114.471C208.852 114.483 209.076 114.586 209.239 114.767C209.402 114.942 209.487 115.178 209.475 115.42L208.683 131.815L215.939 132.861C216.199 132.897 216.429 133.042 216.568 133.266C216.713 133.484 216.75 133.756 216.683 134.004C215.558 138.007 209.384 146.316 198.154 146.316V146.304ZM184.3 134.657C185.05 137.148 187.874 143.831 196.672 144.435C206.929 145.143 212.867 138.473 214.579 134.481L207.6 133.478C207.134 133.411 206.802 133.006 206.826 132.534L207.612 116.225L197.398 115.771L192.966 132.8C192.875 133.151 192.579 133.417 192.222 133.472L184.3 134.651V134.657Z" fill="#24AFB5"></path><path d="M216.386 101.42C215.938 101.305 215.418 101.469 214.91 101.832C214.91 101.729 214.923 101.626 214.923 101.529L216.314 90.8134C203.094 99.6001 201.582 93.9822 193.618 96.4978C193.618 96.4978 192.892 101.481 192.82 101.826C192.402 101.463 191.931 101.299 191.453 101.42C190.237 101.717 189.463 103.67 189.717 105.793C189.965 107.843 191.743 110.123 192.959 110.002C194.102 115.408 197.216 120.064 201.503 120.064C205.791 120.064 210.109 115.408 212.655 110.002C213.84 110.116 216.211 107.837 216.985 105.793C217.789 103.676 217.517 101.717 216.38 101.42H216.386Z" fill="white"></path><path d="M201.509 120.971C197.306 120.971 193.696 117.004 192.214 110.806C190.593 110.273 189.063 107.915 188.821 105.901C188.501 103.258 189.541 100.954 191.24 100.537C191.525 100.465 191.821 100.459 192.105 100.501C192.275 99.3579 192.535 97.6042 192.716 96.3645C192.764 96.0198 193.006 95.7355 193.339 95.6327C196.375 94.6712 198.54 94.8345 200.626 94.9857C204.218 95.2518 207.611 95.4997 215.805 90.0571C216.101 89.8575 216.482 89.8515 216.784 90.045C217.087 90.2325 217.25 90.5772 217.208 90.934L215.968 100.483C216.186 100.471 216.404 100.495 216.609 100.549C217.196 100.7 217.667 101.093 217.97 101.686C218.526 102.769 218.478 104.426 217.831 106.125C217.081 108.102 214.952 110.425 213.253 110.854C210.894 115.625 206.498 120.977 201.503 120.977L201.509 120.971ZM192.964 109.094C193.387 109.094 193.762 109.39 193.853 109.814C194.839 114.464 197.584 119.157 201.509 119.157C205.434 119.157 209.6 114.367 211.838 109.62C212.001 109.269 212.364 109.064 212.751 109.106C213.295 109.155 215.4 107.437 216.143 105.478C216.658 104.129 216.627 103.017 216.367 102.521C216.27 102.339 216.192 102.315 216.162 102.309C216.041 102.279 215.787 102.333 215.442 102.581C215.158 102.787 214.789 102.805 214.48 102.642C214.178 102.478 213.991 102.152 214.009 101.801L214.021 101.517C214.021 101.487 214.021 101.456 214.027 101.42L215.164 92.6393C207.599 97.332 203.994 97.066 200.499 96.8059C198.63 96.6668 196.852 96.5338 194.433 97.2111C194.228 98.6383 193.774 101.71 193.714 102.013C193.653 102.333 193.424 102.593 193.115 102.696C192.807 102.799 192.468 102.732 192.226 102.521C192.021 102.339 191.839 102.273 191.676 102.309C191.095 102.448 190.4 103.839 190.624 105.689C190.841 107.473 192.353 109.106 192.855 109.106C192.861 109.106 192.867 109.106 192.873 109.106C192.904 109.106 192.934 109.106 192.964 109.106V109.094Z" fill="#24AFB5"></path><path d="M142.203 102.425C142.167 102.425 142.125 102.425 142.088 102.419C141.592 102.352 141.242 101.899 141.308 101.403L142.917 88.9935C142.983 88.4976 143.437 88.1469 143.933 88.2073C144.429 88.2739 144.779 88.7274 144.713 89.2233L143.104 101.632C143.044 102.092 142.657 102.425 142.203 102.425Z" fill="#24AFB5"></path><path d="M253.476 187.323H130.176L137.76 128.791C137.826 128.295 138.28 127.944 138.776 128.005C139.271 128.071 139.622 128.525 139.562 129.021L132.245 185.503H251.885L267.421 65.6506H261.041C260.539 65.6506 260.134 65.2455 260.134 64.7435C260.134 64.2416 260.539 63.8364 261.041 63.8364H269.489L253.488 187.317L253.476 187.323Z" fill="#24AFB5"></path><path d="M146.07 72.6481C146.033 72.6481 145.991 72.6481 145.955 72.642C145.459 72.5755 145.108 72.1219 145.175 71.6261L146.184 63.8431H212.113C212.614 63.8431 213.02 64.2483 213.02 64.7502C213.02 65.2522 212.614 65.6573 212.113 65.6573H147.775L146.971 71.8619C146.91 72.3215 146.523 72.6541 146.07 72.6541V72.6481Z" fill="#24AFB5"></path><path d="M248.282 334.175H126.815L142.581 212.502H264.054L248.282 334.175Z" fill="white"></path><path fill-rule="evenodd" clip-rule="evenodd" d="M231.997 333.582C230.438 330.307 230.058 327.322 229.961 326.449C230.004 328.826 230.047 331.204 230.089 333.582H167.116C167.707 328.691 168.297 323.799 168.889 318.908C164.572 323.233 161.288 328.271 159.18 333.582H131.431C134.087 305.803 159.22 287.298 160.876 286.113C174.586 276.329 188.114 274.599 200.039 273.075C212.14 271.527 226.393 269.707 238.5 277.478C243.389 280.611 246.963 286.148 253.708 296.951C253.987 297.399 254.272 297.856 254.563 298.321C254.571 298.335 254.58 298.349 254.589 298.363L254.563 298.321C254.272 297.856 253.987 297.399 253.708 296.951L249.148 333.582H231.997Z" fill="#26D0D8"></path><path d="M256.764 331.207C246.465 324.603 221.187 316.004 221.187 316.004C218.001 313.718 215.654 310.489 214.445 306.685L213.659 304.212C213.659 304.212 209.776 303.758 211.736 312.013C210.877 311.832 211.33 311.698 210.689 311.91C207.4 313.005 208.41 315.926 208.41 315.926C208.41 315.926 206.511 318.889 207.853 320.449C207.853 320.449 206.208 326.654 212.225 326.944C212.225 326.944 238.253 343.604 245.304 344.85C252.356 346.102 263.428 335.471 256.77 331.201L256.764 331.207Z" fill="white"></path><path d="M246.483 345.86C246.03 345.86 245.582 345.824 245.141 345.745C238.241 344.524 214.535 329.496 211.929 327.833C210.06 327.694 208.657 327.004 207.768 325.783C206.456 323.993 206.71 321.616 206.879 320.649C205.863 318.955 206.934 316.676 207.436 315.781C207.321 315.212 207.242 314.196 207.744 313.174C208.234 312.189 209.123 311.469 210.399 311.046C210.465 311.021 210.526 311.003 210.586 310.985C209.988 307.804 210.254 305.561 211.372 304.303C212.37 303.184 213.622 303.293 213.761 303.311C214.112 303.353 214.414 303.595 214.517 303.934L215.309 306.407C216.446 309.975 218.623 313.011 221.611 315.188C223.788 315.938 247.354 324.096 257.26 330.445C259.582 331.933 260.308 334.346 259.249 337.055C257.592 341.288 251.563 345.86 246.489 345.86H246.483ZM211.016 312.751C208.7 313.525 209.153 315.285 209.262 315.629C209.347 315.89 209.31 316.18 209.165 316.41C208.669 317.19 207.853 319.064 208.536 319.857C208.73 320.08 208.802 320.389 208.724 320.679C208.724 320.703 208.095 323.177 209.232 324.719C209.824 325.523 210.84 325.964 212.261 326.037C212.419 326.043 212.576 326.091 212.709 326.176C212.969 326.339 238.664 342.752 245.461 343.955C249.864 344.735 256.008 340.351 257.556 336.39C258.306 334.479 257.87 332.991 256.28 331.963C246.187 325.493 221.151 316.942 220.897 316.851C220.812 316.821 220.734 316.778 220.661 316.73C217.305 314.317 214.856 310.937 213.58 306.952L213.035 305.246C212.927 305.307 212.812 305.397 212.703 305.53C212.243 306.075 211.626 307.611 212.618 311.795C212.691 312.098 212.6 312.412 212.382 312.636C212.165 312.86 211.85 312.957 211.548 312.89C211.318 312.842 211.149 312.793 211.016 312.745V312.751Z" fill="#24AFB5"></path><path d="M248.242 334.489L250.661 320.278L257.918 321.79L259.732 331.768L260.941 345.677H237.357L220.424 334.489H248.242Z" fill="#E1F9FA"></path><path d="M197.295 246.571C197.295 246.571 195.589 240.343 194.797 239.218C193.999 238.093 193.442 236.92 196.732 235.027C200.028 233.134 208.651 228.06 213.314 228.375C217.976 228.689 220.674 232.009 218.823 234.174C216.973 236.345 216.144 237.252 217.221 237.464C218.303 237.676 218.672 239.024 215.183 240.76C211.693 242.502 199.224 250.212 197.288 246.565L197.295 246.571Z" fill="#24AFB5"></path><path d="M211.891 271.282L212.121 260.457C218.32 257.905 216.778 253.793 216.517 250.569C216.239 247.098 214.806 239.515 214.806 239.515C209.642 242.006 200.68 240.67 200.68 240.67C200.68 240.67 201.599 242.847 200.655 243.839C199.712 244.83 199.403 247.128 199.403 247.128C199.403 247.128 198.061 245.49 196.102 246.572C195.001 247.183 195.594 250.08 196.102 251.718C196.61 253.357 198.279 253.768 198.279 253.768C198.279 253.768 198.635 255.317 198.956 256.756L192.57 273.652L186.027 275.853L205.693 279.742L217.328 272.455L211.891 271.288V271.282Z" fill="white"></path><path d="M205.694 280.642C205.633 280.642 205.579 280.642 205.518 280.624L185.852 276.736C185.447 276.657 185.151 276.313 185.121 275.901C185.097 275.49 185.351 275.115 185.738 274.982L191.876 272.92L198.014 256.683C197.82 255.824 197.621 254.959 197.506 254.445C196.816 254.143 195.685 253.435 195.238 251.984C194.645 250.079 193.92 246.741 195.667 245.774C196.883 245.102 197.983 245.217 198.812 245.586C199.042 244.788 199.411 243.832 200.003 243.203C200.348 242.841 200.136 241.698 199.852 241.008C199.725 240.706 199.773 240.361 199.973 240.101C200.173 239.841 200.499 239.714 200.82 239.762C200.904 239.775 209.57 241.026 214.42 238.686C214.674 238.565 214.97 238.565 215.224 238.692C215.478 238.819 215.654 239.055 215.708 239.333C215.769 239.648 217.153 247.007 217.432 250.484C217.468 250.902 217.522 251.337 217.577 251.785C217.946 254.657 218.448 258.558 213.023 261.043L212.818 270.537L217.522 271.547C217.885 271.626 218.163 271.916 218.224 272.279C218.29 272.642 218.127 273.011 217.813 273.204L206.178 280.491C206.032 280.582 205.863 280.63 205.694 280.63V280.642ZM189.553 275.617L205.518 278.774L214.958 272.866L211.705 272.17C211.281 272.079 210.979 271.698 210.985 271.263L211.215 260.438C211.221 260.075 211.445 259.755 211.777 259.622C216.5 257.681 216.144 254.935 215.775 252.033C215.714 251.555 215.654 251.095 215.617 250.648C215.412 248.047 214.529 243.016 214.124 240.79C210.006 242.296 204.466 241.988 201.92 241.734C202.065 242.611 202.041 243.705 201.316 244.467C200.711 245.102 200.372 246.735 200.306 247.255C200.257 247.612 200.003 247.908 199.653 248.005C199.302 248.102 198.933 247.987 198.703 247.709C198.558 247.539 197.748 246.705 196.544 247.376C196.284 247.624 196.278 249.227 196.968 251.458C197.312 252.571 198.455 252.885 198.503 252.897C198.83 252.982 199.09 253.248 199.163 253.575C199.163 253.575 199.519 255.129 199.84 256.568C199.876 256.743 199.864 256.919 199.804 257.088L193.418 273.984C193.321 274.238 193.115 274.438 192.855 274.523L189.547 275.635L189.553 275.617Z" fill="#24AFB5"></path><path d="M207.212 262.289C205.67 262.289 204.31 261.975 203.13 261.34C200.518 259.943 199.847 257.506 199.816 257.397C199.689 256.913 199.974 256.417 200.457 256.284C200.935 256.157 201.437 256.442 201.564 256.919C201.588 256.998 202.096 258.74 204.013 259.75C205.924 260.753 208.555 260.699 211.832 259.586C212.31 259.423 212.824 259.677 212.981 260.155C213.145 260.626 212.891 261.146 212.413 261.304C210.508 261.951 208.766 262.277 207.206 262.277L207.212 262.289Z" fill="#24AFB5"></path><path d="M249.081 335.083H125.781L131.315 292.377C131.381 291.881 131.835 291.53 132.331 291.597C132.826 291.663 133.177 292.117 133.117 292.613L127.85 333.269H247.49L263.026 213.417H240.747C240.245 213.417 239.84 213.012 239.84 212.51C239.84 212.008 240.245 211.603 240.747 211.603H265.088L249.087 335.083H249.081Z" fill="#24AFB5"></path><path d="M214.212 213.41H179.083C178.581 213.41 178.176 213.005 178.176 212.503C178.176 212.001 178.581 211.596 179.083 211.596H214.212C214.714 211.596 215.119 212.001 215.119 212.503C215.119 213.005 214.714 213.41 214.212 213.41Z" fill="#24AFB5"></path><path d="M402.261 362.901H280.788L296.56 241.229H418.032L402.261 362.901Z" fill="#26D0D8"></path><path d="M329.631 266.053C335.642 260.024 343.842 258.542 349.744 260.012C357.219 261.868 360.436 268.381 362.703 272.971C366.713 281.087 364.088 284.153 367.408 288.839C373.286 297.136 384.353 291.5 391.924 297.463C403.481 306.558 401.993 338.663 383.875 351.423C371.793 359.932 356.922 355.68 352.871 354.519C340.588 351.006 325.912 340.604 325.107 325.922C324.448 313.778 333.507 303.383 327.78 293.363C326.323 290.811 324.968 290.145 324.013 286.928C322.465 281.703 322.882 272.814 329.625 266.047L329.631 266.053Z" fill="#24AFB5"></path><path d="M346.266 267.752C343.636 265.521 346.121 258.639 348.316 254.895C349.139 253.492 352.822 247.221 356.837 247.336C360.961 247.457 364.245 254.285 362.219 259.83C359.685 266.766 349.351 270.358 346.26 267.746L346.266 267.752Z" fill="#24AFB5"></path><path d="M258.909 299.864C258.909 299.864 252.003 292.571 250.008 290.708C247.74 288.592 253.648 287.896 260.216 294.736L258.909 299.864Z" fill="white"></path><path d="M259.386 301.683L258.256 300.486C258.189 300.413 251.343 293.186 249.39 291.372C248.586 290.622 248.544 289.963 248.646 289.546C248.725 289.232 248.985 288.675 249.856 288.439C251.64 287.968 256.042 289.086 260.868 294.112L261.219 294.475L259.386 301.683ZM250.727 290.139C252.323 291.65 256.429 295.938 258.437 298.049L259.211 295.007C255.298 291.076 251.991 290.145 250.727 290.139Z" fill="#24AFB5"></path><path d="M258.442 298.388C258.345 298.793 258.243 299.192 258.116 299.597C257.904 300.275 257.529 301.907 258.376 302.948C259.198 303.963 263.492 306.479 265.524 307.634C266.219 308.033 264.623 319.814 264.623 319.814L272.92 316.977C272.92 316.977 273.682 303.782 272.635 298.424C271.589 293.06 267.32 290.52 266.11 290.684C264.901 290.853 264.242 293.133 264.242 293.133C264.242 293.133 261.925 291.143 260.22 292.207C259.331 292.764 259.603 293.713 259.355 294.626L258.436 298.394L258.442 298.388Z" fill="white"></path><path d="M263.527 321.144L263.727 319.687C264.368 314.933 264.912 309.576 264.779 308.251C260.728 305.929 258.339 304.339 257.674 303.516C256.591 302.186 256.948 300.317 257.25 299.325C257.371 298.944 257.468 298.557 257.559 298.17L258.478 294.403C258.538 294.179 258.563 293.949 258.581 293.701C258.647 293.006 258.738 292.056 259.736 291.427C261.163 290.532 262.784 291.143 263.806 291.73C264.217 290.895 264.918 289.922 265.977 289.77C267.742 289.535 272.393 292.474 273.518 298.231C274.576 303.643 273.85 316.469 273.82 317.014L273.784 317.625L263.521 321.138L263.527 321.144ZM259.325 298.6C259.228 298.999 259.119 299.422 258.986 299.863C258.859 300.269 258.496 301.654 259.083 302.373C259.476 302.857 261.496 304.29 265.977 306.848C266.527 307.163 267.15 307.519 265.723 318.483L272.054 316.318C272.187 313.676 272.635 303.135 271.752 298.594C270.821 293.816 267.089 291.579 266.255 291.579H266.231C265.892 291.627 265.342 292.601 265.118 293.381L264.725 294.735L263.654 293.816C263.183 293.417 261.629 292.395 260.709 292.97C260.504 293.103 260.455 293.23 260.395 293.877C260.365 294.173 260.334 294.506 260.238 294.856L259.325 298.6Z" fill="#24AFB5"></path><path d="M264.974 304.029C264.145 304.029 263.402 303.564 262.978 302.76C261.986 300.861 262.5 298.962 262.525 298.883C262.664 298.399 263.16 298.121 263.643 298.254C264.127 298.393 264.405 298.889 264.272 299.373C264.272 299.379 263.934 300.673 264.587 301.913C264.762 302.252 264.968 302.221 265.052 302.209C265.53 302.131 266.347 301.375 266.643 299.591C267.036 297.25 264.514 294.541 263.51 293.695C263.129 293.374 263.081 292.8 263.401 292.419C263.722 292.038 264.297 291.989 264.678 292.31C264.859 292.461 269.074 296.065 268.433 299.893C268.052 302.149 266.836 303.763 265.337 304.005C265.216 304.023 265.095 304.036 264.98 304.036L264.974 304.029Z" fill="#24AFB5"></path><path fill-rule="evenodd" clip-rule="evenodd" d="M362.186 314.634L362.198 314.604H362.204C362.204 314.604 400.393 326.463 395.725 358.29C395.628 358.943 395.179 360.532 394.415 362.605H370.204C370.301 357.79 368.555 352.387 363.099 347.006C363.044 349.931 362.906 355.867 362.601 362.605H297.578C298.723 359.219 299.861 355.815 300.999 352.4C288.366 359.361 275.975 360.328 269.831 355.992C265.749 353.108 264.449 347.695 263.348 343.099C260.688 332.014 261.54 323.143 263.197 318.118C266.832 316.231 271.567 314.81 275.794 313.897C275.968 315.189 275.993 315.527 276.059 315.857C276.148 316.308 276.311 316.744 277.027 319.587L277.033 319.608C279.442 329.143 280.646 333.908 283.879 334.645C287.84 335.546 293.791 330.624 298.683 323.464L303.757 318.354C306.659 315.439 310.197 313.244 314.007 311.998C314.007 311.998 326.422 308.992 341.051 310.19C348.7 310.329 356.75 312.681 362.186 314.634Z" fill="white"></path><path fill-rule="evenodd" clip-rule="evenodd" d="M395.252 362.912C396.032 360.79 396.489 359.151 396.593 358.434C398.553 345.075 393.249 333.102 381.245 323.807C372.259 316.846 362.849 313.871 362.45 313.75C362.384 313.732 362.311 313.714 362.244 313.714C356.759 311.755 348.71 309.438 341.103 309.299C326.499 308.108 313.902 311.101 313.775 311.132C313.757 311.138 313.733 311.144 313.708 311.15C309.766 312.438 306.095 314.712 303.095 317.729L298.022 322.839C297.985 322.876 297.949 322.918 297.919 322.966C292.984 330.193 287.421 334.535 284.064 333.773C281.376 333.163 280.142 328.274 277.903 319.402L277.896 319.374C277.485 317.753 277.255 316.907 277.116 316.399C276.987 315.927 276.892 315.451 276.832 314.972C276.802 314.694 276.753 314.325 276.681 313.786C276.65 313.532 276.511 313.309 276.306 313.164C276.1 313.018 275.84 312.964 275.592 313.018C272.689 313.647 267.168 315.038 262.766 317.318C262.56 317.427 262.397 317.614 262.324 317.838C261.514 320.299 259.119 329.413 262.457 343.316L262.461 343.331C263.567 347.936 264.942 353.66 269.297 356.735C275.677 361.234 287.578 360.206 299.419 354.255C298.38 357.375 297.416 360.238 296.512 362.912H298.421C299.475 359.789 300.606 356.423 301.844 352.701C301.965 352.344 301.85 351.951 301.565 351.715C301.281 351.479 300.876 351.437 300.549 351.619C288.848 358.065 276.421 359.565 270.337 355.265C266.533 352.586 265.3 347.446 264.211 342.904C261.127 330.072 263.074 321.557 263.927 318.775C266.811 317.33 270.7 316.012 275.005 315.02C275.009 315.056 275.014 315.089 275.019 315.122C275.023 315.151 275.027 315.179 275.03 315.208C275.133 316.03 275.139 316.072 275.362 316.883C275.389 316.983 275.419 317.096 275.454 317.226C275.594 317.748 275.806 318.539 276.13 319.822L276.137 319.848C278.63 329.724 279.883 334.687 283.659 335.545C288.673 336.682 295.046 330.374 299.37 324.061L304.39 319.011C307.177 316.205 310.582 314.089 314.241 312.885C314.954 312.716 327.007 309.958 341.018 311.107C348.547 311.247 356.506 313.569 361.863 315.498C361.954 315.528 362.039 315.546 362.13 315.546C363.587 316.03 372.18 319.054 380.181 325.264C391.768 334.257 396.69 345.323 394.803 358.162C394.702 358.866 394.189 360.635 393.32 362.912H395.252ZM371.084 362.912C371.268 357.824 369.502 352.08 363.714 346.369C363.454 346.116 363.067 346.037 362.734 346.176C362.402 346.315 362.178 346.636 362.172 346.998C362.12 349.834 361.977 355.96 361.657 362.912H363.482C363.733 357.438 363.874 352.486 363.95 349.248H363.956C368.096 353.978 369.392 358.688 369.234 362.912H371.084Z" fill="#24AFB5"></path><path d="M337.38 293.286L333.177 309.42L325.068 310.623C325.068 310.623 326.858 320.311 337.29 321.025C347.721 321.738 353.654 314.367 354.748 310.478L347.401 309.42L348.157 293.757L337.368 293.28L337.38 293.286Z" fill="white"></path><path d="M338.699 321.987C338.221 321.987 337.731 321.969 337.236 321.939C326.229 321.183 324.204 310.902 324.185 310.8C324.143 310.558 324.198 310.31 324.337 310.11C324.482 309.911 324.699 309.778 324.941 309.741L332.458 308.623L336.51 293.069C336.619 292.651 337.006 292.367 337.429 292.391L348.218 292.869C348.459 292.881 348.683 292.984 348.846 293.166C349.01 293.341 349.094 293.577 349.082 293.819L348.363 308.659L354.894 309.596C355.154 309.632 355.384 309.778 355.523 310.001C355.668 310.219 355.704 310.491 355.638 310.739C354.61 314.398 348.967 321.993 338.705 321.993L338.699 321.987ZM326.205 311.38C326.925 313.696 329.513 319.586 337.363 320.125C346.567 320.753 351.925 314.839 353.527 311.223L347.286 310.328C346.821 310.261 346.488 309.856 346.512 309.384L347.226 294.635L338.082 294.23L334.067 309.657C333.976 310.007 333.68 310.273 333.323 310.328L326.211 311.386L326.205 311.38Z" fill="#24AFB5"></path><path d="M355.28 281.084C354.868 280.976 354.403 281.127 353.937 281.459C353.937 281.369 353.949 281.272 353.949 281.187L355.092 274.015C344.34 277.65 345.537 276.186 334.574 276.609C334.574 276.609 333.914 281.139 333.848 281.453C333.473 281.121 333.044 280.976 332.608 281.084C331.502 281.351 330.8 283.135 331.03 285.058C331.254 286.92 332.874 288.994 333.975 288.886C335.015 293.802 337.845 298.035 341.746 298.035C345.646 298.035 349.571 293.802 351.887 288.886C352.964 288.994 355.116 286.92 355.824 285.058C356.556 283.128 356.308 281.351 355.274 281.084H355.28Z" fill="white"></path><path d="M341.747 298.947C337.888 298.947 334.586 295.331 333.226 289.677C331.738 289.151 330.353 287.004 330.13 285.165C329.833 282.722 330.807 280.588 332.397 280.201C332.645 280.14 332.893 280.128 333.135 280.152C333.292 279.112 333.516 277.57 333.679 276.475C333.74 276.04 334.103 275.719 334.544 275.701C337.653 275.58 339.781 275.611 341.493 275.635C345.786 275.695 347.225 275.713 354.809 273.155C355.111 273.053 355.444 273.119 355.686 273.319C355.928 273.524 356.049 273.839 355.994 274.153L355.039 280.14C355.22 280.14 355.377 280.17 355.516 280.201C356.073 280.346 356.52 280.715 356.804 281.277C357.324 282.281 357.276 283.811 356.683 285.377C356 287.179 354.065 289.29 352.505 289.719C350.346 294.073 346.33 298.941 341.759 298.941L341.747 298.947ZM333.982 287.983C334.405 287.983 334.774 288.28 334.865 288.703C335.754 292.9 338.227 297.133 341.747 297.133C345.266 297.133 349.046 292.797 351.071 288.504C351.235 288.153 351.598 287.953 351.985 287.99C352.535 287.99 354.349 286.417 354.984 284.742C355.438 283.545 355.413 282.541 355.19 282.118C355.166 282.069 355.111 281.978 355.057 281.966C354.99 281.948 354.779 281.978 354.47 282.202C354.186 282.408 353.811 282.426 353.509 282.263C353.206 282.099 353.019 281.767 353.037 281.422C353.037 281.337 353.043 281.253 353.049 281.168C353.049 281.126 353.049 281.09 353.061 281.047L353.968 275.351C347.292 277.54 345.593 277.51 341.468 277.455C339.92 277.431 338.027 277.407 335.373 277.491C335.173 278.864 334.804 281.374 334.75 281.634C334.689 281.954 334.459 282.214 334.151 282.317C333.843 282.42 333.504 282.353 333.262 282.142C333.099 281.997 332.96 281.936 332.833 281.972C332.349 282.087 331.744 283.339 331.944 284.96C332.137 286.544 333.462 287.996 333.909 287.996C333.939 287.996 333.97 287.996 334 287.996L333.982 287.983Z" fill="#24AFB5"></path><path d="M337.719 278.553L341.057 271.436L340.349 278.1L337.719 278.553Z" fill="white"></path><path d="M351.856 242.134H305.66C305.158 242.134 304.753 241.729 304.753 241.227C304.753 240.725 305.158 240.32 305.66 240.32H351.856C352.358 240.32 352.763 240.725 352.763 241.227C352.763 241.729 352.358 242.134 351.856 242.134Z" fill="#24AFB5"></path><path d="M289.95 293.139C289.914 293.139 289.871 293.139 289.835 293.132C289.339 293.066 288.988 292.612 289.049 292.117L293.131 260.598C293.197 260.102 293.651 259.751 294.147 259.818C294.643 259.884 294.993 260.338 294.927 260.834L290.845 292.352C290.784 292.812 290.397 293.145 289.944 293.145L289.95 293.139Z" fill="#24AFB5"></path><path fill-rule="evenodd" clip-rule="evenodd" d="M279.76 363.806H403.053L415.438 268.246C415.504 267.75 415.154 267.296 414.658 267.23C414.162 267.157 413.708 267.514 413.642 268.01L401.462 361.992H281.822L282.26 358.612L280.39 358.942L279.76 363.806ZM283.6 334.183H285.427L289.575 302.183C289.641 301.687 289.29 301.234 288.794 301.167C288.299 301.095 287.845 301.452 287.779 301.947L283.6 334.183Z" fill="#24AFB5"></path><path d="M410.648 195.765H283.823L300.284 68.7343H427.109L410.648 195.765Z" fill="#E1F9FA"></path><path d="M413.917 103.681C416.584 100.119 415.64 90.4558 415.64 90.4558C415.64 90.4558 414.776 85.0555 410.24 84.9769C407.283 85.2309 406.708 89.1435 406.714 89.4761C406.739 91.0061 406.817 95.0881 406.932 96.1585C407.077 97.4889 407.168 101.275 405.148 98.3657C403.128 95.4509 399.7 95.2514 400.891 96.225C402.088 97.1986 404.205 101.408 404.997 102.538C405.281 102.95 406.176 103.385 407.204 103.778C407.174 106.693 406.745 111.21 404.586 116.332C402.01 122.434 397.123 132.267 393.846 135.206C396.434 139.482 399.125 148.553 409.006 148.661C415.066 136.416 419.414 114.972 413.917 103.681Z" fill="white"></path><path d="M409.006 149.568H408.994C400.214 149.471 396.7 142.632 394.378 138.102C393.918 137.207 393.483 136.367 393.072 135.677C392.848 135.302 392.914 134.825 393.241 134.534C396.41 131.692 401.26 121.883 403.751 115.981C405.318 112.268 406.17 108.368 406.285 104.388C404.912 103.802 404.477 103.372 404.253 103.058C403.981 102.665 403.582 101.976 403.122 101.171C402.276 99.7017 401.006 97.4823 400.316 96.926C399.712 96.4301 399.687 95.9463 399.772 95.6197C399.881 95.2025 400.232 94.9001 400.703 94.8155C401.822 94.6159 404.32 95.5774 405.892 97.8452C405.953 97.9359 406.013 98.0145 406.067 98.081C406.11 97.5972 406.104 96.926 406.031 96.2547C405.91 95.142 405.838 91.1568 405.807 89.4877C405.795 88.8286 406.557 84.3778 410.167 84.0693C410.198 84.0693 410.228 84.0693 410.264 84.0693C414.449 84.1419 416.203 88.1876 416.541 90.3162C416.584 90.7637 417.424 99.7017 414.963 103.766C420.067 115.05 416.324 135.931 409.823 149.072C409.672 149.381 409.357 149.574 409.012 149.574L409.006 149.568ZM394.983 135.363C395.309 135.949 395.642 136.597 395.992 137.274C398.315 141.791 401.187 147.379 408.45 147.736C413.923 136.318 418.507 115.177 413.106 104.074C412.955 103.766 412.992 103.403 413.197 103.131C415.211 100.446 414.993 93.1282 414.739 90.54C414.715 90.4069 413.941 85.9803 410.276 85.8775C408.021 86.1133 407.621 89.4515 407.621 89.4817C407.664 92.0881 407.743 95.2085 407.833 96.0552C408.093 98.4862 407.743 99.9013 406.787 100.258C405.656 100.681 404.743 99.3691 404.398 98.8732C403.969 98.2564 403.479 97.7907 403.007 97.4521C403.521 98.2443 404.078 99.1998 404.689 100.264C405.112 100.996 405.505 101.685 405.735 102.012C405.741 102.024 406.007 102.344 407.519 102.925C407.876 103.058 408.105 103.403 408.099 103.784C408.051 108.216 407.15 112.558 405.408 116.683C403.316 121.641 398.575 131.589 394.977 135.363H394.983Z" fill="#24AFB5"></path><path fill-rule="evenodd" clip-rule="evenodd" d="M389.757 136.354C392.176 134.776 395.671 131.613 398.229 124.58C398.937 125.862 408.074 137.57 414 136.892C413.68 139.269 411.975 149.973 402.474 158.481C389.648 169.977 374.179 167.099 372.933 166.845C367.164 180.669 367.539 189.994 369.045 196.035H283.619L287.962 164.241C290.776 158.145 294.124 153.244 297.154 149.537C301.695 143.98 307.773 139.868 314.437 137.709C318.967 136.245 322.837 135.356 326.302 134.806C333.529 133.663 339.153 133.718 341.723 133.796C351.445 134.091 359.387 135.692 366.104 137.046C376.083 139.058 383.359 140.525 389.757 136.354Z" fill="#26D0D8"></path><path d="M303.861 206.305C303.359 206.305 302.953 205.893 302.96 205.391C303.002 195.752 305.016 184.292 309.11 170.347C309.249 169.863 309.757 169.591 310.235 169.73C310.712 169.869 310.99 170.377 310.851 170.855C306.806 184.631 304.822 195.927 304.774 205.397C304.774 205.899 304.369 206.299 303.867 206.299L303.861 206.305Z" fill="#24AFB5"></path><path d="M347.926 119.695C349.668 120.632 351.053 120.771 352.069 120.71C355.752 120.499 358.473 117.554 359.017 116.961C361.835 113.913 363.649 108.906 361.98 105.967C360.777 103.851 358.812 104.649 357.421 102.284C355.836 99.5992 358.104 97.404 356.622 95.0516C354.923 92.3424 350.376 92.548 349.553 92.5904C346.747 92.7174 346.233 94.1022 343.609 94.0357C340.924 93.9631 340.742 92.6085 338.275 92.5904C336.316 92.5783 333.34 93.4188 331.768 95.6926C329.79 98.547 330.945 102.308 332.602 104.292C334.586 106.675 336.37 105.399 339.327 107.334C344.455 110.696 342.351 116.689 347.932 119.701L347.926 119.695Z" fill="#24AFB5"></path><path d="M335.914 132.38L338.635 122.989C338.308 122.952 335.593 122.469 335.297 122.311C332.89 121.029 334.444 114.571 334.444 114.571L333.235 112.859L338.732 103.305C342.765 107.084 344.864 103.371 349.103 105.234C353.342 107.09 350.264 112.085 350.264 112.085C350.264 112.085 354.134 110.471 352.895 114.014C351.957 116.693 349.986 116.863 348.716 116.754L349.018 132.858C349.018 132.858 356.42 135.047 357.853 135.44C355.93 135.349 341.804 141.173 327.459 134.805L335.902 132.38H335.914Z" fill="white"></path><path d="M342.101 138.694C337.499 138.694 332.316 137.95 327.103 135.64C326.752 135.483 326.541 135.126 326.565 134.751C326.589 134.37 326.855 134.05 327.218 133.941L335.182 131.655L337.48 123.721C336.519 123.552 335.207 123.298 334.874 123.116C332.243 121.713 333.09 116.549 333.477 114.765L332.503 113.386C332.298 113.096 332.28 112.715 332.461 112.413L337.958 102.858C338.097 102.616 338.339 102.453 338.611 102.416C338.889 102.374 339.162 102.465 339.367 102.652C341.339 104.497 342.603 104.291 344.356 104.001C345.789 103.765 347.41 103.499 349.484 104.412C350.815 104.998 351.686 105.906 352.061 107.121C352.466 108.409 352.206 109.782 351.849 110.828C352.423 110.816 353.034 110.937 353.482 111.36C354.141 111.983 354.237 112.981 353.766 114.33C353.246 115.817 352.115 117.51 349.66 117.68L349.932 132.187C351.758 132.726 356.953 134.255 358.114 134.576C358.561 134.697 358.84 135.138 358.767 135.592C358.694 136.046 358.283 136.372 357.83 136.354C357.594 136.342 356.626 136.578 355.701 136.807C352.895 137.497 347.978 138.7 342.113 138.7L342.101 138.694ZM330.278 134.945C339.93 138.319 349.242 136.475 354.141 135.308C351.71 134.594 348.958 133.784 348.771 133.729C348.39 133.614 348.13 133.27 348.118 132.877L347.815 116.773C347.815 116.519 347.918 116.271 348.106 116.095C348.293 115.92 348.541 115.835 348.801 115.853C349.932 115.95 351.317 115.793 352.042 113.719C352.327 112.908 352.218 112.654 352.212 112.654C352.042 112.552 351.208 112.679 350.615 112.927C350.252 113.078 349.829 112.981 349.575 112.679C349.321 112.376 349.285 111.947 349.49 111.614C349.871 110.991 350.754 109.068 350.313 107.647C350.095 106.952 349.581 106.432 348.741 106.069C347.156 105.373 345.935 105.573 344.634 105.791C343.014 106.057 341.199 106.353 338.98 104.702L334.312 112.818L335.182 114.051C335.334 114.263 335.382 114.529 335.321 114.783C334.771 117.093 334.511 120.8 335.684 121.496C336.126 121.641 338.412 122.058 338.732 122.094C338.998 122.125 339.234 122.27 339.385 122.493C339.53 122.717 339.573 122.989 339.5 123.249L336.779 132.641C336.694 132.937 336.458 133.173 336.156 133.258L330.266 134.951L330.278 134.945Z" fill="#24AFB5"></path><path d="M339.672 123.97C339.297 123.97 338.915 123.946 338.51 123.892C338.014 123.825 337.67 123.365 337.736 122.87C337.809 122.374 338.269 122.029 338.758 122.095C342.447 122.61 344.527 119.816 344.618 119.695C344.915 119.29 345.477 119.199 345.882 119.489C346.287 119.779 346.378 120.342 346.088 120.753C345.985 120.898 343.735 123.97 339.665 123.97H339.672Z" fill="#24AFB5"></path><path d="M411.44 196.671H282.783L292.313 123.111C292.38 122.615 292.833 122.265 293.329 122.331C293.825 122.398 294.176 122.851 294.109 123.347L284.839 194.863H409.831L414.04 162.365C414.107 161.869 414.554 161.518 415.056 161.584C415.552 161.651 415.903 162.105 415.836 162.6L411.422 196.683L411.44 196.671Z" fill="#24AFB5"></path><path d="M422.864 102.424C422.828 102.424 422.786 102.424 422.749 102.418C422.253 102.351 421.903 101.898 421.969 101.402L426.081 69.6471H301.089L300.327 75.5493C300.261 76.0452 299.807 76.3959 299.311 76.3294C298.815 76.2629 298.465 75.8093 298.531 75.3134L299.499 67.8329H428.156L423.777 101.638C423.717 102.097 423.33 102.43 422.876 102.43L422.864 102.424Z" fill="#24AFB5"></path><path d="M453.658 209.111C455.925 209.111 457.498 211.076 457.177 213.501L453.174 243.714C452.853 246.139 450.755 248.104 448.487 248.104H370.67C368.402 248.104 366.83 246.139 367.15 243.714L371.154 213.501C371.474 211.076 373.573 209.111 375.84 209.111H453.658Z" fill="white"></path><path d="M448.487 249.012H370.67C369.369 249.012 368.19 248.485 367.356 247.536C366.454 246.508 366.055 245.075 366.249 243.599L370.252 213.387C370.633 210.532 373.137 208.21 375.834 208.21H391.188C391.69 208.21 392.095 208.615 392.095 209.117C392.095 209.619 391.69 210.024 391.188 210.024H375.834C374.008 210.024 372.314 211.639 372.048 213.629L368.045 243.841C367.918 244.803 368.16 245.716 368.716 246.345C369.2 246.901 369.896 247.203 370.664 247.203H448.481C450.307 247.203 452 245.589 452.266 243.599L456.27 213.387C456.397 212.425 456.155 211.512 455.598 210.883C455.115 210.327 454.419 210.024 453.651 210.024H401.529C401.027 210.024 400.622 209.619 400.622 209.117C400.622 208.615 401.027 208.21 401.529 208.21H453.651C454.951 208.21 456.131 208.736 456.965 209.686C457.866 210.714 458.265 212.147 458.072 213.623L454.068 243.835C453.687 246.689 451.184 249.012 448.487 249.012Z" fill="#24AFB5"></path><path d="M444.495 224.399H382.649C382.147 224.399 381.742 223.994 381.742 223.492C381.742 222.99 382.147 222.585 382.649 222.585H444.495C444.997 222.585 445.402 222.99 445.402 223.492C445.402 223.994 444.997 224.399 444.495 224.399Z" fill="#24AFB5"></path><path d="M443.322 233.247H430.393C429.891 233.247 429.486 232.842 429.486 232.34C429.486 231.838 429.891 231.433 430.393 231.433H443.322C443.824 231.433 444.229 231.838 444.229 232.34C444.229 232.842 443.824 233.247 443.322 233.247Z" fill="#24AFB5"></path><path d="M422.126 233.247H381.476C380.974 233.247 380.569 232.842 380.569 232.34C380.569 231.838 380.974 231.433 381.476 231.433H422.126C422.628 231.433 423.033 231.838 423.033 232.34C423.033 232.842 422.628 233.247 422.126 233.247Z" fill="#24AFB5"></path><path d="M393.835 455.073C393.533 455.073 393.23 454.922 393.061 454.637C392.801 454.208 392.934 453.652 393.363 453.392C407.865 444.526 421.163 434.04 432.895 422.224C445.788 409.234 456.909 394.503 465.95 378.441C466.198 378.005 466.754 377.848 467.183 378.096C467.619 378.344 467.776 378.894 467.528 379.33C458.409 395.537 447.191 410.395 434.177 423.506C422.342 435.425 408.929 446.002 394.307 454.946C394.162 455.036 393.998 455.079 393.835 455.079V455.073Z" fill="#24AFB5"></path><path d="M130.698 42.6012C130.395 42.6012 130.099 42.45 129.93 42.1779C129.664 41.7546 129.791 41.1922 130.214 40.9261C152.722 26.8056 179.385 17.0391 209.458 11.8928C233.974 7.70201 260.764 6.55906 289.071 8.50026C289.573 8.53654 289.948 8.9659 289.912 9.46783C289.876 9.96976 289.44 10.3447 288.944 10.3084C245.131 7.30893 182.197 10.4475 131.169 42.4561C131.018 42.5528 130.855 42.5951 130.686 42.5951L130.698 42.6012Z" fill="#24AFB5"></path><path d="M163.125 40.7928C162.78 40.7928 162.448 40.5932 162.297 40.2546C162.091 39.795 162.297 39.2628 162.756 39.0572C190.278 26.7509 222.824 20.3528 259.483 20.0504H259.489C259.985 20.0504 260.39 20.4495 260.396 20.9515C260.396 21.4534 259.997 21.8646 259.495 21.8646C223.084 22.167 190.786 28.5106 163.494 40.7142C163.373 40.7686 163.246 40.7928 163.125 40.7928Z" fill="#24AFB5"></path><path d="M326.534 474.07C326.232 474.07 325.941 473.925 325.766 473.653C325.494 473.23 325.621 472.667 326.044 472.401L329.908 469.934C330.332 469.668 330.888 469.789 331.16 470.212C331.432 470.635 331.305 471.198 330.882 471.464L327.018 473.931C326.867 474.028 326.697 474.076 326.528 474.076L326.534 474.07Z" fill="#24AFB5"></path><path d="M340.062 465.435C339.76 465.435 339.469 465.29 339.294 465.018C339.022 464.595 339.149 464.032 339.572 463.766L343.436 461.299C343.86 461.033 344.416 461.154 344.688 461.577C344.96 462 344.833 462.563 344.41 462.829L340.546 465.296C340.395 465.393 340.225 465.441 340.056 465.441L340.062 465.435Z" fill="#24AFB5"></path><path d="M340.837 477.185C340.541 477.185 340.251 477.04 340.075 476.768L337.584 472.915C337.312 472.492 337.433 471.936 337.856 471.664C338.279 471.391 338.836 471.512 339.108 471.936L341.599 475.788C341.871 476.211 341.75 476.768 341.327 477.04C341.176 477.136 341.007 477.185 340.837 477.185Z" fill="#24AFB5"></path><path d="M332.122 463.704C331.825 463.704 331.535 463.559 331.36 463.287L328.868 459.435C328.596 459.012 328.717 458.455 329.14 458.183C329.563 457.911 330.12 458.032 330.392 458.455L332.883 462.307C333.155 462.731 333.035 463.287 332.611 463.559C332.46 463.656 332.291 463.704 332.122 463.704Z" fill="#24AFB5"></path><path d="M305.459 483.533C302.58 483.533 300.234 481.186 300.234 478.308C300.234 475.429 302.58 473.083 305.459 473.083C308.337 473.083 310.684 475.429 310.684 478.308C310.684 481.186 308.337 483.533 305.459 483.533ZM305.459 474.897C303.578 474.897 302.048 476.427 302.048 478.308C302.048 480.189 303.578 481.719 305.459 481.719C307.34 481.719 308.87 480.189 308.87 478.308C308.87 476.427 307.34 474.897 305.459 474.897Z" fill="#24AFB5"></path><path d="M475.934 366.764C473.055 366.764 470.709 364.418 470.709 361.539C470.709 358.661 473.055 356.314 475.934 356.314C478.812 356.314 481.159 358.661 481.159 361.539C481.159 364.418 478.812 366.764 475.934 366.764ZM475.934 358.129C474.053 358.129 472.523 359.658 472.523 361.539C472.523 363.42 474.053 364.95 475.934 364.95C477.815 364.95 479.345 363.42 479.345 361.539C479.345 359.658 477.815 358.129 475.934 358.129Z" fill="#24AFB5"></path><path d="M47.4811 483.995H59.8359V469.493H47.4811V483.995Z" fill="#26D0D8"></path><path d="M80.3497 481.332L92.374 484.17L95.7052 470.056L83.6809 467.218L80.3497 481.332Z" fill="#26D0D8"></path><path d="M37.2727 289.524C37.2727 289.524 33.5838 318.697 36.4139 330.023C39.2441 341.35 45.866 446.011 45.866 474.325H62.5204L70.0432 340.564L93.2831 389.1C94.9703 393.036 95.3997 397.403 94.5107 401.593L80.7894 474.331L96.3673 475.407L122.413 395.54C123.58 391.579 123.665 387.382 122.661 383.373L101.538 298.885L37.2727 289.536V289.524Z" fill="#24AFB5"></path><path d="M69.2391 338.514C68.9731 338.514 68.707 338.399 68.5316 338.175L59.9384 327.429C59.6239 327.036 59.6905 326.467 60.0775 326.153C60.4706 325.838 61.0391 325.905 61.3535 326.292L69.9468 337.038C70.2612 337.431 70.1947 337.999 69.8077 338.314C69.6384 338.447 69.4387 338.514 69.2391 338.514Z" fill="white"></path><path d="M46.6769 480.772H61.1784L63.3312 491.718C63.7484 493.829 62.2185 495.812 60.1805 495.812H47.6807C45.6367 495.812 44.1128 493.829 44.5301 491.718L46.683 480.772H46.6769Z" fill="white"></path><path d="M60.1808 496.719H47.681C46.4775 496.719 45.3346 496.175 44.5485 495.219C43.7079 494.197 43.3753 492.861 43.6353 491.542L45.7881 480.597C45.8727 480.173 46.2417 479.865 46.6771 479.865H61.1787C61.6141 479.865 61.9829 480.173 62.0676 480.597L64.2205 491.542C64.4805 492.861 64.1479 494.197 63.3073 495.219C62.5212 496.175 61.3842 496.719 60.1747 496.719H60.1808ZM47.427 481.679L45.4193 491.893C45.2681 492.673 45.4615 493.465 45.9513 494.064C46.3988 494.602 47.0097 494.905 47.681 494.905H60.1808C60.852 494.905 61.4629 494.608 61.9104 494.064C62.4002 493.465 62.5997 492.673 62.4425 491.893L60.4348 481.679H47.421H47.427Z" fill="#24AFB5"></path><path d="M61.7173 493.229H46.6776C46.1757 493.229 45.7705 492.824 45.7705 492.322C45.7705 491.82 46.1757 491.415 46.6776 491.415H61.7173C62.2192 491.415 62.6244 491.82 62.6244 492.322C62.6244 492.824 62.2192 493.229 61.7173 493.229Z" fill="#24AFB5"></path><path d="M79.9859 477.546L76.0129 490.729C75.3235 493.021 76.7203 495.446 78.7764 495.519L106.062 496.444C107.749 496.499 108.427 493.886 106.999 492.816C102.561 489.478 96.6524 484.845 95.0317 482.644C91.2703 477.552 87.5089 482.009 87.5089 482.009C87.5089 482.009 84.8237 477.552 79.9859 477.552V477.546Z" fill="white"></path><path d="M106.11 497.346C106.11 497.346 106.056 497.346 106.026 497.346L78.74 496.421C77.6031 496.385 76.5387 495.786 75.8191 494.788C74.9483 493.573 74.6942 491.958 75.1417 490.464L79.1149 477.281C79.2298 476.9 79.5805 476.634 79.9856 476.634C83.9043 476.634 86.5048 479.216 87.6417 480.631C88.4218 480.003 89.7159 479.241 91.2519 479.289C92.9089 479.343 94.4207 480.287 95.7572 482.095C96.9606 483.728 101.145 487.272 107.543 492.079C108.571 492.853 108.952 494.244 108.493 495.538C108.106 496.645 107.174 497.34 106.11 497.34V497.346ZM80.6509 478.485L76.8834 490.991C76.5992 491.928 76.7564 492.98 77.3007 493.73C77.6937 494.28 78.2319 494.589 78.8064 494.607L106.092 495.532C106.515 495.556 106.721 495.121 106.781 494.94C106.939 494.498 106.902 493.869 106.449 493.537C99.7242 488.487 95.6363 484.998 94.2937 483.183C93.308 481.847 92.2678 481.152 91.1974 481.109C89.5586 481.055 88.204 482.579 88.1919 482.591C88.0045 482.815 87.7202 482.929 87.4239 482.905C87.1336 482.881 86.8736 482.718 86.7225 482.47C86.6983 482.434 84.4849 478.866 80.6449 478.485H80.6509Z" fill="#24AFB5"></path><path d="M103.079 492.322L78.3691 491.246L103.079 492.322Z" fill="white"></path><path d="M103.08 493.228C103.08 493.228 103.055 493.228 103.037 493.228L78.3277 492.152C77.8258 492.128 77.4388 491.704 77.463 491.208C77.4872 490.706 77.8863 490.319 78.4064 490.344L103.116 491.42C103.618 491.444 104.005 491.868 103.981 492.363C103.956 492.853 103.557 493.228 103.074 493.228H103.08Z" fill="#24AFB5"></path><path d="M65.4809 199.009L52.0498 208.141L89.0292 206.369L78.3739 199.542L76.9406 192.932C78.8334 192.654 81.4338 192.46 82.2623 191.432C83.7257 189.612 83.0666 183.305 83.0666 183.305L84.6691 182.047C84.8384 181.962 84.9655 181.805 85.0199 181.623C85.0683 181.442 85.0442 181.242 84.9414 181.079C83.5807 178.908 82.2986 178.213 81.6939 175.999C81.1012 173.822 81.3613 174.155 79.0149 169.456L64.9488 169.438L64.8701 179.978C64.8701 179.978 62.7113 178.582 61.3446 180.468C60.3529 181.841 62.548 186.419 64.338 186.419L65.487 199.003L65.4809 199.009Z" fill="white"></path><path d="M52.0496 209.047C51.6626 209.047 51.3119 208.799 51.191 208.43C51.064 208.043 51.2029 207.62 51.5416 207.39L64.5314 198.561L63.4911 187.155C62.2212 186.623 61.3203 185.027 61.036 184.476C60.2922 183.025 59.7902 181.066 60.6066 179.947C61.5802 178.604 62.8985 178.441 63.9689 178.665L64.0355 169.443C64.0355 168.947 64.4467 168.542 64.9426 168.542L79.0087 168.56C79.3534 168.56 79.6678 168.753 79.819 169.062C81.8267 173.077 81.9659 173.494 82.359 175.012C82.4134 175.23 82.4798 175.478 82.5584 175.768C82.885 176.972 83.4293 177.637 84.1853 178.556C84.6449 179.118 85.1649 179.753 85.6971 180.606C85.9329 180.981 85.9993 181.447 85.8784 181.876C85.7696 182.269 85.5096 182.608 85.1649 182.813L84.0099 183.72C84.1611 185.498 84.409 190.209 82.9637 192.005C82.0445 193.148 80.0125 193.439 78.029 193.705L79.1781 198.99L89.5189 205.612C89.8515 205.823 90.0088 206.229 89.906 206.61C89.8032 206.991 89.4645 207.263 89.0714 207.281L52.092 209.053C52.092 209.053 52.0617 209.053 52.0496 209.053V209.047ZM63.2251 180.388C62.832 180.388 62.4148 180.533 62.0701 181.005C61.9068 181.229 61.9612 182.305 62.6446 183.648C63.2675 184.863 64.0173 185.516 64.3258 185.516C64.7974 185.516 65.1845 185.873 65.2268 186.339L66.3757 198.923C66.406 199.25 66.2548 199.571 65.9827 199.758L55.2124 207.081L86.1385 205.6L77.8778 200.308C77.6722 200.175 77.5331 199.97 77.4787 199.74L76.0454 193.13C75.991 192.882 76.0454 192.628 76.1845 192.423C76.3296 192.217 76.5473 192.078 76.7953 192.042C77.0795 191.999 77.376 191.963 77.6783 191.921C79.0269 191.739 81.0587 191.467 81.5425 190.868C82.3891 189.816 82.4073 185.867 82.1472 183.406C82.117 183.098 82.244 182.789 82.492 182.596L84.0341 181.38C83.6047 180.715 83.1814 180.201 82.7701 179.705C81.9779 178.737 81.2281 177.824 80.7987 176.246C80.7201 175.944 80.6535 175.696 80.593 175.466C80.2604 174.178 80.1759 173.869 78.4342 170.368L65.8315 170.35L65.7589 179.989C65.7589 180.322 65.5716 180.624 65.2813 180.781C64.991 180.939 64.6342 180.927 64.356 180.745C64.2169 180.66 63.7452 180.388 63.213 180.388H63.2251Z" fill="#24AFB5"></path><path d="M63.6413 191.135C66.4714 192.079 69.2714 189.859 69.7734 189.46C71.7448 187.9 73.3533 185.112 72.5611 183.885C72.1257 183.207 71.3517 183.576 70.3297 182.772C68.8299 181.58 68.4067 179.004 69.2171 178.315C69.8823 177.746 70.9163 178.835 72.0048 178.315C73.3292 177.68 72.6519 175.648 73.6799 173.858C75.355 170.931 79.2616 172.697 82.2611 169.583C84.2204 167.551 85.0731 164.158 83.9544 162.247C83.6278 161.685 83.1258 161.195 82.4123 160.802C77.6893 158.201 76.9818 161.763 72.3859 161.8C62.9218 161.878 58.2834 163.777 56.572 167.696C55.4109 170.357 56.8321 174.596 57.5154 176.652C57.7452 177.335 58.229 178.629 58.6282 180.552C59.0696 182.657 58.9365 183.195 59.1845 184.453C59.3599 185.33 60.3032 190.029 63.6413 191.141V191.135Z" fill="#24AFB5"></path><path d="M155.762 179.131H120.282C119.281 179.131 118.468 179.943 118.468 180.945V241.419C118.468 242.421 119.281 243.233 120.282 243.233H155.762C156.764 243.233 157.576 242.421 157.576 241.419V180.945C157.576 179.943 156.764 179.131 155.762 179.131Z" fill="white"></path><path d="M155.762 244.14H120.282C118.782 244.14 117.561 242.918 117.561 241.418V180.945C117.561 179.445 118.782 178.224 120.282 178.224H155.762C157.261 178.224 158.483 179.445 158.483 180.945V241.418C158.483 242.918 157.261 244.14 155.762 244.14ZM120.282 180.038C119.78 180.038 119.375 180.443 119.375 180.945V241.418C119.375 241.92 119.78 242.325 120.282 242.325H155.762C156.263 242.325 156.669 241.92 156.669 241.418V180.945C156.669 180.443 156.263 180.038 155.762 180.038H120.282Z" fill="#24AFB5"></path><path d="M147.53 222.168L151.249 206.082L161.62 196.878C161.62 196.878 167.522 196.975 157.859 207.086C157.859 207.086 162.473 216.121 159.491 219.707C158.627 220.747 153.65 227.212 153.65 227.212L147.524 222.168H147.53Z" fill="white"></path><path d="M153.656 228.118C153.444 228.118 153.244 228.046 153.081 227.913L146.955 222.869C146.689 222.652 146.568 222.301 146.647 221.962L150.366 205.876C150.408 205.695 150.505 205.526 150.65 205.405L161.021 196.201C161.191 196.049 161.414 195.977 161.638 195.971C162.315 195.983 163.604 196.327 164.111 197.543C164.928 199.502 163.241 202.677 158.953 207.255C160.017 209.493 163.108 216.786 160.193 220.293C159.346 221.309 154.424 227.707 154.375 227.768C154.224 227.961 154 228.088 153.758 228.118C153.722 228.118 153.692 228.118 153.656 228.118ZM148.54 221.829L153.504 225.917C154.841 224.182 158.094 219.973 158.796 219.126C160.925 216.568 158.258 209.861 157.054 207.497C156.879 207.152 156.939 206.735 157.205 206.457C162.944 200.452 162.569 198.559 162.436 198.238C162.34 198.009 162.104 197.894 161.904 197.839L152.065 206.566L148.54 221.823V221.829Z" fill="#24AFB5"></path><path d="M147.495 221.054C147.495 221.054 141.447 235.568 132.576 237.183C116.284 240.146 116.291 210.979 99.4124 203.765C99.0496 203.59 98.6685 203.444 98.2754 203.323C96.6366 202.743 94.8466 202.362 92.8752 202.229V202.32C80.9317 200.499 60.2377 199.157 40.227 206.529C23.0345 211.366 0.907227 229.974 0.907227 263.736C0.907227 288.059 36.7317 308.662 36.7317 308.662L39.4349 302.028C50.9551 307.61 69.6837 306.703 78.0955 304.568C78.8756 304.368 82.1049 303.516 87.3902 302.185C93.4436 300.661 98.4085 299.452 101.728 298.66C103.524 297.843 105.949 296.404 107.637 293.822C111.422 288.041 108.895 280.554 107.637 275.559C105.786 268.193 106.391 264.958 107.056 259.122C112.293 264.746 118.746 269.022 126.117 268.635C146.533 267.558 151.383 245.105 158.368 224.689L147.483 221.06L147.495 221.054ZM23.8449 262.454C24.1956 256.141 29.0758 251.841 34.2342 249.035C33.4964 256.54 33.8531 257.26 31.8998 276.091C31.6338 278.631 31.4101 280.766 31.2166 282.592C27.0439 277.059 23.4276 269.995 23.8449 262.46V262.454Z" fill="#26D0D8"></path><path d="M36.7376 309.564C36.5803 309.564 36.4231 309.522 36.284 309.443C34.8024 308.59 0 288.296 0 263.731C0 248.377 4.63841 234.535 13.4131 223.71C20.4643 215.008 30.1339 208.428 39.9427 205.665C60.3041 198.172 81.5182 199.714 92.609 201.365C92.7118 201.335 92.8267 201.323 92.9296 201.329C94.8949 201.462 96.7937 201.849 98.5656 202.472C98.9647 202.599 99.3941 202.762 99.7932 202.949C107.848 206.39 112.202 214.706 116.049 222.041C120.082 229.739 123.614 236.482 130.369 236.482C131.016 236.482 131.693 236.422 132.407 236.288C140.697 234.783 146.587 220.844 146.648 220.704C146.829 220.269 147.319 220.039 147.773 220.19L158.658 223.819C158.888 223.897 159.075 224.061 159.184 224.278C159.293 224.496 159.305 224.744 159.226 224.974C158.458 227.217 157.703 229.528 156.971 231.759C151.057 249.841 144.943 268.539 126.16 269.531C119.895 269.863 113.708 267.033 107.733 261.119C107.183 265.872 106.917 268.956 108.514 275.33C108.634 275.808 108.761 276.304 108.901 276.818C110.225 281.849 112.039 288.743 108.392 294.313C106.965 296.49 104.849 298.231 102.097 299.477C102.043 299.501 101.988 299.519 101.934 299.532C97.2049 300.662 92.3853 301.848 87.6018 303.057C83.6892 304.043 80.9074 304.769 79.4076 305.156C78.8815 305.295 78.5065 305.391 78.307 305.44C69.5504 307.659 51.5535 308.427 39.9003 303.245L37.554 308.996C37.4573 309.238 37.2578 309.425 37.0098 309.51C36.9131 309.54 36.8163 309.558 36.7135 309.558L36.7376 309.564ZM74.207 201.813C64.108 201.813 52.1765 203.089 40.5474 207.376C40.5232 207.382 40.5052 207.394 40.481 207.4C21.8612 212.637 1.82025 232.497 1.82025 263.737C1.82025 285.139 30.7991 303.958 36.3022 307.339L38.6063 301.684C38.703 301.455 38.8845 301.267 39.1203 301.182C39.3562 301.092 39.6162 301.104 39.8399 301.213C50.5498 306.407 68.8187 305.984 77.8837 303.686C78.0833 303.638 78.4522 303.541 78.9722 303.402C80.472 303.015 83.2598 302.289 87.1785 301.303C91.9378 300.1 96.7393 298.921 101.444 297.796C103.839 296.695 105.671 295.19 106.893 293.327C110.098 288.435 108.399 281.994 107.165 277.289C107.026 276.763 106.893 276.261 106.772 275.778C105.024 268.823 105.417 265.443 106.016 260.327L106.167 259.014C106.209 258.664 106.445 258.367 106.784 258.252C107.123 258.144 107.492 258.234 107.733 258.494C113.738 264.941 119.925 268.043 126.081 267.716C143.618 266.791 149.272 249.502 155.259 231.197C155.9 229.243 156.553 227.23 157.225 225.252L147.99 222.174C146.563 225.288 140.873 236.591 132.739 238.072C123.305 239.784 119.006 231.572 114.452 222.882C110.57 215.467 106.548 207.799 99.0615 204.6C98.7047 204.431 98.36 204.298 98.0093 204.189C96.4732 203.651 94.8707 203.306 93.2016 203.161C93.0565 203.216 92.8993 203.234 92.742 203.21C88.1461 202.508 81.6815 201.813 74.207 201.813ZM31.2164 283.5C30.9383 283.5 30.6662 283.367 30.4908 283.137C25.1147 275.995 22.5688 269.023 22.9377 262.407C23.2521 256.759 26.9047 251.993 33.7987 248.238C34.095 248.075 34.4518 248.093 34.73 248.28C35.0081 248.468 35.1653 248.788 35.1351 249.127C34.863 251.885 34.7421 253.735 34.5969 255.882C34.349 259.625 34.0344 264.282 32.8008 276.183C32.5891 278.227 32.4017 280.005 32.2323 281.577L32.1114 282.684C32.0751 283.053 31.809 283.361 31.4522 283.464C31.3736 283.488 31.289 283.494 31.2104 283.494L31.2164 283.5ZM33.1697 250.699C27.836 253.971 25.0058 257.938 24.7519 262.51C24.4434 268.104 26.3967 274.024 30.5693 280.132C30.7024 278.886 30.8475 277.513 31.0047 276.001C32.2384 264.13 32.5468 259.492 32.7947 255.767C32.9036 254.092 33.0064 252.592 33.1758 250.705L33.1697 250.699Z" fill="#24AFB5"></path><path d="M44.1269 304.764C44.0846 304.764 44.0423 304.764 43.9939 304.752C43.8306 304.728 27.7448 302.212 29.8371 287.251C29.9037 286.755 30.3693 286.411 30.8591 286.477C31.355 286.544 31.6997 287.003 31.6332 287.499C29.7948 300.664 43.6675 302.865 44.2601 302.95C44.756 303.023 45.1007 303.482 45.0281 303.978C44.9616 304.432 44.5744 304.752 44.133 304.752L44.1269 304.764Z" fill="#24AFB5"></path><path d="M462.728 89.3425C462.456 88.9433 462.456 88.4293 462.728 88.0302C463.103 87.4799 463.315 86.8872 463.315 86.2704C463.315 83.3979 458.864 81.0697 453.379 81.0697C447.894 81.0697 443.443 83.3979 443.443 86.2704C443.443 86.8872 443.649 87.4799 444.03 88.0302C444.302 88.4293 444.302 88.9433 444.03 89.3425C443.655 89.8928 443.443 90.4854 443.443 91.1022C443.443 92.4629 444.447 93.7026 446.086 94.6339C446.05 94.7911 446.032 94.9483 446.032 95.1056C446.032 97.2282 449.321 98.9517 453.385 98.9517C457.449 98.9517 460.739 97.2282 460.739 95.1056C460.739 94.9483 460.721 94.7911 460.684 94.6339C462.323 93.7086 463.327 92.4689 463.327 91.1022C463.327 90.4854 463.121 89.8928 462.741 89.3425H462.728Z" fill="#CADDFF"></path><path d="M453.379 99.8582C448.746 99.8582 445.118 97.7718 445.118 95.105C443.449 94.0104 442.536 92.6074 442.536 91.1016C442.536 90.3094 442.784 89.5475 443.279 88.8278C443.34 88.7371 443.34 88.6343 443.279 88.5436C442.784 87.824 442.536 87.062 442.536 86.2698C442.536 82.847 447.301 80.162 453.379 80.162C459.456 80.162 464.221 82.847 464.221 86.2698C464.221 87.062 463.974 87.824 463.478 88.5436C463.417 88.6343 463.417 88.7371 463.478 88.8278C463.974 89.5475 464.221 90.3094 464.221 91.1016C464.221 92.6074 463.308 94.0104 461.639 95.105C461.639 97.7718 458.011 99.8582 453.379 99.8582ZM453.379 81.9762C448.057 81.9762 444.35 84.2379 444.35 86.2698C444.35 86.6871 444.495 87.1043 444.773 87.5155C445.263 88.2231 445.263 89.1423 444.773 89.8559C444.495 90.2671 444.35 90.6844 444.35 91.1016C444.35 92.0752 445.124 93.0489 446.533 93.8411C446.884 94.0406 447.059 94.4458 446.968 94.8389C446.944 94.9356 446.938 95.0203 446.938 95.105C446.938 96.4958 449.587 98.044 453.385 98.044C457.182 98.044 459.831 96.4958 459.831 95.105C459.831 95.0203 459.819 94.9356 459.801 94.8449C459.71 94.4518 459.885 94.0467 460.236 93.8471C461.645 93.0489 462.419 92.0813 462.419 91.1077C462.419 90.6904 462.274 90.2731 461.996 89.8619C461.506 89.1544 461.506 88.2352 461.996 87.5216C462.274 87.1104 462.419 86.6931 462.419 86.2758C462.419 84.2439 458.712 81.9822 453.391 81.9822L453.379 81.9762Z" fill="#24AFB5"></path><path d="M480.35 46.3997C480.35 31.6744 468.092 19.108 453.367 19.108C438.666 19.108 426.541 31.3297 426.444 46.0308C426.395 53.5174 430.006 60.4779 434.928 65.352C438.478 68.8655 441.066 73.2317 442.324 78.0696L442.385 78.3054C443.606 82.9982 447.839 86.2758 452.689 86.2758H454.679C459.529 86.2758 463.768 82.9982 464.984 78.3054L465.02 78.1663C466.266 73.3648 468.751 68.9562 472.301 65.4911C477.266 60.6472 480.344 53.8863 480.344 46.4057L480.35 46.3997Z" fill="white"></path><path d="M454.68 87.1832H452.69C447.429 87.1832 442.827 83.6274 441.503 78.5355L441.442 78.2997C440.245 73.7037 437.772 69.4464 434.282 65.9994C428.67 60.4479 425.483 53.1669 425.532 46.0311C425.635 30.689 438.116 18.2073 453.362 18.2073C468.607 18.2073 481.252 31.1183 481.252 46.406C481.252 53.8987 478.295 60.9075 472.931 66.1445C469.55 69.4403 467.119 73.6795 465.892 78.3964L465.855 78.5355C464.531 83.6274 459.935 87.1832 454.668 87.1832H454.68ZM453.368 20.0154C439.12 20.0154 427.449 31.6868 427.352 46.0371C427.31 52.6892 430.303 59.4985 435.564 64.7053C439.283 68.3881 441.926 72.9296 443.202 77.8401L443.262 78.0759C444.381 82.3695 448.258 85.369 452.69 85.369H454.68C459.113 85.369 462.995 82.3695 464.108 78.0759L464.144 77.9368C465.456 72.8934 468.057 68.3639 471.673 64.8383C476.686 59.946 479.444 53.4028 479.444 46.4C479.444 32.098 467.5 20.0154 453.368 20.0154Z" fill="#24AFB5"></path><path d="M454.875 83.3603C454.373 83.3603 453.968 82.9491 453.974 82.4471C454.034 68.0001 462.452 51.7267 464.139 48.6123C465.095 46.8465 465.464 45.4132 465.264 44.2401C464.974 42.5226 464.103 41.4159 462.682 40.9624C461.998 40.7447 460.493 40.5512 459.078 41.1559C460.856 43.1818 461.992 46.2417 461.194 49.0477C460.843 50.2813 459.852 51.1522 458.551 51.3699C457.064 51.6178 455.534 50.9707 454.651 49.7129C453.919 48.6607 453.024 46.2962 455.328 42.2444C455.582 41.803 455.86 41.4099 456.169 41.0652C455.117 40.4786 453.526 40.1037 451.96 40.6903C451.633 40.8112 451.313 40.9745 451.01 41.1741C452.927 42.8854 453.786 46.4473 453.369 48.5155C453.024 50.2269 451.972 51.5029 450.551 51.9323C449.305 52.3072 447.962 51.9625 447.037 51.0373C445.798 49.7915 445.489 47.7415 446.197 45.4072C446.662 43.8712 447.255 42.6798 447.902 41.7606C445.399 41.289 443.687 42.4984 443.209 43.6897C442.587 45.2258 442.816 47.0581 443.808 48.4732C446.287 52.0169 452.081 62.3518 452.365 81.788C452.371 82.2899 451.972 82.7011 451.47 82.7072C450.962 82.7253 450.557 82.3141 450.551 81.8122C450.273 62.878 444.703 52.918 442.32 49.5133C440.96 47.5721 440.663 45.1411 441.528 43.0064C442.472 40.6782 445.58 39.0817 449.257 40.2307C449.976 39.6017 450.69 39.2208 451.319 38.9849C453.617 38.1262 455.945 38.7733 457.348 39.6622C457.445 39.7227 457.541 39.7892 457.638 39.8557C459.543 38.737 461.793 38.7733 463.232 39.2389C465.288 39.8981 466.643 41.5671 467.048 43.9377C467.32 45.5463 466.903 47.3061 465.73 49.4771C464.079 52.5249 455.842 68.4475 455.782 82.4592C455.782 82.9612 455.377 83.3603 454.875 83.3603ZM449.668 42.4198C448.954 43.3148 448.368 44.5001 447.926 45.9394C447.418 47.6084 447.557 48.9993 448.313 49.7613C448.773 50.2209 449.408 50.3842 450.019 50.1967C450.799 49.9608 451.367 49.217 451.579 48.1587C451.893 46.5985 451.071 43.5204 449.662 42.4198H449.668ZM457.572 42.2142C457.324 42.4803 457.1 42.7826 456.894 43.1455C455.576 45.4737 455.298 47.4935 456.126 48.6788C456.604 49.3622 457.439 49.7189 458.237 49.5859C458.594 49.5254 459.223 49.3138 459.44 48.5579C460.057 46.3929 459.053 43.8288 457.572 42.2142Z" fill="#24AFB5"></path><path d="M465.73 64.0433C465.428 64.0433 465.131 63.8921 464.962 63.6199C464.696 63.1966 464.823 62.6342 465.246 62.3681C469.927 59.4231 473.295 54.6457 474.486 49.2575C474.595 48.7677 475.079 48.4593 475.569 48.5681C476.059 48.677 476.367 49.1608 476.258 49.6506C474.958 55.5105 471.3 60.7051 466.214 63.9042C466.063 64.0009 465.899 64.0433 465.73 64.0433Z" fill="#24AFB5"></path><path d="M436.703 60.954C436.455 60.954 436.201 60.8511 436.025 60.6516C432.349 56.5152 430.323 51.1875 430.323 45.6481C430.323 37.0065 435.13 29.2538 442.871 25.4077C443.318 25.1839 443.863 25.3654 444.087 25.8189C444.31 26.2664 444.129 26.8107 443.675 27.0344C436.558 30.5721 432.131 37.7019 432.131 45.6542C432.131 50.746 433.993 55.6504 437.374 59.4542C437.707 59.8291 437.676 60.4036 437.301 60.7362C437.126 60.8874 436.914 60.966 436.697 60.966L436.703 60.954Z" fill="#24AFB5"></path><path d="M455.067 89.9575C454.632 89.9575 454.251 89.6431 454.172 89.2016C454.088 88.7057 454.42 88.2401 454.916 88.1554C455.805 88.0043 456.67 87.8107 457.486 87.5809C457.964 87.4479 458.472 87.7261 458.605 88.2099C458.744 88.6937 458.46 89.1956 457.976 89.3286C457.099 89.5766 456.168 89.7882 455.219 89.9455C455.164 89.9515 455.116 89.9575 455.067 89.9575Z" fill="white"></path><path d="M450.883 95.0675C450.387 95.0675 449.982 94.6683 449.976 94.1664C449.976 93.6645 450.375 93.2532 450.877 93.2532C452.885 93.2351 455.824 92.9569 458.436 91.7354C458.89 91.5237 459.428 91.7172 459.64 92.1708C459.851 92.6243 459.658 93.1625 459.204 93.3742C456.296 94.7348 453.078 95.0433 450.895 95.0614H450.889L450.883 95.0675Z" fill="white"></path><path d="M453.51 13.595H453.492C452.99 13.5829 452.591 13.1717 452.603 12.6698L452.845 0.889545C452.857 0.387616 453.262 -0.0175556 453.77 0.00058639C454.272 0.0126811 454.671 0.4239 454.659 0.925829L454.417 12.706C454.405 13.2019 454 13.595 453.51 13.595Z" fill="#24AFB5"></path><path d="M419.371 37.5915H411.849C411.347 37.5915 410.941 37.1803 410.941 36.6783C410.941 36.1764 411.347 35.7712 411.849 35.7712H419.371C419.873 35.7712 420.278 36.1825 420.278 36.6844C420.278 37.1863 419.873 37.5915 419.371 37.5915Z" fill="#24AFB5"></path><path d="M426.308 21.869C426.162 21.869 426.011 21.8327 425.878 21.7602L417.394 17.1642C416.952 16.9223 416.789 16.372 417.031 15.9366C417.273 15.4951 417.823 15.3318 418.259 15.5737L426.743 20.1697C427.184 20.4056 427.348 20.9619 427.106 21.3973C426.942 21.6997 426.628 21.8751 426.308 21.8751V21.869Z" fill="#24AFB5"></path><path d="M487.381 37.59C486.879 37.59 486.474 37.1848 486.474 36.6829C486.474 36.1809 486.879 35.7758 487.381 35.7758H494.904C495.406 35.7758 495.811 36.1749 495.811 36.6768C495.811 37.1787 495.406 37.5839 494.904 37.5839H487.381V37.59Z" fill="#24AFB5"></path><path d="M480.439 21.869C480.118 21.869 479.804 21.6996 479.641 21.3912C479.399 20.9498 479.568 20.3995 480.003 20.1636L488.488 15.5676C488.929 15.3318 489.48 15.4951 489.715 15.9305C489.957 16.3719 489.788 16.9223 489.353 17.1581L480.868 21.7541C480.729 21.8266 480.584 21.8629 480.439 21.8629V21.869Z" fill="#24AFB5"></path><path d="M359.277 29.9712C359.24 29.7233 359.041 29.5358 358.793 29.5116L355.189 29.2153C354.977 29.1972 354.801 29.0581 354.729 28.8585C354.493 28.1873 354.221 27.5402 353.906 26.9113C353.81 26.7238 353.834 26.5001 353.967 26.3368L356.253 23.5369C356.41 23.3434 356.416 23.0652 356.259 22.8717L354.306 20.3802C354.154 20.1806 353.882 20.1201 353.659 20.229L350.387 21.7771C350.2 21.8678 349.976 21.8376 349.813 21.6985C349.28 21.2389 348.718 20.8156 348.131 20.4285C347.956 20.3136 347.865 20.108 347.895 19.9024L348.476 16.3284C348.518 16.0805 348.379 15.8386 348.149 15.7479L345.216 14.5626C344.987 14.4719 344.721 14.5505 344.575 14.7561L342.519 17.7314C342.398 17.9068 342.193 17.9854 341.981 17.9491C341.292 17.8221 340.596 17.7375 339.889 17.6951C339.677 17.683 339.496 17.55 339.417 17.3565L338.135 13.97C338.044 13.7341 337.809 13.595 337.561 13.6313L334.428 14.0728C334.18 14.1091 333.993 14.3086 333.968 14.5566L333.672 18.1668C333.654 18.3785 333.515 18.5539 333.315 18.6264C332.644 18.8623 331.997 19.1344 331.374 19.4489C331.187 19.5456 330.963 19.5214 330.8 19.3884L328 17.1025C327.806 16.9453 327.528 16.9392 327.334 17.0965L324.843 19.0497C324.643 19.2009 324.583 19.4731 324.692 19.6968L326.24 22.9684C326.331 23.1559 326.294 23.3796 326.161 23.5429C325.702 24.0751 325.278 24.6435 324.891 25.2301C324.776 25.4055 324.571 25.5023 324.365 25.466L320.791 24.8854C320.543 24.8431 320.301 24.9822 320.211 25.212L319.025 28.151C318.935 28.3808 319.013 28.6469 319.219 28.792L322.188 30.8481C322.364 30.969 322.442 31.1747 322.406 31.3863C322.279 32.0757 322.194 32.7712 322.152 33.4847C322.14 33.6964 322.007 33.8778 321.813 33.9564L318.433 35.2385C318.197 35.3292 318.058 35.565 318.094 35.813L318.536 38.9515C318.572 39.1995 318.771 39.3869 319.019 39.4111L322.624 39.7075C322.835 39.7256 323.011 39.8647 323.083 40.0642C323.319 40.7355 323.591 41.3826 323.906 42.0115C324.002 42.199 323.978 42.4227 323.845 42.586L321.559 45.3859C321.402 45.5794 321.396 45.8576 321.553 46.0511L323.507 48.5426C323.658 48.7422 323.93 48.8027 324.154 48.6938L327.425 47.1457C327.619 47.055 327.836 47.0913 328 47.2243C328.532 47.6839 329.094 48.1072 329.681 48.4942C329.856 48.6091 329.953 48.8147 329.917 49.0204L329.336 52.5943C329.294 52.8423 329.433 53.0842 329.663 53.1749L332.602 54.3602C332.831 54.4509 333.098 54.3722 333.243 54.1666L335.299 51.1913C335.42 51.016 335.625 50.9374 335.837 50.9736C336.526 51.1006 337.222 51.1853 337.929 51.2276C338.141 51.2397 338.322 51.3728 338.401 51.5663L339.683 54.9528C339.774 55.1886 340.01 55.3277 340.258 55.2914L343.39 54.85C343.638 54.8137 343.826 54.6141 343.85 54.3662L344.146 50.7559C344.164 50.5443 344.303 50.3689 344.503 50.2963C345.174 50.0605 345.821 49.7884 346.444 49.4739C346.632 49.3771 346.855 49.4013 347.019 49.5344L349.818 51.8203C350.012 51.9775 350.29 51.9836 350.484 51.8263L352.975 49.873C353.175 49.7218 353.235 49.4497 353.126 49.226L351.578 45.9544C351.488 45.7669 351.524 45.5431 351.657 45.3799C352.116 44.8477 352.54 44.2792 352.921 43.6927C353.036 43.5173 353.241 43.4205 353.447 43.4568L357.021 44.0373C357.269 44.0797 357.511 43.9406 357.601 43.7108L358.787 40.7718C358.877 40.542 358.799 40.2759 358.593 40.1308L355.624 38.0747C355.449 37.9537 355.37 37.7481 355.406 37.5365C355.533 36.8471 355.618 36.1516 355.66 35.438C355.672 35.2264 355.805 35.045 355.999 34.9663L359.379 33.6843C359.615 33.5936 359.754 33.3577 359.718 33.1098L359.277 29.9712ZM338.909 45.0473C333.061 45.0473 328.32 40.3061 328.32 34.4584C328.32 28.6106 333.061 23.8695 338.909 23.8695C344.757 23.8695 349.498 28.6106 349.498 34.4584C349.498 40.3061 344.757 45.0473 338.909 45.0473Z" fill="#E1F9FA"></path><path d="M261.369 464.696L260.202 460.427L255.376 460.644C254.929 459.707 254.408 458.812 253.828 457.978L256.386 453.884L253.241 450.769L249.171 453.376C248.325 452.795 247.43 452.281 246.499 451.852L246.668 447.02L242.386 445.895L240.167 450.183C239.151 450.104 238.123 450.11 237.083 450.207L234.815 445.937L230.552 447.104L230.769 451.936C229.832 452.384 228.937 452.904 228.109 453.49L224.015 450.932L220.906 454.077L223.513 458.153C222.932 459 222.424 459.895 221.989 460.826L217.157 460.657L216.038 464.938L220.32 467.157C220.241 468.173 220.247 469.201 220.344 470.242L216.08 472.515L217.248 476.785L222.073 476.567C222.521 477.504 223.041 478.399 223.621 479.234L221.063 483.328L224.208 486.442L228.278 483.836C229.125 484.417 230.02 484.931 230.951 485.36L230.782 490.192L235.063 491.317L237.282 487.029C238.298 487.108 239.326 487.102 240.367 487.005L242.634 491.274L246.904 490.107L246.686 485.275C247.623 484.828 248.518 484.308 249.347 483.721L253.441 486.279L256.549 483.135L253.943 479.059C254.523 478.212 255.031 477.317 255.467 476.386L260.299 476.555L261.417 472.274L257.136 470.054C257.215 469.038 257.208 468.004 257.112 466.97L261.375 464.696H261.369ZM241.721 479.597C235.656 481.26 229.391 477.686 227.734 471.614C226.071 465.543 229.645 459.278 235.71 457.615C241.776 455.952 248.041 459.526 249.698 465.597C251.361 471.669 247.787 477.934 241.721 479.597Z" fill="#26D0D8"></path></svg> 