<?xml version="1.0" encoding="UTF-8"?> <svg xmlns="http://www.w3.org/2000/svg" width="545" height="565" viewBox="0 0 545 565" fill="none"><path d="M192.851 430.446C193.762 429.942 194.68 429.452 195.611 428.99C203.824 424.891 212.685 421.827 221.304 418.694C253.229 407.107 286.133 398.577 318.658 388.908C330.169 385.485 341.687 382.118 353.268 378.964C397.856 285.474 478.047 115.189 470.566 115.189L36.7406 98.4399C26.4234 98.4399 18.0316 106.832 18.0316 117.149V419.998C18.0316 430.315 26.4234 438.707 36.7406 438.707L193.493 428.086L192.851 430.439V430.446Z" fill="#24AFB5"></path><path d="M321.818 399.991H211.193L179.807 514.543H353.197L321.818 399.991Z" fill="white"></path><path d="M353.198 515.579H179.8C179.476 515.579 179.172 515.427 178.979 515.172C178.786 514.917 178.717 514.578 178.806 514.268L210.193 399.716C210.317 399.268 210.724 398.957 211.193 398.957H321.818C322.288 398.957 322.695 399.268 322.819 399.716L354.205 514.268C354.288 514.578 354.226 514.91 354.033 515.172C353.84 515.427 353.536 515.579 353.212 515.579H353.198ZM181.16 513.509H351.838L321.025 401.027H211.98L181.167 513.509H181.16Z" fill="#24AFB5"></path><path d="M487.37 99.4951H45.6428C35.8933 99.4951 27.9897 107.399 27.9897 117.148V419.997C27.9897 429.747 35.8933 437.65 45.6428 437.65H487.37C497.12 437.65 505.023 429.747 505.023 419.997V117.148C505.023 107.399 497.12 99.4951 487.37 99.4951Z" fill="white"></path><path d="M487.371 438.693H45.6438C35.3404 438.693 26.9556 430.308 26.9556 420.005V117.149C26.9556 106.846 35.3404 98.4609 45.6438 98.4609H487.371C497.674 98.4609 506.059 106.846 506.059 117.149V419.998C506.059 430.301 497.674 438.686 487.371 438.686V438.693ZM45.6438 100.531C36.4791 100.531 29.0259 107.984 29.0259 117.149V419.998C29.0259 429.163 36.4791 436.616 45.6438 436.616H487.371C496.536 436.616 503.989 429.163 503.989 419.998V117.149C503.989 107.984 496.536 100.531 487.371 100.531H45.6438Z" fill="#24AFB5"></path><path d="M372.03 502.779H160.973C154.907 502.779 149.986 507.699 149.986 513.765C149.986 519.832 154.907 524.752 160.973 524.752H372.03C378.096 524.752 383.016 519.832 383.016 513.765C383.016 507.699 378.096 502.779 372.03 502.779Z" fill="white"></path><path d="M372.031 525.781H160.974C154.349 525.781 148.952 520.391 148.952 513.759C148.952 507.127 154.342 501.737 160.974 501.737H372.031C378.656 501.737 384.053 507.127 384.053 513.759C384.053 520.391 378.663 525.781 372.031 525.781ZM160.974 503.815C155.487 503.815 151.022 508.28 151.022 513.766C151.022 519.252 155.487 523.717 160.974 523.717H372.031C377.517 523.717 381.982 519.252 381.982 513.766C381.982 508.28 377.517 503.815 372.031 503.815H160.974Z" fill="#24AFB5"></path><path d="M480.551 115.188H52.4606C47.6125 115.188 43.6824 119.118 43.6824 123.966V413.185C43.6824 418.033 47.6125 421.964 52.4606 421.964H480.551C485.399 421.964 489.329 418.033 489.329 413.185V123.966C489.329 119.118 485.399 115.188 480.551 115.188Z" fill="white"></path><path d="M480.553 423H52.462C47.0515 423 42.6486 418.597 42.6486 413.186V123.967C42.6486 118.557 47.0515 114.154 52.462 114.154H480.553C485.963 114.154 490.366 118.557 490.366 123.967V413.186C490.366 418.597 485.963 423 480.553 423ZM52.462 116.224C48.1902 116.224 44.7189 119.695 44.7189 123.967V413.186C44.7189 417.458 48.1902 420.929 52.462 420.929H480.553C484.824 420.929 488.296 417.458 488.296 413.186V123.967C488.296 119.695 484.824 116.224 480.553 116.224H52.462Z" fill="#24AFB5"></path><path d="M427.859 17.771H97.5441V420.81H427.859V17.771Z" fill="white"></path><path d="M427.861 421.847H97.5452C96.9724 421.847 96.51 421.384 96.51 420.811V17.772C96.51 17.1992 96.9724 16.7368 97.5452 16.7368H427.861C428.433 16.7368 428.896 17.1992 428.896 17.772V420.811C428.896 421.384 428.433 421.847 427.861 421.847ZM98.5803 419.776H426.825V18.8072H98.5803V419.776Z" fill="#24AFB5"></path><path d="M281.383 41.8569H121.933V51.9188H281.383V41.8569Z" fill="#26D0D8"></path><path d="M361.954 58.9175H175.569V69.3865H361.954V58.9175Z" fill="#E1F9FA"></path><path d="M403.465 76.1826H217.079V86.6585H403.465V76.1826Z" fill="#E1F9FA"></path><path d="M380.994 93.4502H284.655V103.926H380.994V93.4502Z" fill="#E1F9FA"></path><path d="M281.383 179.99H121.933V190.052H281.383V179.99Z" fill="#26D0D8"></path><path d="M361.954 197.051H175.569V207.52H361.954V197.051Z" fill="#E1F9FA"></path><path d="M403.465 214.316H217.079V224.792H403.465V214.316Z" fill="#E1F9FA"></path><path d="M403.471 231.584H284.655V242.053H403.471V231.584Z" fill="#E1F9FA"></path><path d="M361.954 110.716H175.569V121.185H361.954V110.716Z" fill="#E1F9FA"></path><path d="M403.465 127.983H217.079V138.459H403.465V127.983Z" fill="#E1F9FA"></path><path d="M358.518 162.516H284.655V172.992H358.518V162.516Z" fill="#E1F9FA"></path><path d="M403.471 145.251H284.655V155.727H403.471V145.251Z" fill="#E1F9FA"></path><path d="M281.383 249.056H121.933V259.117H281.383V249.056Z" fill="#26D0D8"></path><path d="M361.954 266.117H175.569V276.593H361.954V266.117Z" fill="#E1F9FA"></path><path d="M397.468 283.384H217.079V293.86H397.468V283.384Z" fill="#E1F9FA"></path><path d="M403.471 300.649H284.655V311.125H403.471V300.649Z" fill="#26D0D8"></path><path d="M317.794 386.982H217.079V397.451H317.794V386.982Z" fill="#26D0D8"></path><path d="M361.954 317.915H175.569V328.384H361.954V317.915Z" fill="#E1F9FA"></path><path d="M403.465 335.182H217.079V345.651H403.465V335.182Z" fill="#E1F9FA"></path><path d="M403.471 369.715H284.655V380.191H403.471V369.715Z" fill="#E1F9FA"></path><path d="M352.679 352.45H284.655V362.926H352.679V352.45Z" fill="#E1F9FA"></path><path d="M419.396 42.4271L412.95 31.2887L399.534 35.4777C397.581 33.1658 395.463 31.0471 393.199 29.1355L397.354 15.7266L386.201 9.3017L376.678 19.6396C373.862 18.632 370.971 17.8591 368.024 17.3346L364.918 3.62207L352.048 3.63587L348.977 17.3346C346.064 17.866 343.166 18.6458 340.323 19.681L330.778 9.36381L319.64 15.8095L323.829 29.2252C321.517 31.1783 319.398 33.2969 317.487 35.5605L304.078 31.406L297.653 42.5582L307.991 52.0818C306.983 54.8974 306.21 57.789 305.679 60.7358L291.966 63.8413L291.98 76.7119L305.679 79.7829C306.203 82.6952 306.99 85.5936 308.025 88.4369L297.708 97.9811L304.154 109.12L317.57 104.931C319.523 107.242 321.641 109.368 323.905 111.273L319.75 124.682L330.903 131.107L340.426 120.769C343.242 121.776 346.133 122.549 349.08 123.081L352.186 136.793L365.056 136.779L368.127 123.081C371.039 122.556 373.938 121.769 376.781 120.734L386.325 131.051L397.464 124.606L393.275 111.19C395.587 109.237 397.705 107.118 399.617 104.855L413.026 109.009L419.451 97.8569L409.113 88.3334C410.121 85.5177 410.893 82.6261 411.425 79.6794L425.137 76.5739L425.124 63.7033L411.425 60.6323C410.9 57.72 410.114 54.8215 409.079 51.9782L419.396 42.434V42.4271ZM375.153 98.8783C359.321 108.043 339.053 102.639 329.888 86.8013C320.723 70.9701 326.127 50.7015 341.965 41.5368C357.796 32.3722 378.065 37.7757 387.23 53.6138C396.394 69.445 390.991 89.7136 375.153 98.8783Z" fill="#26D0D8"></path><path d="M346.079 136.187C345.595 136.187 345.174 135.856 345.071 135.38L342.11 122.336C339.571 121.846 337.059 121.177 334.616 120.335L325.555 130.176C325.223 130.535 324.699 130.611 324.278 130.369L313.126 123.944C312.705 123.703 312.511 123.206 312.656 122.744L316.611 109.983C314.678 108.313 312.836 106.464 311.124 104.49L298.357 108.479C297.895 108.624 297.398 108.431 297.15 108.01L290.704 96.8712C290.462 96.4503 290.545 95.9189 290.897 95.5945L300.711 86.5126C299.848 84.042 299.165 81.5231 298.682 79.018L285.652 76.0919C285.183 75.9884 284.845 75.5675 284.845 75.0844L284.831 62.2138C284.831 61.7307 285.162 61.3097 285.638 61.2062L298.682 58.2456C299.172 55.7129 299.841 53.194 300.683 50.751L290.842 41.6898C290.483 41.3655 290.407 40.8341 290.649 40.4131L297.074 29.2609C297.315 28.8399 297.819 28.6467 298.274 28.7916L311.035 32.746C312.712 30.8137 314.554 28.9711 316.528 27.2596L312.539 14.4925C312.394 14.0301 312.587 13.5333 313.008 13.2848L324.147 6.83917C324.568 6.59763 325.099 6.67354 325.423 7.0324L334.505 16.8458C336.976 15.9832 339.495 15.2999 342 14.8169L344.926 1.78754C345.03 1.31827 345.451 0.980111 345.934 0.980111L358.804 0.966309C359.287 0.966309 359.708 1.29756 359.812 1.77374L362.772 14.8169C365.305 15.3068 367.824 15.9763 370.267 16.8182L379.328 6.97719C379.659 6.61833 380.191 6.54242 380.605 6.78396L391.757 13.2089C392.178 13.4504 392.371 13.9473 392.226 14.4097L388.272 27.1699C390.204 28.8399 392.047 30.6895 393.758 32.6632L406.525 28.6743C406.988 28.5294 407.485 28.7226 407.733 29.1436L414.179 40.282C414.42 40.703 414.338 41.2344 413.986 41.5587L404.172 50.6406C405.035 53.1112 405.718 55.6301 406.201 58.1352L419.23 61.0613C419.7 61.1648 420.038 61.5858 420.038 62.0689L420.052 74.9395C420.052 75.4225 419.72 75.8435 419.244 75.947L406.201 78.9076C405.711 81.4472 405.042 83.9592 404.2 86.4022L414.041 95.4634C414.4 95.7947 414.476 96.3191 414.234 96.7401L407.809 107.892C407.568 108.313 407.071 108.507 406.608 108.362L393.848 104.407C392.178 106.34 390.329 108.182 388.355 109.894L392.344 122.661C392.489 123.123 392.295 123.62 391.874 123.868L380.736 130.314C380.315 130.556 379.784 130.48 379.459 130.121L370.377 120.307C367.907 121.17 365.388 121.853 362.883 122.336L359.957 135.366C359.853 135.835 359.432 136.173 358.949 136.173L346.079 136.187ZM334.319 118.099C334.436 118.099 334.554 118.12 334.671 118.161C337.425 119.148 340.275 119.907 343.159 120.425C343.567 120.501 343.891 120.811 343.987 121.212L346.914 134.117L358.128 134.103L361.019 121.212C361.109 120.804 361.434 120.494 361.848 120.418C364.684 119.907 367.541 119.134 370.336 118.12C370.729 117.975 371.164 118.085 371.447 118.389L380.432 128.099L390.135 122.481L386.188 109.852C386.064 109.452 386.188 109.024 386.505 108.755C388.776 106.836 390.867 104.745 392.723 102.544C392.992 102.227 393.427 102.102 393.821 102.22L406.436 106.133L412.033 96.4158L402.302 87.4512C401.998 87.1683 401.888 86.7335 402.026 86.3401C403.013 83.5866 403.772 80.7364 404.29 77.8517C404.365 77.4446 404.676 77.1202 405.083 77.0236L417.988 74.0975L417.974 62.8832L405.083 59.9916C404.676 59.9019 404.365 59.5776 404.29 59.1635C403.772 56.3271 402.999 53.4701 401.991 50.6751C401.847 50.2817 401.957 49.847 402.261 49.564L411.97 40.5788L406.353 30.8758L393.731 34.8232C393.337 34.9474 392.903 34.8232 392.634 34.5058C390.715 32.2353 388.624 30.1443 386.423 28.2879C386.105 28.0187 385.981 27.5839 386.098 27.1906L390.011 14.5753L380.294 8.97851L371.33 18.7091C371.047 19.0127 370.612 19.1232 370.219 18.9851C367.465 17.9983 364.608 17.2392 361.73 16.7216C361.323 16.6457 360.999 16.3351 360.902 15.9348L357.976 3.02974L346.762 3.04355L343.87 15.9348C343.78 16.342 343.456 16.6526 343.042 16.7285C340.206 17.2461 337.349 18.019 334.554 19.0266C334.16 19.1715 333.726 19.0611 333.443 18.7574L324.457 9.04752L314.754 14.665L318.695 27.2872C318.819 27.6875 318.695 28.1153 318.377 28.3845C316.114 30.303 314.016 32.394 312.16 34.5955C311.89 34.9129 311.456 35.0372 311.062 34.9198L298.447 31.0069L292.85 40.7237L302.581 49.6882C302.884 49.9712 302.995 50.406 302.857 50.7993C301.87 53.5529 301.111 56.4099 300.593 59.2877C300.517 59.6949 300.207 60.0192 299.8 60.1158L286.894 63.0419L286.908 74.2562L299.8 77.1478C300.207 77.2375 300.517 77.5619 300.593 77.976C301.104 80.8123 301.884 83.6694 302.891 86.4643C303.036 86.8577 302.926 87.2925 302.622 87.5754L292.912 96.5607L298.53 106.264L311.152 102.316C311.552 102.192 311.98 102.316 312.249 102.634C314.168 104.904 316.259 106.995 318.46 108.852C318.778 109.121 318.902 109.556 318.785 109.949L314.872 122.564L324.588 128.161L333.553 118.43C333.753 118.216 334.029 118.099 334.312 118.099H334.319ZM352.497 102.751C349.543 102.751 346.569 102.365 343.636 101.585C334.816 99.2314 327.445 93.5863 322.877 85.6914C313.443 69.391 319.026 48.446 335.333 39.0122C351.634 29.5784 372.579 35.1614 382.013 51.4687C386.581 59.3636 387.803 68.5697 385.456 77.3894C383.103 86.209 377.458 93.5794 369.563 98.1479C364.291 101.198 358.438 102.758 352.503 102.758L352.497 102.751ZM352.386 36.4864C346.934 36.4864 341.413 37.8735 336.362 40.7996C321.048 49.6606 315.796 69.3357 324.664 84.6493C328.957 92.068 335.886 97.3681 344.167 99.5834C352.448 101.792 361.095 100.646 368.514 96.3536C375.933 92.0611 381.233 85.1324 383.448 76.8511C385.656 68.5697 384.511 59.9226 380.218 52.5039C374.277 42.235 363.476 36.4933 352.393 36.4933L352.386 36.4864Z" fill="#24AFB5"></path><path d="M447.043 385.471L446.553 402.876H438.327L435.56 383.884L447.043 385.471Z" fill="white"></path><path d="M446.554 403.911H438.328C437.81 403.911 437.375 403.532 437.306 403.028L434.539 384.036C434.491 383.712 434.601 383.388 434.829 383.16C435.057 382.932 435.381 382.822 435.705 382.863L447.189 384.457C447.713 384.526 448.093 384.982 448.079 385.513L447.589 402.911C447.575 403.47 447.113 403.918 446.554 403.918V403.911ZM439.225 401.841H445.546L445.981 386.376L436.782 385.099L439.218 401.841H439.225Z" fill="#24AFB5"></path><path d="M404.582 417.391H447.266C449.488 417.391 451.193 415.425 450.868 413.223C450.137 408.234 448.839 400.139 447.721 396.833C446.051 391.899 440.648 399.759 440.648 399.759L437.487 397.095C437.487 397.095 409.358 405.335 402.899 414.01C401.857 415.404 402.843 417.391 404.582 417.391Z" fill="#24AFB5"></path><path d="M447.044 415.183H407.177C406.604 415.183 406.141 414.72 406.141 414.147C406.141 413.575 406.604 413.112 407.177 413.112H447.044C447.617 413.112 448.08 413.575 448.08 414.147C448.08 414.72 447.617 415.183 447.044 415.183Z" fill="white"></path><path d="M508.028 366.978L523.673 386.791L531.955 380.587L518.559 358.731L508.028 366.978Z" fill="white"></path><path d="M523.673 387.828C523.37 387.828 523.066 387.69 522.859 387.435L507.214 367.622C507.042 367.408 506.966 367.132 507 366.856C507.035 366.579 507.173 366.331 507.387 366.165L517.918 357.919C518.153 357.739 518.449 357.663 518.739 357.712C519.029 357.767 519.284 357.939 519.436 358.188L532.831 380.044C533.107 380.499 532.997 381.092 532.569 381.41L524.288 387.614C524.101 387.752 523.88 387.821 523.667 387.821L523.673 387.828ZM509.485 367.152L523.86 385.357L530.575 380.32L518.284 360.258L509.485 367.152Z" fill="#24AFB5"></path><path d="M507.142 415.734C514.312 412.387 532.759 403.008 543.179 390.766C544.118 389.661 544.138 388.054 543.269 386.894C541.047 383.94 536.547 378.468 531.951 375.928C531.951 375.928 522.607 379.179 525.112 383.582L521.703 383.036C521.703 383.036 506.645 399.951 504.436 413.719C504.195 415.223 505.754 416.383 507.135 415.734H507.142Z" fill="#24AFB5"></path><path d="M507.485 413.209C507.12 413.209 506.768 413.015 506.581 412.677C506.305 412.18 506.485 411.545 506.982 411.269C507.202 411.145 528.913 398.999 540.314 386.86C540.707 386.446 541.363 386.425 541.777 386.812C542.191 387.205 542.212 387.861 541.825 388.275C530.204 400.649 508.21 412.953 507.989 413.077C507.83 413.167 507.658 413.209 507.485 413.209Z" fill="white"></path><path d="M409.591 238.603C409.591 238.603 417.252 290.445 421.634 317.704C426.016 344.964 435.436 388.882 435.436 388.882H448.969C448.969 388.882 453.427 359.063 454.497 342.527C455.567 325.992 450.115 321.327 449.031 308.022C447.948 294.716 454.711 251.709 454.711 251.709L434.649 232.103L409.584 238.603H409.591Z" fill="#26D0D8"></path><path d="M443.581 250.073C443.581 250.073 467.59 319.16 509.369 372.651L523.544 361.464C523.544 361.464 512.289 325.012 509.507 320.326C506.726 315.641 499.259 303.522 497.023 297.152C489.763 276.49 482.069 237.078 482.069 237.078L443.581 250.073Z" fill="#26D0D8"></path><path d="M413.392 147.071C411.225 144.904 411.674 143.537 412.074 143.441C412.44 143.351 414.648 142.268 415.332 141.66C416.974 140.218 417.505 138.141 416.518 137.016C415.994 136.416 415.131 136.215 414.2 136.374C414.455 133.365 413.586 131.93 412.868 129.866C410.39 122.744 404.165 124.228 401.916 126.788C399.956 129.018 400.094 130.936 395.843 133.089C395.436 133.296 395.442 133.91 395.663 134.311L396.781 136.574C397.03 137.023 396.933 138.113 396.781 138.61C396.291 140.128 395.132 143.31 395.463 143.931C396.098 145.132 401.088 146.926 401.088 146.926L409.928 160.266C409.562 163.075 407.954 164.655 406.753 165.462C406.008 165.959 406.008 167.05 406.767 167.526C408.196 168.423 411.073 169.81 416.864 171.853C424.517 174.558 432.819 164.517 432.819 164.517C432.819 164.517 430.486 164.179 413.392 147.071Z" fill="white"></path><path d="M419.612 173.358C418.591 173.358 417.555 173.199 416.52 172.833C411.613 171.101 408.149 169.61 406.224 168.403C405.575 167.995 405.182 167.298 405.168 166.539C405.154 165.759 405.534 165.042 406.182 164.6C407.197 163.917 408.453 162.668 408.846 160.501L400.413 147.775C398.66 147.126 395.244 145.725 394.547 144.407C394.133 143.628 394.43 142.392 395.534 139.08C395.63 138.783 395.72 138.514 395.796 138.286C395.907 137.934 395.934 137.237 395.865 137.044L394.74 134.766C394.478 134.304 394.402 133.676 394.568 133.152C394.699 132.717 394.989 132.365 395.382 132.165C398.053 130.812 398.784 129.625 399.626 128.245C400.047 127.562 400.475 126.858 401.144 126.099C402.476 124.58 405.216 123.2 408.073 123.759C409.916 124.118 412.414 125.415 413.849 129.522C413.981 129.894 414.112 130.239 414.243 130.584C414.753 131.916 415.278 133.283 415.285 135.319C416.092 135.415 416.796 135.767 417.3 136.34C418.68 137.913 418.121 140.598 416.016 142.441C415.368 143.006 413.677 143.897 412.78 144.276C412.835 144.621 413.125 145.339 414.119 146.34C429.563 161.798 432.821 163.406 433.09 163.523C433.4 163.613 433.656 163.841 433.773 164.145C433.904 164.497 433.842 164.89 433.607 165.173C433.297 165.552 426.755 173.351 419.605 173.351L419.612 173.358ZM396.445 143.517C396.935 144.035 399.191 145.139 401.441 145.946C401.648 146.022 401.828 146.16 401.952 146.347L410.792 159.686C410.93 159.893 410.985 160.142 410.958 160.39C410.544 163.551 408.756 165.352 407.335 166.312C407.245 166.374 407.231 166.45 407.238 166.498C407.238 166.594 407.3 166.629 407.321 166.643C408.556 167.416 411.275 168.782 417.21 170.873C422.793 172.847 428.997 167.078 431.199 164.766C429.046 163.316 424.07 159.217 412.662 147.796C410.502 145.636 410.634 144.09 410.792 143.531C410.951 142.965 411.337 142.551 411.834 142.427C412.2 142.309 414.139 141.329 414.657 140.874C415.947 139.742 416.272 138.286 415.747 137.693C415.485 137.396 414.988 137.285 414.381 137.389C414.063 137.444 413.739 137.348 413.504 137.134C413.27 136.92 413.146 136.602 413.173 136.285C413.359 134.069 412.897 132.855 412.31 131.323C412.172 130.964 412.034 130.591 411.896 130.205C411.02 127.686 409.564 126.161 407.68 125.795C405.713 125.409 403.691 126.347 402.704 127.472C402.152 128.1 401.786 128.7 401.393 129.335C400.496 130.798 399.571 132.303 396.604 133.869L397.715 136.119C398.163 136.92 397.942 138.39 397.77 138.928C397.694 139.163 397.597 139.445 397.501 139.742C397.19 140.681 396.472 142.82 396.445 143.517Z" fill="#24AFB5"></path><path d="M404.414 128.766C404.414 128.766 396.588 122.541 398.776 117.531C398.969 117.09 399.556 115.709 400.901 115.102C403.662 113.853 407.237 116.869 408.037 117.531C414.973 123.307 419.597 123.873 422.536 126.903C423.606 128 424.793 130.036 424.648 134.094C424.082 136.986 422.888 138.518 421.901 139.38C419.879 141.154 418.127 140.636 416.691 142.506C415.076 144.604 416.091 146.806 414.966 147.461C414.096 147.972 412.199 147.406 407.727 142.983C410.397 139.994 411.715 137.048 410.777 135.571C410.508 135.15 409.756 134.439 408.962 134.446C407.913 134.446 407.216 135.571 407.216 135.571L404.407 128.766H404.414Z" fill="#24AFB5"></path><path d="M319.513 150.657L309.769 144.866C308.858 144.328 308.12 143.541 307.63 142.603L305.2 137.938C304.842 137.248 305.684 136.564 306.284 137.054L311.701 141.457C312.467 142.078 313.358 142.513 314.317 142.741L322.143 144.666L323.937 141.023C324.468 139.946 325.579 139.29 326.78 139.346L324.751 148.158L327.139 156.419L321.094 158.358L319.52 150.67L319.513 150.657Z" fill="white"></path><path d="M321.093 159.381C320.914 159.381 320.734 159.332 320.569 159.243C320.313 159.098 320.134 158.842 320.079 158.559L318.595 151.32L309.244 145.765C308.167 145.123 307.291 144.198 306.718 143.087L304.289 138.422C303.902 137.677 304.082 136.786 304.738 136.255C305.386 135.724 306.297 135.724 306.946 136.255L312.363 140.658C312.998 141.175 313.764 141.548 314.565 141.734L321.59 143.467L323.012 140.568C323.723 139.119 325.234 138.236 326.828 138.312C327.132 138.325 327.422 138.477 327.601 138.719C327.78 138.96 327.856 139.278 327.787 139.574L325.82 148.125L328.132 156.123C328.291 156.662 327.987 157.228 327.456 157.393L321.411 159.332C321.307 159.367 321.204 159.381 321.093 159.381ZM306.835 138.829L308.554 142.128C308.954 142.894 309.561 143.536 310.307 143.977L320.051 149.767C320.3 149.919 320.479 150.161 320.534 150.451L321.88 157.007L325.869 155.723L323.764 148.429C323.716 148.256 323.709 148.084 323.75 147.911L325.386 140.824C325.179 140.996 325.006 141.217 324.882 141.465L323.088 145.109C322.874 145.544 322.384 145.772 321.914 145.661L314.089 143.736C312.998 143.48 311.949 142.97 311.066 142.252L306.849 138.822L306.835 138.829Z" fill="#24AFB5"></path><path d="M439.801 60.8504C439.801 60.8504 436.95 57.4482 433.859 57.7518C430.774 58.0555 428.2 57.8967 428.2 57.8967C428.2 57.8967 428.359 55.3916 430.056 55.4883L431.754 55.578L433.41 54.9707L426.944 41.8447L431.188 42.5624C432.044 42.7074 432.817 43.1697 433.341 43.8599L444.072 57.7794L439.808 60.8435L439.801 60.8504Z" fill="white"></path><path d="M439.806 61.8871C439.51 61.8871 439.22 61.7629 439.013 61.5213C438.309 60.6932 436.032 58.5814 433.968 58.7885C430.835 59.099 428.254 58.9472 428.144 58.9403C427.868 58.9265 427.612 58.7954 427.433 58.5952C427.253 58.3882 427.157 58.1191 427.177 57.843C427.288 56.1453 428.254 54.3579 430.124 54.4684L431.608 54.5512L431.981 54.4132L426.025 42.3224C425.852 41.9704 425.894 41.5564 426.122 41.2458C426.356 40.9353 426.743 40.7765 427.122 40.8455L431.366 41.5633C432.484 41.7496 433.478 42.35 434.168 43.2471L444.893 57.1667C445.065 57.3875 445.134 57.6705 445.1 57.9465C445.058 58.2226 444.906 58.471 444.679 58.6366L440.414 61.7007C440.234 61.8319 440.02 61.894 439.813 61.894L439.806 61.8871ZM434.258 56.7043C436.715 56.7043 438.889 58.471 439.938 59.4855L442.601 57.5739L432.526 44.5031C432.153 44.0201 431.615 43.6957 431.014 43.5991L428.772 43.2195L434.341 54.5305C434.472 54.7927 434.486 55.1033 434.375 55.3724C434.265 55.6485 434.044 55.8555 433.768 55.959L432.112 56.5663C431.981 56.6146 431.836 56.6353 431.698 56.6284L430 56.5387C429.8 56.5318 429.634 56.6974 429.517 56.9183C430.538 56.9252 432.077 56.9045 433.761 56.7388C433.927 56.725 434.092 56.7112 434.251 56.7112L434.258 56.7043Z" fill="#24AFB5"></path><path d="M393.053 198.585L399.064 244.139C399.064 244.139 414.736 246.562 430.726 245.223C430.726 245.223 410.437 197.239 393.053 198.585Z" fill="white"></path><path d="M420.616 246.659C408.753 246.659 399.029 245.182 398.905 245.161C398.449 245.092 398.097 244.727 398.035 244.271L392.024 198.717C391.99 198.434 392.066 198.151 392.245 197.93C392.424 197.709 392.687 197.571 392.97 197.551C410.906 196.17 430.836 242.829 431.671 244.816C431.802 245.12 431.775 245.472 431.602 245.755C431.43 246.038 431.133 246.224 430.802 246.252C427.344 246.542 423.894 246.652 420.609 246.652L420.616 246.659ZM399.988 243.229C403.197 243.664 415.999 245.223 429.194 244.306C425.867 236.832 408.87 200.318 394.233 199.607L399.988 243.229Z" fill="#24AFB5"></path><path d="M327.642 150.414C324.288 152.781 320.934 155.148 317.58 157.515C330.209 186.79 345.212 196.907 356.385 200.806C375.619 207.521 387.537 197.238 401.305 206.824C416.825 217.624 408.033 235.125 425.486 252.088C441.138 267.298 462.49 267.098 466.776 267.057C471.144 267.016 495.967 266.781 502.765 252.088C505.16 246.919 504.463 241.799 503.966 238.127C503.041 231.288 499.853 226.251 488.017 211.537C479.384 200.813 478.197 199.971 475.561 196.472C469.833 188.874 463.284 176.714 460.951 157.226C464.843 149.869 472.58 132.775 470.985 110.284C468.805 79.5465 450.71 59.968 445.465 54.668C442.663 56.7245 439.854 58.7879 437.053 60.8445C440.179 66.1652 449.157 82.9971 446.431 105.46C443.774 127.323 431.67 141.008 427.812 145.245C422.526 151.049 402.092 171.635 371.306 169.827C347.849 168.447 332.369 154.893 327.642 150.4V150.414Z" fill="#24AFB5"></path><path d="M395.183 166.604C395.183 166.604 392.906 161.918 395.183 160.986C397.461 160.055 422.712 147.412 426.777 141.842C430.841 136.273 449.923 138.502 453.864 141.842C457.804 145.183 452.297 158.985 443.498 164.478C434.699 169.978 415.997 159.765 395.183 166.604Z" fill="white"></path><path d="M395.182 167.639C394.796 167.639 394.43 167.418 394.251 167.059C394.078 166.7 392.587 163.525 393.36 161.503C393.622 160.813 394.119 160.303 394.789 160.027C396.97 159.136 422.069 146.535 425.94 141.235C427.328 139.344 430.102 138.136 434.194 137.646C441.42 136.784 451.488 138.474 454.532 141.055C455.774 142.104 456.333 143.919 456.16 146.3C455.74 152.09 450.992 161.02 444.042 165.368C439.722 168.066 433.628 167.307 425.913 166.348C417.314 165.278 406.61 163.946 395.5 167.597C395.396 167.632 395.286 167.645 395.175 167.645L395.182 167.639ZM438.314 139.482C436.989 139.482 435.678 139.551 434.436 139.696C431.033 140.103 428.611 141.076 427.611 142.449C423.194 148.495 396.935 161.379 395.569 161.938C395.451 161.987 395.362 162.056 395.293 162.235C395.037 162.904 395.355 164.243 395.762 165.327C406.983 161.89 417.597 163.215 426.168 164.278C433.476 165.189 439.246 165.906 442.945 163.594C449.142 159.723 453.717 151.442 454.097 146.135C454.214 144.465 453.897 143.215 453.193 142.622C451.254 140.973 444.573 139.475 438.314 139.475V139.482Z" fill="#24AFB5"></path><path d="M297.212 536.983H197.263C196.69 536.983 196.228 536.52 196.228 535.948C196.228 535.375 196.69 534.912 197.263 534.912H296.177V466.833C296.177 466.26 296.639 465.798 297.212 465.798H379.957V416.082C379.957 415.509 380.419 415.047 380.992 415.047H543.893C544.465 415.047 544.928 415.509 544.928 416.082C544.928 416.655 544.465 417.117 543.893 417.117H382.027V466.833C382.027 467.406 381.564 467.868 380.992 467.868H298.247V535.948C298.247 536.52 297.785 536.983 297.212 536.983Z" fill="#24AFB5"></path><path d="M268.769 107.353C264.566 107.353 261.15 103.937 261.15 99.7408C261.15 95.545 264.566 92.1289 268.769 92.1289C269.341 92.1289 269.804 92.5913 269.804 93.1641C269.804 93.7369 269.341 94.1992 268.769 94.1992C265.704 94.1992 263.22 96.6836 263.22 99.7408C263.22 102.798 265.711 105.282 268.769 105.282C271.826 105.282 274.317 102.798 274.317 99.7408C274.317 99.1681 274.779 98.7057 275.352 98.7057C275.925 98.7057 276.387 99.1681 276.387 99.7408C276.387 103.937 272.971 107.353 268.769 107.353Z" fill="#24AFB5"></path><path d="M83.9553 513.023C83.7483 513.023 83.5412 512.961 83.3549 512.83C49.4083 488.793 20.7824 456.952 0.562103 420.755C0.286058 420.258 0.465487 419.623 0.962368 419.347C1.45925 419.071 2.09415 419.244 2.3702 419.748C22.4387 455.675 50.8575 487.275 84.5557 511.139C85.025 511.47 85.1354 512.119 84.8041 512.582C84.604 512.864 84.2796 513.016 83.9553 513.016V513.023Z" fill="#24AFB5"></path><path d="M49.6916 514.319C49.4569 514.319 49.2292 514.243 49.036 514.084C35.979 503.304 23.84 491.276 12.95 478.336C12.5842 477.901 12.6394 477.246 13.0742 476.88C13.509 476.514 14.1646 476.569 14.5303 477.004C25.3375 489.847 37.3869 501.786 50.3472 512.49C50.7888 512.856 50.8509 513.504 50.4852 513.946C50.2782 514.194 49.9814 514.319 49.6847 514.319H49.6916Z" fill="#24AFB5"></path><path d="M85.869 49.3418L42.7094 91.832L85.869 49.3418Z" fill="white"></path><path d="M42.7098 92.8679C42.4406 92.8679 42.1715 92.7643 41.9714 92.5573C41.5711 92.1501 41.578 91.4945 41.9852 91.0943L85.1448 48.604C85.552 48.2038 86.2076 48.2107 86.6078 48.6178C87.0081 49.025 87.0012 49.6806 86.594 50.0809L43.4344 92.5711C43.2343 92.7712 42.972 92.8679 42.7098 92.8679Z" fill="#24AFB5"></path><path d="M85.5795 26.0039L62.8679 48.3704L85.5795 26.0039Z" fill="white"></path><path d="M62.8609 49.4058C62.5917 49.4058 62.3226 49.3023 62.1225 49.0952C61.7222 48.6881 61.7291 48.0325 62.1363 47.6322L84.8479 25.2657C85.255 24.8654 85.9106 24.8723 86.3109 25.2795C86.7112 25.6866 86.7043 26.3422 86.2971 26.7425L63.5855 49.109C63.3854 49.3092 63.1231 49.4058 62.8609 49.4058Z" fill="#24AFB5"></path><path d="M489.611 482.635C489.355 482.635 489.093 482.538 488.893 482.345C488.479 481.952 488.465 481.296 488.859 480.882L492.116 477.48C492.509 477.066 493.165 477.052 493.579 477.445C493.993 477.839 494.007 478.494 493.613 478.909L490.356 482.311C490.149 482.525 489.88 482.628 489.611 482.628V482.635Z" fill="#24AFB5"></path><path d="M478.212 494.554C477.957 494.554 477.694 494.457 477.494 494.264C477.08 493.87 477.066 493.215 477.46 492.801L480.717 489.398C481.11 488.984 481.766 488.971 482.18 489.364C482.594 489.757 482.608 490.413 482.215 490.827L478.957 494.229C478.757 494.443 478.481 494.547 478.212 494.547V494.554Z" fill="#24AFB5"></path><path d="M481.406 482.823C481.144 482.823 480.881 482.726 480.681 482.526L477.376 479.269C476.968 478.869 476.962 478.213 477.362 477.806C477.762 477.399 478.418 477.392 478.825 477.792L482.131 481.049C482.538 481.45 482.545 482.105 482.144 482.512C481.944 482.719 481.675 482.823 481.406 482.823Z" fill="#24AFB5"></path><path d="M492.978 494.231C492.716 494.231 492.454 494.135 492.254 493.934L488.948 490.677C488.541 490.277 488.534 489.621 488.934 489.214C489.335 488.807 489.99 488.8 490.397 489.2L493.703 492.458C494.11 492.858 494.117 493.513 493.717 493.921C493.517 494.128 493.248 494.231 492.978 494.231Z" fill="#24AFB5"></path><path d="M518.547 460.105C517.657 460.105 516.767 459.939 515.918 459.608C514.062 458.883 512.592 457.468 511.791 455.612C510.162 451.83 511.853 447.393 515.566 445.723C517.353 444.915 519.348 444.867 521.17 445.578C523.026 446.302 524.496 447.717 525.29 449.574C526.918 453.355 525.228 457.793 521.515 459.463C520.562 459.891 519.548 460.105 518.54 460.105H518.547ZM516.415 447.607C513.73 448.814 512.509 452.037 513.696 454.791C514.276 456.13 515.331 457.158 516.67 457.682C517.975 458.193 519.396 458.152 520.68 457.579C523.364 456.371 524.586 453.148 523.399 450.395C522.819 449.056 521.763 448.028 520.424 447.503C519.12 446.993 517.699 447.034 516.415 447.607Z" fill="#24AFB5"></path><path d="M443.281 18.4896C443.019 18.4896 442.75 18.3861 442.549 18.186L439.541 15.1771C439.133 14.7699 439.14 14.1143 439.541 13.7141C439.948 13.3069 440.603 13.3069 441.004 13.7141L444.013 16.723C444.42 17.1301 444.413 17.7857 444.013 18.186C443.812 18.3861 443.543 18.4896 443.281 18.4896Z" fill="#24AFB5"></path><path d="M453.806 29.0282C453.543 29.0282 453.274 28.9247 453.074 28.7246L450.065 25.7157C449.658 25.3085 449.665 24.6529 450.065 24.2526C450.472 23.8455 451.128 23.8455 451.528 24.2526L454.537 27.2615C454.944 27.6687 454.937 28.3243 454.537 28.7246C454.337 28.9247 454.068 29.0282 453.806 29.0282Z" fill="#24AFB5"></path><path d="M440.272 29.0282C440.01 29.0282 439.741 28.9247 439.541 28.7246C439.134 28.3174 439.134 27.6618 439.541 27.2615L442.55 24.2526C442.957 23.8455 443.613 23.8455 444.013 24.2526C444.42 24.6598 444.42 25.3154 444.013 25.7157L441.004 28.7246C440.804 28.9247 440.535 29.0282 440.272 29.0282Z" fill="#24AFB5"></path><path d="M450.797 18.4896C450.535 18.4896 450.266 18.3861 450.065 18.186C449.658 17.7788 449.658 17.1232 450.065 16.723L453.074 13.7141C453.481 13.3069 454.137 13.3069 454.537 13.7141C454.944 14.1212 454.944 14.7768 454.537 15.1771L451.528 18.186C451.328 18.3861 451.059 18.4896 450.797 18.4896Z" fill="#24AFB5"></path><path d="M524.156 112.074C523.487 112.074 522.817 111.95 522.176 111.702C520.775 111.156 519.67 110.087 519.07 108.693C517.842 105.849 519.118 102.509 521.913 101.253C523.259 100.646 524.763 100.605 526.137 101.143C527.538 101.688 528.642 102.758 529.242 104.152C530.471 106.995 529.194 110.335 526.399 111.584C525.681 111.909 524.922 112.067 524.156 112.067V112.074ZM524.156 102.841C523.68 102.841 523.211 102.944 522.762 103.144C520.995 103.938 520.195 106.056 520.975 107.871C521.354 108.755 522.051 109.431 522.928 109.769C523.783 110.101 524.715 110.08 525.557 109.7C527.324 108.907 528.124 106.781 527.344 104.973C526.965 104.09 526.268 103.413 525.391 103.075C524.991 102.916 524.577 102.841 524.156 102.841Z" fill="#24AFB5"></path><path d="M121.994 520.191L125.127 542.213H131.918L132.298 520.557L121.994 520.191Z" fill="white"></path><path d="M131.92 543.249H125.129C124.611 543.249 124.177 542.869 124.108 542.359L120.968 520.337C120.926 520.034 121.016 519.73 121.223 519.502C121.43 519.275 121.727 519.157 122.03 519.157L132.334 519.523C132.9 519.544 133.341 520.013 133.334 520.579L132.955 542.235C132.948 542.8 132.486 543.249 131.92 543.249ZM126.026 541.179H130.898L131.243 521.559L123.19 521.276L126.026 541.179Z" fill="#24AFB5"></path><path d="M124.857 563.263C128.108 563.608 133.422 563.836 139.619 562.773C141.648 562.421 142.938 560.399 142.379 558.419C140.827 552.891 137.473 542.429 133.263 537.667L132.345 540.359L130.875 537.902C130.675 537.564 130.323 537.343 129.937 537.308L126.879 537.025C126.238 536.963 125.665 537.405 125.554 538.04L125.147 540.359L123.988 537.37L121.814 559.489C121.628 561.379 122.994 563.07 124.878 563.277L124.857 563.263Z" fill="white"></path><path d="M130.399 564.589C128.184 564.589 126.265 564.458 124.74 564.293C122.304 564.03 120.51 561.822 120.751 559.379L122.925 537.261C122.974 536.785 123.339 536.405 123.816 536.336C124.264 536.274 124.706 536.516 124.899 536.93C125.354 536.295 126.127 535.915 126.956 535.984L130.013 536.267C130.73 536.336 131.379 536.743 131.745 537.357L132.069 537.903L132.269 537.323C132.387 536.971 132.683 536.716 133.042 536.64C133.408 536.564 133.774 536.695 134.022 536.971C138.342 541.857 141.731 552.326 143.359 558.13C143.705 559.351 143.511 560.669 142.835 561.746C142.152 562.823 141.041 563.568 139.778 563.789C136.32 564.382 133.125 564.589 130.392 564.589H130.399ZM124.961 562.236C128.239 562.588 133.415 562.788 139.433 561.753C140.123 561.636 140.716 561.242 141.089 560.649C141.462 560.062 141.558 559.365 141.372 558.696C139.937 553.596 137.128 544.818 133.615 539.8L133.311 540.684C133.18 541.063 132.842 541.333 132.442 541.381C132.042 541.422 131.655 541.229 131.448 540.884L129.978 538.427C129.944 538.372 129.889 538.337 129.826 538.331L126.769 538.048C126.673 538.034 126.576 538.11 126.555 538.206L126.148 540.525C126.065 540.981 125.693 541.332 125.23 541.374C125.016 541.395 124.802 541.346 124.623 541.25L122.822 559.579C122.691 560.904 123.657 562.091 124.968 562.236H124.961Z" fill="#24AFB5"></path><path d="M132.573 560.831C127.867 560.831 124.251 559.948 124.03 559.892C123.478 559.754 123.14 559.188 123.278 558.636C123.416 558.084 123.975 557.739 124.534 557.884C124.616 557.905 132.511 559.83 139.895 557.884C140.448 557.739 141.013 558.07 141.158 558.623C141.303 559.175 140.972 559.741 140.42 559.885C137.722 560.596 135.003 560.831 132.573 560.831Z" fill="#24AFB5"></path><path d="M135.307 552.219H128.026C127.453 552.219 126.991 551.756 126.991 551.184C126.991 550.611 127.453 550.148 128.026 550.148H135.307C135.879 550.148 136.342 550.611 136.342 551.184C136.342 551.756 135.879 552.219 135.307 552.219Z" fill="#24AFB5"></path><path d="M64.3963 522.159L61.5737 547.824L50.7734 550.087L51.4359 519.992L64.3963 522.159Z" fill="white"></path><path d="M50.7747 551.122C50.5331 551.122 50.2985 551.039 50.1122 550.881C49.8706 550.681 49.7326 550.377 49.7395 550.059L50.3951 519.971C50.3951 519.667 50.54 519.391 50.7678 519.198C51.0024 519.004 51.2992 518.922 51.5959 518.977L64.5562 521.144C65.0945 521.233 65.4741 521.73 65.412 522.275L62.5894 547.941C62.5411 548.389 62.2098 548.748 61.7751 548.838L50.9817 551.101C50.9127 551.115 50.8368 551.122 50.7678 551.122H50.7747ZM52.4378 521.213L51.8374 548.803L60.6226 546.961L63.2588 523.014L52.4447 521.206L52.4378 521.213Z" fill="#24AFB5"></path><path d="M66.1298 561.284C66.1298 561.284 67.51 548.937 63.6454 543.299L55.012 546.377V544.534C55.012 543.941 54.5911 543.451 54.0459 543.416L49.2289 543.14C47.4346 543.037 45.6403 543.41 43.9979 544.217C38.2285 547.053 24.9508 554.362 25.3717 561.373C25.3717 561.373 35.8269 563.968 66.1298 561.29V561.284Z" fill="white"></path><path d="M41.6383 563.532C30.0237 563.532 25.4068 562.435 25.1239 562.366C24.6822 562.256 24.3648 561.876 24.3372 561.421C23.8955 554.064 36.1795 546.894 43.5361 543.271C45.3373 542.387 47.3248 541.98 49.2847 542.09L54.1017 542.366C55.1921 542.429 56.0409 543.374 56.0409 544.513V544.892L63.294 542.311C63.7357 542.153 64.2326 542.311 64.4948 542.698C68.532 548.584 67.2138 560.868 67.1586 561.386C67.1034 561.876 66.7101 562.256 66.2201 562.304C55.8201 563.222 47.7527 563.525 41.6383 563.525V563.532ZM26.4282 560.51C29.3612 561.013 40.61 562.435 65.178 560.316C65.385 557.632 65.7922 549.171 63.2043 544.54L55.3577 547.335C55.0403 547.446 54.6883 547.397 54.4123 547.204C54.1362 547.011 53.9706 546.694 53.9706 546.355V544.513C53.9706 544.458 53.9499 544.423 53.943 544.416L49.1674 544.154C47.5663 544.064 45.9308 544.395 44.4539 545.127C33.5571 550.482 26.9389 556.162 26.4282 560.503V560.51Z" fill="#24AFB5"></path><path d="M51.425 559.729C38.5199 559.729 28.6306 557.762 28.4995 557.741C27.9405 557.631 27.5748 557.079 27.6921 556.52C27.8025 555.961 28.3546 555.595 28.9136 555.712C29.0792 555.747 45.8834 559.08 64.1714 556.955C64.7373 556.892 65.2549 557.293 65.317 557.865C65.386 558.431 64.9789 558.949 64.4061 559.011C59.9203 559.529 55.5174 559.729 51.4181 559.729H51.425Z" fill="#24AFB5"></path><path d="M41.1553 553.206C40.8309 553.206 40.5135 553.054 40.3133 552.778C39.9821 552.316 40.0856 551.667 40.548 551.336L48.8638 545.359C49.3262 545.028 49.9749 545.132 50.3062 545.594C50.6374 546.056 50.5339 546.705 50.0715 547.036L41.7557 553.013C41.5693 553.144 41.3623 553.206 41.1553 553.206Z" fill="#24AFB5"></path><path d="M61.0268 355.64C61.0268 355.64 45.5407 454.084 48.8394 524.931L66.0577 525.38C66.0577 525.38 84.5251 425.465 93.7381 407.591C93.7381 407.591 118.769 498.686 119.735 524.614C119.735 524.614 130.873 525.732 135.311 524.138C137.698 499.114 138.416 477.824 138.533 461.565C138.871 415.024 134.427 393.886 131.991 383.858C129.755 374.652 127.347 367.165 125.594 362.106L119.735 345.392L61.0337 355.647L61.0268 355.64Z" fill="#26D0D8"></path><path d="M66.0518 526.416H66.0242L48.8059 525.967C48.2607 525.954 47.826 525.526 47.7984 524.981C44.5341 454.837 59.8477 356.462 59.9995 355.482C60.0686 355.047 60.4067 354.702 60.8415 354.626L119.542 344.371C120.046 344.282 120.529 344.571 120.695 345.048L126.554 361.762C129.025 368.898 131.185 376.248 132.979 383.611C135.953 395.861 139.88 417.268 139.549 461.573C139.397 482.276 138.314 503.359 136.326 524.235C136.285 524.635 136.022 524.974 135.643 525.112C131.04 526.768 120.074 525.691 119.611 525.643C119.094 525.588 118.701 525.167 118.68 524.649C117.824 501.669 97.659 426.101 93.4769 410.636C84.119 433.596 67.2319 524.608 67.0594 525.567C66.9697 526.057 66.5418 526.416 66.0449 526.416H66.0518ZM49.8204 523.925L65.1892 524.325C67.1422 513.828 83.981 424.238 92.8075 407.116C93.0007 406.737 93.4079 406.516 93.8358 406.564C94.2567 406.606 94.6156 406.909 94.726 407.316C95.7405 410.995 119.253 496.817 120.716 523.662C123.255 523.869 130.612 524.353 134.338 523.352C136.278 502.759 137.34 481.973 137.492 461.559C137.817 417.482 133.931 396.24 130.978 384.101C129.204 376.8 127.058 369.512 124.608 362.438L119.039 346.559L61.9319 356.531C60.5378 365.647 46.8943 457.26 49.8204 523.925Z" fill="#24AFB5"></path><path d="M92.8221 406.565C92.3597 406.565 91.9387 406.254 91.8214 405.792L89.3301 396.158L83.3813 394.93C82.8223 394.812 82.4635 394.267 82.5739 393.708C82.6912 393.149 83.2364 392.784 83.7954 392.901L90.3722 394.26C90.7586 394.343 91.0692 394.633 91.1658 395.013L93.8227 405.268C93.9677 405.82 93.6364 406.386 93.0774 406.531C92.9877 406.551 92.9049 406.565 92.8152 406.565H92.8221Z" fill="#24AFB5"></path><path d="M62.5389 268.327C72.6145 267.189 93.9321 265.167 108.928 266.416C113.538 266.802 117.914 268.596 121.447 271.585C132.095 280.577 155.173 303.116 155.476 329.796L131.84 326.366C131.84 326.366 140.183 356.275 139.618 361.078C139.052 365.882 124.414 374.066 106.119 367.352C87.8177 360.644 61.483 361.465 52.9532 367.352L52.132 330.451H16.1633C16.1633 330.451 28.054 291.75 51.1313 273.068C54.3956 270.425 58.3637 268.797 62.5458 268.327H62.5389Z" fill="#24AFB5"></path><path d="M16.1633 330.457C16.1633 330.457 13.3476 343.327 26.1423 347.185C38.937 351.049 51.0829 327.765 51.0829 327.765L42.1805 322.603L16.1702 330.457H16.1633Z" fill="white"></path><path d="M29.0833 348.656C28.0137 348.656 26.9371 348.504 25.8467 348.173C12.2929 344.081 15.1293 330.368 15.1569 330.23C15.2397 329.864 15.5088 329.568 15.8677 329.457L41.878 321.604C42.1541 321.521 42.4508 321.555 42.6992 321.7L51.6017 326.862C52.0779 327.138 52.2573 327.746 52.002 328.236C51.5327 329.14 41.1948 348.649 29.0833 348.649V348.656ZM17.0754 331.258C16.7165 333.729 16.1023 343.066 26.4402 346.192C36.923 349.353 47.3575 332.252 49.6832 328.146L42.0436 323.715L17.0754 331.251V331.258Z" fill="#24AFB5"></path><path d="M99.1352 359.779H36.259C34.6649 359.779 33.2777 358.695 32.8913 357.149L20.2001 305.978C19.6549 303.79 21.3112 301.678 23.5679 301.678H86.4371C88.0312 301.678 89.4184 302.762 89.8048 304.308L102.496 355.479C103.041 357.667 101.385 359.779 99.1283 359.779H99.1352Z" fill="#26D0D8"></path><path d="M99.1348 360.815H36.2586C34.1883 360.815 32.3871 359.407 31.8902 357.399L19.199 306.227C18.8609 304.874 19.1645 303.467 20.0203 302.369C20.8829 301.272 22.1734 300.644 23.5674 300.644H86.4367C88.507 300.644 90.3082 302.052 90.8051 304.06L103.496 355.232C103.834 356.585 103.531 357.992 102.675 359.09C101.819 360.187 100.522 360.815 99.1278 360.815H99.1348ZM23.5674 302.707C22.8152 302.707 22.1182 303.046 21.6489 303.639C21.1866 304.233 21.0209 304.992 21.2073 305.723L33.8984 356.895C34.1676 357.979 35.1406 358.738 36.2586 358.738H99.1278C99.8801 358.738 100.577 358.4 101.046 357.806C101.509 357.213 101.674 356.453 101.488 355.722L88.7969 304.55C88.5277 303.46 87.5547 302.701 86.4367 302.701H23.5674V302.707Z" fill="#24AFB5"></path><path d="M24.8636 327.112L26.7131 332.233L41.8334 325.035C41.8334 325.035 50.1493 332.233 29.998 341.46C21.5993 345.304 24.8705 327.119 24.8705 327.119L24.8636 327.112Z" fill="white"></path><path d="M27.895 343.019C26.8668 343.019 26.1214 342.66 25.6039 342.26C21.753 339.278 23.6232 328.188 23.851 326.932C23.9338 326.47 24.3133 326.125 24.7826 326.083C25.245 326.049 25.6867 326.325 25.8454 326.767L27.3015 330.811L41.3867 324.103C41.7594 323.923 42.2011 323.985 42.5116 324.255C42.6151 324.344 44.996 326.449 44.4991 329.9C43.8849 334.199 39.1508 338.402 30.4277 342.398C29.4409 342.846 28.6058 343.019 27.895 343.019ZM25.3692 331.549C25.1001 335.345 25.3347 339.43 26.8737 340.624C27.1014 340.797 27.7846 341.328 29.5651 340.514C39.5786 335.931 42.0975 332.053 42.4495 329.603C42.6703 328.05 42.0423 326.905 41.58 326.297L27.1566 333.164C26.8944 333.288 26.5838 333.295 26.3147 333.185C26.0455 333.074 25.8316 332.853 25.735 332.577L25.3623 331.542L25.3692 331.549Z" fill="#24AFB5"></path><path d="M113.795 301.058C113.795 301.058 142.055 316.924 147.886 321.906C153.718 326.889 160.039 330.671 151.82 341.561C143.601 352.451 108.564 308.822 108.564 308.822C108.564 308.822 101.835 309.933 99.4818 300.768C99.4818 300.768 88.1157 301.175 87.7085 297.607L103.733 294.744C105.803 294.371 107.929 295.054 109.399 296.559L113.795 301.058Z" fill="white"></path><path d="M148.184 344.342C136.487 344.342 111.456 314.025 108.095 309.891C106.267 309.946 100.967 309.339 98.703 301.831C95.1696 301.886 87.1229 301.589 86.6812 297.731C86.6191 297.186 86.9917 296.689 87.53 296.593L103.554 293.729C105.963 293.294 108.427 294.088 110.145 295.841L114.438 300.237C116.777 301.555 142.863 316.254 148.564 321.126C149.012 321.506 149.461 321.885 149.909 322.258C155.278 326.73 160.827 331.354 152.656 342.195C151.6 343.596 150.13 344.328 148.294 344.355C148.26 344.355 148.225 344.355 148.191 344.355L148.184 344.342ZM108.558 307.793C108.868 307.793 109.172 307.931 109.372 308.18C117.005 317.683 138.812 342.271 148.177 342.278C148.205 342.278 148.232 342.278 148.26 342.278C149.44 342.257 150.337 341.823 151 340.946C157.991 331.685 154.043 328.4 148.584 323.845C148.129 323.466 147.673 323.086 147.218 322.7C141.531 317.841 113.575 302.127 113.292 301.969C113.209 301.92 113.126 301.858 113.057 301.789L108.661 297.29C107.426 296.027 105.659 295.461 103.92 295.771L89.4692 298.359C91.1669 299.36 95.5284 299.885 99.4483 299.747C99.9245 299.733 100.366 300.05 100.49 300.526C102.561 308.608 108.164 307.848 108.406 307.814C108.461 307.807 108.509 307.8 108.565 307.8L108.558 307.793Z" fill="#24AFB5"></path><path d="M73.9146 249.88C73.4039 250.763 74.4597 252.481 74.4666 252.481C74.4804 252.481 73.956 247.451 71.161 246.181C69.5392 245.442 68.6973 246.671 66.275 246.339C63.7078 245.988 60.8783 244.083 59.8156 241.302C58.5319 237.941 60.3815 234.739 61.5477 232.717C62.7071 230.708 64.1771 228.466 66.7374 227.499C70.0706 226.237 71.4647 228.176 75.281 226.989C78.3865 226.023 78.1587 224.525 80.9192 223.745C83.2242 223.09 89.8561 223.462 91.3468 226.989C92.2922 229.225 90.2564 230.591 91.2709 233.904C91.8782 235.898 92.8374 236.14 93.5344 237.679C95.2666 241.495 93.0928 248.196 88.9659 250.439C83.3622 253.482 75.1292 247.789 73.9215 249.887L73.9146 249.88Z" fill="#24AFB5"></path><path d="M76.3161 252.58L75.0118 263.283C74.7634 265.319 73.2935 267.003 71.3059 267.52L65.7988 268.956L82.7618 281.875L101.823 267.41L94.9837 265.885C93.0169 265.443 91.5124 263.87 91.1536 261.889L88.3103 246.127L76.3023 252.586L76.3161 252.58Z" fill="white"></path><path d="M82.769 282.902C82.5481 282.902 82.3273 282.833 82.141 282.688L65.178 269.769C64.8606 269.527 64.7156 269.127 64.7916 268.74C64.8675 268.354 65.1642 268.043 65.5438 267.94L71.0509 266.504C72.6381 266.09 73.7906 264.772 73.9908 263.144L75.2951 252.44C75.3365 252.109 75.5366 251.812 75.8333 251.653L87.8413 245.194C88.1311 245.035 88.4831 245.028 88.7799 245.173C89.0766 245.318 89.2905 245.594 89.3458 245.925L92.189 261.687C92.472 263.261 93.6659 264.503 95.2255 264.855L102.065 266.38C102.458 266.47 102.762 266.774 102.851 267.167C102.934 267.56 102.789 267.968 102.465 268.209L83.4039 282.674C83.2176 282.812 82.9967 282.888 82.7759 282.888L82.769 282.902ZM68.1248 269.41L82.7759 280.562L99.4352 267.926L94.7769 266.884C92.4029 266.353 90.5811 264.462 90.1532 262.067L87.5653 247.706L77.2826 253.234L76.0404 263.399C75.7367 265.876 73.9838 267.878 71.5685 268.513L68.1248 269.41Z" fill="#24AFB5"></path><path d="M86.9595 248.292C86.9595 248.292 91.183 246.697 89.5958 243.205C88.0085 239.714 85.4275 242.295 85.4275 242.295C85.4275 242.295 83.0259 233.696 77.9812 237.084C72.9365 240.473 68.1609 241.708 68.1609 241.708C68.1609 241.708 69.9345 250.362 73.1297 256.117C75.0551 259.589 77.4912 262.011 80.3621 260.845C88.2294 257.65 86.9595 248.285 86.9595 248.285V248.292Z" fill="white"></path><path d="M78.9187 262.181C76.9933 262.181 74.6193 260.946 72.2246 256.626C68.9949 250.794 67.2213 242.278 67.1523 241.92C67.0419 241.381 67.3731 240.85 67.9045 240.712C67.9528 240.698 72.5835 239.477 77.4074 236.233C79.2224 235.012 80.7337 235.17 81.6792 235.522C83.9427 236.357 85.3161 239.028 85.9717 240.691C86.5169 240.436 87.1932 240.256 87.9385 240.394C89.0358 240.595 89.9122 241.402 90.5471 242.782C91.0854 243.969 91.1406 245.163 90.6989 246.233C90.1192 247.634 88.8632 248.496 88.0558 248.931C88.1662 251.374 87.8902 258.917 80.7682 261.816C80.223 262.036 79.6019 262.188 78.9325 262.188L78.9187 262.181ZM69.3883 242.43C69.9404 244.79 71.5621 251.16 74.0396 255.625C76.041 259.241 78.0423 260.677 79.9815 259.89C87.0206 257.033 85.951 248.517 85.9372 248.427C85.8751 247.951 86.1442 247.489 86.5928 247.323C87.062 247.144 88.3595 246.454 88.7804 245.432C89.0013 244.894 88.9599 244.307 88.6562 243.638C88.4285 243.134 88.0489 242.513 87.5658 242.43C87.0068 242.327 86.3029 242.886 86.1649 243.031C85.9027 243.293 85.5231 243.39 85.1711 243.3C84.8123 243.21 84.5362 242.934 84.4396 242.575C84.1015 241.381 82.8248 238.138 80.9684 237.455C80.2437 237.185 79.457 237.351 78.5737 237.945C74.7366 240.526 71.079 241.885 69.3952 242.423L69.3883 242.43Z" fill="#24AFB5"></path><path d="M192.57 497.627C192.197 498.214 177.912 518.634 177.912 518.634C177.912 518.634 178.271 523.838 181.976 524.852L198.967 506.467L192.577 497.62L192.57 497.627Z" fill="white"></path><path d="M181.97 525.886C181.88 525.886 181.784 525.872 181.694 525.851C177.332 524.658 176.891 518.95 176.87 518.709C176.856 518.474 176.918 518.24 177.056 518.046C181.011 512.387 191.349 497.598 191.694 497.074C191.88 496.784 192.197 496.611 192.536 496.598C192.874 496.598 193.205 496.749 193.405 497.026L199.796 505.873C200.085 506.273 200.051 506.818 199.72 507.184L182.729 525.569C182.529 525.782 182.253 525.9 181.97 525.9V525.886ZM178.982 518.902C179.12 519.882 179.686 522.67 181.68 523.636L197.622 506.383L192.584 499.413C189.768 503.471 180.88 516.183 178.982 518.902Z" fill="#24AFB5"></path><path d="M170.125 522.224C170.125 522.224 171.34 538.352 178.462 546.84C185.584 555.328 197.012 552.616 197.012 552.616C197.012 552.616 197.882 545.439 196.398 543.569C194.914 541.706 186.722 531.727 186.743 522.755L182.389 516.827L179.821 520.153L178.724 514.715L170.132 522.224H170.125Z" fill="white"></path><path d="M192.671 554.073C188.482 554.073 182.271 552.989 177.668 547.496C170.415 538.856 169.138 522.969 169.09 522.293C169.062 521.968 169.193 521.651 169.442 521.437L178.034 513.929C178.31 513.687 178.696 513.611 179.048 513.729C179.4 513.846 179.655 514.143 179.731 514.501L180.38 517.717L181.567 516.185C181.767 515.93 182.085 515.792 182.402 515.785C182.726 515.785 183.03 515.944 183.223 516.206L187.578 522.134C187.709 522.314 187.778 522.527 187.778 522.748C187.771 526.544 189.372 533.093 197.053 542.713L197.212 542.913C198.882 545.011 198.199 551.457 198.047 552.727C197.992 553.155 197.681 553.507 197.26 553.61C197.074 553.652 195.259 554.066 192.685 554.066L192.671 554.073ZM171.202 522.652C171.484 525.433 173.127 538.869 179.255 546.171C184.9 552.899 193.547 552.126 196.066 551.733C196.322 549 196.342 545.156 195.59 544.211L195.431 544.018C187.599 534.204 185.791 527.275 185.708 523.1L182.368 518.546L180.635 520.788C180.387 521.106 179.973 521.258 179.58 521.161C179.186 521.071 178.882 520.754 178.8 520.361L178.054 516.675L171.202 522.659V522.652Z" fill="#24AFB5"></path><path d="M172.997 522.836C172.997 522.836 174.847 549.626 194.729 549.053L172.997 522.836Z" fill="white"></path><path d="M194.1 550.097C174.073 550.097 171.989 523.182 171.968 522.906C171.927 522.333 172.361 521.843 172.927 521.802C173.5 521.761 173.99 522.195 174.031 522.761C174.107 523.803 176.005 548.019 194.1 548.019C194.3 548.019 194.5 548.019 194.7 548.013C195.266 547.992 195.749 548.447 195.763 549.02C195.777 549.593 195.328 550.069 194.755 550.083C194.535 550.083 194.314 550.09 194.093 550.09L194.1 550.097Z" fill="#24AFB5"></path><path d="M224.55 355.044C224.55 355.044 241.361 404.505 241.444 437.071C241.526 469.645 195.448 512.832 195.448 512.832L185.931 504.578C185.931 504.578 202.887 486.607 206.13 462.295C209.374 437.975 199.519 392.069 199.519 392.069L195.841 359.641L224.55 355.044Z" fill="#24AFB5"></path><path d="M199.769 515.151C199.686 516.027 200.59 528.263 204.385 535.951C204.385 535.951 202.633 541.589 197.263 540.581C197.263 540.581 189.017 524.881 187.284 514.716L199.762 515.151H199.769Z" fill="white"></path><path d="M198.514 541.733C198.058 541.733 197.575 541.692 197.078 541.595C196.768 541.54 196.499 541.34 196.354 541.057C196.015 540.408 188.01 525.095 186.271 514.888C186.216 514.584 186.306 514.267 186.513 514.032C186.72 513.797 187.016 513.666 187.327 513.68L199.804 514.115C200.087 514.122 200.356 514.253 200.543 514.467C200.729 514.681 200.819 514.957 200.798 515.24C200.757 516.033 201.571 527.917 205.311 535.495C205.429 535.729 205.449 536.005 205.373 536.261C204.745 538.29 202.551 541.733 198.514 541.74V541.733ZM197.941 539.628C201.336 539.987 202.834 537.061 203.262 536.005C200.101 529.311 198.955 519.512 198.762 516.151L188.548 515.792C190.432 524.674 196.643 537.089 197.941 539.628Z" fill="#24AFB5"></path><path d="M194.271 534.705C194.271 534.705 192.905 550.764 194.92 555.312C194.92 555.312 210.199 563.172 227.942 563.152C229.205 563.152 230.233 562.13 230.219 560.874C230.191 557.838 229.391 552.289 224.539 547.9C217.486 541.516 202.338 531.034 202.338 531.034L199.281 534.733L200.565 540.585L194.264 534.712L194.271 534.705Z" fill="white"></path><path d="M227.865 564.181C210.108 564.181 195.078 556.556 194.443 556.231C194.236 556.121 194.063 555.948 193.967 555.728C191.862 550.993 193.173 535.279 193.235 534.617C193.27 534.224 193.525 533.879 193.898 533.741C194.27 533.596 194.684 533.678 194.974 533.948L198.846 537.557L198.273 534.948C198.204 534.638 198.287 534.313 198.487 534.065L201.544 530.366C201.889 529.952 202.489 529.869 202.931 530.173C203.083 530.276 218.21 540.766 225.236 547.122C230.411 551.801 231.226 557.736 231.253 560.855C231.26 561.738 230.922 562.567 230.301 563.195C229.673 563.829 228.831 564.181 227.941 564.181H227.865ZM195.733 554.554C198.073 555.686 212.068 562.111 227.865 562.111C228.224 562.111 228.576 561.994 228.831 561.738C229.059 561.504 229.19 561.2 229.183 560.876C229.162 558.095 228.431 552.815 223.848 548.661C217.838 543.216 205.719 534.651 202.538 532.422L200.412 534.997L201.585 540.352C201.682 540.793 201.482 541.249 201.088 541.47C200.695 541.698 200.198 541.635 199.867 541.325L195.147 536.922C194.815 542.098 194.532 551.18 195.733 554.547V554.554Z" fill="#24AFB5"></path><path d="M196.105 550.567C196.105 550.567 210.639 559.745 228.023 558.696L196.105 550.567Z" fill="white"></path><path d="M225.195 559.815C209.011 559.815 196.127 551.803 195.554 551.444C195.071 551.141 194.926 550.499 195.23 550.016C195.534 549.533 196.175 549.388 196.658 549.691C196.803 549.781 211.123 558.677 227.962 557.662C228.528 557.621 229.025 558.062 229.059 558.635C229.094 559.208 228.659 559.698 228.086 559.733C227.113 559.795 226.147 559.822 225.195 559.822V559.815Z" fill="#24AFB5"></path><path d="M172.972 355.045C172.972 355.045 162.323 426.423 187.291 520.789L202.35 518.629C202.35 518.629 194.227 436.14 213.688 392.532L218.022 353.112L172.972 355.045Z" fill="#24AFB5"></path><path d="M177.799 245.518C175.784 249.569 178.648 250.997 177.247 258.865C176.219 264.641 174.142 266.849 175.522 269.727C176.764 272.315 179.752 273.247 181.726 273.868C190.691 276.663 199.331 272.115 204.638 269.327C208.93 267.07 214.817 263.972 214.417 260.831C214.023 257.733 207.957 258.161 205.107 252.971C202.809 248.789 205.452 246.167 203.037 242.633C199.911 238.058 192.623 238.251 191.457 238.279C186.764 238.403 180.284 240.535 177.799 245.518Z" fill="#24AFB5"></path><path d="M227.898 269.452L204.316 275.352C203.889 275.449 203.454 275.207 203.309 274.793C201.708 270.273 204.206 265.221 204.924 263.91C205.034 263.703 205.234 263.558 205.462 263.496C206.628 263.179 207.684 262.765 208.636 262.261C209.803 261.64 210.286 260.204 209.754 258.996C208.892 257.043 207.953 254.414 207.422 253.338C207.291 253.075 207.298 252.758 207.463 252.516C207.864 251.923 208.492 251.467 208.416 250.57C208.388 250.232 208.153 249.935 207.829 249.839C204.868 248.962 202.577 244.518 200.597 243.165C199.658 242.524 199.016 242.351 197.96 241.771C197.781 241.675 197.574 241.633 197.374 241.675C192.343 242.765 200.051 249.011 193.461 252.675C193.13 252.855 192.936 253.227 193.012 253.6C193.123 254.145 193.102 254.877 193.033 255.553V255.574C192.964 256.25 192.163 256.581 191.632 256.153C190.631 255.339 189.61 255.104 189.01 255.456C188.154 255.953 188.209 257.602 188.513 258.596C189.113 260.563 191.17 261.474 192.343 261.84C192.791 261.978 193.04 262.447 192.909 262.903C192.129 265.608 189.769 274.075 189.589 277.926C189.569 278.32 189.3 278.651 188.913 278.741L184.414 279.727C177.637 281.211 169.597 285.31 164.414 289.92L157.727 295.531C157.209 295.993 154.863 297.381 155.346 297.877C169.362 312.128 196.87 303.212 207.056 298.699C216.932 294.316 226.78 273.868 230.416 277.954C232.811 280.638 228.574 269.321 227.904 269.466L227.898 269.452Z" fill="white"></path><path d="M176.899 306.643C168.742 306.643 160.564 304.655 154.602 298.596C154.339 298.327 154.208 297.975 154.243 297.596C154.319 296.754 155.133 296.119 156.465 295.173C156.713 295.001 156.92 294.856 157.031 294.752L163.746 289.121C169.025 284.421 177.251 280.232 184.187 278.714L188.562 277.755C188.783 273.904 190.902 266.14 191.868 262.779C190.481 262.317 188.231 261.234 187.52 258.901C187.127 257.617 187.058 255.402 188.486 254.567C189.438 254.008 190.77 254.236 192.026 255.154C192.082 254.436 192.04 254.029 191.992 253.808C191.826 253.014 192.22 252.179 192.951 251.772C195.85 250.164 195.394 248.184 194.863 245.899C194.538 244.485 194.228 243.139 194.939 242.021C195.373 241.338 196.098 240.889 197.147 240.661C197.575 240.565 198.037 240.641 198.451 240.861C198.838 241.075 199.169 241.227 199.48 241.372C200.025 241.627 200.535 241.869 201.177 242.311C202.054 242.911 202.909 243.946 203.82 245.044C205.118 246.617 206.595 248.397 208.12 248.846C208.851 249.06 209.383 249.722 209.445 250.489C209.535 251.579 208.962 252.29 208.582 252.752C208.52 252.828 208.458 252.904 208.396 252.98C208.686 253.587 209.051 254.519 209.472 255.588C209.859 256.561 210.294 257.666 210.694 258.584C211.446 260.295 210.756 262.31 209.114 263.18C208.099 263.718 206.981 264.153 205.787 264.477C205.201 265.554 202.882 270.253 204.228 274.311L227.636 268.452H227.664C228.609 268.238 229.161 268.949 230.362 271.896C232.978 278.328 232.094 278.88 231.563 279.211C231.149 279.473 230.473 279.577 229.624 278.631C229.465 278.452 229.355 278.438 229.258 278.445C227.76 278.479 224.482 282.544 221.598 286.133C217.347 291.412 212.523 297.395 207.464 299.638C205.118 300.68 191.04 306.643 176.892 306.643H176.899ZM156.596 297.658C172.103 312.426 203.11 299.307 206.629 297.747C211.232 295.705 216.091 289.68 219.99 284.835C224.31 279.473 226.87 276.437 229.217 276.382C229.41 276.382 229.596 276.395 229.776 276.43C229.23 274.567 228.126 271.716 227.526 270.626L204.566 276.375C203.6 276.589 202.654 276.057 202.33 275.153C200.598 270.267 203.179 264.939 204.014 263.421C204.262 262.973 204.69 262.641 205.187 262.503C206.25 262.214 207.243 261.834 208.147 261.358C208.831 260.999 209.114 260.15 208.796 259.425C208.375 258.473 207.933 257.348 207.54 256.354C207.126 255.312 206.74 254.326 206.484 253.801C206.187 253.201 206.229 252.49 206.595 251.952C206.712 251.779 206.843 251.62 206.967 251.455C207.243 251.117 207.347 250.965 207.368 250.792C205.311 250.116 203.669 248.128 202.212 246.369C201.398 245.389 200.632 244.464 199.997 244.022C199.493 243.677 199.093 243.491 198.582 243.249C198.251 243.091 197.899 242.932 197.492 242.704C197.175 242.78 196.809 242.911 196.671 243.125C196.422 243.518 196.65 244.491 196.864 245.43C197.395 247.714 198.189 251.165 194.028 253.532C194.124 254.091 194.124 254.781 194.042 255.651C193.972 256.368 193.524 256.962 192.882 257.231C192.233 257.5 191.502 257.397 190.957 256.955C190.191 256.327 189.625 256.292 189.514 256.348C189.342 256.479 189.211 257.39 189.487 258.287C189.949 259.798 191.654 260.537 192.634 260.847C193.627 261.158 194.173 262.179 193.89 263.18C193.165 265.699 190.784 274.215 190.612 277.962C190.57 278.825 189.956 279.556 189.121 279.735L184.621 280.722C178.003 282.172 170.15 286.174 165.091 290.674L158.377 296.305C158.225 296.436 157.976 296.616 157.652 296.843C157.403 297.023 156.927 297.361 156.589 297.644L156.596 297.658Z" fill="#24AFB5"></path><path d="M198.093 263.745C198.093 263.745 201.24 265.022 204.85 263.662L198.093 263.745Z" fill="white"></path><path d="M201.365 265.326C199.267 265.326 197.798 264.746 197.701 264.705C197.17 264.491 196.914 263.883 197.128 263.359C197.342 262.828 197.942 262.572 198.474 262.786C198.508 262.8 201.317 263.883 204.478 262.696C205.009 262.496 205.61 262.765 205.81 263.304C206.01 263.842 205.741 264.436 205.202 264.636C203.815 265.16 202.49 265.326 201.358 265.326H201.365Z" fill="#24AFB5"></path><path d="M181.272 243.425C181.272 243.425 179.753 234.233 172.466 236.717C165.178 239.201 172.245 246.765 177.752 247.345C183.259 247.924 181.272 243.418 181.272 243.418V243.425Z" fill="#24AFB5"></path><path d="M320.545 208.656L329.551 199.933C330.179 199.326 331.145 199.257 331.849 199.768C332.65 200.341 332.836 201.459 332.27 202.266L329.413 206.31L331.711 211.99C332.422 213.743 331.96 215.744 330.559 217.014L326.86 220.368C325.01 222.045 322.319 222.417 320.083 221.306L318.578 220.554C316.259 219.401 314.934 216.903 315.266 214.336L315.659 211.306C315.907 209.409 317.702 208.111 319.579 208.47L320.531 208.65L320.545 208.656Z" fill="white"></path><path d="M322.808 222.984C321.732 222.984 320.648 222.735 319.627 222.232L318.123 221.479C315.41 220.127 313.851 217.201 314.244 214.199L314.637 211.169C314.796 209.982 315.438 208.899 316.404 208.202C317.37 207.498 318.606 207.229 319.779 207.456L320.207 207.539L328.826 199.196C329.813 198.243 331.338 198.133 332.449 198.934C333.705 199.838 334.002 201.604 333.112 202.867L330.586 206.449L332.67 211.611C333.54 213.75 332.967 216.235 331.255 217.787L327.556 221.141C326.211 222.356 324.52 222.991 322.801 222.991L322.808 222.984ZM318.964 209.451C318.488 209.451 318.026 209.603 317.633 209.886C317.115 210.258 316.784 210.81 316.701 211.445L316.308 214.475C316.031 216.6 317.129 218.678 319.054 219.63L320.559 220.382C322.429 221.314 324.63 221.01 326.183 219.609L329.882 216.255C330.952 215.282 331.311 213.73 330.765 212.391L328.467 206.711C328.336 206.387 328.378 206.014 328.578 205.724L331.435 201.68C331.676 201.342 331.594 200.866 331.255 200.617C330.952 200.403 330.545 200.431 330.282 200.686L321.276 209.409C321.035 209.644 320.697 209.748 320.365 209.685L319.413 209.506C319.268 209.478 319.123 209.465 318.978 209.465L318.964 209.451Z" fill="#24AFB5"></path><path d="M320.541 208.656L323.909 211.148C323.909 211.148 322.791 214.398 320.541 213.066V208.656Z" fill="white"></path><path d="M321.591 214.427C321.135 214.427 320.597 214.309 320.011 213.964C319.521 213.674 319.355 213.039 319.645 212.543C319.935 212.053 320.57 211.887 321.066 212.177C321.487 212.425 321.701 212.349 321.784 212.315C322.102 212.197 322.391 211.832 322.605 211.473L319.921 209.485C319.459 209.147 319.362 208.498 319.707 208.036C320.045 207.574 320.694 207.477 321.156 207.822L324.524 210.313C324.89 210.583 325.035 211.052 324.89 211.48C324.814 211.701 324.096 213.667 322.502 214.254C322.26 214.344 321.95 214.42 321.591 214.42V214.427Z" fill="#24AFB5"></path><path d="M330.027 207.844L326.238 212.543L330.027 207.844Z" fill="white"></path><path d="M326.239 213.579C326.011 213.579 325.783 213.503 325.59 213.351C325.141 212.992 325.072 212.344 325.431 211.895L329.227 207.195C329.586 206.747 330.234 206.678 330.683 207.037C331.125 207.395 331.2 208.044 330.842 208.493L327.046 213.192C326.839 213.448 326.542 213.579 326.239 213.579Z" fill="#24AFB5"></path><path d="M331.187 211.536L328.13 215.249L331.187 211.536Z" fill="white"></path><path d="M328.129 216.276C327.894 216.276 327.667 216.2 327.474 216.041C327.032 215.675 326.97 215.027 327.329 214.585L330.386 210.872C330.752 210.431 331.4 210.369 331.842 210.727C332.284 211.093 332.346 211.742 331.987 212.184L328.93 215.896C328.723 216.145 328.426 216.276 328.129 216.276Z" fill="#24AFB5"></path><path d="M169.268 375.022C169.268 375.022 177.301 368.997 181.911 367.99C186.528 366.982 191.068 370.067 191.068 370.067C191.068 370.067 186.113 372.821 183.705 373.138C181.296 373.456 175.044 384.987 167.563 381.295L169.261 375.022H169.268Z" fill="white"></path><path d="M170.613 383.068C169.488 383.068 168.322 382.813 167.114 382.213C166.672 381.992 166.445 381.495 166.576 381.012L168.273 374.739C168.335 374.518 168.467 374.318 168.653 374.18C168.991 373.931 176.92 368.003 181.696 366.961C186.692 365.871 191.454 369.059 191.654 369.197C191.951 369.397 192.124 369.742 192.11 370.101C192.096 370.46 191.896 370.784 191.578 370.957C191.054 371.247 186.375 373.821 183.849 374.152C183.428 374.256 182.179 375.553 181.275 376.499C178.66 379.224 174.974 383.061 170.62 383.061L170.613 383.068ZM168.805 380.681C173.028 382.095 176.9 378.065 179.771 375.07C181.399 373.372 182.476 372.247 183.573 372.103C184.857 371.937 187.169 370.895 188.873 370.039C187.265 369.294 184.684 368.431 182.131 368.99C178.259 369.839 171.62 374.573 170.171 375.636L168.805 380.681Z" fill="#24AFB5"></path><path d="M176.365 281.05L180.264 279.553C180.264 279.553 203.845 294.646 214.08 271.789L219.483 270.236L230.408 301.195L175.489 315.825L176.365 281.05Z" fill="#26D0D8"></path><path d="M320.956 224.791C317.147 223.59 313.331 222.396 309.521 221.195C293.469 239.884 277.755 249.483 265.837 254.824C251.158 261.408 225.9 268.854 225.9 268.854C225.9 268.854 225.942 280.828 206.17 294.492C186.398 308.156 156.116 294.582 156.116 294.582C156.116 294.582 122.57 323.228 120.624 340.44C117.394 369.031 167.172 382.758 167.172 382.758L169.263 375.021C169.263 375.021 149.229 358.721 153.577 342.186C157.924 325.651 169.111 318.336 169.111 318.336C172.444 337.424 171.016 359.646 171.016 359.646C203.906 368.017 232.284 357.237 244.816 351.068C249.081 348.97 251.469 344.332 250.731 339.632C247.97 321.952 241.041 299.633 241.041 299.633C248.646 299.24 256.838 297.777 265.154 294.547C305.795 278.764 318.831 232.748 320.949 224.798L320.956 224.791Z" fill="#26D0D8"></path><path d="M208.328 350.736C207.921 350.736 207.535 350.494 207.369 350.094C207.155 349.563 207.404 348.962 207.935 348.742C231.965 338.887 235.491 311.71 235.526 311.434C235.595 310.868 236.112 310.461 236.678 310.53C237.244 310.599 237.651 311.117 237.582 311.683C237.548 311.966 233.87 340.35 208.722 350.653C208.591 350.708 208.46 350.729 208.328 350.729V350.736Z" fill="#26D0D8"></path><path d="M204.239 436.419C203.673 436.419 203.204 435.957 203.204 435.391C203.142 424.57 206.144 403.687 210.809 396.869C211.133 396.399 211.775 396.275 212.245 396.6C212.714 396.924 212.838 397.566 212.514 398.035C208.221 404.308 205.212 424.694 205.274 435.377C205.274 435.95 204.819 436.412 204.246 436.419H204.239Z" fill="white"></path><path d="M201.277 498.654C200.732 498.654 200.276 498.226 200.242 497.674C199.676 487.578 201.298 471.008 201.312 470.836C201.367 470.27 201.871 469.856 202.443 469.904C203.009 469.959 203.43 470.47 203.375 471.036C203.361 471.202 201.753 487.619 202.312 497.55C202.347 498.123 201.905 498.613 201.339 498.641C201.318 498.641 201.298 498.641 201.277 498.641V498.654Z" fill="white"></path></svg> 