<?xml version="1.0" encoding="UTF-8"?> <svg xmlns="http://www.w3.org/2000/svg" width="478" height="485" viewBox="0 0 478 485" fill="none"><path d="M226.057 34.0566L218.518 35.7208L218.483 44.1543C216.807 44.8532 215.207 45.6764 213.703 46.6299L206.792 41.8209L201.094 47.0326L205.282 54.3527C204.192 55.78 203.226 57.2961 202.391 58.8833L193.988 58.1727L191.66 65.5342L198.939 69.7746C198.714 71.5395 198.637 73.334 198.708 75.1462L191.074 78.7352L192.738 86.2744L201.171 86.31C201.87 87.986 202.693 89.5851 203.647 91.0894L198.838 98.0008L204.05 103.698L211.37 99.511C212.797 100.601 214.313 101.566 215.9 102.401L215.19 110.805L222.551 113.133L226.792 105.854C228.557 106.079 230.351 106.156 232.169 106.085L235.758 113.719L243.297 112.055L243.333 103.621C245.009 102.922 246.608 102.099 248.112 101.146L255.024 105.955L260.721 100.743L256.534 93.4228C257.624 91.9955 258.589 90.4793 259.424 88.8921L267.828 89.6028L270.156 82.2413L262.877 78.0009C263.102 76.236 263.179 74.4415 263.108 72.6292L270.742 69.0403L269.078 61.501L260.644 61.4655C259.945 59.7895 259.122 58.1904 258.169 56.6861L262.978 49.7747L257.766 44.0773L250.446 48.2645C249.018 47.1748 247.502 46.2094 245.915 45.3743L246.626 36.9705L239.264 34.643L235.024 41.9216C233.259 41.6965 231.465 41.6195 229.652 41.6906L226.063 34.0566H226.057ZM250.316 69.597C252.684 80.3165 245.915 90.9235 235.202 93.2925C224.482 95.6615 213.875 88.8921 211.506 78.1785C209.137 67.459 215.906 56.852 226.62 54.483C237.34 52.114 247.947 58.8833 250.316 69.597Z" fill="#26D0D8"></path><path d="M292.359 17.521L287.686 18.2909L287.378 23.4552C286.33 23.8284 285.323 24.2785 284.369 24.8115L280.295 21.6311L276.629 24.6338L278.945 29.2592C278.228 30.0943 277.588 30.9945 277.02 31.9361L271.897 31.2195L270.227 35.6495L274.544 38.4922C274.349 39.5642 274.242 40.6657 274.224 41.7791L269.427 43.7217L270.197 48.3945L275.361 48.7024C275.735 49.7507 276.185 50.7575 276.718 51.711L273.537 55.7856L276.54 59.4516L281.165 57.1359C282 57.8525 282.901 58.4922 283.842 59.0607L283.126 64.1836L287.556 65.8537L290.398 61.5363C291.47 61.7317 292.572 61.8383 293.685 61.8561L295.628 66.6532L300.301 65.8833L300.609 60.719C301.657 60.3459 302.664 59.8958 303.617 59.3628L307.692 62.5431L311.358 59.5404L309.042 54.915C309.759 54.08 310.398 53.1798 310.967 52.2381L316.09 52.9547L317.76 48.5248L313.442 45.682C313.638 44.6101 313.745 43.5144 313.762 42.3951L318.559 40.4525L317.79 35.7798L312.625 35.4718C312.252 34.4235 311.802 33.4167 311.269 32.4632L314.449 28.3886L311.447 24.7226L306.821 27.0383C305.986 26.3217 305.086 25.6821 304.144 25.1135L304.861 19.9906L300.431 18.3205L297.588 22.6379C296.516 22.4425 295.415 22.3359 294.301 22.3181L292.359 17.521ZM306.022 40.115C307.111 46.7599 302.61 53.0317 295.965 54.1214C289.321 55.2112 283.049 50.7101 281.959 44.0652C280.869 37.4203 285.37 31.1484 292.015 30.0587C298.66 28.969 304.932 33.47 306.022 40.115Z" fill="#26D0D8"></path><path d="M452.695 91.5757H443.859L412.405 462.111H420.406C429.089 462.111 436.74 455.075 437.498 446.393L467.045 107.294C467.803 98.6115 461.378 91.5757 452.695 91.5757Z" fill="#26D0D8"></path><path d="M445.76 91.5757H57.6293C48.9471 91.5757 41.2953 98.6115 40.5372 107.294L10.9904 446.393C10.2324 455.075 16.6582 462.111 25.3404 462.111H413.471C422.153 462.111 429.805 455.075 430.563 446.393L460.11 107.294C460.868 98.6115 454.442 91.5757 445.76 91.5757Z" fill="white"></path><path d="M29.1244 237.656C29.1244 237.656 29.0711 237.656 29.0474 237.656C28.5558 237.615 28.1946 237.182 28.242 236.697L36.2964 144.277C36.3379 143.786 36.7643 143.431 37.2558 143.472C37.7474 143.513 38.1087 143.946 38.0613 144.431L30.0068 236.851C29.9654 237.312 29.5804 237.662 29.1244 237.662V237.656Z" fill="#24AFB5"></path><path d="M401.235 92.4628H136.546C136.054 92.4628 135.657 92.066 135.657 91.5744C135.657 91.0828 136.054 90.686 136.546 90.686H401.235C401.727 90.686 402.124 91.0828 402.124 91.5744C402.124 92.066 401.727 92.4628 401.235 92.4628Z" fill="#24AFB5"></path><path d="M24.6173 462.997C20.1755 462.997 16.1483 461.268 13.27 458.129C10.374 454.972 8.994 450.773 9.38488 446.314L16.8886 360.161C16.93 359.669 17.3565 359.314 17.848 359.355C18.3396 359.397 18.7008 359.829 18.6535 360.315L11.1497 446.468C10.8062 450.43 12.0204 454.143 14.5729 456.927C17.1136 459.698 20.6789 461.22 24.6114 461.22C25.103 461.22 25.4998 461.617 25.4998 462.109C25.4998 462.6 25.103 462.997 24.6114 462.997H24.6173Z" fill="#24AFB5"></path><path d="M175.975 462.939H144.859C144.368 462.939 143.971 462.542 143.971 462.05C143.971 461.559 144.368 461.162 144.859 461.162H175.975C176.467 461.162 176.864 461.559 176.864 462.05C176.864 462.542 176.467 462.939 175.975 462.939Z" fill="#24AFB5"></path><path d="M356.415 462.939H308.331C307.84 462.939 307.443 462.542 307.443 462.05C307.443 461.559 307.84 461.162 308.331 461.162H356.415C356.907 461.162 357.304 461.559 357.304 462.05C357.304 462.542 356.907 462.939 356.415 462.939Z" fill="#24AFB5"></path><path d="M118.796 437.051C118.796 437.051 118.743 437.051 118.719 437.051C118.227 437.01 117.866 436.577 117.908 436.092L145.18 118.651C145.222 118.159 145.654 117.798 146.14 117.84C146.631 117.881 146.992 118.313 146.951 118.799L119.678 436.24C119.637 436.702 119.252 437.051 118.796 437.051Z" fill="#26D0D8"></path><path d="M230.266 327.491C230.266 327.491 230.213 327.491 230.183 327.491C229.698 327.443 229.336 327.011 229.384 326.525L248.827 118.637C248.874 118.146 249.301 117.784 249.792 117.838C250.284 117.885 250.639 118.317 250.592 118.803L231.149 326.691C231.107 327.153 230.716 327.497 230.266 327.497V327.491Z" fill="#26D0D8"></path><path d="M324.948 406.164C324.918 406.164 324.888 406.164 324.859 406.164C324.373 406.116 324.018 405.678 324.065 405.193L353.061 118.637C353.109 118.152 353.547 117.79 354.033 117.844C354.518 117.891 354.874 118.329 354.826 118.815L325.83 405.37C325.783 405.826 325.398 406.17 324.948 406.17V406.164Z" fill="#26D0D8"></path><path d="M434.195 167.875H56.9377C56.4461 167.875 56.0493 167.479 56.0493 166.987C56.0493 166.495 56.4461 166.099 56.9377 166.099H434.195C434.686 166.099 435.083 166.495 435.083 166.987C435.083 167.479 434.686 167.875 434.195 167.875Z" fill="#26D0D8"></path><path d="M233.695 134.936C234.127 130.281 230.787 126.419 226.239 126.419H167.554C163.005 126.419 158.984 130.281 158.575 134.936L157.888 142.89C157.485 147.533 160.844 151.294 165.386 151.294H223.964C228.507 151.294 232.534 147.533 232.966 142.89L233.701 134.936H233.695Z" fill="#26D0D8"></path><path d="M338.989 134.936C339.457 130.281 336.146 126.419 331.592 126.419H272.907C268.358 126.419 264.307 130.281 263.863 134.936L263.111 142.89C262.673 147.533 266.001 151.294 270.544 151.294H329.122C333.665 151.294 337.721 147.533 338.189 142.89L338.983 134.936H338.989Z" fill="#26D0D8"></path><path d="M130.176 134.936C130.573 130.281 127.209 126.419 122.654 126.419H63.9633C59.4149 126.419 55.4172 130.322 55.0441 134.977L54.4105 143.008C54.0433 147.651 57.4428 151.294 61.9852 151.294H120.564C125.106 151.294 129.104 147.533 129.495 142.89L130.164 134.936H130.176Z" fill="#26D0D8"></path><path d="M442.499 134.936C443.003 130.281 439.722 126.419 435.168 126.419H376.477C371.928 126.419 367.848 130.281 367.374 134.936L366.562 142.89C366.089 147.533 369.387 151.294 373.93 151.294H432.508C437.051 151.294 441.137 147.533 441.641 142.89L442.499 134.936Z" fill="#26D0D8"></path><path d="M119.329 189.193H56.8186C53.9285 189.193 51.3936 191.674 51.1627 194.612L48.9062 223.015C48.6752 225.941 50.8192 228.28 53.7034 228.28H116.031C118.915 228.28 121.45 225.994 121.698 223.063L124.109 194.57C124.358 191.627 122.22 189.193 119.329 189.193Z" fill="#E1F9FA"></path><path d="M71.3345 229.335H53.4252C51.7965 229.335 50.3159 228.695 49.238 227.534C48.1365 226.344 47.6094 224.763 47.7397 223.075L49.9961 194.635C50.2626 191.248 53.2001 188.488 56.5344 188.488H69.2143C69.7059 188.488 70.1027 188.885 70.1027 189.376C70.1027 189.868 69.7059 190.265 69.2143 190.265H56.5344C54.1003 190.265 51.9624 192.29 51.7669 194.771L49.5105 223.211C49.4157 224.395 49.7829 225.503 50.5409 226.32C51.2753 227.114 52.2999 227.552 53.4192 227.552H71.3286C71.8202 227.552 72.217 227.949 72.217 228.44C72.217 228.932 71.8202 229.329 71.3286 229.329L71.3345 229.335Z" fill="#26D0D8"></path><path d="M115.753 229.335H93.7096C93.2181 229.335 92.8213 228.938 92.8213 228.446C92.8213 227.955 93.2181 227.558 93.7096 227.558H115.753C118.181 227.558 120.325 225.544 120.532 223.069L122.943 194.629C123.043 193.433 122.682 192.326 121.924 191.496C121.196 190.703 120.171 190.265 119.046 190.265H105.045C104.554 190.265 104.157 189.868 104.157 189.376C104.157 188.885 104.554 188.488 105.045 188.488H119.046C120.674 188.488 122.161 189.127 123.233 190.294C124.334 191.49 124.856 193.084 124.713 194.777L122.303 223.217C122.019 226.587 119.075 229.329 115.753 229.329V229.335Z" fill="#26D0D8"></path><path d="M118.714 200.94C118.607 202.214 117.512 203.404 116.262 203.404H71.3465C70.0969 203.404 69.167 202.214 69.2677 200.94L69.2796 200.857C69.3803 199.584 70.47 198.666 71.7196 198.666H116.653C117.902 198.666 118.832 199.59 118.726 200.857L118.714 200.94Z" fill="white"></path><path d="M117.598 214.041C117.492 215.309 116.396 216.434 115.147 216.434H70.2726C69.0229 216.434 68.0931 215.314 68.1997 214.041V214.219C68.3123 212.951 69.3961 212.288 70.6457 212.288H115.537C116.787 212.288 117.717 212.951 117.61 214.219L117.598 214.041Z" fill="white"></path><path d="M64.9199 200.65C64.7303 203.114 62.8648 205.175 60.4484 205.175H60.3773C57.961 205.175 56.2968 203.108 56.4864 200.65V200.567C56.6818 198.104 58.648 196.297 61.0644 196.297H61.1354C63.5577 196.297 65.1094 198.104 64.9199 200.567V200.65Z" fill="white"></path><path d="M222.292 189.194H159.781C156.891 189.194 154.338 191.676 154.084 194.613L151.608 223.017C151.353 225.943 153.485 228.282 156.364 228.282H218.691C221.575 228.282 224.128 225.996 224.4 223.065L227.03 194.572C227.302 191.628 225.182 189.194 222.292 189.194Z" fill="#E1F9FA"></path><path d="M218.411 229.336H173.993C173.502 229.336 173.105 228.939 173.105 228.448C173.105 227.956 173.502 227.56 173.993 227.56H218.411C220.84 227.56 223.007 225.546 223.232 223.064L225.862 194.625C225.974 193.429 225.619 192.321 224.867 191.498C224.144 190.704 223.126 190.272 222.006 190.272H208.006C207.514 190.272 207.117 189.875 207.117 189.384C207.117 188.892 207.514 188.495 208.006 188.495H222.006C223.635 188.495 225.115 189.135 226.182 190.302C227.271 191.498 227.786 193.091 227.632 194.791L225.009 223.23C224.695 226.6 221.74 229.336 218.417 229.336H218.411Z" fill="#26D0D8"></path><path d="M151.991 216.425C151.991 216.425 151.937 216.425 151.914 216.425C151.422 216.384 151.061 215.952 151.108 215.466L152.92 194.637C153.217 191.249 156.166 188.495 159.5 188.495H172.18C172.672 188.495 173.068 188.892 173.068 189.384C173.068 189.875 172.672 190.272 172.18 190.272H159.5C157.066 190.272 154.904 192.298 154.691 194.791L152.879 215.62C152.838 216.082 152.453 216.431 151.997 216.431L151.991 216.425Z" fill="#26D0D8"></path><path d="M221.141 200.942C221.022 202.215 219.921 203.406 218.671 203.406H173.756C172.506 203.406 171.582 202.215 171.695 200.942L171.707 200.859C171.819 199.586 172.921 198.668 174.17 198.668H219.104C220.353 198.668 221.271 199.592 221.159 200.859L221.147 200.942H221.141Z" fill="white"></path><path d="M219.929 214.043C219.81 215.31 218.709 216.436 217.459 216.436H172.585C171.335 216.436 170.417 215.316 170.53 214.043L170.542 214.221C170.654 212.953 171.75 212.29 172.999 212.29H217.891C219.141 212.29 220.059 212.953 219.94 214.221L219.929 214.043Z" fill="white"></path><path d="M167.608 200.575C167.389 203.039 165.263 205.183 162.841 205.183H162.77C160.353 205.183 158.559 203.039 158.772 200.575V200.635C158.985 198.171 161.117 196.299 163.534 196.299H163.605C166.027 196.299 167.816 198.171 167.602 200.635V200.575H167.608Z" fill="white"></path><path d="M217.218 244.272H154.962C152.083 244.272 149.543 246.736 149.288 249.656L146.836 277.983C146.581 280.885 148.708 283.36 151.574 283.36H213.653C216.525 283.36 219.066 280.938 219.332 278.036L221.938 249.691C222.21 246.771 220.09 244.272 217.212 244.272H217.218Z" fill="#E1F9FA"></path><path d="M189.354 284.114H155.087C154.595 284.114 154.198 283.717 154.198 283.225C154.198 282.734 154.595 282.337 155.087 282.337H189.354C189.845 282.337 190.242 282.734 190.242 283.225C190.242 283.717 189.845 284.114 189.354 284.114Z" fill="#26D0D8"></path><path d="M155.086 284.115H151.296C149.673 284.115 148.193 283.475 147.127 282.315C146.043 281.13 145.528 279.561 145.67 277.891L146.694 266.081C146.736 265.59 147.174 265.229 147.654 265.276C148.145 265.317 148.507 265.75 148.459 266.235L147.435 278.045C147.334 279.211 147.683 280.307 148.43 281.112C149.152 281.9 150.171 282.338 151.29 282.338H155.08C155.572 282.338 155.969 282.735 155.969 283.227C155.969 283.718 155.572 284.115 155.08 284.115H155.086Z" fill="#26D0D8"></path><path d="M149.012 250.646C149.012 250.646 148.958 250.646 148.935 250.646C148.443 250.605 148.082 250.172 148.129 249.687C148.419 246.323 151.363 243.593 154.685 243.593H184.718C185.209 243.593 185.606 243.989 185.606 244.481C185.606 244.972 185.209 245.369 184.718 245.369H154.685C152.263 245.369 150.113 247.377 149.9 249.841C149.859 250.303 149.474 250.652 149.018 250.652L149.012 250.646Z" fill="#26D0D8"></path><path d="M220.233 266.092C220.233 266.092 220.179 266.092 220.15 266.092C219.664 266.044 219.303 265.612 219.344 265.126L220.772 249.681C220.878 248.502 220.529 247.407 219.789 246.589C219.066 245.802 218.053 245.363 216.934 245.363H200.997C200.505 245.363 200.108 244.967 200.108 244.475C200.108 243.983 200.505 243.587 200.997 243.587H216.934C218.563 243.587 220.043 244.226 221.103 245.393C222.187 246.583 222.696 248.165 222.542 249.841L221.115 265.286C221.074 265.748 220.683 266.092 220.233 266.092Z" fill="#26D0D8"></path><path d="M216.092 255.347C215.974 256.609 214.878 257.302 213.64 257.302H168.909C167.665 257.302 166.741 256.609 166.854 255.347L166.871 255.004C166.984 253.742 168.085 252.564 169.329 252.564H214.079C215.322 252.564 216.235 253.742 216.116 255.004L216.098 255.347H216.092Z" fill="white"></path><path d="M214.881 268.693C214.762 269.949 213.661 270.926 212.417 270.926H167.721C166.477 270.926 165.565 269.955 165.677 268.693L165.689 268.486C165.802 267.23 166.891 266.188 168.135 266.188H212.843C214.087 266.188 215.005 267.23 214.887 268.486L214.875 268.693H214.881Z" fill="white"></path><path d="M162.762 255.283C162.549 257.723 160.411 259.666 158.001 259.666H157.93C155.519 259.666 153.749 257.723 153.962 255.283L153.974 255.212C154.187 252.772 156.325 250.788 158.735 250.788H158.806C161.217 250.788 162.987 252.772 162.774 255.212L162.762 255.283Z" fill="white"></path><path d="M114.762 244.272H52.5061C49.6278 244.272 47.087 246.736 46.8324 249.656L44.3806 277.983C44.1259 280.885 46.252 283.36 49.1185 283.36H111.197C114.069 283.36 116.61 280.938 116.877 278.036L119.482 249.691C119.755 246.771 117.635 244.272 114.756 244.272H114.762Z" fill="#E1F9FA"></path><path d="M86.898 284.114H52.631C52.1395 284.114 51.7427 283.717 51.7427 283.225C51.7427 282.734 52.1395 282.337 52.631 282.337H86.898C87.3896 282.337 87.7864 282.734 87.7864 283.225C87.7864 283.717 87.3896 284.114 86.898 284.114Z" fill="#26D0D8"></path><path d="M52.6307 284.115H48.8404C47.2176 284.115 45.7371 283.475 44.671 282.315C43.5872 281.13 43.0719 279.561 43.2141 277.891L44.2386 266.081C44.2801 265.59 44.7184 265.229 45.1981 265.276C45.6896 265.317 46.051 265.75 46.0036 266.235L44.9789 278.045C44.8783 279.211 45.2277 280.307 45.9739 281.112C46.6965 281.9 47.7151 282.338 48.8344 282.338H52.6248C53.1163 282.338 53.5131 282.735 53.5131 283.227C53.5131 283.718 53.1163 284.115 52.6248 284.115H52.6307Z" fill="#26D0D8"></path><path d="M117.779 266.092C117.779 266.092 117.726 266.092 117.696 266.092C117.21 266.044 116.849 265.612 116.89 265.126L118.318 249.681C118.424 248.502 118.075 247.407 117.335 246.589C116.612 245.802 115.599 245.363 114.48 245.363H52.2238C49.8016 245.363 47.6517 247.371 47.4385 249.835C47.397 250.326 46.9528 250.682 46.479 250.64C45.9875 250.599 45.6262 250.166 45.6736 249.681C45.9638 246.317 48.9073 243.587 52.2297 243.587H114.486C116.115 243.587 117.595 244.226 118.655 245.393C119.739 246.583 120.248 248.165 120.095 249.841L118.667 265.286C118.626 265.748 118.235 266.092 117.785 266.092H117.779Z" fill="#26D0D8"></path><path d="M113.637 255.347C113.518 256.609 112.423 257.302 111.185 257.302H66.453C65.2093 257.302 64.2854 256.609 64.398 255.347L64.4157 255.004C64.5283 253.742 65.6298 252.564 66.8735 252.564H111.623C112.867 252.564 113.779 253.742 113.661 255.004L113.643 255.347H113.637Z" fill="white"></path><path d="M112.425 268.693C112.307 269.949 111.205 270.926 109.961 270.926H65.265C64.0213 270.926 63.1093 269.955 63.2218 268.693L63.2336 268.486C63.3462 267.23 64.4359 266.188 65.6796 266.188H110.388C111.632 266.188 112.549 267.23 112.431 268.486L112.419 268.693H112.425Z" fill="white"></path><path d="M60.3068 255.283C60.0936 257.723 57.9557 259.666 55.5453 259.666H55.4742C53.0638 259.666 51.293 257.723 51.5062 255.283L51.518 255.212C51.7312 252.772 53.8692 250.788 56.2797 250.788H56.3507C58.7611 250.788 60.5319 252.772 60.3187 255.212L60.3068 255.283Z" fill="white"></path><path d="M327.506 189.193H264.995C262.105 189.193 259.534 191.674 259.256 194.612L256.561 223.015C256.283 225.941 258.397 228.28 261.276 228.28H323.603C326.487 228.28 329.057 225.994 329.353 223.063L332.202 194.57C332.498 191.627 330.39 189.193 327.506 189.193Z" fill="#E1F9FA"></path><path d="M278.906 229.335H260.997C259.368 229.335 257.894 228.695 256.834 227.528C255.75 226.338 255.24 224.751 255.4 223.057L258.095 194.617C258.415 191.236 261.388 188.488 264.716 188.488H277.396C277.888 188.488 278.285 188.885 278.285 189.376C278.285 189.868 277.888 190.265 277.396 190.265H264.716C262.276 190.265 260.103 192.296 259.866 194.789L257.171 223.229C257.059 224.413 257.408 225.515 258.154 226.332C258.871 227.12 259.884 227.558 261.003 227.558H278.912C279.404 227.558 279.801 227.955 279.801 228.446C279.801 228.938 279.404 229.335 278.912 229.335H278.906Z" fill="#26D0D8"></path><path d="M323.325 229.335H301.282C300.79 229.335 300.394 228.938 300.394 228.446C300.394 227.955 300.79 227.558 301.282 227.558H323.325C325.759 227.558 327.939 225.538 328.187 223.057L331.036 194.617C331.154 193.427 330.811 192.314 330.065 191.49C329.348 190.703 328.341 190.265 327.216 190.265H313.216C312.724 190.265 312.327 189.868 312.327 189.376C312.327 188.885 312.724 188.488 313.216 188.488H327.216C328.845 188.488 330.325 189.127 331.38 190.294C332.463 191.496 332.967 193.09 332.801 194.789L329.952 223.229C329.615 226.593 326.642 229.329 323.319 229.329L323.325 229.335Z" fill="#26D0D8"></path><path d="M326.511 200.94C326.387 202.214 325.273 203.404 324.024 203.404H279.108C277.859 203.404 276.947 202.214 277.065 200.94L277.083 200.857C277.207 199.584 278.315 198.666 279.564 198.666H324.498C325.747 198.666 326.659 199.59 326.529 200.857L326.511 200.94Z" fill="white"></path><path d="M325.196 214.041C325.071 215.309 323.958 216.434 322.708 216.434H277.834C276.585 216.434 275.673 215.314 275.797 214.041L275.815 214.219C275.939 212.951 277.047 212.288 278.29 212.288H323.182C324.432 212.288 325.338 212.951 325.213 214.219L325.196 214.041Z" fill="white"></path><path d="M272.979 200.573C272.742 203.037 270.592 205.181 268.176 205.181H268.105C265.688 205.181 263.912 203.037 264.149 200.573V200.633C264.386 198.169 266.529 196.297 268.952 196.297H269.023C271.445 196.297 273.216 198.169 272.985 200.633V200.573H272.979Z" fill="white"></path><path d="M430.46 189.194H367.949C365.059 189.194 362.471 191.676 362.169 194.613L359.255 223.017C358.953 225.943 361.05 228.282 363.928 228.282H426.255C429.139 228.282 431.727 225.996 432.041 223.065L435.109 194.572C435.429 191.628 433.338 189.194 430.448 189.194H430.46Z" fill="#E1F9FA"></path><path d="M359.855 215.531C359.825 215.531 359.796 215.531 359.766 215.531C359.28 215.484 358.925 215.045 358.972 214.56L361.016 194.625C361.359 191.249 364.35 188.501 367.678 188.501H380.358C380.85 188.501 381.247 188.898 381.247 189.39C381.247 189.881 380.85 190.278 380.358 190.278H367.678C365.238 190.278 363.041 192.309 362.786 194.809L360.743 214.743C360.696 215.199 360.311 215.543 359.861 215.543L359.855 215.531Z" fill="#26D0D8"></path><path d="M425.984 229.336H403.941C403.45 229.336 403.053 228.939 403.053 228.448C403.053 227.956 403.45 227.56 403.941 227.56H425.984C428.418 227.56 430.622 225.534 430.888 223.053L433.95 194.613C434.08 193.423 433.743 192.309 433.008 191.492C432.303 190.704 431.297 190.272 430.177 190.272H416.177C415.685 190.272 415.288 189.875 415.288 189.384C415.288 188.892 415.685 188.495 416.177 188.495H430.177C431.806 188.495 433.281 189.141 434.329 190.308C435.407 191.51 435.898 193.109 435.715 194.809L432.653 223.248C432.292 226.606 429.295 229.342 425.978 229.342L425.984 229.336Z" fill="#26D0D8"></path><path d="M429.524 200.942C429.388 202.215 428.263 203.406 427.019 203.406H382.104C380.854 203.406 379.948 202.215 380.078 200.942L380.096 200.859C380.226 199.586 381.346 198.668 382.595 198.668H427.529C428.778 198.668 429.678 199.592 429.542 200.859L429.524 200.942Z" fill="white"></path><path d="M428.111 214.043C427.975 215.31 426.856 216.436 425.606 216.436H380.732C379.483 216.436 378.582 215.316 378.713 214.043L378.731 214.221C378.861 212.953 379.98 212.29 381.23 212.29H426.122C427.371 212.29 428.271 212.953 428.135 214.221L428.117 214.043H428.111Z" fill="white"></path><path d="M375.994 200.575C375.739 203.039 373.571 205.183 371.155 205.183H371.084C368.667 205.183 366.909 203.039 367.163 200.575V200.635C367.424 198.171 369.585 196.299 372.008 196.299H372.079C374.501 196.299 376.254 198.171 375.999 200.635V200.575H375.994Z" fill="white"></path><path d="M322.009 244.272H259.753C256.874 244.272 254.316 246.736 254.037 249.655L251.367 277.982C251.094 280.884 253.197 283.36 256.063 283.36H318.142C321.014 283.36 323.572 280.938 323.863 278.036L326.688 249.691C326.978 246.771 324.881 244.272 322.003 244.272H322.009Z" fill="#E1F9FA"></path><path d="M293.85 284.114H259.583C259.092 284.114 258.695 283.717 258.695 283.225C258.695 282.734 259.092 282.337 259.583 282.337H293.85C294.342 282.337 294.739 282.734 294.739 283.225C294.739 283.717 294.342 284.114 293.85 284.114Z" fill="#26D0D8"></path><path d="M259.576 284.113H255.786C254.163 284.113 252.682 283.473 251.628 282.312C250.55 281.128 250.047 279.553 250.207 277.882L251.326 266.073C251.374 265.588 251.812 265.226 252.291 265.274C252.777 265.321 253.138 265.753 253.091 266.239L251.972 278.048C251.859 279.215 252.203 280.305 252.943 281.116C253.66 281.904 254.666 282.336 255.786 282.336H259.576C260.068 282.336 260.464 282.733 260.464 283.225C260.464 283.716 260.068 284.113 259.576 284.113Z" fill="#26D0D8"></path><path d="M253.76 250.646C253.76 250.646 253.701 250.646 253.677 250.646C253.192 250.598 252.83 250.166 252.878 249.681C253.198 246.323 256.153 243.592 259.475 243.592H283.177C283.668 243.592 284.065 243.989 284.065 244.481C284.065 244.972 283.668 245.369 283.177 245.369H259.475C257.047 245.369 254.879 247.377 254.649 249.846C254.607 250.308 254.216 250.652 253.766 250.652L253.76 250.646Z" fill="#26D0D8"></path><path d="M324.863 266.091C324.863 266.091 324.804 266.091 324.774 266.091C324.289 266.044 323.927 265.606 323.981 265.12L325.526 249.675C325.645 248.496 325.301 247.4 324.567 246.589C323.856 245.801 322.844 245.369 321.73 245.369H316.737C316.246 245.369 315.849 244.972 315.849 244.481C315.849 243.989 316.246 243.592 316.737 243.592H321.73C323.359 243.592 324.833 244.232 325.888 245.399C326.966 246.589 327.469 248.17 327.297 249.858L325.751 265.304C325.704 265.76 325.319 266.103 324.869 266.103L324.863 266.091Z" fill="#26D0D8"></path><path d="M321.033 255.347C320.909 256.608 319.802 257.301 318.558 257.301H273.826C272.582 257.301 271.67 256.608 271.789 255.347L271.806 255.004C271.925 253.742 273.038 252.563 274.282 252.563H319.032C320.275 252.563 321.181 253.742 321.057 255.004L321.039 255.347H321.033Z" fill="white"></path><path d="M319.722 268.693C319.598 269.948 318.484 270.926 317.241 270.926H272.544C271.3 270.926 270.394 269.954 270.519 268.693L270.537 268.486C270.655 267.23 271.762 266.188 273.006 266.188H317.714C318.958 266.188 319.864 267.23 319.74 268.486L319.722 268.693Z" fill="white"></path><path d="M267.707 255.283C267.47 257.723 265.326 259.666 262.916 259.666H262.844C260.434 259.666 258.675 257.723 258.906 255.283L258.918 255.212C259.149 252.772 261.299 250.788 263.709 250.788H263.78C266.191 250.788 267.95 252.772 267.713 255.212L267.701 255.283H267.707Z" fill="white"></path><path d="M409.248 246.927C423.261 250.871 441.306 266.039 441.306 293.566C441.306 313.394 412.097 330.19 412.097 330.19L407.282 318.363C407.282 318.363 423.379 306.441 422.609 292.524C421.993 281.366 403.995 277.895 403.995 277.895L409.248 246.921V246.927Z" fill="#26D0D8"></path><path d="M403.338 461.306H393.264V473.133H403.338V461.306Z" fill="#26D0D8"></path><path d="M373.806 459.46L364.001 461.774L366.718 473.285L376.523 470.971L373.806 459.46Z" fill="#26D0D8"></path><path d="M411.659 314.591C411.659 314.591 414.668 338.376 412.358 347.609C410.048 356.842 404.653 442.166 404.653 465.251H391.079L384.949 356.202L366.004 395.77C364.63 398.98 364.28 402.539 365.003 405.956L376.19 465.257L363.487 466.134L342.255 401.023C341.307 397.795 341.236 394.372 342.053 391.103L359.276 322.219L411.665 314.597L411.659 314.591Z" fill="#24AFB5"></path><path d="M385.6 354.68C385.404 354.68 385.209 354.615 385.043 354.485C384.658 354.177 384.599 353.62 384.907 353.235L391.913 344.476C392.221 344.091 392.778 344.032 393.163 344.339C393.548 344.647 393.607 345.204 393.299 345.589L386.293 354.348C386.115 354.567 385.86 354.68 385.6 354.68Z" fill="white"></path><path d="M403.99 470.503H392.163L390.41 479.428C390.072 481.152 391.316 482.763 392.98 482.763H403.172C404.837 482.763 406.08 481.146 405.743 479.428L403.99 470.503Z" fill="white"></path><path d="M403.174 483.656H392.982C391.957 483.656 390.98 483.188 390.316 482.376C389.606 481.512 389.321 480.375 389.541 479.255L391.294 470.33C391.377 469.916 391.738 469.614 392.164 469.614H403.991C404.418 469.614 404.779 469.916 404.862 470.33L406.615 479.255C406.834 480.375 406.55 481.512 405.839 482.376C405.17 483.188 404.199 483.656 403.174 483.656ZM392.899 471.39L391.288 479.599C391.169 480.191 391.317 480.795 391.69 481.245C392.022 481.654 392.484 481.873 392.987 481.873H403.18C403.683 481.873 404.139 481.648 404.477 481.245C404.85 480.789 404.998 480.191 404.88 479.599L403.269 471.39H392.905H392.899Z" fill="#24AFB5"></path><path d="M403.991 480.81H391.726C391.234 480.81 390.837 480.413 390.837 479.921C390.837 479.43 391.234 479.033 391.726 479.033H403.991C404.483 479.033 404.879 479.43 404.879 479.921C404.879 480.413 404.483 480.81 403.991 480.81Z" fill="#24AFB5"></path><path d="M376.842 467.874L380.082 478.624C380.644 480.495 379.507 482.473 377.831 482.526L355.587 483.279C354.213 483.326 353.662 481.194 354.823 480.317C358.441 477.599 363.256 473.82 364.583 472.026C367.65 467.874 370.712 471.505 370.712 471.505C370.712 471.505 372.904 467.868 376.842 467.868V467.874Z" fill="white"></path><path d="M355.537 484.171C354.607 484.171 353.796 483.561 353.458 482.602C353.061 481.483 353.393 480.28 354.281 479.611C359.487 475.702 362.887 472.824 363.858 471.503C364.977 469.987 366.251 469.2 367.648 469.152C368.88 469.117 369.911 469.679 370.574 470.189C371.563 468.992 373.683 466.985 376.84 466.985C377.231 466.985 377.58 467.239 377.693 467.618L380.932 478.367C381.311 479.623 381.098 480.991 380.358 482.022C379.748 482.874 378.836 483.384 377.859 483.419L355.614 484.171C355.614 484.171 355.567 484.171 355.543 484.171H355.537ZM367.773 470.929C367.773 470.929 367.725 470.929 367.696 470.929C366.872 470.959 366.061 471.509 365.291 472.558C364.19 474.056 360.844 476.905 355.353 481.033C355.045 481.264 355.028 481.702 355.134 482.01C355.176 482.128 355.324 482.418 355.549 482.395L377.793 481.643C378.368 481.625 378.735 481.222 378.907 480.985C379.321 480.411 379.44 479.605 379.221 478.883L376.183 468.809C373.204 469.176 371.474 471.948 371.456 471.977C371.308 472.22 371.048 472.38 370.764 472.404C370.479 472.427 370.201 472.309 370.017 472.09C370.011 472.084 369.01 470.935 367.761 470.935L367.773 470.929Z" fill="#24AFB5"></path><path d="M358.007 479.92L378.155 479.044L358.007 479.92Z" fill="white"></path><path d="M358.007 480.809C357.533 480.809 357.142 480.436 357.118 479.962C357.095 479.47 357.48 479.056 357.965 479.038L378.113 478.161C378.628 478.132 379.019 478.523 379.037 479.008C379.061 479.5 378.676 479.915 378.19 479.932L358.042 480.809C358.042 480.809 358.013 480.809 358.001 480.809H358.007Z" fill="#24AFB5"></path><path d="M388.668 240.8L399.618 248.244L369.467 246.799L378.155 241.232L379.328 235.843C377.788 235.612 375.662 235.458 374.987 234.617C373.797 233.13 374.336 227.99 374.336 227.99L373.027 226.965C372.89 226.894 372.784 226.77 372.742 226.622C372.701 226.474 372.725 226.314 372.808 226.177C373.915 224.407 374.963 223.838 375.455 222.038C375.94 220.261 375.727 220.533 377.634 216.702L389.1 216.684L389.165 225.277C389.165 225.277 390.924 224.14 392.038 225.68C392.849 226.799 391.054 230.53 389.598 230.53L388.662 240.788L388.668 240.8Z" fill="white"></path><path d="M399.618 249.131C399.618 249.131 399.588 249.131 399.576 249.131L369.425 247.686C369.041 247.668 368.709 247.402 368.608 247.028C368.507 246.655 368.661 246.259 368.987 246.051L377.367 240.686L378.256 236.599C376.663 236.386 375.058 236.125 374.294 235.184C373.109 233.703 373.281 229.925 373.405 228.403L372.535 227.716C372.221 227.526 371.99 227.224 371.889 226.869C371.783 226.484 371.842 226.063 372.055 225.72C372.493 225.021 372.926 224.494 373.299 224.038C373.903 223.303 374.335 222.77 374.596 221.817C374.661 221.58 374.714 221.384 374.756 221.207C375.081 219.951 375.194 219.614 376.84 216.321C376.988 216.019 377.296 215.829 377.634 215.829L389.1 215.812C389.585 215.812 389.982 216.202 389.988 216.694L390.041 224.044C390.959 223.907 392.002 224.138 392.754 225.175C393.636 226.395 392.718 228.432 392.416 229.024C392.12 229.599 391.421 230.783 390.426 231.245L389.591 240.366L400.109 247.514C400.435 247.739 400.577 248.154 400.453 248.533C400.329 248.894 399.991 249.137 399.612 249.137L399.618 249.131ZM372.292 246.045L396.509 247.206L388.164 241.533C387.897 241.349 387.749 241.041 387.779 240.715L388.715 230.458C388.756 230.002 389.141 229.652 389.597 229.652C389.721 229.646 390.219 229.326 390.746 228.379C391.326 227.331 391.421 226.407 391.315 226.205C390.716 225.376 389.751 225.968 389.645 226.034C389.372 226.211 389.023 226.223 388.738 226.069C388.454 225.915 388.276 225.619 388.271 225.293L388.211 217.582L378.179 217.594C376.805 220.354 376.74 220.615 376.473 221.639C376.426 221.823 376.372 222.03 376.307 222.273C375.946 223.594 375.33 224.352 374.673 225.151C374.365 225.524 374.051 225.909 373.725 226.389L374.88 227.295C375.123 227.485 375.247 227.781 375.218 228.089C375.01 230.073 375.016 233.241 375.679 234.064C376.035 234.503 377.723 234.728 378.73 234.864C378.978 234.899 379.227 234.929 379.458 234.965C379.701 235 379.92 235.136 380.056 235.338C380.198 235.539 380.246 235.788 380.192 236.031L379.026 241.42C378.978 241.651 378.836 241.852 378.635 241.983L372.292 246.045Z" fill="#24AFB5"></path><path d="M390.164 234.376C387.854 235.146 385.574 233.339 385.165 233.014C383.56 231.74 382.245 229.472 382.891 228.471C383.246 227.92 383.88 228.222 384.709 227.565C385.929 226.594 386.279 224.491 385.615 223.929C385.076 223.467 384.23 224.355 383.341 223.929C382.263 223.413 382.814 221.755 381.979 220.292C380.611 217.906 377.431 219.345 374.985 216.804C373.386 215.146 372.693 212.386 373.605 210.822C373.871 210.366 374.28 209.964 374.86 209.644C378.71 207.524 379.284 210.426 383.033 210.455C390.75 210.52 394.529 212.066 395.926 215.264C396.874 217.432 395.719 220.891 395.156 222.567C394.967 223.123 394.576 224.177 394.25 225.747C393.889 227.464 394.001 227.903 393.794 228.927C393.652 229.644 392.882 233.47 390.158 234.382L390.164 234.376Z" fill="#24AFB5"></path><path d="M358.008 245.172C358.008 245.172 384.286 237.728 409.249 246.925C411.168 257.994 412.489 267.553 413.413 275.122C415.029 288.447 414.023 284.189 416.042 303.644C417.298 315.732 417.629 316.839 416.48 318.971C410.688 329.709 387.348 329.128 378.376 326.854C377.736 326.694 375.106 326.001 370.795 324.911C365.862 323.668 361.811 322.685 359.104 322.039C357.641 321.376 355.663 320.203 354.289 318.095C351.204 313.38 353.265 307.28 354.289 303.206C356.919 292.741 353.466 292.516 354.289 273.422C354.579 266.748 355.42 257.053 358.014 245.172H358.008Z" fill="#26D0D8"></path><path d="M299.428 236.012L296.396 222.894L287.939 215.391C287.939 215.391 283.13 215.468 291.007 223.712C291.007 223.712 287.246 231.079 289.674 233.999C290.379 234.852 294.436 240.117 294.436 240.117L299.428 236.006V236.012Z" fill="white"></path><path d="M294.434 241.01C294.399 241.01 294.369 241.01 294.333 241.01C294.097 240.98 293.877 240.862 293.729 240.666C293.688 240.613 289.678 235.401 288.991 234.572C286.599 231.694 289.027 225.825 289.939 223.876C286.403 220.092 285.077 217.539 285.776 215.875C286.22 214.815 287.333 214.513 287.925 214.507C288.15 214.501 288.364 214.584 288.53 214.732L296.987 222.236C297.123 222.36 297.224 222.52 297.265 222.698L300.297 235.816C300.374 236.142 300.256 236.485 299.995 236.704L295.003 240.814C294.843 240.945 294.641 241.016 294.44 241.016L294.434 241.01ZM287.671 216.343C287.564 216.385 287.452 216.45 287.41 216.562C287.351 216.716 286.954 218.185 291.645 223.101C291.905 223.373 291.965 223.782 291.793 224.119C290.887 225.896 288.678 231.422 290.354 233.435C290.91 234.104 293.433 237.368 294.576 238.854L298.438 235.68L295.595 223.379L287.677 216.349L287.671 216.343Z" fill="#24AFB5"></path><path d="M291.44 239.482L300.637 233.352C300.637 233.352 310.273 254.815 325.162 257C340.051 259.192 347.057 244.735 366.329 243.426L366.767 270.142C366.767 270.142 347.934 286.784 331.292 285.908C314.65 285.031 297.131 256.124 291.44 239.482Z" fill="#26D0D8"></path><path d="M406.075 327.164C405.643 327.164 405.264 326.844 405.199 326.406C405.128 325.921 405.465 325.47 405.951 325.399C406.425 325.328 417.594 323.552 416.12 312.968C416.049 312.483 416.392 312.032 416.878 311.967C417.363 311.896 417.814 312.24 417.879 312.725C419.602 325.068 406.342 327.141 406.212 327.158C406.17 327.164 406.123 327.17 406.081 327.17L406.075 327.164Z" fill="white"></path><path d="M375.64 316.942C375.415 316.942 375.19 316.859 375.018 316.688C364.542 306.365 362.386 290.742 362.297 290.078C362.232 289.593 362.575 289.149 363.061 289.083C363.547 289.018 363.997 289.362 364.056 289.847C364.074 290.001 366.229 305.536 376.262 315.42C376.611 315.764 376.617 316.326 376.274 316.676C376.102 316.854 375.871 316.942 375.64 316.942Z" fill="white"></path><path d="M177.621 454.782C159.279 437.879 168.773 426.976 168.773 426.976C168.773 426.976 176.963 413.704 205.717 431.057C234.464 448.409 262.293 441.96 268.589 439.354C274.884 436.754 296.874 420.402 309.264 419.484C316.157 418.975 324.413 424.157 317.17 438.17C302.198 467.148 261.535 470.453 261.535 470.453C261.535 470.453 241.825 474.154 221.577 470.571C221.577 470.571 195.956 471.684 177.621 454.782Z" fill="#26D0D8"></path><path d="M240.493 473.016C234.648 473.016 228.098 472.625 221.512 471.464C219.706 471.511 194.826 471.855 177.017 455.438C158.995 438.826 167.28 427.431 168.05 426.46C168.731 425.406 177.603 413.051 206.173 430.297C238.598 449.865 267.961 438.654 268.246 438.536C270.081 437.777 273.487 435.693 277.431 433.276C287.096 427.36 300.333 419.258 309.193 418.601C312.521 418.358 316.928 419.371 319.303 422.966C321.026 425.571 322.187 430.392 317.958 438.577C310.093 453.798 295.175 461.899 284.046 466.015C272.45 470.303 262.43 471.269 261.654 471.34C260.937 471.47 252.113 473.016 240.493 473.016ZM221.577 469.687C221.63 469.687 221.684 469.687 221.731 469.699C241.577 473.217 261.174 469.622 261.37 469.587C261.399 469.587 261.429 469.575 261.458 469.575C261.861 469.539 301.808 465.962 316.377 437.766C319.415 431.891 319.913 427.111 317.822 423.949C315.868 420.993 312.154 420.164 309.323 420.377C300.89 420.999 287.866 428.977 278.361 434.799C274.186 437.351 270.893 439.371 268.927 440.182C265.604 441.556 256.94 443.801 245.557 443.581C231.266 443.291 217.704 439.335 205.261 431.82C190.775 423.078 181.796 422.391 176.816 423.35C171.539 424.369 169.608 427.324 169.531 427.449C169.507 427.484 169.478 427.526 169.448 427.561C169.087 427.982 160.801 438.074 178.225 454.135C196.087 470.599 221.287 469.699 221.541 469.687C221.553 469.687 221.565 469.687 221.583 469.687H221.577Z" fill="#24AFB5"></path><path d="M225.395 457.252L236.914 464.016L228.468 468.618L223.091 465.177L225.395 457.252Z" fill="white"></path><path d="M228.468 469.505C228.302 469.505 228.136 469.458 227.988 469.363L222.611 465.922C222.279 465.709 222.125 465.306 222.238 464.927L224.542 457.003C224.619 456.742 224.814 456.529 225.069 456.423C225.323 456.322 225.608 456.34 225.844 456.482L237.364 463.251C237.642 463.411 237.808 463.713 237.802 464.033C237.802 464.353 237.618 464.643 237.34 464.797L228.894 469.399C228.764 469.47 228.616 469.505 228.468 469.505ZM224.133 464.785L228.509 467.586L235.113 463.986L225.933 458.59L224.133 464.779V464.785Z" fill="#24AFB5"></path><path d="M228.504 465.571L230.227 463.83C230.849 463.202 231.815 463.083 232.567 463.539L233.793 464.28L234.438 463.332C234.722 462.716 235.457 462.331 236.067 462.627C243.369 466.133 252.661 468.816 257.026 472.05C262.191 475.876 258.525 484.38 249.522 483.516C242.386 482.829 232.638 474.875 228.901 471.6C228.166 470.954 228.35 469.77 229.244 469.379H229.256L228.303 468.005C227.781 467.253 227.864 466.234 228.51 465.577L228.504 465.571Z" fill="white"></path><path d="M250.82 484.465C250.376 484.465 249.914 484.441 249.434 484.394C242.067 483.683 232.206 475.676 228.309 472.265C227.735 471.761 227.462 471.009 227.575 470.257C227.634 469.86 227.8 469.493 228.043 469.197L227.563 468.51C226.793 467.408 226.923 465.91 227.871 464.951L229.594 463.209C230.507 462.285 231.922 462.114 233.029 462.783L233.533 463.085L233.669 462.89C233.936 462.368 234.392 461.96 234.936 461.764C235.446 461.581 235.985 461.604 236.453 461.829C239.289 463.192 242.44 464.435 245.49 465.632C250.281 467.521 254.806 469.298 257.554 471.335C260.018 473.159 260.9 476.174 259.811 479.01C258.81 481.622 255.878 484.465 250.82 484.465ZM231.584 464.151C231.318 464.151 231.057 464.252 230.862 464.453L229.138 466.194C228.795 466.544 228.747 467.089 229.026 467.485L229.979 468.853C230.133 469.078 230.181 469.357 230.098 469.617C230.021 469.878 229.825 470.085 229.571 470.186C229.393 470.263 229.346 470.441 229.334 470.518C229.322 470.606 229.322 470.778 229.482 470.914C233.249 474.213 242.754 481.954 249.606 482.617C254.528 483.097 257.288 480.621 258.152 478.365C258.964 476.256 258.33 474.107 256.5 472.75C253.941 470.855 249.523 469.114 244.845 467.272C241.765 466.058 238.579 464.808 235.689 463.417C235.677 463.411 235.629 463.387 235.54 463.417C235.422 463.458 235.31 463.565 235.25 463.689C235.233 463.731 235.209 463.778 235.179 463.813L234.534 464.761C234.267 465.152 233.74 465.27 233.337 465.022L232.111 464.281C231.946 464.181 231.762 464.133 231.584 464.133V464.151Z" fill="#24AFB5"></path><path d="M248.49 481.44C247.531 481.44 246.494 481.297 245.375 480.978C244.901 480.841 244.629 480.35 244.765 479.876C244.901 479.402 245.393 479.13 245.867 479.266C249.935 480.433 252.671 478.763 253.773 476.974C254.602 475.63 254.596 474.179 253.755 473.267C253.424 472.905 253.447 472.343 253.809 472.011C254.17 471.679 254.732 471.703 255.064 472.064C256.456 473.575 256.545 475.872 255.283 477.91C254.17 479.71 251.836 481.434 248.49 481.434V481.44Z" fill="#24AFB5"></path><path d="M244.098 477.405C243.926 477.405 243.749 477.352 243.595 477.245C243.192 476.967 243.091 476.41 243.37 476.008L247.622 469.866C247.9 469.463 248.457 469.363 248.86 469.641C249.262 469.919 249.363 470.476 249.085 470.879L244.833 477.02C244.661 477.269 244.382 477.405 244.104 477.405H244.098Z" fill="#24AFB5"></path><path d="M239.703 475.76C239.573 475.76 239.442 475.73 239.324 475.671C238.88 475.458 238.69 474.931 238.904 474.487L241.817 468.357C242.031 467.913 242.558 467.723 243.002 467.937C243.446 468.15 243.636 468.677 243.422 469.121L240.508 475.251C240.355 475.57 240.041 475.76 239.703 475.76Z" fill="#24AFB5"></path><path d="M253.216 458.594C252.967 458.594 252.724 458.494 252.547 458.292L251.593 457.209C251.433 457.031 251.356 456.794 251.374 456.557C251.392 456.32 251.504 456.101 251.682 455.947L256.479 451.837C263.876 445.506 271.978 439.968 280.566 435.373L284.018 433.525C284.451 433.294 284.99 433.454 285.221 433.886C285.452 434.318 285.292 434.857 284.859 435.088L281.401 436.936C272.926 441.473 264.931 446.939 257.628 453.187L253.512 456.711L253.867 457.114C254.193 457.481 254.158 458.044 253.79 458.369C253.619 458.517 253.411 458.594 253.204 458.594H253.216Z" fill="#24AFB5"></path><path d="M254.259 459.593L236.202 467.091L240.365 473.013L260.501 467.091L254.259 459.593Z" fill="white"></path><path d="M240.365 473.903C240.08 473.903 239.808 473.766 239.636 473.524L235.473 467.607C235.319 467.388 235.271 467.11 235.348 466.849C235.425 466.589 235.615 466.381 235.864 466.275L253.921 458.777C254.282 458.629 254.697 458.729 254.946 459.032L261.188 466.529C261.377 466.76 261.442 467.068 261.354 467.358C261.265 467.643 261.04 467.868 260.755 467.951L240.619 473.867C240.536 473.891 240.453 473.903 240.37 473.903H240.365ZM237.563 467.489L240.726 471.984L258.949 466.624L253.992 460.666L237.563 467.489Z" fill="#24AFB5"></path><path d="M243.608 468.5L242.198 466.498C241.689 465.776 240.753 465.498 239.936 465.829L237.851 466.747L237.686 466.143C237.508 465.486 236.862 465.071 236.193 465.178C232.101 465.823 219.249 467.724 214.411 470.194C208.69 473.114 210.904 482.11 219.924 482.738C227.073 483.235 236.975 477.929 241.091 475.139C242.441 474.221 241.494 472.51 241.494 472.51L243.413 470.928C244.052 470.271 244.135 469.252 243.608 468.5Z" fill="white"></path><path d="M220.884 483.657C220.541 483.657 220.203 483.645 219.871 483.621C213.943 483.207 211.13 479.582 210.526 476.603C209.916 473.618 211.284 470.793 214.014 469.402C218.681 467.021 230.265 465.209 235.21 464.433L236.057 464.302C237.04 464.148 237.988 464.664 238.403 465.534L239.575 465.019C240.807 464.527 242.175 464.93 242.921 465.99L244.331 467.992C245.107 469.094 244.988 470.586 244.047 471.551C244.023 471.575 243.999 471.599 243.975 471.617L242.56 472.783C242.832 473.719 242.827 475.034 241.589 475.875C237.496 478.647 228.145 483.657 220.878 483.657H220.884ZM236.407 466.05C236.407 466.05 236.359 466.05 236.336 466.05L235.483 466.186C231.041 466.879 219.232 468.726 214.819 470.983C212.794 472.019 211.811 474.039 212.261 476.248C212.747 478.617 215.062 481.507 219.99 481.851C226.386 482.283 235.82 477.64 240.594 474.406C241.239 473.968 240.771 473.044 240.718 472.937C240.517 472.564 240.606 472.096 240.931 471.83L242.809 470.284C243.123 469.935 243.158 469.408 242.886 469.017L241.476 467.015C241.204 466.63 240.712 466.482 240.268 466.66L238.213 467.566C237.976 467.672 237.704 467.666 237.473 467.554C237.242 467.441 237.064 467.234 236.999 466.985L236.833 466.381C236.78 466.186 236.602 466.055 236.407 466.055V466.05Z" fill="#24AFB5"></path><path d="M231.037 476.715C230.652 476.715 230.296 476.461 230.184 476.07L228.318 469.543C228.182 469.07 228.455 468.578 228.928 468.448C229.402 468.311 229.894 468.584 230.024 469.058L231.89 475.584C232.026 476.058 231.753 476.55 231.279 476.68C231.197 476.703 231.114 476.715 231.037 476.715Z" fill="#24AFB5"></path><path d="M220.109 480.943C220.014 480.943 219.913 480.925 219.819 480.896C216.621 479.8 214.761 478.242 214.287 476.264C213.653 473.623 215.791 471.378 215.886 471.283C216.23 470.928 216.792 470.922 217.142 471.266C217.491 471.609 217.503 472.166 217.165 472.521C217.142 472.551 215.608 474.18 216.016 475.862C216.342 477.188 217.852 478.349 220.393 479.219C220.855 479.379 221.104 479.883 220.944 480.351C220.82 480.718 220.47 480.949 220.103 480.949L220.109 480.943Z" fill="#24AFB5"></path><path d="M225.825 456.407C225.766 456.407 225.706 456.407 225.647 456.39C225.167 456.295 224.854 455.821 224.954 455.341L225.179 454.216C221.869 451.806 201.282 437.106 189.775 435.401C189.29 435.33 188.952 434.88 189.029 434.394C189.1 433.908 189.556 433.571 190.036 433.648C202.958 435.561 225.73 452.41 226.695 453.126C226.974 453.334 227.104 453.677 227.039 454.015L226.701 455.697C226.618 456.117 226.245 456.407 225.831 456.407H225.825Z" fill="#24AFB5"></path><path d="M285.913 413.012C284.972 408.789 279.345 395.985 274.809 384.525C271.184 375.375 261.252 367.208 250.829 365.881C243.071 364.892 234.661 364.697 226.571 365.33C213.085 366.39 201.501 373.468 197.042 385.301C193.026 395.961 188.644 409.044 188.543 415.677C188.436 422.736 192.706 429.488 197.361 434.729C203.236 441.338 211.617 445.46 220.666 446.301C233.595 447.498 253.766 448.7 262.928 445.703C276.982 441.113 288.199 423.228 285.919 413.012H285.913Z" fill="#24AFB5"></path><path d="M271.848 397.954H216.462C213.947 397.954 211.908 399.993 211.908 402.508V439.127C211.908 441.642 213.947 443.681 216.462 443.681H271.848C274.364 443.681 276.403 441.642 276.403 439.127V402.508C276.403 399.993 274.364 397.954 271.848 397.954Z" fill="#26D0D8"></path><path d="M271.853 444.574H216.461C213.464 444.574 211.018 442.134 211.018 439.131V402.507C211.018 399.51 213.458 397.064 216.461 397.064H271.853C274.85 397.064 277.29 399.504 277.29 402.507V439.131C277.29 442.128 274.85 444.574 271.853 444.574ZM216.461 398.847C214.441 398.847 212.795 400.488 212.795 402.513V439.137C212.795 441.157 214.435 442.803 216.461 442.803H271.853C273.872 442.803 275.513 441.163 275.513 439.137V402.513C275.513 400.494 273.872 398.847 271.853 398.847H216.461Z" fill="#24AFB5"></path><path d="M275.527 443.906H211.85C210.269 443.906 208.983 445.191 208.983 446.772C208.983 448.353 210.269 449.638 211.85 449.638H275.527C277.109 449.638 278.394 448.353 278.394 446.772C278.394 445.191 277.109 443.906 275.527 443.906Z" fill="#26D0D8"></path><path d="M275.526 450.525H211.849C209.776 450.525 208.094 448.843 208.094 446.771C208.094 444.698 209.776 443.016 211.849 443.016H275.526C277.599 443.016 279.281 444.698 279.281 446.771C279.281 448.843 277.599 450.525 275.526 450.525ZM211.849 444.793C210.759 444.793 209.87 445.681 209.87 446.771C209.87 447.86 210.759 448.749 211.849 448.749H275.526C276.616 448.749 277.504 447.86 277.504 446.771C277.504 445.681 276.616 444.793 275.526 444.793H211.849Z" fill="#24AFB5"></path><path d="M246.558 418.865C246.558 420.695 245.072 422.182 243.242 422.182C241.412 422.182 239.925 420.695 239.925 418.865C239.925 417.035 241.412 415.549 243.242 415.549C245.072 415.549 246.558 417.035 246.558 418.865Z" fill="white"></path><path d="M243.438 361.769C246.666 362.095 249.544 359.738 249.87 356.51L250.758 347.656C251.066 344.606 248.857 341.882 245.813 341.538L244.729 341.42C242.929 341.218 241.146 341.899 239.932 343.238L237.664 345.749C237.326 346.122 236.781 346.235 236.331 346.01C235.727 345.708 234.851 345.412 234.158 345.779C232.991 346.401 231.641 351.073 235.928 352.305L233.346 361.467C232.689 363.789 231.084 365.731 228.928 366.809C227.371 367.585 225.837 368.479 225.772 369.018C225.404 371.95 234.098 373.022 236.568 373.081C241.152 373.188 247.584 371.352 248.069 368.734C248.289 367.544 242.639 366.969 242.881 365.779C243.385 363.285 243.444 361.757 243.444 361.757L243.438 361.769Z" fill="white"></path><path d="M236.942 373.981C236.806 373.981 236.67 373.981 236.539 373.981C234.857 373.939 227.597 373.258 225.506 370.83C225.014 370.256 224.795 369.598 224.884 368.917C224.973 368.207 225.613 367.472 228.526 366.021C230.457 365.062 231.902 363.315 232.488 361.236L234.852 352.867C232.749 351.932 232.246 350.208 232.139 349.196C231.961 347.478 232.696 345.559 233.75 345.003C234.555 344.576 235.592 344.653 236.735 345.222C236.824 345.269 236.942 345.245 237.013 345.162L239.281 342.651C240.685 341.1 242.758 340.318 244.837 340.543L245.92 340.661C249.432 341.052 252.009 344.233 251.653 347.751L250.765 356.604C250.422 360.01 247.596 362.574 244.268 362.687C244.197 363.356 244.067 364.381 243.812 365.684C244.197 365.92 245.151 366.228 245.749 366.424C247.525 367.004 249.196 367.549 248.947 368.905C248.355 372.115 241.698 373.981 236.954 373.981H236.942ZM226.643 369.237C226.649 369.344 226.696 369.486 226.856 369.663C228.189 371.209 233.898 372.133 236.587 372.198C241.082 372.323 246.341 370.587 247.117 368.834C246.714 368.603 245.784 368.301 245.198 368.106C243.415 367.525 241.739 366.981 242.012 365.607C242.491 363.226 242.557 361.739 242.557 361.727L242.598 360.786L243.534 360.88C246.276 361.153 248.716 359.151 248.994 356.421L249.883 347.567C250.137 345.014 248.272 342.705 245.725 342.426L244.641 342.308C243.131 342.136 241.621 342.711 240.602 343.842L238.334 346.353C237.73 347.022 236.747 347.212 235.941 346.809C235.355 346.519 234.851 346.43 234.585 346.566C234.348 346.72 233.738 347.845 233.928 349.13C234.093 350.291 234.852 351.073 236.184 351.452L237.031 351.695L234.206 361.71C233.483 364.274 231.707 366.418 229.326 367.608C227.36 368.586 226.797 369.077 226.649 369.237H226.643Z" fill="#24AFB5"></path><path d="M243.912 362.684C243.876 362.684 243.841 362.684 243.811 362.684C243.018 362.59 238.996 361.98 238.007 358.995C237.853 358.527 238.108 358.029 238.57 357.875C239.038 357.721 239.535 357.976 239.695 358.438C240.37 360.475 243.871 360.902 244.019 360.919C244.504 360.979 244.854 361.417 244.8 361.903C244.747 362.353 244.362 362.69 243.918 362.69L243.912 362.684Z" fill="#24AFB5"></path><path d="M233.304 345.91L232.155 338.928C232.108 335.854 234.186 333.154 237.171 332.413L245.818 330.269C246.695 330.05 247.536 330.725 247.518 331.632C247.494 332.538 248.341 333.213 249.218 332.994L253.156 332.011C254.317 331.72 255.264 332.952 254.684 334L254.477 334.374C254.044 335.155 254.465 336.138 255.329 336.364L258.415 337.216C259.463 337.489 259.795 338.821 258.995 339.55L251.012 346.266C251.012 346.266 249.733 340.456 243.988 341.321C241.08 341.759 239.025 343.98 238.143 345.585C237.805 346.201 237.136 347.308 236.076 346.331C236.076 346.331 236.775 343.956 233.304 345.91Z" fill="#24AFB5"></path><path d="M70.2924 141.407C102.949 141.407 129.422 114.783 129.422 81.94C129.422 49.0973 102.949 22.4731 70.2924 22.4731C37.6362 22.4731 11.1631 49.0973 11.1631 81.94C11.1631 114.783 37.6362 141.407 70.2924 141.407Z" fill="#26D0D8"></path><path d="M70.1693 142.314C58.2653 142.314 46.6397 138.743 36.5775 131.873C23.2639 122.782 14.2915 109.019 11.3125 93.117C5.18283 60.4135 26.6516 28.7938 59.1715 22.6285C74.8658 19.6496 90.7852 22.9839 103.998 32.0037C117.312 41.0946 126.284 54.8582 129.263 70.7599C135.393 103.463 113.924 135.083 81.4041 141.248C77.6612 141.959 73.9004 142.308 70.1634 142.308L70.1693 142.314ZM70.4062 23.3452C66.7877 23.3452 63.1394 23.6887 59.5031 24.3757C27.9426 30.3573 7.10766 61.0472 13.0597 92.7912C15.9498 108.225 24.6616 121.586 37.5783 130.404C50.4003 139.158 65.846 142.391 81.0725 139.501C112.633 133.52 133.468 102.83 127.516 71.0856C124.626 55.6519 115.914 42.2909 102.997 33.4725C93.2371 26.8098 81.9549 23.3452 70.4062 23.3452Z" fill="#24AFB5"></path><path d="M70.2934 132.651C98.1415 132.651 120.717 109.945 120.717 81.9371C120.717 53.9288 98.1415 31.2236 70.2934 31.2236C42.4454 31.2236 19.8701 53.9288 19.8701 81.9371C19.8701 109.945 42.4454 132.651 70.2934 132.651Z" fill="white"></path><path d="M70.1867 133.552C60.0061 133.552 50.0683 130.502 41.469 124.627C30.0861 116.857 22.4166 105.089 19.87 91.4913C14.6287 63.5316 32.9881 36.4959 60.7878 31.2308C74.208 28.6842 87.8177 31.5329 99.1117 39.2498C110.495 47.02 118.164 58.7878 120.711 72.3856C125.952 100.345 107.593 127.381 79.7928 132.646C76.5888 133.256 73.3729 133.552 70.1867 133.552ZM70.388 32.1014C67.3084 32.1014 64.2051 32.3916 61.1136 32.978C34.2733 38.0653 16.5534 64.1712 21.6111 91.1655C24.0689 104.295 31.4779 115.655 42.4698 123.158C53.373 130.603 66.5089 133.351 79.4612 130.899C106.302 125.812 124.021 99.7056 118.964 72.7113C116.506 59.5814 109.097 48.2222 98.1049 40.7185C89.8017 35.0508 80.2074 32.1014 70.3821 32.1014H70.388Z" fill="#24AFB5"></path><path d="M90.9797 106.282C90.731 106.282 90.4881 106.181 90.3105 105.98L69.6236 82.5268C69.4755 82.3551 69.3926 82.136 69.4044 81.9109L70.127 57.9903C70.1447 57.4988 70.5533 57.096 71.039 57.1316C71.5305 57.1434 71.9155 57.558 71.8977 58.0436L71.1812 81.6089L91.6371 104.795C91.9628 105.162 91.9273 105.725 91.5601 106.051C91.3883 106.199 91.1811 106.27 90.9738 106.27L90.9797 106.282Z" fill="#24AFB5"></path><path d="M65.7631 41.782C66.0948 43.541 64.9458 45.2348 63.1927 45.5664C61.4456 45.8981 59.7637 44.7432 59.432 42.9843C59.1004 41.2253 60.2494 39.5315 62.0024 39.1999C63.7495 38.8682 65.4314 40.0231 65.7631 41.782Z" fill="#E1F9FA"></path><path d="M46.4112 49.44C47.572 50.7963 47.418 52.8395 46.0677 54.0062C44.7174 55.1729 42.686 55.0189 41.5252 53.6627C40.3644 52.3065 40.5184 50.2632 41.8688 49.0965C43.2191 47.9298 45.2504 48.0838 46.4112 49.44Z" fill="#E1F9FA"></path><path d="M33.4505 65.8027C35.1266 66.3949 36.0091 68.2427 35.4227 69.9306C34.8364 71.6185 32.9945 72.5068 31.3185 71.9146C29.6425 71.3224 28.76 69.4746 29.3464 67.7867C29.9327 66.0988 31.7745 65.2104 33.4505 65.8027Z" fill="#E1F9FA"></path><path d="M30.3597 86.4962C32.1068 86.1646 33.7888 87.3195 34.1204 89.0784C34.4521 90.8374 33.3032 92.5312 31.5501 92.8628C29.803 93.1945 28.1211 92.0396 27.7894 90.2807C27.4578 88.5217 28.6067 86.8279 30.3597 86.4962Z" fill="#E1F9FA"></path><path d="M37.9752 105.97C39.3255 104.803 41.3569 104.957 42.5177 106.313C43.6785 107.669 43.5244 109.713 42.1741 110.879C40.8238 112.046 38.7925 111.892 37.6317 110.536C36.4709 109.18 36.6249 107.136 37.9752 105.97Z" fill="#E1F9FA"></path><path d="M54.2531 119C54.8394 117.312 56.6813 116.424 58.3573 117.016C60.0334 117.608 60.9158 119.456 60.3295 121.144C59.7432 122.832 57.9013 123.72 56.2253 123.128C54.5493 122.536 53.6668 120.688 54.2531 119Z" fill="#E1F9FA"></path><path d="M74.8202 122.1C74.4885 120.342 75.6375 118.648 77.3906 118.316C79.1377 117.984 80.8196 119.139 81.1513 120.898C81.4829 122.657 80.334 124.351 78.581 124.683C76.8339 125.014 75.1519 123.859 74.8202 122.1Z" fill="#E1F9FA"></path><path d="M94.181 114.447C93.0202 113.091 93.1742 111.047 94.5245 109.881C95.8748 108.714 97.9062 108.868 99.067 110.224C100.228 111.58 100.074 113.624 98.7235 114.79C97.3732 115.957 95.3418 115.803 94.181 114.447Z" fill="#E1F9FA"></path><path d="M107.138 98.0826C105.462 97.4903 104.579 95.6425 105.166 93.9546C105.752 92.2668 107.594 91.3784 109.27 91.9706C110.946 92.5629 111.828 94.4107 111.242 96.0986C110.656 97.7864 108.814 98.6748 107.138 98.0826Z" fill="#E1F9FA"></path><path d="M110.223 77.3882C108.476 77.7199 106.794 76.565 106.463 74.806C106.131 73.0471 107.28 71.3533 109.033 71.0216C110.78 70.69 112.462 71.8448 112.794 73.6038C113.125 75.3627 111.977 77.0566 110.223 77.3882Z" fill="#E1F9FA"></path><path d="M102.613 57.9232C101.263 59.0899 99.2314 58.9359 98.0706 57.5797C96.9098 56.2235 97.0639 54.1802 98.4142 53.0135C99.7645 51.8468 101.796 52.0008 102.957 53.357C104.117 54.7132 103.963 56.7565 102.613 57.9232Z" fill="#E1F9FA"></path><path d="M86.3397 44.8852C85.7534 46.5731 83.9115 47.4614 82.2355 46.8692C80.5594 46.2769 79.677 44.4292 80.2634 42.7413C80.8497 41.0534 82.6915 40.165 84.3675 40.7573C86.0436 41.3495 86.9261 43.1973 86.3397 44.8852Z" fill="#E1F9FA"></path><path d="M144.442 12.1674C144.312 12.1674 144.182 12.1378 144.058 12.0785C143.613 11.8653 143.43 11.3323 143.643 10.8941L145.633 6.75431C145.846 6.31013 146.379 6.12653 146.817 6.33974C147.262 6.55294 147.445 7.08596 147.232 7.52422L145.242 11.664C145.088 11.9838 144.774 12.1674 144.442 12.1674Z" fill="#24AFB5"></path><path d="M139.796 21.8075C139.666 21.8075 139.535 21.7779 139.411 21.7187C138.967 21.5055 138.783 20.9725 138.996 20.5342L140.986 16.3944C141.2 15.9503 141.733 15.7667 142.171 15.9799C142.615 16.1931 142.799 16.7261 142.585 17.1644L140.596 21.3041C140.442 21.6239 140.128 21.8075 139.796 21.8075Z" fill="#24AFB5"></path><path d="M140.36 13.5937C140.229 13.5937 140.099 13.5641 139.975 13.5049L135.835 11.515C135.391 11.3018 135.207 10.7687 135.42 10.3305C135.634 9.8863 136.167 9.7027 136.605 9.91591L140.745 11.9058C141.189 12.119 141.372 12.6521 141.159 13.0903C141.005 13.4101 140.691 13.5937 140.36 13.5937Z" fill="#24AFB5"></path><path d="M150.005 18.2402C149.875 18.2402 149.745 18.2106 149.62 18.1514L145.48 16.1614C145.036 15.9482 144.853 15.4152 145.066 14.977C145.279 14.5328 145.812 14.3492 146.25 14.5624L150.39 16.5523C150.834 16.7655 151.018 17.2985 150.805 17.7368C150.651 18.0566 150.337 18.2402 150.005 18.2402Z" fill="#24AFB5"></path><path d="M126.887 36.9097C126.188 36.9097 125.489 36.7498 124.838 36.4419C122.487 35.3107 121.492 32.4739 122.629 30.1227C123.18 28.9856 124.139 28.1268 125.33 27.7063C126.52 27.2858 127.805 27.3628 128.948 27.9077C130.085 28.4585 130.944 29.412 131.364 30.6083C131.785 31.7987 131.708 33.0839 131.163 34.2269C130.612 35.364 129.659 36.2228 128.462 36.6432C127.953 36.8209 127.42 36.9097 126.893 36.9097H126.887ZM126.887 29.2166C126.555 29.2166 126.23 29.2699 125.91 29.3824C125.164 29.643 124.566 30.176 124.222 30.8926C123.517 32.3613 124.133 34.1321 125.602 34.8369C126.313 35.1804 127.118 35.2219 127.858 34.9613C128.605 34.7007 129.203 34.1677 129.546 33.4511C129.89 32.7404 129.931 31.9349 129.671 31.1946C129.41 30.4484 128.871 29.8502 128.16 29.5067C127.752 29.3113 127.319 29.2106 126.881 29.2106L126.887 29.2166Z" fill="#24AFB5"></path><path d="M458.797 75.6425C458.525 75.6425 458.258 75.5182 458.081 75.2813C435.866 45.1067 405.75 22.0626 370.992 8.65428C370.536 8.47661 370.305 7.96136 370.482 7.50534C370.66 7.04931 371.175 6.81834 371.631 6.99601C406.704 20.5287 437.097 43.78 459.514 74.2271C459.804 74.6239 459.721 75.1806 459.324 75.4708C459.164 75.5892 458.981 75.6425 458.797 75.6425Z" fill="#24AFB5"></path><path d="M442.404 69.329C442.155 69.329 441.906 69.2224 441.729 69.021C424.826 49.412 404.589 33.5755 381.593 21.9557C381.154 21.7366 380.977 21.1976 381.202 20.7594C381.421 20.3211 381.96 20.1494 382.398 20.3685C405.608 32.0949 426.022 48.0735 443.079 67.8602C443.399 68.2334 443.357 68.796 442.984 69.1158C442.818 69.2579 442.611 69.329 442.404 69.329Z" fill="#24AFB5"></path><path d="M357.268 9.47225C356.57 9.47225 355.871 9.31234 355.219 9.00438C354.082 8.4536 353.223 7.50009 352.803 6.30377C352.388 5.11336 352.46 3.8282 353.004 2.68518C353.555 1.54808 354.509 0.68933 355.705 0.268839C356.895 -0.151651 358.18 -0.0746598 359.324 0.470201C361.675 1.60138 362.67 4.43821 361.533 6.7894C360.982 7.9265 360.028 8.78525 358.832 9.20574C358.323 9.38341 357.79 9.47225 357.263 9.47225H357.268ZM357.268 1.77905C356.937 1.77905 356.611 1.83235 356.291 1.94488C355.545 2.20546 354.947 2.73848 354.603 3.45509C354.26 4.16578 354.218 4.97123 354.479 5.71153C354.74 6.45775 355.273 7.05591 355.989 7.39941C356.7 7.74291 357.499 7.78437 358.246 7.52378C358.992 7.26319 359.59 6.73018 359.934 6.01357C360.638 4.54481 360.022 2.77402 358.554 2.06925C358.145 1.87381 357.713 1.77313 357.274 1.77313L357.268 1.77905Z" fill="#24AFB5"></path><path d="M471.439 277.596C471.308 277.596 471.178 277.566 471.054 277.507C470.609 277.294 470.426 276.761 470.639 276.322L472.629 272.183C472.842 271.738 473.375 271.555 473.813 271.768C474.258 271.981 474.441 272.514 474.228 272.952L472.238 277.092C472.084 277.412 471.77 277.596 471.439 277.596Z" fill="#24AFB5"></path><path d="M466.796 287.235C466.666 287.235 466.535 287.206 466.411 287.147C465.967 286.933 465.783 286.4 465.996 285.962L467.986 281.822C468.2 281.378 468.733 281.195 469.171 281.408C469.615 281.621 469.799 282.154 469.585 282.592L467.596 286.732C467.442 287.052 467.128 287.235 466.796 287.235Z" fill="#24AFB5"></path><path d="M467.365 279.022C467.235 279.022 467.105 278.992 466.98 278.933L462.841 276.943C462.397 276.73 462.213 276.197 462.426 275.758C462.639 275.314 463.172 275.131 463.611 275.344L467.75 277.334C468.195 277.547 468.378 278.08 468.165 278.518C468.011 278.838 467.697 279.022 467.365 279.022Z" fill="#24AFB5"></path><path d="M477.006 283.668C476.875 283.668 476.745 283.639 476.621 283.58L472.481 281.59C472.037 281.376 471.853 280.843 472.066 280.405C472.279 279.961 472.813 279.777 473.251 279.991L477.391 281.981C477.835 282.194 478.018 282.727 477.805 283.165C477.651 283.485 477.337 283.668 477.006 283.668Z" fill="#24AFB5"></path><path d="M4.87926 312.797C4.46469 312.797 4.09752 312.507 4.00869 312.092C-2.87314 279.075 0.247955 248.658 14.438 210.375C14.6098 209.913 15.1191 209.682 15.5811 209.854C16.043 210.026 16.274 210.535 16.1023 210.997C2.03655 248.942 -1.06093 279.063 5.74391 311.731C5.84459 312.211 5.53668 312.685 5.05696 312.779C4.99774 312.791 4.93256 312.797 4.87333 312.797H4.87926Z" fill="#24AFB5"></path><path d="M8.54466 279.295C8.05902 279.295 7.66222 278.904 7.6563 278.418C7.36018 258.94 10.8543 243.861 13.6615 231.75C13.9162 230.648 14.165 229.576 14.4078 228.522C14.5144 228.043 14.9941 227.746 15.4738 227.853C15.9536 227.96 16.2497 228.439 16.1431 228.919C15.9003 229.973 15.6515 231.051 15.3968 232.153C12.6133 244.169 9.14875 259.129 9.43895 278.395C9.44487 278.886 9.05393 279.289 8.56237 279.295H8.55059H8.54466Z" fill="#24AFB5"></path><path d="M69.3637 356.882C69.3637 356.882 80.9953 360.744 85.7746 360.252C92.5084 359.565 99.947 338.813 100.468 337.386C100.989 335.958 102.772 328.324 104.519 325.748C106.16 323.332 107.338 320.773 107.995 319.192C108.392 318.239 109.139 317.871 109.79 318.085C110.359 318.274 111.354 319.174 110.779 320.602C110.116 322.254 109.5 323.918 108.949 325.334C108.777 325.778 108.517 326.186 108.896 325.908C109.766 325.268 110.868 324.682 111.59 325.091C112.941 325.861 113.669 331.019 111.484 334.644C109.304 338.268 106.906 337.415 106.177 339.174C105.449 340.933 99.4199 363.74 96.9384 367.691C93.3731 373.364 68.4694 373.974 64.7324 373.868C60.9954 373.755 69.3637 356.888 69.3637 356.888V356.882Z" fill="white"></path><path d="M64.8671 374.754C64.7723 374.754 64.7131 374.754 64.7012 374.754C64.0735 374.737 63.5523 374.435 63.2325 373.907C61.5505 371.106 66.8866 359.865 68.5627 356.49L68.9061 355.797L69.6405 356.04C69.753 356.075 81.1418 359.836 85.6843 359.374C90.1735 358.918 95.9893 347.12 99.6079 337.159L99.6315 337.088C99.75 336.756 99.9751 335.957 100.236 335.039C101.1 331.953 102.403 327.292 103.783 325.261C105.335 322.969 106.484 320.517 107.177 318.859C107.727 317.532 108.918 316.869 110.067 317.248C110.564 317.414 111.228 317.87 111.589 318.657C111.814 319.143 112.003 319.937 111.601 320.943C111.186 321.974 110.789 323.016 110.416 323.993C110.393 324.053 110.369 324.118 110.345 324.177C110.985 324.011 111.542 324.065 112.021 324.331C112.809 324.781 113.229 325.835 113.437 326.641C114.023 328.891 113.881 332.38 112.234 335.11C110.837 337.431 109.321 338.118 108.219 338.622C107.491 338.953 107.159 339.119 106.993 339.522C106.804 339.984 106.099 342.424 105.282 345.249C102.362 355.37 99.371 365.48 97.6831 368.169C93.6796 374.541 67.2064 374.76 64.8612 374.76L64.8671 374.754ZM69.8182 357.964C66.3358 365.125 63.9905 372.054 64.7604 373.001C70.3097 373.143 93.1347 372.066 96.1788 367.215C97.8726 364.515 101.444 352.143 103.57 344.751C104.589 341.228 105.128 339.362 105.347 338.835C105.791 337.763 106.65 337.378 107.479 336.999C108.468 336.549 109.593 336.04 110.706 334.192C112.069 331.93 112.187 328.933 111.713 327.109C111.494 326.244 111.21 325.918 111.127 325.871C111.026 325.812 110.493 325.829 109.398 326.629C108.764 327.091 108.302 326.824 108.136 326.688C107.568 326.232 107.858 325.587 107.994 325.273C108.03 325.19 108.071 325.101 108.107 325.012C108.308 324.491 108.527 323.928 108.746 323.348C109.125 322.359 109.522 321.311 109.942 320.268C110.079 319.931 110.085 319.646 109.972 319.392C109.842 319.113 109.593 318.954 109.504 318.924C109.279 318.853 108.989 319.096 108.811 319.534C108.089 321.263 106.886 323.839 105.252 326.25C104.032 328.044 102.723 332.717 101.941 335.513C101.651 336.549 101.444 337.295 101.296 337.692L101.272 337.763C98.8024 344.574 92.3529 360.481 85.856 361.139C81.5978 361.577 72.4892 358.817 69.8123 357.964H69.8182Z" fill="#24AFB5"></path><path d="M56.072 467.093C56.072 467.093 47.8161 469.965 43.0012 468.692C43.0012 468.692 37.0077 473.904 37.0847 476.663L58.05 476.255L56.072 467.093Z" fill="white"></path><path d="M36.2192 477.563L36.1954 476.681C36.1066 473.655 41.3598 468.934 42.414 468.016L42.7693 467.708L43.2253 467.827C47.7264 469.023 55.698 466.275 55.7809 466.252L56.7284 465.92L59.1507 477.119L36.2251 477.563H36.2192ZM43.2431 469.657C41.3006 471.404 38.8901 474.034 38.1794 475.745L56.9594 475.384L55.4136 468.236C53.1394 468.934 47.3177 470.498 43.249 469.657H43.2431Z" fill="#24AFB5"></path><path d="M47.076 467.742C47.076 467.742 41.9057 461.559 39.6138 461.452C37.6831 461.363 22.3085 475.53 17.4166 480.25C16.5519 481.085 16.9191 482.577 18.0799 482.867C20.9582 483.602 27.5439 483.584 42.3262 478.473C43.0961 478.207 43.6588 477.525 43.7772 476.708L44.4109 472.172L41.3076 471.781L47.076 467.73V467.742Z" fill="white"></path><path d="M21.3443 484.098C19.8519 484.098 18.7207 483.95 17.8619 483.73C17.0091 483.511 16.3635 482.872 16.1385 482.013C15.9075 481.148 16.1622 480.23 16.8018 479.614C16.9972 479.425 36.6596 460.562 39.6267 460.562C39.6386 460.562 39.6445 460.562 39.6563 460.562C42.2089 460.68 46.8521 466.088 47.7582 467.171C47.9181 467.361 47.9891 467.61 47.9595 467.858C47.924 468.107 47.7937 468.326 47.5864 468.468L43.7014 471.193L44.5246 471.293C44.7615 471.323 44.9747 471.447 45.1168 471.637C45.259 471.826 45.3241 472.063 45.2885 472.3L44.6549 476.837C44.495 477.992 43.7132 478.939 42.6175 479.318C31.8802 483.032 25.3242 484.104 21.3443 484.104V484.098ZM39.6208 462.339C37.6309 462.836 24.5542 474.598 18.0396 480.888C17.773 481.142 17.8323 481.462 17.856 481.557C17.8856 481.669 17.9863 481.93 18.3002 482.013C20.6869 482.617 26.9409 482.86 42.0371 477.642C42.4991 477.482 42.8249 477.08 42.8959 476.594L43.4052 472.952L41.1961 472.673C40.8289 472.626 40.5329 472.359 40.444 472.004C40.3552 471.649 40.4973 471.276 40.7934 471.062L45.7623 467.574C43.5059 465.01 40.7224 462.457 39.6149 462.339H39.6208Z" fill="#24AFB5"></path><path d="M31.9307 482.506C31.5517 482.506 31.2023 482.263 31.0838 481.884L29.7691 477.703C29.621 477.235 29.8816 476.737 30.3494 476.589C30.8173 476.441 31.3148 476.702 31.4629 477.17L32.7776 481.351C32.9257 481.819 32.6651 482.316 32.1972 482.464C32.1084 482.494 32.0196 482.506 31.9307 482.506Z" fill="#24AFB5"></path><path d="M34.5172 481.387C34.1381 481.387 33.7887 481.144 33.6702 480.765L32.3555 476.584C32.2074 476.116 32.468 475.619 32.9359 475.47C33.4037 475.322 33.9012 475.583 34.0493 476.051L35.364 480.232C35.5121 480.7 35.2515 481.197 34.7837 481.345C34.6948 481.375 34.606 481.387 34.5172 481.387Z" fill="#24AFB5"></path><path d="M20.6229 481.476C20.3742 481.476 20.1255 481.37 19.9478 481.163C19.628 480.789 19.6754 480.227 20.0485 479.907L39.6931 463.117C40.0662 462.797 40.6288 462.845 40.9427 463.218C41.2625 463.591 41.2151 464.153 40.842 464.473L21.1975 481.263C21.0316 481.405 20.8243 481.476 20.6229 481.476Z" fill="#24AFB5"></path><path d="M124.543 479.845C124.56 477.879 124.596 474.77 124.649 470.778L130.501 471.613L135.345 467.165C135.345 467.165 149.245 472.253 155.973 478.678C157.228 479.875 156.595 482.007 154.889 482.267C149.754 483.049 137.868 483.789 126.882 482.534C125.538 482.38 124.525 481.219 124.543 479.851V479.845Z" fill="white"></path><path d="M139.679 484.09C135.557 484.09 131.109 483.9 126.786 483.403C124.985 483.196 123.641 481.662 123.659 479.832C123.677 477.866 123.712 474.75 123.765 470.759C123.765 470.504 123.884 470.261 124.079 470.095C124.275 469.93 124.529 469.858 124.784 469.888L130.221 470.664L134.757 466.5C135 466.275 135.356 466.204 135.664 466.323C136.238 466.536 149.812 471.546 156.599 478.025C157.434 478.825 157.736 480.004 157.393 481.105C157.055 482.183 156.149 482.959 155.036 483.131C151.82 483.622 146.146 484.09 139.685 484.09H139.679ZM125.524 471.795C125.477 475.301 125.447 478.055 125.43 479.85C125.424 480.768 126.087 481.537 126.981 481.638C137.837 482.876 149.777 482.136 154.757 481.372C155.202 481.301 155.551 481.004 155.687 480.566C155.829 480.11 155.711 479.636 155.361 479.305C149.552 473.755 138.08 469.154 135.545 468.176L131.103 472.257C130.908 472.435 130.641 472.518 130.375 472.482L125.519 471.789L125.524 471.795Z" fill="#24AFB5"></path><path d="M141.003 481.167C134.749 481.167 130.011 480.746 129.934 480.741C129.449 480.693 129.087 480.267 129.129 479.775C129.17 479.29 129.603 478.928 130.094 478.97C130.218 478.982 142.519 480.071 153.588 478.697C154.074 478.638 154.518 478.982 154.577 479.467C154.636 479.953 154.293 480.397 153.807 480.456C149.46 480.995 144.936 481.161 141.003 481.161V481.167Z" fill="#24AFB5"></path><path d="M143.756 477.535C143.697 477.535 143.632 477.535 143.573 477.517C143.093 477.416 142.785 476.948 142.886 476.463L143.993 471.18C144.094 470.7 144.562 470.392 145.047 470.493C145.527 470.594 145.835 471.062 145.734 471.547L144.627 476.83C144.538 477.25 144.171 477.535 143.756 477.535Z" fill="#24AFB5"></path><path d="M141.176 476.412C141.117 476.412 141.052 476.412 140.993 476.394C140.513 476.293 140.205 475.825 140.306 475.34L141.413 470.057C141.514 469.577 141.982 469.263 142.467 469.37C142.947 469.471 143.255 469.938 143.154 470.424L142.047 475.707C141.958 476.127 141.591 476.412 141.176 476.412Z" fill="#24AFB5"></path><path d="M82.9204 416.572C83.2047 416.335 109.553 397.282 116.743 399.331C129.038 402.832 126.646 439.811 126.391 449.589C126.142 459.112 81.4399 430.525 80.0659 428.02C78.7037 425.538 77.8686 420.859 82.9204 416.577V416.572Z" fill="#24AFB5"></path><path d="M125.981 447.127C126.023 447.162 126.064 447.198 126.1 447.234C133.811 454.198 136.979 461.122 136.428 470.035C135.889 478.747 123.642 484.971 83.9795 480.434C75.6407 479.226 58.9158 478.267 51.6846 478.036C50.1862 477.989 49.0018 476.733 49.0254 475.217L49.1261 468.317C49.1379 467.346 49.6532 466.452 50.4823 465.96C54.859 463.354 66.1471 456.692 84.7553 457.408C85.3712 457.432 85.2705 456.78 84.6664 456.644C74.4562 454.376 58.6967 453.316 54.2845 449.579C45.7504 442.336 47.3316 429.49 49.1794 421.649C54.5747 398.765 88.2436 422.656 88.4745 422.715C88.5397 422.756 93.0288 425.392 98.9572 429.01L125.969 447.127H125.981Z" fill="#24AFB5"></path><path d="M107.521 462.606C107.361 462.606 107.201 462.565 107.059 462.476C106.97 462.422 99.6029 458.087 82.0608 457.673C81.5692 457.661 81.1842 457.252 81.1961 456.761C81.2079 456.275 81.6047 455.896 82.0844 455.896H82.1081C100.225 456.322 107.687 460.77 107.995 460.96C108.415 461.214 108.546 461.765 108.291 462.18C108.125 462.452 107.829 462.606 107.533 462.606H107.521Z" fill="white"></path><path d="M123.778 446.203C123.588 446.203 123.399 446.144 123.233 446.02C123.02 445.854 101.764 429.502 87.0056 425.818C86.5318 425.7 86.2415 425.22 86.36 424.74C86.4784 424.267 86.9582 423.976 87.4379 424.095C102.552 427.867 124.103 444.45 124.323 444.616C124.713 444.918 124.785 445.475 124.483 445.86C124.305 446.085 124.044 446.203 123.778 446.203Z" fill="#E1F9FA"></path><path d="M89.7789 330.952C89.7789 330.952 94.2622 329.644 91.0878 321.998C87.8956 314.299 79.3733 317.597 76.039 317.526C72.7046 317.455 65.6866 312.688 63.2288 311.61C60.771 310.532 52.5981 305.368 42.6544 316.016C42.6544 316.016 41.1678 318.711 32.2724 319.185C24.5318 319.593 11.6388 325.824 17.5671 335.406C19.2787 338.172 21.92 340.114 24.9227 340.967C25.4675 341.121 26.0598 341.263 26.6994 341.376C28.5472 341.713 30.1167 343.005 30.8333 344.852C33.1608 350.858 40.321 362.098 58.8107 347.369C60.2025 346.256 61.9969 345.901 63.673 346.38C65.7281 346.967 68.2984 349.957 77.4485 347.334C83.3235 345.646 84.2948 338.841 85.4497 335.649C86.8059 331.9 89.7907 330.964 89.7907 330.964L89.7789 330.952Z" fill="#24AFB5"></path><path d="M88.4845 331.385C88.4845 331.385 88.9583 332.783 89.1715 333.393C89.3788 333.973 89.8052 335.916 91.5878 337.84C91.7596 338.024 91.7596 338.308 91.5997 338.504L90.356 339.984C90.2731 340.085 90.2316 340.221 90.2494 340.351C90.356 341.169 90.7469 344.177 90.7291 344.752C90.7054 345.415 90.2731 346.067 90.0362 346.244C89.4084 346.712 86.4235 346.748 86.4235 346.748C86.4235 346.748 85.6476 346.931 84.6941 351.355C84.0249 354.465 88.668 357.698 88.668 357.698C88.668 357.698 78.2387 361.903 69.4617 358.249C68.9169 358.024 68.8872 357.242 69.361 356.887C71.2266 355.483 75.2361 352.072 76.841 347.63C76.9358 347.364 77.1313 347.15 77.3978 347.038C78.4579 346.588 81.3598 345.759 80.8446 340.873C80.8327 340.748 80.7854 340.624 80.7143 340.523C80.0984 339.67 77.2911 335.46 82.112 336.052C85.2982 336.443 86.2695 334.109 86.5419 333.037C86.6308 332.688 86.8618 332.386 87.1697 332.196L88.4786 331.385H88.4845Z" fill="white"></path><path d="M77.5979 360.639C74.8676 360.639 71.9301 360.231 69.1288 359.064C68.5958 358.845 68.2345 358.359 68.1635 357.779C68.0865 357.163 68.3411 356.547 68.8327 356.174C70.4791 354.936 74.4649 351.602 76.0106 347.326C76.1883 346.828 76.5733 346.426 77.053 346.218L77.2899 346.118C78.4388 345.656 80.3577 344.88 79.9668 341.001C79.1259 339.828 77.8821 337.678 78.7468 336.221C79.2916 335.303 80.4584 334.948 82.2232 335.161C84.5152 335.446 85.3681 334.036 85.6879 332.81C85.836 332.241 86.1972 331.75 86.7065 331.436L88.0154 330.625C88.2463 330.483 88.5306 330.453 88.7853 330.542C89.04 330.631 89.2413 330.838 89.3242 331.093C89.3242 331.093 89.7921 332.484 90.0112 333.088C90.0408 333.171 90.0764 333.284 90.1178 333.414C90.3488 334.154 90.8285 335.706 92.244 337.234C92.7178 337.743 92.7355 338.537 92.2854 339.07L91.1602 340.414C91.3497 341.877 91.6458 344.205 91.6221 344.779C91.5865 345.762 90.9884 346.639 90.5679 346.953C89.8928 347.456 88.0509 347.592 86.8072 347.628C86.5999 347.96 86.132 348.937 85.5694 351.537C85.1252 353.604 88.0272 356.156 89.1821 356.962C89.4486 357.151 89.5907 357.465 89.5552 357.791C89.5196 358.116 89.3065 358.395 89.0044 358.513C88.7024 358.638 83.6506 360.633 77.5979 360.633V360.639ZM70.0172 357.512C76.4252 360.083 83.7927 358.33 86.8724 357.382C85.4095 356.055 83.3012 353.657 83.8342 351.175C84.7936 346.722 85.6582 346.029 86.2268 345.893C86.2919 345.875 86.3571 345.869 86.4223 345.869C87.7785 345.851 89.2354 345.691 89.5375 345.525C89.5908 345.472 89.8394 345.087 89.8513 344.738C89.8631 344.418 89.6677 342.671 89.3775 340.485C89.3302 340.106 89.4368 339.721 89.6855 339.431L90.716 338.205C89.2058 336.464 88.6609 334.729 88.424 333.965C88.3944 333.864 88.3648 333.775 88.3411 333.71C88.2523 333.467 88.1279 333.1 88.0094 332.745L87.6482 332.97C87.5297 333.041 87.4409 333.154 87.4113 333.278C87.1566 334.261 86.0136 337.435 82.01 336.95C80.8196 336.802 80.3637 337.009 80.2807 337.151C80.0853 337.483 80.4702 338.679 81.4356 340.024C81.6014 340.249 81.7021 340.515 81.7317 340.799C82.2884 346.047 79.1436 347.314 77.9591 347.794L77.7519 347.877C77.7104 347.894 77.6926 347.93 77.6867 347.954C76.0699 352.431 72.2381 355.848 70.0172 357.53V357.512Z" fill="#24AFB5"></path><path d="M81.8379 341.816C80.9555 341.816 80.15 341.331 79.5874 340.436C79.3268 340.022 79.4512 339.471 79.8657 339.21C80.2803 338.95 80.8311 339.074 81.0917 339.489C81.3049 339.826 81.5358 340.01 81.7727 340.034C82.0274 340.057 82.2702 339.921 82.365 339.844C82.5604 339.501 82.9632 339.317 83.3659 339.418C83.8397 339.542 84.1239 340.028 83.9996 340.502C83.8278 341.153 82.9572 341.662 82.2169 341.781C82.0866 341.799 81.9623 341.81 81.8379 341.81V341.816Z" fill="#24AFB5"></path><path d="M91.4137 338.403C90.9814 338.403 90.6024 338.084 90.5372 337.645C90.4662 337.16 90.8038 336.71 91.2894 336.639C91.858 336.556 92.0593 336.301 92.1659 336.117C92.5805 335.395 92.3614 334.092 92.1186 333.192L82.5183 336.088C82.0504 336.23 81.5529 335.963 81.4108 335.496C81.2687 335.028 81.5352 334.53 82.003 334.388L92.4324 331.237C92.8706 331.101 93.3445 331.332 93.5162 331.758C93.6524 332.096 94.8014 335.111 93.7057 337.006C93.2615 337.776 92.5153 338.255 91.544 338.397C91.5026 338.403 91.4552 338.409 91.4137 338.409V338.403Z" fill="#24AFB5"></path><path d="M83.4731 342.539C83.3783 342.101 82.9518 341.829 82.5195 341.924C82.0872 342.018 81.8148 342.451 81.9155 342.889C82.0161 343.327 82.4366 343.6 82.869 343.505C83.3013 343.41 83.5737 342.978 83.4731 342.539Z" fill="#26D0D8"></path><path d="M168.372 296.043L105.091 304.797C102.236 305.194 100.045 307.983 100.187 311.021L101.549 340.278C101.691 343.275 104.09 345.418 106.915 345.075L169.621 337.382C172.594 337.015 174.934 334.219 174.845 331.134L173.974 300.977C173.886 297.838 171.374 295.629 168.372 296.043Z" fill="#E1F9FA"></path><path d="M110.38 345.543C109.936 345.543 109.557 345.211 109.498 344.761C109.439 344.276 109.782 343.832 110.274 343.772L144.612 339.556C145.097 339.502 145.542 339.84 145.601 340.331C145.66 340.817 145.317 341.261 144.825 341.32L110.487 345.537C110.451 345.537 110.416 345.543 110.38 345.543Z" fill="#26D0D8"></path><path d="M106.038 346.035C104.73 346.035 103.486 345.585 102.473 344.732C101.206 343.66 100.465 342.108 100.383 340.355L99.814 328.143C99.7904 327.652 100.169 327.237 100.661 327.213C101.164 327.19 101.567 327.569 101.591 328.06L102.159 340.272C102.219 341.528 102.734 342.624 103.622 343.37C104.428 344.051 105.464 344.353 106.53 344.223L110.273 343.761C110.759 343.701 111.203 344.045 111.262 344.536C111.321 345.022 110.978 345.466 110.486 345.526L106.743 345.987C106.506 346.017 106.269 346.029 106.033 346.029L106.038 346.035Z" fill="#26D0D8"></path><path d="M174.158 318.454C173.679 318.454 173.288 318.075 173.27 317.59L172.79 301.043C172.755 299.746 172.234 298.603 171.322 297.839C170.469 297.116 169.355 296.808 168.194 296.968L104.931 305.715C102.527 306.047 100.673 308.428 100.792 311.022C100.815 311.513 100.436 311.928 99.9448 311.952C99.4473 311.981 99.0387 311.596 99.015 311.105C98.8551 307.616 101.396 304.412 104.683 303.956L167.946 295.209C169.616 294.978 171.215 295.428 172.459 296.482C173.756 297.578 174.502 299.183 174.555 300.995L175.035 317.542C175.047 318.034 174.662 318.443 174.17 318.454C174.164 318.454 174.152 318.454 174.147 318.454H174.158Z" fill="#26D0D8"></path><path d="M168.575 307.7C168.616 309.051 167.603 310.283 166.312 310.454L120.988 316.483C119.744 316.649 118.69 315.713 118.631 314.393C118.578 313.072 119.537 311.864 120.787 311.692L166.158 305.574C167.449 305.402 168.533 306.356 168.569 307.7H168.575Z" fill="white"></path><path d="M168.996 321.695C169.038 323.033 168.025 324.253 166.74 324.419L121.558 330.188C120.314 330.348 119.266 329.412 119.213 328.097C119.159 326.782 120.119 325.586 121.362 325.426L166.592 319.569C167.877 319.403 168.955 320.356 168.996 321.695Z" fill="white"></path><path d="M114.702 315.061C114.814 317.614 112.955 319.941 110.562 320.255L110.284 320.291C107.891 320.605 105.866 318.804 105.753 316.258L105.741 315.962C105.629 313.415 107.471 311.081 109.869 310.756L110.147 310.72C112.546 310.395 114.589 312.207 114.696 314.765L114.708 315.061H114.702Z" fill="white"></path><path d="M116.286 366.92C116.286 366.92 127.918 370.782 132.697 370.29C139.431 369.603 146.87 348.851 147.391 347.424C147.912 345.996 149.695 338.362 151.442 335.786C153.082 333.37 154.261 330.811 154.918 329.23C155.315 328.276 156.061 327.909 156.713 328.122C157.281 328.312 158.276 329.212 157.702 330.639C157.039 332.292 156.423 333.956 155.872 335.371C155.7 335.816 155.439 336.224 155.818 335.946C156.689 335.306 163.601 326.683 164.317 327.092C165.667 327.862 163.636 341.78 161.457 345.404C159.277 349.029 153.835 347.453 153.106 349.212C152.378 350.971 146.349 373.778 143.867 377.728C140.302 383.402 115.398 384.012 111.661 383.906C107.924 383.793 116.292 366.926 116.292 366.926L116.286 366.92Z" fill="white"></path><path d="M111.79 384.795C111.695 384.795 111.636 384.795 111.624 384.795C110.996 384.777 110.475 384.475 110.155 383.948C108.473 381.146 113.809 369.906 115.486 366.53L115.829 365.837L116.563 366.08C116.676 366.121 128.071 369.87 132.607 369.414C137.096 368.958 142.912 357.161 146.531 347.199L146.554 347.128C146.673 346.797 146.898 345.997 147.158 345.079C148.023 341.993 149.326 337.333 150.706 335.301C152.258 333.009 153.407 330.557 154.1 328.899C154.65 327.572 155.841 326.909 156.99 327.288C157.487 327.454 158.15 327.91 158.512 328.692C158.737 329.177 158.926 329.971 158.524 330.978C158.37 331.363 158.216 331.748 158.068 332.133C163.202 326.228 163.848 325.813 164.748 326.329C165.086 326.524 165.317 326.868 165.453 327.383C166.211 330.291 164.304 342.384 162.207 345.867C160.709 348.354 157.979 348.739 155.983 349.023C155.249 349.124 154.023 349.302 153.916 349.556C153.726 350.018 153.022 352.458 152.204 355.283C149.285 365.405 146.294 375.514 144.606 378.203C140.602 384.576 114.129 384.795 111.784 384.795H111.79ZM116.741 368.005C113.259 375.165 110.913 382.094 111.683 383.042C117.233 383.184 140.058 382.106 143.102 377.255C144.795 374.555 148.367 362.183 150.493 354.792C151.511 351.268 152.05 349.402 152.27 348.875C152.767 347.679 154.206 347.478 155.728 347.258C157.552 346.998 159.619 346.708 160.679 344.949C162.539 341.863 164.091 331.499 163.836 328.437C162.657 329.545 160.431 332.109 159.116 333.625C157.375 335.627 156.682 336.409 156.326 336.669C155.693 337.131 155.231 336.865 155.065 336.728C154.496 336.272 154.787 335.627 154.923 335.313C154.958 335.23 155 335.141 155.035 335.052C155.237 334.531 155.45 333.975 155.669 333.4C156.048 332.411 156.451 331.357 156.865 330.314C157.002 329.977 157.007 329.693 156.895 329.438C156.765 329.16 156.516 329 156.427 328.97C156.196 328.899 155.912 329.142 155.734 329.58C155.012 331.309 153.809 333.886 152.175 336.296C150.955 338.091 149.646 342.763 148.864 345.559C148.574 346.595 148.367 347.341 148.219 347.738L148.195 347.809C145.725 354.62 139.276 370.528 132.779 371.185C128.521 371.617 119.412 368.863 116.735 368.011L116.741 368.005Z" fill="#24AFB5"></path><path d="M53.0583 411.466C55.3976 406.948 55.4569 393.504 55.3976 388.849C54.3316 361.221 64.5062 356.133 67.9294 355.21C72.8391 354.262 78.5365 354.072 85.2288 354.937C96.8485 356.43 120.793 366.314 120.793 366.314C120.793 366.314 111.921 385.911 111.72 385.953C102.765 387.866 102.297 388.221 101.735 390.223C100.935 393.06 100.917 394.884 98.9214 396.785C95.4804 400.072 93.07 399.42 91.8915 401.535C87.4082 409.589 86.3836 413.954 84.9386 420.131C82.392 431.01 63.0908 426.977 53.3485 423.187C52.2824 422.772 49.6825 422.026 49.3568 421.209C49.0369 420.403 49.1732 419.639 50.4169 416.595C51.1335 414.842 52.0692 413.368 53.0523 411.466H53.0583Z" fill="#26D0D8"></path></svg> 