<?xml version="1.0" encoding="UTF-8" standalone="no"?>
<!DOCTYPE svg PUBLIC "-//W3C//DTD SVG 1.1//EN"
 "http://www.w3.org/Graphics/SVG/1.1/DTD/svg11.dtd">
<!-- Generated by graphviz version 2.47.0 (20210316.0004)
 -->
<!-- Title: dependencies Pages: 1 -->
<svg width="899pt" height="211pt"
 viewBox="0.00 0.00 899.00 211.00" xmlns="http://www.w3.org/2000/svg" xmlns:xlink="http://www.w3.org/1999/xlink">
<g id="graph0" class="graph" transform="scale(1 1) rotate(0) translate(4 207)">
<title>dependencies</title>
<polygon fill="white" stroke="transparent" points="-4,4 -4,-207 895,-207 895,4 -4,4"/>
<text text-anchor="start" x="424.51" y="-42.4" font-family="Times-12" font-weight="bold" font-size="14.00">Legend</text>
<polygon fill="#ffffb3" stroke="transparent" points="211.5,-10 211.5,-30 231.5,-30 231.5,-10 211.5,-10"/>
<text text-anchor="start" x="235.13" y="-15.4" font-family="Times-12" font-size="14.00"> &#160;Declarations</text>
<polygon fill="#8dd3c7" stroke="transparent" points="324.5,-10 324.5,-30 344.5,-30 344.5,-10 324.5,-10"/>
<text text-anchor="start" x="348.23" y="-15.4" font-family="Times-12" font-size="14.00"> &#160;Module</text>
<polygon fill="#80b1d3" stroke="transparent" points="410.5,-10 410.5,-30 430.5,-30 430.5,-10 410.5,-10"/>
<text text-anchor="start" x="434.28" y="-15.4" font-family="Times-12" font-size="14.00"> &#160;Bootstrap</text>
<polygon fill="#fdb462" stroke="transparent" points="507.5,-10 507.5,-30 527.5,-30 527.5,-10 507.5,-10"/>
<text text-anchor="start" x="531.17" y="-15.4" font-family="Times-12" font-size="14.00"> &#160;Providers</text>
<polygon fill="#fb8072" stroke="transparent" points="603.5,-10 603.5,-30 623.5,-30 623.5,-10 603.5,-10"/>
<text text-anchor="start" x="627.23" y="-15.4" font-family="Times-12" font-size="14.00"> &#160;Exports</text>
<g id="clust1" class="cluster">
<title>cluster_TasksModule</title>
<polygon fill="none" stroke="black" stroke-dasharray="1,5" points="8,-70 8,-195 883,-195 883,-70 8,-70"/>
</g>
<g id="clust2" class="cluster">
<title>cluster_TasksModule_declarations</title>
<polygon fill="none" stroke="black" points="745,-78 745,-130 875,-130 875,-78 745,-78"/>
</g>
<g id="clust4" class="cluster">
<title>cluster_TasksModule_imports</title>
<polygon fill="none" stroke="black" points="467,-78 467,-130 737,-130 737,-78 467,-78"/>
</g>
<g id="clust7" class="cluster">
<title>cluster_TasksModule_providers</title>
<polygon fill="none" stroke="black" points="16,-78 16,-130 459,-130 459,-78 16,-78"/>
</g>
<!-- TasksComponent -->
<g id="node1" class="node">
<title>TasksComponent</title>
<polygon fill="#ffffb3" stroke="black" points="866.99,-122 753.01,-122 753.01,-86 866.99,-86 866.99,-122"/>
<text text-anchor="middle" x="810" y="-99.8" font-family="Times,serif" font-size="14.00">TasksComponent</text>
</g>
<!-- TasksModule -->
<g id="node2" class="node">
<title>TasksModule</title>
<polygon fill="#8dd3c7" stroke="black" points="590.21,-187 587.21,-191 566.21,-191 563.21,-187 497.79,-187 497.79,-151 590.21,-151 590.21,-187"/>
<text text-anchor="middle" x="544" y="-164.8" font-family="Times,serif" font-size="14.00">TasksModule</text>
</g>
<!-- TasksComponent&#45;&gt;TasksModule -->
<g id="edge1" class="edge">
<title>TasksComponent&#45;&gt;TasksModule</title>
<path fill="none" stroke="black" d="M810,-122.28C810,-143.32 810,-175 810,-175 810,-175 600.33,-175 600.33,-175"/>
<polygon fill="black" stroke="black" points="600.33,-171.5 590.33,-175 600.33,-178.5 600.33,-171.5"/>
</g>
<!-- SharedModule -->
<g id="node3" class="node">
<title>SharedModule</title>
<polygon fill="#8dd3c7" stroke="black" points="729.42,-122 726.42,-126 705.42,-126 702.42,-122 630.58,-122 630.58,-86 729.42,-86 729.42,-122"/>
<text text-anchor="middle" x="680" y="-99.8" font-family="Times,serif" font-size="14.00">SharedModule</text>
</g>
<!-- SharedModule&#45;&gt;TasksModule -->
<g id="edge2" class="edge">
<title>SharedModule&#45;&gt;TasksModule</title>
<path fill="none" stroke="black" d="M680,-122.02C680,-139.37 680,-163 680,-163 680,-163 600.42,-163 600.42,-163"/>
<polygon fill="black" stroke="black" points="600.42,-159.5 590.42,-163 600.42,-166.5 600.42,-159.5"/>
</g>
<!-- TasksRoutingModule -->
<g id="node4" class="node">
<title>TasksRoutingModule</title>
<polygon fill="#8dd3c7" stroke="black" points="612.82,-122 609.82,-126 588.82,-126 585.82,-122 475.18,-122 475.18,-86 612.82,-86 612.82,-122"/>
<text text-anchor="middle" x="544" y="-99.8" font-family="Times,serif" font-size="14.00">TasksRoutingModule</text>
</g>
<!-- TasksRoutingModule&#45;&gt;TasksModule -->
<g id="edge3" class="edge">
<title>TasksRoutingModule&#45;&gt;TasksModule</title>
<path fill="none" stroke="black" d="M544,-122.11C544,-122.11 544,-140.99 544,-140.99"/>
<polygon fill="black" stroke="black" points="540.5,-140.99 544,-150.99 547.5,-140.99 540.5,-140.99"/>
</g>
<!-- LocalStorageSeederService -->
<g id="node5" class="node">
<title>LocalStorageSeederService</title>
<ellipse fill="#fdb462" stroke="black" cx="333" cy="-104" rx="117.99" ry="18"/>
<text text-anchor="middle" x="333" y="-99.8" font-family="Times,serif" font-size="14.00">LocalStorageSeederService</text>
</g>
<!-- LocalStorageSeederService&#45;&gt;TasksModule -->
<g id="edge4" class="edge">
<title>LocalStorageSeederService&#45;&gt;TasksModule</title>
<path fill="none" stroke="black" d="M333,-122.02C333,-139.37 333,-163 333,-163 333,-163 487.7,-163 487.7,-163"/>
<polygon fill="black" stroke="black" points="487.7,-166.5 497.7,-163 487.7,-159.5 487.7,-166.5"/>
</g>
<!-- NotificationService -->
<g id="node6" class="node">
<title>NotificationService</title>
<ellipse fill="#fdb462" stroke="black" cx="111" cy="-104" rx="86.81" ry="18"/>
<text text-anchor="middle" x="111" y="-99.8" font-family="Times,serif" font-size="14.00">NotificationService</text>
</g>
<!-- NotificationService&#45;&gt;TasksModule -->
<g id="edge5" class="edge">
<title>NotificationService&#45;&gt;TasksModule</title>
<path fill="none" stroke="black" d="M111,-122.28C111,-143.32 111,-175 111,-175 111,-175 487.66,-175 487.66,-175"/>
<polygon fill="black" stroke="black" points="487.66,-178.5 497.66,-175 487.66,-171.5 487.66,-178.5"/>
</g>
</g>
</svg>
