<?xml version="1.0" encoding="UTF-8"?> <svg xmlns="http://www.w3.org/2000/svg" width="434" height="432" viewBox="0 0 434 432" fill="none"><path d="M423.287 286.473H46.0416C39.7164 286.473 34.897 280.768 35.913 274.474L35.9026 8.94568C36.7102 3.93866 40.9981 0.260254 46.0312 0.260254H423.277C429.602 0.260254 433.259 4.63162 433.405 12.2594L433.416 277.787C433.15 283.378 428.32 286.473 423.287 286.473Z" fill="#26D0D8"></path><path d="M413.436 286.796H36.1906C29.8654 286.796 25.046 281.07 26.0619 274.765L26.0515 9.49761C26.8591 4.47496 31.1471 0.786133 36.1801 0.786133H413.426C419.751 0.786133 423.408 5.17313 423.554 12.8165L423.565 278.084C423.299 283.69 418.469 286.796 413.436 286.796Z" fill="white"></path><path d="M413.436 286.947H405.1C404.667 286.947 404.318 286.598 404.318 286.166C404.318 285.733 404.667 285.384 405.1 285.384H413.436C417.755 285.384 422.523 282.899 422.788 277.433L422.773 12.7859C422.632 5.55409 419.313 1.56306 413.426 1.56306H36.1802C31.5275 1.56306 27.6042 4.91323 26.8331 9.5399L26.8435 188.98C26.8435 189.412 26.4944 189.761 26.062 189.761C25.6295 189.761 25.2805 189.412 25.2805 188.98L25.27 9.47738C25.27 9.4357 25.27 9.39402 25.2805 9.35233C26.1506 3.93371 30.7355 0 36.1854 0H413.431C420.209 0 424.185 4.65793 424.341 12.7702L424.357 277.47C424.06 283.701 418.641 286.947 413.447 286.947H413.436Z" fill="#24AFB5"></path><path d="M77.3407 99.607C77.1427 92.74 71.4428 87.462 64.6799 87.9726C58.0838 88.4728 53.0872 94.2092 53.3842 100.946C53.5248 104.192 54.8691 107.073 57.0053 109.131C58.6413 110.715 59.6104 112.888 59.6781 115.206L59.7198 116.582C59.7511 117.723 60.6837 118.598 61.7987 118.546L69.9422 118.155C71.0572 118.103 71.9378 117.134 71.9013 115.998L71.8596 114.628C71.7919 112.341 72.5734 110.08 74.1104 108.386C76.2101 106.073 77.4345 102.968 77.3355 99.607H77.3407Z" fill="white"></path><path d="M61.6991 119.333C61.0062 119.333 60.3497 119.078 59.8338 118.599C59.2763 118.083 58.9585 117.374 58.9377 116.603L58.896 115.227C58.8335 113.117 57.9686 111.148 56.4628 109.694C54.1183 107.433 52.7479 104.338 52.6021 100.978C52.2894 93.7823 57.5674 87.728 64.6221 87.1913C68.0556 86.9308 71.3484 88.051 73.9014 90.3487C76.5222 92.7089 78.0227 95.9862 78.1269 99.576C78.2259 103.046 77.0067 106.354 74.6986 108.902C73.3335 110.408 72.5884 112.482 72.6457 114.597L72.6875 115.967C72.7344 117.525 71.5203 118.854 69.9833 118.927L61.8398 119.318C61.7929 119.318 61.7512 119.318 61.7043 119.318L61.6991 119.333ZM65.5912 88.7231C65.3098 88.7231 65.0232 88.7336 64.7419 88.7544C58.5365 89.2233 53.889 94.5638 54.1651 100.915C54.2954 103.869 55.4937 106.589 57.5518 108.574C59.3545 110.314 60.3913 112.664 60.4643 115.191L60.506 116.567C60.5164 116.916 60.6571 117.228 60.902 117.457C61.1364 117.676 61.4386 117.786 61.7668 117.77L69.9104 117.379C70.6033 117.348 71.1505 116.738 71.1296 116.025L71.0879 114.654C71.0149 112.138 71.9111 109.663 73.5419 107.86C75.5791 105.615 76.6524 102.692 76.5638 99.6281C76.4753 96.4655 75.1571 93.5843 72.8542 91.5158C70.8378 89.6974 68.2848 88.7231 65.5912 88.7231Z" fill="#24AFB5"></path><path d="M66.1219 126.695C63.3448 126.831 61.021 124.637 60.9429 121.803L60.8491 118.468L70.9152 117.989L71.009 121.323C71.0924 124.158 68.9041 126.565 66.1219 126.7V126.695Z" fill="white"></path><path d="M65.8821 127.482C64.4493 127.482 63.0894 126.95 62.0266 125.965C60.8699 124.892 60.2082 123.423 60.1613 121.818L60.0415 117.718L71.6707 117.16L71.7906 121.292C71.8843 124.548 69.3574 127.32 66.1635 127.471C66.0697 127.471 65.9759 127.476 65.8821 127.476V127.482ZM61.6514 119.208L61.7244 121.776C61.7557 122.954 62.2454 124.038 63.0895 124.819C63.9075 125.575 64.9704 125.965 66.0853 125.913C68.4404 125.799 70.2952 123.751 70.2275 121.339L70.1545 118.801L61.6514 119.208Z" fill="#24AFB5"></path><path d="M64.9527 79.9085C64.5359 79.9085 64.192 79.5803 64.1712 79.1635L63.8012 70.947C63.7804 70.5145 64.1139 70.1498 64.5463 70.129C64.984 70.1133 65.3434 70.4416 65.3643 70.874L65.7343 79.0905C65.7551 79.523 65.4216 79.8877 64.9892 79.9085C64.9787 79.9085 64.9631 79.9085 64.9527 79.9085Z" fill="#24AFB5"></path><path d="M44.6803 104.506H40.2151C39.7827 104.501 39.4336 104.152 39.4336 103.72C39.4336 103.287 39.7827 102.938 40.2151 102.938H44.6803C45.1128 102.943 45.4618 103.292 45.4618 103.725C45.4618 104.157 45.1128 104.506 44.6803 104.506Z" fill="#24AFB5"></path><path d="M48.8014 88.3844C48.6086 88.3844 48.4158 88.3167 48.2699 88.176L43.2316 83.4608C42.9138 83.1638 42.8982 82.6688 43.1952 82.3562C43.4921 82.0436 43.9871 82.0228 44.2997 82.3198L49.338 87.035C49.6506 87.332 49.6715 87.827 49.3745 88.1396C49.2182 88.3063 49.015 88.3897 48.8014 88.3897V88.3844Z" fill="#24AFB5"></path><path d="M86.243 104.507C85.8105 104.507 85.4614 104.158 85.4614 103.725C85.4614 103.293 85.8105 102.944 86.243 102.944H90.7081C91.1405 102.944 91.4896 103.288 91.4896 103.72C91.4896 104.153 91.1405 104.502 90.7081 104.502H86.243V104.507Z" fill="#24AFB5"></path><path d="M82.1209 88.3857C81.9125 88.3857 81.7041 88.3024 81.5478 88.1357C81.2508 87.823 81.2716 87.3281 81.5842 87.0311L86.6225 82.3158C86.9404 82.0189 87.4301 82.0397 87.7271 82.3523C88.0241 82.6649 88.0032 83.1599 87.6906 83.4569L82.6524 88.1721C82.5013 88.3128 82.3085 88.3805 82.1209 88.3805V88.3857Z" fill="#24AFB5"></path><path d="M159.601 96.8015C179.257 96.8015 195.192 80.8062 195.192 61.0751C195.192 41.3439 179.257 25.3486 159.601 25.3486C139.944 25.3486 124.01 41.3439 124.01 61.0751C124.01 80.8062 139.944 96.8015 159.601 96.8015Z" fill="#E1F9FA"></path><path d="M160.227 61.2173L179.057 90.8947C188.675 84.5069 195.026 73.5499 195.036 61.1079C195.042 53.2196 192.499 45.9253 188.19 40.0117L160.227 61.2225V61.2173Z" fill="#26D0D8"></path><path d="M167.219 26.2075L160.227 61.2097L188.19 40.0094C183.183 33.1319 175.785 28.1249 167.219 26.2075Z" fill="#26D0D8"></path><path d="M159.601 71.9647C165.592 71.9647 170.449 67.0894 170.449 61.0754C170.449 55.0614 165.592 50.186 159.601 50.186C153.61 50.186 148.753 55.0614 148.753 61.0754C148.753 67.0894 153.61 71.9647 159.601 71.9647Z" fill="white"></path><path d="M253.881 113.191C253.673 113.191 253.475 113.107 253.329 112.961L238.365 97.9403C238.063 97.6329 238.063 97.1379 238.365 96.8357C238.673 96.5336 239.168 96.5336 239.47 96.8357L253.881 111.305L320.593 44.3741C320.895 44.0667 321.395 44.0667 321.698 44.3741C322.005 44.6763 322.005 45.1713 321.698 45.4787L254.428 112.961C254.282 113.107 254.085 113.191 253.876 113.191H253.881Z" fill="#24AFB5"></path><path d="M100.019 180.652C99.8207 180.652 99.6175 180.573 99.4664 180.422C99.159 180.12 99.159 179.625 99.4664 179.318L138.501 140.132C138.793 139.84 139.314 139.84 139.606 140.132L160.139 160.743L223.287 97.3507C223.589 97.0433 224.084 97.0433 224.392 97.3507C224.699 97.6529 224.699 98.1478 224.392 98.4552L160.692 162.4C160.4 162.692 159.879 162.692 159.587 162.4L139.054 141.789L100.571 180.422C100.42 180.573 100.217 180.652 100.019 180.652Z" fill="#24AFB5"></path><path d="M139.056 144.5C141.157 144.5 142.86 142.79 142.86 140.68C142.86 138.571 141.157 136.861 139.056 136.861C136.956 136.861 135.253 138.571 135.253 140.68C135.253 142.79 136.956 144.5 139.056 144.5Z" fill="#26D0D8"></path><path d="M139.056 136.857C141.156 136.857 142.86 138.566 142.86 140.677C142.86 142.787 141.156 144.496 139.056 144.496C136.957 144.496 135.253 142.787 135.253 140.677C135.253 138.566 136.957 136.857 139.056 136.857ZM139.056 135.294C136.097 135.294 133.69 137.707 133.69 140.677C133.69 143.646 136.097 146.059 139.056 146.059C142.016 146.059 144.423 143.646 144.423 140.677C144.423 137.707 142.016 135.294 139.056 135.294Z" fill="#24AFB5"></path><path d="M253.997 116.07C256.097 116.07 257.8 114.36 257.8 112.251C257.8 110.142 256.097 108.432 253.997 108.432C251.896 108.432 250.193 110.142 250.193 112.251C250.193 114.36 251.896 116.07 253.997 116.07Z" fill="#26D0D8"></path><path d="M253.997 108.432C256.097 108.432 257.8 110.141 257.8 112.251C257.8 114.361 256.097 116.07 253.997 116.07C251.897 116.07 250.193 114.361 250.193 112.251C250.193 110.141 251.897 108.432 253.997 108.432ZM253.997 106.869C251.038 106.869 248.63 109.281 248.63 112.251C248.63 115.221 251.038 117.633 253.997 117.633C256.956 117.633 259.363 115.221 259.363 112.251C259.363 109.281 256.956 106.869 253.997 106.869Z" fill="#24AFB5"></path><path d="M322.031 48.3642C324.132 48.3642 325.834 46.6544 325.834 44.5452C325.834 42.4359 324.132 40.7261 322.031 40.7261C319.93 40.7261 318.228 42.4359 318.228 44.5452C318.228 46.6544 319.93 48.3642 322.031 48.3642Z" fill="#26D0D8"></path><path d="M322.031 40.7262C324.131 40.7262 325.835 42.4351 325.835 44.5452C325.835 46.6554 324.131 48.3643 322.031 48.3643C319.931 48.3643 318.228 46.6554 318.228 44.5452C318.228 42.4351 319.931 40.7262 322.031 40.7262ZM322.031 39.1631C319.072 39.1631 316.665 41.5754 316.665 44.5452C316.665 47.5151 319.072 49.9274 322.031 49.9274C324.99 49.9274 327.398 47.5151 327.398 44.5452C327.398 41.5754 324.99 39.1631 322.031 39.1631Z" fill="#24AFB5"></path><path d="M160.496 165.221C162.596 165.221 164.299 163.511 164.299 161.402C164.299 159.292 162.596 157.583 160.496 157.583C158.395 157.583 156.692 159.292 156.692 161.402C156.692 163.511 158.395 165.221 160.496 165.221Z" fill="#26D0D8"></path><path d="M160.496 157.583C162.596 157.583 164.299 159.292 164.299 161.402C164.299 163.512 162.596 165.221 160.496 165.221C158.396 165.221 156.692 163.512 156.692 161.402C156.692 159.292 158.396 157.583 160.496 157.583ZM160.496 156.02C157.537 156.02 155.129 158.432 155.129 161.402C155.129 164.372 157.537 166.784 160.496 166.784C163.455 166.784 165.862 164.372 165.862 161.402C165.862 158.432 163.455 156.02 160.496 156.02Z" fill="#24AFB5"></path><path d="M231.629 94.1885C233.73 94.1885 235.433 92.4786 235.433 90.3694C235.433 88.2602 233.73 86.5503 231.629 86.5503C229.529 86.5503 227.826 88.2602 227.826 90.3694C227.826 92.4786 229.529 94.1885 231.629 94.1885Z" fill="#26D0D8"></path><path d="M231.629 86.5504C233.729 86.5504 235.433 88.2593 235.433 90.3695C235.433 92.4796 233.729 94.1885 231.629 94.1885C229.529 94.1885 227.826 92.4796 227.826 90.3695C227.826 88.2593 229.529 86.5504 231.629 86.5504ZM231.629 84.9873C228.67 84.9873 226.263 87.3996 226.263 90.3695C226.263 93.3393 228.67 95.7516 231.629 95.7516C234.589 95.7516 236.996 93.3393 236.996 90.3695C236.996 87.3996 234.589 84.9873 231.629 84.9873Z" fill="#24AFB5"></path><path d="M99.1623 183.981C101.263 183.981 102.966 182.271 102.966 180.162C102.966 178.053 101.263 176.343 99.1623 176.343C97.0617 176.343 95.3589 178.053 95.3589 180.162C95.3589 182.271 97.0617 183.981 99.1623 183.981Z" fill="#26D0D8"></path><path d="M99.1624 176.343C101.262 176.343 102.966 178.052 102.966 180.162C102.966 182.272 101.262 183.981 99.1624 183.981C97.0627 183.981 95.359 182.272 95.359 180.162C95.359 178.052 97.0627 176.343 99.1624 176.343ZM99.1624 174.78C96.203 174.78 93.7959 177.192 93.7959 180.162C93.7959 183.132 96.203 185.544 99.1624 185.544C102.122 185.544 104.529 183.132 104.529 180.162C104.529 177.192 102.122 174.78 99.1624 174.78Z" fill="#24AFB5"></path><path d="M129.738 235.338L123.632 235.208C120.949 235.15 118.802 232.946 118.807 230.253L118.864 200.82C118.87 198.059 121.126 195.839 123.877 195.881L129.926 195.98C132.614 196.027 134.771 198.226 134.771 200.924V230.393C134.771 233.165 132.5 235.395 129.738 235.338Z" fill="#E1F9FA"></path><path d="M151.376 235.34L145.265 235.21C142.581 235.152 140.435 232.954 140.44 230.255L140.502 182.237C140.502 179.476 142.764 177.251 145.515 177.298L151.564 177.397C154.252 177.444 156.409 179.643 156.409 182.342V230.395C156.409 233.167 154.138 235.397 151.376 235.335V235.34Z" fill="#E1F9FA"></path><path d="M173.014 235.34L166.903 235.21C164.22 235.152 162.073 232.949 162.078 230.255L162.141 192.142C162.141 189.381 164.402 187.156 167.153 187.203L173.202 187.302C175.89 187.349 178.047 189.547 178.047 192.246V230.396C178.047 233.167 175.776 235.397 173.014 235.34Z" fill="#E1F9FA"></path><path d="M194.647 235.338L188.536 235.208C185.852 235.151 183.711 232.952 183.711 230.258L183.779 155.283C183.779 152.522 186.035 150.297 188.791 150.339L194.835 150.438C197.523 150.485 199.68 152.684 199.68 155.382V230.389C199.68 233.16 197.409 235.39 194.647 235.333V235.338Z" fill="#E1F9FA"></path><path d="M216.285 235.338L210.168 235.208C207.485 235.151 205.344 232.952 205.344 230.258L205.411 135.979C205.411 133.218 207.668 130.988 210.424 131.035L216.468 131.134C219.156 131.181 221.313 133.374 221.313 136.078V230.394C221.313 233.166 219.041 235.395 216.28 235.338H216.285Z" fill="#E1F9FA"></path><path d="M237.918 235.341L231.801 235.211C229.117 235.154 226.976 232.955 226.976 230.261L227.044 121.628C227.044 118.867 229.3 116.637 232.056 116.684L238.1 116.783C240.788 116.83 242.945 119.023 242.945 121.727V230.397C242.945 233.169 240.674 235.404 237.912 235.341H237.918Z" fill="#26D0D8"></path><path d="M259.555 235.34L253.443 235.209C250.76 235.152 248.619 232.953 248.619 230.26L248.686 153.091C248.686 150.33 250.942 148.105 253.699 148.147L259.742 148.246C262.431 148.292 264.588 150.491 264.588 153.19V230.395C264.588 233.167 262.316 235.397 259.555 235.34Z" fill="#E1F9FA"></path><path d="M281.192 235.339L275.076 235.209C272.392 235.152 270.251 232.953 270.251 230.259L270.319 127.858C270.319 125.096 272.575 122.866 275.331 122.913L281.375 123.012C284.063 123.059 286.22 125.258 286.22 127.957V230.395C286.22 233.167 283.949 235.397 281.187 235.334L281.192 235.339Z" fill="#E1F9FA"></path><path d="M302.825 235.338L296.708 235.208C294.025 235.151 291.884 232.952 291.884 230.258L291.957 97.101C291.957 94.3396 294.213 92.1096 296.969 92.1565L303.013 92.2555C305.701 92.3024 307.858 94.5011 307.858 97.2V230.389C307.858 233.161 305.587 235.39 302.825 235.333V235.338Z" fill="#E1F9FA"></path><path d="M324.756 235.34L318.64 235.209C315.956 235.152 313.815 232.953 313.815 230.26L313.888 76.4384C313.888 73.677 316.144 71.447 318.9 71.4939L324.944 71.5929C327.632 71.6398 329.789 73.8385 329.789 76.5374V230.395C329.789 233.167 327.518 235.397 324.756 235.34Z" fill="#26D0D8"></path><path d="M374.494 24.7222H349.23C347.268 24.7222 345.677 26.3131 345.677 28.2755V28.2912C345.677 30.2536 347.268 31.8445 349.23 31.8445H374.494C376.457 31.8445 378.048 30.2536 378.048 28.2912V28.2755C378.048 26.3131 376.457 24.7222 374.494 24.7222Z" fill="#E1F9FA"></path><path d="M402.73 24.7222H390.762C388.799 24.7222 387.208 26.3131 387.208 28.2755V28.2912C387.208 30.2536 388.799 31.8445 390.762 31.8445H402.73C404.692 31.8445 406.283 30.2536 406.283 28.2912V28.2755C406.283 26.3131 404.692 24.7222 402.73 24.7222Z" fill="#E1F9FA"></path><path d="M403.155 40.4009H349.938C347.976 40.4009 346.385 41.9918 346.385 43.9542V43.9699C346.385 45.9323 347.976 47.5232 349.938 47.5232H403.155C405.118 47.5232 406.709 45.9323 406.709 43.9699V43.9542C406.709 41.9918 405.118 40.4009 403.155 40.4009Z" fill="#E1F9FA"></path><path d="M403.865 56.0723H361.923C359.96 56.0723 358.369 57.6632 358.369 59.6256V59.6413C358.369 61.6037 359.96 63.1946 361.923 63.1946H403.865C405.827 63.1946 407.418 61.6037 407.418 59.6413V59.6256C407.418 57.6632 405.827 56.0723 403.865 56.0723Z" fill="#E1F9FA"></path><path d="M396.826 71.7432H351.361C349.399 71.7432 347.808 73.3341 347.808 75.2965V75.3122C347.808 77.2746 349.399 78.8655 351.361 78.8655H396.826C398.788 78.8655 400.379 77.2746 400.379 75.3122V75.2965C400.379 73.3341 398.788 71.7432 396.826 71.7432Z" fill="#E1F9FA"></path><path d="M402.865 86.9932H362.246C360.283 86.9932 358.692 88.5841 358.692 90.5465V90.5622C358.692 92.5246 360.283 94.1155 362.246 94.1155H402.865C404.827 94.1155 406.418 92.5246 406.418 90.5622V90.5465C406.418 88.5841 404.827 86.9932 402.865 86.9932Z" fill="#E1F9FA"></path><path d="M340.479 113.679C346.219 102.991 342.266 89.7048 331.649 84.0026C321.033 78.3005 307.773 82.342 302.032 93.0296C296.292 103.717 300.245 117.004 310.862 122.706C321.479 128.408 334.738 124.367 340.479 113.679Z" fill="white"></path><path d="M321.173 126.107C315.181 126.107 309.549 123.783 305.308 119.552C301.02 115.275 298.66 109.57 298.67 103.484C298.686 90.9588 308.851 80.7259 321.329 80.6738H321.433C327.425 80.6738 333.057 82.9976 337.298 87.2283C341.586 91.5059 343.947 97.211 343.936 103.297C343.921 115.822 333.756 126.055 321.277 126.107C321.241 126.107 321.209 126.107 321.173 126.107ZM300.228 103.489C300.223 109.153 302.416 114.467 306.407 118.448C310.356 122.382 315.593 124.549 321.173 124.549C321.204 124.549 321.235 124.549 321.267 124.549C332.885 124.497 342.352 114.962 342.368 103.297C342.373 97.6331 340.18 92.3187 336.189 88.338C332.239 84.4043 327.003 82.2369 321.428 82.2369H321.334C309.716 82.289 300.249 91.8237 300.233 103.489H300.228Z" fill="#24AFB5"></path><path d="M332.384 93.2054L325.726 97.1339C325.382 97.3371 325.371 97.832 325.705 98.0509L326.69 98.6865C326.94 98.848 327.013 99.1815 326.851 99.4316L323.761 104.267C323.6 104.517 323.272 104.59 323.022 104.428L317.296 100.739C317.045 100.578 316.712 100.651 316.556 100.901L309.663 111.623C309.501 111.874 309.574 112.207 309.824 112.369L311.919 113.718C312.169 113.879 312.502 113.807 312.658 113.556L317.629 105.845C317.791 105.595 318.119 105.522 318.369 105.684L324.095 109.373C324.345 109.534 324.678 109.461 324.835 109.211L329.842 101.375C330.003 101.125 330.337 101.052 330.582 101.213L331.645 101.901C331.983 102.12 332.431 101.901 332.468 101.5L333.182 93.7316C333.223 93.2939 332.754 92.997 332.374 93.2158L332.384 93.2054Z" fill="#26D0D8"></path><path d="M82.3376 233.025V247.134C82.3376 267.35 98.2391 283.741 117.856 283.741C137.472 283.741 153.374 300.133 153.374 320.348C153.374 322.151 151.92 323.61 150.128 323.61H56.1094C26.7029 323.61 2.86621 299.039 2.86621 268.731V231.186C2.86621 219.129 12.3488 209.36 24.0457 209.36H59.3814C72.063 209.36 82.3428 219.958 82.3428 233.025H82.3376Z" fill="#26D0D8"></path><path d="M82.472 427.715H92.3662L92.3662 320.447H82.472L82.472 427.715Z" fill="#26D0D8"></path><path d="M133.803 426.127L90.0059 422.266H85.994L41.2852 426.127V429.191H133.803V426.127Z" fill="#26D0D8"></path><path d="M71.4985 325.498L58.0874 334.511L64.8815 342.566L80.3298 334.996L71.4985 325.498Z" fill="white"></path><path d="M64.8827 343.348C64.6586 343.348 64.4398 343.249 64.2835 343.072L57.4893 335.012C57.3487 334.84 57.2809 334.621 57.3122 334.397C57.3435 334.178 57.4633 333.98 57.6509 333.855L71.0672 324.847C71.385 324.633 71.8122 324.68 72.0779 324.961L80.9041 334.459C81.0708 334.642 81.1437 334.892 81.1021 335.132C81.0552 335.376 80.8988 335.58 80.68 335.689L65.2317 343.259C65.1223 343.312 65.0025 343.338 64.8879 343.338L64.8827 343.348ZM59.2452 334.673L65.0859 341.597L79.0388 334.756L71.3798 326.519L59.2452 334.673Z" fill="#24AFB5"></path><path d="M60.3933 330.444C58.3717 331.69 54.6672 334.065 51.6245 336.53C49.7175 338.077 49.2903 340.828 50.6033 342.912C54.3025 348.805 63.4986 361.513 72.8926 371.037C73.5335 371.688 75.0705 372.512 77.1077 371.407C84.0946 367.609 76.6335 355.719 71.6213 340.448L68.0262 340.047C66.1141 339.833 64.5198 338.489 63.9727 336.634L62.3784 331.215C62.1283 330.366 61.1436 329.986 60.3933 330.444Z" fill="#26D0D8"></path><path d="M75.1434 372.725C73.9399 372.725 72.9499 372.209 72.3351 371.584C62.9411 362.06 53.7972 349.472 49.9416 343.329C48.415 340.896 48.9256 337.713 51.1348 335.925C54.2296 333.414 58.007 330.997 59.9869 329.777C60.5548 329.428 61.2321 329.366 61.8522 329.605C62.4774 329.845 62.9411 330.351 63.1287 330.991L64.723 336.41C65.1815 337.963 66.5101 339.083 68.1148 339.265L72.2101 339.724L72.3664 340.203C73.6116 344.006 75.0444 347.68 76.3105 350.92C80.2286 360.976 83.3287 368.922 77.4828 372.095C76.6492 372.548 75.8624 372.73 75.1434 372.73V372.725ZM60.8049 331.111C58.8615 332.31 55.1466 334.685 52.1195 337.139C50.5252 338.432 50.1605 340.734 51.265 342.501C55.0841 348.581 64.1447 361.06 73.4501 370.49C73.6637 370.709 74.8413 371.751 76.7378 370.719C81.3697 368.203 78.6395 361.19 74.8517 351.488C73.6325 348.362 72.257 344.84 71.0378 341.167L67.9377 340.818C65.7077 340.568 63.8581 339.01 63.2224 336.853L61.6282 331.434C61.576 331.262 61.4562 331.127 61.2895 331.064C61.1957 331.028 61.0029 330.986 60.8049 331.111Z" fill="#24AFB5"></path><path d="M52.0883 336.164C52.0883 336.164 51.7757 336.408 51.6298 336.534C49.7229 338.081 49.2957 340.832 50.6087 342.916C54.3079 348.809 63.504 361.516 72.898 371.041C73.5388 371.692 75.0758 372.515 77.113 371.411C77.7382 371.072 78.65 370.202 78.65 370.202L78.0144 369.504C68.9486 359.526 60.6227 348.892 53.1095 337.69L52.0936 336.174L52.0883 336.164Z" fill="white"></path><path d="M75.1434 372.724C73.9399 372.724 72.9499 372.208 72.3351 371.583C62.9411 362.059 53.7972 349.471 49.9416 343.328C48.415 340.895 48.9256 337.712 51.1348 335.925C51.2859 335.805 51.5985 335.555 51.5985 335.555C51.7704 335.419 51.9892 335.362 52.2028 335.393C52.4164 335.424 52.6092 335.549 52.7343 335.732L53.7503 337.248C61.2218 348.382 69.5789 359.053 78.5874 368.973L79.223 369.671C79.5096 369.984 79.4887 370.468 79.1813 370.765C79.0823 370.859 78.1705 371.719 77.4776 372.094C76.6439 372.547 75.8572 372.729 75.1382 372.729L75.1434 372.724ZM51.9163 337.31C50.4939 338.629 50.2074 340.812 51.265 342.495C55.0841 348.575 64.1447 361.053 73.4501 370.484C73.6637 370.703 74.8413 371.745 76.7378 370.713C76.967 370.588 77.2692 370.354 77.5401 370.13L77.4359 370.015C68.3754 360.043 59.9713 349.304 52.4581 338.108L51.9215 337.305L51.9163 337.31Z" fill="#24AFB5"></path><path d="M74.0594 349.994C74.0594 349.994 74.0178 349.994 73.9969 349.994L67.1767 349.452C66.7443 349.416 66.4264 349.04 66.4577 348.613C66.4889 348.181 66.8694 347.863 67.2966 347.894L74.1167 348.436C74.5492 348.473 74.867 348.848 74.8358 349.275C74.8045 349.687 74.4606 349.994 74.0594 349.994Z" fill="#24AFB5"></path><path d="M69.7034 354.73C69.271 354.73 68.9219 354.381 68.9219 353.948C68.9219 353.516 69.271 353.167 69.7034 353.167L76.362 353.146C76.8153 353.146 77.1435 353.495 77.1435 353.928C77.1435 354.36 76.7945 354.709 76.362 354.709L69.7034 354.73Z" fill="#24AFB5"></path><path d="M167.237 266.277C172.745 266.298 191.423 269.404 191.965 286.509C192.153 292.339 196.816 303.098 161.887 309.918C120.236 318.056 89.2562 333.885 82.2745 337.652C81.2585 338.199 80.0653 338.324 78.9607 337.98C75.4647 336.907 68.0923 333.911 67.1701 327.576C66.9617 326.153 67.5973 324.741 68.754 323.897L77.3508 317.645L69.1968 313.279C59.8914 308.298 52.5294 300.097 49.1896 290.046C46.199 281.059 44.7192 265.678 44.7192 265.678L167.232 266.272L167.237 266.277Z" fill="#24AFB5"></path><path d="M320.902 429.837L285.587 307.408L250.267 429.837H241.801L280.606 291.688L290.563 291.673L329.369 429.837H320.902Z" fill="white"></path><path d="M173.475 398.883C174.809 403.9 175.143 409.131 174.465 414.279L194.514 410.929C189.554 409.063 185.756 404.968 184.261 399.873L183.114 395.98L173.47 398.883H173.475Z" fill="white"></path><path d="M174.464 415.06C174.261 415.06 174.068 414.982 173.922 414.842C173.745 414.67 173.657 414.425 173.693 414.18C174.36 409.105 174.037 404.03 172.724 399.086C172.615 398.679 172.849 398.257 173.256 398.138L182.9 395.235C183.098 395.173 183.316 395.199 183.499 395.298C183.681 395.397 183.817 395.564 183.874 395.767L185.02 399.659C186.443 404.494 190.1 408.438 194.8 410.204C195.133 410.329 195.336 410.658 195.305 411.012C195.269 411.366 195.003 411.648 194.654 411.705L174.605 415.055C174.563 415.06 174.522 415.066 174.475 415.066L174.464 415.06ZM174.417 399.414C175.543 403.983 175.861 408.657 175.366 413.336L191.898 410.574C187.881 408.339 184.827 404.562 183.509 400.091L182.587 396.955L174.417 399.414Z" fill="#24AFB5"></path><path d="M173.729 407.832C173.083 410.333 171.755 417.372 171.228 421.602C170.895 424.254 172.63 426.724 175.214 427.365C182.524 429.173 199.9 428.73 214.379 429.069C215.369 429.089 217.188 428.574 217.948 426.167C220.564 417.919 204.939 415.762 189.579 407.618C189.579 407.618 188.693 408.368 187.375 409.082C185.166 410.281 181.539 410.176 179.356 408.931L175.86 406.936C175.027 406.462 173.974 406.904 173.735 407.837L173.729 407.832Z" fill="#26D0D8"></path><path d="M214.436 429.851C214.41 429.851 214.379 429.851 214.353 429.851C210.649 429.763 206.704 429.731 202.885 429.695C191.397 429.591 180.544 429.492 175.021 428.127C172.036 427.387 170.071 424.542 170.452 421.51C170.978 417.294 172.301 410.24 172.974 407.64C173.151 406.957 173.62 406.41 174.266 406.139C174.912 405.868 175.631 405.91 176.24 406.259L179.736 408.255C181.727 409.391 185.046 409.458 186.994 408.401C188.219 407.734 189.057 407.03 189.068 407.025L189.469 406.687L189.938 406.931C194.679 409.443 199.478 411.397 203.714 413.121C213.207 416.982 220.709 420.035 218.688 426.407C217.88 428.96 215.916 429.856 214.436 429.856V429.851ZM174.484 408.031C173.828 410.563 172.51 417.649 171.999 421.702C171.718 423.953 173.177 426.058 175.396 426.61C180.742 427.934 192.006 428.033 202.901 428.132C206.725 428.168 210.675 428.199 214.389 428.288C214.728 428.293 216.474 428.22 217.198 425.933C218.709 421.166 213.123 418.634 203.125 414.564C198.988 412.881 194.32 410.98 189.657 408.547C189.25 408.849 188.578 409.318 187.739 409.771C185.337 411.074 181.404 411.001 178.96 409.609L175.464 407.614C175.282 407.51 175.063 407.494 174.87 407.577C174.677 407.661 174.531 407.822 174.479 408.031H174.484Z" fill="#24AFB5"></path><path d="M170.825 423.526C170.815 423.599 170.804 423.651 170.799 423.672C170.466 426.324 173.024 427.897 175.462 428.976C182.835 432.238 212.72 429.56 212.72 429.56C212.72 429.56 216.727 429.601 217.79 427.189C217.946 426.835 218.019 426.308 218.056 425.871C218.092 425.397 218.05 424.922 217.936 424.464L217.67 423.38C213.601 425.006 195.292 426.241 182.006 424.589C176.431 423.896 173.206 421.484 171.346 420.562C171.346 420.562 171.086 422.01 170.82 423.526H170.825Z" fill="white"></path><path d="M190.77 431.383C184.241 431.383 178.057 430.987 175.144 429.695C172.748 428.637 169.616 426.85 170.023 423.578C170.023 423.552 170.038 423.485 170.054 423.396C170.32 421.875 170.58 420.431 170.58 420.431C170.622 420.192 170.778 419.983 170.997 419.869C171.216 419.759 171.476 419.759 171.695 419.869C172.07 420.056 172.477 420.286 172.951 420.556C174.863 421.64 177.744 423.281 182.105 423.823C195.251 425.459 213.393 424.256 217.384 422.667C217.592 422.583 217.832 422.594 218.03 422.698C218.233 422.802 218.379 422.984 218.431 423.208L218.697 424.287C218.832 424.844 218.879 425.402 218.837 425.944C218.785 426.611 218.67 427.142 218.509 427.517C217.3 430.253 213.247 430.352 212.757 430.357C211.746 430.445 200.846 431.394 190.77 431.394V431.383ZM171.591 423.662L171.57 423.776C171.356 425.501 172.649 426.887 175.775 428.268C182.882 431.409 212.35 428.815 212.647 428.789C212.674 428.789 212.7 428.789 212.726 428.789C213.7 428.804 216.373 428.466 217.076 426.882C217.118 426.783 217.222 426.486 217.279 425.814C217.311 425.438 217.279 425.048 217.18 424.657L217.118 424.396C211.73 425.902 194.511 426.939 181.918 425.376C177.249 424.798 174.201 423.063 172.185 421.916C172.102 421.869 172.018 421.822 171.935 421.776C171.841 422.307 171.721 422.979 171.601 423.672L171.591 423.662Z" fill="#24AFB5"></path><path d="M191.241 415.19C191.011 415.19 190.782 415.091 190.626 414.893C190.36 414.555 190.418 414.065 190.756 413.794L195.075 410.376C195.414 410.11 195.904 410.168 196.175 410.506C196.441 410.845 196.383 411.335 196.045 411.606L191.725 415.023C191.579 415.138 191.413 415.19 191.241 415.19Z" fill="#24AFB5"></path><path d="M197.118 417.451C196.884 417.451 196.654 417.347 196.503 417.149C196.238 416.81 196.3 416.315 196.639 416.05L200.416 413.106C200.755 412.84 201.25 412.903 201.516 413.241C201.781 413.58 201.719 414.075 201.38 414.341L197.603 417.284C197.462 417.394 197.29 417.451 197.123 417.451H197.118Z" fill="#24AFB5"></path><path d="M131.282 292.996C131.282 292.996 146.548 296.367 157.906 304.229C167.748 311.039 178.132 324.069 187.583 392.339C188.219 396.924 184.306 400.206 181.628 400.831C177.835 401.717 174.719 401.368 171.515 399.289C166.049 395.741 145.427 343.233 133.137 332.088C120.846 320.943 68.9207 318.562 58.9014 304.38C48.8874 290.198 73.4692 290.198 73.4692 290.198L131.277 292.996H131.282Z" fill="#24AFB5"></path><path d="M103.013 329.374C102.726 329.374 102.445 329.212 102.31 328.936C102.122 328.551 102.278 328.082 102.669 327.889C103.669 327.399 104.639 326.925 105.571 326.461C117.93 320.371 125.391 316.697 147.993 312.738C148.42 312.665 148.821 312.946 148.899 313.373C148.972 313.8 148.691 314.202 148.264 314.28C125.881 318.198 118.498 321.835 106.264 327.863C105.326 328.327 104.362 328.801 103.357 329.29C103.247 329.343 103.128 329.369 103.013 329.369V329.374Z" fill="#E1F9FA"></path><path d="M139.648 273.885H243.045V275.719C243.045 277.783 241.372 279.455 239.309 279.455H143.384C141.32 279.455 139.648 277.783 139.648 275.719V273.885Z" fill="#26D0D8"></path><path d="M239.31 280.237H143.384C140.894 280.237 138.867 278.211 138.867 275.72V273.886C138.867 273.454 139.216 273.104 139.649 273.104H243.045C243.478 273.104 243.827 273.454 243.827 273.886V275.72C243.827 278.211 241.8 280.237 239.31 280.237ZM140.43 274.662V275.715C140.43 277.346 141.754 278.669 143.384 278.669H239.31C240.94 278.669 242.264 277.346 242.264 275.715V274.662H140.43Z" fill="#24AFB5"></path><path d="M243.052 273.984H183.89L201.397 222.325C202.522 220.585 204.481 219.532 206.586 219.532H256.599C258.865 219.532 260.329 221.741 259.589 223.695C259.292 224.472 243.052 273.984 243.052 273.984Z" fill="#26D0D8"></path><path d="M243.052 274.766H183.89C183.64 274.766 183.4 274.647 183.254 274.438C183.108 274.235 183.067 273.969 183.15 273.73L200.656 222.07C200.677 222.008 200.703 221.951 200.74 221.898C202.016 219.929 204.199 218.751 206.585 218.751H256.598C257.932 218.751 259.13 219.371 259.876 220.455C260.595 221.497 260.761 222.81 260.318 223.972C260.047 224.707 249.393 257.166 243.797 274.23C243.693 274.553 243.39 274.766 243.052 274.766ZM184.979 273.203H242.489C244.344 267.556 258.573 224.165 258.86 223.42C259.12 222.737 259.016 221.961 258.589 221.341C258.14 220.69 257.411 220.315 256.598 220.315H206.585C204.762 220.315 203.095 221.195 202.105 222.67L184.984 273.203H184.979Z" fill="#24AFB5"></path><path d="M239.288 269.16H190.604L205.609 224.456L254.148 224.389L239.288 269.16Z" fill="white"></path><path d="M203.663 263.552H197.979L199.73 258.332L205.404 258.321L203.663 263.552Z" fill="#E1F9FA"></path><path d="M214.224 263.553H208.128L212.719 249.882L218.768 249.861L214.224 263.553Z" fill="#26D0D8"></path><path d="M226.021 263.554H219.466L228.537 236.513L235.014 236.476L226.021 263.554Z" fill="#26D0D8"></path><path d="M22.9741 203.404C25.5584 197.694 32.4306 194.01 37.7763 191.91C41.4704 190.462 45.3884 189.675 49.3482 189.519L63.3585 188.967C68.652 188.586 74.8887 188.831 81.6932 190.045C90.7382 191.655 98.8505 196.61 104.618 203.785C107.229 207.03 109.526 209.839 109.714 209.896C117.289 220.577 118.316 222.458 123.792 226.439C132.936 233.092 148.941 227.668 148.941 227.668C154.271 226.866 156.21 230.862 157.179 233.087C158.346 235.754 157.215 239.011 156.189 241.1C155.532 242.439 154.407 243.481 153.031 244.044C146.17 246.852 122.828 255.6 112.126 249.515C103.206 244.44 97.2145 233.847 92.4367 228.642C91.9521 228.116 91.0872 228.507 91.1497 229.216C92.1605 240.907 101.758 254.782 104.681 258.768C105.202 259.482 105.994 259.94 106.869 260.039L127.991 262.452C128.278 262.472 128.596 262.592 128.913 262.764C130.299 263.509 131.195 264.921 131.409 266.484C131.743 268.98 131.534 273.659 130.768 275.17L130.044 276.597C129.46 277.749 128.288 278.489 127.001 278.509C115.778 278.692 65.1873 278.713 51.4427 278.634C38.8809 278.562 33.8322 272.346 27.1266 254.756C24.4642 247.769 16.081 218.639 22.9741 203.404Z" fill="white"></path><path d="M77.0609 279.465C66.1351 279.465 56.418 279.449 51.4319 279.423C37.9322 279.345 32.795 271.842 26.3916 255.044C23.724 248.042 15.1948 218.698 22.2599 203.088C24.9536 197.133 32.029 193.335 37.4893 191.193C41.2146 189.729 45.1953 188.906 49.3165 188.744L63.3268 188.192C69.0893 187.775 75.4978 188.15 81.8282 189.281C90.9565 190.907 99.2616 195.888 105.227 203.302C108.817 207.762 109.817 208.913 110.099 209.2L110.198 209.231L110.354 209.45C111.13 210.544 111.839 211.549 112.49 212.472C118.107 220.422 119.441 222.314 124.255 225.815C132.972 232.156 148.54 226.987 148.696 226.935L148.832 226.904C154.928 225.987 157.09 230.921 157.903 232.781C159.174 235.678 158.054 239.096 156.897 241.451C156.157 242.957 154.891 244.134 153.333 244.775C148.113 246.911 133.566 252.392 121.973 252.392C118.076 252.392 114.512 251.772 111.745 250.199C105.253 246.505 100.283 239.956 96.2866 234.693C94.7391 232.651 93.2699 230.723 91.9413 229.259C92.9885 240.716 102.435 254.383 105.311 258.311C105.701 258.848 106.306 259.197 106.962 259.27L128.085 261.682C128.434 261.708 128.835 261.838 129.283 262.078C130.851 262.922 131.935 264.527 132.18 266.382C132.508 268.846 132.352 273.77 131.461 275.526L130.737 276.953C130.018 278.37 128.59 279.267 127.011 279.293C119.858 279.407 96.5419 279.459 77.0661 279.459L77.0609 279.465ZM23.6822 203.729C16.909 218.698 25.3912 248.026 27.8504 254.482C34.8217 272.764 39.8912 277.792 51.4423 277.855C65.3067 277.933 115.82 277.912 126.98 277.73C127.98 277.714 128.887 277.146 129.34 276.25L130.064 274.822C130.731 273.509 130.95 269.002 130.627 266.59C130.445 265.23 129.663 264.058 128.538 263.454C128.21 263.276 128.017 263.24 127.928 263.235L106.775 260.817C105.686 260.692 104.691 260.114 104.045 259.228C101.096 255.206 91.3942 241.164 90.3678 229.28C90.3105 228.613 90.6647 228.014 91.2743 227.743C91.8787 227.477 92.5561 227.618 93.0094 228.107C94.4109 229.634 95.9219 231.624 97.5266 233.74C101.434 238.887 106.301 245.296 112.511 248.829C122.89 254.737 145.924 246.104 152.734 243.316C153.938 242.821 154.917 241.915 155.49 240.753C156.501 238.695 157.496 235.746 156.47 233.401C155.245 230.598 153.411 227.821 149.129 228.436C147.816 228.873 132.487 233.735 123.338 227.076C118.321 223.424 116.955 221.496 111.219 213.373C110.583 212.472 109.89 211.492 109.135 210.429C108.676 210.012 107.577 208.71 104.013 204.281C98.2873 197.159 90.3157 192.381 81.5626 190.818C75.3572 189.713 69.0788 189.344 63.4206 189.75L49.3843 190.302C45.4349 190.458 41.6262 191.245 38.0624 192.642C32.8731 194.679 26.1623 198.253 23.6875 203.729H23.6822Z" fill="#24AFB5"></path><path d="M160.766 279.048H136.252V279.032C136.252 274.864 139.638 271.477 143.806 271.477H153.211C157.379 271.477 160.766 274.864 160.766 279.032V279.048Z" fill="#26D0D8"></path><path d="M160.765 279.83H136.251C135.818 279.83 135.469 279.481 135.469 279.049V279.033C135.469 274.438 139.21 270.697 143.806 270.697H153.21C157.805 270.697 161.546 274.438 161.546 279.033C161.546 279.466 161.197 279.83 160.765 279.83ZM137.074 278.267H159.936C159.551 274.886 156.68 272.26 153.21 272.26H143.806C140.33 272.26 137.46 274.891 137.074 278.267Z" fill="#24AFB5"></path><path d="M125.63 267.474C126.062 266.625 126.792 265.947 127.688 265.624C128.329 265.395 128.959 265.088 129.564 264.765L137.905 260.326C139.468 259.56 141.703 261.347 143.324 261.884C148.221 263.493 158.355 267.292 157.522 270.861C156.62 274.711 147.909 272.887 144.819 272.111C144.111 271.934 137.712 274.258 135.691 274.414C132.893 274.628 132.247 273.914 130.882 273.195C130.257 272.867 129.564 272.721 128.813 272.716C127.662 272.71 126.563 272.226 125.844 271.319L125.828 271.298C125.031 270.303 124.895 268.933 125.474 267.797L125.635 267.474H125.63Z" fill="white"></path><path d="M134.769 275.232C132.878 275.232 132.013 274.732 131.096 274.211C130.914 274.107 130.721 273.998 130.513 273.888C130.023 273.628 129.46 273.503 128.799 273.497C127.376 273.487 126.074 272.872 125.224 271.809C124.224 270.554 124.052 268.85 124.766 267.443L124.927 267.12C125.464 266.068 126.35 265.276 127.418 264.89C127.939 264.702 128.502 264.442 129.189 264.077L137.531 259.638C139 258.919 140.636 259.742 142.085 260.472C142.621 260.743 143.132 260.998 143.564 261.139C154.058 264.593 159.007 267.922 158.278 271.038C158.075 271.913 157.554 272.606 156.741 273.107C153.922 274.826 148.003 273.716 144.684 272.888C144.252 272.914 142.553 273.419 141.178 273.826C139.063 274.456 136.874 275.107 135.744 275.196C135.389 275.222 135.066 275.238 134.764 275.238L134.769 275.232ZM138.771 260.925C138.578 260.925 138.406 260.956 138.255 261.035L129.934 265.463C129.179 265.864 128.554 266.151 127.954 266.365C127.262 266.615 126.683 267.136 126.329 267.834L126.167 268.157C125.73 269.017 125.834 270.064 126.438 270.814C127.011 271.528 127.871 271.929 128.819 271.934C129.721 271.939 130.539 272.132 131.247 272.507C131.471 272.627 131.68 272.747 131.878 272.862C132.831 273.409 133.519 273.805 135.629 273.643C136.593 273.57 138.891 272.888 140.735 272.335C143.71 271.45 144.523 271.241 145.007 271.361C150.155 272.653 154.24 272.81 155.928 271.778C156.381 271.502 156.652 271.148 156.757 270.689C157.225 268.688 151.854 265.526 143.08 262.634C142.538 262.457 141.98 262.176 141.386 261.873C140.495 261.425 139.511 260.925 138.766 260.925H138.771Z" fill="#24AFB5"></path><path d="M186.865 234.19C187.339 233.622 187.13 232.752 186.453 232.455L171.651 225.968C169.551 225.046 167.191 224.958 165.06 225.734C162.871 226.531 159.725 227.584 156.109 228.501C146.788 230.866 146.089 243.173 155.728 238.431C158.797 236.926 160.636 235.784 160.636 235.784C160.61 235.795 164.138 240.526 169.785 238.39C172.359 237.415 174 236.253 174.97 235.383C175.793 234.649 176.929 234.378 177.992 234.654C180.545 235.321 184.291 237.285 186.854 234.19H186.865Z" fill="white"></path><path d="M151.91 240.292C150.758 240.292 149.956 239.933 149.414 239.511C148.226 238.588 147.768 236.984 148.158 235.103C148.752 232.268 151.378 228.892 155.916 227.741C159.584 226.813 162.768 225.735 164.789 225C167.113 224.156 169.661 224.245 171.964 225.25L186.766 231.737C187.313 231.977 187.709 232.451 187.85 233.04C187.99 233.623 187.85 234.227 187.464 234.686C184.979 237.682 181.577 236.593 179.097 235.796C178.633 235.65 178.195 235.509 177.799 235.405C176.981 235.191 176.122 235.4 175.496 235.962C174.527 236.833 172.797 238.083 170.067 239.115C165.857 240.704 162.731 238.802 161.241 237.526C160.913 237.244 160.658 237.004 160.465 236.796C159.683 237.249 158.167 238.104 156.083 239.13C154.343 239.985 152.978 240.292 151.915 240.292H151.91ZM168.051 225.985C167.129 225.985 166.206 226.146 165.326 226.464C163.268 227.214 160.032 228.309 156.302 229.252C152.415 230.236 150.18 233.06 149.69 235.421C149.424 236.692 149.674 237.734 150.373 238.276C151.337 239.021 153.165 238.823 155.39 237.729C158.381 236.259 160.215 235.129 160.236 235.118C160.517 234.946 160.876 234.967 161.137 235.17C161.21 235.228 161.267 235.296 161.314 235.368C161.507 235.619 164.586 239.521 169.52 237.656C172.026 236.708 173.589 235.577 174.459 234.801C175.475 233.889 176.877 233.55 178.2 233.899C178.638 234.014 179.097 234.16 179.576 234.316C182.431 235.228 184.583 235.723 186.266 233.696C186.354 233.587 186.344 233.467 186.334 233.409C186.318 233.347 186.276 233.238 186.146 233.18L171.344 226.693C170.286 226.23 169.171 225.995 168.056 225.995L168.051 225.985Z" fill="#24AFB5"></path><path d="M164.555 234.667C163.065 234.667 161.752 233.729 161.121 233.026C160.83 232.708 160.856 232.213 161.179 231.922C161.497 231.63 161.992 231.656 162.283 231.979C162.351 232.052 164.044 233.865 165.712 232.729C166.91 231.916 168.676 231.234 170.047 231.77C173.063 232.943 174.236 232.37 174.434 232.047C174.647 231.63 174.569 231.411 174.548 231.343C174.439 231.025 174.032 230.692 173.402 230.4L169.176 228.67C168.775 228.509 168.588 228.05 168.749 227.649C168.911 227.248 169.369 227.06 169.77 227.222L174.027 228.962C175.111 229.462 175.773 230.082 176.028 230.827C176.236 231.437 176.168 232.088 175.825 232.76C175.726 232.984 174.553 235.199 169.479 233.224C168.833 232.974 167.645 233.302 166.592 234.021C165.91 234.485 165.217 234.667 164.56 234.667H164.555Z" fill="#24AFB5"></path><path d="M106.869 260.822C106.832 260.822 106.801 260.822 106.764 260.816C105.493 260.644 103.883 260.483 102.013 260.3C93.8431 259.488 81.4896 258.263 69.6989 253.626C55.4177 248.01 46.1071 238.84 42.0327 226.377C41.8972 225.965 42.1212 225.528 42.5328 225.392C42.9445 225.257 43.3821 225.481 43.5176 225.892C52.6511 253.835 86.0902 257.148 102.164 258.743C104.045 258.93 105.67 259.092 106.968 259.264C107.395 259.321 107.697 259.717 107.64 260.144C107.588 260.535 107.249 260.822 106.869 260.822Z" fill="#24AFB5"></path><path d="M65.8807 184.929C66.1099 184.132 66.8185 183.569 67.6365 183.532L73.7898 183.329C74.5766 183.298 75.2435 182.735 75.431 181.964L77.0931 174.936L79.8649 173.675C80.0838 173.576 80.1827 173.32 80.0889 173.102L77.9111 167.855C77.265 165.927 77.2807 161.785 76.2803 161.764C76.2803 161.764 57.4871 153.558 53.4022 162.942C52.7874 164.359 52.7509 165.969 53.2407 167.438L54.2411 170.434C55.2414 173.43 55.2466 176.723 54.0222 179.64C53.7669 180.245 52.8135 182.219 51.2452 184.59C49.927 186.586 47.1656 188.659 45.1805 189.988C44.0603 190.738 43.9874 192.369 45.0398 193.223C47.077 194.87 50.1459 197.183 52.3602 198.085C57.5913 200.2 60.2276 200.747 62.9005 200.45C65.5004 200.163 66.9696 197.496 66.0735 195.031C64.2082 189.91 65.8755 184.934 65.8755 184.934L65.8807 184.929Z" fill="white"></path><path d="M61.5673 201.3C59.1237 201.3 56.4769 200.581 52.069 198.799C49.7974 197.882 46.7234 195.585 44.5455 193.824C43.8473 193.261 43.4722 192.422 43.5139 191.526C43.5556 190.63 44.0036 189.833 44.7435 189.332C46.7286 187.999 49.3545 186.024 50.5893 184.153C52.1263 181.83 53.0642 179.886 53.2935 179.334C54.4032 176.692 54.4762 173.618 53.4915 170.68L52.4911 167.684C51.9284 165.996 51.9909 164.203 52.6734 162.63C53.5175 160.692 54.9868 159.301 57.0396 158.493C63.8754 155.805 75.1347 160.431 76.4633 160.999C77.5887 161.182 77.8283 162.854 78.1253 164.943C78.266 165.912 78.4067 166.918 78.6255 167.58L80.7929 172.8C81.0482 173.415 80.7721 174.108 80.1677 174.384L77.745 175.484L76.1715 182.142C75.911 183.252 74.9367 184.065 73.8061 184.112L67.6476 184.315C67.1682 184.336 66.7514 184.669 66.6159 185.143C66.6159 185.154 66.6107 185.164 66.6055 185.175C66.5899 185.221 65.0529 189.968 66.7983 194.756C67.3297 196.22 67.1787 197.794 66.3815 199.075C65.6312 200.279 64.3912 201.061 62.974 201.217C62.4999 201.269 62.031 201.295 61.5516 201.295L61.5673 201.3ZM62.0257 159.212C57.9357 159.212 55.2837 160.562 54.1114 163.25C53.58 164.469 53.5331 165.866 53.976 167.184L54.9764 170.18C56.0809 173.478 55.9975 176.942 54.7366 179.938C54.4292 180.673 53.4341 182.679 51.8919 185.018C50.5112 187.102 47.7133 189.223 45.6084 190.635C45.2854 190.854 45.0874 191.203 45.0665 191.599C45.0509 191.995 45.2124 192.365 45.5198 192.61C48.4792 195.006 51.0114 196.689 52.6422 197.351C57.6336 199.367 60.197 199.956 62.8021 199.664C63.7504 199.56 64.5527 199.06 65.0529 198.252C65.5947 197.382 65.6938 196.298 65.329 195.293C63.4325 190.077 64.9904 185.086 65.1206 184.7C65.4489 183.585 66.4388 182.804 67.5903 182.757L73.7487 182.554C74.1759 182.538 74.5511 182.22 74.6553 181.788L76.3174 174.759C76.3747 174.525 76.5362 174.327 76.755 174.228L79.2299 173.103L77.1771 168.153C77.1771 168.153 77.1614 168.122 77.1562 168.101C76.8905 167.304 76.7342 166.215 76.5831 165.162C76.4528 164.256 76.26 162.906 76.036 162.51C76.0099 162.5 75.9839 162.489 75.9527 162.479C75.9058 162.458 71.2582 160.447 66.2043 159.598C64.6725 159.342 63.2762 159.212 62.0206 159.212H62.0257Z" fill="#24AFB5"></path><path d="M81.5038 146.917C77.096 145.318 81.3579 151.653 66.2066 141.816C60.1732 137.898 61.2205 146.672 59.6522 145.662C53.8636 141.926 54.0616 142.046 50.7271 141.941C48.518 141.874 46.064 145.281 45.6055 148.235C45.0063 152.138 48.4971 161.532 51.2273 168.727C52.634 172.432 57.7765 174.323 60.0586 169.962C60.689 168.758 57.9953 164.939 60.0794 163.376C63.9141 160.505 64.0027 166.476 66.9726 165.653C69.8226 164.861 71.1095 164.179 74.3346 162.652C78.2371 160.802 82.0509 166.706 85.7241 160.98C87.6415 157.994 87.5372 149.1 81.5038 146.912V146.917Z" fill="#24AFB5"></path><path d="M80.6328 428.847L45.3179 306.401L9.99785 428.847H1.53125L40.337 290.682L50.2937 290.667L89.0993 428.847H80.6328Z" fill="white"></path><path d="M90.1313 429.629H80.0444L79.8828 429.066L45.3183 309.221L10.587 429.629H0.5L39.7434 289.901L50.8828 289.886L51.0443 290.459L90.1313 429.634V429.629ZM81.2219 428.066H88.0681L49.7001 291.449L40.9312 291.459L2.56329 428.066H9.40945L45.3131 303.578L81.2167 428.066H81.2219Z" fill="#24AFB5"></path><path d="M1.45297 292.751L328.451 292.751V279.445L1.45297 279.445V292.751Z" fill="white"></path><path d="M329.234 293.535H0.678223V278.665H329.234V293.535ZM2.24129 291.971H327.671V280.228H2.24129V291.971Z" fill="#24AFB5"></path><path d="M80.3621 290.408C79.9297 290.408 79.5806 290.059 79.5806 289.627V282.218C79.5806 281.785 79.9297 281.436 80.3621 281.436C80.7945 281.436 81.1436 281.785 81.1436 282.218V289.627C81.1436 290.059 80.7945 290.408 80.3621 290.408Z" fill="#26D0D8"></path><path d="M260.742 398.044L262.638 419.583L242.318 421.724L248.628 413.096C250.311 410.793 250.889 407.855 250.201 405.083L248.477 398.127L260.742 398.039V398.044Z" fill="white"></path><path d="M240.645 422.69L247.996 412.639C249.549 410.518 250.075 407.835 249.439 405.277L247.475 397.363L261.454 397.264L263.481 420.288L240.645 422.695V422.69ZM249.471 398.91L250.956 404.902C251.701 407.908 251.081 411.066 249.257 413.561L243.99 420.762L261.793 418.886L260.027 398.832L249.471 398.91Z" fill="#24AFB5"></path><path d="M264.042 415.907L265.736 424.765C265.736 424.765 265.975 428.005 262.677 428.568C258.389 429.303 241.717 431.59 229.9 429.443C227.191 428.954 225.971 427.25 225.747 426.359C225.122 423.905 226.696 420.388 231.64 418.559C240.461 415.298 243.822 414.23 248.115 411.317C249.068 410.671 250.506 411.359 251.158 412.218C251.158 412.218 252.715 414.495 252.689 416.887C252.679 417.746 253.57 418.32 254.357 417.981L261.88 414.745C262.802 414.349 263.85 414.907 264.037 415.897L264.042 415.907Z" fill="#26D0D8"></path><path d="M241.601 431.136C237.568 431.136 233.458 430.891 229.758 430.219C226.57 429.64 225.241 427.572 224.986 426.561C224.272 423.758 225.965 419.835 231.363 417.834C232.358 417.464 233.286 417.125 234.156 416.808C240.877 414.338 243.946 413.213 247.671 410.68C248.974 409.8 250.844 410.524 251.777 411.759C251.865 411.889 253.491 414.296 253.47 416.907C253.47 417.094 253.579 417.193 253.647 417.24C253.705 417.277 253.856 417.36 254.048 417.277L261.572 414.041C262.228 413.76 262.968 413.791 263.599 414.124C264.234 414.463 264.672 415.057 264.808 415.766L266.516 424.717C266.615 426.082 265.969 428.807 262.812 429.349C262.234 429.448 252.199 431.141 241.606 431.141L241.601 431.136ZM248.989 411.853C248.823 411.853 248.677 411.889 248.552 411.973C244.665 414.609 241.539 415.755 234.698 418.272C233.833 418.589 232.905 418.928 231.91 419.298C227.419 420.96 225.96 424.029 226.502 426.17C226.632 426.676 227.554 428.223 230.04 428.676C240.564 430.589 255.903 428.937 262.546 427.801C264.969 427.384 264.974 425.196 264.959 424.863L263.276 416.052C263.229 415.812 263.083 415.614 262.869 415.5C262.661 415.39 262.411 415.38 262.192 415.474L254.668 418.709C254.048 418.975 253.345 418.913 252.788 418.537C252.23 418.167 251.907 417.553 251.912 416.886C251.933 414.776 250.531 412.686 250.516 412.665C250.177 412.223 249.516 411.853 248.995 411.853H248.989Z" fill="#24AFB5"></path><path d="M241.952 427.945C238.394 427.945 234.621 427.757 230.86 427.247C230.432 427.189 230.13 426.793 230.188 426.366C230.245 425.939 230.636 425.637 231.068 425.694C245.865 427.69 260.985 424.694 261.136 424.663C261.558 424.579 261.97 424.85 262.058 425.272C262.142 425.694 261.871 426.106 261.449 426.194C261.334 426.215 252.644 427.935 241.957 427.935L241.952 427.945Z" fill="#24AFB5"></path><path d="M304.787 391.363C305.214 396.771 307.824 403.034 309.976 406.233L300.447 413.465L293.236 406.322C294.919 404.019 296.425 398.621 294.158 391.504L304.792 391.363H304.787Z" fill="white"></path><path d="M300.374 414.496L292.199 406.399L292.595 405.857C293.97 403.982 295.684 398.897 293.402 391.738L293.079 390.732L305.5 390.565L305.558 391.295C305.959 396.422 308.465 402.591 310.617 405.79L311.028 406.404L300.368 414.491L300.374 414.496ZM294.236 406.217L300.509 412.433L308.924 406.05C306.824 402.664 304.625 397.115 304.073 392.155L295.195 392.274C296.94 398.568 295.867 403.539 294.236 406.222V406.217Z" fill="#24AFB5"></path><path d="M310.297 404.189L314.241 411.171C314.241 411.171 315.653 414.177 312.714 415.933C309.942 417.59 300.934 422.81 291.899 426.16C288.476 427.432 278.525 428.099 276.18 425.04C274.607 422.987 275.211 420.309 279.327 418.105C288.518 413.182 290.659 405.549 291.983 403.762C293.999 401.037 297.448 405.799 298.381 409.436C298.605 410.306 299.647 410.655 300.34 410.087L308.093 403.772C308.796 403.199 309.849 403.397 310.297 404.189Z" fill="#26D0D8"></path><path d="M284.137 428.021C280.568 428.021 276.994 427.38 275.566 425.515C274.738 424.431 274.435 423.217 274.696 422.009C275.066 420.305 276.54 418.716 278.963 417.418C286.085 413.605 288.852 408.092 290.337 405.133C290.733 404.341 291.051 403.71 291.358 403.299C292.009 402.418 292.9 402.038 293.859 402.225C296.251 402.694 298.465 406.602 299.142 409.244C299.2 409.462 299.366 409.541 299.439 409.561C299.523 409.587 299.689 409.614 299.851 409.483L307.604 403.169C308.119 402.747 308.786 402.58 309.438 402.7C310.089 402.825 310.652 403.226 310.98 403.804L314.95 410.838C315.544 412.099 315.924 414.928 313.116 416.606C309.766 418.606 301.013 423.619 292.171 426.896C290.519 427.505 287.331 428.021 284.132 428.021H284.137ZM293.385 403.742C293.171 403.742 292.906 403.835 292.614 404.231C292.39 404.539 292.098 405.112 291.733 405.836C290.17 408.952 287.263 414.746 279.698 418.799C277.692 419.872 276.493 421.097 276.223 422.342C276.056 423.103 276.254 423.853 276.806 424.572C278.765 427.13 288.185 426.713 291.634 425.437C300.351 422.201 309.005 417.252 312.319 415.272C314.502 413.969 313.7 411.875 313.548 411.536L309.62 404.586C309.485 404.341 309.266 404.268 309.146 404.247C309.026 404.226 308.802 404.216 308.588 404.388L300.836 410.702C300.304 411.135 299.601 411.27 298.949 411.052C298.293 410.838 297.803 410.307 297.631 409.64C296.938 406.941 294.922 404.033 293.562 403.768C293.51 403.757 293.453 403.752 293.39 403.752L293.385 403.742Z" fill="#24AFB5"></path><path d="M283.553 424.119C282.433 424.119 281.36 424.036 280.432 423.838C280.01 423.749 279.739 423.332 279.833 422.91C279.922 422.488 280.338 422.217 280.76 422.311C283.188 422.827 287.065 422.462 289.633 421.832C301.153 419.008 309.781 411.813 309.865 411.74C310.193 411.464 310.688 411.505 310.964 411.834C311.24 412.162 311.199 412.657 310.87 412.933C310.511 413.235 301.888 420.43 290.003 423.348C288.227 423.786 285.799 424.119 283.553 424.119Z" fill="#24AFB5"></path><path d="M271.825 322.915C270.288 339.775 284.33 378.888 289.519 391.46C290.103 392.872 291.39 393.94 293.031 393.94H304.988C307.01 393.94 308.646 392.419 308.63 390.554C308.495 377.294 302.482 339.884 311.376 325.968C316.529 317.913 331.831 321.31 338.136 317.475C353.277 308.274 347.577 278.305 347.577 278.305C347.577 278.305 273.967 299.406 271.82 322.915H271.825Z" fill="white"></path><path d="M304.994 394.726H293.036C291.176 394.726 289.556 393.59 288.801 391.762C283.695 379.382 269.471 340.155 271.049 322.846C273.222 299.077 344.341 278.424 347.369 277.554L348.192 277.319L348.353 278.158C348.593 279.403 353.975 308.768 338.548 318.147C335.906 319.751 331.931 320.147 327.726 320.564C321.448 321.189 314.956 321.83 312.043 326.389C305.359 336.846 307.328 361.558 308.631 377.908C309.037 383.019 309.391 387.437 309.423 390.548C309.433 391.611 309.016 392.621 308.245 393.398C307.411 394.242 306.229 394.721 304.999 394.721L304.994 394.726ZM272.602 322.987C271.164 338.717 283.866 375.714 290.239 391.163C290.634 392.126 291.578 393.158 293.031 393.158H304.989C305.801 393.158 306.583 392.845 307.125 392.293C307.599 391.814 307.854 391.199 307.849 390.558C307.818 387.5 307.469 383.108 307.062 378.028C305.744 361.47 303.749 336.44 310.72 325.545C314.044 320.35 321.229 319.637 327.564 319.006C331.592 318.605 335.395 318.23 337.73 316.808C350.828 308.846 347.718 284.212 346.952 279.304C338.803 281.738 274.551 301.609 272.597 322.987H272.602Z" fill="#24AFB5"></path><path d="M296.112 281.499C296.112 281.499 246.188 281.915 230.448 299.338C216.302 315 237.273 386.036 241.665 399.838C242.118 401.271 243.541 402.245 245.156 402.245H263.913C264.309 402.245 264.627 401.948 264.627 401.584L261.641 374.579C258.447 338.733 262.339 331.157 262.339 331.157C265.497 321.018 292.522 321.45 307.215 321.555C353.872 321.878 340.164 280.899 340.164 280.899L296.107 281.499H296.112Z" fill="white"></path><path d="M263.914 403.027H245.157C243.187 403.027 241.484 401.839 240.921 400.073C240.108 397.509 232.824 374.35 228.338 350.43C223.191 323.003 223.706 305.637 229.87 298.812C245.662 281.332 294.06 280.727 296.107 280.712L340.733 280.107L340.915 280.649C341.155 281.368 346.725 298.447 337.867 310.665C332.178 318.512 321.856 322.435 307.221 322.336H306.2C292.153 322.227 266.008 322.039 263.096 331.392L263.043 331.517C263.007 331.584 259.313 339.592 262.429 374.517L265.414 401.594C265.414 402.391 264.742 403.037 263.919 403.037L263.914 403.027ZM296.118 282.275C295.623 282.275 246.355 282.89 231.027 299.859C225.29 306.211 224.889 323.597 229.87 350.138C234.34 373.969 241.598 397.045 242.411 399.598C242.76 400.698 243.891 401.464 245.157 401.464H263.83L260.871 374.662C257.812 340.343 261.21 331.751 261.621 330.865C264.95 320.461 290.772 320.648 306.21 320.758H307.231C321.315 320.867 331.219 317.157 336.596 309.748C344.135 299.364 340.462 284.672 339.597 281.681L296.123 282.27L296.118 282.275Z" fill="#24AFB5"></path><path d="M261.219 250.056C260.907 249.973 253.795 250.322 253.128 250.098C249.773 248.962 242.708 246.398 239.383 246.372C235.632 246.346 232.074 245.726 229.917 245.268C228.619 244.992 227.687 245.518 227.442 246.357C227.228 247.097 227.457 248.811 229.38 249.243C231.605 249.749 233.819 250.306 235.716 250.759C236.315 250.9 236.929 250.926 236.367 251.119C235.059 251.577 233.637 252.317 233.543 253.38C233.371 255.376 238.3 259.919 243.718 260.247C248.366 260.534 249.648 258.246 251.424 257.913C251.721 257.856 259.453 258.048 259.792 257.976C263.293 257.251 263.106 250.541 261.219 250.046V250.056Z" fill="white"></path><path d="M244.502 261.06C244.236 261.06 243.96 261.049 243.679 261.034C239.708 260.789 236.014 258.46 234.107 256.256C233.451 255.495 232.685 254.365 232.774 253.323C232.841 252.525 233.357 251.827 234.305 251.228C233.982 251.15 233.649 251.067 233.315 250.988C232.002 250.671 230.611 250.332 229.215 250.014C227.991 249.738 227.355 249.04 227.042 248.508C226.532 247.643 226.537 246.695 226.698 246.148C227.079 244.84 228.475 244.168 230.09 244.512C232.362 244.997 235.816 245.575 239.396 245.596C242.496 245.617 248.342 247.628 252.208 248.956C252.635 249.102 253.031 249.238 253.385 249.363C253.833 249.457 256.97 249.363 258.653 249.321C261.023 249.253 261.227 249.259 261.425 249.311C262.81 249.67 263.389 251.681 263.342 253.515C263.29 255.62 262.373 258.262 259.96 258.762C259.747 258.804 259.174 258.809 255.24 258.746C253.734 258.72 251.864 258.694 251.541 258.71C251.108 258.798 250.665 259.069 250.108 259.403C248.925 260.117 247.341 261.075 244.502 261.075V261.06ZM229.257 245.976C228.71 245.976 228.308 246.195 228.199 246.575C228.136 246.794 228.136 247.273 228.387 247.706C228.616 248.097 229.012 248.357 229.559 248.482C230.966 248.8 232.362 249.144 233.68 249.462C234.451 249.649 235.196 249.832 235.9 249.998C236.03 250.03 236.155 250.051 236.27 250.077C236.686 250.155 237.317 250.275 237.369 250.931C237.39 251.228 237.28 251.629 236.629 251.858C234.983 252.437 234.363 253.062 234.326 253.453C234.3 253.734 234.54 254.37 235.285 255.235C236.916 257.126 240.271 259.262 243.767 259.476C246.648 259.653 248.05 258.804 249.295 258.053C249.946 257.663 250.556 257.288 251.28 257.152C251.457 257.121 251.843 257.116 255.261 257.173C256.97 257.199 259.294 257.235 259.674 257.215C261.164 256.881 261.737 254.99 261.779 253.468C261.82 251.931 261.357 250.973 261.065 250.832C260.763 250.822 259.669 250.853 258.7 250.879C254.813 250.988 253.349 250.999 252.885 250.842C252.531 250.723 252.13 250.587 251.702 250.436C248.159 249.217 242.235 247.18 239.391 247.159C235.676 247.133 232.107 246.534 229.767 246.039C229.59 246.002 229.418 245.981 229.262 245.981L229.257 245.976Z" fill="#24AFB5"></path><path d="M299.068 207.043C289.226 214.76 286.011 237.08 279.712 242.119C274.252 246.49 254.698 247.876 254.698 247.876L254.552 260.406L271.615 261.068C281.885 261.459 291.716 257.285 295.353 253.873C307.441 242.515 332.585 218.49 338.926 202.458L321.274 200.609C321.274 200.609 309.973 198.483 299.068 207.038V207.043Z" fill="#24AFB5"></path><path d="M301.169 246.161C301.169 246.161 300.179 250.741 302.019 256.368C304.306 263.36 302.691 271.082 297.423 276.229C295.214 278.392 292.744 280.304 290.176 281.403C290.176 281.403 291.416 289.073 303.04 290.146C307.765 290.584 320.26 291.636 329.586 291.553C342.33 291.438 351.818 289.536 351.818 289.536L353.631 230.557C353.631 230.557 355.507 205.798 338.422 202.422L313.809 200.879L301.164 246.156L301.169 246.161Z" fill="#24AFB5"></path><path d="M299.602 251.685C299.414 251.685 299.222 251.617 299.071 251.477C298.753 251.185 298.732 250.69 299.024 250.372C304.354 244.594 308.496 238.529 310.997 232.84C311.169 232.444 311.632 232.267 312.028 232.439C312.424 232.611 312.602 233.074 312.43 233.47C309.861 239.316 305.625 245.527 300.175 251.43C300.019 251.597 299.81 251.68 299.602 251.68V251.685Z" fill="#E1F9FA"></path><path d="M299.816 172.893C299.816 172.893 293.615 173.08 294.486 162.071C295.361 150.989 307.485 151.656 311.669 150.192C315.853 148.723 322.767 139.787 325.429 137.401C328.091 135.014 336.303 125.094 353.246 134.504C353.246 134.504 356.232 137.312 367.668 134.238C377.62 131.565 396.47 134.155 392.917 148.754C391.891 152.964 389.348 156.527 385.904 158.841C385.279 159.263 384.591 159.68 383.83 160.091C381.637 161.279 380.178 163.566 380.032 166.203C379.558 174.784 375.129 191.999 345.707 180.932C343.488 180.098 341.075 180.385 339.158 181.682C336.798 183.277 334.776 188.133 322.141 188.57C314.024 188.852 310.002 180.614 307.23 177.04C303.973 172.846 299.821 172.888 299.821 172.888L299.816 172.893Z" fill="#24AFB5"></path><path d="M301.629 172.902C301.629 172.902 301.608 174.872 301.582 175.737C301.561 176.56 301.816 179.201 300.352 182.38C300.211 182.682 300.326 183.047 300.613 183.224L302.79 184.594C302.942 184.688 303.046 184.839 303.077 185.016C303.275 186.1 304.015 190.075 304.275 190.799C304.578 191.633 305.395 192.279 305.765 192.404C306.745 192.738 310.538 191.555 310.538 191.555C310.538 191.555 309.98 190.841 312.997 196.057C315.123 199.725 310.58 205.742 310.58 205.742C310.58 205.742 327.69 212.646 337.282 204.388C337.876 203.877 337.615 202.809 336.855 202.621C327.789 200.376 326.585 195.812 323.011 188.721C322.844 188.387 322.443 188.231 322.068 188.2C320.542 188.064 316.535 188.215 315.18 181.796C315.144 181.635 315.154 181.458 315.206 181.301C315.634 179.967 317.457 173.465 311.601 176.206C307.735 178.014 305.552 175.455 304.76 174.21C304.505 173.804 304.093 173.517 303.619 173.403L301.629 172.913V172.902Z" fill="white"></path><path d="M324.622 209.249C317.322 209.249 310.731 206.644 310.288 206.467C310.064 206.378 309.892 206.185 309.83 205.951C309.767 205.716 309.814 205.466 309.96 205.274C311.132 203.716 313.847 199.089 312.325 196.453C311.315 194.707 310.596 193.431 310.184 192.665C310.153 192.613 310.127 192.561 310.101 192.509C308.694 192.915 306.454 193.467 305.521 193.149C304.958 192.957 303.942 192.165 303.546 191.07C303.291 190.357 302.676 187.132 302.327 185.23L300.206 183.896C299.586 183.505 299.352 182.719 299.654 182.062C300.853 179.457 300.826 177.232 300.811 176.164C300.811 175.987 300.811 175.841 300.811 175.726C300.832 174.862 300.858 172.902 300.858 172.902C300.858 172.663 300.972 172.439 301.16 172.293C301.347 172.147 301.598 172.095 301.827 172.152L303.817 172.642C304.494 172.809 305.068 173.215 305.432 173.793C306.24 175.07 308.079 176.998 311.278 175.497C313.258 174.57 314.738 174.518 315.67 175.341C317.213 176.696 316.514 179.806 315.962 181.541C315.952 181.572 315.952 181.609 315.962 181.64C317.108 187.074 320.172 187.288 321.818 187.403C321.938 187.413 322.053 187.418 322.152 187.429C322.881 187.491 323.454 187.84 323.725 188.377C324.132 189.179 324.507 189.956 324.866 190.695C327.675 196.479 329.368 199.97 337.058 201.871C337.699 202.028 338.194 202.543 338.356 203.216C338.512 203.882 338.304 204.56 337.809 204.987C334.026 208.243 329.196 209.259 324.637 209.259L324.622 209.249ZM311.799 205.352C315.431 206.602 328.899 210.572 336.772 203.794C336.85 203.726 336.824 203.596 336.819 203.57C336.798 203.497 336.751 203.398 336.668 203.377C328.269 201.298 326.247 197.13 323.444 191.367C323.09 190.633 322.715 189.867 322.313 189.07C322.298 189.049 322.188 188.992 322.001 188.976C321.907 188.966 321.803 188.96 321.693 188.955C319.932 188.83 315.806 188.544 314.415 181.958C314.352 181.661 314.368 181.348 314.462 181.062C315.149 178.905 315.217 177.034 314.628 176.513C314.222 176.154 313.237 176.3 311.935 176.914C307.365 179.051 304.786 175.706 304.104 174.627C303.958 174.398 303.718 174.226 303.437 174.158L302.405 173.903C302.395 174.528 302.384 175.304 302.369 175.768C302.369 175.867 302.369 175.992 302.369 176.143C302.384 177.316 302.416 179.733 301.108 182.62L303.208 183.938C303.541 184.146 303.775 184.49 303.848 184.881C304.401 187.887 304.859 190.112 305.016 190.539C305.229 191.138 305.86 191.607 306.026 191.67C306.427 191.79 308.261 191.43 310.049 190.893L310.069 190.878C310.408 190.648 310.908 190.753 311.158 191.076C311.247 191.19 311.304 191.326 311.32 191.461C311.487 191.8 312.018 192.795 313.68 195.666C315.545 198.891 313.029 203.466 311.804 205.352H311.799Z" fill="#24AFB5"></path><path d="M313.27 183.165C312.462 183.165 311.66 182.863 311.378 182.42C311.149 182.055 311.253 181.571 311.618 181.341C311.941 181.138 312.358 181.195 312.613 181.472C312.764 181.55 313.285 181.701 313.77 181.518C314.213 181.352 314.52 180.924 314.692 180.252C314.796 179.836 315.223 179.58 315.64 179.684C316.057 179.789 316.312 180.216 316.208 180.633C315.729 182.54 314.468 183.019 313.759 183.128C313.603 183.154 313.436 183.165 313.275 183.165H313.27Z" fill="#24AFB5"></path><path d="M299.847 182.727C298.987 182.727 298.221 182.445 297.612 181.893C295.585 180.069 295.793 175.943 295.825 175.479C295.851 175.073 296.184 174.755 296.59 174.75L311.064 174.447C311.492 174.437 311.851 174.781 311.861 175.213C311.872 175.646 311.528 176 311.096 176.011L297.367 176.297C297.388 177.626 297.632 179.814 298.659 180.731C299.081 181.111 299.623 181.242 300.31 181.122C300.738 181.049 301.139 181.335 301.212 181.757C301.285 182.185 300.998 182.586 300.576 182.659C300.326 182.7 300.086 182.721 299.847 182.721V182.727Z" fill="#24AFB5"></path><path d="M312.538 184.988C312.481 184.394 312.903 183.873 313.486 183.816C314.07 183.758 314.591 184.196 314.648 184.785C314.705 185.379 314.283 185.9 313.7 185.957C313.116 186.014 312.595 185.577 312.538 184.988Z" fill="#26D0D8"></path><path d="M320.325 234.528V248.637C320.325 268.853 304.423 285.244 284.807 285.244C265.19 285.244 249.289 301.636 249.289 321.851C249.289 323.654 250.742 325.113 252.535 325.113H346.553C375.959 325.113 399.796 300.541 399.796 270.234V232.689C399.796 220.632 390.313 210.863 378.616 210.863H343.281C330.599 210.863 320.319 221.461 320.319 234.528H320.325Z" fill="#26D0D8"></path><path d="M270.74 311.519C270.584 311.519 270.427 311.472 270.292 311.378C269.938 311.128 269.854 310.643 270.099 310.289C275.08 303.193 283.031 299.123 293.733 298.196C300.079 297.649 306.227 295.956 310.598 293.549C321.56 287.526 336.133 276.85 336.133 253.831V251.174C336.133 227.905 344.173 226.728 357.287 226.728C357.719 226.728 358.068 227.077 358.068 227.509C358.068 227.942 357.719 228.291 357.287 228.291C344.418 228.291 337.696 229.307 337.696 251.174V253.831C337.696 277.678 322.66 288.703 311.354 294.919C306.795 297.425 300.423 299.186 293.868 299.754C283.51 300.65 276.153 304.391 271.381 311.185C271.23 311.404 270.985 311.519 270.74 311.519Z" fill="#E1F9FA"></path><path d="M334.701 322.191H324.807V429.459H334.701V322.191Z" fill="#26D0D8"></path><path d="M283.378 427.869L327.17 424.008H331.182L375.89 427.869V430.927H283.378V427.869Z" fill="#26D0D8"></path><path d="M213.022 29.0269C212.819 29.0269 212.615 28.9487 212.464 28.7924L210.969 27.2762C210.667 26.9688 210.672 26.4739 210.979 26.1717C211.287 25.8695 211.782 25.8747 212.084 26.1821L213.579 27.6983C213.882 28.0057 213.876 28.5006 213.569 28.8028C213.418 28.9539 213.22 29.0269 213.022 29.0269Z" fill="#24AFB5"></path><path d="M220.181 36.3008C219.978 36.3008 219.775 36.2226 219.624 36.0663L218.128 34.5502C217.826 34.2428 217.831 33.7478 218.139 33.4456C218.446 33.1434 218.941 33.1486 219.243 33.456L220.739 34.9722C221.041 35.2796 221.035 35.7746 220.728 36.0768C220.577 36.2278 220.379 36.3008 220.181 36.3008Z" fill="#24AFB5"></path><path d="M211.527 36.3008C211.329 36.3008 211.131 36.2278 210.979 36.0768C210.672 35.7746 210.667 35.2796 210.969 34.9722L212.464 33.456C212.767 33.1486 213.262 33.1434 213.569 33.4456C213.876 33.7478 213.882 34.2428 213.579 34.5502L212.084 36.0663C211.933 36.2226 211.73 36.3008 211.527 36.3008Z" fill="#24AFB5"></path><path d="M218.686 29.0269C218.488 29.0269 218.29 28.9539 218.139 28.8028C217.831 28.5006 217.826 28.0057 218.128 27.6983L219.624 26.1821C219.926 25.8747 220.421 25.8695 220.728 26.1717C221.035 26.4739 221.041 26.9688 220.739 27.2762L219.243 28.7924C219.092 28.9487 218.889 29.0269 218.686 29.0269Z" fill="#24AFB5"></path><path d="M396.126 360.058L394 360.047C393.568 360.047 393.218 359.693 393.224 359.261C393.224 358.828 393.578 358.484 394.005 358.484L396.131 358.495C396.563 358.495 396.913 358.849 396.907 359.282C396.907 359.714 396.553 360.058 396.126 360.058Z" fill="#24AFB5"></path><path d="M406.312 360.115L404.186 360.105C403.754 360.105 403.405 359.751 403.41 359.318C403.41 358.886 403.764 358.542 404.191 358.542L406.317 358.552C406.749 358.552 407.099 358.907 407.093 359.339C407.093 359.772 406.739 360.115 406.312 360.115Z" fill="#24AFB5"></path><path d="M400.193 366.259C399.766 366.259 399.412 365.91 399.412 365.482L399.401 363.346C399.401 362.914 399.745 362.565 400.178 362.56C400.636 362.565 400.959 362.903 400.964 363.336L400.975 365.472C400.975 365.905 400.631 366.254 400.199 366.259H400.193Z" fill="#24AFB5"></path><path d="M400.134 356.037C399.707 356.037 399.353 355.688 399.353 355.26L399.342 353.124C399.342 352.692 399.686 352.343 400.119 352.337C400.546 352.337 400.9 352.686 400.9 353.114L400.911 355.25C400.911 355.682 400.567 356.031 400.134 356.037Z" fill="#24AFB5"></path><path d="M420.311 352.555C423.065 352.555 425.297 350.313 425.297 347.548C425.297 344.783 423.065 342.541 420.311 342.541C417.557 342.541 415.325 344.783 415.325 347.548C415.325 350.313 417.557 352.555 420.311 352.555Z" fill="#E1F9FA"></path></svg> 