<svg width="126" height="123" viewBox="0 0 126 123" fill="none" xmlns="http://www.w3.org/2000/svg">
<ellipse cx="68" cy="57" rx="57.5" ry="57" fill="white"/>
<circle cx="57.5" cy="66" r="55" stroke="#12B9C0" stroke-width="4"/>
<circle cx="90.5214" cy="40.5039" r="1.02143" fill="#12B9C0"/>
<circle cx="98.6933" cy="40.5039" r="1.02143" fill="#12B9C0"/>
<circle cx="106.865" cy="40.5019" r="1.02143" fill="#12B9C0"/>
<circle cx="90.5214" cy="89.5331" r="1.02143" fill="#12B9C0"/>
<circle cx="98.6933" cy="89.5331" r="1.02143" fill="#12B9C0"/>
<circle cx="106.865" cy="89.5331" r="1.02143" fill="#12B9C0"/>
<circle cx="90.5214" cy="44.5878" r="1.02143" fill="#12B9C0"/>
<circle cx="98.6933" cy="44.5878" r="1.02143" fill="#12B9C0"/>
<circle cx="106.865" cy="44.5878" r="1.02143" fill="#12B9C0"/>
<circle cx="90.5214" cy="93.6171" r="1.02143" fill="#12B9C0"/>
<circle cx="98.6933" cy="93.6171" r="1.02143" fill="#12B9C0"/>
<circle cx="90.5214" cy="48.6738" r="1.02143" fill="#12B9C0"/>
<circle cx="98.6933" cy="48.6738" r="1.02143" fill="#12B9C0"/>
<circle cx="106.865" cy="48.6738" r="1.02143" fill="#12B9C0"/>
<circle cx="90.5214" cy="97.7031" r="1.02143" fill="#12B9C0"/>
<circle cx="98.6933" cy="97.7031" r="1.02143" fill="#12B9C0"/>
<circle cx="90.5214" cy="52.7597" r="1.02143" fill="#12B9C0"/>
<circle cx="98.6933" cy="52.7597" r="1.02143" fill="#12B9C0"/>
<circle cx="106.865" cy="52.7597" r="1.02143" fill="#12B9C0"/>
<circle cx="90.5214" cy="101.789" r="1.02143" fill="#12B9C0"/>
<circle cx="98.6933" cy="101.789" r="1.02143" fill="#12B9C0"/>
<circle cx="90.5214" cy="56.8456" r="1.02143" fill="#12B9C0"/>
<circle cx="98.6933" cy="56.8456" r="1.02143" fill="#12B9C0"/>
<circle cx="106.865" cy="56.8456" r="1.02143" fill="#12B9C0"/>
<circle cx="90.5214" cy="105.875" r="1.02143" fill="#12B9C0"/>
<circle cx="90.5214" cy="60.9316" r="1.02143" fill="#12B9C0"/>
<circle cx="98.6933" cy="60.9316" r="1.02143" fill="#12B9C0"/>
<circle cx="106.865" cy="60.9316" r="1.02143" fill="#12B9C0"/>
<circle cx="90.5214" cy="109.961" r="1.02143" fill="#12B9C0"/>
<circle cx="90.5214" cy="65.0175" r="1.02143" fill="#12B9C0"/>
<circle cx="98.6933" cy="65.0175" r="1.02143" fill="#12B9C0"/>
<circle cx="106.865" cy="65.0175" r="1.02143" fill="#12B9C0"/>
<circle cx="90.5214" cy="69.1035" r="1.02143" fill="#12B9C0"/>
<circle cx="98.6933" cy="69.1035" r="1.02143" fill="#12B9C0"/>
<circle cx="106.865" cy="69.1035" r="1.02143" fill="#12B9C0"/>
<circle cx="90.5214" cy="24.1601" r="1.02143" fill="#12B9C0"/>
<circle cx="90.5214" cy="73.1894" r="1.02143" fill="#12B9C0"/>
<circle cx="98.6933" cy="73.1894" r="1.02143" fill="#12B9C0"/>
<circle cx="106.865" cy="73.1894" r="1.02143" fill="#12B9C0"/>
<circle cx="90.5214" cy="28.246" r="1.02143" fill="#12B9C0"/>
<circle cx="98.6933" cy="28.246" r="1.02143" fill="#12B9C0"/>
<circle cx="90.5214" cy="77.2753" r="1.02143" fill="#12B9C0"/>
<circle cx="98.6933" cy="77.2753" r="1.02143" fill="#12B9C0"/>
<circle cx="106.865" cy="77.2753" r="1.02143" fill="#12B9C0"/>
<circle cx="90.5214" cy="32.332" r="1.02143" fill="#12B9C0"/>
<circle cx="98.6933" cy="32.332" r="1.02143" fill="#12B9C0"/>
<circle cx="90.5214" cy="81.3613" r="1.02143" fill="#12B9C0"/>
<circle cx="98.6933" cy="81.3613" r="1.02143" fill="#12B9C0"/>
<circle cx="106.865" cy="81.3613" r="1.02143" fill="#12B9C0"/>
<circle cx="90.5214" cy="36.416" r="1.02143" fill="#12B9C0"/>
<circle cx="98.6933" cy="36.416" r="1.02143" fill="#12B9C0"/>
<circle cx="90.5214" cy="85.4453" r="1.02143" fill="#12B9C0"/>
<circle cx="98.6933" cy="85.4453" r="1.02143" fill="#12B9C0"/>
<circle cx="106.865" cy="85.4472" r="1.02143" fill="#12B9C0"/>
<circle cx="94.6074" cy="42.5449" r="1.02143" fill="#12B9C0"/>
<circle cx="102.779" cy="42.5449" r="1.02143" fill="#12B9C0"/>
<circle cx="94.6074" cy="91.5761" r="1.02143" fill="#12B9C0"/>
<circle cx="102.779" cy="91.5761" r="1.02143" fill="#12B9C0"/>
<circle cx="94.6074" cy="46.6308" r="1.02143" fill="#12B9C0"/>
<circle cx="102.779" cy="46.6308" r="1.02143" fill="#12B9C0"/>
<circle cx="94.6074" cy="95.6601" r="1.02143" fill="#12B9C0"/>
<circle cx="102.779" cy="95.6601" r="1.02143" fill="#12B9C0"/>
<circle cx="94.6074" cy="50.7167" r="1.02143" fill="#12B9C0"/>
<circle cx="102.779" cy="50.7167" r="1.02143" fill="#12B9C0"/>
<circle cx="110.951" cy="50.7167" r="1.02143" fill="#12B9C0"/>
<circle cx="94.6074" cy="99.746" r="1.02143" fill="#12B9C0"/>
<circle cx="94.6074" cy="54.8027" r="1.02143" fill="#12B9C0"/>
<circle cx="102.779" cy="54.8027" r="1.02143" fill="#12B9C0"/>
<circle cx="110.951" cy="54.8027" r="1.02143" fill="#12B9C0"/>
<circle cx="94.6074" cy="103.832" r="1.02143" fill="#12B9C0"/>
<circle cx="94.6074" cy="58.8886" r="1.02143" fill="#12B9C0"/>
<circle cx="102.779" cy="58.8886" r="1.02143" fill="#12B9C0"/>
<circle cx="110.949" cy="58.8886" r="1.02143" fill="#12B9C0"/>
<circle cx="94.6074" cy="62.9746" r="1.02143" fill="#12B9C0"/>
<circle cx="102.779" cy="62.9746" r="1.02143" fill="#12B9C0"/>
<circle cx="110.949" cy="62.9746" r="1.02143" fill="#12B9C0"/>
<circle cx="94.6074" cy="67.0605" r="1.02143" fill="#12B9C0"/>
<circle cx="102.779" cy="67.0605" r="1.02143" fill="#12B9C0"/>
<circle cx="110.949" cy="67.0605" r="1.02143" fill="#12B9C0"/>
<circle cx="94.6074" cy="71.1464" r="1.02143" fill="#12B9C0"/>
<circle cx="102.779" cy="71.1464" r="1.02143" fill="#12B9C0"/>
<circle cx="110.951" cy="71.1464" r="1.02143" fill="#12B9C0"/>
<circle cx="94.6074" cy="26.2031" r="1.02143" fill="#12B9C0"/>
<circle cx="94.6074" cy="75.2324" r="1.02143" fill="#12B9C0"/>
<circle cx="102.779" cy="75.2324" r="1.02143" fill="#12B9C0"/>
<circle cx="110.951" cy="75.2324" r="1.02143" fill="#12B9C0"/>
<circle cx="94.6074" cy="30.289" r="1.02143" fill="#12B9C0"/>
<circle cx="94.6074" cy="79.3183" r="1.02143" fill="#12B9C0"/>
<circle cx="102.779" cy="79.3183" r="1.02143" fill="#12B9C0"/>
<circle cx="110.949" cy="79.3183" r="1.02143" fill="#12B9C0"/>
<circle cx="94.6074" cy="34.373" r="1.02143" fill="#12B9C0"/>
<circle cx="102.779" cy="34.373" r="1.02143" fill="#12B9C0"/>
<circle cx="94.6074" cy="83.4042" r="1.02143" fill="#12B9C0"/>
<circle cx="102.779" cy="83.4042" r="1.02143" fill="#12B9C0"/>
<circle cx="94.6074" cy="38.4589" r="1.02143" fill="#12B9C0"/>
<circle cx="102.779" cy="38.4589" r="1.02143" fill="#12B9C0"/>
<circle cx="94.6074" cy="87.4902" r="1.02143" fill="#12B9C0"/>
<circle cx="102.779" cy="87.4902" r="1.02143" fill="#12B9C0"/>
<path fill-rule="evenodd" clip-rule="evenodd" d="M42.0109 58.7634L39.4063 52.2518L44.3551 47.303L50.3458 50.9495C51.3008 50.3417 53.315 49.1263 53.7318 49.1263C54.1485 49.1263 55.8155 44.4379 56.5969 42.0938L62.848 42.3542L65.7131 49.6472L69.3596 50.689L75.6107 48.3449L80.299 52.5123L77.6944 58.5029L78.9967 62.6703L84.7269 64.4936V71.2656L78.9967 74.1307L77.1735 78.2981L80.0386 83.5074L75.6107 88.4562L68.8386 85.8515L64.9317 87.9352L63.6294 92.884H56.8573L54.2527 86.8934L50.8667 85.3306L46.1784 88.7166L39.4063 83.5074L42.0109 76.9958L40.9691 73.6098L34.9784 71.2656L34.4575 64.2331L40.9691 62.1494L42.0109 58.7634ZM59.9825 79.0792C66.0241 79.0792 70.9219 74.1814 70.9219 68.1397C70.9219 62.098 66.0241 57.2003 59.9825 57.2003C53.9408 57.2003 49.043 62.098 49.043 68.1397C49.043 74.1814 53.9408 79.0792 59.9825 79.0792Z" fill="white"/>
<path d="M60.0928 56.2559C53.5042 56.2559 48.2671 61.493 48.2671 68.0816C48.2671 74.6702 53.5042 79.9073 60.0928 79.9073C66.6815 79.9073 71.9186 74.6702 71.9186 68.0816C71.9186 61.493 66.6815 56.2559 60.0928 56.2559ZM60.0928 76.5286C55.3625 76.5286 51.6459 72.8119 51.6459 68.0816C51.6459 63.3513 55.3625 59.6346 60.0928 59.6346C64.8231 59.6346 68.5398 63.3513 68.5398 68.0816C68.5398 72.8119 64.8231 76.5286 60.0928 76.5286Z" fill="#12B9C0"/>
<path d="M84.9273 62.5061L80.197 60.9856L79.1834 58.4515L81.5485 54.0591C82.0554 53.0455 81.8864 51.694 81.0417 50.8493L76.9872 46.7947C76.1425 45.95 74.791 45.7811 73.7773 46.2879L69.3849 48.653L66.8508 47.6394L65.3304 42.9091C64.9925 41.8955 63.9789 41.0508 62.7963 41.0508H57.0523C55.8698 41.0508 54.8561 41.8955 54.6872 43.0781L53.1667 47.8083C52.1531 47.9773 51.3084 48.3152 50.4637 48.822L46.0713 46.4568C45.0577 45.95 43.7062 46.119 42.8615 46.9637L38.8069 51.0182C37.9622 51.8629 37.7933 53.2144 38.3001 54.228L40.4963 58.4515C40.1584 59.2962 39.8206 60.3099 39.4827 61.1545L34.7524 62.675C33.7387 63.0129 32.894 64.0265 32.894 65.2091V70.953C32.894 72.1356 33.7387 73.1492 34.9213 73.4871L39.6516 75.0076L40.6652 77.5417L38.3001 81.9341C37.7933 82.9477 37.9622 84.2992 38.8069 85.1439L42.8615 89.1985C43.7062 90.0432 45.0577 90.2121 46.0713 89.7053L50.4637 87.3401L52.9978 88.3538L54.5183 93.253C54.8561 94.2666 55.8698 95.1113 57.0523 95.1113H62.7963C63.9789 95.1113 64.9925 94.2666 65.3304 93.253L66.8508 88.3538L69.3849 87.3401L73.7773 89.7053C74.791 90.2121 76.1425 90.0432 76.9872 89.1985L81.0417 85.1439C81.8864 84.2992 82.0554 82.9477 81.5485 81.9341L79.1834 77.5417L80.197 75.0076L85.0963 73.4871C86.1099 73.1492 86.9546 72.1356 86.9546 70.953V65.2091C86.9546 64.0265 86.1099 62.8439 84.9273 62.5061ZM83.5758 70.4462L77.494 72.3045L77.3251 73.1492L75.8046 76.697L75.2978 77.5417L78.3387 83.1166L74.9599 86.4954L69.3849 83.4545L68.5402 83.9613C67.3576 84.6371 66.1751 85.1439 64.9925 85.4818L64.1478 85.6507L62.2895 91.7325H57.5592L55.7008 85.6507L54.8561 85.4818L51.3084 83.9613L50.4637 83.4545L44.8887 86.4954L41.5099 83.1166L44.5508 77.5417L44.044 76.697C43.3683 75.5144 42.8615 74.3318 42.5236 73.1492L42.3546 72.3045L36.2728 70.4462V65.7159L42.0168 64.0265L42.3546 63.1818C42.6925 61.8303 43.1993 60.6477 43.8751 59.4652L44.3819 58.6205L41.5099 53.0455L44.8887 49.6667L50.2948 52.7076L51.1395 52.2008C52.3221 51.525 53.5046 51.0182 54.8561 50.6803L55.7008 50.3424L57.5592 44.4296H62.2895L64.1478 50.3424L64.9925 50.6803C66.1751 51.0182 67.3576 51.525 68.5402 52.2008L69.3849 52.7076L74.9599 49.6667L78.3387 53.0455L75.2978 58.6205L75.8046 59.4652C76.4804 60.6477 76.9872 61.8303 77.3251 63.0129L77.494 63.8576L83.5758 65.7159V70.4462Z" fill="#12B9C0"/>
</svg>
