<svg width="126" height="122" viewBox="0 0 126 122" fill="none" xmlns="http://www.w3.org/2000/svg">
<ellipse cx="68" cy="57" rx="57.5" ry="57" fill="white"/>
<path d="M112.269 65.2308C112.269 95.1599 87.7184 119.462 57.3846 119.462C27.0508 119.462 2.5 95.1599 2.5 65.2308C2.5 35.3017 27.0508 11 57.3846 11C87.7184 11 112.269 35.3017 112.269 65.2308Z" stroke="#12B9C0" stroke-width="4"/>
<circle cx="90.4267" cy="22.9658" r="1.1728" fill="#12B9C0"/>
<circle cx="103.776" cy="91.3408" r="1.1728" fill="#12B9C0"/>
<circle cx="103.776" cy="39.7373" r="1.1728" fill="#12B9C0"/>
<circle cx="103.776" cy="44.4287" r="1.1728" fill="#12B9C0"/>
<circle cx="103.776" cy="49.1201" r="1.1728" fill="#12B9C0"/>
<circle cx="103.776" cy="53.8095" r="1.1728" fill="#12B9C0"/>
<circle cx="103.776" cy="58.5009" r="1.1728" fill="#12B9C0"/>
<circle cx="103.776" cy="63.1923" r="1.1728" fill="#12B9C0"/>
<circle cx="103.776" cy="67.8837" r="1.1728" fill="#12B9C0"/>
<circle cx="103.776" cy="72.5751" r="1.1728" fill="#12B9C0"/>
<circle cx="103.776" cy="77.2666" r="1.1728" fill="#12B9C0"/>
<circle cx="94.3935" cy="25.663" r="1.1728" fill="#12B9C0"/>
<circle cx="103.776" cy="81.958" r="1.1728" fill="#12B9C0"/>
<circle cx="94.3935" cy="30.3544" r="1.1728" fill="#12B9C0"/>
<circle cx="103.776" cy="86.6494" r="1.1728" fill="#12B9C0"/>
<circle cx="99.083" cy="37.3916" r="1.1728" fill="#12B9C0"/>
<circle cx="99.083" cy="93.6865" r="1.1728" fill="#12B9C0"/>
<circle cx="99.083" cy="42.083" r="1.1728" fill="#12B9C0"/>
<circle cx="99.083" cy="98.3779" r="1.1728" fill="#12B9C0"/>
<circle cx="99.083" cy="46.7744" r="1.1728" fill="#12B9C0"/>
<circle cx="99.083" cy="51.4658" r="1.1728" fill="#12B9C0"/>
<circle cx="108.466" cy="51.4658" r="1.1728" fill="#12B9C0"/>
<circle cx="99.083" cy="56.1572" r="1.1728" fill="#12B9C0"/>
<circle cx="108.466" cy="56.1572" r="1.1728" fill="#12B9C0"/>
<circle cx="99.083" cy="60.8466" r="1.1728" fill="#12B9C0"/>
<circle cx="108.466" cy="60.8486" r="1.1728" fill="#12B9C0"/>
<circle cx="99.083" cy="65.538" r="1.1728" fill="#12B9C0"/>
<circle cx="108.466" cy="65.54" r="1.1728" fill="#12B9C0"/>
<circle cx="99.083" cy="70.2294" r="1.1728" fill="#12B9C0"/>
<circle cx="108.466" cy="70.2294" r="1.1728" fill="#12B9C0"/>
<circle cx="99.083" cy="74.9209" r="1.1728" fill="#12B9C0"/>
<circle cx="108.466" cy="74.9209" r="1.1728" fill="#12B9C0"/>
<circle cx="99.083" cy="79.6123" r="1.1728" fill="#12B9C0"/>
<circle cx="108.466" cy="79.6123" r="1.1728" fill="#12B9C0"/>
<circle cx="99.083" cy="84.3037" r="1.1728" fill="#12B9C0"/>
<circle cx="99.083" cy="32.7001" r="1.1728" fill="#12B9C0"/>
<circle cx="99.083" cy="88.9951" r="1.1728" fill="#12B9C0"/>
<path d="M58.0505 41.793C62.5546 41.793 63.8438 46.0359 63.9253 48.1574C66.4548 47.9942 71.9543 47.9126 73.7167 48.8917C75.4792 49.8709 75.267 56.6432 74.9407 59.907C74.6959 59.7438 73.5209 59.4175 70.7793 59.4175C67.3523 59.4175 63.9253 63.0892 65.1493 67.7401C66.1284 71.4609 71.5953 71.7383 74.2063 71.4119C74.5327 74.6757 74.8917 81.4481 73.7167 82.4272C72.5418 83.4063 65.0677 83.3248 61.4775 83.1616C61.8855 84.7935 61.4775 88.2531 56.5818 89.0364C51.6861 89.8197 50.299 85.4462 50.2174 83.1616C47.688 83.3248 42.1885 83.4063 40.426 82.4272C38.6636 81.4481 38.8757 74.6757 39.2021 71.4119C37.1621 71.1671 33.0331 69.6495 32.8372 65.5371C32.6414 61.4247 36.509 60.0702 38.4673 59.907L39.2021 58.9279C39.1205 56.2353 39.2511 50.4583 40.426 48.8917C41.601 47.3251 48.5855 47.423 51.9309 47.6678C52.0941 45.7095 53.5465 41.793 58.0505 41.793Z" fill="white"/>
<path d="M57.1675 40.096C55.507 40.2089 53.9366 40.8845 52.7208 42.009C51.5051 43.1334 50.7182 44.6381 50.4928 46.2695L50.4703 46.4445H42.3899L41.9235 46.4668C40.7296 46.5815 39.6217 47.132 38.8159 48.011C38.01 48.8899 37.564 50.0343 37.5649 51.221L37.5584 58.4255L37.3751 58.4445C35.6418 58.6807 34.0538 59.53 32.9047 60.8352C31.7556 62.1404 31.1234 63.8132 31.125 65.544L31.1411 66.0341C31.2552 67.6767 31.9381 69.2303 33.0748 70.433C34.2115 71.6358 35.7325 72.4142 37.3815 72.6372L37.5616 72.6531V79.8639L37.5874 80.3222C37.7033 81.5027 38.2593 82.5983 39.1471 83.3954C40.035 84.1925 41.191 84.6341 42.3899 84.634H48.8684L48.8877 84.8091C49.1256 86.5237 49.9833 88.0951 51.3021 89.2324C52.6209 90.3697 54.3114 90.996 56.0609 90.9953L56.5563 90.9794C58.2168 90.8665 59.7872 90.1909 61.0029 89.0664C62.2187 87.9419 63.0056 86.4372 63.231 84.8059L63.2471 84.634H71.3403C72.62 84.634 73.8473 84.1311 74.7521 83.236C75.657 82.3408 76.1654 81.1267 76.1654 79.8607L76.1589 69.5154L70.5265 69.5186L70.1308 69.5027C69.1361 69.4075 68.2132 68.9481 67.5431 68.2146C66.873 67.481 66.5042 66.5263 66.5088 65.5377L66.5249 65.1463C66.6203 64.1622 67.0839 63.2488 67.8248 62.5854C68.5657 61.9219 69.5304 61.5562 70.5297 61.5599L76.1589 61.5567L76.1654 51.2241L76.1428 50.7627C76.0277 49.5816 75.472 48.4853 74.5841 47.6875C73.6962 46.8897 72.5397 46.4477 71.3403 46.4477H64.8522L64.8361 46.2695C64.5989 44.5542 63.7415 42.9821 62.4226 41.8441C61.1038 40.7062 59.4129 40.0795 57.6628 40.0801L57.1675 40.096ZM57.6628 43.2623C59.8824 43.2623 61.6837 45.0443 61.6837 47.24V49.6267L71.3403 49.633L71.6298 49.6585C72.0001 49.7255 72.3349 49.9189 72.5759 50.205C72.8169 50.4911 72.9488 50.8517 72.9487 51.2241L72.9422 58.3714L70.5265 58.3745C68.7091 58.3741 66.9581 59.0501 65.6213 60.2681C64.2846 61.4862 63.46 63.1571 63.3114 64.949L63.2921 65.474C63.2921 69.2736 66.1936 72.373 69.9378 72.6753L70.4653 72.6976L72.9454 72.6913V79.8639C72.9454 80.2859 72.776 80.6906 72.4744 80.989C72.1727 81.2874 71.7636 81.455 71.3371 81.455L60.0754 81.4487L60.085 83.8353C60.0846 84.8903 59.6606 85.9019 58.9062 86.6475C58.1518 87.3932 57.1289 87.8119 56.0625 87.8115C54.9961 87.8111 53.9736 87.3916 53.2198 86.6453C52.4661 85.899 52.0428 84.8871 52.0433 83.8321L52.0304 81.4487L42.3899 81.455C41.9634 81.455 41.5543 81.2874 41.2526 80.989C40.951 80.6906 40.7816 80.2859 40.7816 79.8639L40.7751 69.5154L38.3562 69.5218C37.8281 69.5216 37.3053 69.4185 36.8176 69.2184C36.3298 69.0183 35.8867 68.7251 35.5134 68.3556C35.1402 67.9861 34.8442 67.5475 34.6423 67.0648C34.4405 66.5821 34.3367 66.0648 34.3369 65.5424C34.3371 65.0201 34.4413 64.5029 34.6436 64.0203C34.8458 63.5378 35.1422 63.0994 35.5157 62.7302C36.2701 61.9845 37.293 61.5659 38.3594 61.5663L40.7751 61.5599L40.7816 51.2241C40.7816 50.8022 40.951 50.3975 41.2526 50.0991C41.5543 49.8007 41.9634 49.633 42.3899 49.633L53.642 49.6267V47.24C53.642 45.0443 55.4433 43.2623 57.6628 43.2623Z" fill="#12B9C0"/>
</svg>
