<svg width="126" height="122" viewBox="0 0 126 122" fill="none" xmlns="http://www.w3.org/2000/svg">
<ellipse cx="68" cy="57" rx="57.5" ry="57" fill="white"/>
<path d="M112.269 65.2308C112.269 95.1599 87.7184 119.462 57.3846 119.462C27.0508 119.462 2.5 95.1599 2.5 65.2308C2.5 35.3017 27.0508 11 57.3846 11C87.7184 11 112.269 35.3017 112.269 65.2308Z" stroke="#12B9C0" stroke-width="4"/>
<circle cx="90.4267" cy="22.9658" r="1.1728" fill="#12B9C0"/>
<circle cx="103.776" cy="91.3408" r="1.1728" fill="#12B9C0"/>
<circle cx="103.776" cy="39.7373" r="1.1728" fill="#12B9C0"/>
<circle cx="103.776" cy="44.4287" r="1.1728" fill="#12B9C0"/>
<circle cx="103.776" cy="49.1201" r="1.1728" fill="#12B9C0"/>
<circle cx="103.776" cy="53.8095" r="1.1728" fill="#12B9C0"/>
<circle cx="103.776" cy="58.5009" r="1.1728" fill="#12B9C0"/>
<circle cx="103.776" cy="63.1923" r="1.1728" fill="#12B9C0"/>
<circle cx="103.776" cy="67.8837" r="1.1728" fill="#12B9C0"/>
<circle cx="103.776" cy="72.5751" r="1.1728" fill="#12B9C0"/>
<circle cx="103.776" cy="77.2666" r="1.1728" fill="#12B9C0"/>
<circle cx="94.3935" cy="25.663" r="1.1728" fill="#12B9C0"/>
<circle cx="103.776" cy="81.958" r="1.1728" fill="#12B9C0"/>
<circle cx="94.3935" cy="30.3544" r="1.1728" fill="#12B9C0"/>
<circle cx="103.776" cy="86.6494" r="1.1728" fill="#12B9C0"/>
<circle cx="99.0832" cy="37.3916" r="1.1728" fill="#12B9C0"/>
<circle cx="99.083" cy="93.6865" r="1.1728" fill="#12B9C0"/>
<circle cx="99.083" cy="42.083" r="1.1728" fill="#12B9C0"/>
<circle cx="99.083" cy="98.3779" r="1.1728" fill="#12B9C0"/>
<circle cx="99.083" cy="46.7744" r="1.1728" fill="#12B9C0"/>
<circle cx="99.083" cy="51.4658" r="1.1728" fill="#12B9C0"/>
<circle cx="108.466" cy="51.4658" r="1.1728" fill="#12B9C0"/>
<circle cx="99.083" cy="56.1572" r="1.1728" fill="#12B9C0"/>
<circle cx="108.466" cy="56.1572" r="1.1728" fill="#12B9C0"/>
<circle cx="99.083" cy="60.8466" r="1.1728" fill="#12B9C0"/>
<circle cx="108.466" cy="60.8486" r="1.1728" fill="#12B9C0"/>
<circle cx="99.083" cy="65.538" r="1.1728" fill="#12B9C0"/>
<circle cx="108.466" cy="65.54" r="1.1728" fill="#12B9C0"/>
<circle cx="99.083" cy="70.2294" r="1.1728" fill="#12B9C0"/>
<circle cx="108.466" cy="70.2294" r="1.1728" fill="#12B9C0"/>
<circle cx="99.083" cy="74.9209" r="1.1728" fill="#12B9C0"/>
<circle cx="108.466" cy="74.9209" r="1.1728" fill="#12B9C0"/>
<circle cx="99.0832" cy="79.6123" r="1.1728" fill="#12B9C0"/>
<circle cx="108.466" cy="79.6123" r="1.1728" fill="#12B9C0"/>
<circle cx="99.0832" cy="84.3037" r="1.1728" fill="#12B9C0"/>
<circle cx="99.0832" cy="32.7001" r="1.1728" fill="#12B9C0"/>
<circle cx="99.083" cy="88.9951" r="1.1728" fill="#12B9C0"/>
<path d="M57.3844 86.207C46.6598 86.207 37.9663 77.3798 37.9663 66.4902C37.9663 55.6006 46.6598 46.7734 57.3844 46.7734C68.109 46.7734 76.8024 55.6006 76.8024 66.4902C76.8024 77.3798 68.109 86.207 57.3844 86.207ZM57.3844 82.2637C61.5044 82.2637 65.4556 80.6018 68.3689 77.6437C71.2822 74.6856 72.9188 70.6736 72.9188 66.4902C72.9188 62.3069 71.2822 58.2948 68.3689 55.3367C65.4556 52.3786 61.5044 50.7168 57.3844 50.7168C53.2644 50.7168 49.3131 52.3786 46.3999 55.3367C43.4866 58.2948 41.8499 62.3069 41.8499 66.4902C41.8499 70.6736 43.4866 74.6856 46.3999 77.6437C49.3131 80.6018 53.2644 82.2637 57.3844 82.2637ZM57.3844 56.6318C57.8994 56.6318 58.3933 56.8396 58.7574 57.2093C59.1216 57.5791 59.3262 58.0806 59.3262 58.6035V68.4619C59.3262 68.9848 59.1216 69.4863 58.7574 69.8561C58.3933 70.2259 57.8994 70.4336 57.3844 70.4336C56.8694 70.4336 56.3755 70.2259 56.0113 69.8561C55.6471 69.4863 55.4426 68.9848 55.4426 68.4619V58.6035C55.4426 58.0806 55.6471 57.5791 56.0113 57.2093C56.3755 56.8396 56.8694 56.6318 57.3844 56.6318ZM57.3844 76.3486C56.8694 76.3486 56.3755 76.1409 56.0113 75.7711C55.6471 75.4014 55.4426 74.8999 55.4426 74.377C55.4426 73.854 55.6471 73.3525 56.0113 72.9828C56.3755 72.613 56.8694 72.4053 57.3844 72.4053C57.8994 72.4053 58.3933 72.613 58.7574 72.9828C59.1216 73.3525 59.3262 73.854 59.3262 74.377C59.3262 74.8999 59.1216 75.4014 58.7574 75.7711C58.3933 76.1409 57.8994 76.3486 57.3844 76.3486Z" fill="#12B9C0"/>
</svg>
