<svg width="126" height="123" viewBox="0 0 126 123" fill="none" xmlns="http://www.w3.org/2000/svg">
<ellipse cx="68" cy="57" rx="57.5" ry="57" fill="white"/>
<circle cx="57.5" cy="66" r="55" stroke="#12B9C0" stroke-width="4"/>
<circle cx="90.5214" cy="40.5039" r="1.02143" fill="#12B9C0"/>
<circle cx="98.6933" cy="40.5039" r="1.02143" fill="#12B9C0"/>
<circle cx="106.865" cy="40.5019" r="1.02143" fill="#12B9C0"/>
<circle cx="90.5214" cy="89.5331" r="1.02143" fill="#12B9C0"/>
<circle cx="98.6933" cy="89.5331" r="1.02143" fill="#12B9C0"/>
<circle cx="106.865" cy="89.5331" r="1.02143" fill="#12B9C0"/>
<circle cx="90.5214" cy="44.5878" r="1.02143" fill="#12B9C0"/>
<circle cx="98.6933" cy="44.5878" r="1.02143" fill="#12B9C0"/>
<circle cx="106.865" cy="44.5878" r="1.02143" fill="#12B9C0"/>
<circle cx="90.5214" cy="93.6171" r="1.02143" fill="#12B9C0"/>
<circle cx="98.6933" cy="93.6171" r="1.02143" fill="#12B9C0"/>
<circle cx="90.5214" cy="48.6738" r="1.02143" fill="#12B9C0"/>
<circle cx="98.6933" cy="48.6738" r="1.02143" fill="#12B9C0"/>
<circle cx="106.865" cy="48.6738" r="1.02143" fill="#12B9C0"/>
<circle cx="90.5214" cy="97.7031" r="1.02143" fill="#12B9C0"/>
<circle cx="98.6933" cy="97.7031" r="1.02143" fill="#12B9C0"/>
<circle cx="90.5214" cy="52.7597" r="1.02143" fill="#12B9C0"/>
<circle cx="98.6933" cy="52.7597" r="1.02143" fill="#12B9C0"/>
<circle cx="106.865" cy="52.7597" r="1.02143" fill="#12B9C0"/>
<circle cx="90.5214" cy="101.789" r="1.02143" fill="#12B9C0"/>
<circle cx="98.6933" cy="101.789" r="1.02143" fill="#12B9C0"/>
<circle cx="90.5214" cy="56.8456" r="1.02143" fill="#12B9C0"/>
<circle cx="98.6933" cy="56.8456" r="1.02143" fill="#12B9C0"/>
<circle cx="106.865" cy="56.8456" r="1.02143" fill="#12B9C0"/>
<circle cx="90.5214" cy="105.875" r="1.02143" fill="#12B9C0"/>
<circle cx="90.5214" cy="60.9316" r="1.02143" fill="#12B9C0"/>
<circle cx="98.6933" cy="60.9316" r="1.02143" fill="#12B9C0"/>
<circle cx="106.865" cy="60.9316" r="1.02143" fill="#12B9C0"/>
<circle cx="90.5214" cy="109.961" r="1.02143" fill="#12B9C0"/>
<circle cx="90.5214" cy="65.0175" r="1.02143" fill="#12B9C0"/>
<circle cx="98.6933" cy="65.0175" r="1.02143" fill="#12B9C0"/>
<circle cx="106.865" cy="65.0175" r="1.02143" fill="#12B9C0"/>
<circle cx="90.5214" cy="69.1035" r="1.02143" fill="#12B9C0"/>
<circle cx="98.6933" cy="69.1035" r="1.02143" fill="#12B9C0"/>
<circle cx="106.865" cy="69.1035" r="1.02143" fill="#12B9C0"/>
<circle cx="90.5214" cy="24.1601" r="1.02143" fill="#12B9C0"/>
<circle cx="90.5214" cy="73.1894" r="1.02143" fill="#12B9C0"/>
<circle cx="98.6933" cy="73.1894" r="1.02143" fill="#12B9C0"/>
<circle cx="106.865" cy="73.1894" r="1.02143" fill="#12B9C0"/>
<circle cx="90.5214" cy="28.246" r="1.02143" fill="#12B9C0"/>
<circle cx="98.6933" cy="28.246" r="1.02143" fill="#12B9C0"/>
<circle cx="90.5214" cy="77.2753" r="1.02143" fill="#12B9C0"/>
<circle cx="98.6933" cy="77.2753" r="1.02143" fill="#12B9C0"/>
<circle cx="106.865" cy="77.2753" r="1.02143" fill="#12B9C0"/>
<circle cx="90.5214" cy="32.332" r="1.02143" fill="#12B9C0"/>
<circle cx="98.6933" cy="32.332" r="1.02143" fill="#12B9C0"/>
<circle cx="90.5214" cy="81.3613" r="1.02143" fill="#12B9C0"/>
<circle cx="98.6933" cy="81.3613" r="1.02143" fill="#12B9C0"/>
<circle cx="106.865" cy="81.3613" r="1.02143" fill="#12B9C0"/>
<circle cx="90.5214" cy="36.416" r="1.02143" fill="#12B9C0"/>
<circle cx="98.6933" cy="36.416" r="1.02143" fill="#12B9C0"/>
<circle cx="90.5214" cy="85.4453" r="1.02143" fill="#12B9C0"/>
<circle cx="98.6933" cy="85.4453" r="1.02143" fill="#12B9C0"/>
<circle cx="106.865" cy="85.4472" r="1.02143" fill="#12B9C0"/>
<circle cx="94.6074" cy="42.5449" r="1.02143" fill="#12B9C0"/>
<circle cx="102.779" cy="42.5449" r="1.02143" fill="#12B9C0"/>
<circle cx="94.6074" cy="91.5761" r="1.02143" fill="#12B9C0"/>
<circle cx="102.779" cy="91.5761" r="1.02143" fill="#12B9C0"/>
<circle cx="94.6074" cy="46.6308" r="1.02143" fill="#12B9C0"/>
<circle cx="102.779" cy="46.6308" r="1.02143" fill="#12B9C0"/>
<circle cx="94.6074" cy="95.6601" r="1.02143" fill="#12B9C0"/>
<circle cx="102.779" cy="95.6601" r="1.02143" fill="#12B9C0"/>
<circle cx="94.6074" cy="50.7167" r="1.02143" fill="#12B9C0"/>
<circle cx="102.779" cy="50.7167" r="1.02143" fill="#12B9C0"/>
<circle cx="110.951" cy="50.7167" r="1.02143" fill="#12B9C0"/>
<circle cx="94.6074" cy="99.746" r="1.02143" fill="#12B9C0"/>
<circle cx="94.6074" cy="54.8027" r="1.02143" fill="#12B9C0"/>
<circle cx="102.779" cy="54.8027" r="1.02143" fill="#12B9C0"/>
<circle cx="110.951" cy="54.8027" r="1.02143" fill="#12B9C0"/>
<circle cx="94.6074" cy="103.832" r="1.02143" fill="#12B9C0"/>
<circle cx="94.6074" cy="58.8886" r="1.02143" fill="#12B9C0"/>
<circle cx="102.779" cy="58.8886" r="1.02143" fill="#12B9C0"/>
<circle cx="110.949" cy="58.8886" r="1.02143" fill="#12B9C0"/>
<circle cx="94.6074" cy="62.9746" r="1.02143" fill="#12B9C0"/>
<circle cx="102.779" cy="62.9746" r="1.02143" fill="#12B9C0"/>
<circle cx="110.949" cy="62.9746" r="1.02143" fill="#12B9C0"/>
<circle cx="94.6074" cy="67.0605" r="1.02143" fill="#12B9C0"/>
<circle cx="102.779" cy="67.0605" r="1.02143" fill="#12B9C0"/>
<circle cx="110.949" cy="67.0605" r="1.02143" fill="#12B9C0"/>
<circle cx="94.6074" cy="71.1464" r="1.02143" fill="#12B9C0"/>
<circle cx="102.779" cy="71.1464" r="1.02143" fill="#12B9C0"/>
<circle cx="110.951" cy="71.1464" r="1.02143" fill="#12B9C0"/>
<circle cx="94.6074" cy="26.2031" r="1.02143" fill="#12B9C0"/>
<circle cx="94.6074" cy="75.2324" r="1.02143" fill="#12B9C0"/>
<circle cx="102.779" cy="75.2324" r="1.02143" fill="#12B9C0"/>
<circle cx="110.951" cy="75.2324" r="1.02143" fill="#12B9C0"/>
<circle cx="94.6074" cy="30.289" r="1.02143" fill="#12B9C0"/>
<circle cx="94.6074" cy="79.3183" r="1.02143" fill="#12B9C0"/>
<circle cx="102.779" cy="79.3183" r="1.02143" fill="#12B9C0"/>
<circle cx="110.949" cy="79.3183" r="1.02143" fill="#12B9C0"/>
<circle cx="94.6074" cy="34.373" r="1.02143" fill="#12B9C0"/>
<circle cx="102.779" cy="34.373" r="1.02143" fill="#12B9C0"/>
<circle cx="94.6074" cy="83.4042" r="1.02143" fill="#12B9C0"/>
<circle cx="102.779" cy="83.4042" r="1.02143" fill="#12B9C0"/>
<circle cx="94.6074" cy="38.4589" r="1.02143" fill="#12B9C0"/>
<circle cx="102.779" cy="38.4589" r="1.02143" fill="#12B9C0"/>
<circle cx="94.6074" cy="87.4902" r="1.02143" fill="#12B9C0"/>
<circle cx="102.779" cy="87.4902" r="1.02143" fill="#12B9C0"/>
<rect x="41.8745" y="70.541" width="18.0498" height="18.0498" rx="4" fill="white"/>
<path fill-rule="evenodd" clip-rule="evenodd" d="M41.8283 47.9469C42.3236 47.4419 42.9954 47.1582 43.6958 47.1582H48.9187C49.4589 47.1582 49.9458 47.4899 50.1525 47.9987C50.3592 48.5075 50.2449 49.0932 49.863 49.4826L43.3344 56.1392C42.9524 56.5287 42.3781 56.6452 41.8791 56.4344C41.38 56.2237 41.0547 55.7272 41.0547 55.1765V49.8511C41.0547 49.1369 41.3329 48.452 41.8283 47.9469ZM43.7255 49.8814V51.8893L45.6948 49.8814H43.7255ZM56.2882 48.5198C56.2882 47.7678 56.8861 47.1582 57.6236 47.1582H66.3285C67.066 47.1582 67.6639 47.7678 67.6639 48.5198C67.6639 49.2718 67.066 49.8814 66.3285 49.8814H57.6236C56.8861 49.8814 56.2882 49.2718 56.2882 48.5198ZM73.7996 47.9987C74.0063 47.4899 74.4932 47.1582 75.0334 47.1582H80.2563C80.9567 47.1582 81.6285 47.4419 82.1238 47.9469C82.6192 48.452 82.8974 49.1369 82.8974 49.8511V55.1765C82.8974 55.7272 82.5721 56.2237 82.073 56.4344C81.574 56.6452 80.9997 56.5287 80.6177 56.1392L74.0891 49.4826C73.7072 49.0932 73.5929 48.5075 73.7996 47.9987ZM78.2573 49.8814L80.2266 51.8893V49.8814H78.2573ZM42.3901 62.6904C43.1276 62.6904 43.7255 63.3 43.7255 64.052V69.3471H58.4941C59.1946 69.3471 59.8664 69.6308 60.3617 70.1358C60.857 70.6409 61.1352 71.3258 61.1352 72.04V87.0982H66.3285C67.066 87.0982 67.6639 87.7078 67.6639 88.4598C67.6639 89.2118 67.066 89.8214 66.3285 89.8214H43.6958C42.9954 89.8214 42.3236 89.5377 41.8283 89.0326C41.3329 88.5276 41.0547 87.8427 41.0547 87.1285V64.052C41.0547 63.3 41.6526 62.6904 42.3901 62.6904ZM43.7255 72.0703V87.0982H58.4644V72.0703H43.7255ZM58.4644 64.052C58.4644 63.3 59.0623 62.6904 59.7998 62.6904H66.3285C67.066 62.6904 67.6639 63.3 67.6639 64.052V70.7087C67.6639 71.4607 67.066 72.0703 66.3285 72.0703C65.591 72.0703 64.9931 71.4607 64.9931 70.7087V65.4136H59.7998C59.0623 65.4136 58.4644 64.804 58.4644 64.052ZM82.8974 64.052V72.9276C82.8974 73.6796 82.2995 74.2892 81.562 74.2892C80.8245 74.2892 80.2266 73.6796 80.2266 72.9276V64.052C80.2266 63.3 80.8245 62.6904 81.562 62.6904C82.2995 62.6904 82.8974 63.3 82.8974 64.052ZM82.073 80.5452C82.5721 80.7559 82.8974 81.2524 82.8974 81.8031V87.1285C82.8974 87.8427 82.6192 88.5276 82.1238 89.0326C81.6285 89.5377 80.9567 89.8214 80.2563 89.8214H75.0334C74.4932 89.8214 74.0063 89.4896 73.7996 88.9808C73.5929 88.4721 73.7072 87.8864 74.0891 87.497L80.6177 80.8403C80.9997 80.4509 81.574 80.3344 82.073 80.5452ZM78.2573 87.0982H80.2266V85.0903L78.2573 87.0982Z" fill="#12B9C0"/>
</svg>
