<svg width="126" height="123" viewBox="0 0 126 123" fill="none" xmlns="http://www.w3.org/2000/svg">
<ellipse cx="68" cy="57" rx="57.5" ry="57" fill="white"/>
<circle cx="57.5" cy="66" r="55" stroke="#12B9C0" stroke-width="4"/>
<circle cx="90.5214" cy="40.5039" r="1.02143" fill="#12B9C0"/>
<circle cx="98.6933" cy="40.5039" r="1.02143" fill="#12B9C0"/>
<circle cx="106.865" cy="40.5019" r="1.02143" fill="#12B9C0"/>
<circle cx="90.5214" cy="89.5331" r="1.02143" fill="#12B9C0"/>
<circle cx="98.6933" cy="89.5331" r="1.02143" fill="#12B9C0"/>
<circle cx="106.865" cy="89.5331" r="1.02143" fill="#12B9C0"/>
<circle cx="90.5214" cy="44.5878" r="1.02143" fill="#12B9C0"/>
<circle cx="98.6933" cy="44.5878" r="1.02143" fill="#12B9C0"/>
<circle cx="106.865" cy="44.5878" r="1.02143" fill="#12B9C0"/>
<circle cx="90.5214" cy="93.6171" r="1.02143" fill="#12B9C0"/>
<circle cx="98.6933" cy="93.6171" r="1.02143" fill="#12B9C0"/>
<circle cx="90.5214" cy="48.6738" r="1.02143" fill="#12B9C0"/>
<circle cx="98.6933" cy="48.6738" r="1.02143" fill="#12B9C0"/>
<circle cx="106.865" cy="48.6738" r="1.02143" fill="#12B9C0"/>
<circle cx="90.5214" cy="97.7031" r="1.02143" fill="#12B9C0"/>
<circle cx="98.6933" cy="97.7031" r="1.02143" fill="#12B9C0"/>
<circle cx="90.5214" cy="52.7597" r="1.02143" fill="#12B9C0"/>
<circle cx="98.6933" cy="52.7597" r="1.02143" fill="#12B9C0"/>
<circle cx="106.865" cy="52.7597" r="1.02143" fill="#12B9C0"/>
<circle cx="90.5214" cy="101.789" r="1.02143" fill="#12B9C0"/>
<circle cx="98.6933" cy="101.789" r="1.02143" fill="#12B9C0"/>
<circle cx="90.5214" cy="56.8456" r="1.02143" fill="#12B9C0"/>
<circle cx="98.6933" cy="56.8456" r="1.02143" fill="#12B9C0"/>
<circle cx="106.865" cy="56.8456" r="1.02143" fill="#12B9C0"/>
<circle cx="90.5214" cy="105.875" r="1.02143" fill="#12B9C0"/>
<circle cx="90.5214" cy="60.9316" r="1.02143" fill="#12B9C0"/>
<circle cx="98.6933" cy="60.9316" r="1.02143" fill="#12B9C0"/>
<circle cx="106.865" cy="60.9316" r="1.02143" fill="#12B9C0"/>
<circle cx="90.5214" cy="109.961" r="1.02143" fill="#12B9C0"/>
<circle cx="90.5214" cy="65.0175" r="1.02143" fill="#12B9C0"/>
<circle cx="98.6933" cy="65.0175" r="1.02143" fill="#12B9C0"/>
<circle cx="106.865" cy="65.0175" r="1.02143" fill="#12B9C0"/>
<circle cx="90.5214" cy="69.1035" r="1.02143" fill="#12B9C0"/>
<circle cx="98.6933" cy="69.1035" r="1.02143" fill="#12B9C0"/>
<circle cx="106.865" cy="69.1035" r="1.02143" fill="#12B9C0"/>
<circle cx="90.5214" cy="24.1601" r="1.02143" fill="#12B9C0"/>
<circle cx="90.5214" cy="73.1894" r="1.02143" fill="#12B9C0"/>
<circle cx="98.6933" cy="73.1894" r="1.02143" fill="#12B9C0"/>
<circle cx="106.865" cy="73.1894" r="1.02143" fill="#12B9C0"/>
<circle cx="90.5214" cy="28.246" r="1.02143" fill="#12B9C0"/>
<circle cx="98.6933" cy="28.246" r="1.02143" fill="#12B9C0"/>
<circle cx="90.5214" cy="77.2753" r="1.02143" fill="#12B9C0"/>
<circle cx="98.6933" cy="77.2753" r="1.02143" fill="#12B9C0"/>
<circle cx="106.865" cy="77.2753" r="1.02143" fill="#12B9C0"/>
<circle cx="90.5214" cy="32.332" r="1.02143" fill="#12B9C0"/>
<circle cx="98.6933" cy="32.332" r="1.02143" fill="#12B9C0"/>
<circle cx="90.5214" cy="81.3613" r="1.02143" fill="#12B9C0"/>
<circle cx="98.6933" cy="81.3613" r="1.02143" fill="#12B9C0"/>
<circle cx="106.865" cy="81.3613" r="1.02143" fill="#12B9C0"/>
<circle cx="90.5214" cy="36.416" r="1.02143" fill="#12B9C0"/>
<circle cx="98.6933" cy="36.416" r="1.02143" fill="#12B9C0"/>
<circle cx="90.5214" cy="85.4453" r="1.02143" fill="#12B9C0"/>
<circle cx="98.6933" cy="85.4453" r="1.02143" fill="#12B9C0"/>
<circle cx="106.865" cy="85.4472" r="1.02143" fill="#12B9C0"/>
<circle cx="94.6074" cy="42.5449" r="1.02143" fill="#12B9C0"/>
<circle cx="102.779" cy="42.5449" r="1.02143" fill="#12B9C0"/>
<circle cx="94.6074" cy="91.5761" r="1.02143" fill="#12B9C0"/>
<circle cx="102.779" cy="91.5761" r="1.02143" fill="#12B9C0"/>
<circle cx="94.6074" cy="46.6308" r="1.02143" fill="#12B9C0"/>
<circle cx="102.779" cy="46.6308" r="1.02143" fill="#12B9C0"/>
<circle cx="94.6074" cy="95.6601" r="1.02143" fill="#12B9C0"/>
<circle cx="102.779" cy="95.6601" r="1.02143" fill="#12B9C0"/>
<circle cx="94.6074" cy="50.7167" r="1.02143" fill="#12B9C0"/>
<circle cx="102.779" cy="50.7167" r="1.02143" fill="#12B9C0"/>
<circle cx="110.951" cy="50.7167" r="1.02143" fill="#12B9C0"/>
<circle cx="94.6074" cy="99.746" r="1.02143" fill="#12B9C0"/>
<circle cx="94.6074" cy="54.8027" r="1.02143" fill="#12B9C0"/>
<circle cx="102.779" cy="54.8027" r="1.02143" fill="#12B9C0"/>
<circle cx="110.951" cy="54.8027" r="1.02143" fill="#12B9C0"/>
<circle cx="94.6074" cy="103.832" r="1.02143" fill="#12B9C0"/>
<circle cx="94.6074" cy="58.8886" r="1.02143" fill="#12B9C0"/>
<circle cx="102.779" cy="58.8886" r="1.02143" fill="#12B9C0"/>
<circle cx="110.949" cy="58.8886" r="1.02143" fill="#12B9C0"/>
<circle cx="94.6074" cy="62.9746" r="1.02143" fill="#12B9C0"/>
<circle cx="102.779" cy="62.9746" r="1.02143" fill="#12B9C0"/>
<circle cx="110.949" cy="62.9746" r="1.02143" fill="#12B9C0"/>
<circle cx="94.6074" cy="67.0605" r="1.02143" fill="#12B9C0"/>
<circle cx="102.779" cy="67.0605" r="1.02143" fill="#12B9C0"/>
<circle cx="110.949" cy="67.0605" r="1.02143" fill="#12B9C0"/>
<circle cx="94.6074" cy="71.1464" r="1.02143" fill="#12B9C0"/>
<circle cx="102.779" cy="71.1464" r="1.02143" fill="#12B9C0"/>
<circle cx="110.951" cy="71.1464" r="1.02143" fill="#12B9C0"/>
<circle cx="94.6074" cy="26.2031" r="1.02143" fill="#12B9C0"/>
<circle cx="94.6074" cy="75.2324" r="1.02143" fill="#12B9C0"/>
<circle cx="102.779" cy="75.2324" r="1.02143" fill="#12B9C0"/>
<circle cx="110.951" cy="75.2324" r="1.02143" fill="#12B9C0"/>
<circle cx="94.6074" cy="30.289" r="1.02143" fill="#12B9C0"/>
<circle cx="94.6074" cy="79.3183" r="1.02143" fill="#12B9C0"/>
<circle cx="102.779" cy="79.3183" r="1.02143" fill="#12B9C0"/>
<circle cx="110.949" cy="79.3183" r="1.02143" fill="#12B9C0"/>
<circle cx="94.6074" cy="34.373" r="1.02143" fill="#12B9C0"/>
<circle cx="102.779" cy="34.373" r="1.02143" fill="#12B9C0"/>
<circle cx="94.6074" cy="83.4042" r="1.02143" fill="#12B9C0"/>
<circle cx="102.779" cy="83.4042" r="1.02143" fill="#12B9C0"/>
<circle cx="94.6074" cy="38.4589" r="1.02143" fill="#12B9C0"/>
<circle cx="102.779" cy="38.4589" r="1.02143" fill="#12B9C0"/>
<circle cx="94.6074" cy="87.4902" r="1.02143" fill="#12B9C0"/>
<circle cx="102.779" cy="87.4902" r="1.02143" fill="#12B9C0"/>
<path fill-rule="evenodd" clip-rule="evenodd" d="M65.7464 68.8981C65.342 67.7545 64.593 66.7644 63.6025 66.0641C62.6121 65.3638 61.4289 64.9877 60.2158 64.9877V63.5215H57.2834V64.9877C55.7279 64.9877 54.2361 65.6056 53.1363 66.7055C52.0364 67.8054 51.4185 69.2972 51.4185 70.8526C51.4185 72.4081 52.0364 73.8999 53.1363 74.9997C54.2361 76.0996 55.7279 76.7175 57.2834 76.7175V82.5824C56.0077 82.5824 54.9213 81.7687 54.5166 80.628C54.4566 80.4413 54.3597 80.2686 54.2318 80.1201C54.1038 79.9716 53.9474 79.8502 53.7717 79.7632C53.596 79.6761 53.4047 79.6252 53.209 79.6134C53.0133 79.6016 52.8172 79.6292 52.6324 79.6945C52.4475 79.7598 52.2776 79.8615 52.1328 79.9937C51.9879 80.1258 51.8711 80.2856 51.789 80.4637C51.707 80.6417 51.6616 80.8344 51.6553 81.0304C51.6491 81.2263 51.6822 81.4215 51.7528 81.6045C52.1572 82.7481 52.9062 83.7382 53.8967 84.4385C54.8871 85.1388 56.0703 85.5149 57.2834 85.5149V86.9811H60.2158V85.5149C61.7713 85.5149 63.2631 84.897 64.3629 83.7971C65.4628 82.6972 66.0807 81.2055 66.0807 79.65C66.0807 78.0945 65.4628 76.6028 64.3629 75.5029C63.2631 74.403 61.7713 73.7851 60.2158 73.7851V67.9202C60.8223 67.92 61.4139 68.1079 61.9091 68.4579C62.4043 68.808 62.7789 69.3029 62.9811 69.8746C63.1106 70.2414 63.3805 70.5416 63.7313 70.7093C63.9051 70.7924 64.0935 70.8404 64.2857 70.8506C64.478 70.8609 64.6705 70.8332 64.852 70.769C65.0336 70.7049 65.2008 70.6057 65.344 70.477C65.4872 70.3482 65.6037 70.1926 65.6867 70.0188C65.7698 69.8451 65.8178 69.6567 65.828 69.4644C65.8383 69.2721 65.8105 69.0797 65.7464 68.8981ZM57.2834 67.9202C56.5056 67.9202 55.7598 68.2291 55.2098 68.7791C54.6599 69.329 54.3509 70.0749 54.3509 70.8526C54.3509 71.6304 54.6599 72.3762 55.2098 72.9262C55.7598 73.4761 56.5056 73.7851 57.2834 73.7851V67.9202ZM60.2158 82.5824C60.9936 82.5824 61.7394 82.2735 62.2894 81.7235C62.8393 81.1736 63.1483 80.4277 63.1483 79.65C63.1483 78.8723 62.8393 78.1264 62.2894 77.5764C61.7394 77.0265 60.9936 76.7175 60.2158 76.7175V82.5824Z" fill="#12B9C0"/>
<path fill-rule="evenodd" clip-rule="evenodd" d="M42.8457 45.3664C46.4439 43.6055 52.3469 41.5234 58.8071 41.5234C65.1324 41.5234 70.88 43.519 74.4591 45.2565L74.6614 45.3547C75.7406 45.8884 76.6115 46.3928 77.2244 46.8019L71.8081 54.7195C84.2945 67.4845 93.9394 94.3032 58.8071 94.3032C23.6748 94.3032 33.0601 67.9712 45.655 54.7195L40.274 46.8019C40.6889 46.5306 41.2153 46.2154 41.8428 45.8811C42.1537 45.7139 42.488 45.5424 42.8457 45.3679V45.3664ZM68.3273 54.6139L72.6629 48.2754C68.6308 48.5657 63.8333 49.5129 59.2147 50.8501C55.9157 51.8032 52.2501 51.658 48.8558 51.0319C48.0005 50.8733 47.151 50.6846 46.309 50.466L49.1241 54.611C55.1576 56.759 62.2923 56.759 68.3273 54.6139ZM47.4306 57.1094C54.4905 59.8366 62.9756 59.8366 70.0355 57.1065C72.9824 60.213 75.4476 63.7432 77.349 67.5798C79.3313 71.6236 80.4105 75.666 80.2345 79.1498C80.0645 82.5118 78.7419 85.3842 75.7215 87.519C72.5735 89.7433 67.2789 91.3708 58.8056 91.3708C50.3235 91.3708 45.004 89.7711 41.8267 87.5718C38.7843 85.4633 37.4486 82.6306 37.2594 79.314C37.0615 75.8683 38.1172 71.8465 40.0922 67.7748C41.9763 63.8922 44.6052 60.1548 47.4306 57.1094ZM45.7445 47.2652C46.9175 47.6141 48.1432 47.9177 49.3866 48.1479C52.539 48.7285 55.7002 48.8135 58.398 48.032C61.5419 47.1161 64.7395 46.3958 67.9725 45.8752C65.2746 45.0629 62.1193 44.4559 58.8056 44.4559C53.7545 44.4559 49.0435 45.8649 45.7445 47.2652Z" fill="#12B9C0"/>
</svg>
