<?xml version="1.0" encoding="UTF-8"?> <svg xmlns="http://www.w3.org/2000/svg" width="557" height="546" viewBox="0 0 557 546" fill="none"><path d="M450.692 93.6523L450.384 86.2007L442.376 84.7386C441.993 83.0283 441.483 81.365 440.833 79.7754L446.574 74.0141L442.583 67.7162L434.911 70.4593C433.737 69.185 432.463 68.0113 431.094 66.9448L433.194 59.0708L426.587 55.61L421.322 61.8073C419.686 61.2908 417.989 60.9152 416.252 60.6805L414.132 52.8198L406.681 53.1283L405.218 61.1433C403.508 61.5256 401.845 62.0353 400.255 62.6859L394.494 56.9447L388.196 60.9353L390.939 68.6082C389.665 69.7819 388.491 71.0563 387.425 72.4245L379.551 70.3252L376.09 76.9316L382.287 82.1966C381.771 83.8332 381.395 85.53 381.16 87.2672L373.3 89.3866L373.608 96.8381L381.623 98.3002C382.005 100.011 382.515 101.674 383.166 103.263L377.425 109.025L381.415 115.323L389.088 112.58C390.262 113.854 391.536 115.028 392.904 116.094L390.805 123.968L397.412 127.429L402.676 121.232C404.313 121.748 406.01 122.124 407.747 122.358L409.866 130.219L417.318 129.911L418.78 121.902C420.49 121.52 422.154 121.01 423.743 120.36L429.505 126.101L435.803 122.11L433.059 114.437C434.334 113.264 435.507 111.989 436.574 110.621L444.448 112.72L447.909 106.114L441.712 100.849C442.228 99.2124 442.604 97.5155 442.838 95.7784L450.699 93.659L450.692 93.6523ZM412.791 110.702C402.2 111.138 393.26 102.908 392.817 92.3176C392.381 81.7272 400.611 72.7867 411.201 72.344C421.792 71.9081 430.732 80.1376 431.175 90.728C431.611 101.318 423.381 110.259 412.791 110.702Z" fill="#E1F9FA"></path><path d="M407.853 129.213C407.404 129.213 407.001 128.911 406.881 128.468L404.936 121.245C403.594 121.037 402.28 120.742 401.005 120.373L396.17 126.067C395.868 126.422 395.351 126.523 394.935 126.308L388.329 122.848C387.913 122.626 387.705 122.15 387.826 121.701L389.751 114.464C388.711 113.619 387.719 112.707 386.793 111.741L379.744 114.263C379.301 114.424 378.805 114.249 378.557 113.853L374.566 107.556C374.311 107.16 374.372 106.637 374.7 106.308L379.979 101.016C379.503 99.7754 379.107 98.4876 378.785 97.173L371.421 95.8316C370.958 95.7444 370.616 95.3554 370.596 94.886L370.287 87.4344C370.267 86.9649 370.576 86.5424 371.032 86.4217L378.255 84.4766C378.463 83.1419 378.758 81.8206 379.127 80.5463L373.433 75.7105C373.071 75.4087 372.977 74.8923 373.191 74.4764L376.652 67.87C376.874 67.4542 377.35 67.2463 377.799 67.367L385.036 69.2919C385.881 68.2523 386.793 67.2597 387.759 66.3341L385.244 59.285C385.083 58.8423 385.257 58.346 385.653 58.0979L391.951 54.1072C392.347 53.8523 392.863 53.9127 393.198 54.2413L398.49 59.5197C399.731 59.0435 401.019 58.6478 402.333 58.3259L403.675 50.9616C403.762 50.4988 404.151 50.1567 404.62 50.1366L412.072 49.8281C412.541 49.808 412.964 50.1165 413.085 50.5726L415.03 57.796C416.371 58.004 417.686 58.2991 418.96 58.668L423.796 52.9737C424.098 52.6182 424.614 52.5176 425.03 52.7322L431.636 56.1931C432.052 56.4144 432.26 56.8906 432.139 57.3467L430.214 64.5836C431.254 65.4286 432.247 66.3408 433.172 67.3066L440.221 64.7848C440.664 64.6305 441.16 64.7982 441.408 65.1939L445.399 71.4918C445.654 71.8875 445.594 72.4107 445.265 72.7393L439.987 78.0312C440.456 79.272 440.859 80.5597 441.181 81.8743L448.545 83.2157C449.008 83.3029 449.35 83.6919 449.37 84.1614L449.678 91.6129C449.698 92.0824 449.39 92.5049 448.934 92.6257L441.71 94.5707C441.503 95.9121 441.207 97.2267 440.838 98.501L446.539 103.337C446.902 103.639 446.995 104.155 446.781 104.571L443.32 111.177C443.099 111.593 442.623 111.801 442.173 111.68L434.936 109.755C434.091 110.795 433.179 111.788 432.213 112.713L434.728 119.762C434.889 120.205 434.715 120.701 434.319 120.949L428.021 124.94C427.626 125.195 427.109 125.135 426.774 124.806L421.482 119.528C420.241 120.004 418.953 120.4 417.639 120.721L416.297 128.086C416.21 128.549 415.821 128.891 415.352 128.911L407.9 129.219C407.9 129.219 407.873 129.219 407.86 129.219L407.853 129.213ZM400.663 118.213C400.764 118.213 400.865 118.226 400.965 118.26C402.541 118.756 404.191 119.118 405.875 119.353C406.277 119.407 406.606 119.695 406.713 120.091L408.625 127.18L414.466 126.939L415.781 119.715C415.855 119.32 416.157 119.004 416.552 118.911C418.209 118.542 419.825 118.039 421.355 117.422C421.73 117.267 422.159 117.355 422.448 117.643L427.639 122.821L432.575 119.689L430.107 112.774C429.973 112.391 430.074 111.969 430.375 111.694C431.603 110.56 432.75 109.319 433.776 107.998C434.024 107.676 434.44 107.542 434.829 107.643L441.925 109.534L444.635 104.356L439.048 99.6144C438.739 99.3528 438.618 98.9303 438.739 98.548C439.235 96.9718 439.598 95.3219 439.826 93.6451C439.879 93.2427 440.168 92.9141 440.563 92.8068L447.653 90.8953L447.411 85.0534L440.195 83.7389C439.799 83.6651 439.484 83.3633 439.396 82.9675C439.027 81.3042 438.524 79.6945 437.907 78.1653C437.753 77.7897 437.84 77.3605 438.129 77.0721L443.307 71.8808L440.174 66.9444L433.26 69.4126C432.877 69.5468 432.455 69.4462 432.18 69.1443C431.046 67.9102 429.805 66.7701 428.484 65.7439C428.162 65.4957 428.028 65.0799 428.129 64.6909L430.02 57.5948L424.842 54.8852L420.1 60.4721C419.839 60.7807 419.416 60.9014 419.034 60.7807C417.458 60.2843 415.808 59.9222 414.131 59.6874C413.729 59.6338 413.4 59.3454 413.293 58.9496L411.381 51.8603L405.539 52.1018L404.225 59.3252C404.151 59.721 403.849 60.0362 403.453 60.1301C401.797 60.499 400.18 61.002 398.651 61.619C398.276 61.7733 397.846 61.6861 397.565 61.3977L392.373 56.2199L387.437 59.3521L389.905 66.267C390.039 66.6493 389.939 67.0719 389.637 67.3469C388.41 68.4803 387.263 69.7211 386.236 71.0424C385.988 71.3644 385.573 71.4985 385.184 71.3979L378.087 69.5065L375.378 74.6844L380.965 79.4262C381.273 79.6878 381.394 80.1103 381.273 80.4926C380.777 82.0688 380.415 83.7187 380.187 85.4022C380.133 85.8046 379.845 86.1333 379.449 86.2406L372.36 88.1521L372.601 93.9939L379.825 95.3085C380.22 95.3823 380.536 95.6841 380.629 96.0798C380.998 97.7364 381.501 99.3528 382.118 100.882C382.273 101.258 382.185 101.687 381.897 101.975L376.719 107.167L379.851 112.103L386.766 109.635C387.149 109.501 387.571 109.601 387.846 109.903C388.98 111.137 390.22 112.277 391.542 113.303C391.864 113.552 391.998 113.967 391.897 114.356L390.006 121.453L395.184 124.162L399.926 118.575C400.12 118.347 400.402 118.22 400.69 118.22L400.663 118.213ZM409.966 109.715C404.889 109.715 400.066 107.837 396.304 104.376C392.333 100.721 390.026 95.7377 389.805 90.352C389.583 84.9595 391.468 79.8085 395.123 75.838C398.779 71.8674 403.762 69.5602 409.148 69.3321C420.288 68.8761 429.705 77.5483 430.167 88.6819C430.63 99.8089 421.951 109.239 410.818 109.702C410.529 109.715 410.248 109.722 409.959 109.722L409.966 109.715ZM409.993 71.3241C409.738 71.3241 409.483 71.3241 409.228 71.3375C404.372 71.5388 399.885 73.6179 396.599 77.1928C393.306 80.7676 391.609 85.4089 391.81 90.2648C392.011 95.1207 394.09 99.6077 397.665 102.894C401.24 106.187 405.881 107.884 410.737 107.683C420.758 107.267 428.571 98.776 428.155 88.7557C427.753 78.9903 419.678 71.3174 409.993 71.3174V71.3241Z" fill="#26D0D8"></path><path d="M374.025 53.2597L372.395 42.7497L360.805 41.9583C359.994 39.5907 358.994 37.3237 357.827 35.1775L365.044 26.0962L358.377 17.8063L347.941 22.917C346.077 21.3006 344.078 19.8385 341.965 18.5507L343.675 7.0616L333.762 3.21846L327.29 12.8498C324.889 12.387 322.421 12.1254 319.919 12.065L315.66 1.26001L305.15 2.88982L304.359 14.4796C301.991 15.2911 299.724 16.2905 297.578 17.4575L288.497 10.2407L280.207 16.9075L285.318 27.3437C283.701 29.2082 282.239 31.2069 280.951 33.3129L269.462 31.6026L265.619 41.5156L275.25 47.9879C274.781 50.389 274.526 52.8572 274.466 55.359L263.661 59.6179L265.29 70.1279L276.88 70.9193C277.692 73.2869 278.691 75.5538 279.858 77.7001L272.641 86.7814L279.308 95.0713L289.744 89.9606C291.609 91.577 293.607 93.0391 295.713 94.3268L294.003 105.816L303.916 109.659L310.389 100.028C312.79 100.497 315.258 100.752 317.753 100.813L322.012 111.618L332.522 109.988L333.313 98.398C335.681 97.5865 337.948 96.5871 340.094 95.4201L349.175 102.637L357.458 95.9701L352.348 85.5339C353.964 83.6694 355.426 81.6707 356.714 79.5579L368.203 81.2682L372.046 71.3552L362.415 64.883C362.884 62.4818 363.139 60.0136 363.2 57.5119L374.005 53.2529L374.025 53.2597ZM323.038 83.4883C308.095 85.8022 294.104 75.5673 291.79 60.6307C289.476 45.6874 299.711 31.6965 314.647 29.3826C329.591 27.0687 343.582 37.3036 345.896 52.2402C348.209 67.1768 337.974 81.1743 323.038 83.4883Z" fill="#E1F9FA"></path><path d="M319.113 113.296C318.704 113.296 318.328 113.047 318.181 112.658L314.163 102.47C312.057 102.39 309.978 102.169 307.952 101.806L301.849 110.888C301.587 111.277 301.084 111.431 300.648 111.263L290.735 107.42C290.299 107.253 290.031 106.796 290.105 106.334L291.721 95.4951C289.964 94.3884 288.281 93.1543 286.691 91.8129L276.852 96.6353C276.429 96.8432 275.92 96.7292 275.624 96.3603L268.958 88.0704C268.663 87.7015 268.663 87.1851 268.958 86.8162L275.765 78.2513C274.813 76.4337 273.968 74.5155 273.257 72.5369L262.331 71.7924C261.862 71.7589 261.479 71.4101 261.406 70.9406L259.776 60.4307C259.702 59.9679 259.964 59.5118 260.4 59.3374L270.587 55.3199C270.668 53.2206 270.889 51.1347 271.251 49.1092L262.17 43.0058C261.781 42.7442 261.62 42.2479 261.795 41.8052L265.638 31.8922C265.805 31.4563 266.261 31.188 266.724 31.2618L277.563 32.8782C278.669 31.1276 279.904 29.4375 281.245 27.8479L276.423 18.0087C276.215 17.5861 276.329 17.0764 276.698 16.7813L284.987 10.1145C285.356 9.81939 285.873 9.81939 286.242 10.1145L294.807 16.9221C296.631 15.963 298.549 15.1247 300.521 14.4137L301.265 3.48794C301.299 3.01845 301.648 2.63615 302.117 2.56237L312.627 0.932562C313.09 0.858785 313.546 1.12036 313.714 1.55632L317.731 11.7443C319.831 11.8248 321.916 12.0461 323.942 12.4083L330.045 3.32697C330.307 2.93797 330.803 2.777 331.246 2.95138L341.159 6.79451C341.595 6.96219 341.856 7.41827 341.789 7.88105L340.173 18.7196C341.93 19.8263 343.614 21.0604 345.203 22.4018L355.042 17.5794C355.465 17.3715 355.975 17.4855 356.27 17.8544L362.937 26.1443C363.232 26.5132 363.232 27.0296 362.937 27.3985L356.129 35.9634C357.088 37.781 357.927 39.6992 358.637 41.6778L369.563 42.4223C370.033 42.4558 370.415 42.8046 370.489 43.2741L372.119 53.784C372.192 54.2468 371.931 54.7029 371.495 54.8773L361.307 58.8948C361.226 60.9941 361.005 63.08 360.643 65.1055L369.724 71.2089C370.113 71.4705 370.274 71.9668 370.1 72.4094L366.257 82.3224C366.089 82.7584 365.64 83.0267 365.17 82.9529L354.332 81.3365C353.225 83.0938 351.984 84.7772 350.649 86.3668L355.472 96.206C355.68 96.6286 355.566 97.1383 355.197 97.4334L346.914 104.1C346.545 104.395 346.021 104.395 345.659 104.1L337.094 97.2926C335.277 98.245 333.359 99.09 331.38 99.801L330.636 110.727C330.602 111.196 330.253 111.579 329.784 111.652L319.274 113.282C319.22 113.289 319.173 113.296 319.12 113.296H319.113ZM307.483 99.6937C307.543 99.6937 307.61 99.6937 307.677 99.7138C310.005 100.163 312.426 100.425 314.874 100.478C315.276 100.485 315.639 100.74 315.786 101.116L319.75 111.169L328.67 109.788L329.408 99.0029C329.435 98.6004 329.703 98.2517 330.086 98.1175C332.399 97.3194 334.633 96.3402 336.712 95.2067C337.068 95.0122 337.504 95.0524 337.819 95.3006L346.27 102.021L353.305 96.367L348.55 86.6552C348.369 86.293 348.429 85.8571 348.691 85.5552C350.267 83.7376 351.702 81.7725 352.963 79.7201C353.171 79.3781 353.574 79.1903 353.969 79.2506L364.667 80.8469L367.927 72.4296L358.966 66.4067C358.631 66.1786 358.463 65.7762 358.537 65.3805C358.986 63.0464 359.248 60.6252 359.301 58.1838C359.308 57.7814 359.563 57.4192 359.939 57.2717L369.999 53.3078L368.617 44.3875L357.833 43.6497C357.43 43.6228 357.081 43.3546 356.947 42.9723C356.156 40.6583 355.17 38.4316 354.036 36.3457C353.842 35.9902 353.882 35.5543 354.13 35.2391L360.851 26.7882L355.197 19.7525L345.485 24.5078C345.123 24.6822 344.687 24.6285 344.385 24.3669C342.567 22.7908 340.602 21.3555 338.543 20.0946C338.201 19.8866 338.013 19.4842 338.074 19.0885L339.67 8.39079L331.253 5.13117L325.23 14.0918C325.002 14.4271 324.599 14.5948 324.203 14.521C321.869 14.0716 319.448 13.8101 317 13.7564C316.598 13.7497 316.236 13.4948 316.088 13.1192L312.124 3.0654L303.204 4.44705L302.466 15.232C302.439 15.6344 302.171 15.9832 301.789 16.1173C299.475 16.9087 297.248 17.888 295.162 19.0281C294.807 19.2227 294.371 19.1824 294.055 18.9342L285.605 12.2138L278.569 17.8745L283.324 27.5863C283.505 27.9485 283.445 28.3845 283.183 28.6863C281.607 30.5106 280.165 32.469 278.911 34.5214C278.703 34.8635 278.301 35.0513 277.905 34.9909L267.207 33.3946L263.948 41.812L272.908 47.8349C273.243 48.0629 273.411 48.4653 273.337 48.861C272.888 51.1951 272.626 53.6163 272.573 56.0577C272.566 56.4601 272.311 56.8223 271.936 56.9699L261.875 60.9337L263.257 69.8541L274.042 70.5918C274.444 70.6187 274.793 70.887 274.927 71.2693C275.725 73.5832 276.704 75.8166 277.838 77.8958C278.032 78.2513 277.992 78.6872 277.744 79.0025L271.023 87.4533L276.678 94.489L286.389 89.7337C286.751 89.5593 287.187 89.613 287.489 89.8746C289.307 91.4507 291.272 92.8927 293.331 94.147C293.673 94.3549 293.861 94.7573 293.801 95.153L292.204 105.851L300.622 109.11L306.645 100.15C306.832 99.8681 307.148 99.7071 307.483 99.7071V99.6937ZM315.92 85.4949C302.171 85.4949 290.058 75.4544 287.892 61.4569C286.731 53.9651 288.556 46.4666 293.029 40.3498C297.503 34.233 304.096 30.2222 311.588 29.0619C319.079 27.9016 326.578 29.7259 332.695 34.1995C338.812 38.6731 342.822 45.2661 343.983 52.7578C346.384 68.2243 335.746 82.7584 320.28 85.1528C318.811 85.3809 317.356 85.4882 315.914 85.4882L315.92 85.4949ZM315.994 30.7319C314.633 30.7319 313.264 30.8392 311.896 31.0472C304.934 32.127 298.811 35.8494 294.652 41.537C290.494 47.2245 288.797 54.1864 289.877 61.1483C292.104 75.5148 305.605 85.3943 319.978 83.1675C334.345 80.9408 344.224 67.4395 341.997 53.0664C340.917 46.1045 337.195 39.9809 331.508 35.8226C326.94 32.4825 321.548 30.7319 315.994 30.7319Z" fill="#26D0D8"></path><path d="M295.445 533.591C260.716 533.591 234.27 526.777 216.396 519.869C215.879 519.668 215.618 519.084 215.819 518.568C216.02 518.051 216.603 517.79 217.12 517.991C242.231 527.689 284.465 537.22 343.038 527.528C343.588 527.434 344.104 527.81 344.191 528.36C344.285 528.91 343.91 529.426 343.366 529.513C325.955 532.391 309.972 533.585 295.438 533.585L295.445 533.591Z" fill="#24AFB5"></path><path d="M296.711 546C248.903 546 215.019 534.645 194.127 524.343C193.63 524.095 193.422 523.491 193.67 522.995C193.919 522.499 194.522 522.291 195.019 522.539C218.788 534.256 259.54 547.348 318.723 543.203C319.266 543.163 319.756 543.585 319.796 544.135C319.837 544.685 319.414 545.168 318.864 545.209C311.178 545.745 303.787 545.993 296.717 545.993L296.711 546Z" fill="#24AFB5"></path><path d="M124.62 82.5329C124.532 82.5329 124.452 82.5195 124.365 82.4994C123.828 82.3585 123.506 81.8085 123.647 81.272L124.975 76.2417C125.116 75.7051 125.666 75.3832 126.202 75.524C126.739 75.6649 127.061 76.2149 126.92 76.7514L125.592 81.7817C125.471 82.2311 125.069 82.5329 124.62 82.5329Z" fill="#24AFB5"></path><path d="M121.527 94.2521C121.44 94.2521 121.359 94.2387 121.272 94.2186C120.736 94.0778 120.414 93.5278 120.555 92.9912L121.883 87.9609C122.023 87.4244 122.573 87.1024 123.11 87.2433C123.647 87.3841 123.968 87.9341 123.828 88.4707L122.5 93.501C122.379 93.9503 121.976 94.2521 121.527 94.2521Z" fill="#24AFB5"></path><path d="M120.394 85.0003C120.307 85.0003 120.226 84.9869 120.139 84.9668L115.109 83.6388C114.572 83.4979 114.251 82.9479 114.391 82.4114C114.532 81.8748 115.082 81.5529 115.619 81.6937L120.649 83.0217C121.185 83.1626 121.507 83.7125 121.367 84.2491C121.246 84.6985 120.844 85.0003 120.394 85.0003Z" fill="#24AFB5"></path><path d="M132.113 88.0862C132.026 88.0862 131.945 88.0728 131.858 88.0527L126.828 86.7247C126.291 86.5839 125.97 86.0339 126.11 85.4973C126.251 84.9608 126.801 84.6388 127.338 84.7797L132.368 86.1077C132.905 86.2485 133.227 86.7985 133.086 87.335C132.965 87.7844 132.563 88.0862 132.113 88.0862Z" fill="#24AFB5"></path><path d="M388.35 520.19C388.263 520.19 388.182 520.176 388.095 520.156C387.559 520.015 387.237 519.466 387.378 518.929L388.706 513.899C388.847 513.362 389.396 513.04 389.933 513.181C390.47 513.322 390.791 513.872 390.651 514.408L389.323 519.439C389.202 519.888 388.8 520.19 388.35 520.19Z" fill="#24AFB5"></path><path d="M385.264 531.909C385.177 531.909 385.097 531.895 385.01 531.875C384.473 531.735 384.151 531.185 384.292 530.648L385.62 525.618C385.761 525.081 386.311 524.759 386.847 524.9C387.384 525.041 387.706 525.591 387.565 526.127L386.237 531.158C386.116 531.607 385.714 531.909 385.264 531.909Z" fill="#24AFB5"></path><path d="M384.125 522.657C384.038 522.657 383.957 522.644 383.87 522.624L378.84 521.296C378.303 521.155 377.981 520.605 378.122 520.068C378.263 519.532 378.813 519.21 379.349 519.35L384.38 520.678C384.916 520.819 385.238 521.369 385.097 521.906C384.977 522.355 384.574 522.657 384.125 522.657Z" fill="#24AFB5"></path><path d="M395.844 525.743C395.757 525.743 395.676 525.73 395.589 525.71L390.559 524.382C390.022 524.241 389.7 523.691 389.841 523.154C389.982 522.618 390.532 522.296 391.069 522.437L396.099 523.765C396.636 523.905 396.957 524.455 396.817 524.992C396.696 525.441 396.293 525.743 395.844 525.743Z" fill="#24AFB5"></path><path d="M150.232 69.9603C149.065 69.9603 147.911 69.6518 146.872 69.0549C143.659 67.197 142.552 63.0722 144.41 59.8528C145.309 58.2968 146.764 57.1834 148.501 56.7139C150.238 56.2512 152.056 56.4859 153.612 57.3913C156.832 59.2492 157.931 63.374 156.074 66.5934C155.175 68.1494 153.719 69.2628 151.982 69.7323C151.405 69.8866 150.815 69.967 150.232 69.967V69.9603ZM150.245 58.498C149.836 58.498 149.42 58.5517 149.018 58.659C147.797 58.9876 146.778 59.7656 146.147 60.8589C144.846 63.1124 145.617 66.0099 147.878 67.311C148.971 67.9415 150.245 68.1092 151.466 67.7872C152.687 67.4586 153.706 66.6806 154.336 65.5873C155.638 63.3338 154.866 60.4363 152.606 59.1352C151.875 58.7126 151.07 58.498 150.252 58.498H150.245Z" fill="#24AFB5"></path><path d="M230.858 48.9546C232.077 46.0356 230.699 42.6809 227.78 41.4616C224.861 40.2424 221.506 41.6203 220.287 44.5393C219.068 47.4583 220.446 50.8129 223.365 52.0321C226.284 53.2513 229.638 51.8735 230.858 48.9546Z" fill="#E1F9FA"></path><path d="M42.406 197.257C42.2719 197.257 42.1444 197.23 42.0102 197.176C41.5005 196.962 41.259 196.365 41.4803 195.855C54.264 165.807 72.9834 139.496 95.6063 119.777C96.0221 119.415 96.6592 119.455 97.0281 119.878C97.3902 120.294 97.3501 120.931 96.9275 121.3C74.5327 140.824 56.0011 166.881 43.3315 196.653C43.1705 197.035 42.795 197.263 42.406 197.263V197.257Z" fill="#24AFB5"></path><path d="M40.0736 179.196C39.9327 179.196 39.7918 179.169 39.6576 179.109C39.1546 178.881 38.9266 178.284 39.1546 177.781C51.6096 150.242 68.4308 126.834 89.1422 108.202C91.6506 105.942 94.2328 103.748 96.815 101.676C97.2509 101.327 97.8815 101.401 98.2302 101.83C98.579 102.266 98.5052 102.897 98.076 103.245C95.5206 105.298 92.9719 107.471 90.4836 109.698C69.9735 128.142 53.3199 151.328 40.9789 178.612C40.8112 178.981 40.4424 179.203 40.0601 179.203L40.0736 179.196Z" fill="#24AFB5"></path><path d="M207.048 329.42C198.932 328.38 192.856 321.445 192.856 313.222L191.796 88.8182L195.78 80.1661C195.78 80.1661 203.01 75.3236 206.8 73.1573C209.08 71.8561 211.79 71.2458 214.627 71.6079L536.819 112.896C544.935 113.936 551.011 120.871 551.011 129.094V351.553C550.629 365.195 532.373 373.425 532.373 373.425L207.048 329.426V329.42Z" fill="#26D0D8"></path><path d="M525.241 374.8L201.103 333.263C192.941 332.217 186.824 325.235 186.824 316.972V93.1648C186.824 85.4718 193.545 79.5294 201.137 80.5019L525.275 122.039C533.437 123.085 539.554 130.067 539.554 138.33V362.13C539.554 369.823 532.833 375.766 525.241 374.793V374.8Z" fill="white"></path><path d="M513.637 364.256L212.712 325.691C205.133 324.718 199.452 318.239 199.452 310.566V102.796C199.452 95.6528 205.69 90.1396 212.739 91.0383L513.664 129.597C521.243 130.57 526.923 137.049 526.923 144.721V352.492C526.923 359.635 520.686 365.148 513.637 364.249V364.256Z" fill="#E1F9FA"></path><path d="M526.851 375.908C526.275 375.908 525.698 375.875 525.121 375.801L200.983 334.264C192.345 333.157 185.826 325.719 185.826 316.973L185.711 309.059C185.705 308.502 186.147 308.046 186.704 308.04C187.261 308.026 187.717 308.476 187.723 309.032L187.838 316.967C187.838 324.72 193.599 331.3 201.238 332.279L525.376 373.815C528.696 374.238 532.043 373.212 534.558 370.999C537.093 368.765 538.548 365.539 538.548 362.152V321.125C538.548 320.568 538.998 320.119 539.555 320.119C540.111 320.119 540.561 320.568 540.561 321.125V362.152C540.561 366.123 538.857 369.892 535.886 372.508C533.371 374.721 530.151 375.921 526.851 375.921V375.908Z" fill="#24AFB5"></path><path d="M539.554 214.797C538.997 214.797 538.548 214.347 538.548 213.791V138.33C538.548 130.59 532.787 124.01 525.147 123.031L201.01 81.4944C197.69 81.0718 194.343 82.098 191.828 84.3113C189.293 86.5448 187.837 89.7709 187.837 93.1579L187.052 204.408C187.052 204.964 186.576 205.4 186.04 205.407C185.483 205.407 185.034 204.951 185.04 204.394L185.825 93.1512C185.825 89.1874 187.529 85.418 190.5 82.8022C193.451 80.2066 197.375 78.9994 201.271 79.5024L525.409 121.039C534.048 122.146 540.567 129.584 540.567 138.33V213.791C540.567 214.347 540.118 214.797 539.561 214.797H539.554Z" fill="#24AFB5"></path><path d="M336.298 500.67L4.93714 457.732C2.34152 457.396 0.879383 455.216 0.912918 453.037C0.933039 451.534 1.06045 440.93 1.06045 440.93L176.269 340.285C185.048 335.248 196.403 333.303 206.43 334.59L533.606 376.999C535.578 377.254 537.261 378.535 538.046 380.373L538.569 381.613C538.569 381.613 538.287 390.453 538.401 392.519C538.489 394.135 537.771 395.799 536.088 396.765L365.279 494.902C356.5 499.939 346.325 501.965 336.298 500.677V500.67Z" fill="#E1F9FA"></path><path d="M336.297 488.87L6.1229 446.012C1.7432 445.449 0.589573 439.607 4.426 437.407L174.322 339.907C183.101 334.87 193.276 332.844 203.303 334.132L533.477 376.99C537.857 377.553 539.01 383.395 535.174 385.595L365.278 483.095C356.498 488.132 346.324 490.158 336.297 488.87Z" fill="white"></path><path d="M400.94 434.752L114.637 397.32C110.679 396.81 109.64 391.532 113.101 389.547L180.419 351.303C188.347 346.756 197.536 344.925 206.59 346.085L492.893 383.517C496.85 384.027 497.89 389.305 494.429 391.29L427.111 429.534C419.183 434.081 409.994 435.912 400.94 434.752Z" fill="#26D0D8"></path><path d="M232.929 456.718L153.243 446.375C152.183 446.241 151.908 444.833 152.833 444.296L191.339 423.135C193.458 421.921 195.913 421.432 198.334 421.74L278.02 432.083C279.08 432.217 279.355 433.625 278.429 434.162L239.924 455.323C237.805 456.536 235.35 457.026 232.929 456.718Z" fill="#26D0D8"></path><path d="M342.133 490.253C340.141 490.253 338.149 490.125 336.171 489.871L129.842 463.626C129.292 463.559 128.903 463.049 128.97 462.499C129.037 461.949 129.54 461.56 130.097 461.627L336.426 487.872C346.171 489.126 356.245 487.121 364.776 482.225L534.672 384.724C536.336 383.772 536.664 382.109 536.416 380.868C536.168 379.634 535.236 378.232 533.344 377.99L203.17 335.133C193.425 333.878 183.358 335.884 174.82 340.78L133.135 364.248C132.653 364.516 132.035 364.348 131.767 363.865C131.492 363.383 131.667 362.766 132.15 362.497L173.827 339.036C182.734 333.925 193.251 331.833 203.425 333.141L533.599 375.998C536.027 376.314 537.905 378.071 538.388 380.479C538.871 382.9 537.804 385.247 535.672 386.475L365.776 483.975C358.599 488.093 350.376 490.253 342.133 490.253Z" fill="#24AFB5"></path><path d="M29.1827 450.22C29.1358 450.22 29.0888 450.22 29.0419 450.213L5.98301 447.007C3.56177 446.699 1.68389 444.935 1.20769 442.527C0.724783 440.106 1.79107 437.758 3.92391 436.531L30.6716 420.85C31.1478 420.568 31.7649 420.729 32.0466 421.212C32.3283 421.688 32.1673 422.305 31.6844 422.587L4.92325 438.275C3.2532 439.234 2.92464 440.897 3.16609 442.138C3.41425 443.372 4.34658 444.774 6.23797 445.015L29.3034 448.221C29.8534 448.295 30.2357 448.805 30.1619 449.355C30.0948 449.858 29.6589 450.22 29.1693 450.22H29.1827Z" fill="#24AFB5"></path><path d="M419.929 386.453C419.889 386.453 419.849 386.453 419.809 386.446L300.041 371.818C299.491 371.751 299.095 371.248 299.163 370.698C299.23 370.148 299.733 369.753 300.283 369.82L420.05 384.448C420.6 384.515 420.996 385.018 420.929 385.568C420.868 386.078 420.432 386.453 419.929 386.453Z" fill="#24AFB5"></path><path d="M367.57 398.25C367.53 398.25 367.489 398.25 367.449 398.243L332.68 393.997C332.13 393.93 331.734 393.427 331.801 392.877C331.868 392.327 332.371 391.932 332.921 391.999L367.69 396.244C368.24 396.311 368.636 396.814 368.569 397.364C368.509 397.874 368.073 398.25 367.57 398.25Z" fill="#24AFB5"></path><path d="M243.569 400.378C243.529 400.378 243.489 400.378 243.448 400.371L208.679 396.125C208.129 396.058 207.734 395.555 207.801 395.005C207.868 394.455 208.371 394.059 208.921 394.127L243.69 398.372C244.24 398.439 244.636 398.942 244.568 399.492C244.508 400.002 244.072 400.378 243.569 400.378Z" fill="#E1F9FA"></path><path d="M432.572 142.505C432.458 142.505 432.344 142.499 432.23 142.485L352.034 132.21C350.565 132.022 349.526 130.681 349.713 129.205C349.901 127.737 351.236 126.697 352.718 126.885L432.914 137.16C434.383 137.348 435.423 138.689 435.235 140.165C435.06 141.519 433.907 142.505 432.579 142.505H432.572Z" fill="#26D0D8"></path><path d="M443.256 173.405C443.142 173.405 443.028 173.398 442.914 173.385L398.172 167.65C396.703 167.462 395.663 166.121 395.851 164.645C396.039 163.176 397.373 162.137 398.856 162.325L443.598 168.059C445.067 168.247 446.107 169.588 445.919 171.064C445.744 172.419 444.591 173.405 443.263 173.405H443.256Z" fill="#26D0D8"></path><path d="M443.258 192.89C443.144 192.89 443.03 192.884 442.916 192.87L335.322 179.08C333.853 178.893 332.813 177.551 333.001 176.076C333.189 174.607 334.53 173.567 336.006 173.755L443.6 187.545C445.069 187.733 446.108 189.074 445.921 190.549C445.746 191.904 444.593 192.89 443.265 192.89H443.258Z" fill="#26D0D8"></path><path d="M443.256 212.379C443.142 212.379 443.028 212.373 442.914 212.359L359.934 201.729C358.466 201.541 357.426 200.199 357.614 198.724C357.802 197.255 359.143 196.215 360.619 196.403L443.598 207.034C445.067 207.222 446.106 208.563 445.919 210.039C445.744 211.393 444.591 212.379 443.263 212.379H443.256Z" fill="#26D0D8"></path><path d="M441.922 231.119C441.808 231.119 441.694 231.112 441.58 231.098L333.986 217.309C332.517 217.121 331.477 215.78 331.665 214.304C331.853 212.835 333.194 211.796 334.67 211.983L442.264 225.773C443.733 225.961 444.773 227.302 444.585 228.778C444.41 230.133 443.257 231.119 441.929 231.119H441.922Z" fill="#26D0D8"></path><path d="M441.922 250.604C441.808 250.604 441.694 250.597 441.58 250.583L358.601 239.953C357.132 239.765 356.092 238.424 356.28 236.948C356.468 235.479 357.809 234.44 359.285 234.627L442.264 245.258C443.733 245.446 444.773 246.787 444.585 248.263C444.41 249.618 443.257 250.604 441.929 250.604H441.922Z" fill="#26D0D8"></path><path d="M315.487 327.666L213.326 316.392C209.952 316.016 207.397 313.152 207.397 309.745V109.245C207.397 105.261 210.837 102.162 214.781 102.598L316.943 113.873C320.316 114.248 322.872 117.112 322.872 120.519V321.013C322.872 324.997 319.431 328.095 315.487 327.659V327.666Z" fill="#26D0D8"></path><path d="M232.067 149.178C232.067 132.115 245.823 118.278 262.792 118.278C279.761 118.278 293.517 132.115 293.517 149.178C293.517 166.24 279.761 180.077 262.792 180.077C245.823 180.077 232.067 166.247 232.067 149.178Z" fill="white"></path><path d="M262.791 181.083C245.293 181.083 231.06 166.77 231.06 149.177C231.06 145.415 231.704 141.732 232.979 138.231C233.166 137.708 233.743 137.44 234.266 137.628C234.79 137.815 235.058 138.392 234.87 138.915C233.676 142.195 233.073 145.649 233.073 149.171C233.073 165.656 246.406 179.064 262.791 179.064C279.177 179.064 292.51 165.656 292.51 149.171C292.51 132.685 279.177 119.277 262.791 119.277C253.871 119.277 245.507 123.255 239.833 130.19C239.484 130.619 238.847 130.686 238.418 130.33C237.989 129.982 237.922 129.345 238.277 128.915C244.334 121.511 253.267 117.265 262.791 117.265C280.29 117.265 294.522 131.578 294.522 149.171C294.522 166.763 280.29 181.076 262.791 181.076V181.083Z" fill="#24AFB5"></path><path d="M241.72 171.654C247.22 176.872 254.638 180.085 262.793 180.085C270.949 180.085 278.367 176.879 283.867 171.654C277.502 169.669 270.352 168.555 262.793 168.555C255.235 168.555 248.085 169.669 241.72 171.654Z" fill="#E1F9FA"></path><path d="M262.978 173.779C260.301 173.779 258.128 171.593 258.128 168.903V144.034H267.827V168.903C267.827 171.6 265.654 173.779 262.978 173.779Z" fill="white"></path><path d="M281.751 153.102C281.141 145.376 284.528 140.554 276.936 131.828C269.075 122.793 262.328 128.85 262.328 128.85C262.328 128.85 256.708 124.155 249.323 133.974C242.811 142.639 251.154 150.406 248.351 155.799C245.547 161.191 236.036 164.136 236.036 164.136C236.036 164.136 239.081 170.266 242.864 172.962H282.979C282.979 172.962 291.269 163.887 291.269 161.312C291.269 161.312 282.369 160.822 281.758 153.096L281.751 153.102Z" fill="#24AFB5"></path><path d="M241.718 171.653C247.218 176.871 254.636 180.084 262.792 180.084C270.948 180.084 278.366 176.878 283.865 171.653C277.5 169.668 270.351 168.555 262.792 168.555C255.233 168.555 248.083 169.668 241.718 171.653Z" fill="#E1F9FA"></path><path d="M262.791 181.083C254.669 181.083 246.936 177.991 241.02 172.377L239.779 171.197L241.416 170.687C248.11 168.601 255.306 167.542 262.791 167.542C270.276 167.542 277.473 168.601 284.167 170.687L285.803 171.197L284.562 172.377C278.647 177.991 270.92 181.083 262.791 181.083ZM243.73 172.102C249.075 176.609 255.776 179.071 262.791 179.071C269.807 179.071 276.507 176.609 281.853 172.102C275.843 170.412 269.438 169.56 262.791 169.56C256.145 169.56 249.739 170.419 243.73 172.102Z" fill="#24AFB5"></path><path d="M263.449 135.938H263.114L253.248 145.918V151.391C253.248 155.046 255.213 158.232 258.131 159.956V168.903C258.131 171.599 260.304 173.779 262.98 173.779C265.656 173.779 267.829 171.593 267.829 168.903V160.124C270.908 158.44 273 155.16 273 151.391V145.542C273 140.244 268.728 135.945 263.456 135.945L263.449 135.938Z" fill="white"></path><path d="M262.979 174.786C259.753 174.786 257.124 172.15 257.124 168.904V160.231C257.124 159.675 257.573 159.225 258.13 159.225C258.687 159.225 259.136 159.675 259.136 160.231V168.904C259.136 171.036 260.86 172.774 262.979 172.774C265.098 172.774 266.822 171.036 266.822 168.904V160.379C266.822 159.822 267.272 159.373 267.828 159.373C268.385 159.373 268.834 159.822 268.834 160.379V168.904C268.834 172.15 266.205 174.786 262.979 174.786Z" fill="#24AFB5"></path><path d="M263.12 162.323C262.564 162.323 262.114 161.874 262.114 161.317C262.114 160.76 262.564 160.311 263.12 160.311C268.01 160.311 271.987 156.307 271.987 151.384V145.535C271.987 140.928 268.419 137.165 263.851 136.95L254.247 146.501V151.384C254.247 154.878 256.286 158.064 259.445 159.513C259.948 159.741 260.169 160.344 259.941 160.847C259.706 161.351 259.116 161.572 258.606 161.344C254.736 159.573 252.235 155.663 252.235 151.384V146.079C252.235 145.81 252.342 145.555 252.53 145.368L262.738 135.22C262.926 135.032 263.181 134.925 263.449 134.925C263.603 134.925 263.764 134.925 263.918 134.938C269.572 135.186 273.999 139.841 273.999 145.535V151.384C273.999 157.413 269.116 162.323 263.12 162.323Z" fill="#24AFB5"></path><path d="M286.628 211.669C286.54 211.669 286.446 211.668 286.359 211.655L228.404 205.887C226.928 205.739 225.855 204.425 226.003 202.949C226.15 201.474 227.471 200.401 228.94 200.548L286.896 206.316C288.371 206.464 289.444 207.778 289.304 209.254C289.163 210.636 287.996 211.669 286.634 211.669H286.628Z" fill="#E1F9FA"></path><path d="M283.562 229.26C283.468 229.26 283.368 229.26 283.274 229.246L225.318 222.982C223.843 222.821 222.783 221.5 222.937 220.024C223.098 218.549 224.42 217.482 225.895 217.643L283.857 223.908C285.333 224.069 286.392 225.39 286.238 226.865C286.091 228.24 284.924 229.26 283.576 229.26H283.562Z" fill="#E1F9FA"></path><path d="M269.054 255.373C268.961 255.373 268.86 255.373 268.759 255.359L226.619 250.772C225.143 250.611 224.084 249.29 224.245 247.814C224.406 246.338 225.734 245.279 227.203 245.44L269.343 250.027C270.818 250.188 271.878 251.51 271.717 252.985C271.57 254.36 270.403 255.38 269.054 255.38V255.373Z" fill="#E1F9FA"></path><path d="M299.51 275.968C299.416 275.968 299.315 275.968 299.221 275.955L223.552 267.86C222.077 267.699 221.01 266.377 221.171 264.909C221.332 263.433 222.66 262.367 224.122 262.528L299.791 270.623C301.267 270.784 302.333 272.105 302.172 273.574C302.025 274.949 300.865 275.968 299.51 275.968Z" fill="#E1F9FA"></path><path d="M286.043 292.457C285.949 292.457 285.855 292.457 285.761 292.443L225.465 286.092C223.989 285.937 222.923 284.616 223.077 283.141C223.231 281.665 224.553 280.599 226.028 280.753L286.325 287.104C287.8 287.259 288.867 288.58 288.712 290.056C288.565 291.43 287.404 292.457 286.05 292.457H286.043Z" fill="#E1F9FA"></path><path d="M297.17 311.289C297.076 311.289 296.976 311.289 296.875 311.275L222.373 303.18C220.898 303.019 219.838 301.698 219.999 300.222C220.16 298.746 221.475 297.68 222.957 297.848L297.459 305.943C298.934 306.104 299.994 307.425 299.833 308.901C299.685 310.276 298.518 311.295 297.17 311.295V311.289Z" fill="#E1F9FA"></path><path d="M488.687 197.072C503.871 197.072 516.179 184.634 516.179 169.291C516.179 153.948 503.871 141.51 488.687 141.51C473.504 141.51 461.195 153.948 461.195 169.291C461.195 184.634 473.504 197.072 488.687 197.072Z" fill="white"></path><path d="M488.633 198.086C482.999 198.086 477.499 196.395 472.73 193.142C466.379 188.81 462.1 182.23 460.684 174.618C457.773 159.017 467.968 143.94 483.408 140.995C490.839 139.58 498.378 141.156 504.642 145.435C510.994 149.768 515.273 156.348 516.688 163.96C519.599 179.561 509.404 194.638 493.965 197.583C492.187 197.925 490.403 198.086 488.626 198.086H488.633ZM488.74 142.504C487.097 142.504 485.44 142.659 483.784 142.974C469.43 145.71 459.953 159.741 462.663 174.249C463.984 181.325 467.962 187.448 473.864 191.479C479.685 195.45 486.688 196.919 493.589 195.604C507.942 192.867 517.419 178.843 514.71 164.329C513.388 157.253 509.411 151.13 503.509 147.099C499.082 144.074 493.971 142.504 488.74 142.504Z" fill="#24AFB5"></path><path d="M488.642 193.995C483.806 193.995 479.084 192.546 475 189.749C469.553 186.027 465.885 180.386 464.664 173.86C462.169 160.48 470.915 147.542 484.161 145.02C490.54 143.806 497.005 145.161 502.384 148.829C507.831 152.552 511.506 158.192 512.72 164.718C515.215 178.099 506.469 191.037 493.223 193.559C491.7 193.847 490.164 193.995 488.642 193.995ZM488.729 146.596C487.334 146.596 485.932 146.73 484.53 146.992C472.37 149.306 464.342 161.197 466.636 173.491C467.756 179.487 471.123 184.672 476.126 188.086C481.056 191.453 486.992 192.693 492.84 191.58C505 189.266 513.028 177.375 510.735 165.081C509.615 159.085 506.248 153.9 501.244 150.486C497.495 147.924 493.162 146.596 488.729 146.596Z" fill="#24AFB5"></path><path d="M498.308 181.252C498.026 181.252 497.751 181.138 497.55 180.91L487.932 169.958C487.765 169.763 487.677 169.515 487.684 169.267L488.019 158.093C488.033 157.55 488.482 157.12 489.025 157.12H489.059C489.616 157.14 490.052 157.603 490.032 158.16L489.71 168.938L499.066 179.596C499.435 180.011 499.395 180.649 498.972 181.018C498.784 181.185 498.543 181.266 498.308 181.266V181.252Z" fill="#24AFB5"></path><path d="M486.579 150.529C486.733 151.348 486.197 152.139 485.385 152.293C484.574 152.448 483.789 151.911 483.635 151.086C483.48 150.268 484.017 149.476 484.828 149.322C485.64 149.168 486.425 149.704 486.579 150.529Z" fill="#26D0D8"></path><path d="M477.58 154.111C478.117 154.741 478.05 155.7 477.419 156.244C476.796 156.787 475.85 156.713 475.307 156.083C474.77 155.452 474.837 154.493 475.467 153.95C476.091 153.406 477.037 153.48 477.58 154.111Z" fill="#26D0D8"></path><path d="M471.557 161.757C472.335 162.032 472.751 162.897 472.476 163.682C472.201 164.473 471.349 164.882 470.571 164.607C469.793 164.332 469.378 163.467 469.653 162.682C469.928 161.891 470.779 161.482 471.557 161.757Z" fill="#26D0D8"></path><path d="M470.121 171.422C470.933 171.268 471.718 171.805 471.872 172.63C472.026 173.448 471.489 174.239 470.678 174.394C469.866 174.548 469.082 174.011 468.927 173.186C468.773 172.361 469.31 171.577 470.121 171.422Z" fill="#26D0D8"></path><path d="M473.662 180.517C474.286 179.973 475.232 180.047 475.775 180.678C476.312 181.308 476.244 182.267 475.614 182.81C474.984 183.354 474.045 183.28 473.501 182.649C472.965 182.019 473.032 181.06 473.662 180.517Z" fill="#26D0D8"></path><path d="M481.227 186.605C481.502 185.813 482.354 185.404 483.132 185.679C483.91 185.954 484.326 186.819 484.051 187.604C483.776 188.395 482.924 188.805 482.146 188.53C481.368 188.255 480.952 187.389 481.227 186.605Z" fill="#26D0D8"></path><path d="M490.792 188.053C490.638 187.235 491.174 186.443 491.986 186.289C492.797 186.135 493.582 186.671 493.736 187.496C493.89 188.315 493.354 189.106 492.542 189.26C491.731 189.415 490.946 188.878 490.792 188.053Z" fill="#26D0D8"></path><path d="M499.794 184.48C499.257 183.85 499.324 182.89 499.955 182.347C500.579 181.804 501.524 181.878 502.068 182.508C502.604 183.139 502.537 184.098 501.907 184.641C501.283 185.184 500.337 185.111 499.794 184.48Z" fill="#26D0D8"></path><path d="M505.816 176.834C505.038 176.559 504.622 175.694 504.897 174.909C505.172 174.118 506.024 173.708 506.802 173.983C507.58 174.258 507.996 175.124 507.721 175.908C507.446 176.7 506.594 177.109 505.816 176.834Z" fill="#26D0D8"></path><path d="M507.25 167.162C506.438 167.316 505.653 166.78 505.499 165.955C505.345 165.136 505.881 164.345 506.693 164.191C507.505 164.036 508.289 164.573 508.443 165.398C508.598 166.216 508.061 167.008 507.25 167.162Z" fill="#26D0D8"></path><path d="M503.717 158.068C503.093 158.611 502.147 158.537 501.604 157.907C501.061 157.276 501.134 156.317 501.765 155.774C502.395 155.231 503.334 155.304 503.878 155.935C504.414 156.565 504.347 157.525 503.717 158.068Z" fill="#26D0D8"></path><path d="M496.144 151.977C495.869 152.769 495.017 153.178 494.239 152.903C493.461 152.628 493.045 151.763 493.32 150.978C493.595 150.186 494.447 149.777 495.225 150.052C496.003 150.327 496.419 151.193 496.144 151.977Z" fill="#26D0D8"></path><path d="M402.799 274.68L383.684 289.388C384.885 291.146 385.093 293.513 385.093 295.814C385.093 299.516 383.255 302.782 380.458 304.754L393.684 325.694C394.677 325.331 396.22 324.728 396.354 324.62C404.543 317.927 409.62 307.283 409.634 295.834C409.634 288.208 409.5 279.435 405.469 273.62C405.469 273.62 403.906 274.244 402.799 274.68Z" fill="#26D0D8"></path><path d="M383.007 285.868L384.966 284.976L402.619 270.931C397.937 264.472 391.518 258.369 383.651 256.209C383.651 256.209 382.524 256.867 381.693 257.101L376.843 281.495C379.385 282.165 381.559 283.748 383.014 285.874L383.007 285.868Z" fill="white"></path><path d="M389.366 326.478L388.588 325.284L376.508 306.055C374.671 307.303 371.592 307.98 369.184 307.98C362.933 307.98 357.749 302.373 357.755 296.283C357.762 290.193 361.672 284.418 367.917 284.425C368.909 284.425 370.968 284.029 371.881 284.264L378.608 261.286L377.045 260.964C374.483 260.414 371.827 260.125 369.09 260.125C348.587 260.112 331.947 276.289 331.933 296.27C331.92 316.25 348.527 332.454 369.037 332.468C376.562 332.468 383.564 330.295 389.419 326.552L389.366 326.485V326.478Z" fill="white"></path><path d="M384.967 284.976L404.572 270.039C399.575 263.144 392.191 258.127 383.653 256.209L378.804 280.603C381.346 281.273 383.519 282.856 384.974 284.982L384.967 284.976Z" fill="#26D0D8"></path><path d="M390.305 326.403L389.561 325.223L377.079 305.471C375.322 306.711 373.189 307.436 370.882 307.436C364.906 307.436 360.063 302.54 360.063 296.51C360.063 290.48 364.919 285.598 370.895 285.604C371.841 285.604 372.766 285.732 373.638 285.96L378.487 261.566H378.507V261.533C376.066 260.99 373.518 260.701 370.909 260.701C351.29 260.688 335.375 276.711 335.361 296.49C335.348 316.269 351.237 332.319 370.855 332.332C378.058 332.332 384.759 330.179 390.352 326.47L390.298 326.403H390.305Z" fill="#26D0D8"></path><path d="M405.469 273.605L385.858 288.549C387.059 290.306 387.763 292.439 387.763 294.733C387.763 298.435 386.341 302.506 383.544 304.478L396.361 324.612C405.959 318.207 412.297 307.228 412.311 294.753C412.311 286.845 409.775 279.534 405.476 273.605H405.469Z" fill="white"></path><path d="M551.673 314.527L424.863 298.082C423.032 297.847 421.657 296.277 421.657 294.42V213.66C421.657 211.433 423.609 209.71 425.809 209.998L552.619 226.444C554.45 226.679 555.825 228.248 555.825 230.106V310.865C555.825 313.092 553.873 314.816 551.673 314.527Z" fill="white"></path><path d="M552.142 315.566C551.941 315.566 551.74 315.552 551.545 315.525L424.736 299.08C422.408 298.778 420.651 296.772 420.651 294.418V213.652C420.651 212.297 421.234 211.01 422.247 210.117C423.26 209.232 424.601 208.816 425.929 208.991L552.739 225.436C555.067 225.738 556.824 227.744 556.824 230.098V310.864C556.824 312.219 556.24 313.506 555.228 314.398C554.369 315.15 553.269 315.566 552.142 315.566ZM551.8 313.533C552.565 313.634 553.323 313.399 553.899 312.889C554.483 312.38 554.812 311.642 554.812 310.864V230.098C554.812 228.75 553.812 227.603 552.484 227.428L425.674 210.983C424.923 210.882 424.152 211.117 423.575 211.627C422.992 212.136 422.663 212.874 422.663 213.652V294.418C422.663 295.766 423.662 296.913 424.99 297.088L551.8 313.533Z" fill="#24AFB5"></path><path d="M542.725 243.319C542.604 243.319 542.49 243.313 542.369 243.293L441.449 229.885C439.98 229.691 438.947 228.343 439.141 226.874C439.336 225.405 440.691 224.372 442.153 224.566L543.074 237.974C544.542 238.168 545.575 239.516 545.381 240.985C545.2 242.333 544.046 243.313 542.725 243.313V243.319Z" fill="#26D0D8"></path><path d="M513.876 258.88C513.755 258.88 513.641 258.873 513.521 258.853L441.44 249.275C439.971 249.081 438.938 247.733 439.133 246.264C439.327 244.795 440.682 243.762 442.144 243.957L514.225 253.534C515.694 253.729 516.727 255.077 516.532 256.546C516.351 257.894 515.197 258.873 513.876 258.873V258.88Z" fill="#26D0D8"></path><path d="M542.723 281.658C542.602 281.658 542.488 281.651 542.368 281.631L441.44 268.224C439.971 268.029 438.938 266.681 439.133 265.212C439.327 263.743 440.676 262.711 442.144 262.905L543.072 276.312C544.541 276.507 545.574 277.855 545.379 279.324C545.198 280.672 544.044 281.651 542.723 281.651V281.658Z" fill="#26D0D8"></path><path d="M542.725 300.605C542.604 300.605 542.49 300.598 542.369 300.578L441.448 287.171C439.98 286.976 438.947 285.628 439.141 284.159C439.336 282.69 440.691 281.657 442.153 281.852L543.073 295.259C544.542 295.454 545.575 296.802 545.381 298.271C545.199 299.619 544.046 300.598 542.725 300.598V300.605Z" fill="#26D0D8"></path><path d="M435.226 225.642C435.226 227.621 433.63 229.217 431.665 229.217C429.7 229.217 428.103 227.614 428.103 225.642C428.103 223.67 429.7 222.067 431.665 222.067C433.63 222.067 435.226 223.67 435.226 225.642Z" fill="#26D0D8"></path><path d="M435.226 245.313C435.226 247.292 433.63 248.888 431.665 248.888C429.7 248.888 428.103 247.285 428.103 245.313C428.103 243.341 429.7 241.738 431.665 241.738C433.63 241.738 435.226 243.341 435.226 245.313Z" fill="#26D0D8"></path><path d="M435.005 264.542C435.005 266.52 433.409 268.117 431.444 268.117C429.479 268.117 427.883 266.514 427.883 264.542C427.883 262.57 429.479 260.967 431.444 260.967C433.409 260.967 435.005 262.57 435.005 264.542Z" fill="#26D0D8"></path><path d="M435.005 284.215C435.005 286.193 433.409 287.79 431.444 287.79C429.479 287.79 427.883 286.187 427.883 284.215C427.883 282.243 429.479 280.64 431.444 280.64C433.409 280.64 435.005 282.243 435.005 284.215Z" fill="#26D0D8"></path><path d="M450.329 500.193H497.728C497.728 500.193 504.227 539.717 475.937 542.876C447.647 546.029 450.329 500.193 450.329 500.193Z" fill="#26D0D8"></path><path d="M464.548 490.52C461.161 490.62 453.937 490.727 447.15 486.1C444.634 484.383 437.733 479.681 438.377 473.497C438.927 468.192 444.876 463.309 452.938 462.43C443.367 463.564 435.667 456.394 435.654 448.983C435.647 443.309 440.147 437.668 446.801 435.804C436.485 428.01 431.073 415.448 432.783 402.986C434.446 390.86 442.844 378.928 455.52 375.246C457.116 374.783 470.886 371.007 480.799 379.458C489.122 386.554 489.216 397.553 489.276 405.058C489.391 418.405 484.032 428.547 480.799 433.637C481.476 433.59 488.317 431.343 494.716 437.024C501.235 442.812 501.557 456.126 498.378 461.391C495.051 466.904 487.043 465.737 485.614 466.139C491.611 471.431 491.396 475.845 491.336 476.676C490.658 485.288 475.044 490.218 464.548 490.52Z" fill="#26D0D8"></path><path d="M467.976 496.784C467.929 496.784 467.889 496.784 467.842 496.777C467.292 496.704 466.903 496.194 466.977 495.644C473.013 451.062 458.908 400.766 458.767 400.263C458.613 399.727 458.922 399.17 459.458 399.022C459.995 398.868 460.551 399.183 460.699 399.713C460.846 400.223 475.065 450.921 468.969 495.912C468.902 496.415 468.466 496.784 467.976 496.784Z" fill="white"></path><path d="M474.793 492.578C473.72 489.942 469.059 477.782 475.102 467.534C476.342 465.428 480.501 458.378 486.544 458.875C491.044 459.244 493.881 463.59 494.512 464.596C492.694 457.983 495.954 451.289 501.387 448.975C507.805 446.239 516.336 450.021 518.704 457.943C520.294 457.493 524.579 456.514 528.905 458.56C534.606 461.249 538.034 468.063 537.256 475.569C534.882 483.617 527.531 488.547 520.562 487.628C512.99 486.635 509.375 479.204 509.12 478.661C510.3 480.518 512.037 483.966 510.978 487.319C509.193 492.953 500.334 495.743 493.969 494.12C488.066 492.611 486.356 487.816 481.601 488.245C478.469 488.527 476.148 490.887 474.8 492.571L474.793 492.578Z" fill="#E1F9FA"></path><path d="M474.317 496.275C474.257 496.275 474.203 496.275 474.143 496.262C473.593 496.168 473.23 495.645 473.331 495.095C473.465 494.324 476.866 476.161 493.828 469.716C506.021 465.081 516.953 469.716 520.019 471.238C520.515 471.486 520.716 472.09 520.468 472.586C520.22 473.082 519.616 473.284 519.12 473.036C516.243 471.6 505.967 467.247 494.545 471.594C478.636 477.643 475.437 494.719 475.31 495.444C475.222 495.933 474.8 496.275 474.324 496.275H474.317Z" fill="#26D0D8"></path><path d="M87.5043 219.303L87.7391 233.468C87.9538 235.232 89.2213 236.688 90.9383 237.13L91.656 237.54C92.8297 237.841 93.44 238.09 94.1644 240.766C85.1635 243.589 76.5114 242.986 68.3289 237.768C67.9801 237.003 68.0942 236.111 69.2344 236.017L70.4618 235.722C72.1587 235.34 73.4665 233.978 73.7751 232.268L75.3378 214.166L87.4976 219.31L87.5043 219.303Z" fill="white"></path><path d="M83.9494 243.43C78.2216 243.43 72.8158 241.82 67.7923 238.614C67.6313 238.507 67.4971 238.359 67.4166 238.185C67.0612 237.407 67.0612 236.609 67.4166 235.998C67.6044 235.677 68.0672 235.127 69.0665 235.019L70.2268 234.738C71.5347 234.442 72.5207 233.423 72.7755 232.122L74.3382 214.066C74.365 213.745 74.5462 213.456 74.8212 213.288C75.0962 213.121 75.4382 213.101 75.7333 213.221L87.8932 218.366C88.2621 218.52 88.5035 218.875 88.5102 219.278L88.745 233.389C88.9261 234.731 89.8852 235.811 91.193 236.153C91.2802 236.173 91.3606 236.206 91.4411 236.253L92.0448 236.602C93.5942 237.025 94.3788 237.702 95.1434 240.499C95.2843 241.022 94.9891 241.559 94.4727 241.72C90.8643 242.853 87.3499 243.416 83.9494 243.416V243.43ZM69.1738 237.105C76.4174 241.619 84.1976 242.598 92.9168 240.096C92.4741 238.795 92.1321 238.708 91.4077 238.52C91.3205 238.5 91.2332 238.467 91.1595 238.42L90.5492 238.071C88.4901 237.474 87.0012 235.73 86.7396 233.591C86.7396 233.557 86.7396 233.524 86.7329 233.483L86.5115 219.969L76.2296 215.622L74.7877 232.343C74.7877 232.343 74.7876 232.403 74.7742 232.437C74.3919 234.556 72.7889 236.227 70.6896 236.696L69.4756 236.991C69.4286 237.005 69.375 237.011 69.3213 237.018C69.2475 237.018 69.1939 237.038 69.1671 237.045C69.1671 237.065 69.1671 237.085 69.1671 237.105H69.1738Z" fill="#24AFB5"></path><path d="M94.5725 191.924C91.0513 191.542 93.8212 195.74 81.4065 191.186C76.3159 189.322 78.603 195.579 77.275 195.123C72.3655 193.433 70.454 194.996 69.2535 195.801C67.8651 196.726 66.4231 199.04 66.6109 201.26C66.8591 204.198 70.6887 205.278 72.513 211.542C73.794 215.942 73.2911 218.551 75.0014 219.275C76.7319 220.006 78.1536 217.719 80.0987 218.37C82.6205 219.215 81.8895 223.595 84.2839 225.553C85.793 226.787 89.4215 227.512 95.4243 224.976C96.3968 224.567 96.9401 223.521 96.712 222.488C96.4169 221.167 96.0413 219.503 95.545 217.941C93.1841 210.496 90.6556 208.712 91.7019 206.867C93.3049 204.044 98.7309 205.989 99.7638 203.655C100.837 201.227 99.3949 192.447 94.5792 191.924H94.5725Z" fill="#24AFB5"></path><path d="M82.1481 208.356C82.5774 209.269 82.9462 210.208 83.248 211.167C83.8114 212.964 84.8041 216.043 85.495 217.726C86.3467 219.812 92.4233 218.202 94.3146 217.646C94.6165 217.559 94.7842 217.23 94.6701 216.928L94.1136 215.131L95.5958 214.835C95.7769 214.775 95.9378 214.674 96.0652 214.534C96.3738 214.178 96.4005 213.689 96.1725 213.313C94.9921 211.368 92.8793 208.162 91.947 204.279C91.8531 203.883 91.5379 203.574 91.1355 203.501C89.7606 203.246 86.4809 202.944 83.1743 204.949C82.0073 205.654 81.5579 207.122 82.1414 208.35L82.1481 208.356Z" fill="white"></path><path d="M88.1768 219.786C86.2317 219.786 85.0178 219.229 84.5617 218.109C83.891 216.473 82.9587 213.595 82.288 211.469C81.9996 210.557 81.6508 209.658 81.2416 208.793C80.4368 207.096 81.0472 205.077 82.6636 204.098C86.2988 201.891 89.934 202.26 91.329 202.522C92.1138 202.669 92.7443 203.273 92.9321 204.051C93.737 207.431 95.5209 210.336 96.7014 212.247L97.0367 212.797C97.4995 213.555 97.419 214.521 96.8288 215.198C96.6007 215.46 96.2923 215.668 95.9301 215.795L95.796 215.829L95.407 215.909L95.6349 216.64C95.769 216.996 95.7423 217.445 95.5478 217.827C95.3533 218.21 95.0113 218.498 94.6022 218.619C91.9529 219.403 89.8066 219.792 88.1768 219.792V219.786ZM89.0621 204.333C87.6 204.333 85.655 204.635 83.7032 205.815C82.9722 206.258 82.697 207.163 83.0592 207.928C83.5086 208.88 83.8977 209.866 84.213 210.865C84.7495 212.576 85.7554 215.688 86.4262 217.351C86.6609 217.921 89.2633 218.029 93.5827 216.815L92.8247 214.373L95.313 213.843L94.9843 213.307C93.7368 211.281 91.8522 208.216 90.9735 204.521C90.5443 204.433 89.8804 204.339 89.0621 204.339V204.333ZM93.7168 217.23C93.7168 217.23 93.7235 217.257 93.7302 217.277L93.7168 217.23Z" fill="#24AFB5"></path><path d="M81.0236 215.021C77.3347 216.309 76.0804 212.862 76.8986 210.816C77.2407 209.958 78.4346 209.87 78.9242 210.655L81.2582 214.378C81.4058 214.619 81.2918 214.928 81.0236 215.021Z" fill="white"></path><path d="M43.6859 490.264L44.4842 505.006L54.3435 506.669L55.222 489.278L43.6859 490.264Z" fill="white"></path><path d="M54.3441 507.677C54.2904 507.677 54.2301 507.677 54.1764 507.664L44.3171 506C43.8543 505.92 43.5056 505.531 43.4787 505.061L42.6805 490.319C42.6536 489.776 43.0561 489.306 43.5994 489.26L55.1355 488.274C55.4239 488.247 55.7122 488.354 55.9201 488.555C56.1281 488.756 56.2421 489.038 56.2286 489.327L55.3501 506.718C55.3367 507.006 55.2026 507.275 54.9745 507.449C54.7934 507.597 54.5721 507.67 54.3441 507.67V507.677ZM45.4438 504.149L53.3916 505.491L54.1563 490.38L44.7396 491.184L45.4438 504.149Z" fill="#24AFB5"></path><path d="M54.6216 532.281C50.4565 532.657 43.6556 532.824 35.7548 531.322C33.1658 530.832 31.5628 528.21 32.3207 525.688C34.4334 518.652 38.129 505.299 43.6288 499.303L44.7421 502.763L46.6804 499.658C46.9487 499.236 47.3981 498.961 47.9011 498.92L51.8181 498.625C52.6363 498.565 53.3674 499.142 53.4948 499.953L53.9643 502.931L55.5137 499.135L58.6257 527.512C58.8202 529.934 57.0361 532.073 54.6216 532.288V532.281Z" fill="#26D0D8"></path><path d="M48.7333 533.548C44.9841 533.548 40.4905 533.246 35.5675 532.314C34.0517 532.026 32.7169 531.1 31.9188 529.785C31.1206 528.471 30.9195 526.875 31.3622 525.406L31.8115 523.89C33.9779 516.599 37.6064 504.393 42.8848 498.631C43.1263 498.37 43.4951 498.249 43.8372 498.329C44.1859 498.403 44.4677 498.665 44.5817 499.007L45.031 500.409L45.8226 499.141C46.2585 498.443 47.003 497.994 47.8146 497.934L51.7314 497.639C52.885 497.551 53.9582 498.262 54.3472 499.322L54.5751 498.765C54.7495 498.336 55.199 498.088 55.6483 498.148C56.1044 498.215 56.4599 498.578 56.5069 499.034L59.6188 527.411C59.8603 530.402 57.6538 533.032 54.7027 533.3C53.0461 533.447 51.0271 533.561 48.7199 533.561L48.7333 533.548ZM43.2403 501.368C38.8673 507.236 35.7017 517.887 33.7432 524.46L33.287 525.982C33.0053 526.921 33.1328 527.901 33.6425 528.739C34.1455 529.571 34.9906 530.154 35.9497 530.335C43.6628 531.804 50.3163 531.657 54.535 531.281C56.3929 531.113 57.7811 529.457 57.6269 527.592L54.9508 503.179L54.8971 503.306C54.7294 503.722 54.3003 503.977 53.8509 503.923C53.4015 503.869 53.046 503.527 52.9722 503.078L52.5028 500.1C52.4558 499.812 52.1874 499.597 51.899 499.624L47.9822 499.919C47.8011 499.932 47.6401 500.033 47.5395 500.187L45.6012 503.293C45.3933 503.621 45.0177 503.809 44.622 503.755C44.233 503.708 43.9111 503.44 43.7903 503.065L43.2403 501.354V501.368Z" fill="#24AFB5"></path><path d="M45.6539 528.692C42.3607 528.692 38.5913 528.356 34.8756 527.31C34.3391 527.163 34.0305 526.606 34.1781 526.069C34.3256 525.533 34.8891 525.224 35.4189 525.372C44.9027 528.041 55.1241 525.734 55.2247 525.714C55.7679 525.586 56.3045 525.928 56.432 526.465C56.5594 527.008 56.2174 527.545 55.6809 527.672C55.4059 527.733 51.2073 528.685 45.6472 528.685L45.6539 528.692Z" fill="#24AFB5"></path><path d="M50.8306 517.766H50.8104L41.501 517.605C40.9443 517.598 40.5017 517.136 40.5151 516.579C40.5218 516.029 40.9711 515.593 41.5211 515.593H41.5413L50.8507 515.754C51.4074 515.761 51.85 516.223 51.8366 516.78C51.8299 517.33 51.3806 517.766 50.8306 517.766Z" fill="#24AFB5"></path><path d="M90.5326 484.793L90.9416 506.276L102.873 506.879L104.51 485.504L90.5326 484.793Z" fill="white"></path><path d="M102.873 507.885C102.873 507.885 102.84 507.885 102.82 507.885L90.8877 507.282C90.3578 507.255 89.9419 506.826 89.9352 506.296L89.5261 484.82C89.5261 484.538 89.6334 484.27 89.8346 484.075C90.0358 483.881 90.3109 483.78 90.5859 483.794L104.563 484.498C104.832 484.511 105.086 484.632 105.268 484.84C105.449 485.041 105.536 485.309 105.516 485.584L103.879 506.96C103.839 507.49 103.396 507.892 102.873 507.892V507.885ZM91.9273 505.323L101.941 505.826L103.423 486.456L91.5584 485.859L91.9273 505.323Z" fill="#24AFB5"></path><path d="M87.2087 518.202C87.0746 520.228 88.369 522.072 90.3207 522.629C97.1016 524.574 112.374 528.907 116.753 529.785C122.434 530.925 129.55 529.53 132.743 526.331C135.935 523.139 126.545 514.654 122.045 511.509C115.358 506.84 109.154 497.974 106.397 497.444C103.634 496.921 98.0405 504.728 98.0405 504.728L89.7373 500.737C89.7373 500.737 87.8929 507.934 87.2222 518.195L87.2087 518.202Z" fill="#26D0D8"></path><path d="M120.852 531.186C119.396 531.186 117.941 531.052 116.553 530.777C112.119 529.885 96.5389 525.465 90.0464 523.601C87.6587 522.917 86.0491 520.623 86.21 518.141C86.8807 507.906 88.6781 500.797 88.7586 500.495C88.8324 500.2 89.0336 499.958 89.3086 499.831C89.5836 499.704 89.8988 499.704 90.1671 499.831L97.7193 503.46C99.5369 501.025 103.749 495.921 106.586 496.457C108.209 496.766 110.174 498.758 113.501 502.252C116.251 505.143 119.37 508.416 122.623 510.683C125.54 512.722 133.964 519.597 134.387 524.325C134.48 525.398 134.159 526.337 133.461 527.035C130.886 529.61 125.855 531.173 120.859 531.173L120.852 531.186ZM90.4221 502.199C89.8855 504.647 88.7118 510.623 88.2154 518.275C88.1148 519.818 89.1142 521.247 90.5965 521.669C97.0688 523.52 112.589 527.927 116.948 528.805C122.415 529.905 129.182 528.477 132.026 525.626C132.2 525.452 132.428 525.143 132.374 524.513C132.093 521.341 125.862 515.405 121.469 512.34C118.048 509.952 114.856 506.605 112.039 503.647C109.698 501.186 107.27 498.644 106.204 498.443C104.943 498.201 101.375 501.803 98.846 505.324C98.5643 505.72 98.0345 505.854 97.5919 505.646L90.4154 502.199H90.4221Z" fill="#24AFB5"></path><path d="M121.383 527.25C108.68 527.25 90.9061 519.007 89.9403 518.551C89.4372 518.316 89.2226 517.719 89.4574 517.216C89.6921 516.713 90.289 516.498 90.7988 516.733C91.0939 516.874 120.444 530.489 129.532 523.085C129.961 522.736 130.598 522.796 130.947 523.226C131.296 523.655 131.236 524.292 130.806 524.641C128.499 526.519 125.166 527.25 121.39 527.25H121.383Z" fill="#24AFB5"></path><path d="M107.244 513.593C106.949 513.593 106.66 513.465 106.466 513.224C106.117 512.795 106.177 512.157 106.613 511.809L112.958 506.638C113.388 506.289 114.025 506.349 114.374 506.785C114.722 507.214 114.662 507.852 114.226 508.2L107.881 513.371C107.693 513.526 107.472 513.599 107.244 513.599V513.593Z" fill="#24AFB5"></path><path d="M51.6498 341.85C51.6498 341.85 40.6637 409.483 37.565 432.482C34.4664 455.48 39.054 492.939 39.054 492.939L57.5252 492.899C57.5252 492.899 61.0665 447.821 63.0652 435.352C63.0652 435.352 71.7038 418.752 74.7757 403.709C77.8475 388.665 86.9087 365.123 86.9087 365.123C86.9087 365.123 87.2642 484.938 87.4051 494.361C87.4051 494.361 101.818 495.729 107.157 492.738C107.157 492.738 118.532 449.632 118.405 425.855C118.284 402.085 118.023 342.587 118.023 342.587L51.6565 341.856L51.6498 341.85Z" fill="#26D0D8"></path><path d="M94.6631 495.675C90.7663 495.675 87.5804 495.38 87.3055 495.353C86.7957 495.306 86.4001 494.877 86.3934 494.367C86.2727 486.218 85.9841 394.379 85.9171 370.669C83.0867 378.456 77.9089 393.366 75.7627 403.903C72.8518 418.155 64.904 433.97 64.0388 435.66C62.0602 448.162 58.5726 492.523 58.5323 492.972C58.4921 493.495 58.0561 493.898 57.533 493.898L39.0618 493.938C38.5521 493.938 38.1228 493.556 38.0624 493.053C38.0155 492.677 33.495 455.205 36.5735 432.341C39.6386 409.59 50.551 342.359 50.665 341.682C50.7455 341.192 51.168 340.836 51.6576 340.836H51.6711L118.037 341.568C118.587 341.568 119.03 342.017 119.03 342.567C119.03 342.567 119.291 402.058 119.412 425.835C119.533 449.47 108.245 492.543 108.131 492.979C108.064 493.24 107.889 493.468 107.648 493.603C104.663 495.273 99.1903 495.675 94.6631 495.675ZM88.3921 493.421C91.4974 493.65 101.799 494.206 106.293 492.04C107.474 487.479 117.514 447.954 117.4 425.848C117.286 403.883 117.058 351.427 117.024 343.573L52.5161 342.862C51.2284 350.783 41.4495 411.287 38.5722 432.609C35.7888 453.266 39.2966 486.124 39.9606 491.919L56.6073 491.886C57.1238 485.38 60.2561 446.553 62.0804 435.184C62.1005 435.077 62.134 434.976 62.1809 434.883C62.2681 434.715 70.7928 418.229 73.7976 403.5C76.8493 388.55 85.8836 364.988 85.9775 364.754C86.1519 364.304 86.628 364.036 87.0975 364.123C87.5737 364.21 87.9225 364.626 87.9225 365.109C87.9225 366.276 88.2579 479.089 88.4055 493.421H88.3921Z" fill="#24AFB5"></path><path d="M59.6733 436.173C59.6733 436.173 59.6397 436.173 59.6196 436.173L53.9925 435.891C53.4358 435.864 53.0133 435.388 53.0402 434.838C53.067 434.282 53.5431 433.852 54.093 433.886L59.7203 434.168C60.277 434.194 60.6995 434.671 60.6727 435.221C60.6459 435.757 60.2032 436.173 59.6666 436.173H59.6733Z" fill="white"></path><path d="M98.0208 472.949C98.0208 472.949 97.974 472.949 97.9539 472.949C97.3972 472.909 96.9812 472.433 97.0215 471.876C97.7861 460.722 110.979 441.433 111.536 440.614C111.851 440.158 112.474 440.038 112.937 440.353C113.393 440.668 113.514 441.292 113.199 441.755C113.065 441.949 99.758 461.406 99.0336 472.01C99.0001 472.54 98.5574 472.949 98.0343 472.949H98.0208Z" fill="white"></path><path d="M105.803 243.556C121.216 272.162 113.838 308.38 152.068 275.515C153.101 274.623 155.744 275.536 156.092 276.857L160.117 283.564C160.117 283.564 97.0704 375.786 107.131 291.612L105.803 243.556Z" fill="#24AFB5"></path><path d="M51.9593 344.713C59.8736 347.409 67.7209 351.816 80.538 349.529L86.9097 342.822L92.6107 348.858C101.135 352.178 110.787 352.111 121.116 349.529L112.537 276.395L109.599 254.067C107.366 241.324 101.819 237.38 90.1961 236.354C87.3925 236.106 85.6487 247.555 82.322 247.36C78.7941 247.159 73.6431 235.321 69.5787 235.227C64.1661 235.1 58.3108 235.093 52.0665 235.261C43.7095 235.489 36.2514 238.018 30.3962 243.98C22.2606 252.263 47.6265 284.786 47.6265 284.786C47.6265 284.786 53.4817 316.55 51.9525 344.72L51.9593 344.713Z" fill="#24AFB5"></path><path d="M68.0214 239.137C70.7847 253.222 75.2382 267.333 81.2075 281.451C86.8146 268.42 90.9125 255.388 92.8978 242.37C93.3472 239.412 91.1875 236.695 88.1962 236.501C83.0049 241.927 77.304 240.74 71.2743 235.421C69.2354 235.294 67.6256 237.125 68.0214 239.13V239.137Z" fill="white"></path><path d="M81.2076 282.457C80.8052 282.457 80.4429 282.216 80.282 281.84C74.1987 267.447 69.7452 253.147 67.0356 239.324C66.7874 238.063 67.1294 236.782 67.9812 235.81C68.833 234.844 70.047 234.334 71.3414 234.415C71.5628 234.428 71.7775 234.515 71.9452 234.663C78.0955 240.089 83.0251 240.451 87.4719 235.796C87.6731 235.582 87.9615 235.468 88.2633 235.488C89.9601 235.595 91.5497 236.42 92.6161 237.741C93.6893 239.076 94.1588 240.813 93.8973 242.51C91.9858 255.032 88.1359 267.889 82.1331 281.833C81.9721 282.202 81.61 282.444 81.2076 282.444V282.457ZM70.8988 236.433C70.3556 236.48 69.8592 236.728 69.4903 237.144C69.0543 237.641 68.88 238.298 69.0074 238.942C71.5494 251.92 75.654 265.334 81.2142 278.855C86.6133 265.917 90.1145 253.905 91.9053 242.222C92.0797 241.068 91.7779 239.928 91.0468 239.022C90.4163 238.238 89.5444 237.728 88.5719 237.56C83.5148 242.557 77.5723 242.181 70.9055 236.433H70.8988Z" fill="#24AFB5"></path><path d="M84.0847 252.389L86.7408 264.683L82.0459 281.565L77.1833 268.204L80.0403 252.47L76.3649 245.28L80.5635 240.417L83.6421 240.337L87.3444 245.494L84.0847 252.389Z" fill="#26D0D8"></path><path d="M71.0535 252.061C68.1359 246.897 65.7481 240.23 68.9742 236.018L73.3942 231.242C73.3942 231.242 75.7954 238.486 81.6372 240.364L71.0467 252.054L71.0535 252.061Z" fill="white"></path><path d="M71.0528 253.068C71.0192 253.068 70.979 253.068 70.9388 253.068C70.6169 253.034 70.3351 252.847 70.1741 252.565C67.2431 247.374 64.5134 240.184 68.1754 235.415C68.1955 235.388 68.2157 235.368 68.2358 235.341L72.6558 230.566C72.8973 230.304 73.2594 230.19 73.6082 230.264C73.957 230.338 74.2386 230.593 74.3526 230.928C74.3727 230.995 76.6733 237.716 81.9517 239.412C82.2803 239.52 82.5285 239.781 82.6157 240.11C82.7029 240.439 82.6156 240.794 82.3876 241.049L71.7973 252.739C71.6028 252.954 71.3345 253.068 71.0528 253.068ZM69.7449 236.669C66.9548 240.365 69.2084 246.388 71.2607 250.331L79.9329 240.754C76.2105 238.929 74.0441 235.187 73.0649 233.081L69.7449 236.663V236.669Z" fill="#24AFB5"></path><path d="M82.7026 240.263C86.7 238.19 87.3976 231.765 87.3976 231.765C87.3976 231.765 92.0119 235.199 93.018 240.263C94.5002 247.708 91.4888 252.718 91.4888 252.718L82.7026 240.263Z" fill="white"></path><path d="M91.4895 253.731C91.1608 253.731 90.859 253.57 90.6645 253.301L81.8784 240.846C81.7107 240.612 81.6569 240.31 81.724 240.028C81.7911 239.746 81.9789 239.505 82.2404 239.371C85.7147 237.573 86.3922 231.718 86.3989 231.658C86.4392 231.302 86.6671 230.987 86.9958 230.846C87.3244 230.699 87.7067 230.746 88.0018 230.96C88.2031 231.108 92.9382 234.683 94.0113 240.068C95.5539 247.808 92.4888 253.02 92.3547 253.241C92.1803 253.529 91.8718 253.717 91.5298 253.731C91.5163 253.731 91.5029 253.731 91.4962 253.731H91.4895ZM84.1319 240.551L91.2949 250.712C92.0193 248.781 92.9516 245.112 92.0261 240.471C91.4291 237.466 89.4037 235.038 88.0556 233.71C87.5794 235.682 86.4927 238.787 84.1319 240.558V240.551Z" fill="#24AFB5"></path><path d="M11.6666 343.561L13.2294 348.168C14.8794 352.763 22.2437 351.173 32.9749 347.169L185.929 290.099L183.488 272.547L27.0057 330.536C16.2745 334.54 10.0167 338.973 11.6666 343.561Z" fill="#26D0D8"></path><path d="M18.2783 351.971C16.8899 351.971 15.7697 351.75 14.8375 351.32C13.6101 350.75 12.745 349.805 12.2822 348.503L10.7127 343.889C8.96888 339 14.3278 334.184 26.6553 329.59L183.137 271.601C183.426 271.493 183.741 271.527 184.002 271.681C184.264 271.835 184.438 272.104 184.485 272.405L186.927 289.958C186.994 290.427 186.725 290.877 186.283 291.038L33.3288 348.108C26.2931 350.73 21.558 351.971 18.2783 351.971ZM182.668 273.921L27.3596 331.474C19.7337 334.318 10.981 338.671 12.6176 343.218V343.232L14.1869 347.839C14.4686 348.617 14.9448 349.147 15.6893 349.489C18.9154 350.985 26.434 348.53 32.6313 346.216L184.827 289.428L182.668 273.914V273.921Z" fill="#24AFB5"></path><path d="M190.363 222.183C168.907 254.706 177.626 298.301 209.84 319.556C242.054 340.811 285.569 331.682 307.025 299.16C328.481 266.638 319.762 223.042 287.548 201.787C255.334 180.533 211.819 189.661 190.363 222.183ZM198.049 227.254C216.681 199.017 254.455 191.09 282.423 209.547C310.392 228.005 317.964 265.853 299.332 294.089C280.7 322.326 242.926 330.254 214.957 311.796C186.989 293.338 179.417 255.49 198.049 227.254Z" fill="#26D0D8"></path><path d="M247.944 332.052C234.275 332.052 220.928 328.081 209.291 320.402C193.483 309.972 182.724 293.956 178.989 275.297C175.259 256.645 179.002 237.583 189.525 221.634C200.049 205.685 216.099 194.745 234.717 190.842C253.336 186.932 272.297 190.527 288.105 200.956C303.914 211.386 314.672 227.402 318.401 246.061C322.13 264.713 318.394 283.775 307.864 299.724C297.341 315.673 281.291 326.613 262.672 330.516C257.763 331.549 252.833 332.052 247.944 332.052ZM249.446 191.311C244.691 191.311 239.902 191.808 235.133 192.807C217.038 196.603 201.437 207.234 191.209 222.741C180.981 238.247 177.339 256.772 180.967 274.901C184.596 293.03 195.045 308.591 210.404 318.718C225.757 328.853 244.181 332.34 262.27 328.544C280.366 324.748 295.966 314.117 306.194 298.611C316.423 283.104 320.064 264.579 316.436 246.45C312.807 228.321 302.358 212.761 286.999 202.633C275.691 195.175 262.719 191.311 249.446 191.311ZM248.078 322.736C236.475 322.736 224.778 319.469 214.415 312.635C186.024 293.902 178.311 255.357 197.218 226.705C216.126 198.052 254.604 189.983 282.988 208.71C311.379 227.442 319.092 265.988 300.185 294.64C288.179 312.836 268.273 322.736 248.078 322.736ZM198.895 227.811C180.598 255.538 188.056 292.836 215.522 310.958C225.535 317.565 236.857 320.724 248.078 320.724C267.622 320.724 286.878 311.146 298.501 293.533C316.798 265.807 309.34 228.509 281.875 210.386C254.416 192.271 217.185 200.084 198.895 227.811Z" fill="#24AFB5"></path><path d="M31.2385 243.221L47.892 285.59C40.7758 303.531 43.6733 319.769 59.2404 340.976L52.701 352.881C-9.84209 331.083 2.78726 275.194 31.2385 243.221Z" fill="#24AFB5"></path><path d="M66.1738 344.766C61.9148 342.647 58.3735 339.937 55.4291 336.852C51.7335 340.614 48.4337 344.692 45.4625 349.012C55.0804 353.814 63.9 355.169 67.1328 354.277C76.4221 351.721 87.529 352.218 87.529 352.218C82.036 342.794 66.1738 344.759 66.1738 344.759V344.766Z" fill="white"></path><path d="M64.7122 355.544C60.2184 355.544 52.7937 353.8 45.0135 349.91C44.7519 349.783 44.5641 349.541 44.4903 349.26C44.4166 348.978 44.4704 348.676 44.638 348.435C47.73 343.941 51.1169 339.809 54.7186 336.141C54.9064 335.946 55.1881 335.832 55.443 335.839C55.718 335.839 55.9729 335.953 56.1607 336.147C59.1185 339.239 62.5458 341.788 66.3621 343.72C68.7162 343.485 83.0023 342.452 88.3947 351.708C88.5825 352.023 88.5758 352.419 88.388 352.734C88.2002 353.049 87.8514 353.237 87.4825 353.217C87.3752 353.217 76.4226 352.754 67.4017 355.236C66.6974 355.43 65.792 355.531 64.7189 355.531L64.7122 355.544ZM46.9587 348.622C56.1875 353.016 64.2225 354.035 66.8651 353.311C73.9343 351.366 81.9292 351.151 85.5644 351.178C79.689 344.203 66.4425 345.745 66.3016 345.765C66.1071 345.792 65.906 345.759 65.7316 345.665C61.9153 343.767 58.4544 341.285 55.443 338.294C52.4449 341.426 49.6012 344.893 46.9654 348.622H46.9587Z" fill="#24AFB5"></path><path d="M154.013 287.151C159.646 286.386 169.969 283.355 164.127 271.255C163.563 270.095 162.155 269.625 160.995 270.189C157.426 271.919 151.866 277.895 150.753 283.73C150.384 285.675 152.054 287.412 154.013 287.151Z" fill="white"></path><path d="M153.622 288.184C152.555 288.184 151.516 287.742 150.765 286.957C149.886 286.031 149.524 284.791 149.758 283.55C150.979 277.151 156.915 271.061 160.55 269.291C161.362 268.895 162.274 268.841 163.126 269.136C163.964 269.431 164.641 270.028 165.024 270.826C167.15 275.233 167.431 278.955 165.849 281.893C163.608 286.065 158.243 287.601 154.131 288.151C153.957 288.171 153.783 288.184 153.608 288.184H153.622ZM162.019 270.961C161.818 270.961 161.616 271.008 161.429 271.095C158.095 272.718 152.79 278.379 151.73 283.919C151.616 284.516 151.797 285.119 152.22 285.569C152.649 286.025 153.246 286.239 153.863 286.152C156.848 285.75 162.14 284.536 164.078 280.934C165.332 278.593 165.044 275.488 163.213 271.698C163.065 271.39 162.797 271.148 162.462 271.034C162.314 270.981 162.166 270.961 162.012 270.961H162.019Z" fill="#24AFB5"></path></svg> 