<svg width="366" height="304" viewBox="0 0 366 304" fill="none" xmlns="http://www.w3.org/2000/svg">
<path d="M253.694 256.885C266.325 247.168 270.935 232.015 273.793 222.621C286.151 182.001 269.608 133.561 243.124 104.568C216.986 75.9472 165.982 56.838 120.111 78.7445C74.0632 100.736 59.3967 152.325 61.9394 188.53C65.9759 246.017 114.821 284.925 128.709 284.737C132.992 284.678 136.585 283.72 136.585 283.72C145.976 280.744 149.975 271.907 171.482 265.595C211.057 253.982 231.542 273.924 253.696 256.885L253.694 256.885Z" fill="#E1F9FA"/>
<path d="M260.667 64.2498L254.634 65.8664C254.024 63.5907 252.936 61.859 251.37 60.6715C249.817 59.4616 247.796 59.1899 245.309 59.8564C243.721 60.2818 242.494 60.9227 241.627 61.779C240.777 62.6306 240.223 63.5637 239.966 64.5781C239.726 65.5878 239.724 66.5337 239.96 67.4158C240.244 68.4743 240.811 69.3906 241.661 70.1649C242.507 70.9216 243.47 71.5522 244.551 72.0568C245.627 72.5437 246.654 72.9207 247.633 73.1878L259.517 76.4701C260.309 76.6738 261.234 76.9839 262.291 77.4003C263.348 77.8167 264.41 78.3925 265.476 79.1277C266.538 79.8452 267.504 80.7682 268.374 81.8966C269.261 83.0202 269.924 84.4024 270.364 86.043C270.714 87.3485 270.72 88.7462 270.381 90.236C270.061 91.7211 269.471 93.1177 268.611 94.4258C267.769 95.7292 266.735 96.7722 265.507 97.5548L265.536 97.6607C267.104 98.4318 268.384 99.4691 269.376 100.773C270.363 102.058 271.084 103.548 271.538 105.242C272.237 107.853 272.177 110.166 271.355 112.183C270.539 114.217 269.216 115.913 267.387 117.273C265.563 118.651 263.487 119.652 261.158 120.276C258.371 121.022 255.743 121.131 253.275 120.601C250.812 120.088 248.689 118.975 246.906 117.259C245.127 115.561 243.86 113.301 243.104 110.478L249.243 108.833C249.938 111.427 251.246 113.203 253.167 114.163C255.111 115.136 257.273 115.304 259.655 114.666C261.613 114.141 263.203 113.195 264.425 111.827C265.669 110.473 266.029 108.817 265.504 106.858C265.145 105.518 264.545 104.478 263.704 103.739C262.863 103 261.919 102.44 260.871 102.059C259.824 101.678 258.811 101.353 257.831 101.086L245.976 97.91C245.179 97.6886 244.252 97.3697 243.195 96.9533C242.138 96.5369 241.076 95.9611 240.01 95.2259C238.938 94.4731 237.959 93.5348 237.071 92.4112C236.197 91.2652 235.54 89.8718 235.101 88.2312C234.76 86.961 234.73 85.5792 235.011 84.0859C235.291 82.5926 235.848 81.1767 236.681 79.838C237.513 78.4994 238.596 77.4245 239.929 76.6135L239.872 76.4018C238.463 75.5882 237.23 74.5856 236.173 73.3939C235.13 72.1798 234.381 70.726 233.927 69.0324C233.341 66.8449 233.377 64.7554 234.034 62.764C234.687 60.755 235.854 59.0053 237.534 57.5151C239.21 56.0072 241.301 54.9176 243.806 54.2464C246.523 53.5184 249.025 53.4719 251.313 54.1068C253.596 54.724 255.55 55.9117 257.174 57.6698C258.794 59.4102 259.958 61.6035 260.667 64.2498ZM264.542 87.603C264.268 86.5798 263.78 85.7086 263.076 84.9894C262.368 84.2526 261.545 83.6506 260.607 83.1835C259.664 82.6988 258.703 82.3229 257.724 82.0558L245.734 78.8019C244.835 78.5512 243.933 78.7835 243.028 79.4987C242.14 80.2091 241.464 81.2129 240.998 82.5099C240.551 83.8022 240.525 85.1893 240.922 86.6712C241.376 88.3648 242.261 89.6214 243.577 90.441C244.907 91.2383 246.339 91.8566 247.875 92.2959L259.25 95.3741C260.105 95.5989 261.013 95.3555 261.976 94.6437C262.956 93.9273 263.722 92.9375 264.272 91.6745C264.84 90.4068 264.93 89.0496 264.542 87.603Z" fill="#05B9C0"/>
<path d="M49.0599 189.749H46.5978C46.5978 188.82 46.3602 188.05 45.885 187.438C45.4171 186.819 44.6756 186.509 43.6605 186.509C43.0126 186.509 42.4798 186.628 42.0623 186.865C41.6519 187.103 41.346 187.402 41.1444 187.762C40.95 188.122 40.8528 188.482 40.8528 188.842C40.8528 189.274 40.9752 189.68 41.22 190.062C41.4648 190.436 41.7671 190.775 42.1271 191.077C42.487 191.372 42.8398 191.62 43.1854 191.822L47.3753 194.284C47.656 194.443 47.9764 194.655 48.3364 194.921C48.6963 195.188 49.0419 195.515 49.373 195.904C49.7042 196.286 49.9778 196.735 50.1937 197.254C50.4169 197.772 50.5285 198.366 50.5285 199.036C50.5285 199.568 50.3881 200.101 50.1073 200.634C49.8338 201.167 49.4666 201.638 49.0059 202.048C48.5523 202.459 48.052 202.75 47.5049 202.923V202.966C48.0232 203.42 48.4047 203.945 48.6495 204.543C48.8943 205.133 49.0167 205.774 49.0167 206.465C49.0167 207.531 48.7575 208.405 48.2392 209.089C47.7208 209.78 47.0441 210.291 46.209 210.623C45.3739 210.961 44.4812 211.13 43.5309 211.13C42.3935 211.13 41.382 210.903 40.4965 210.45C39.611 210.003 38.9163 209.363 38.4123 208.528C37.9084 207.7 37.6564 206.71 37.6564 205.558H40.1617C40.1617 206.616 40.4785 207.426 41.112 207.988C41.7527 208.556 42.559 208.841 43.5309 208.841C44.33 208.841 45.0319 208.643 45.6367 208.247C46.2486 207.858 46.5546 207.264 46.5546 206.465C46.5546 205.918 46.4322 205.461 46.1874 205.094C45.9426 204.727 45.6403 204.417 45.2803 204.165C44.9204 203.913 44.5676 203.686 44.222 203.485L40.0321 201.066C39.7514 200.9 39.431 200.684 39.071 200.418C38.7111 200.151 38.3655 199.824 38.0344 199.435C37.7032 199.039 37.426 198.582 37.2029 198.064C36.9869 197.538 36.8789 196.941 36.8789 196.271C36.8789 195.753 37.0085 195.224 37.2677 194.684C37.5268 194.144 37.8832 193.661 38.3367 193.237C38.7903 192.812 39.3122 192.513 39.9026 192.34V192.254C39.449 191.8 39.0818 191.293 38.8011 190.731C38.5275 190.163 38.3907 189.533 38.3907 188.842C38.3907 187.949 38.6175 187.157 39.071 186.466C39.5246 185.768 40.1473 185.22 40.9392 184.824C41.7311 184.421 42.6382 184.22 43.6605 184.22C44.7692 184.22 45.7267 184.457 46.533 184.932C47.3393 185.4 47.962 186.052 48.4011 186.887C48.8403 187.715 49.0599 188.669 49.0599 189.749ZM48.1528 199.036C48.1528 198.618 48.0556 198.236 47.8612 197.891C47.6668 197.538 47.4149 197.225 47.1053 196.951C46.7957 196.671 46.4682 196.429 46.1226 196.228L41.8895 193.766C41.5728 193.579 41.2056 193.575 40.788 193.755C40.3777 193.935 40.0177 194.248 39.7082 194.694C39.4058 195.141 39.2546 195.666 39.2546 196.271C39.2546 196.962 39.4634 197.531 39.881 197.977C40.3057 198.416 40.788 198.798 41.328 199.122L45.3451 201.454C45.6475 201.627 46.0182 201.627 46.4574 201.454C46.9037 201.282 47.2961 200.983 47.6344 200.558C47.98 200.133 48.1528 199.626 48.1528 199.036Z" fill="#05B9C0" fill-opacity="0.1"/>
<path d="M136.638 47.1056H134.176C134.176 46.1769 133.938 45.4066 133.463 44.7947C132.995 44.1756 132.254 43.866 131.239 43.866C130.591 43.866 130.058 43.9848 129.64 44.2223C129.23 44.4599 128.924 44.7587 128.723 45.1186C128.528 45.4786 128.431 45.8386 128.431 46.1985C128.431 46.6305 128.553 47.0372 128.798 47.4188C129.043 47.7931 129.345 48.1315 129.705 48.4339C130.065 48.729 130.418 48.9774 130.763 49.179L134.953 51.6411C135.234 51.7995 135.555 52.0118 135.914 52.2782C136.274 52.5446 136.62 52.8721 136.951 53.2609C137.282 53.6424 137.556 54.0924 137.772 54.6107C137.995 55.1291 138.107 55.723 138.107 56.3925C138.107 56.9253 137.966 57.458 137.685 57.9907C137.412 58.5235 137.045 58.995 136.584 59.4054C136.13 59.8157 135.63 60.1073 135.083 60.2801V60.3233C135.601 60.7768 135.983 61.3023 136.228 61.8999C136.472 62.4902 136.595 63.1309 136.595 63.822C136.595 64.8875 136.336 65.7622 135.817 66.4461C135.299 67.1373 134.622 67.6484 133.787 67.9796C132.952 68.3179 132.059 68.4871 131.109 68.4871C129.972 68.4871 128.96 68.2603 128.075 67.8068C127.189 67.3604 126.494 66.7197 125.99 65.8846C125.487 65.0567 125.235 64.0668 125.235 62.9149H127.74C127.74 63.9732 128.057 64.7831 128.69 65.3447C129.331 65.9134 130.137 66.1978 131.109 66.1978C131.908 66.1978 132.61 65.9998 133.215 65.6038C133.827 65.2151 134.133 64.6211 134.133 63.822C134.133 63.2749 134.01 62.8178 133.766 62.4506C133.521 62.0834 133.218 61.7739 132.858 61.5219C132.498 61.2699 132.146 61.0432 131.8 60.8416L127.61 58.4227C127.329 58.2571 127.009 58.0411 126.649 57.7748C126.289 57.5084 125.944 57.1808 125.612 56.7921C125.281 56.3961 125.004 55.939 124.781 55.4206C124.565 54.8951 124.457 54.2976 124.457 53.628C124.457 53.1097 124.587 52.5806 124.846 52.0406C125.105 51.5007 125.461 51.0183 125.915 50.5936C126.368 50.1688 126.89 49.8701 127.481 49.6973V49.6109C127.027 49.1574 126.66 48.6498 126.379 48.0883C126.106 47.5196 125.969 46.8896 125.969 46.1985C125.969 45.3058 126.196 44.5139 126.649 43.8228C127.103 43.1245 127.725 42.5773 128.517 42.1814C129.309 41.7782 130.216 41.5767 131.239 41.5767C132.347 41.5767 133.305 41.8142 134.111 42.2894C134.917 42.7573 135.54 43.4088 135.979 44.2439C136.418 45.0718 136.638 46.0257 136.638 47.1056ZM135.731 56.3925C135.731 55.975 135.634 55.5934 135.439 55.2479C135.245 54.8951 134.993 54.5819 134.683 54.3084C134.374 54.0276 134.046 53.7864 133.701 53.5848L129.468 51.1227C129.151 50.9356 128.784 50.932 128.366 51.1119C127.956 51.2919 127.596 51.6051 127.286 52.0514C126.984 52.4978 126.833 53.0233 126.833 53.628C126.833 54.3192 127.042 54.8879 127.459 55.3342C127.884 55.7734 128.366 56.1549 128.906 56.4789L132.923 58.8114C133.226 58.9842 133.596 58.9842 134.036 58.8114C134.482 58.6387 134.874 58.3399 135.213 57.9151C135.558 57.4904 135.731 56.9828 135.731 56.3925Z" fill="#05B9C0" fill-opacity="0.1"/>
<path d="M264.016 273.342H260.974C260.974 272.195 260.68 271.243 260.093 270.487C259.515 269.722 258.599 269.34 257.344 269.34C256.544 269.34 255.886 269.486 255.37 269.78C254.863 270.073 254.485 270.443 254.235 270.887C253.995 271.332 253.875 271.777 253.875 272.222C253.875 272.755 254.026 273.258 254.329 273.729C254.631 274.192 255.005 274.61 255.45 274.984C255.894 275.348 256.33 275.655 256.757 275.904L261.934 278.947C262.281 279.142 262.677 279.405 263.122 279.734C263.567 280.063 263.994 280.468 264.403 280.948C264.812 281.42 265.15 281.976 265.417 282.616C265.693 283.257 265.831 283.99 265.831 284.818C265.831 285.476 265.657 286.134 265.31 286.792C264.972 287.451 264.519 288.033 263.949 288.54C263.389 289.048 262.771 289.408 262.095 289.621V289.675C262.735 290.235 263.207 290.884 263.509 291.623C263.811 292.352 263.963 293.144 263.963 293.998C263.963 295.314 263.642 296.395 263.002 297.24C262.361 298.094 261.525 298.726 260.493 299.135C259.462 299.553 258.358 299.762 257.184 299.762C255.779 299.762 254.529 299.482 253.435 298.922C252.341 298.37 251.482 297.578 250.86 296.546C250.237 295.523 249.926 294.3 249.926 292.877H253.021C253.021 294.185 253.413 295.185 254.195 295.879C254.987 296.582 255.983 296.933 257.184 296.933C258.172 296.933 259.039 296.689 259.786 296.199C260.542 295.719 260.92 294.985 260.92 293.998C260.92 293.322 260.769 292.757 260.467 292.303C260.164 291.85 259.791 291.467 259.346 291.156C258.901 290.844 258.465 290.564 258.038 290.315L252.861 287.326C252.514 287.122 252.118 286.855 251.674 286.526C251.229 286.196 250.802 285.792 250.393 285.311C249.983 284.822 249.641 284.257 249.365 283.617C249.098 282.967 248.965 282.229 248.965 281.402C248.965 280.761 249.125 280.108 249.445 279.44C249.765 278.773 250.206 278.177 250.766 277.652C251.327 277.128 251.972 276.758 252.701 276.545V276.438C252.141 275.878 251.687 275.251 251.34 274.557C251.002 273.854 250.833 273.076 250.833 272.222C250.833 271.119 251.113 270.14 251.674 269.286C252.234 268.423 253.003 267.747 253.982 267.258C254.96 266.76 256.081 266.511 257.344 266.511C258.714 266.511 259.897 266.804 260.894 267.391C261.89 267.97 262.659 268.775 263.202 269.807C263.745 270.83 264.016 272.008 264.016 273.342ZM262.895 284.818C262.895 284.302 262.775 283.83 262.535 283.403C262.295 282.967 261.983 282.58 261.601 282.242C261.218 281.896 260.814 281.598 260.387 281.348L255.156 278.306C254.765 278.075 254.311 278.07 253.795 278.293C253.288 278.515 252.843 278.902 252.461 279.454C252.087 280.005 251.9 280.655 251.9 281.402C251.9 282.256 252.158 282.959 252.674 283.51C253.199 284.053 253.795 284.524 254.462 284.924L259.426 287.807C259.8 288.02 260.258 288.02 260.8 287.807C261.352 287.593 261.837 287.224 262.255 286.699C262.682 286.174 262.895 285.547 262.895 284.818Z" fill="#05B9C0" fill-opacity="0.1"/>
<path d="M289.261 178.526C290.808 179.419 292.574 179.708 294.304 179.353L297.34 190.686L265.857 199.122L262.821 187.789C266.393 186.587 268.473 182.761 267.485 179.077L260.432 152.752C259.962 150.999 258.308 149.808 256.485 149.915C226.85 151.728 199.771 132.185 192.078 103.472C183.118 70.0327 203.04 35.5268 236.479 26.5667C269.919 17.6066 304.425 37.5286 313.385 70.9681C321.078 99.6813 307.399 130.145 280.828 143.393C279.195 144.211 278.359 146.07 278.829 147.823L285.882 174.148C286.379 176.003 287.586 177.558 289.261 178.526ZM310.889 241.252L279.406 249.688L277.697 243.31L309.18 234.874L310.889 241.252ZM302.835 211.192L271.352 219.628L267.845 206.542L299.328 198.106L302.835 211.192ZM273.34 227.047L304.823 218.612L307.192 227.454L275.709 235.89L273.34 227.047ZM316.862 116.471C323.645 101.635 325.058 84.7528 320.83 68.9732C310.774 31.4427 272.047 9.08396 234.517 19.1402C196.986 29.1965 174.627 67.923 184.683 105.453C188.912 121.233 198.577 135.147 211.868 144.604C224.12 153.331 238.912 157.919 253.827 157.681L259.969 180.601C258.293 181.159 256.909 182.292 256.016 183.839C255.048 185.514 254.781 187.465 255.278 189.32L272.096 252.082C273.13 255.945 277.093 258.233 280.956 257.198L313.328 248.524C317.19 247.489 319.478 243.526 318.443 239.663L301.626 176.901C300.632 173.191 296.925 170.944 293.23 171.688L287.089 148.769C300.125 141.517 310.634 130.123 316.888 116.464L316.862 116.471Z" fill="#05B9C0"/>
<path d="M264.833 132.291C239.957 138.957 214.311 124.15 207.645 99.274C200.98 74.3977 215.786 48.7518 240.663 42.0862C265.539 35.4206 291.185 50.2273 297.851 75.1036C304.516 99.9799 289.709 125.626 264.833 132.291ZM305.27 73.1155C297.509 44.1482 267.642 26.9047 238.675 34.6664C209.707 42.4282 192.464 72.2948 200.226 101.262C207.987 130.229 237.854 147.473 266.821 139.711C295.789 131.949 313.032 102.083 305.27 73.1155Z" fill="#05B9C0"/>
<path d="M133.976 235.286L143.507 212.789L153.038 235.286H156.818L145.397 208.343L145.49 208.13H149.604C149.604 208.117 149.604 208.09 149.604 208.077C149.577 207.717 149.55 207.345 149.537 206.959V206.786L149.43 204.696L149.457 204.35H138.688C138.169 204.35 137.69 204.563 137.344 204.909C136.998 205.255 136.785 205.721 136.785 206.253C136.785 207.305 137.636 208.143 138.675 208.143H141.523L141.617 208.356L130.195 235.299H133.976V235.286Z" fill="#05B9C0"/>
<path d="M128.291 240.677H158.867C158.774 249.023 151.945 255.785 143.572 255.785C135.199 255.785 128.384 249.023 128.277 240.677H128.291ZM162.714 240.49V239.585C162.714 238.067 161.49 236.843 159.972 236.843H127.199C125.682 236.843 124.457 238.067 124.457 239.585V240.49C124.457 251.033 133.043 259.619 143.586 259.619C154.128 259.619 162.714 251.033 162.714 240.49Z" fill="#05B9C0"/>
<path d="M227.875 212.975L237.406 235.472H241.187L229.765 208.529L229.859 208.316L229.938 208.13H232.161C232.681 208.13 233.16 207.917 233.506 207.571C233.852 207.225 234.065 206.759 234.065 206.226C234.065 205.175 233.213 204.336 232.175 204.336H221.406L221.432 204.682L221.339 206.772V206.945C221.313 207.344 221.286 207.704 221.259 208.063C221.259 208.077 221.259 208.103 221.259 208.116H225.852L225.932 208.303L226.025 208.516L214.604 235.458H218.384L227.915 212.962L227.875 212.975Z" fill="#05B9C0"/>
<path d="M227.795 255.972C219.422 255.972 212.606 249.209 212.5 240.863H243.076C242.983 249.209 236.154 255.972 227.781 255.972H227.795ZM244.181 237.029H211.408C209.891 237.029 208.666 238.254 208.666 239.771V240.677C208.666 251.219 217.252 259.805 227.795 259.805C238.337 259.805 246.923 251.219 246.923 240.677V239.771C246.923 238.254 245.685 237.029 244.181 237.029Z" fill="#05B9C0"/>
<path d="M201.838 186.419C201.732 186.405 201.625 186.392 201.519 186.365C201.292 186.325 201.066 186.299 200.84 186.259C201.173 186.312 201.519 186.352 201.838 186.405V186.419Z" fill="#05B9C0"/>
<path d="M202.171 186.472C202.065 186.459 201.972 186.446 201.865 186.419C201.985 186.432 202.105 186.459 202.225 186.472C202.211 186.472 202.185 186.472 202.171 186.472Z" fill="#05B9C0"/>
<path d="M193.451 235.179C193.491 235.113 193.517 235.046 193.544 234.98C193.597 234.886 193.637 234.78 193.69 234.687C193.863 234.327 194.037 233.955 194.196 233.569C194.369 233.169 194.529 232.757 194.689 232.331C194.782 232.104 194.862 231.865 194.942 231.625C195.048 231.332 195.141 231.026 195.248 230.72C195.314 230.52 195.381 230.307 195.448 230.094C195.767 229.043 196.073 227.925 196.353 226.74C196.379 226.62 196.406 226.5 196.433 226.38C196.473 226.234 196.499 226.088 196.539 225.928C196.552 225.875 196.566 225.821 196.579 225.755C196.619 225.542 196.672 225.329 196.712 225.116L196.819 224.637L196.952 223.998C196.952 223.998 196.965 223.998 196.978 223.998C197.085 223.998 197.191 223.971 197.298 223.958C197.458 223.944 197.604 223.918 197.764 223.904C197.95 223.878 198.136 223.851 198.336 223.838C198.669 223.798 198.988 223.745 199.308 223.705C199.481 223.678 199.654 223.652 199.827 223.625C200.413 223.532 200.985 223.452 201.544 223.345C201.784 223.305 202.037 223.266 202.276 223.212C202.756 223.119 203.235 223.026 203.701 222.933C203.927 222.893 204.153 222.84 204.366 222.8C204.393 222.8 204.42 222.786 204.459 222.773C204.672 222.733 204.885 222.68 205.085 222.64C205.285 222.6 205.484 222.547 205.684 222.493C206.03 222.414 206.376 222.32 206.722 222.241C206.882 222.201 207.029 222.161 207.188 222.121C207.574 222.014 207.96 221.908 208.333 221.801C208.386 221.788 208.44 221.775 208.493 221.748C208.879 221.628 209.252 221.508 209.611 221.389C210.303 221.162 210.956 220.923 211.581 220.67C211.421 220.949 211.262 221.242 211.102 221.522C207.255 228.098 200.959 233.063 193.464 235.166L193.451 235.179ZM193.198 219.738L193.171 219.884L193.065 220.617L192.772 220.643C192.772 220.643 192.719 220.643 192.692 220.643C192.546 220.643 192.413 220.656 192.266 220.67H192.133C192.133 220.67 192.106 220.67 192.093 220.67C191.96 220.67 191.813 220.683 191.68 220.696C191.654 220.696 191.64 220.696 191.627 220.696C191.414 220.696 191.214 220.723 191.001 220.736C190.988 220.736 190.975 220.736 190.962 220.736C190.695 220.75 190.429 220.763 190.15 220.776C190.11 220.776 190.056 220.776 190.016 220.776C189.897 220.776 189.764 220.776 189.644 220.79C189.564 220.79 189.471 220.79 189.391 220.79C189.364 220.79 189.351 220.79 189.324 220.79C189.231 220.79 189.138 220.79 189.045 220.79C188.845 220.79 188.659 220.803 188.459 220.803C188.366 220.803 188.273 220.803 188.179 220.803C187.594 220.816 186.995 220.829 186.396 220.829C186.09 220.829 185.77 220.829 185.464 220.829C185.158 220.829 184.838 220.829 184.532 220.829C183.986 220.829 183.454 220.816 182.908 220.803C182.842 220.803 182.762 220.803 182.695 220.803C182.668 220.803 182.642 220.803 182.615 220.803C182.336 220.803 182.056 220.79 181.79 220.776C181.79 220.776 181.777 220.776 181.763 220.776C181.59 220.776 181.43 220.776 181.257 220.763C181.124 220.763 180.978 220.763 180.845 220.75C180.579 220.75 180.312 220.723 180.033 220.71C180.006 220.71 179.966 220.71 179.94 220.71H179.913C179.727 220.71 179.554 220.683 179.367 220.683C179.168 220.683 178.955 220.656 178.755 220.643H178.595C178.502 220.63 178.395 220.617 178.302 220.617H178.129L177.184 220.537L177.091 219.858L177.051 219.618C177.051 219.525 177.024 219.432 177.011 219.339C177.011 219.299 177.011 219.245 176.998 219.205C176.891 218.42 176.798 217.621 176.718 216.809C176.678 216.397 176.638 215.971 176.598 215.545C176.585 215.332 176.558 215.119 176.545 214.906C176.519 214.666 176.505 214.413 176.492 214.174C176.479 213.921 176.452 213.681 176.439 213.428C176.412 213.002 176.385 212.563 176.359 212.124C176.359 211.977 176.345 211.831 176.332 211.684C176.319 211.405 176.306 211.139 176.292 210.859C176.266 210.18 176.239 209.501 176.226 208.822C176.226 208.676 176.226 208.516 176.226 208.37C176.226 208.343 176.226 208.303 176.226 208.277V207.917H194.09V208.822H194.037C194.037 209.182 194.023 209.541 194.01 209.901C194.01 210.087 194.01 210.287 193.983 210.473C193.983 210.659 193.983 210.846 193.957 211.019C193.957 211.205 193.943 211.378 193.93 211.565C193.93 211.804 193.903 212.031 193.89 212.27C193.89 212.457 193.863 212.643 193.863 212.829C193.863 212.869 193.863 212.909 193.863 212.949C193.863 213.069 193.85 213.202 193.837 213.322C193.837 213.508 193.81 213.681 193.797 213.868C193.797 213.868 193.797 213.881 193.797 213.894C193.784 214.094 193.77 214.294 193.757 214.493C193.757 214.64 193.73 214.786 193.717 214.932C193.717 214.959 193.717 214.972 193.717 214.999C193.717 215.145 193.69 215.305 193.677 215.452C193.664 215.625 193.65 215.798 193.624 215.971C193.624 216.051 193.611 216.131 193.597 216.197C193.584 216.37 193.557 216.543 193.544 216.716C193.437 217.715 193.318 218.713 193.185 219.671L193.198 219.738ZM193.051 224.384C193.051 224.384 193.051 224.437 193.038 224.464C193.038 224.503 193.025 224.543 193.012 224.583C193.012 224.623 192.998 224.663 192.985 224.703C192.958 224.81 192.945 224.916 192.918 225.023C192.918 225.063 192.905 225.089 192.892 225.129C192.785 225.608 192.679 226.074 192.559 226.54C192.532 226.647 192.506 226.74 192.479 226.846C192.452 226.953 192.426 227.046 192.399 227.139C192.346 227.339 192.293 227.525 192.239 227.725C192.186 227.925 192.133 228.111 192.08 228.297C192.026 228.484 191.973 228.67 191.92 228.856C191.88 228.989 191.84 229.136 191.787 229.269C191.747 229.402 191.707 229.535 191.654 229.668C191.188 231.119 190.669 232.411 190.096 233.502L189.617 234.434V234.367C189.204 235.073 188.778 235.685 188.326 236.178C188.179 236.191 188.033 236.204 187.887 236.218C187.101 236.284 186.303 236.311 185.491 236.311C184.639 236.311 183.787 236.271 182.948 236.204C182.815 236.204 182.668 236.178 182.522 236.164C182.069 235.659 181.63 235.046 181.218 234.327V234.381L180.765 233.489C179.913 231.825 179.154 229.735 178.502 227.246C178.475 227.152 178.449 227.059 178.435 226.966C178.395 226.82 178.356 226.66 178.316 226.514C178.196 226.061 178.089 225.595 177.983 225.116C177.983 225.076 177.969 225.049 177.956 225.009C177.916 224.796 177.863 224.583 177.823 224.37C177.996 224.37 178.169 224.397 178.342 224.41C178.382 224.41 178.422 224.41 178.462 224.41C178.475 224.41 178.502 224.41 178.515 224.41C178.702 224.41 178.888 224.437 179.088 224.45C179.341 224.464 179.593 224.477 179.846 224.49C180.099 224.503 180.366 224.517 180.618 224.53C180.818 224.53 181.005 224.543 181.204 224.557C181.324 224.557 181.444 224.557 181.564 224.57C181.83 224.57 182.096 224.583 182.362 224.597C182.429 224.597 182.495 224.597 182.562 224.597C183.188 224.61 183.8 224.623 184.426 224.623C184.745 224.623 185.065 224.623 185.397 224.623C185.73 224.623 186.036 224.623 186.369 224.623C186.995 224.623 187.634 224.61 188.259 224.583C188.286 224.583 188.326 224.583 188.352 224.583C188.605 224.583 188.872 224.57 189.125 224.557C189.271 224.557 189.431 224.557 189.577 224.543C189.737 224.543 189.897 224.543 190.043 224.517C190.456 224.503 190.855 224.477 191.254 224.464C191.388 224.464 191.521 224.464 191.64 224.437C191.867 224.437 192.08 224.41 192.306 224.397C192.346 224.397 192.386 224.397 192.426 224.397C192.426 224.397 192.452 224.397 192.466 224.397C192.639 224.397 192.799 224.37 192.972 224.357L193.051 224.384ZM189.511 264.478C190.482 265.437 191.76 265.969 193.131 265.969C193.837 265.969 194.409 266.541 194.409 267.247V288.692C194.409 289.397 193.837 289.97 193.131 289.97H177.717C177.011 289.97 176.439 289.397 176.439 288.692V267.247C176.439 266.901 176.572 266.581 176.811 266.342C177.051 266.102 177.37 265.969 177.717 265.969C180.539 265.969 182.842 263.679 182.842 260.857V239.306C183.84 239.399 184.865 239.452 185.89 239.452C186.609 239.452 187.314 239.426 188.02 239.386V260.857C188.02 262.228 188.552 263.506 189.524 264.478H189.511ZM159.826 221.548C159.666 221.269 159.506 220.989 159.347 220.696C160.092 220.989 160.891 221.282 161.743 221.548C162.022 221.642 162.302 221.721 162.595 221.815C162.967 221.921 163.367 222.041 163.753 222.147C163.873 222.174 163.992 222.214 164.112 222.241C164.245 222.28 164.378 222.307 164.512 222.347C164.724 222.4 164.937 222.454 165.15 222.507C165.164 222.507 165.177 222.507 165.19 222.507C165.403 222.56 165.63 222.613 165.843 222.653C166.069 222.706 166.295 222.76 166.535 222.8C166.748 222.853 166.974 222.893 167.2 222.946C167.214 222.946 167.24 222.946 167.254 222.946C167.48 222.999 167.706 223.039 167.946 223.079C168.132 223.119 168.319 223.146 168.518 223.186C168.811 223.239 169.104 223.292 169.397 223.345C169.676 223.399 169.956 223.439 170.249 223.492C170.954 223.612 171.686 223.705 172.419 223.811C172.924 223.878 173.43 223.944 173.949 223.998C173.949 223.998 173.963 223.998 173.976 223.998H174.003V224.064L174.136 224.623L174.229 225.102C174.242 225.182 174.256 225.249 174.282 225.329C174.295 225.409 174.309 225.475 174.335 225.555V225.648L174.362 225.662L174.389 225.808V225.848C174.389 225.848 174.402 225.875 174.402 225.888C174.402 225.901 174.402 225.928 174.402 225.941C174.482 226.287 174.548 226.62 174.628 226.939C174.628 226.966 174.628 226.979 174.642 226.993C174.735 227.352 174.815 227.712 174.908 228.058C174.934 228.177 174.974 228.297 175.001 228.417C175.068 228.643 175.121 228.87 175.187 229.096C175.254 229.322 175.32 229.535 175.374 229.762C175.414 229.868 175.44 229.988 175.48 230.094C175.533 230.254 175.587 230.414 175.627 230.574C175.667 230.693 175.707 230.813 175.746 230.933C175.786 231.053 175.826 231.173 175.866 231.279C175.906 231.399 175.946 231.505 175.986 231.625C176.026 231.745 176.066 231.851 176.106 231.958C176.146 232.051 176.172 232.158 176.212 232.251C176.239 232.317 176.266 232.384 176.279 232.45C176.306 232.517 176.332 232.584 176.359 232.65C176.412 232.783 176.465 232.903 176.505 233.036C176.558 233.156 176.598 233.262 176.652 233.382C176.652 233.396 176.665 233.409 176.678 233.436C176.732 233.555 176.785 233.675 176.825 233.795C176.878 233.915 176.931 234.021 176.984 234.141C177.024 234.248 177.078 234.354 177.131 234.447C177.184 234.58 177.251 234.7 177.317 234.82C177.384 234.94 177.437 235.073 177.504 235.193C169.996 233.089 163.699 228.124 159.852 221.535L159.826 221.548ZM155.899 209.235C155.899 209.115 155.872 209.009 155.872 208.889C155.846 208.583 155.832 208.29 155.819 207.984H172.498V208.024C172.498 208.317 172.498 208.609 172.512 208.889C172.512 209.142 172.512 209.382 172.525 209.621C172.538 210.14 172.552 210.646 172.578 211.152C172.578 211.325 172.592 211.485 172.605 211.658C172.632 212.11 172.645 212.563 172.671 213.016C172.671 213.162 172.685 213.322 172.698 213.468C172.698 213.641 172.725 213.801 172.738 213.974C172.765 214.4 172.805 214.826 172.831 215.252C172.898 215.997 172.964 216.743 173.044 217.475C173.071 217.701 173.097 217.928 173.124 218.154C173.137 218.327 173.164 218.487 173.177 218.66C173.244 219.179 173.297 219.685 173.377 220.177C173.297 220.177 173.217 220.164 173.137 220.151C173.058 220.151 172.978 220.124 172.898 220.124C172.711 220.097 172.538 220.071 172.365 220.044C171.939 219.991 171.513 219.924 171.101 219.858C170.808 219.818 170.515 219.765 170.222 219.711C169.929 219.658 169.65 219.605 169.357 219.565C169.131 219.525 168.918 219.485 168.705 219.445C168.292 219.365 167.893 219.285 167.507 219.205C167.373 219.179 167.254 219.152 167.121 219.126C167.081 219.126 167.027 219.112 166.987 219.099C166.801 219.059 166.628 219.019 166.455 218.979C166.269 218.939 166.082 218.899 165.896 218.846C165.869 218.846 165.856 218.846 165.829 218.833C165.656 218.793 165.497 218.753 165.337 218.713C165.297 218.713 165.257 218.686 165.217 218.686C165.204 218.686 165.19 218.686 165.164 218.686C165.057 218.66 164.951 218.633 164.858 218.606C164.831 218.606 164.804 218.593 164.764 218.58C164.658 218.553 164.538 218.527 164.432 218.487C164.179 218.42 163.926 218.34 163.673 218.274C163.54 218.234 163.407 218.194 163.287 218.154C163.194 218.127 163.114 218.101 163.021 218.074C162.848 218.021 162.675 217.967 162.501 217.901C162.408 217.874 162.328 217.848 162.249 217.821C162.209 217.821 162.182 217.794 162.142 217.781C162.022 217.741 161.916 217.701 161.796 217.661C161.57 217.581 161.343 217.502 161.117 217.408C160.997 217.368 160.877 217.315 160.758 217.275L157.27 215.878C156.578 213.774 156.112 211.565 155.912 209.275L155.899 209.235ZM157.257 197.281C157.31 197.122 157.363 196.975 157.416 196.829C158.335 196.283 159.413 195.764 160.664 195.285C161.357 195.018 162.102 194.765 162.887 194.513C162.901 194.513 162.914 194.513 162.927 194.499C162.981 194.486 163.034 194.473 163.087 194.446C163.114 194.446 163.14 194.433 163.167 194.419C163.26 194.393 163.367 194.366 163.46 194.326C163.526 194.313 163.593 194.286 163.66 194.273C164.724 193.967 165.856 193.687 167.054 193.421C167.094 193.421 167.147 193.408 167.187 193.394C167.214 193.394 167.24 193.394 167.267 193.381C167.294 193.381 167.307 193.381 167.334 193.368C167.64 193.301 167.946 193.235 168.265 193.181C168.412 193.155 168.545 193.128 168.691 193.102C168.838 193.075 168.971 193.048 169.117 193.022C169.264 192.995 169.423 192.968 169.57 192.942C169.77 192.902 169.969 192.875 170.182 192.835C170.382 192.795 170.595 192.769 170.795 192.729C171.021 192.689 171.247 192.662 171.473 192.622C172.086 192.529 172.698 192.449 173.337 192.369C173.337 192.369 173.337 192.369 173.35 192.369C173.39 192.369 173.43 192.369 173.483 192.356C173.47 192.476 173.444 192.596 173.43 192.716C173.43 192.769 173.417 192.822 173.404 192.875C173.377 193.088 173.337 193.315 173.31 193.527C173.284 193.767 173.244 194.007 173.217 194.246C173.191 194.486 173.164 194.726 173.124 194.978C173.124 194.978 173.124 194.992 173.124 195.005C173.071 195.484 173.018 195.964 172.964 196.456C172.938 196.696 172.911 196.949 172.898 197.188C172.898 197.215 172.898 197.241 172.898 197.255C172.884 197.468 172.858 197.694 172.845 197.92C172.818 198.226 172.791 198.533 172.778 198.839C172.765 199.039 172.751 199.225 172.738 199.425C172.738 199.451 172.738 199.478 172.738 199.504C172.725 199.744 172.711 199.984 172.698 200.237C172.685 200.463 172.671 200.689 172.658 200.902C172.658 201.102 172.645 201.288 172.632 201.488C172.632 201.648 172.618 201.794 172.605 201.954C172.605 202.153 172.592 202.353 172.578 202.553C172.578 202.752 172.565 202.939 172.552 203.138C172.552 203.471 172.525 203.791 172.525 204.124V204.203H155.886C156.072 201.794 156.538 199.464 157.27 197.255L157.257 197.281ZM177.57 177.886C177.57 177.886 177.544 177.94 177.53 177.966C177.504 178.006 177.49 178.046 177.464 178.086C177.424 178.153 177.397 178.233 177.357 178.299C177.304 178.406 177.251 178.512 177.197 178.619C177.197 178.632 177.184 178.658 177.171 178.672C177.118 178.805 177.051 178.925 176.984 179.058C176.931 179.191 176.865 179.324 176.811 179.457C176.705 179.71 176.598 179.976 176.479 180.243C176.479 180.256 176.479 180.269 176.465 180.283C176.412 180.416 176.359 180.562 176.306 180.708C176.199 180.988 176.093 181.281 175.986 181.587C175.933 181.733 175.88 181.88 175.826 182.04V182.066C175.72 182.372 175.613 182.692 175.52 183.025C175.467 183.184 175.414 183.344 175.374 183.517C175.307 183.77 175.227 184.01 175.161 184.263C175.094 184.516 175.014 184.782 174.948 185.035C174.855 185.368 174.775 185.7 174.695 186.046C174.602 186.432 174.508 186.818 174.415 187.218C174.415 187.244 174.415 187.271 174.402 187.284C174.402 187.324 174.389 187.364 174.375 187.391L174.162 188.416L174.562 188.389L174.162 188.443V188.469H174.109L173.723 188.509C173.483 188.536 173.244 188.562 173.004 188.589C173.004 188.589 172.951 188.589 172.911 188.589H172.884C172.765 188.602 172.658 188.616 172.538 188.629C172.419 188.642 172.312 188.655 172.192 188.669C171.966 188.695 171.74 188.735 171.513 188.762C171.287 188.789 171.061 188.829 170.834 188.855C170.808 188.855 170.781 188.855 170.768 188.855C170.355 188.922 169.943 188.988 169.53 189.055C169.463 189.055 169.397 189.081 169.344 189.081C169.184 189.108 169.024 189.135 168.864 189.161C168.492 189.228 168.119 189.294 167.746 189.374C167.52 189.414 167.294 189.467 167.067 189.507C166.841 189.547 166.615 189.601 166.388 189.654C166.162 189.707 165.949 189.747 165.723 189.8C165.51 189.854 165.284 189.907 165.071 189.947C164.898 189.987 164.724 190.027 164.551 190.067C162.848 190.492 161.29 190.958 159.866 191.491C163.726 184.862 170.076 179.87 177.623 177.78L177.57 177.886ZM178.036 188.176C178.036 188.176 178.049 188.11 178.063 188.07C178.169 187.577 178.289 187.098 178.395 186.645C178.435 186.486 178.475 186.339 178.515 186.18C178.555 186.046 178.582 185.913 178.622 185.78C179.713 181.707 181.124 178.619 182.722 176.941C182.855 176.941 182.975 176.915 183.108 176.901C183.906 176.835 184.718 176.808 185.53 176.808C186.303 176.808 187.075 176.835 187.833 176.901L189.271 179.471C189.91 180.615 190.509 182.013 191.055 183.65C191.081 183.744 191.108 183.823 191.135 183.903C191.228 184.196 191.321 184.502 191.414 184.822C191.494 185.088 191.561 185.354 191.64 185.62C191.68 185.754 191.72 185.887 191.747 186.033C191.787 186.166 191.814 186.313 191.853 186.446C191.893 186.579 191.92 186.725 191.96 186.872C192.066 187.298 192.173 187.724 192.266 188.163C191.454 188.11 190.642 188.07 189.817 188.03C189.777 188.03 189.737 188.03 189.697 188.03C189.697 188.03 189.67 188.03 189.657 188.03C189.59 188.03 189.524 188.03 189.457 188.03C188.952 188.003 188.446 187.99 187.927 187.977C187.74 187.977 187.554 187.977 187.367 187.977C187.327 187.977 187.288 187.977 187.248 187.977C187.101 187.977 186.955 187.977 186.808 187.977C186.635 187.977 186.462 187.977 186.289 187.977C185.956 187.977 185.61 187.977 185.278 187.977C184.998 187.977 184.718 187.977 184.439 187.977C184.292 187.977 184.146 187.977 184.013 187.977C183.8 187.977 183.587 187.977 183.361 187.977C183.121 187.977 182.868 187.977 182.629 187.99C182.455 187.99 182.282 187.99 182.109 188.003C182.003 188.003 181.896 188.003 181.803 188.003H181.777C181.59 188.003 181.391 188.003 181.204 188.03C181.178 188.03 181.151 188.03 181.138 188.03C181.124 188.03 181.111 188.03 181.098 188.03C180.871 188.03 180.632 188.043 180.405 188.056C180.126 188.056 179.86 188.083 179.593 188.096C179.381 188.096 179.154 188.123 178.941 188.136C178.848 188.136 178.755 188.136 178.662 188.15C178.608 188.15 178.555 188.15 178.502 188.15C178.342 188.15 178.182 188.176 178.023 188.176H178.036ZM193.118 192.849C193.145 193.022 193.171 193.208 193.198 193.394C193.198 193.394 193.198 193.394 193.198 193.421C193.198 193.434 193.198 193.461 193.198 193.474V193.501C193.211 193.607 193.225 193.701 193.238 193.807C193.251 193.914 193.264 194.033 193.278 194.153C193.344 194.606 193.398 195.072 193.451 195.524C193.477 195.751 193.504 195.99 193.531 196.216C193.557 196.403 193.571 196.589 193.584 196.762C193.597 196.935 193.624 197.122 193.637 197.295C193.65 197.428 193.664 197.574 193.677 197.707C193.704 197.92 193.717 198.147 193.73 198.373C193.744 198.573 193.757 198.772 193.784 198.985C193.784 199.145 193.81 199.305 193.824 199.464C193.837 199.677 193.85 199.904 193.863 200.117C193.877 200.356 193.89 200.569 193.903 200.796C193.903 200.955 193.917 201.102 193.93 201.261C193.93 201.461 193.957 201.674 193.957 201.874C193.957 201.98 193.957 202.087 193.97 202.193C193.97 202.42 193.997 202.659 193.997 202.886C193.997 202.912 193.997 202.939 193.997 202.965C194.01 203.351 194.023 203.751 194.037 204.137C194.037 204.163 194.037 204.19 194.037 204.203H176.239C176.239 203.937 176.252 203.684 176.266 203.431C176.279 203.005 176.292 202.566 176.319 202.14C176.332 201.807 176.345 201.461 176.372 201.128C176.385 200.875 176.399 200.623 176.412 200.37C176.452 199.624 176.505 198.879 176.572 198.147C176.585 197.974 176.598 197.801 176.612 197.627C176.612 197.521 176.638 197.401 176.638 197.295C176.652 197.095 176.678 196.909 176.692 196.709C176.718 196.469 176.745 196.23 176.758 196.003C176.798 195.577 176.851 195.165 176.905 194.752C176.931 194.526 176.958 194.313 176.984 194.087C177.011 193.887 177.038 193.701 177.064 193.501C177.064 193.488 177.064 193.474 177.064 193.461C177.064 193.434 177.064 193.394 177.078 193.368C177.091 193.261 177.104 193.168 177.118 193.062C177.118 193.035 177.118 193.008 177.118 192.982C177.144 192.849 177.157 192.716 177.171 192.582C177.171 192.582 177.171 192.569 177.171 192.556L177.264 191.943L178.249 191.877C178.382 191.877 178.515 191.864 178.648 191.85C178.688 191.85 178.742 191.85 178.781 191.85C178.808 191.85 178.835 191.85 178.861 191.85C179.168 191.837 179.474 191.81 179.78 191.797C180.019 191.797 180.246 191.77 180.485 191.757C180.778 191.744 181.071 191.73 181.364 191.717C181.55 191.717 181.723 191.704 181.91 191.704C182.016 191.704 182.123 191.704 182.229 191.704C182.362 191.704 182.495 191.704 182.629 191.704C183.094 191.691 183.56 191.677 184.026 191.677C184.173 191.677 184.306 191.677 184.452 191.677C184.718 191.677 184.985 191.677 185.251 191.677C185.584 191.677 185.916 191.677 186.249 191.677C186.542 191.677 186.848 191.677 187.141 191.677C187.421 191.677 187.687 191.677 187.953 191.69C188.113 191.69 188.273 191.691 188.432 191.704C188.845 191.704 189.271 191.73 189.67 191.744C189.91 191.744 190.15 191.77 190.376 191.77C190.442 191.77 190.496 191.77 190.562 191.77C190.589 191.77 190.615 191.77 190.655 191.77C190.655 191.77 190.669 191.77 190.682 191.77C190.709 191.77 190.735 191.77 190.762 191.77C190.948 191.77 191.135 191.797 191.334 191.797C191.388 191.797 191.427 191.797 191.467 191.797C191.534 191.797 191.587 191.797 191.654 191.797C191.68 191.797 191.694 191.797 191.707 191.797C191.84 191.797 191.987 191.81 192.12 191.824C192.239 191.824 192.346 191.837 192.466 191.85C192.492 191.85 192.519 191.85 192.546 191.85C192.612 191.85 192.665 191.85 192.732 191.85H192.918L193.051 192.755L193.118 192.849ZM193.358 177.86C200.998 179.936 207.415 184.982 211.288 191.677C211.102 191.611 210.916 191.544 210.716 191.478C210.689 191.478 210.676 191.464 210.649 191.451C210.463 191.384 210.277 191.318 210.09 191.251C210.09 191.251 210.077 191.251 210.064 191.251H210.037C209.837 191.185 209.638 191.118 209.438 191.052C209.438 191.052 209.425 191.052 209.411 191.052C209.212 190.985 209.012 190.932 208.812 190.865C208.732 190.839 208.653 190.825 208.573 190.799C208.466 190.759 208.346 190.732 208.24 190.705C208.08 190.666 207.92 190.612 207.761 190.572C207.641 190.546 207.534 190.506 207.415 190.479C207.188 190.413 206.949 190.359 206.722 190.293C206.696 190.293 206.656 190.28 206.629 190.266C206.483 190.226 206.323 190.186 206.177 190.16C206.057 190.133 205.95 190.106 205.831 190.08C205.724 190.053 205.631 190.027 205.524 190.013C205.325 189.96 205.112 189.92 204.912 189.88C204.739 189.84 204.553 189.8 204.38 189.76C204.233 189.734 204.087 189.694 203.94 189.667C203.767 189.627 203.608 189.601 203.434 189.561C203.421 189.561 203.395 189.561 203.381 189.561C203.008 189.481 202.622 189.414 202.236 189.348C202.236 189.348 202.223 189.348 202.21 189.348C201.89 189.294 201.558 189.241 201.238 189.175C200.759 189.095 200.28 189.028 199.8 188.948C199.241 188.868 198.656 188.789 198.07 188.722C198.07 188.722 197.937 188.709 197.897 188.695C197.79 188.682 197.671 188.669 197.564 188.655C197.511 188.655 197.458 188.642 197.391 188.629C197.338 188.629 197.285 188.629 197.231 188.616L196.859 188.576H196.805L196.552 188.536L196.246 188.509H196.166H196.086H196.166C196.153 188.416 196.126 188.323 196.113 188.23C196.113 188.216 196.113 188.19 196.113 188.176L195.94 187.417C195.9 187.258 195.874 187.111 195.834 186.952C195.767 186.645 195.687 186.339 195.621 186.033C195.434 185.274 195.235 184.529 195.022 183.823C194.995 183.73 194.968 183.624 194.928 183.531C194.902 183.437 194.875 183.331 194.835 183.238C194.835 183.211 194.822 183.184 194.809 183.158C194.742 182.932 194.662 182.719 194.596 182.506C194.542 182.359 194.502 182.226 194.449 182.093C194.303 181.667 194.156 181.268 193.997 180.868C193.957 180.762 193.917 180.669 193.877 180.562C193.81 180.402 193.757 180.256 193.69 180.096C193.637 179.976 193.584 179.843 193.531 179.723C193.477 179.604 193.424 179.497 193.384 179.377C193.278 179.151 193.185 178.938 193.078 178.725C193.038 178.659 193.012 178.579 192.972 178.512C192.825 178.233 192.692 177.966 192.546 177.7C192.825 177.767 193.105 177.833 193.371 177.913L193.358 177.86ZM213.751 197.548C214.43 199.677 214.882 201.927 215.055 204.243H197.79C197.764 203.218 197.737 202.193 197.684 201.195C197.671 200.836 197.644 200.489 197.631 200.13C197.631 200.103 197.631 200.077 197.631 200.063C197.631 199.944 197.617 199.837 197.604 199.717C197.604 199.704 197.604 199.677 197.604 199.664C197.604 199.504 197.577 199.331 197.564 199.172C197.551 198.932 197.524 198.706 197.511 198.466C197.498 198.226 197.471 198 197.458 197.761C197.364 196.629 197.245 195.524 197.111 194.433C197.085 194.193 197.058 193.953 197.018 193.714C196.992 193.474 196.952 193.235 196.925 193.008C196.925 193.008 196.925 192.995 196.925 192.982C196.925 192.955 196.925 192.915 196.912 192.889C196.885 192.689 196.859 192.503 196.832 192.303C197.058 192.329 197.271 192.356 197.498 192.383C197.551 192.383 197.591 192.383 197.644 192.396C197.697 192.396 197.75 192.409 197.79 192.423C197.95 192.436 198.11 192.463 198.256 192.489C198.416 192.516 198.576 192.529 198.722 192.556C198.882 192.582 199.028 192.596 199.188 192.622C199.348 192.649 199.494 192.662 199.654 192.689C199.96 192.729 200.266 192.782 200.559 192.835C200.865 192.889 201.158 192.928 201.451 192.982C201.744 193.035 202.037 193.088 202.33 193.141C202.622 193.195 202.902 193.248 203.182 193.315C203.328 193.341 203.461 193.368 203.608 193.408C203.754 193.434 203.887 193.461 204.02 193.501C204.153 193.528 204.3 193.567 204.433 193.594C204.566 193.621 204.699 193.661 204.846 193.687C205.258 193.78 205.644 193.874 206.044 193.98C206.336 194.06 206.616 194.127 206.909 194.206C206.975 194.22 207.042 194.246 207.095 194.26C207.122 194.26 207.148 194.273 207.175 194.286C207.255 194.313 207.335 194.339 207.415 194.353C207.481 194.366 207.534 194.393 207.601 194.406C207.628 194.406 207.641 194.419 207.668 194.433C207.761 194.459 207.854 194.486 207.947 194.513C207.987 194.526 208.027 194.539 208.067 194.553H208.094C208.12 194.553 208.133 194.566 208.16 194.579C208.267 194.619 208.386 194.646 208.493 194.686C208.533 194.686 208.573 194.712 208.599 194.726L208.732 194.765C208.812 194.792 208.892 194.819 208.972 194.845C208.972 194.845 208.985 194.845 208.999 194.845L209.092 194.872C209.265 194.925 209.438 194.992 209.611 195.058C209.624 195.058 209.638 195.058 209.651 195.072C209.651 195.072 209.678 195.072 209.691 195.085C209.931 195.178 210.17 195.258 210.396 195.351C210.396 195.351 210.396 195.351 210.41 195.351C211.594 195.817 212.633 196.31 213.511 196.842C213.591 197.082 213.671 197.321 213.751 197.561V197.548ZM215.055 208.889C215.055 209.009 215.042 209.129 215.029 209.235C214.829 211.525 214.363 213.734 213.671 215.838L210.183 217.235C210.064 217.289 209.944 217.329 209.824 217.382C209.704 217.422 209.584 217.475 209.451 217.515C209.198 217.608 208.945 217.701 208.693 217.794C208.666 217.794 208.639 217.808 208.599 217.821C208.413 217.888 208.227 217.941 208.027 218.007C207.774 218.087 207.508 218.167 207.255 218.247C206.549 218.46 205.817 218.66 205.058 218.846C204.872 218.899 204.686 218.939 204.486 218.979C204.353 219.006 204.22 219.046 204.073 219.072C203.967 219.099 203.874 219.126 203.767 219.139C203.621 219.179 203.461 219.205 203.301 219.245C203.102 219.285 202.902 219.325 202.702 219.365C202.543 219.392 202.396 219.432 202.236 219.458C202.236 219.458 202.223 219.458 202.21 219.458C202.023 219.498 201.837 219.538 201.637 219.565C201.478 219.592 201.318 219.618 201.158 219.645C200.879 219.698 200.599 219.738 200.306 219.791C200.147 219.818 200 219.844 199.84 219.858C199.694 219.884 199.547 219.911 199.388 219.924C199.002 219.978 198.616 220.031 198.23 220.084C198.003 220.111 197.777 220.137 197.551 220.177C197.444 220.191 197.338 220.204 197.218 220.217C197.111 220.23 196.992 220.244 196.885 220.257C196.899 220.164 196.912 220.084 196.925 219.991C196.978 219.552 197.045 219.112 197.098 218.673C197.125 218.447 197.151 218.234 197.178 218.007C197.258 217.355 197.324 216.703 197.378 216.037C197.391 215.864 197.404 215.691 197.431 215.518C197.431 215.438 197.431 215.372 197.444 215.292C197.484 214.866 197.511 214.44 197.537 214.001C197.551 213.761 197.564 213.521 197.591 213.282C197.604 213.056 197.617 212.829 197.631 212.616C197.697 211.392 197.75 210.14 197.777 208.876C197.777 208.57 197.777 208.277 197.79 207.971H215.095C215.082 208.277 215.069 208.583 215.042 208.876L215.055 208.889ZM218.703 206.653C218.703 188.536 204.02 173.853 185.903 173.853C167.786 173.853 153.104 188.536 153.104 206.653C153.104 222.414 164.219 235.565 179.034 238.734C179.034 238.773 179.034 238.8 179.034 238.84V260.871C179.034 261.576 178.462 262.149 177.756 262.149C176.385 262.149 175.108 262.681 174.136 263.653C173.164 264.625 172.632 265.902 172.632 267.274V288.718C172.632 291.54 174.921 293.843 177.743 293.843H193.158C195.98 293.843 198.27 291.54 198.27 288.718V267.274C198.27 264.451 195.98 262.149 193.158 262.149C192.812 262.149 192.492 262.015 192.253 261.776C192.013 261.536 191.88 261.217 191.88 260.871V238.92C207.148 236.111 218.716 222.733 218.716 206.653H218.703Z" fill="#05B9C0"/>
<path d="M20.4114 104.219C21.0016 104.641 21.7043 104.866 22.4491 104.866C23.3906 104.866 24.2619 104.5 24.9365 103.84L26.9742 101.802L27.719 102.547C29.0822 103.91 31.3167 103.91 32.6798 102.547L60.2803 74.9464C60.7581 74.6091 61.0673 74.0752 61.1235 73.4849C61.1797 72.8806 60.9689 72.2763 60.5333 71.8407L55.5444 66.8658L77.5517 44.8585L96.116 63.4228L74.1087 85.4302L68.8809 80.1883C68.4453 79.7526 67.841 79.5418 67.2367 79.598C66.6464 79.6543 66.1124 79.9634 65.7751 80.4412L38.1746 108.042C37.5141 108.702 37.1487 109.588 37.1487 110.529C37.1487 111.471 37.5141 112.342 38.1746 113.017L38.7086 113.551L36.6709 115.588C36.0104 116.249 35.645 117.134 35.645 118.076C35.645 118.821 35.8699 119.523 36.2915 120.113L21.1 135.305L5.20577 119.411L20.3973 104.219H20.4114ZM44.2035 65.9664C42.4187 64.1817 42.4187 61.2867 44.2035 59.502L70.2019 33.5035C71.0592 32.6463 72.2115 32.1684 73.4342 32.1684C74.6568 32.1684 75.8091 32.6463 76.6664 33.5035C77.5236 34.3607 78.0014 35.5131 78.0014 36.7357C78.0014 37.9584 77.5236 39.0967 76.6664 39.968L76.3291 40.3053C76.2448 40.3615 76.1605 40.4318 76.0902 40.502L51.1879 65.4043C51.1176 65.4746 51.0474 65.5589 50.9912 65.6432L50.6679 65.9664C48.8832 67.7512 45.9882 67.7512 44.2035 65.9664ZM41.8706 46.7135L57.4135 31.1707C59.1701 29.414 61.9667 29.3718 63.7796 31.0723C63.8639 31.1425 63.9482 31.2128 64.0325 31.2831L65.5925 32.3371L43.304 54.6255L41.7441 53.0656C40.0578 51.2527 40.0999 48.4702 41.8566 46.7135H41.8706ZM104.253 62.9872C105.475 62.9872 106.614 63.465 107.485 64.3222C109.27 66.107 109.27 69.0019 107.485 70.7867L81.4866 96.7851C79.7019 98.5699 76.8069 98.5699 75.0222 96.7851C73.2515 95.0144 73.2374 92.1195 75.0081 90.3347C75.2611 90.2363 75.4859 90.0817 75.6827 89.885L100.585 64.9827C100.782 64.786 100.936 64.5471 101.035 64.2941C101.892 63.4369 103.03 62.9731 104.253 62.9731V62.9872ZM109.832 83.5891L94.2891 99.132C92.5465 100.875 89.778 100.931 87.9652 99.2585L86.4334 97.6283L108.441 75.621L109.93 77.209C111.645 79.0219 111.603 81.8185 109.832 83.5751V83.5891ZM18.6266 138.593C19.2871 139.254 20.1724 139.619 21.114 139.619C22.0556 139.619 22.9269 139.254 23.6014 138.593L39.5799 122.615C40.2404 121.954 40.6058 121.069 40.6058 120.128C40.6058 119.383 40.381 118.68 39.9594 118.09L42.0252 116.024C43.3884 114.661 43.3884 112.426 42.0252 111.063L41.4912 110.529L67.4756 84.5448L71.3121 88.3813C68.7966 91.7681 69.0777 96.5884 72.1413 99.652C73.8276 101.338 76.048 102.182 78.2685 102.182C80.1094 102.182 81.9504 101.591 83.4822 100.439L85.0281 102.083C85.0281 102.083 85.0843 102.139 85.1124 102.168C86.7988 103.756 88.9208 104.543 91.0569 104.543C93.193 104.543 95.4836 103.685 97.1841 101.985L112.727 86.442C116.058 83.1114 116.142 77.8133 112.91 74.3843L111.265 72.6277C113.739 69.2408 113.444 64.4627 110.394 61.3991C108.764 59.769 106.586 58.8695 104.281 58.8695C104.281 58.8695 104.281 58.8695 104.267 58.8695C102.384 58.8695 100.585 59.4738 99.1094 60.584L80.4045 41.8792C81.5148 40.3896 82.119 38.6048 82.119 36.7217C82.119 34.417 81.2196 32.2387 79.5895 30.5945C76.6383 27.6433 72.085 27.2779 68.7263 29.4702L66.4919 27.9525C63.0629 24.8326 57.8491 24.9592 54.5607 28.2476L39.0178 43.7905C35.6872 47.1211 35.6029 52.4191 38.8351 55.8481C38.8351 55.8481 38.8632 55.8762 38.8773 55.8903L40.5215 57.5485C38.006 60.9354 38.287 65.7556 41.3507 68.8333C43.037 70.5197 45.2575 71.3629 47.4779 71.3629C49.2907 71.3629 51.1036 70.8008 52.6354 69.6624L56.219 73.246L30.2346 99.2304L29.4897 98.4856C28.1266 97.1224 25.8921 97.1224 24.5289 98.4856L22.4631 100.551C21.8729 100.13 21.1702 99.905 20.4254 99.905C19.4838 99.905 18.6125 100.27 17.938 100.931L1.95948 116.909C1.29898 117.57 0.933594 118.455 0.933594 119.397C0.933594 120.338 1.29898 121.21 1.95948 121.884L18.6688 138.593H18.6266Z" fill="#05B9C0"/>
<path d="M121.424 142.219H82.5251C81.9349 142.219 81.4009 142.458 81.0074 142.852C80.6139 143.245 80.375 143.779 80.375 144.369C80.375 145.55 81.3306 146.505 82.5111 146.505H121.41C122.001 146.505 122.535 146.267 122.928 145.873C123.322 145.48 123.561 144.946 123.561 144.355C123.561 143.175 122.605 142.219 121.424 142.219Z" fill="#05B9C0"/>
<path d="M126.091 149.71H77.8465V138.228C80.0529 138.2 81.8376 136.401 81.8376 134.195V132.003H82.1749C83.243 132.003 84.2689 131.581 85.0277 130.822C85.7866 130.063 86.2082 129.052 86.2082 127.969C86.2082 127.618 86.4893 127.337 86.8406 127.337H117.083C117.294 127.337 117.449 127.435 117.533 127.52C117.603 127.59 117.716 127.745 117.716 127.969C117.716 130.19 119.528 132.003 121.749 132.003H122.086V134.195C122.086 135.263 122.508 136.275 123.267 137.048C124.025 137.793 125.009 138.214 126.063 138.228V149.71H126.091ZM130.181 149.752V138.172C130.181 135.966 128.396 134.167 126.19 134.139V131.947C126.19 129.726 124.377 127.913 122.156 127.913H121.819C121.819 126.677 121.313 125.51 120.442 124.625C119.556 123.739 118.362 123.248 117.111 123.248H86.8687C84.2829 123.248 82.1749 125.341 82.1468 127.913H81.8095C79.5891 127.913 77.7763 129.726 77.7763 131.947V134.139C76.7223 134.139 75.7245 134.574 74.9656 135.319C74.2068 136.078 73.7852 137.09 73.7852 138.172V149.752C73.7852 151.972 75.598 153.785 77.8184 153.785H126.162C128.382 153.785 130.195 151.972 130.195 149.752H130.181Z" fill="#05B9C0"/>
</svg>
