<?xml version="1.0" encoding="UTF-8"?> <svg xmlns="http://www.w3.org/2000/svg" width="665" height="517" viewBox="0 0 665 517" fill="none"><path d="M499.044 60.4979C494.234 73.1563 480.068 79.5172 467.409 74.7038C454.751 69.8913 448.394 55.7282 453.204 43.0698C458.021 30.4115 472.179 24.0505 484.838 28.8631C497.496 33.6764 503.861 47.8395 499.044 60.4979ZM498.091 7.41685L489.187 4.03203L483.441 12.7048C481.235 12.2897 479.028 12.0596 476.838 12.0207L472.965 2.37891L463.561 3.8995L462.918 14.2857C460.83 15.0222 458.814 15.9301 456.87 17.0015L448.688 10.5795L441.299 16.5976L445.934 25.8989C444.506 27.5639 443.212 29.3662 442.061 31.2876L431.76 29.8202L428.379 38.7239L437.045 44.4706C436.633 46.6721 436.403 48.8792 436.363 51.0712L426.72 54.9465L428.244 64.3494L438.633 64.9898C439.363 67.0771 440.275 69.1 441.347 71.0365L434.926 79.2251L440.942 86.6083L450.243 81.9767C451.91 83.4044 453.712 84.698 455.632 85.8512L454.164 96.1509L463.068 99.5357L468.814 90.8629C471.013 91.278 473.219 91.5081 475.417 91.547L479.29 101.189L488.695 99.6682L489.33 89.282C491.417 88.5463 493.441 87.6376 495.377 86.5662L503.567 92.9883L510.948 86.9702L506.321 77.668C507.75 76.0038 509.043 74.2015 510.194 72.2801L520.495 73.7475L523.876 64.8438L515.21 59.0971C515.622 56.8956 515.853 54.6885 515.892 52.4965L525.535 48.6213L524.011 39.2183L513.622 38.5779C512.892 36.4906 511.98 34.4677 510.908 32.5312L517.329 24.3426L511.313 16.9594L502.012 21.5911C500.345 20.1633 498.544 18.8697 496.623 17.7166L498.091 7.41685Z" fill="#E1F9FA" stroke="#24AFB5" stroke-width="1.5"></path><path d="M476.272 28.1708C466.701 28.1708 457.662 34.0032 454.067 43.4672C449.416 55.6962 455.582 69.4284 467.812 74.0783C473.733 76.3298 480.185 76.1409 485.962 73.5442C491.748 70.9482 496.169 66.2563 498.423 60.3318C503.073 48.1028 496.907 34.3706 484.677 29.7208C481.907 28.6692 479.066 28.1708 476.272 28.1708ZM476.256 77.2274C473.217 77.2274 470.169 76.6734 467.249 75.5616C454.202 70.6006 447.622 55.9502 452.583 42.9029C457.543 29.8565 472.193 23.2749 485.24 28.2375C498.288 33.1976 504.867 47.8488 499.907 60.8961C497.502 67.2166 492.78 72.2228 486.613 74.9925C483.304 76.4806 479.78 77.2274 476.256 77.2274ZM468.931 90.185C468.979 90.185 469.027 90.1897 469.074 90.1993C471.241 90.6056 473.415 90.831 475.542 90.8691C475.868 90.8746 476.145 91.0707 476.264 91.3667L479.907 100.42L488.058 99.1014L488.661 89.3485C488.677 89.0303 488.883 88.7549 489.185 88.6493C491.224 87.9303 493.216 87.0351 495.113 85.9875C495.391 85.8335 495.732 85.8613 495.986 86.0573L503.676 92.0873L510.073 86.8716L505.724 78.1377C505.581 77.852 505.629 77.5091 505.835 77.2679C507.224 75.6489 508.502 73.8727 509.628 71.9879C509.795 71.7141 510.105 71.5688 510.422 71.6101L520.096 72.9878L523.025 65.2706L514.882 59.8747C514.62 59.6977 514.485 59.3795 514.541 59.066C514.946 56.9073 515.176 54.7312 515.216 52.5979C515.216 52.2789 515.414 51.9948 515.708 51.8757L524.763 48.2369L523.445 40.0863L513.692 39.4856C513.374 39.4665 513.097 39.2586 512.993 38.9578C512.271 36.9182 511.382 34.9246 510.335 33.031C510.176 32.7516 510.208 32.408 510.398 32.1572L516.43 24.4677L511.216 18.0679L502.486 22.417C502.2 22.559 501.851 22.5162 501.613 22.309C499.994 20.9202 498.216 19.6433 496.335 18.5123C496.057 18.348 495.907 18.0361 495.954 17.7203L497.335 8.04833L489.613 5.11508L484.216 13.2585C484.042 13.5244 483.724 13.6577 483.407 13.5998C481.248 13.1934 479.074 12.968 476.939 12.9299C476.621 12.9236 476.336 12.7276 476.217 12.4323L472.582 3.3794L464.431 4.69683L463.828 14.4505C463.812 14.7688 463.598 15.0442 463.304 15.1497C461.265 15.8688 459.273 16.7648 457.376 17.8116C457.098 17.9663 456.749 17.9385 456.503 17.7417L448.813 11.7109L442.416 16.9275L446.765 25.6613C446.9 25.947 446.86 26.2891 446.654 26.5312C445.265 28.1518 443.988 29.9279 442.861 31.8112C442.694 32.085 442.384 32.231 442.067 32.1889L432.393 30.8112L429.456 38.5284L437.599 43.9243C437.869 44.1013 438.004 44.4196 437.948 44.733C437.535 46.8909 437.313 49.067 437.273 51.2011C437.265 51.5202 437.075 51.8043 436.773 51.9233L427.726 55.5621L429.043 63.7119L438.797 64.3135C439.115 64.3333 439.384 64.5412 439.495 64.842C440.218 66.8825 441.107 68.8768 442.154 70.768C442.313 71.0474 442.281 71.3911 442.083 71.6418L436.059 79.3313L441.273 85.7311L450.003 81.382C450.289 81.2392 450.63 81.282 450.876 81.4892C452.495 82.8772 454.273 84.1542 456.154 85.2859C456.432 85.4502 456.574 85.7621 456.535 86.0787L455.154 95.7499L462.876 98.684L468.273 90.5405C468.415 90.3159 468.669 90.185 468.931 90.185ZM479.407 102.098C479.09 102.098 478.788 101.905 478.669 101.601L474.987 92.4429C473.114 92.3841 471.201 92.1857 469.304 91.8532L463.844 100.089C463.638 100.4 463.249 100.526 462.9 100.393L453.995 97.0078C453.654 96.8761 453.44 96.5213 453.495 96.1539L454.884 86.3724C453.249 85.3589 451.686 84.2399 450.249 83.0352L441.408 87.4343C441.083 87.6001 440.678 87.5128 440.44 87.2255L434.424 79.8424C434.186 79.5543 434.186 79.1432 434.416 78.8512L440.511 71.0728C439.615 69.3982 438.829 67.6507 438.178 65.8658L428.313 65.2571C427.94 65.2341 427.639 64.9579 427.575 64.592L426.051 55.1891C425.996 54.8224 426.202 54.4645 426.544 54.3256L435.702 50.6456C435.757 48.7639 435.956 46.856 436.289 44.9592L428.051 39.5014C427.742 39.2959 427.615 38.9046 427.75 38.5578L431.139 29.6541C431.266 29.3073 431.623 29.1009 431.988 29.1501L441.773 30.5438C442.781 28.9049 443.9 27.347 445.106 25.901L440.71 17.0671C440.543 16.7354 440.63 16.333 440.916 16.0981L448.305 10.08C448.59 9.84511 449.003 9.84114 449.289 10.0705L457.066 16.1703C458.749 15.2719 460.495 14.487 462.281 13.8315L462.884 3.9659C462.908 3.59528 463.185 3.29052 463.55 3.231L472.955 1.7112C473.32 1.65089 473.677 1.85485 473.82 2.19849L477.494 11.3554C479.375 11.4149 481.288 11.6133 483.185 11.9458L488.645 3.70955C488.843 3.40004 489.24 3.27306 489.589 3.40559L498.486 6.79042C498.835 6.92217 499.042 7.27692 498.994 7.64437L497.597 17.4266C499.24 18.4385 500.795 19.5583 502.24 20.7631L511.073 16.3648C511.406 16.1997 511.811 16.2862 512.049 16.5735L518.065 23.9566C518.295 24.2447 518.303 24.6558 518.073 24.9479L511.97 32.7262C512.874 34.4016 513.652 36.1492 514.311 37.934L524.176 38.5419C524.549 38.5642 524.85 38.8411 524.914 39.207L526.43 48.6099C526.493 48.9766 526.287 49.3345 525.946 49.4734L516.787 53.1534C516.731 55.0335 516.533 56.9422 516.2 58.8398L524.437 64.2976C524.747 64.5031 524.866 64.8944 524.739 65.2412L521.35 74.1449C521.223 74.4918 520.866 74.6973 520.501 74.6489L510.716 73.2553C509.708 74.8957 508.581 76.4536 507.382 77.898L511.779 86.7319C511.946 87.0636 511.859 87.4668 511.573 87.7009L504.184 93.719C503.899 93.9531 503.486 93.9571 503.192 93.7285L495.415 87.6287C493.74 88.5279 491.994 89.312 490.208 89.9675L489.605 99.8323C489.581 100.203 489.304 100.508 488.939 100.567L479.534 102.088C479.486 102.094 479.447 102.098 479.407 102.098Z" fill="#E1F9FA" stroke="#24AFB5" stroke-width="1.5"></path><path d="M412.118 139.255C399.865 144.082 386.024 138.063 381.198 125.813C376.365 113.562 382.389 99.7177 394.634 94.89C406.888 90.0632 420.729 96.0813 425.562 108.332C430.387 120.583 424.372 134.427 412.118 139.255ZM442.347 90.8655C442.07 90.3759 441.49 90.1442 440.951 90.3068L433.157 92.6671C432.705 92.8044 432.213 92.6552 431.903 92.2965C430.856 91.0862 429.745 89.9529 428.578 88.9013C428.221 88.5854 428.086 88.0982 428.229 87.6474L430.705 79.8944C430.879 79.3587 430.657 78.7762 430.165 78.4913L424.023 74.8771C423.538 74.5914 422.919 74.6803 422.538 75.0914L416.967 81.0365C416.642 81.3825 416.142 81.4983 415.697 81.3428C414.197 80.8269 412.674 80.4047 411.126 80.0793C410.658 79.9817 410.293 79.6286 410.198 79.1651L408.46 71.197C408.34 70.6479 407.856 70.2542 407.293 70.2503L400.166 70.1939C399.603 70.1891 399.118 70.5756 398.991 71.1232L397.134 79.0468C397.031 79.5087 396.658 79.8555 396.198 79.946C394.65 80.246 393.119 80.6484 391.603 81.1492C391.15 81.2976 390.658 81.1753 390.333 80.8238L384.857 74.793C384.476 74.3763 383.865 74.2779 383.373 74.5557L377.175 78.0722C376.683 78.35 376.452 78.9286 376.619 79.4674L378.976 87.2672C379.119 87.722 378.968 88.2093 378.611 88.5204C377.397 89.5664 376.27 90.6767 375.214 91.8481C374.905 92.2012 374.413 92.3401 373.96 92.1957L366.215 89.7164C365.683 89.5442 365.096 89.768 364.81 90.2529L361.199 96.4011C360.913 96.886 361.008 97.5035 361.413 97.8884L367.357 103.466C367.707 103.791 367.826 104.284 367.667 104.733C367.151 106.23 366.73 107.759 366.405 109.309C366.31 109.773 365.953 110.138 365.492 110.239L357.532 111.97C356.985 112.089 356.588 112.574 356.58 113.136L356.532 120.269C356.524 120.831 356.913 121.322 357.461 121.45L365.381 123.304C365.842 123.411 366.183 123.781 366.278 124.246C366.58 125.791 366.977 127.326 367.484 128.845C367.627 129.296 367.508 129.791 367.159 130.111L361.127 135.591C360.715 135.969 360.62 136.585 360.889 137.075L364.413 143.279C364.691 143.769 365.27 144.001 365.81 143.838L373.595 141.478C374.056 141.34 374.54 141.49 374.849 141.848C375.897 143.059 377.008 144.192 378.183 145.243C378.532 145.559 378.675 146.047 378.524 146.497L376.048 154.25C375.881 154.786 376.103 155.369 376.587 155.653L382.73 159.268C383.214 159.553 383.833 159.464 384.222 159.053L389.793 153.108C390.119 152.762 390.611 152.647 391.055 152.802C392.555 153.318 394.079 153.741 395.634 154.066C396.095 154.164 396.46 154.517 396.563 154.98L398.293 162.948C398.412 163.497 398.896 163.891 399.46 163.895L406.586 163.951C407.15 163.956 407.642 163.569 407.769 163.021L409.618 155.098C409.729 154.636 410.094 154.289 410.563 154.199C412.102 153.899 413.634 153.497 415.158 152.996C415.602 152.847 416.102 152.97 416.42 153.322L421.896 159.352C422.277 159.768 422.896 159.867 423.38 159.59L429.578 156.073C430.07 155.796 430.3 155.216 430.141 154.677L427.776 146.877C427.641 146.423 427.792 145.935 428.149 145.625C429.356 144.579 430.491 143.468 431.538 142.297C431.856 141.944 432.34 141.805 432.792 141.949L440.538 144.428C441.078 144.601 441.657 144.377 441.943 143.892L445.554 137.744C445.839 137.259 445.752 136.642 445.339 136.257L439.395 130.68C439.046 130.355 438.935 129.861 439.086 129.413C439.601 127.915 440.022 126.387 440.347 124.837C440.451 124.373 440.8 124.007 441.268 123.907L449.228 122.176C449.776 122.056 450.165 121.571 450.173 121.008L450.228 113.876C450.228 113.313 449.847 112.824 449.3 112.695L441.379 110.841C440.919 110.734 440.57 110.364 440.482 109.899C440.181 108.354 439.776 106.818 439.276 105.299C439.125 104.848 439.252 104.354 439.601 104.034L445.625 98.5542C446.038 98.1757 446.141 97.5598 445.863 97.0709L442.347 90.8655Z" fill="#E1F9FA" stroke="#24AFB5" stroke-width="1.5"></path><path d="M412.233 139.37H412.241H412.233ZM403.463 94.1388C400.662 94.1388 397.805 94.6546 395.043 95.7435C383.218 100.403 377.393 113.814 382.051 125.637C384.305 131.365 388.654 135.872 394.305 138.326C399.948 140.78 406.217 140.889 411.939 138.632C423.764 133.973 429.598 120.562 424.939 108.738C421.368 99.6791 412.662 94.1388 403.463 94.1388ZM403.487 141.837C400.154 141.837 396.821 141.151 393.67 139.781C387.638 137.158 382.988 132.342 380.575 126.219C378.163 120.097 378.274 113.402 380.9 107.367C383.519 101.332 388.337 96.68 394.464 94.2674C407.098 89.2865 421.431 95.5181 426.415 108.157C431.391 120.794 425.161 135.128 412.527 140.108C409.598 141.261 406.543 141.837 403.487 141.837ZM390.773 152.057C390.995 152.057 391.218 152.093 391.432 152.167C392.892 152.671 394.4 153.087 395.908 153.405C396.678 153.567 397.289 154.165 397.448 154.927L399.186 162.894C399.225 163.083 399.392 163.215 399.583 163.217L406.709 163.273C406.892 163.248 407.066 163.144 407.106 162.957L408.955 155.033C409.138 154.273 409.749 153.685 410.527 153.535C412.027 153.244 413.535 152.848 415.019 152.358C415.773 152.11 416.598 152.324 417.122 152.903L422.598 158.934C422.733 159.077 422.939 159.11 423.106 159.015L429.304 155.498C429.471 155.403 429.55 155.208 429.494 155.023L427.129 147.223C426.907 146.474 427.145 145.656 427.74 145.14C428.923 144.117 430.042 143.021 431.066 141.883C431.59 141.296 432.407 141.072 433.153 141.309L440.899 143.788C441.081 143.847 441.28 143.772 441.375 143.606L444.986 137.457C445.081 137.292 445.05 137.083 444.915 136.951L438.97 131.373C438.399 130.839 438.193 130.014 438.454 129.27C438.954 127.809 439.375 126.301 439.693 124.79C439.851 124.017 440.446 123.412 441.208 123.246L449.168 121.516C449.359 121.475 449.494 121.311 449.494 121.118L449.549 113.985C449.549 113.792 449.422 113.627 449.232 113.583L441.312 111.73C440.55 111.553 439.962 110.939 439.812 110.166C439.526 108.665 439.129 107.15 438.637 105.664C438.391 104.913 438.605 104.088 439.177 103.562L445.208 98.0823C445.351 97.9529 445.383 97.745 445.288 97.5776L441.772 91.3722C441.677 91.2039 441.478 91.127 441.296 91.1817L433.502 93.542C432.756 93.769 431.939 93.5285 431.415 92.9309C430.399 91.7492 429.304 90.6317 428.161 89.608C427.574 89.0826 427.352 88.2635 427.59 87.5207L430.066 79.7685C430.121 79.5852 430.05 79.3884 429.883 79.2916L423.733 75.6758C423.566 75.5782 423.36 75.6083 423.233 75.7488L417.661 81.6939C417.122 82.2645 416.296 82.4653 415.55 82.209C414.09 81.705 412.582 81.2883 411.074 80.9709C410.304 80.809 409.701 80.2114 409.535 79.4495L407.805 71.4814C407.757 71.2934 407.598 71.1608 407.408 71.1592L400.281 71.1029C400.098 71.0989 399.924 71.2315 399.876 71.4188L398.027 79.3424C397.845 80.1027 397.233 80.6907 396.464 80.8407C394.964 81.132 393.448 81.528 391.964 82.0185C391.218 82.2653 390.392 82.0518 389.861 81.4733L384.385 75.4417C384.258 75.2996 384.051 75.2655 383.877 75.3607L377.678 78.8781C377.512 78.9733 377.432 79.1685 377.488 79.3527L379.853 87.1532C380.075 87.9016 379.837 88.7183 379.242 89.2357C378.059 90.2595 376.94 91.3555 375.924 92.4928C375.401 93.0793 374.575 93.3039 373.837 93.0666L366.091 90.5873C365.901 90.5278 365.71 90.604 365.607 90.7698L361.996 96.9181C361.901 97.0847 361.933 97.2926 362.076 97.4252L368.02 103.003C368.591 103.536 368.79 104.362 368.536 105.106C368.028 106.569 367.615 108.076 367.298 109.587C367.131 110.358 366.536 110.964 365.774 111.13L357.814 112.86C357.623 112.902 357.496 113.064 357.488 113.257L357.441 120.39C357.433 120.583 357.568 120.748 357.758 120.793L365.671 122.646C366.433 122.823 367.02 123.436 367.171 124.209C367.464 125.711 367.861 127.226 368.353 128.712C368.599 129.462 368.385 130.287 367.806 130.813L361.782 136.293C361.639 136.423 361.607 136.631 361.695 136.799L365.218 143.003C365.314 143.172 365.504 143.249 365.695 143.194L373.48 140.834C374.234 140.607 375.051 140.847 375.567 141.445C376.583 142.626 377.686 143.743 378.821 144.768C379.408 145.293 379.639 146.112 379.401 146.854L376.924 154.607C376.861 154.79 376.94 154.987 377.107 155.084L383.25 158.7C383.416 158.797 383.623 158.767 383.758 158.627L389.329 152.682C389.71 152.276 390.234 152.057 390.773 152.057ZM406.709 164.86H406.693L399.567 164.804C398.63 164.796 397.837 164.15 397.63 163.231L395.9 155.264C395.868 155.109 395.741 154.993 395.583 154.959C394.011 154.627 392.44 154.193 390.916 153.667C390.757 153.613 390.591 153.651 390.488 153.767L384.916 159.712C384.273 160.399 383.258 160.545 382.448 160.067L376.297 156.453C375.488 155.977 375.123 155.02 375.409 154.125L377.885 146.371C377.932 146.221 377.885 146.06 377.766 145.949C376.575 144.879 375.432 143.714 374.369 142.483C374.258 142.357 374.099 142.307 373.94 142.353L366.155 144.713C365.25 144.984 364.298 144.604 363.837 143.787L360.314 137.581C359.853 136.763 360.02 135.75 360.711 135.119L366.734 129.639C366.853 129.533 366.893 129.368 366.845 129.209C366.329 127.66 365.917 126.08 365.615 124.513C365.584 124.351 365.464 124.228 365.314 124.191L357.393 122.338C356.481 122.124 355.846 121.317 355.854 120.379L355.901 113.245C355.909 112.305 356.56 111.509 357.481 111.31L365.441 109.579C365.591 109.545 365.71 109.423 365.742 109.261C366.075 107.685 366.504 106.114 367.028 104.589C367.083 104.433 367.052 104.269 366.933 104.161L360.988 98.5823C360.306 97.9387 360.155 96.9244 360.631 96.1149L364.242 89.9667C364.718 89.1556 365.679 88.7889 366.576 89.0754L374.321 91.5547C374.464 91.6039 374.631 91.5571 374.742 91.4333C375.805 90.2468 376.972 89.1032 378.202 88.0358C378.329 87.9262 378.377 87.7643 378.329 87.6128L375.972 79.8122C375.702 78.9122 376.083 77.9606 376.901 77.4972L383.099 73.9806C383.916 73.5163 384.924 73.6782 385.559 74.375L391.035 80.405C391.146 80.5225 391.313 80.563 391.464 80.5106C393.011 80.0003 394.591 79.5868 396.162 79.2828C396.321 79.2511 396.448 79.136 396.479 78.9812L398.329 71.0584C398.543 70.1426 399.36 69.5133 400.289 69.5156L407.416 69.572C408.36 69.5791 409.154 70.2259 409.352 71.1442L411.082 79.1122C411.122 79.267 411.241 79.3836 411.4 79.4177C412.979 79.7487 414.542 80.1828 416.074 80.7082C416.225 80.7621 416.392 80.7248 416.503 80.609L422.074 74.6639C422.717 73.9782 423.733 73.8314 424.542 74.3076L430.685 77.9226C431.494 78.3987 431.859 79.3566 431.574 80.2511L429.098 88.004C429.05 88.1548 429.098 88.3159 429.225 88.4262C430.415 89.4945 431.558 90.6611 432.621 91.8928C432.724 92.019 432.891 92.0698 433.042 92.023L440.835 89.6627C441.732 89.3905 442.684 89.7714 443.153 90.5889L446.669 96.7951C447.129 97.6125 446.97 98.6244 446.272 99.2569L440.248 104.737C440.129 104.843 440.089 105.008 440.145 105.166C440.653 106.716 441.065 108.296 441.375 109.863C441.407 110.025 441.518 110.148 441.669 110.184L449.589 112.038C450.51 112.252 451.145 113.057 451.137 113.997L451.081 121.13C451.073 122.07 450.43 122.867 449.51 123.067L441.55 124.797C441.391 124.831 441.28 124.952 441.24 125.115C440.915 126.692 440.478 128.264 439.954 129.787C439.899 129.943 439.939 130.108 440.05 130.216L446.002 135.793C446.684 136.436 446.827 137.451 446.351 138.261L442.74 144.409C442.264 145.22 441.312 145.586 440.415 145.3L432.669 142.821C432.518 142.771 432.351 142.818 432.248 142.942C431.177 144.129 430.018 145.273 428.78 146.341C428.653 146.449 428.606 146.612 428.653 146.764L431.01 154.563C431.288 155.463 430.907 156.414 430.09 156.878L423.891 160.395C423.074 160.859 422.058 160.696 421.423 160.001L415.947 153.97C415.844 153.855 415.677 153.813 415.519 153.865C413.971 154.376 412.392 154.79 410.828 155.093C410.662 155.124 410.543 155.239 410.503 155.394L408.654 163.317C408.439 164.227 407.646 164.86 406.709 164.86Z" fill="#24AFB5" stroke="#24AFB5" stroke-width="1.5"></path><path d="M657.941 10.7661H579.276C576.538 10.7661 574.237 13.7303 574.149 16.9064L573.023 56.5395C572.927 59.7148 575.086 62.352 577.824 62.352H587.228L591.054 73.6247L599.561 62.352H656.488C659.218 62.352 661.504 59.91 661.592 56.7339L662.726 16.8398C662.822 13.6637 660.679 10.7661 657.941 10.7661Z" fill="white" stroke="#24AFB5" stroke-width="1.5"></path><path d="M579.392 11.6751C577.162 11.6751 575.138 14.1846 575.051 17.0448L573.932 56.6771C573.884 58.158 574.4 59.5587 575.329 60.5198C576.059 61.2642 576.979 61.6737 577.94 61.6737H587.344C587.685 61.6737 587.987 61.8904 588.098 62.2126L591.439 72.0655L599.042 61.9888C599.193 61.7904 599.431 61.6737 599.677 61.6737H656.604C658.945 61.6737 660.834 59.5444 660.913 56.8271L662.048 16.9329C662.096 15.375 661.525 13.833 660.533 12.8069C660.033 12.2902 659.191 11.6751 658.056 11.6751H579.392ZM591.169 74.5337C591.13 74.5337 591.082 74.5305 591.042 74.5234C590.757 74.4766 590.511 74.2734 590.415 73.9948L586.773 63.261H577.94C576.551 63.261 575.217 62.6809 574.194 61.6261C572.964 60.3587 572.289 58.5389 572.344 56.6318L573.471 16.9988C573.575 13.2529 576.289 10.0879 579.392 10.0879H658.056C659.374 10.0879 660.659 10.6609 661.667 11.7006C662.961 13.0275 663.699 15.0005 663.636 16.9782L662.501 56.8723C662.398 60.4547 659.81 63.261 656.604 63.261H600.074L591.804 74.2186C591.653 74.4186 591.415 74.5337 591.169 74.5337Z" fill="#24AFB5" stroke="#24AFB5" stroke-width="1.5"></path><path d="M593.752 27.292H643.116C644.52 27.292 645.719 25.85 645.767 24.454C645.806 23.0588 644.735 21.6167 643.338 21.6167H593.974C592.577 21.6167 591.379 23.0588 591.331 24.454C591.284 25.85 592.355 27.292 593.752 27.292Z" fill="#24AFB5" stroke="#24AFB5" stroke-width="1.5"></path><path d="M593.435 37.1968H642.799C644.196 37.1968 645.378 36.2278 645.426 34.8318C645.473 33.4366 644.386 32.4668 642.981 32.4668H593.618C592.221 32.4668 591.038 33.4366 590.991 34.8318C590.943 36.2278 592.03 37.1968 593.435 37.1968Z" fill="#24AFB5" stroke="#24AFB5" stroke-width="1.5"></path><path d="M593.08 48.9927H642.444C643.849 48.9927 645.039 47.5507 645.087 46.1547C645.134 44.7594 644.063 43.3174 642.666 43.3174H593.302C591.898 43.3174 590.699 44.7594 590.651 46.1547C590.612 47.5507 591.683 48.9927 593.08 48.9927Z" fill="#24AFB5" stroke="#24AFB5" stroke-width="1.5"></path><path d="M181.78 252.142C181.78 252.142 177.955 265.278 235.12 268.476C292.293 271.674 282.73 255.432 282.73 255.432L222.707 237.946L181.78 252.142Z" fill="white" stroke="#24AFB5" stroke-width="1.5"></path><path d="M182.633 252.842C182.648 253.305 182.807 254.166 183.632 255.273C186.418 259.027 196.831 265.649 235.282 267.799C270.813 269.789 279.749 264.131 281.915 260.582C283.106 258.627 282.558 256.86 282.28 256.212L222.846 238.895L182.633 252.842ZM248.869 269.795C244.663 269.795 240.099 269.659 235.195 269.384C197.735 267.289 185.72 260.98 182.236 256.057C180.672 253.841 181.085 252.214 181.133 252.035C181.204 251.789 181.394 251.592 181.633 251.508L222.56 237.312C222.719 237.258 222.885 237.253 223.044 237.3L283.066 254.786C283.257 254.843 283.423 254.971 283.527 255.146C283.598 255.267 285.249 258.152 283.265 261.407C279.892 266.945 268.098 269.795 248.869 269.795Z" fill="#24AFB5" stroke="#24AFB5" stroke-width="1.5"></path><path d="M239.079 458.013L238.357 484.991L228.826 486.021L224.111 456.989L239.079 458.013Z" fill="white" stroke="#24AFB5" stroke-width="1.5"></path><path d="M225.166 457.964L229.602 485.266L237.689 484.392L238.38 458.867L225.166 457.964ZM228.936 486.93C228.555 486.93 228.221 486.65 228.158 486.263L223.444 457.231C223.404 456.991 223.476 456.748 223.642 456.569C223.801 456.389 224.031 456.296 224.277 456.312L239.245 457.336C239.674 457.365 239.999 457.724 239.983 458.149L239.261 485.127C239.253 485.524 238.951 485.852 238.555 485.895L229.023 486.925C228.999 486.928 228.968 486.93 228.936 486.93Z" fill="#24AFB5" stroke="#24AFB5" stroke-width="1.5"></path><path d="M293.248 466.483L294.772 487.972L282.177 489.002L277.685 466.483H293.248Z" fill="white" stroke="#24AFB5" stroke-width="1.5"></path><path d="M278.431 467.392L282.597 488.268L293.7 487.36L292.287 467.392H278.431ZM281.954 489.91C281.581 489.91 281.248 489.645 281.177 489.272L276.685 466.753C276.637 466.521 276.692 466.279 276.843 466.095C276.994 465.911 277.224 465.805 277.462 465.805H293.025C293.446 465.805 293.787 466.127 293.819 466.542L295.343 488.03C295.367 488.465 295.049 488.842 294.613 488.878L282.018 489.907C282.002 489.91 281.978 489.91 281.954 489.91Z" fill="#24AFB5" stroke="#24AFB5" stroke-width="1.5"></path><path d="M278.808 498.58C277.935 498 277.403 497.02 277.38 495.972C277.292 492.819 277.284 486.103 278.554 483.58C280.245 480.232 287.205 484.898 287.205 484.898C287.205 484.898 291.276 479.252 293.665 478.064C294.903 477.449 302.125 482.26 309.41 488.816C317.394 496.002 320.997 498.295 322.712 504.486C323.521 507.399 321.386 510.32 318.378 510.534C311.045 511.058 296.252 510.185 278.808 498.58Z" fill="white" stroke="#24AFB5" stroke-width="1.5"></path><path d="M280.56 483.254C280.329 483.254 280.107 483.279 279.909 483.33C279.504 483.437 279.226 483.66 279.044 484.029C278.202 485.693 277.79 490.185 277.948 496.045C277.964 496.842 278.369 497.577 279.02 498.013C296.289 509.5 310.916 510.349 318.098 509.841C319.32 509.754 320.423 509.119 321.138 508.111C321.828 507.135 322.042 505.929 321.725 504.794C320.344 499.805 317.765 497.539 312.122 492.576C311.067 491.65 309.916 490.636 308.654 489.5C300.829 482.458 294.861 478.896 293.742 478.896C291.916 479.856 288.71 483.945 287.623 485.456C287.377 485.802 286.893 485.888 286.535 485.652C285.456 484.926 282.504 483.254 280.56 483.254ZM314.924 511.532C306.844 511.532 293.488 509.54 278.147 499.335C277.06 498.614 276.393 497.399 276.361 496.085C276.266 492.442 276.298 485.936 277.623 483.315C278.012 482.542 278.663 482.017 279.512 481.795C281.869 481.177 285.321 483.041 286.782 483.925C287.948 482.365 290.996 478.489 293.083 477.446C295.496 476.247 305.908 484.89 309.717 488.32C310.971 489.451 312.122 490.461 313.17 491.385C318.876 496.405 321.741 498.925 323.257 504.373C323.701 505.961 323.4 507.659 322.431 509.032C321.447 510.429 319.908 511.302 318.209 511.421C317.241 511.492 316.146 511.532 314.924 511.532Z" fill="#24AFB5" stroke="#24AFB5" stroke-width="1.5"></path><path d="M311.543 505.782C303.892 505.782 291.416 503.981 279.345 494.345C278.996 494.071 278.94 493.572 279.218 493.23C279.488 492.887 279.988 492.83 280.329 493.104C298.956 507.965 318.431 503.64 318.63 503.592C319.058 503.489 319.479 503.759 319.582 504.179C319.677 504.608 319.415 505.036 318.987 505.132C318.915 505.155 316.074 505.782 311.543 505.782Z" fill="#24AFB5" stroke="#24AFB5" stroke-width="1.5"></path><path d="M242.908 491.55L242.765 476.779C242.765 476.779 239.805 472.298 235.742 475.94C235.742 475.94 231.988 470.676 225.02 477.238C225.02 477.238 215.218 495.517 210.877 506.389C209.711 509.301 211.79 512.492 214.925 512.563C219.425 512.666 225.242 512.42 227.782 510.714C231.742 508.031 238.519 499.586 241.48 495.782C242.416 494.571 242.924 493.083 242.908 491.55Z" fill="white" stroke="#24AFB5" stroke-width="1.5"></path><path d="M225.771 477.844C224.93 479.413 215.819 496.539 211.724 506.798C211.264 507.949 211.391 509.203 212.073 510.235C212.748 511.251 213.827 511.854 215.049 511.886C221.192 512.02 225.597 511.417 227.446 510.171C231.343 507.528 238.192 498.969 240.961 495.41C241.787 494.348 242.231 493.022 242.223 491.673L242.081 477.159C241.739 476.725 240.747 475.613 239.398 475.445C238.422 475.322 237.406 475.728 236.382 476.648C236.216 476.798 235.993 476.87 235.763 476.845C235.541 476.821 235.335 476.702 235.208 476.517C235.168 476.46 234.12 475.055 232.128 474.871C230.224 474.695 228.081 475.695 225.771 477.844ZM216.843 513.489C216.248 513.489 215.645 513.481 215.01 513.473C213.264 513.433 211.708 512.568 210.748 511.108C209.788 509.655 209.605 507.83 210.248 506.211C214.557 495.422 224.335 477.163 224.43 476.98C224.47 476.904 224.525 476.836 224.589 476.777C227.295 474.229 229.898 473.056 232.311 473.294C234.065 473.467 235.279 474.346 235.93 474.967C237.128 474.079 238.366 473.711 239.612 473.872C242.009 474.179 243.477 476.364 243.541 476.457C243.62 476.586 243.668 476.735 243.668 476.887L243.811 491.659C243.826 493.362 243.255 495.041 242.215 496.384C238.723 500.878 232.271 508.814 228.335 511.481C226.359 512.814 222.494 513.489 216.843 513.489Z" fill="#24AFB5" stroke="#24AFB5" stroke-width="1.5"></path><path d="M235.764 484.848C235.327 484.848 234.97 484.493 234.97 484.055L234.962 476.092C234.962 475.654 235.319 475.299 235.756 475.299C236.2 475.299 236.549 475.653 236.549 476.092L236.557 484.053C236.557 484.492 236.2 484.847 235.764 484.848Z" fill="#24AFB5" stroke="#24AFB5" stroke-width="1.5"></path><path d="M296.904 467.822C296.904 467.822 300.499 413.581 294.603 364.792C288.706 316.003 266.778 246.332 266.778 246.332C266.778 246.332 243.184 245.261 226.009 247.569C208.835 249.877 202.042 247.503 202.042 247.503C202.042 247.503 189.217 262.183 190.264 289.78C191.312 317.379 221.232 433.79 220.097 461.113C220.097 461.113 230.152 466.168 243.184 463.656L237.787 306.766C237.787 306.766 248.961 339.063 254.207 361.189C258.485 379.227 265.905 390.895 265.905 390.895C265.905 390.895 265.588 432.826 275.214 467.628C275.214 467.628 286.579 471.185 296.904 467.822Z" fill="#24AFB5" stroke="#24AFB5" stroke-width="1.5"></path><path d="M278.242 410.209C277.988 410.209 277.742 410.088 277.583 409.864L269.345 397.876C269.099 397.515 269.195 397.021 269.552 396.773C269.917 396.525 270.409 396.616 270.655 396.978L278.893 408.966C279.147 409.326 279.052 409.821 278.694 410.069C278.552 410.163 278.393 410.209 278.242 410.209Z" fill="white" stroke="#24AFB5" stroke-width="1.5"></path><path d="M222.809 380.537C219.936 380.537 216.285 379.976 213.245 377.719C212.888 377.458 212.817 376.961 213.079 376.609C213.341 376.257 213.833 376.184 214.19 376.445C219.499 380.388 227.245 378.475 227.324 378.455C227.745 378.346 228.181 378.603 228.285 379.028C228.396 379.453 228.142 379.884 227.713 379.993C227.547 380.037 225.523 380.537 222.809 380.537Z" fill="white" stroke="#24AFB5" stroke-width="1.5"></path><path d="M261.748 202.263C261.748 202.263 274.986 232.029 296.557 238.108C318.135 244.188 333.167 225.815 333.071 206.848L325.738 204.415C325.738 204.415 318.207 223.855 301.422 218.796C284.628 213.738 276.843 174.2 276.843 174.2L261.748 202.263Z" fill="white" stroke="#24AFB5" stroke-width="1.5"></path><path d="M262.751 201.729C264.323 205.07 277.172 231.228 296.893 236.784C307.734 239.839 315.496 236.307 320.099 232.805C327.599 227.097 332.273 217.197 332.385 206.859L326.289 204.837C324.901 207.881 318.694 219.865 306.941 219.866C305.187 219.866 303.306 219.599 301.306 218.995C286.338 214.487 278.537 184.33 276.632 175.915L262.751 201.729ZM304.965 239.54C302.362 239.54 299.528 239.175 296.457 238.31C274.775 232.2 261.688 203.253 261.14 202.024C261.037 201.8 261.053 201.542 261.164 201.326L276.259 173.263C276.418 172.968 276.743 172.8 277.077 172.854C277.402 172.904 277.672 173.157 277.735 173.485C277.815 173.876 285.624 212.613 301.766 217.475C317.663 222.268 325.036 203.755 325.107 203.569C325.258 203.173 325.694 202.967 326.099 203.101L333.432 205.534C333.758 205.641 333.972 205.942 333.98 206.283C334.035 217.313 329.083 227.96 321.059 234.069C317.48 236.795 312.099 239.54 304.965 239.54Z" fill="#24AFB5" stroke="#24AFB5" stroke-width="1.5"></path><path d="M182.065 173.087C182.065 173.087 195.327 155.771 232.81 159.006C277.571 162.869 280.983 171.713 280.983 171.713L269.301 195.387L283.015 255.14C283.015 255.14 273.642 262.899 251.698 258.542C229.755 254.186 192.041 248.839 182.065 251.849L195.97 194.833L182.065 173.087Z" fill="white" stroke="#24AFB5" stroke-width="1.5"></path><path d="M191.002 250.309C206.399 250.309 233.366 254.258 251.628 257.884C270.484 261.626 279.944 256.24 281.897 254.925L268.31 195.686C268.262 195.507 268.286 195.321 268.365 195.157L279.857 171.874C278.778 170.457 271.437 163.275 232.525 159.917C199.232 157.046 185.169 170.695 182.828 173.277L196.415 194.527C196.534 194.709 196.573 194.932 196.518 195.142L182.923 250.891C184.963 250.489 187.717 250.309 191.002 250.309ZM264.207 260.795C260.5 260.795 256.223 260.414 251.318 259.441C229.065 255.022 191.669 249.832 182.074 252.731C181.804 252.811 181.51 252.742 181.296 252.546C181.09 252.35 181.01 252.059 181.074 251.782L194.899 195.096L181.169 173.635C180.995 173.354 181.01 172.99 181.209 172.725C181.764 172.004 195.177 155.099 232.66 158.336C277.397 162.197 281.357 171.168 281.508 171.549C281.587 171.755 281.571 171.986 281.476 172.185L269.913 195.607L283.563 255.084C283.635 255.376 283.531 255.68 283.301 255.872C282.992 256.126 277.159 260.795 264.207 260.795Z" fill="#24AFB5" stroke="#24AFB5" stroke-width="1.5"></path><path d="M325.863 229.111H268.19L306.015 160.637H363.68L325.863 229.111Z" fill="#24AFB5" stroke="#24AFB5" stroke-width="1.5"></path><path d="M269.652 228.433H325.507L362.451 161.546H306.595L269.652 228.433ZM325.975 230.02H268.302C268.025 230.02 267.763 229.872 267.62 229.63C267.477 229.388 267.477 229.089 267.612 228.843L305.436 160.368C305.571 160.116 305.841 159.959 306.127 159.959H363.792C364.078 159.959 364.331 160.107 364.482 160.349C364.625 160.591 364.625 160.891 364.49 161.136L326.666 229.61C326.531 229.863 326.261 230.02 325.975 230.02Z" fill="#24AFB5" stroke="#24AFB5" stroke-width="1.5"></path><path d="M327.335 227.005C327.335 227.005 326.248 221.327 327.335 217.539C328.414 213.75 335.136 202.483 337.057 200.125C338.977 197.768 340.604 222.943 327.335 227.005Z" fill="white" stroke="#24AFB5" stroke-width="1.5"></path><path d="M336.968 201.382C334.603 204.673 328.825 214.543 327.873 217.875C327.103 220.558 327.5 224.338 327.746 226.058C332.285 224.227 334.603 219.625 335.769 215.974C337.69 209.912 337.499 203.514 336.968 201.382ZM327.111 227.917C326.968 227.917 326.825 227.878 326.698 227.802C326.508 227.687 326.373 227.493 326.333 227.271C326.285 227.033 325.222 221.363 326.349 217.438C327.436 213.618 334.182 202.244 336.214 199.742C336.547 199.339 336.999 199.195 337.436 199.358C338.928 199.914 338.952 204.628 338.896 206.628C338.634 215.272 335.468 225.395 327.341 227.882C327.262 227.905 327.19 227.917 327.111 227.917Z" fill="#24AFB5" stroke="#24AFB5" stroke-width="1.5"></path><path d="M206.62 212.484L251.024 191.085L274.094 195.168C274.094 195.168 272.475 197.57 269.198 197.009C265.92 196.448 261.563 197.385 258.817 200.406C256.071 203.428 251.436 201.505 251.436 201.505C251.436 201.505 226.326 233.773 203.771 237.935C185.438 241.319 183.422 175.557 183.422 175.557L205.477 195.115L206.62 212.484Z" fill="white" stroke="#24AFB5" stroke-width="1.5"></path><path d="M184.072 177.505C184.509 186.673 187.032 226.95 197.953 235.756C199.659 237.137 201.445 237.631 203.405 237.27C225.404 233.21 250.34 201.454 250.586 201.133C250.808 200.851 251.189 200.75 251.523 200.888C251.562 200.904 255.673 202.551 258.007 199.988C261.015 196.672 265.752 195.768 269.11 196.342C270.467 196.575 271.483 196.213 272.165 195.787L250.912 192.026L206.746 213.315C206.508 213.43 206.23 213.419 206 213.285C205.77 213.152 205.627 212.915 205.603 212.652L204.484 195.607L184.072 177.505ZM202.199 238.97C200.342 238.97 198.588 238.308 196.953 236.991C184.112 226.633 182.469 177.771 182.406 175.697C182.398 175.38 182.572 175.088 182.866 174.953C183.152 174.819 183.493 174.869 183.723 175.078L205.778 194.637C205.937 194.775 206.032 194.97 206.048 195.178L207.111 211.374L250.459 190.485C250.602 190.414 250.777 190.389 250.936 190.418L274.006 194.502C274.276 194.548 274.498 194.725 274.601 194.973C274.705 195.22 274.681 195.503 274.53 195.726C274.451 195.841 272.586 198.547 268.84 197.906C265.911 197.406 261.792 198.185 259.181 201.055C256.673 203.815 252.92 203.005 251.491 202.557C248.237 206.646 225.095 234.881 203.691 238.831C203.191 238.924 202.691 238.97 202.199 238.97Z" fill="#24AFB5" stroke="#24AFB5" stroke-width="1.5"></path><path d="M228.15 144.119C225.213 145.951 222.078 145.751 220.563 145.655C217.404 145.451 204.142 143.322 197.468 131.534C190.936 119.991 193.476 104.068 199.103 101.932C203.142 100.399 207.738 106.367 213.849 103.949C216.555 102.879 216.277 101.462 219.15 100.327C223.999 98.417 229.197 100.695 233.157 102.496C240.395 105.786 239.697 107.83 246.014 110.955C255.006 115.405 261.077 113.555 262.276 117.024C263.228 119.789 260.363 123.828 257.236 125.852C250.76 130.041 245.157 124.093 239.999 128.136C236.792 130.646 236.245 134.923 230.816 141.69C230.38 142.23 229.546 143.247 228.15 144.119Z" fill="#24AFB5" stroke="#24AFB5" stroke-width="1.5"></path><path d="M234.727 153.23C234.655 152.192 234.592 151.042 234.552 149.847C236.504 151.199 238.726 151.831 240.218 151.39C242.06 150.847 242.742 149.136 243.861 147.158C244.337 146.331 244.814 145.35 245.933 144.648C246.528 144.276 247.155 144.08 247.726 143.982C248.432 143.862 248.932 143.224 248.909 142.506L248.821 142.066C248.163 138.598 248.194 135.035 248.909 131.579L250.313 124.754C246.917 122.47 245.512 122.426 244.877 122.904C244.639 123.081 244.337 123.164 244.115 124.215C243.083 129.287 238.647 127.778 235.044 126.019C231.441 124.261 231.242 131.608 231.242 131.608C231.242 131.608 229.544 128.042 226.338 130.122C224.044 131.611 227.028 135.517 228.909 137.61L224.219 151.907C222.989 155.669 219.719 158.4 215.791 158.941L209.87 159.76C209.87 159.76 231.663 166.232 249.21 161.609L239.504 159.024C236.838 158.313 234.917 155.984 234.727 153.23Z" fill="white" stroke="#24AFB5" stroke-width="1.5"></path><path d="M214.145 160.094C220.613 161.555 233.978 163.888 245.986 161.65L239.414 159.9C236.422 159.101 234.272 156.486 234.057 153.393C233.97 152.221 233.915 151.074 233.875 149.982C233.867 149.682 234.026 149.402 234.288 149.259C234.549 149.116 234.875 149.132 235.121 149.302C236.883 150.521 238.891 151.098 240.113 150.737C241.375 150.363 241.986 149.247 242.835 147.701C242.978 147.433 243.129 147.156 243.287 146.874L243.414 146.65C243.875 145.839 244.438 144.829 245.628 144.083C246.247 143.698 246.946 143.437 247.716 143.308C248.009 143.259 248.224 142.999 248.232 142.695L248.16 142.322C247.478 138.734 247.509 135.103 248.247 131.527L249.541 125.228C246.319 123.14 245.549 123.586 245.47 123.646L245.351 123.731C245.248 123.801 245.136 123.875 245.01 124.482C244.644 126.301 243.819 127.533 242.573 128.146C240.327 129.252 237.248 128.029 234.811 126.841C234.192 126.541 233.875 126.655 233.692 126.768C232.708 127.363 232.2 130.032 232.153 131.738C232.137 132.104 231.883 132.416 231.518 132.492C231.161 132.568 230.796 132.388 230.637 132.058C230.637 132.047 229.994 130.748 228.875 130.439C228.28 130.273 227.613 130.426 226.891 130.895C226.613 131.074 226.47 131.29 226.431 131.596C226.28 132.708 227.47 134.8 229.613 137.189C229.804 137.4 229.867 137.696 229.78 137.966L225.089 152.262C223.772 156.285 220.209 159.258 216.018 159.836L214.145 160.094ZM235.145 164.159C221.859 164.159 209.923 160.677 209.757 160.628C209.399 160.522 209.169 160.181 209.193 159.808C209.225 159.435 209.511 159.132 209.876 159.081L215.804 158.263C219.399 157.767 222.455 155.217 223.582 151.767L228.129 137.903C225.748 135.171 224.645 132.98 224.859 131.387C224.955 130.624 225.359 129.994 226.026 129.564C227.153 128.832 228.256 128.612 229.319 128.913C229.891 129.074 230.367 129.37 230.764 129.704C231.01 128.165 231.581 126.19 232.867 125.411C233.407 125.086 234.295 124.824 235.51 125.414C237.454 126.363 240.232 127.531 241.875 126.722C242.668 126.332 243.184 125.495 243.454 124.163C243.692 123.021 244.081 122.674 244.454 122.419C245.7 121.482 247.66 122.044 250.874 124.203C251.136 124.382 251.271 124.706 251.208 125.022L249.803 131.847C249.105 135.219 249.081 138.644 249.716 142.026L249.803 142.468C249.811 142.505 249.811 142.543 249.819 142.581C249.866 143.702 249.073 144.688 247.978 144.873C247.414 144.968 246.914 145.155 246.47 145.429C245.621 145.96 245.208 146.705 244.803 147.425L244.668 147.658C244.517 147.933 244.367 148.202 244.224 148.463C243.311 150.128 242.454 151.7 240.557 152.259C239.184 152.667 237.343 152.335 235.526 151.394C235.557 152.013 235.589 152.644 235.637 153.282C235.803 155.7 237.486 157.743 239.827 158.366L249.525 160.95C249.874 161.042 250.12 161.358 250.12 161.718C250.112 162.078 249.874 162.392 249.525 162.484C244.882 163.708 239.922 164.159 235.145 164.159Z" fill="#24AFB5" stroke="#24AFB5" stroke-width="1.5"></path><path d="M234.561 150.442C234.419 150.442 234.276 150.405 234.149 150.327C230.054 147.831 229.554 141.414 229.538 141.142C229.506 140.705 229.831 140.326 230.268 140.294C230.712 140.269 231.085 140.593 231.117 141.029C231.125 141.088 231.585 146.904 234.974 148.971C235.347 149.2 235.466 149.688 235.244 150.062C235.093 150.308 234.831 150.442 234.561 150.442Z" fill="#24AFB5" stroke="#24AFB5" stroke-width="1.5"></path><path d="M31.8555 463.625L33.7205 481.367L45.7122 482.774V461.736L31.8555 463.625Z" fill="white" stroke="#24AFB5" stroke-width="1.5"></path><path d="M34.2233 480.77L44.6992 481.998V462.761L32.501 464.422L34.2233 480.77ZM45.4928 483.684C45.4611 483.684 45.4293 483.682 45.4055 483.678L33.4058 482.271C33.0328 482.229 32.7471 481.935 32.7074 481.567L30.8424 463.823C30.8027 463.396 31.1043 463.012 31.5249 462.954L45.3896 461.065C45.6118 461.033 45.842 461.103 46.0166 461.254C46.1912 461.404 46.2864 461.623 46.2864 461.852V482.89C46.2864 483.117 46.1912 483.332 46.0246 483.483C45.8738 483.613 45.6912 483.684 45.4928 483.684Z" fill="#24AFB5" stroke="#24AFB5" stroke-width="1.5"></path><path d="M47.451 513.72C42.4511 514.427 34.2529 515.046 24.6341 513.713C21.4755 513.276 19.3883 510.221 20.1423 507.125C22.2692 498.511 25.9198 482.172 32.1816 474.6L33.7371 478.706L35.8878 474.839C36.1894 474.31 36.7133 473.952 37.3164 473.876L42.0226 473.28C43.0067 473.154 43.9273 473.806 44.1257 474.776L44.8796 478.34L46.5225 473.662L51.9986 507.721C52.3795 510.625 50.3557 513.316 47.451 513.72Z" fill="white" stroke="#24AFB5" stroke-width="1.5"></path><path d="M32.0559 476.326C26.8259 483.603 23.5085 497.248 21.4847 505.566L21.0324 507.431C20.7149 508.701 20.953 509.995 21.6831 511.074C22.4133 512.146 23.564 512.868 24.8497 513.042C34.3018 514.352 42.3571 513.773 47.4522 513.05C49.9124 512.709 51.6505 510.415 51.3251 507.939L46.3491 476.99L45.738 478.718C45.619 479.054 45.2936 479.273 44.9364 479.247C44.5873 479.223 44.2856 478.966 44.2142 478.619L43.4603 475.054C43.3492 474.493 42.8016 474.108 42.2381 474.182L37.524 474.779C37.1748 474.823 36.8653 475.033 36.6986 475.341L34.5479 479.208C34.3971 479.478 34.1034 479.631 33.7939 479.615C33.4844 479.592 33.2225 479.392 33.1114 479.104L32.0559 476.326ZM36.2224 515.407C32.7146 515.407 28.8099 515.193 24.6354 514.614C22.9053 514.376 21.3499 513.407 20.3658 511.971C19.3975 510.527 19.0721 508.741 19.4848 507.05L19.9372 505.193C22.1038 496.298 25.7306 481.407 31.6828 474.209C31.8653 473.993 32.1432 473.886 32.4289 473.932C32.7066 473.979 32.9368 474.17 33.04 474.434L33.9923 476.944L35.3097 474.57C35.7224 473.823 36.4764 473.312 37.3256 473.204L42.0397 472.607C43.4206 472.432 44.7301 473.364 45.0158 474.728L45.1824 475.512L45.8808 473.515C46.0078 473.172 46.3412 472.96 46.7062 472.987C47.0634 473.019 47.357 473.293 47.4126 473.651L52.8966 507.709C53.341 511.066 50.9918 514.153 47.6744 514.622C44.7301 515.042 40.8175 515.407 36.2224 515.407Z" fill="#24AFB5" stroke="#24AFB5" stroke-width="1.5"></path><path d="M33.789 509.944C30.5827 509.944 27.1146 509.659 23.6544 508.873C23.2338 508.778 22.9639 508.349 23.0592 507.92C23.1544 507.492 23.5829 507.222 24.0115 507.325C35.7493 510 48.0188 506.563 48.1379 506.524C48.5664 506.405 49.0029 506.651 49.122 507.071C49.241 507.492 49.0029 507.928 48.5743 508.047C48.2092 508.159 41.8284 509.944 33.789 509.944Z" fill="#24AFB5" stroke="#24AFB5" stroke-width="1.5"></path><path d="M30.6151 496.246C30.1944 496.246 29.8373 495.907 29.8214 495.478C29.8135 495.039 30.1548 494.673 30.5913 494.659L41.8369 494.287C42.2893 494.272 42.6385 494.616 42.6544 495.055C42.6703 495.493 42.329 495.859 41.8925 495.873L30.6468 496.246H30.6151Z" fill="#24AFB5" stroke="#24AFB5" stroke-width="1.5"></path><path d="M87.8037 454.276L89.6053 480.169H104.041L104.716 454.276H87.8037Z" fill="white" stroke="#24AFB5" stroke-width="1.5"></path><path d="M90.4519 479.491H103.372L104.007 455.185H88.7694L90.4519 479.491ZM104.15 481.078H89.7139C89.2933 481.078 88.952 480.756 88.9203 480.34L87.1267 454.447C87.1108 454.227 87.1822 454.012 87.333 453.851C87.4838 453.69 87.6981 453.598 87.9124 453.598H104.825C105.031 453.598 105.237 453.685 105.388 453.839C105.539 453.992 105.618 454.199 105.61 454.412L104.944 480.306C104.928 480.736 104.579 481.078 104.15 481.078Z" fill="#24AFB5" stroke="#24AFB5" stroke-width="1.5"></path><path d="M86.1076 494.736C86.0679 497.186 87.7425 499.336 90.1313 499.892C98.4247 501.82 117.123 506.122 122.456 506.915C129.376 507.947 137.884 505.828 141.543 501.781C145.201 497.732 133.352 488.065 127.725 484.548C119.376 479.323 111.353 468.998 107.988 468.533C104.623 468.069 98.3453 477.829 98.3453 477.829L88.0758 473.517C88.0758 473.517 86.2902 482.314 86.1076 494.736Z" fill="white" stroke="#24AFB5" stroke-width="1.5"></path><path d="M85.8848 494.85H85.8927H85.8848ZM88.4562 474.743C88.0038 477.338 86.8213 484.982 86.6784 494.861C86.6467 496.928 88.0831 498.765 90.083 499.232C98.0114 501.076 117.011 505.449 122.352 506.243C129.257 507.274 137.328 505.132 140.733 501.362C141.129 500.917 141.28 500.354 141.185 499.658C140.637 495.722 132.645 488.811 127.082 485.334C122.852 482.686 118.812 478.852 115.249 475.469C112.083 472.467 109.09 469.63 107.662 469.432C105.686 469.152 101.281 474.495 98.7891 478.371C98.5828 478.695 98.1701 478.822 97.813 478.673L88.4562 474.743ZM125.852 508.084C124.59 508.084 123.336 507.997 122.114 507.814C116.725 507.012 97.6702 502.624 89.726 500.782C86.9959 500.143 85.0436 497.645 85.0912 494.838C85.2737 482.484 87.0594 473.56 87.0753 473.472C87.1229 473.239 87.2736 473.039 87.4879 472.928C87.6942 472.818 87.9482 472.806 88.1625 472.897L97.8209 476.954C99.4796 474.461 104.503 467.401 107.876 467.86C109.813 468.127 112.551 470.724 116.336 474.318C119.852 477.65 123.828 481.425 127.931 483.988C132.455 486.822 142.042 494.327 142.756 499.439C142.915 500.616 142.637 501.624 141.907 502.425C138.796 505.862 132.225 508.084 125.852 508.084Z" fill="#24AFB5" stroke="#24AFB5" stroke-width="1.5"></path><path d="M125.672 503.072C110.633 503.072 90.4593 494.924 89.3164 494.459C88.9117 494.293 88.7132 493.829 88.8799 493.424C89.0466 493.018 89.5148 492.824 89.9195 492.99C90.2846 493.14 126.776 507.889 137.482 498.217C137.807 497.924 138.315 497.949 138.609 498.274C138.902 498.6 138.87 499.101 138.545 499.395C135.577 502.08 130.942 503.072 125.672 503.072Z" fill="#24AFB5" stroke="#24AFB5" stroke-width="1.5"></path><path d="M109.957 487.578C109.743 487.578 109.521 487.49 109.37 487.316C109.076 486.991 109.1 486.489 109.425 486.195L116.767 479.572C117.092 479.279 117.592 479.304 117.885 479.63C118.179 479.956 118.155 480.457 117.83 480.752L110.489 487.374C110.338 487.511 110.148 487.578 109.957 487.578Z" fill="#24AFB5" stroke="#24AFB5" stroke-width="1.5"></path><path d="M27.5791 285.315C27.5791 285.315 23.1031 366.258 20.7618 394.201C18.4286 422.143 26.2379 467.059 26.2379 467.059L48.523 465.888C48.523 465.888 50.0468 411.276 51.7054 396.111C51.7054 396.111 61.1179 375.552 63.9035 357.216C66.6971 338.879 76.1968 309.917 76.1968 309.917C76.1968 309.917 83.9189 454.474 84.657 465.832C84.657 465.832 102.133 466.61 108.402 462.669C108.402 462.669 119.497 409.958 117.902 381.28C116.315 352.601 118.061 281.348 118.061 281.348L27.5791 285.315Z" fill="#24AFB5" stroke="#24AFB5" stroke-width="1.5"></path><path d="M47.5966 396.864H40.7873C40.3428 396.864 39.9937 396.508 39.9937 396.07C39.9937 395.632 40.3428 395.277 40.7873 395.277H47.5966C48.0331 395.277 48.3903 395.632 48.3903 396.07C48.3903 396.508 48.0331 396.864 47.5966 396.864Z" fill="white" stroke="#24AFB5" stroke-width="1.5"></path><path d="M96.3962 438.919H96.3804C95.936 438.911 95.5867 438.549 95.6026 438.112C95.8407 424.722 110.523 400.738 111.15 399.724C111.38 399.35 111.872 399.235 112.245 399.464C112.618 399.693 112.729 400.183 112.499 400.556C112.348 400.801 97.42 425.184 97.1898 438.141C97.174 438.575 96.8248 438.919 96.3962 438.919Z" fill="white" stroke="#24AFB5" stroke-width="1.5"></path><path d="M127.329 158.286C128.4 157.063 137.463 166.497 154.844 148.63C160.867 142.438 170.121 92.4771 170.121 92.4771C170.121 92.4771 166.169 76.076 167.193 67.762C168.208 59.4471 168.462 58.2368 168.462 58.2368C168.462 58.2368 171.835 58.7646 172.605 62.4923C173.375 66.2215 173.51 74.4681 173.51 74.4681C173.51 74.4681 180.359 72.5745 183.311 79.637C186.716 87.7598 179.732 93.6374 179.732 93.6374C179.732 93.6374 183.311 143.364 178.081 166.511C175.304 174.844 161.901 191.782 126.797 196.247L127.329 158.286Z" fill="white" stroke="#24AFB5" stroke-width="1.5"></path><path d="M127.883 159.199L127.383 195.483C150.224 193.076 169.112 180.4 175.897 169.582C183.826 155.476 178.921 94.4741 178.762 94.0209C178.643 93.709 178.739 93.3598 178.993 93.1455C179.262 92.9201 185.485 87.5314 182.358 80.0586C179.723 73.7469 173.755 75.281 173.501 75.3484C173.263 75.4127 173.009 75.3643 172.81 75.2175C172.62 75.0698 172.501 74.8413 172.493 74.5961C172.493 74.5143 172.35 66.3804 171.604 62.7686C171.167 60.6583 169.763 59.7472 168.874 59.375C168.715 60.4758 168.382 62.8869 167.755 67.974C166.763 76.0484 170.628 92.244 170.667 92.4059C170.683 92.4527 170.691 92.5003 170.691 92.5487C170.779 94.1257 159.101 146.266 155.184 149.298C140.119 160.956 131.93 160.632 128.51 159.415C128.312 159.344 128.081 159.263 127.883 159.199ZM126.573 197.156C126.375 197.156 126.185 197.082 126.042 196.946C125.875 196.794 125.78 196.577 125.78 196.351L126.312 158.391C126.312 158.202 126.383 158.02 126.51 157.878C127.081 157.223 127.907 157.515 129.042 157.92C132.502 159.148 140.119 158.391 154.049 148.191C157.215 145.872 169.191 94.5463 169.112 92.7051C168.787 91.3527 165.176 75.9436 166.176 67.7796C167.191 59.5282 167.453 58.241 167.461 58.1902C167.549 57.7767 167.945 57.5037 168.358 57.568C168.525 57.5934 172.287 58.229 173.159 62.4472C173.786 65.4995 174.001 71.3691 174.064 73.6461C176.215 73.3945 181.334 73.4874 183.826 79.4467C186.905 86.8116 181.921 92.4956 180.421 93.9796C180.421 98.9203 184.212 159.415 177.239 170.431C170.265 181.446 150.47 194.828 126.653 197.152C126.629 197.155 126.605 197.156 126.573 197.156Z" fill="#24AFB5" stroke="#24AFB5" stroke-width="1.5"></path><path d="M1.67773 193.695C1.67773 193.695 9.15368 145.431 35.5736 133.556C61.9855 121.681 97.7306 123.333 107.58 129.263C117.436 135.193 141.063 155.209 141.063 155.209L120.428 193.695C120.428 193.695 125.619 279.001 121.516 301.521C121.516 301.521 96.2624 304.466 85.5484 300.248C74.8424 296.03 39.629 290.121 22.7962 297.855L25.8516 189.851L1.67773 193.695Z" fill="white" stroke="#24AFB5" stroke-width="1.5"></path><path d="M45.7945 292.772C61.7782 292.772 79.0396 296.265 85.9601 298.991C95.4677 302.737 117.11 300.682 120.951 300.278C124.8 277.251 119.808 194.069 119.753 193.224C119.745 193.077 119.777 192.931 119.848 192.801L140.181 154.882C136.736 151.987 116.197 134.783 107.293 129.424C98.0391 123.854 62.413 121.895 36.017 133.761C12.47 144.344 4.07337 185.045 2.76388 192.218L25.8427 188.549C26.0808 188.512 26.3188 188.581 26.4934 188.737C26.668 188.893 26.7711 189.119 26.7632 189.356L23.7395 296.114C29.7076 293.693 37.5805 292.772 45.7945 292.772ZM103.817 302.808C97.0947 302.808 89.9837 302.28 85.3806 300.468C74.8492 296.321 40.0327 290.341 23.2395 298.057C22.9935 298.171 22.6999 298.149 22.4697 297.998C22.2475 297.846 22.1126 297.588 22.1205 297.313L25.1522 190.267L1.91474 193.96C1.66872 193.999 1.41477 193.917 1.23223 193.738C1.0497 193.56 0.970312 193.305 1.00999 193.054C1.31951 191.066 8.85901 144.228 35.3662 132.314C61.429 120.596 97.4676 121.657 108.11 128.064C117.911 133.96 140.728 153.265 141.697 154.084C141.982 154.326 142.054 154.735 141.879 155.065L121.348 193.353C121.642 198.248 126.38 279.356 122.411 301.145C122.348 301.488 122.07 301.75 121.721 301.791C121.126 301.86 112.824 302.807 103.817 302.808Z" fill="#24AFB5" stroke="#24AFB5" stroke-width="1.5"></path><path d="M46.2097 275.8C45.8366 275.8 45.5033 275.53 45.4319 275.144C45.3525 274.713 45.6462 274.301 46.0748 274.225C86.2086 267.133 97.8591 239.4 97.9702 239.121C98.1369 238.714 98.5971 238.518 99.0098 238.683C99.4146 238.847 99.6051 239.31 99.4464 239.716C99.3273 240.003 87.3356 268.544 46.3525 275.788C46.3049 275.797 46.2573 275.8 46.2097 275.8Z" fill="#24AFB5" stroke="#24AFB5" stroke-width="1.5"></path><path d="M118.531 226.877H67.1196L83.2223 169.453H134.634L118.531 226.877Z" fill="#24AFB5" stroke="#24AFB5" stroke-width="1.5"></path><path d="M6.38803 193.29L32.4032 181.66C32.4032 181.66 28.7366 225.743 81.3781 205.386C81.3781 205.386 79.4337 199.722 79.7115 193.105C79.9813 186.487 83.9415 192.89 84.4971 198.268C85.0526 203.646 97.4094 201.463 104.838 199.344C112.266 197.224 122.012 198.612 104.838 208.086C87.6637 217.559 83.9018 213.333 83.9018 213.333C83.9018 213.333 47.529 237.505 34.673 237.505C1.11041 229.485 6.38803 193.29 6.38803 193.29Z" fill="white" stroke="#24AFB5" stroke-width="1.5"></path><path d="M6.86646 193.947C6.66012 195.843 6.00936 203.773 8.46961 212.338C12.2076 225.351 21.0009 233.598 34.6037 236.848C40.1224 236.848 82.785 213.29 82.9993 212.988C83.1422 212.791 83.3643 212.669 83.6024 212.657C83.8484 212.647 84.0786 212.741 84.2373 212.921C84.2611 212.936 88.1102 216.384 104.205 207.507C113.99 202.106 113.364 200.242 113.332 200.165C112.975 199.309 109.237 198.955 104.8 200.222C101.308 201.22 89.5626 204.242 85.1579 201.261C84.15 200.578 83.5786 199.636 83.4596 198.465C83.0866 194.871 81.3406 191.693 80.6025 191.239C80.5073 191.422 80.3088 191.942 80.2533 193.252C79.9834 199.632 81.8564 205.189 81.8723 205.245C82.0152 205.647 81.8089 206.088 81.412 206.242C63.3808 213.214 42.9869 208.773 41.2227 207.009C39.4584 205.245 32.6117 186.881 31.3023 183.025L6.86646 193.947ZM36.4188 238.392C33.8713 238.392 36.4188 238.913 34.2387 238.392C0.358702 230.297 5.29505 193.659 5.3506 193.291C5.39029 193.021 5.56495 192.792 5.81097 192.681L31.826 181.05C32.08 180.937 32.3816 180.966 32.6117 181.127C32.8419 181.29 32.9689 181.561 32.9451 181.841C32.9292 182 40.1224 203.684 42.1829 205.744C43.448 207.009 63.0156 211.529 80.1422 205.027C79.6263 203.265 78.4438 198.562 78.666 193.186C78.7057 192.314 78.8089 189.658 80.4914 189.607C80.4993 189.606 80.5152 189.606 80.531 189.606C82.6262 189.606 84.6738 194.778 85.0389 198.302C85.1103 198.995 85.4357 199.532 86.0468 199.946C89.1023 202.012 97.8242 200.563 104.364 198.696C107.848 197.701 113.768 197.057 114.8 199.56C115.363 200.929 114.959 203.387 104.967 208.896C91.1339 216.527 85.6658 215.489 83.8246 214.535C80.4914 217.436 38.9664 238.392 36.4188 238.392Z" fill="#24AFB5" stroke="#24AFB5" stroke-width="1.5"></path><path d="M75.6046 111.213C73.3586 113.271 68.962 115.784 65.5255 114.052C62.9621 112.762 61.5336 109.423 61.6288 105.596C60.4384 105.693 58.8829 105.609 57.7797 104.629C56.0655 103.121 56.3908 100.344 56.4543 98.5192C56.7638 90.098 51.8752 88.806 53.0656 83.0911C54.01 78.5991 57.5337 75.923 58.2004 75.4222C61.5257 72.8961 63.7875 73.712 69.3826 72.2445C78.8029 69.7764 79.1045 65.7146 85.3186 65.6963C85.6757 65.6947 94.12 65.7884 96.9929 71.6255C99.3262 76.373 96.5961 82.1427 93.7787 85.1743C90.136 89.0996 87.517 87.16 83.8583 90.452C77.43 96.232 82.279 105.101 75.6046 111.213Z" fill="#24AFB5" stroke="#24AFB5" stroke-width="1.5"></path><path d="M94.4658 96.1155L94.0928 95.7949C92.2278 94.1886 90.2834 92.322 89.7913 89.9109C87.6882 79.6604 78.2996 75.9383 77.8631 85.3507C77.752 87.7269 69.0776 87.6031 70.1093 90.0966C72.7918 96.5972 72.8553 94.8481 69.0618 97.2432C68.6332 97.2615 68.2126 97.3544 67.8078 97.5424C65.8634 98.448 65.181 101.084 66.2762 103.433C66.9349 104.857 68.1094 105.838 69.3554 106.195V116.464C69.3554 120.314 67.0301 123.781 63.4667 125.238L59.9985 126.655C59.9985 126.655 76.1648 137.21 92.577 125.622L90.3866 124.639C86.5295 122.909 83.9979 119.13 83.863 114.904L83.8471 112.896C84.9502 112.994 86.0216 112.92 87.0057 112.632C91.6008 111.297 93.1246 106.007 92.3389 99.4321L94.2118 98.4281C95.0848 97.9599 95.2118 96.7615 94.4658 96.1155Z" fill="white" stroke="#24AFB5" stroke-width="1.5"></path><path d="M61.9425 126.882C66.0138 128.965 78.4183 133.987 91.0687 125.876L90.1799 125.479C86.0768 123.637 83.3309 119.541 83.188 115.043L83.1721 113.018C83.1721 112.794 83.2594 112.58 83.4261 112.428C83.5927 112.277 83.815 112.201 84.0372 112.22C85.0848 112.314 86.045 112.234 86.9022 111.985C90.7354 110.871 92.4735 106.372 91.6719 99.6404C91.6322 99.3166 91.7989 99.0023 92.0846 98.8475L93.9496 97.8436C94.1321 97.746 94.2512 97.5722 94.275 97.3666C94.2988 97.1611 94.2195 96.9659 94.0607 96.8309L93.6957 96.5103C91.7751 94.858 89.6879 92.8699 89.1323 90.1851C87.9339 84.3408 84.2276 80.6369 81.5293 80.8536C79.9103 80.9806 78.9024 82.675 78.7754 85.5019C78.696 87.2121 76.3866 87.859 74.1565 88.4851C72.9661 88.8177 71.1724 89.32 70.9423 89.797C70.9423 89.8065 70.9264 89.8272 70.9661 89.9089C71.347 90.8454 71.6804 91.6104 71.9581 92.2406C73.2279 95.173 73.5295 95.8699 71.22 97.1031C70.7915 97.3325 70.2598 97.6182 69.609 98.0293C69.49 98.1031 69.355 98.1452 69.22 98.1507C68.8709 98.1658 68.5534 98.242 68.2598 98.3769C66.7201 99.0952 66.2043 101.265 67.1091 103.212C67.6487 104.366 68.617 105.239 69.6884 105.546C70.0296 105.643 70.2677 105.954 70.2677 106.309V116.579C70.2677 120.769 67.7598 124.502 63.8869 126.087L61.9425 126.882ZM76.1088 131.926C66.7281 131.926 59.7839 127.505 59.6807 127.435C59.4347 127.274 59.2997 126.988 59.3235 126.695C59.3552 126.402 59.5378 126.147 59.8155 126.036L63.2837 124.617C66.5614 123.277 68.6804 120.122 68.6804 116.579V106.87C67.3948 106.331 66.3154 105.269 65.6725 103.883C64.3948 101.142 65.2599 98.0269 67.5932 96.9381C68.0059 96.7436 68.4582 96.6238 68.9344 96.5802C69.5534 96.196 70.0614 95.9246 70.474 95.7032C70.855 95.4992 71.2915 95.2683 71.3629 95.1587C71.3947 94.9405 70.982 93.9818 70.4979 92.8723C70.2201 92.2358 69.8868 91.462 69.4979 90.5144C69.2916 90.0295 69.2994 89.5415 69.5137 89.1026C70.0613 87.9844 71.7597 87.5082 73.7279 86.9566C74.9263 86.6201 77.1643 85.9939 77.1881 85.4297C77.4342 80.1504 80.2198 79.3648 81.4024 79.2711C84.7673 79.0132 89.2751 82.9829 90.6878 89.8661C91.1402 92.062 93.0131 93.8271 94.7273 95.3088L95.1004 95.6294C95.648 96.104 95.9337 96.8174 95.8543 97.5396C95.775 98.2618 95.3465 98.8983 94.7036 99.242L93.3068 99.9927C94.0449 107.276 91.8862 112.188 87.3466 113.509C86.5451 113.741 85.688 113.854 84.7673 113.845L84.7753 115.011C84.9023 118.888 87.2752 122.435 90.8307 124.03L93.0211 125.013C93.283 125.129 93.4576 125.376 93.4893 125.659C93.5131 125.944 93.3861 126.221 93.156 126.385C87.2196 130.573 81.2912 131.926 76.1088 131.926Z" fill="#24AFB5" stroke="#24AFB5" stroke-width="1.5"></path><path d="M83.926 113.921C83.8863 113.921 83.8466 113.918 83.8069 113.912C77.1325 112.889 74.1326 107.791 74.0056 107.575C73.7914 107.195 73.9183 106.71 74.2993 106.491C74.6802 106.272 75.1643 106.403 75.3865 106.782C75.4104 106.833 78.1563 111.44 84.045 112.343C84.4815 112.41 84.7751 112.814 84.7116 113.248C84.6482 113.64 84.3148 113.921 83.926 113.921Z" fill="#24AFB5" stroke="#24AFB5" stroke-width="1.5"></path><path d="M619.473 457.667L623.401 485.252L633.448 485.29L633.925 458.16L619.473 457.667Z" fill="white" stroke="#24AFB5" stroke-width="1.5"></path><path d="M624.206 484.578L632.793 484.61L633.238 459.043L620.508 458.608L624.206 484.578ZM633.571 486.201L623.516 486.162C623.127 486.162 622.793 485.87 622.738 485.482L618.801 457.895C618.77 457.662 618.841 457.428 619 457.253C619.158 457.078 619.373 456.975 619.619 456.99L634.079 457.483C634.507 457.497 634.849 457.857 634.841 458.29L634.364 485.421C634.357 485.854 634.007 486.201 633.571 486.201Z" fill="#24AFB5" stroke="#24AFB5" stroke-width="1.5"></path><path d="M623.322 511.709C627.266 512.137 633.139 512.296 640.988 511.613C643.797 511.367 645.773 508.764 645.321 505.979C644.107 498.493 640.702 485.286 635.345 479.227L632.695 483.001L631.123 479.102C630.869 478.68 624.203 478.401 624.068 479.193L623.663 483.001L619.878 478.763L620.084 492.681C620.108 494.219 619.965 495.753 619.655 497.259L618.655 502.074C618.06 504.963 618.798 508.034 620.822 510.193C621.616 511.034 622.496 511.621 623.322 511.709Z" fill="white" stroke="#24AFB5" stroke-width="1.5"></path><path d="M620.481 480.3L620.656 492.09C620.68 493.681 620.529 495.28 620.203 496.839L619.211 501.652C618.648 504.382 619.386 507.152 621.179 509.065C621.894 509.827 622.6 510.279 623.179 510.343C626.544 510.7 632.314 510.978 640.703 510.239C641.822 510.144 642.822 509.597 643.512 508.7C644.211 507.811 644.504 506.652 644.322 505.525C643.234 498.856 640.123 486.281 635.171 479.953L633.124 482.877C632.957 483.116 632.671 483.243 632.378 483.21C632.092 483.177 631.846 482.989 631.735 482.718L630.29 479.124C629.219 478.889 625.64 478.81 624.592 479.064L624.227 482.506C624.195 482.817 623.981 483.081 623.679 483.177C623.378 483.273 623.053 483.184 622.846 482.95L620.481 480.3ZM630.735 512.287C627.425 512.287 624.87 512.12 623.013 511.922C622.045 511.819 621.005 511.208 620.021 510.152C617.878 507.866 616.989 504.565 617.656 501.327L618.656 496.518C618.949 495.072 619.092 493.589 619.069 492.113L618.862 478.195C618.854 477.863 619.06 477.563 619.37 477.444C619.68 477.324 620.029 477.408 620.251 477.655L622.838 480.557L623.053 478.529C623.195 477.713 624.1 477.547 624.433 477.483C625.227 477.338 630.941 477.044 631.576 478.112C631.6 478.148 631.616 478.185 631.632 478.224L632.663 480.77L634.473 478.191C634.608 477.992 634.83 477.868 635.076 477.854C635.322 477.837 635.552 477.939 635.711 478.121C642.568 485.864 645.568 503.311 645.885 505.271C646.139 506.827 645.734 508.438 644.766 509.676C643.798 510.922 642.401 511.684 640.838 511.819C636.917 512.168 633.552 512.287 630.735 512.287Z" fill="#24AFB5" stroke="#24AFB5" stroke-width="1.5"></path><path d="M630.405 507.603C626.04 507.603 623.342 507.071 623.159 507.039C622.73 506.952 622.453 506.531 622.54 506.103C622.627 505.674 623.048 505.396 623.476 505.484C623.548 505.499 630.484 506.856 640.19 505.15C640.619 505.071 641.031 505.364 641.111 505.793C641.182 506.222 640.896 506.634 640.468 506.714C636.587 507.396 633.167 507.603 630.405 507.603Z" fill="#24AFB5" stroke="#24AFB5" stroke-width="1.5"></path><path d="M636.166 497.23H627.047C626.603 497.23 626.253 496.874 626.253 496.437C626.253 495.998 626.603 495.643 627.047 495.643H636.166C636.602 495.643 636.959 495.998 636.959 496.437C636.959 496.874 636.602 497.23 636.166 497.23Z" fill="#24AFB5" stroke="#24AFB5" stroke-width="1.5"></path><path d="M547.35 459.705L543.818 491.857L530.295 494.688L531.112 456.989L547.35 459.705Z" fill="white" stroke="#24AFB5" stroke-width="1.5"></path><path d="M532.006 458.038L531.221 493.822L543.204 491.313L546.601 460.479L532.006 458.038ZM530.411 495.596C530.221 495.596 530.046 495.533 529.903 495.414C529.713 495.259 529.61 495.028 529.618 494.786L530.435 457.087C530.443 456.856 530.546 456.639 530.729 456.493C530.903 456.346 531.133 456.284 531.364 456.321L547.601 459.038C548.014 459.107 548.308 459.489 548.26 459.908L544.72 492.058C544.681 492.4 544.435 492.678 544.093 492.748L530.57 495.58C530.514 495.592 530.459 495.596 530.411 495.596Z" fill="#24AFB5" stroke="#24AFB5" stroke-width="1.5"></path><path d="M549.67 507.385C549.972 501.751 549.98 491.371 546.544 486.372L535.726 490.224V487.913C535.726 487.169 535.195 486.554 534.52 486.515L528.488 486.17C526.235 486.041 523.989 486.507 521.933 487.518C515.87 490.5 497.41 498.149 494.854 506.75C494.101 509.282 496.085 511.822 498.727 511.901C504.807 512.076 519.409 512.266 545.615 511.369C547.797 511.29 549.559 509.56 549.67 507.385Z" fill="white" stroke="#24AFB5" stroke-width="1.5"></path><path d="M549.784 507.501H549.792H549.784ZM527.872 487.057C525.999 487.057 524.118 487.498 522.396 488.345C521.665 488.705 520.761 489.131 519.721 489.619C512.626 492.943 497.88 499.862 495.73 507.088C495.452 508.017 495.626 509.009 496.214 509.818C496.825 510.667 497.817 511.191 498.864 511.223C505.221 511.406 519.769 511.58 545.697 510.691C547.482 510.628 548.903 509.239 548.998 507.453C549.276 502.041 549.292 492.416 546.331 487.447L536.11 491.087C535.864 491.174 535.594 491.136 535.387 490.989C535.173 490.839 535.046 490.597 535.046 490.339V488.028C535.046 487.709 534.84 487.438 534.586 487.424L528.554 487.078C528.324 487.064 528.102 487.057 527.872 487.057ZM510.952 512.953C505.396 512.953 501.42 512.882 498.817 512.81C497.285 512.763 495.825 511.993 494.928 510.747C494.055 509.541 493.793 508.041 494.206 506.636C496.563 498.727 511.19 491.867 519.046 488.181C520.07 487.698 520.975 487.277 521.697 486.921C523.872 485.851 526.276 485.357 528.641 485.493L534.681 485.839C535.776 485.902 536.633 486.864 536.633 488.028V489.214L546.395 485.74C546.736 485.617 547.109 485.741 547.316 486.038C550.871 491.217 550.887 501.731 550.577 507.541C550.442 510.152 548.363 512.191 545.752 512.279C530.38 512.802 518.999 512.953 510.952 512.953Z" fill="#24AFB5" stroke="#24AFB5" stroke-width="1.5"></path><path d="M515.089 507.694C507.042 507.694 501.971 507.321 501.868 507.313C501.431 507.281 501.106 506.9 501.137 506.464C501.169 506.027 501.55 505.702 501.994 505.734C502.177 505.75 521.232 507.138 544.279 504.464C544.716 504.416 545.104 504.726 545.16 505.162C545.208 505.599 544.898 505.996 544.462 506.043C533.136 507.361 522.764 507.694 515.089 507.694Z" fill="#24AFB5" stroke="#24AFB5" stroke-width="1.5"></path><path d="M518.205 498.618C517.959 498.618 517.713 498.504 517.562 498.289C517.301 497.932 517.388 497.436 517.737 497.181L528.157 489.689C528.515 489.434 529.007 489.514 529.261 489.871C529.522 490.226 529.435 490.722 529.086 490.978L518.666 498.469C518.531 498.57 518.364 498.618 518.205 498.618Z" fill="#24AFB5" stroke="#24AFB5" stroke-width="1.5"></path><path d="M543.077 251.469C543.077 251.469 523.688 384.456 527.823 473.218L533.871 473.823C537.116 474.148 540.394 474.228 543.656 474.064L549.394 473.776C549.394 473.776 572.512 338.943 584.052 316.551C584.052 316.551 615.448 436.458 616.654 468.942C616.654 468.942 630.614 470.344 636.169 468.343C639.161 436.993 640.018 404.542 640.169 384.171C640.598 325.865 635.026 299.381 631.971 286.817C629.169 275.28 626.162 265.905 623.963 259.563L616.622 238.625L543.077 251.469Z" fill="white" stroke="#24AFB5" stroke-width="1.5"></path><path d="M528.693 472.612L534.058 473.149C537.257 473.468 540.511 473.549 543.725 473.388L548.828 473.131C550.748 461.947 572.272 338.003 583.454 316.303C583.605 316.011 583.922 315.843 584.247 315.878C584.573 315.914 584.843 316.148 584.93 316.466C585.239 317.657 615.921 435.146 617.524 468.33C620.286 468.567 630.667 469.331 635.54 467.866C638.682 434.605 639.365 401.253 639.484 384.281C639.889 329.006 635.016 302.357 631.31 287.121C629.079 277.957 626.397 268.812 623.318 259.939L616.199 239.638L543.884 252.269C542.526 261.838 524.876 387.885 528.693 472.612ZM540.495 475.056C538.288 475.056 536.082 474.946 533.9 474.728L527.852 474.123C527.455 474.084 527.154 473.764 527.138 473.37C523.051 385.55 542.201 252.802 542.399 251.471C542.447 251.132 542.709 250.863 543.05 250.804L616.588 237.959C616.977 237.89 617.35 238.112 617.477 238.478L624.818 259.416C627.913 268.339 630.611 277.534 632.857 286.745C636.579 302.064 641.484 328.843 641.071 384.293C640.952 401.378 640.262 435.041 637.071 468.534C637.04 468.84 636.841 469.102 636.548 469.206C630.881 471.244 617.262 469.905 616.683 469.847C616.294 469.808 615.985 469.483 615.969 469.086C614.866 439.437 588.152 335.25 583.946 318.997C572.319 345.998 550.51 472.715 550.28 474.026C550.217 474.392 549.915 474.666 549.542 474.685L543.804 474.973C542.701 475.029 541.598 475.056 540.495 475.056Z" fill="#24AFB5" stroke="#24AFB5" stroke-width="1.5"></path><path d="M585.338 321.19C584.997 321.19 584.671 320.959 584.576 320.607L581.354 308.868C580.56 305.984 578.243 303.815 575.314 303.21L572.299 302.586C571.87 302.497 571.592 302.077 571.68 301.648C571.767 301.219 572.187 300.941 572.624 301.031L575.64 301.655C579.156 302.382 581.933 304.984 582.886 308.448L586.108 320.186C586.219 320.609 585.973 321.045 585.552 321.162C585.481 321.181 585.409 321.19 585.338 321.19Z" fill="#24AFB5" stroke="#24AFB5" stroke-width="1.5"></path><path d="M627.969 298.992C627.921 298.992 627.881 298.989 627.834 298.982C609.953 296.001 606.311 281.793 606.271 281.65C606.168 281.224 606.43 280.796 606.858 280.693C607.279 280.589 607.707 280.849 607.819 281.274C607.946 281.818 611.279 294.613 628.096 297.416C628.524 297.488 628.818 297.897 628.747 298.329C628.683 298.717 628.35 298.992 627.969 298.992Z" fill="#24AFB5" stroke="#24AFB5" stroke-width="1.5"></path><path d="M542.281 290.639C541.971 290.639 541.677 290.46 541.551 290.161C541.376 289.76 541.558 289.292 541.963 289.118C551.439 285 551.217 276.157 551.217 276.068C551.201 275.63 551.542 275.262 551.979 275.245C552.415 275.232 552.78 275.57 552.804 276.008C552.804 276.107 553.058 286.03 542.598 290.573C542.495 290.618 542.384 290.639 542.281 290.639Z" fill="#24AFB5" stroke="#24AFB5" stroke-width="1.5"></path><path d="M544.941 140.467C557.758 139.021 585.13 136.428 603.955 138.15C609.645 138.67 617.843 142.141 622.168 145.87C634.898 156.857 658.914 181.052 662.929 210.086C663.517 214.323 660.739 218.298 656.556 219.224L634.367 224.142C634.367 224.142 643.216 259.008 642.501 265.029C641.795 271.051 623.462 281.296 600.534 272.892C582.654 266.338 557.353 261.127 541.29 266.781C541.131 266.834 539.599 279.179 539.441 279.202C534.282 279.952 529.084 277.944 529.203 270.695L531.655 233.045L502.243 229.161L499.616 228.285C491.664 225.638 487.561 216.871 490.625 209.074C497.537 191.488 507.957 163.019 527.266 147.295C531.393 143.931 539.647 141.064 544.941 140.467Z" fill="#24AFB5" stroke="#24AFB5" stroke-width="1.5"></path><path d="M558.179 256.493H512.22C510.228 256.493 508.49 255.132 508.006 253.195L492.109 189.083C491.427 186.344 493.498 183.694 496.324 183.694H542.283C544.275 183.694 546.013 185.055 546.497 186.992L562.393 251.104C563.076 253.843 561.004 256.493 558.179 256.493Z" fill="white" stroke="#24AFB5" stroke-width="1.5"></path><path d="M496.443 184.604C495.34 184.604 494.324 185.1 493.649 185.966C492.967 186.832 492.729 187.941 492.998 189.007L508.895 253.12C509.292 254.706 510.704 255.815 512.339 255.815H558.298C559.401 255.815 560.417 255.318 561.092 254.452C561.774 253.587 562.012 252.478 561.742 251.411L545.846 187.299C545.449 185.712 544.037 184.604 542.402 184.604H496.443ZM558.298 257.402H512.339C509.974 257.402 507.927 255.798 507.355 253.502L491.459 189.39C491.07 187.846 491.411 186.242 492.395 184.988C493.379 183.735 494.848 183.016 496.443 183.016H542.402C544.767 183.016 546.814 184.62 547.386 186.917L563.282 251.029C563.671 252.573 563.322 254.177 562.346 255.43C561.362 256.683 559.893 257.402 558.298 257.402Z" fill="#24AFB5" stroke="#24AFB5" stroke-width="1.5"></path><path d="M499.429 216.211L500.977 222.68L506.532 220.829C509.596 219.81 512.532 218.45 515.294 216.778L518.476 214.845C520.857 213.401 523.952 214.528 524.873 217.155C526.841 222.733 526.452 232.077 506.437 237.947C495.398 241.187 492.231 227.038 493.66 219.176C494.025 217.166 495.017 215.883 496.025 215.071C497.239 214.1 499.048 214.706 499.429 216.211Z" fill="white" stroke="#24AFB5" stroke-width="1.5"></path><path d="M497.482 215.508C497.181 215.508 496.895 215.609 496.649 215.805C495.546 216.69 494.847 217.91 494.57 219.433C493.585 224.828 494.847 232.459 498.665 235.891C500.696 237.724 503.284 238.196 506.339 237.3C515.593 234.586 521.482 230.88 523.831 226.283C525.212 223.598 525.347 220.653 524.251 217.534C523.886 216.499 523.085 215.696 522.061 215.33C521.045 214.967 519.934 215.08 519.013 215.638L515.831 217.571C513.021 219.272 510.022 220.66 506.911 221.697L501.355 223.548C501.141 223.617 500.911 223.597 500.712 223.488C500.522 223.38 500.379 223.195 500.331 222.979L498.784 216.516C498.673 216.068 498.355 215.726 497.911 215.58C497.768 215.532 497.625 215.508 497.482 215.508ZM503.506 239.323C501.268 239.323 499.26 238.566 497.601 237.071C493.22 233.125 491.959 224.892 493.006 219.149C493.355 217.239 494.244 215.698 495.657 214.567C496.435 213.942 497.466 213.758 498.419 214.074C499.363 214.392 500.077 215.16 500.323 216.129C500.331 216.133 500.331 216.137 500.331 216.141L501.673 221.768L506.403 220.191C509.41 219.191 512.299 217.853 515.006 216.214L518.196 214.281C519.529 213.473 521.132 213.311 522.601 213.834C524.077 214.364 525.228 215.519 525.743 217.006C526.981 220.503 526.807 223.962 525.243 227.007C522.688 232.006 516.474 235.981 506.791 238.823C505.649 239.158 504.553 239.323 503.506 239.323Z" fill="#24AFB5" stroke="#24AFB5" stroke-width="1.5"></path><path d="M605.692 179.337C607.993 181.691 610.612 183.709 613.469 185.337C623.12 190.832 646.167 204.131 651.897 209.031C659.206 215.272 662.698 217.599 656.825 233.654C647.254 259.826 602.636 192.642 602.636 192.642C602.636 192.642 589.534 195.013 586.589 183.528C586.589 183.528 579.756 184.81 576.907 183.576C574.724 182.63 574.82 178.925 577.732 178.518L596.589 175.003C599.184 174.539 601.843 175.39 603.684 177.277L605.692 179.337Z" fill="white" stroke="#24AFB5" stroke-width="1.5"></path><path d="M602.749 191.965C603.011 191.965 603.265 192.096 603.408 192.319C603.733 192.803 635.764 240.745 650.589 238.984C653.12 238.685 654.954 236.89 656.192 233.498C661.7 218.442 658.898 216.059 652.144 210.301L651.493 209.751C645.819 204.899 622.812 191.625 613.185 186.143C610.265 184.478 607.59 182.413 605.241 180.007L603.225 177.948C601.566 176.247 599.178 175.483 596.836 175.9L577.996 179.414C576.646 179.603 576.376 180.574 576.321 180.983C576.226 181.684 576.503 182.602 577.337 182.964C579.488 183.897 584.718 183.208 586.551 182.864C586.964 182.788 587.36 183.042 587.471 183.447C590.194 194.094 602.098 192.069 602.606 191.977C602.654 191.969 602.701 191.965 602.749 191.965ZM649.843 240.614C634.383 240.614 605.709 198.588 602.368 193.611C599.86 193.902 589.17 194.52 586.13 184.547C584.249 184.845 579.202 185.501 576.71 184.42C575.345 183.829 574.535 182.328 574.75 180.77C574.964 179.195 576.107 178.076 577.742 177.848L596.558 174.339C599.416 173.825 602.336 174.762 604.36 176.839L606.376 178.898C608.622 181.199 611.177 183.172 613.971 184.764C623.637 190.268 646.748 203.604 652.525 208.544L653.168 209.093C660.096 214.99 663.573 217.95 657.684 234.043C656.239 237.996 653.914 240.189 650.779 240.561C650.47 240.597 650.16 240.614 649.843 240.614Z" fill="#24AFB5" stroke="#24AFB5" stroke-width="1.5"></path><path d="M562.228 115.833L560.816 135.461C560.506 138.014 558.665 140.118 556.181 140.766L549.284 142.563L553.76 145.969C563.673 153.521 577.41 153.534 587.347 145.999L594.426 140.63L585.855 138.717C583.394 138.167 581.506 136.195 581.053 133.713L577.275 107.742L562.228 115.833Z" fill="white" stroke="#24AFB5" stroke-width="1.5"></path><path d="M550.839 143.035L554.014 145.454C563.616 152.761 577.029 152.774 586.64 145.483L592.354 141.147L585.457 139.607C582.68 138.986 580.56 136.773 580.053 133.97L576.426 109.093L562.767 116.44L561.386 135.633C561.029 138.568 558.982 140.914 556.156 141.649L550.839 143.035ZM570.346 152.529C564.243 152.529 558.14 150.592 553.053 146.716L548.577 143.31C548.339 143.126 548.22 142.82 548.284 142.523C548.339 142.225 548.569 141.987 548.863 141.911L555.76 140.113C557.942 139.543 559.537 137.725 559.807 135.48L561.212 115.891C561.236 115.62 561.394 115.378 561.632 115.249L576.672 107.158C576.902 107.036 577.18 107.032 577.41 107.148C577.64 107.265 577.799 107.487 577.838 107.743L581.616 133.714C582.005 135.861 583.656 137.577 585.806 138.058L594.37 139.97C594.671 140.038 594.909 140.274 594.973 140.576C595.044 140.878 594.925 141.191 594.679 141.378L587.6 146.748C582.521 150.603 576.434 152.529 570.346 152.529Z" fill="#24AFB5" stroke="#24AFB5" stroke-width="1.5"></path><path d="M539.822 88.4307C544.544 85.934 540.742 93.71 556.258 80.277C562.44 74.9279 562.662 84.9134 564.273 83.5301C570.202 78.4215 569.995 78.5889 573.741 77.9397C576.225 77.5088 579.543 80.9293 580.527 84.1666C581.828 88.4403 578.987 90.9981 579.955 100.842C580.638 107.755 582.812 111.15 580.82 113.115C578.805 115.101 575.527 112.672 573.162 114.675C570.106 117.268 573.598 123.032 571.336 127.119C569.908 129.695 565.234 132.728 555.393 132.492C553.797 132.453 552.448 131.28 552.186 129.7C551.853 127.677 551.448 125.118 551.266 122.642C550.385 110.84 552.924 106.919 550.424 104.902C546.583 101.811 540.076 107.568 537.306 104.853C534.433 102.034 533.361 91.8489 539.822 88.4307Z" fill="#24AFB5" stroke="#24AFB5" stroke-width="1.5"></path><path d="M563.472 95.4202L563.274 98.6447C563.186 100.163 563.194 101.684 563.313 103.203C563.535 106.05 563.877 110.948 563.861 113.705C563.837 117.756 551.313 118.547 551.313 118.547L549.726 116.779L548.258 116.84C547.972 116.852 547.687 116.806 547.433 116.674C546.798 116.344 546.488 115.667 546.591 115.013C547.187 111.436 548.226 103.537 547.075 97.398C547.075 97.398 554.036 91.7457 563.472 95.4202Z" fill="white" stroke="#24AFB5" stroke-width="1.5"></path><path d="M549.499 116.113C549.721 116.113 549.943 116.209 550.094 116.376L551.419 117.856C556.284 117.496 562.823 116.051 562.839 113.829C562.855 111.078 562.506 106.109 562.292 103.392C562.173 101.844 562.165 100.273 562.252 98.7242L562.419 96.087C554.959 93.4482 549.189 96.8624 547.713 97.875C548.721 103.922 547.8 111.329 547.149 115.271C547.094 115.605 547.26 115.938 547.57 116.098C547.681 116.155 547.832 116.182 547.999 116.175L549.467 116.114C549.475 116.113 549.491 116.113 549.499 116.113ZM551.086 119.468C550.864 119.468 550.649 119.374 550.498 119.205L549.157 117.715L548.062 117.761C547.618 117.785 547.197 117.692 546.84 117.505C545.919 117.027 545.419 116.025 545.586 115.011C546.11 111.834 547.213 103.784 546.07 97.6711C546.014 97.3854 546.126 97.0925 546.348 96.91C546.649 96.6663 553.776 91.0102 563.53 94.8093C563.855 94.9339 564.054 95.2521 564.038 95.5965L563.839 98.8202C563.752 100.297 563.76 101.794 563.879 103.27C564.085 106.011 564.442 111.03 564.427 113.839C564.395 118.398 553.356 119.327 551.141 119.466C551.125 119.468 551.102 119.468 551.086 119.468Z" fill="#24AFB5" stroke="#24AFB5" stroke-width="1.5"></path><path d="M565.56 105.106C565.56 105.106 566.02 97.3531 569.496 98.3332C572.972 99.3126 572.25 107.833 565.56 105.106Z" fill="white" stroke="#24AFB5" stroke-width="1.5"></path></svg> 