<?xml version="1.0" encoding="UTF-8"?> <svg xmlns="http://www.w3.org/2000/svg" width="455" height="455" viewBox="0 0 455 455" fill="none"><path d="M6.68027 370.422C19.9562 402.712 50.9863 417.98 70.8208 427.742C148.998 466.212 291.979 460.595 377.481 390.41C397.491 373.986 471.902 289.042 448.952 172.532C427.892 65.6069 320.124 11.5998 240.594 1.85498C164.004 -7.53398 57.4847 18.6511 33.4019 81.9486C30.139 90.5328 28.9565 98.3067 28.5021 103.995C22.4472 128.302 26.2575 146.872 28.5842 167.703C28.5842 167.703 30.2102 182.276 30.7029 225.696C31.6007 304.552 -9.65598 330.693 6.68027 370.417V370.422Z" fill="#E4F9FA"></path><path d="M225.917 420.204C323.19 420.204 402.046 340.813 402.046 242.881C402.046 144.948 323.19 65.5581 225.917 65.5581C128.643 65.5581 49.7876 144.948 49.7876 242.881C49.7876 340.813 128.643 420.204 225.917 420.204Z" fill="white"></path><path d="M192.073 81.4226C191.35 82.4902 193.496 86.087 197.777 86.087C202.058 86.087 204.193 85.3698 205.978 90.0342C207.763 94.6985 205.266 110.493 207.763 116.236C210.259 121.979 214.535 125.57 217.743 122.34C220.951 119.11 220.595 110.493 224.515 108.341C228.435 106.19 242.696 97.5727 243.414 90.3955C244.125 83.2183 239.138 77.8313 226.656 76.3969C214.179 74.9626 197.421 73.5227 192.073 81.4226Z" fill="#E4F9FA"></path><path d="M134.874 240.658C133.012 241.594 131.895 243.389 131.983 245.311C132.268 251.333 129.733 266.334 124.412 271.124C117.634 277.228 120.131 288.221 120.027 292.661C119.813 301.678 120.777 305.685 131.54 309.994C142.303 314.302 146.518 314.543 147.312 323.16C148.111 331.777 149.349 365.052 152.54 373.669C155.726 382.286 162.504 396.284 166.095 399.514C169.681 402.745 178.052 404.54 172.873 392.337C167.689 380.134 164.502 374.391 170.481 367.57C176.459 360.749 186.428 344.954 187.222 338.856C188.021 332.752 191.607 329.166 194.793 328.449C197.98 327.731 204.757 325.574 206.75 323.423C208.743 321.271 204.757 315.167 203.564 309.786C202.37 304.404 202.37 301.169 212.334 296.865C222.298 292.557 217.518 280.354 203.963 277.124C190.408 273.894 182.037 267.073 183.636 260.251C185.229 253.43 174.466 254.147 168.088 250.917C161.71 247.687 161.902 242.612 154.801 240.192C145.204 236.924 138.471 238.851 134.868 240.663L134.874 240.658Z" fill="#E4F9FA"></path><path d="M354.153 233.13C351.148 228.591 351.526 221.408 359.037 211.576C364.938 203.857 356.469 196.132 352.566 193.176C351.849 192.634 352.172 191.506 353.064 191.402C357.904 190.849 369.121 192.486 374.059 217.625C380.443 250.139 383.07 238.796 386.454 235.018C389.831 231.235 383.508 224.179 389.831 216.87C393.817 212.266 395.843 205.548 396.866 200.068C384.165 148.492 349.051 105.828 302.522 83.1689C302.588 88.8297 301.236 108.555 278.292 100.419C278.292 100.419 264.019 93.6145 267.403 121.212C270.781 148.815 282.425 119.323 284.675 118.19C286.931 117.057 292.936 115.546 290.308 134.072C290.308 134.072 289.931 140.499 278.292 139.366C266.647 138.233 264.397 143.904 264.397 146.926C264.397 149.948 265.525 157.892 259.141 163.564C252.758 169.235 254.636 183.978 263.275 179.068C271.914 174.152 277.919 158.653 285.808 157.136C293.697 155.625 300.831 165.83 308.342 163.186C315.853 160.542 312.475 147.682 316.231 147.682C319.986 147.682 327.875 155.242 326.747 160.914C325.62 166.586 313.981 169.23 316.981 176.035C319.986 182.84 326.37 180.573 328.248 185.106C330.125 189.645 318.859 194.939 309.847 189.267C300.836 183.595 299.331 191.911 294.825 188.134C290.319 184.351 289.942 176.413 283.558 179.062C277.175 181.707 273.419 187 265.158 190.783C256.897 194.566 250.136 199.477 250.136 204.771C250.136 210.065 253.141 215.737 251.636 224.053C250.136 232.369 247.502 255.055 274.542 250.517C301.581 245.978 298.203 259.966 298.203 261.483C298.203 262.999 297.825 282.658 300.458 286.058C303.086 289.458 309.097 299.29 300.458 312.145C291.819 324.999 295.203 353.735 303.086 349.952C310.975 346.169 318.859 331.426 328.625 323.866C338.392 316.305 351.909 283.408 346.275 273.204C340.642 262.994 354.164 254.678 356.042 247.873C357.92 241.068 357.17 237.663 354.164 233.13H354.153Z" fill="#E4F9FA"></path><path d="M99.8088 118.633C99.9675 124.935 99.3982 133.349 95.3524 139.771C83.1495 159.156 83.5437 168.846 82.3666 188.227C81.1896 207.607 108.043 241.779 114.733 245.365C121.423 248.956 122.457 240.416 122.457 233.595C122.457 226.773 119.599 218.594 115.663 210.7C111.727 202.805 111.727 197.78 112.91 194.55C114.092 191.32 118.811 190.241 121.959 193.471C125.107 196.701 132.678 199.57 136.313 197.55C140.781 195.07 139.045 185.352 140.617 182.122C142.193 178.892 150.849 176.741 154.391 169.919C157.933 163.098 163.834 160.229 170.919 156.999C178.003 153.769 184.298 152.335 185.481 150.178C186.664 148.026 185.087 143.001 187.058 137.258C189.023 131.515 193.748 124.694 191.782 121.825C189.817 118.956 183.91 114.286 172.889 121.469C161.869 128.646 159.115 128.646 155.967 123.265C152.819 117.883 159.509 103.879 173.284 103.879C187.058 103.879 189.811 99.5707 190.206 96.3407C190.6 93.1106 186.269 89.5193 181.545 88.8021C176.82 88.0849 176.037 90.5978 156.356 97.775C143.222 102.565 131.02 99.8772 124.784 98.6017C115.844 104.624 107.484 111.33 99.8033 118.633H99.8088Z" fill="#E4F9FA"></path><path d="M393.747 274.83C391.086 274.233 391.677 280.781 388.13 281.974C384.582 283.162 383.104 284.952 383.991 291.5C384.878 298.048 383.4 306.681 379.852 309.955C376.304 313.229 371.279 315.61 370.983 323.647C370.687 331.684 363.297 339.425 358.862 342.102C354.428 344.779 347.628 348.951 347.628 355.794C347.628 360.201 347.513 365.84 348.532 370.17C372.001 347.254 389.148 317.817 397.102 284.761C396.407 280.365 395.274 275.169 393.758 274.83H393.747Z" fill="#E4F9FA"></path><path d="M225.916 421.023C189.028 421.023 153.678 409.713 123.694 388.307C123.327 388.044 123.24 387.53 123.502 387.163C123.765 386.796 124.28 386.708 124.647 386.971C154.352 408.174 189.373 419.381 225.916 419.381C255.233 419.381 284.237 411.952 309.803 397.898C310.203 397.679 310.701 397.827 310.92 398.221C311.139 398.621 310.991 399.119 310.597 399.338C284.79 413.523 255.512 421.023 225.921 421.023H225.916Z" fill="#26D0D8"></path><path d="M50.4106 258.74C49.9891 258.74 49.6278 258.417 49.5949 257.984C49.1788 252.991 48.9653 247.911 48.9653 242.88C48.9653 195.294 67.371 150.561 100.793 116.914C134.216 83.2674 178.653 64.7358 225.921 64.7358C267.731 64.7358 308.309 79.687 340.177 106.841C371.672 133.678 392.968 170.85 400.14 211.516C400.217 211.965 399.921 212.386 399.472 212.468C399.029 212.55 398.602 212.249 398.519 211.8C383.656 127.535 311.068 66.3727 225.921 66.3727C129.256 66.3727 50.6132 145.552 50.6132 242.874C50.6132 247.862 50.8212 252.898 51.2318 257.842C51.2701 258.296 50.9362 258.69 50.4818 258.729C50.4599 258.729 50.438 258.729 50.4106 258.729V258.74Z" fill="#26D0D8"></path><path d="M145.4 103.933C145.4 114.138 129.135 138.659 125.242 144.39C124.843 144.976 123.978 144.976 123.578 144.39C120.786 140.284 111.66 126.554 106.7 115.337C104.734 110.886 103.42 106.835 103.42 103.933C103.42 92.3378 112.82 82.9434 124.41 82.9434C136 82.9434 145.4 92.3433 145.4 103.933Z" fill="#26D0D8"></path><path d="M131.194 110.716C134.942 106.968 134.942 100.891 131.194 97.1436C127.446 93.3957 121.37 93.3957 117.622 97.1436C113.874 100.891 113.874 106.968 117.622 110.716C121.37 114.464 127.446 114.464 131.194 110.716Z" fill="white"></path><path d="M126.282 113.24C124.049 113.24 121.799 112.528 119.905 111.055C117.704 109.347 116.302 106.889 115.957 104.13C115.903 103.681 116.22 103.271 116.669 103.21C117.118 103.156 117.529 103.473 117.589 103.922C117.884 106.249 119.061 108.318 120.917 109.758C124.739 112.725 130.262 112.03 133.23 108.209C136.197 104.387 135.502 98.8635 131.68 95.8908C130.208 94.7521 128.45 94.1115 126.594 94.0513C126.14 94.0349 125.784 93.6571 125.801 93.2027C125.817 92.7484 126.195 92.3706 126.649 92.4089C128.85 92.4801 130.941 93.2356 132.688 94.5933C137.226 98.1135 138.053 104.672 134.527 109.211C132.474 111.855 129.397 113.234 126.288 113.234L126.282 113.24Z" fill="#24AFB5"></path><path d="M280.535 137.707C280.535 147.912 264.27 172.432 260.378 178.164C259.978 178.75 259.113 178.75 258.714 178.164C255.922 174.058 246.795 160.328 241.835 149.111C239.87 144.66 238.556 140.608 238.556 137.707C238.556 126.112 247.956 116.717 259.546 116.717C271.136 116.717 280.535 126.117 280.535 137.707Z" fill="#26D0D8"></path><path d="M268.875 139.906C270.093 134.747 266.898 129.578 261.74 128.361C256.581 127.143 251.412 130.338 250.195 135.497C248.977 140.655 252.172 145.824 257.331 147.041C262.489 148.259 267.658 145.064 268.875 139.906Z" fill="white"></path><path d="M261.407 147.02C259.108 147.02 256.885 146.264 255.04 144.83C252.839 143.122 251.438 140.664 251.093 137.904C251.038 137.455 251.356 137.045 251.805 136.985C252.254 136.93 252.664 137.247 252.724 137.696C253.02 140.023 254.197 142.092 256.053 143.532C257.903 144.972 260.208 145.602 262.53 145.306C264.856 145.01 266.926 143.833 268.365 141.977C269.805 140.127 270.435 137.828 270.139 135.501C269.844 133.174 268.667 131.099 266.811 129.665C265.338 128.521 263.581 127.886 261.725 127.826C261.27 127.809 260.915 127.431 260.931 126.977C260.947 126.523 261.331 126.167 261.78 126.183C263.98 126.254 266.072 127.01 267.818 128.368C270.019 130.076 271.42 132.534 271.765 135.298C272.116 138.058 271.366 140.789 269.657 142.99C267.949 145.191 265.491 146.593 262.727 146.937C262.283 146.992 261.84 147.02 261.402 147.02H261.407Z" fill="#24AFB5"></path><path d="M214.485 256.133C214.485 266.338 198.22 290.859 194.328 296.591C193.928 297.176 193.063 297.176 192.663 296.591C189.871 292.485 180.745 278.754 175.785 267.537C173.82 263.086 172.506 259.035 172.506 256.133C172.506 244.538 181.906 235.144 193.496 235.144C205.085 235.144 214.485 244.543 214.485 256.133Z" fill="#26D0D8"></path><path d="M200.282 262.917C204.03 259.169 204.03 253.093 200.282 249.345C196.534 245.597 190.457 245.597 186.709 249.345C182.962 253.093 182.962 259.169 186.709 262.917C190.457 266.665 196.534 266.665 200.282 262.917Z" fill="white"></path><path d="M195.357 265.446C193.058 265.446 190.835 264.69 188.99 263.256C186.789 261.548 185.388 259.09 185.043 256.331C184.988 255.882 185.306 255.471 185.754 255.411C186.203 255.356 186.614 255.674 186.674 256.123C186.97 258.449 188.147 260.519 190.003 261.958C191.853 263.398 194.158 264.028 196.479 263.732C198.806 263.437 200.875 262.26 202.315 260.404C203.755 258.553 204.385 256.248 204.089 253.927C203.793 251.601 202.616 249.526 200.76 248.091C199.288 246.947 197.53 246.312 195.674 246.252C195.22 246.235 194.864 245.858 194.881 245.403C194.897 244.949 195.275 244.577 195.729 244.609C197.93 244.681 200.021 245.436 201.768 246.794C203.969 248.502 205.37 250.96 205.715 253.725C206.065 256.484 205.315 259.216 203.607 261.416C201.899 263.617 199.441 265.019 196.676 265.364C196.233 265.418 195.789 265.446 195.351 265.446H195.357Z" fill="#24AFB5"></path><path d="M321.766 302.437C321.766 312.642 305.501 337.162 301.609 342.894C301.209 343.48 300.344 343.48 299.945 342.894C297.153 338.788 288.026 325.058 283.066 313.841C281.101 309.39 279.787 305.338 279.787 302.437C279.787 290.842 289.187 281.447 300.777 281.447C312.367 281.447 321.766 290.847 321.766 302.437Z" fill="#26D0D8"></path><path d="M300.777 312.034C306.077 312.034 310.374 307.738 310.374 302.437C310.374 297.137 306.077 292.84 300.777 292.84C295.477 292.84 291.18 297.137 291.18 302.437C291.18 307.738 295.477 312.034 300.777 312.034Z" fill="white"></path><path d="M302.638 311.743C300.339 311.743 298.116 310.988 296.271 309.553C294.07 307.845 292.669 305.387 292.324 302.623C292.269 302.174 292.587 301.763 293.036 301.703C293.485 301.648 293.895 301.966 293.955 302.415C294.246 304.741 295.428 306.816 297.284 308.25C299.134 309.685 301.434 310.314 303.76 310.024C306.087 309.729 308.157 308.552 309.596 306.696C312.564 302.874 311.868 297.351 308.047 294.383C306.574 293.239 304.817 292.604 302.961 292.544C302.507 292.527 302.151 292.15 302.167 291.695C302.184 291.241 302.567 290.869 303.016 290.901C305.217 290.973 307.308 291.728 309.054 293.086C313.593 296.606 314.42 303.165 310.894 307.703C309.186 309.904 306.728 311.305 303.963 311.65C303.52 311.705 303.076 311.732 302.638 311.732V311.743Z" fill="#24AFB5"></path><path d="M300.666 341.603C300.063 341.603 299.461 341.592 298.854 341.576C298.399 341.565 298.043 341.187 298.054 340.733C298.065 340.278 298.443 339.912 298.897 339.934C301.06 339.994 303.2 339.944 305.379 339.786C305.839 339.747 306.228 340.092 306.261 340.547C306.294 341.001 305.954 341.39 305.5 341.428C303.879 341.549 302.253 341.609 300.666 341.609V341.603ZM292.333 341.034C292.295 341.034 292.257 341.034 292.218 341.028C290.012 340.722 287.817 340.284 285.687 339.725C285.249 339.611 284.986 339.162 285.101 338.724C285.216 338.286 285.665 338.023 286.103 338.138C288.173 338.68 290.308 339.101 292.448 339.402C292.897 339.463 293.209 339.879 293.149 340.328C293.094 340.738 292.738 341.034 292.339 341.034H292.333ZM311.96 340.634C311.566 340.634 311.221 340.35 311.15 339.95C311.073 339.501 311.374 339.079 311.823 339.003C313.914 338.652 316.055 338.193 318.179 337.651C318.617 337.541 319.066 337.804 319.181 338.242C319.296 338.68 319.028 339.129 318.59 339.244C316.422 339.802 314.237 340.268 312.097 340.629C312.053 340.634 312.004 340.64 311.96 340.64V340.634ZM279.649 337.716C279.55 337.716 279.446 337.7 279.348 337.662C277.305 336.857 275.269 335.921 273.304 334.875C272.904 334.661 272.751 334.163 272.964 333.764C273.178 333.364 273.676 333.211 274.075 333.424C275.986 334.442 277.962 335.351 279.95 336.134C280.371 336.298 280.579 336.775 280.415 337.196C280.289 337.519 279.977 337.716 279.649 337.716ZM268.075 331.574C267.917 331.574 267.758 331.53 267.615 331.431C265.809 330.2 264.03 328.853 262.316 327.419C261.971 327.128 261.922 326.608 262.217 326.263C262.508 325.919 263.028 325.869 263.373 326.159C265.042 327.561 266.778 328.88 268.541 330.074C268.913 330.331 269.011 330.84 268.76 331.212C268.601 331.448 268.344 331.574 268.081 331.574H268.075ZM258.018 323.154C257.805 323.154 257.597 323.072 257.433 322.908C255.905 321.364 254.405 319.705 252.971 317.991C252.681 317.641 252.73 317.126 253.075 316.836C253.425 316.546 253.94 316.595 254.23 316.94C255.632 318.621 257.099 320.241 258.599 321.752C258.916 322.075 258.916 322.595 258.593 322.913C258.435 323.072 258.227 323.148 258.018 323.148V323.154ZM249.604 313.081C249.347 313.081 249.095 312.96 248.931 312.736C247.671 310.956 246.451 309.09 245.301 307.184C245.066 306.796 245.191 306.292 245.58 306.057C245.969 305.821 246.472 305.947 246.708 306.336C247.836 308.208 249.035 310.042 250.272 311.783C250.535 312.155 250.447 312.664 250.075 312.927C249.932 313.031 249.763 313.081 249.598 313.081H249.604ZM242.815 301.841C242.52 301.841 242.23 301.677 242.082 301.392C241.085 299.454 240.138 297.434 239.257 295.403C239.076 294.987 239.268 294.505 239.684 294.325C240.1 294.144 240.582 294.335 240.762 294.752C241.627 296.755 242.564 298.737 243.544 300.642C243.752 301.047 243.593 301.54 243.188 301.748C243.067 301.808 242.941 301.841 242.815 301.841ZM237.604 289.786C237.264 289.786 236.952 289.578 236.832 289.239C236.093 287.169 235.408 285.051 234.801 282.937C234.675 282.499 234.927 282.045 235.364 281.919C235.802 281.793 236.257 282.045 236.383 282.483C236.979 284.563 237.653 286.649 238.381 288.686C238.534 289.113 238.31 289.584 237.883 289.737C237.79 289.77 237.697 289.786 237.604 289.786ZM233.974 277.162C233.596 277.162 233.257 276.899 233.175 276.516C232.698 274.353 232.293 272.163 231.97 270.001C231.905 269.552 232.211 269.136 232.66 269.065C233.109 268.999 233.525 269.306 233.596 269.754C233.919 271.879 234.319 274.036 234.784 276.16C234.883 276.603 234.604 277.041 234.16 277.14C234.1 277.151 234.04 277.162 233.985 277.162H233.974ZM232.02 264.176C231.598 264.176 231.237 263.853 231.204 263.42C231.023 261.192 230.93 258.964 230.919 256.796C230.919 256.342 231.28 255.975 231.735 255.969C232.189 255.969 232.556 256.336 232.556 256.785C232.567 258.915 232.66 261.099 232.841 263.289C232.879 263.743 232.54 264.138 232.091 264.176C232.069 264.176 232.047 264.176 232.025 264.176H232.02ZM148.8 259.145C148.614 259.145 148.422 259.079 148.269 258.953C146.588 257.53 144.935 256.035 143.358 254.513C143.03 254.196 143.024 253.681 143.336 253.353C143.654 253.03 144.168 253.019 144.497 253.331C146.046 254.831 147.672 256.298 149.331 257.699C149.676 257.995 149.72 258.51 149.429 258.855C149.265 259.046 149.035 259.145 148.8 259.145ZM232.02 251.059C232.02 251.059 231.97 251.059 231.943 251.059C231.494 251.015 231.16 250.615 231.204 250.166C231.412 247.976 231.735 245.765 232.167 243.591C232.255 243.148 232.687 242.858 233.131 242.945C233.574 243.033 233.864 243.465 233.777 243.909C233.355 246.027 233.038 248.184 232.841 250.32C232.802 250.747 232.441 251.064 232.025 251.064L232.02 251.059ZM139.356 250.024C139.132 250.024 138.913 249.931 138.749 249.756C137.27 248.124 135.825 246.427 134.462 244.708C134.183 244.352 134.237 243.838 134.593 243.553C134.949 243.274 135.464 243.329 135.748 243.684C137.09 245.376 138.508 247.046 139.964 248.65C140.27 248.984 140.243 249.504 139.909 249.81C139.75 249.953 139.553 250.024 139.356 250.024ZM131.199 239.737C130.936 239.737 130.679 239.611 130.52 239.381C129.272 237.569 128.068 235.691 126.945 233.808C126.715 233.419 126.841 232.916 127.23 232.68C127.619 232.45 128.122 232.576 128.358 232.965C129.464 234.821 130.646 236.666 131.872 238.445C132.13 238.817 132.037 239.332 131.664 239.589C131.522 239.688 131.358 239.732 131.199 239.732V239.737ZM234.554 238.199C234.478 238.199 234.395 238.188 234.319 238.166C233.886 238.035 233.64 237.575 233.771 237.142C234.39 235.089 235.124 232.981 235.956 230.879C236.12 230.458 236.596 230.25 237.023 230.419C237.445 230.584 237.653 231.065 237.483 231.487C236.667 233.551 235.95 235.615 235.348 237.618C235.239 237.974 234.916 238.204 234.56 238.204L234.554 238.199ZM124.482 228.454C124.181 228.454 123.896 228.29 123.748 228.005C122.752 226.045 121.81 224.025 120.945 222.005C120.764 221.589 120.961 221.107 121.378 220.926C121.794 220.746 122.275 220.943 122.456 221.359C123.305 223.346 124.235 225.333 125.215 227.261C125.423 227.666 125.259 228.158 124.854 228.366C124.733 228.427 124.608 228.454 124.482 228.454ZM239.345 225.979C239.224 225.979 239.104 225.952 238.994 225.897C238.584 225.7 238.408 225.213 238.605 224.802C239.498 222.93 240.478 221.003 241.606 218.912C241.819 218.512 242.317 218.364 242.717 218.578C243.117 218.791 243.264 219.289 243.051 219.689C241.939 221.753 240.971 223.658 240.089 225.503C239.947 225.799 239.657 225.968 239.345 225.968V225.979ZM119.319 216.382C118.98 216.382 118.662 216.169 118.542 215.835C117.814 213.755 117.146 211.63 116.56 209.517C116.439 209.079 116.697 208.63 117.135 208.504C117.573 208.384 118.022 208.641 118.148 209.074C118.722 211.154 119.379 213.246 120.096 215.288C120.244 215.715 120.02 216.185 119.593 216.333C119.505 216.366 119.412 216.377 119.319 216.377V216.382ZM245.536 214.395C245.399 214.395 245.257 214.362 245.126 214.286C244.732 214.061 244.6 213.558 244.825 213.163C245.624 211.778 246.429 210.404 247.223 209.046L248.137 207.481C248.367 207.087 248.87 206.955 249.259 207.185C249.653 207.415 249.785 207.919 249.555 208.307L248.64 209.873C247.847 211.231 247.047 212.594 246.248 213.979C246.095 214.242 245.821 214.39 245.536 214.39V214.395ZM115.821 203.725C115.438 203.725 115.098 203.457 115.016 203.068C114.573 200.9 114.206 198.699 113.916 196.532C113.855 196.083 114.173 195.672 114.622 195.612C115.071 195.557 115.481 195.869 115.542 196.318C115.821 198.448 116.182 200.605 116.62 202.74C116.713 203.183 116.423 203.616 115.98 203.709C115.925 203.72 115.87 203.725 115.815 203.725H115.821ZM252.117 203.019C251.98 203.019 251.843 202.986 251.717 202.915C251.323 202.696 251.175 202.192 251.4 201.798C252.588 199.663 253.579 197.774 254.427 196.017C254.624 195.606 255.117 195.437 255.527 195.639C255.933 195.836 256.108 196.329 255.905 196.734C255.04 198.513 254.038 200.429 252.834 202.592C252.686 202.86 252.401 203.013 252.117 203.013V203.019ZM257.778 191.177C257.679 191.177 257.586 191.161 257.487 191.123C257.06 190.964 256.847 190.493 257.006 190.066C257.81 187.92 258.418 185.9 258.867 183.896C258.966 183.453 259.404 183.179 259.847 183.272C260.29 183.371 260.57 183.809 260.471 184.252C260.006 186.332 259.376 188.424 258.549 190.641C258.424 190.969 258.111 191.172 257.783 191.172L257.778 191.177ZM114.118 190.712C113.686 190.712 113.324 190.373 113.297 189.935C113.204 188.325 113.16 186.705 113.16 185.117C113.16 184.509 113.166 183.907 113.182 183.305C113.193 182.85 113.549 182.484 114.02 182.5C114.474 182.511 114.83 182.889 114.824 183.338C114.813 183.929 114.803 184.52 114.803 185.111C114.803 186.666 114.846 188.259 114.939 189.836C114.967 190.29 114.616 190.679 114.167 190.701C114.151 190.701 114.135 190.701 114.118 190.701V190.712ZM260.531 178.411C260.531 178.411 260.509 178.411 260.498 178.411C260.044 178.394 259.694 178.011 259.71 177.556C259.727 177.119 259.737 176.681 259.737 176.237C259.737 174.551 259.606 172.848 259.343 171.168C259.272 170.719 259.579 170.297 260.028 170.231C260.477 170.166 260.898 170.467 260.964 170.916C261.238 172.679 261.38 174.469 261.38 176.237C261.38 176.702 261.369 177.162 261.352 177.622C261.336 178.066 260.969 178.411 260.531 178.411ZM114.425 177.589C114.397 177.589 114.365 177.589 114.332 177.589C113.883 177.54 113.554 177.135 113.604 176.686C113.85 174.441 114.2 172.23 114.644 170.122C114.737 169.679 115.169 169.399 115.618 169.487C116.062 169.58 116.346 170.018 116.253 170.461C115.821 172.52 115.476 174.677 115.235 176.867C115.191 177.288 114.835 177.6 114.419 177.6L114.425 177.589ZM179.047 170.478H178.916C178.461 170.472 178.1 170.1 178.106 169.646C178.111 169.197 178.478 168.835 178.927 168.835H179.047C180.925 168.835 182.934 168.315 184.867 167.335C185.272 167.133 185.764 167.292 185.973 167.697C186.175 168.102 186.016 168.595 185.611 168.803C183.449 169.898 181.182 170.478 179.047 170.478ZM172.718 168.595C172.576 168.595 172.428 168.556 172.297 168.48C170.452 167.368 168.689 165.797 167.2 163.941C166.915 163.585 166.976 163.071 167.326 162.786C167.682 162.501 168.196 162.562 168.481 162.912C169.85 164.62 171.459 166.06 173.14 167.073C173.529 167.308 173.655 167.812 173.419 168.2C173.266 168.458 172.992 168.6 172.713 168.6L172.718 168.595ZM258.549 165.501C258.21 165.501 257.893 165.288 257.772 164.948C257.082 162.956 256.206 160.979 255.177 159.069C254.964 158.669 255.111 158.171 255.511 157.957C255.911 157.744 256.409 157.892 256.622 158.291C257.695 160.279 258.604 162.337 259.321 164.412C259.469 164.839 259.245 165.31 258.812 165.458C258.725 165.49 258.632 165.501 258.544 165.501H258.549ZM190.336 164.817C190.155 164.817 189.974 164.757 189.827 164.636C189.471 164.352 189.411 163.837 189.695 163.481C190.878 161.992 191.502 160.465 191.502 159.074V158.976C191.496 158.696 191.458 158.401 191.392 158.105C191.294 157.662 191.573 157.224 192.011 157.125C192.454 157.027 192.892 157.306 192.991 157.744C193.084 158.149 193.133 158.554 193.139 158.943V159.074C193.139 160.842 192.394 162.72 190.976 164.505C190.812 164.708 190.577 164.817 190.33 164.817H190.336ZM117.173 164.768C117.085 164.768 116.998 164.751 116.91 164.724C116.478 164.582 116.248 164.111 116.396 163.684C117.135 161.494 117.994 159.419 118.963 157.514C119.166 157.109 119.664 156.95 120.069 157.153C120.474 157.355 120.633 157.853 120.43 158.258C119.5 160.092 118.668 162.096 117.956 164.209C117.841 164.554 117.518 164.768 117.179 164.768H117.173ZM164.589 158.565C164.255 158.565 163.943 158.362 163.822 158.034C163.061 156.019 162.678 154.043 162.678 152.16C162.678 151.853 162.689 151.552 162.711 151.256C162.744 150.802 163.143 150.452 163.587 150.495C164.041 150.528 164.381 150.917 164.348 151.371C164.331 151.634 164.32 151.897 164.32 152.16C164.32 153.846 164.671 155.631 165.361 157.454C165.519 157.875 165.306 158.352 164.879 158.51C164.786 158.549 164.687 158.565 164.589 158.565ZM252.374 153.966C252.122 153.966 251.876 153.851 251.712 153.632C250.458 151.941 249.046 150.282 247.529 148.711C247.212 148.382 247.223 147.862 247.551 147.55C247.879 147.233 248.4 147.244 248.712 147.572C250.283 149.198 251.734 150.912 253.037 152.658C253.305 153.025 253.228 153.539 252.867 153.808C252.719 153.917 252.549 153.972 252.38 153.972L252.374 153.966ZM188.699 153.288C188.491 153.288 188.283 153.205 188.119 153.047C186.766 151.7 185.075 150.37 183.098 149.094C182.715 148.848 182.606 148.338 182.852 147.961C183.098 147.578 183.607 147.468 183.985 147.714C186.06 149.056 187.839 150.457 189.274 151.881C189.597 152.198 189.597 152.718 189.274 153.041C189.115 153.2 188.901 153.282 188.693 153.282L188.699 153.288ZM123.162 153.145C122.987 153.145 122.812 153.09 122.664 152.975C122.303 152.702 122.237 152.182 122.516 151.826C123.951 149.959 125.538 148.333 127.235 146.997C127.591 146.718 128.106 146.778 128.391 147.134C128.67 147.49 128.61 148.005 128.254 148.289C126.666 149.543 125.171 151.07 123.819 152.833C123.655 153.041 123.414 153.156 123.168 153.156L123.162 153.145ZM177.788 146.061C177.673 146.061 177.553 146.039 177.438 145.984C175.521 145.087 173.501 144.276 171.426 143.576C170.999 143.433 170.764 142.962 170.912 142.535C171.06 142.108 171.525 141.873 171.952 142.021C174.087 142.743 176.167 143.576 178.138 144.501C178.549 144.692 178.724 145.185 178.533 145.596C178.39 145.891 178.095 146.067 177.788 146.067V146.061ZM165.684 146.012C165.53 146.012 165.377 145.968 165.235 145.88C164.857 145.634 164.747 145.125 164.994 144.742C166.122 143.006 167.665 141.32 169.576 139.732C169.926 139.442 170.441 139.492 170.731 139.842C171.021 140.192 170.972 140.707 170.622 140.997C168.837 142.475 167.408 144.041 166.368 145.639C166.209 145.88 165.946 146.012 165.678 146.012H165.684ZM133.307 144.983C133.006 144.983 132.721 144.818 132.573 144.534C132.371 144.128 132.529 143.636 132.934 143.428C134.905 142.431 136.991 141.583 139.137 140.909C139.57 140.773 140.03 141.013 140.166 141.446C140.303 141.878 140.062 142.338 139.63 142.475C137.571 143.121 135.568 143.937 133.674 144.895C133.553 144.955 133.427 144.983 133.301 144.983H133.307ZM243.286 144.512C243.106 144.512 242.919 144.452 242.766 144.326C241.118 142.973 239.361 141.687 237.538 140.493C237.16 140.247 237.051 139.738 237.302 139.355C237.549 138.977 238.058 138.867 238.441 139.119C240.314 140.346 242.12 141.67 243.812 143.055C244.162 143.346 244.211 143.86 243.927 144.211C243.763 144.408 243.527 144.512 243.292 144.512H243.286ZM165.366 141.851C165.306 141.851 165.246 141.846 165.185 141.829C163.061 141.358 160.91 141.008 158.797 140.784C158.348 140.734 158.019 140.329 158.068 139.88C158.118 139.426 158.523 139.103 158.972 139.152C161.151 139.382 163.362 139.743 165.547 140.231C165.99 140.329 166.269 140.767 166.171 141.211C166.089 141.594 165.749 141.857 165.372 141.857L165.366 141.851ZM145.778 141.035C145.378 141.035 145.028 140.745 144.968 140.34C144.897 139.891 145.209 139.475 145.652 139.404C147.804 139.07 150.043 138.884 152.304 138.851H152.32C152.769 138.851 153.136 139.212 153.141 139.661C153.147 140.116 152.785 140.488 152.331 140.493C150.147 140.532 147.979 140.712 145.898 141.03C145.855 141.035 145.816 141.041 145.772 141.041L145.778 141.035ZM175.543 137.51C175.253 137.51 174.974 137.356 174.826 137.088C174.607 136.694 174.744 136.19 175.144 135.971C177 134.937 179.031 133.973 181.177 133.114C181.598 132.944 182.075 133.152 182.244 133.573C182.414 133.995 182.206 134.471 181.784 134.641C179.704 135.473 177.739 136.404 175.943 137.406C175.817 137.477 175.68 137.51 175.543 137.51ZM232.315 137.313C232.189 137.313 232.058 137.285 231.937 137.22C230.021 136.229 228.039 135.32 226.041 134.521C225.62 134.351 225.417 133.875 225.581 133.453C225.751 133.031 226.227 132.829 226.649 132.993C228.696 133.809 230.733 134.74 232.693 135.758C233.098 135.966 233.251 136.464 233.043 136.864C232.895 137.143 232.611 137.307 232.315 137.307V137.313ZM187.708 132.599C187.347 132.599 187.018 132.364 186.92 132.002C186.799 131.564 187.051 131.11 187.489 130.989C189.613 130.393 191.798 129.9 193.976 129.517C194.42 129.44 194.847 129.736 194.929 130.185C195.006 130.634 194.71 131.055 194.261 131.137C192.131 131.51 190.007 131.997 187.932 132.577C187.856 132.599 187.785 132.61 187.708 132.61V132.599ZM220.134 132.457C220.057 132.457 219.986 132.446 219.91 132.424C217.807 131.827 215.683 131.34 213.592 130.978C213.143 130.902 212.847 130.475 212.924 130.031C213.001 129.588 213.428 129.287 213.871 129.363C216.023 129.736 218.202 130.234 220.359 130.847C220.797 130.973 221.048 131.427 220.922 131.86C220.818 132.221 220.49 132.457 220.134 132.457ZM200.639 130.332C200.212 130.332 199.851 130.004 199.823 129.572C199.79 129.117 200.13 128.728 200.584 128.696C201.937 128.602 203.283 128.553 204.592 128.553C205.167 128.575 205.747 128.564 206.316 128.581C206.628 128.592 206.94 128.602 207.252 128.619C207.707 128.641 208.052 129.03 208.03 129.478C208.008 129.933 207.614 130.267 207.17 130.256C206.869 130.239 206.568 130.228 206.261 130.218C205.709 130.201 205.145 130.179 204.592 130.19C203.327 130.19 202.019 130.239 200.699 130.327C200.677 130.327 200.661 130.327 200.639 130.327V130.332Z" fill="#26D0D8"></path><path d="M306.93 413.634C287.994 396.175 297.793 384.92 297.793 384.92C297.793 384.92 306.251 371.217 335.94 389.129C365.629 407.048 394.36 400.385 400.858 397.697C407.357 395.009 430.065 378.131 442.859 377.184C449.982 376.658 458.5 382.012 451.028 396.482C435.567 426.406 393.582 429.822 393.582 429.822C393.582 429.822 373.228 433.644 352.32 429.943C352.32 429.943 325.867 431.092 306.93 413.639V413.634Z" fill="#26D0D8"></path><path d="M371.854 432.362C365.821 432.362 359.06 431.957 352.26 430.758C350.492 430.807 324.772 431.196 306.372 414.236C298.341 406.829 294.322 399.591 294.437 392.715C294.52 387.782 296.781 384.853 297.131 384.426C297.459 383.934 299.814 380.671 305.567 379.499C313.506 377.884 323.869 380.884 336.362 388.423C348.948 396.022 362.662 400.018 377.11 400.314C388.59 400.544 397.24 398.299 400.541 396.936C402.446 396.148 405.966 393.996 410.039 391.5C420.009 385.395 433.668 377.036 442.794 376.362C446.205 376.11 450.716 377.151 453.147 380.83C454.909 383.496 456.097 388.439 451.751 396.854C443.643 412.544 428.259 420.898 416.784 425.136C404.795 429.565 394.437 430.561 393.681 430.627C392.981 430.753 383.86 432.357 371.843 432.357L371.854 432.362ZM352.321 429.116C352.37 429.116 352.419 429.116 352.463 429.127C372.976 432.762 393.227 429.045 393.429 429.006C393.457 429.006 393.484 428.995 393.512 428.995C393.928 428.962 435.228 425.267 450.294 396.098C453.448 390 453.957 385.029 451.778 381.733C449.736 378.645 445.86 377.78 442.914 377.999C434.188 378.645 420.726 386.885 410.899 392.901C406.596 395.534 403.191 397.62 401.171 398.458C397.749 399.87 388.825 402.208 377.077 401.962C362.334 401.661 348.351 397.582 335.514 389.835C320.519 380.786 311.217 380.08 306.055 381.081C300.569 382.144 298.511 385.324 298.489 385.357C298.467 385.395 298.439 385.428 298.412 385.461C298.04 385.899 289.417 396.378 307.483 413.031C325.938 430.041 352.019 429.132 352.282 429.121C352.293 429.121 352.304 429.121 352.321 429.121V429.116Z" fill="#24AFB5"></path><path d="M356.258 416.179L368.149 423.164L359.428 427.916L353.882 424.363L356.258 416.179Z" fill="white"></path><path d="M359.428 428.737C359.275 428.737 359.121 428.693 358.985 428.606L353.433 425.053C353.127 424.856 352.984 424.483 353.088 424.133L355.464 415.948C355.536 415.708 355.716 415.51 355.952 415.412C356.187 415.319 356.45 415.335 356.669 415.467L368.565 422.452C368.822 422.6 368.976 422.879 368.97 423.175C368.97 423.471 368.801 423.739 368.543 423.881L359.822 428.633C359.702 428.699 359.565 428.732 359.428 428.732V428.737ZM354.835 424.002L359.461 426.963L366.479 423.142L356.745 417.427L354.835 424.007V424.002Z" fill="#24AFB5"></path><path d="M359.472 424.774L361.251 422.973C361.892 422.326 362.894 422.201 363.671 422.671L364.936 423.438L365.598 422.458C365.894 421.823 366.649 421.423 367.279 421.73C374.817 425.348 384.414 428.119 388.92 431.458C394.252 435.405 390.464 444.192 381.168 443.294C373.799 442.583 363.731 434.371 359.872 430.987C359.111 430.325 359.302 429.099 360.228 428.693H360.238L359.253 427.276C358.711 426.498 358.804 425.447 359.467 424.768L359.472 424.774Z" fill="white"></path><path d="M382.509 444.181C382.055 444.181 381.579 444.159 381.091 444.11C373.514 443.382 363.348 435.121 359.335 431.606C358.766 431.108 358.498 430.369 358.613 429.624C358.678 429.208 358.853 428.825 359.122 428.518L358.585 427.746C357.819 426.646 357.95 425.151 358.892 424.193L360.671 422.392C361.58 421.473 362.992 421.297 364.098 421.971L364.695 422.332L364.886 422.047C365.149 421.527 365.604 421.122 366.146 420.925C366.649 420.744 367.175 420.766 367.64 420.991C370.569 422.398 373.826 423.684 376.98 424.922C381.923 426.865 386.588 428.704 389.413 430.796C391.92 432.652 392.818 435.723 391.707 438.614C390.683 441.28 387.688 444.181 382.509 444.181ZM360.052 425.349C359.664 425.743 359.609 426.356 359.926 426.81L360.912 428.223C361.054 428.431 361.098 428.688 361.021 428.929C360.95 429.17 360.775 429.361 360.54 429.455C360.299 429.559 360.244 429.783 360.228 429.876C360.211 429.969 360.206 430.194 360.408 430.374C364.306 433.785 374.139 441.794 381.245 442.479C386.38 442.977 389.259 440.393 390.168 438.028C391.022 435.811 390.354 433.544 388.427 432.121C385.778 430.155 381.206 428.36 376.367 426.454C373.191 425.201 369.901 423.909 366.917 422.474C366.852 422.442 366.775 422.442 366.688 422.474C366.54 422.529 366.403 422.655 366.332 422.808C366.315 422.847 366.293 422.89 366.266 422.923L365.604 423.903C365.357 424.265 364.87 424.369 364.498 424.144L363.233 423.378C362.779 423.098 362.198 423.175 361.826 423.553L360.047 425.354L360.052 425.349Z" fill="#24AFB5"></path><path d="M380.105 441.06C379.125 441.06 378.063 440.918 376.919 440.589C376.481 440.463 376.229 440.009 376.355 439.571C376.481 439.133 376.935 438.881 377.373 439.007C381.627 440.228 384.49 438.476 385.645 436.604C386.521 435.18 386.51 433.631 385.618 432.662C385.311 432.328 385.333 431.808 385.667 431.501C386.001 431.195 386.521 431.217 386.828 431.551C388.235 433.078 388.322 435.405 387.047 437.469C385.913 439.303 383.532 441.06 380.11 441.066L380.105 441.06Z" fill="#24AFB5"></path><path d="M375.567 436.895C375.408 436.895 375.244 436.846 375.102 436.747C374.729 436.49 374.636 435.975 374.894 435.603L379.284 429.258C379.541 428.886 380.056 428.792 380.428 429.05C380.801 429.307 380.894 429.822 380.636 430.194L376.246 436.539C376.087 436.769 375.83 436.895 375.572 436.895H375.567Z" fill="#24AFB5"></path><path d="M371.033 435.192C370.913 435.192 370.793 435.164 370.683 435.11C370.272 434.913 370.097 434.425 370.294 434.015L373.305 427.681C373.502 427.27 373.99 427.1 374.4 427.292C374.811 427.489 374.986 427.976 374.789 428.387L371.778 434.721C371.636 435.017 371.34 435.192 371.033 435.192Z" fill="#24AFB5"></path><path d="M384.982 417.471C384.752 417.471 384.527 417.378 384.363 417.192L383.378 416.075C383.23 415.911 383.159 415.692 383.175 415.473C383.192 415.254 383.296 415.052 383.46 414.909L388.414 410.667C396.046 404.135 404.411 398.414 413.269 393.673L416.839 391.763C417.238 391.549 417.736 391.697 417.95 392.097C418.163 392.496 418.016 392.994 417.616 393.208L414.047 395.119C405.293 399.805 397.026 405.455 389.482 411.909L385.157 415.61L385.589 416.103C385.891 416.442 385.858 416.962 385.518 417.263C385.36 417.4 385.168 417.471 384.976 417.471H384.982Z" fill="#24AFB5"></path><path d="M386.066 418.603L367.414 426.344L371.717 432.459L392.51 426.344L386.066 418.603Z" fill="white"></path><path d="M371.717 433.28C371.454 433.28 371.202 433.154 371.043 432.93L366.74 426.82C366.598 426.617 366.554 426.36 366.625 426.119C366.697 425.878 366.872 425.687 367.102 425.588L385.748 417.842C386.082 417.705 386.465 417.798 386.695 418.077L393.139 425.824C393.314 426.037 393.374 426.322 393.292 426.59C393.21 426.858 393.002 427.061 392.739 427.137L371.947 433.247C371.87 433.269 371.793 433.28 371.717 433.28ZM368.678 426.71L372.051 431.501L391.075 425.906L385.819 419.588L368.678 426.705V426.71Z" fill="#24AFB5"></path><path d="M375.066 427.8L373.61 425.731C373.085 424.986 372.121 424.702 371.273 425.036L369.121 425.983L368.951 425.359C368.765 424.68 368.103 424.253 367.413 424.362C363.192 425.03 349.916 426.99 344.923 429.541C339.016 432.558 341.304 441.848 350.617 442.494C358.002 443.009 368.223 437.529 372.471 434.649C373.867 433.702 372.888 431.934 372.888 431.934L374.869 430.302C375.532 429.623 375.614 428.572 375.066 427.795V427.8Z" fill="white"></path><path d="M351.602 443.354C351.246 443.354 350.901 443.343 350.557 443.321C344.491 442.899 341.611 439.193 340.992 436.149C340.374 433.116 341.764 430.237 344.545 428.819C349.352 426.366 361.303 424.494 366.411 423.694L367.287 423.558C368.289 423.399 369.258 423.946 369.646 424.861L370.944 424.291C372.176 423.798 373.533 424.204 374.283 425.266L375.74 427.335C376.512 428.435 376.397 429.93 375.455 430.888C375.433 430.91 375.411 430.932 375.389 430.948L373.878 432.196C374.174 433.138 374.19 434.485 372.931 435.344C368.716 438.202 359.08 443.365 351.602 443.365V443.354ZM367.626 425.173C367.599 425.173 367.566 425.173 367.539 425.178L366.663 425.315C362.07 426.032 349.867 427.943 345.295 430.275C343.16 431.364 342.131 433.489 342.607 435.815C343.111 438.295 345.531 441.317 350.677 441.679C357.312 442.127 367.073 437.321 372.012 433.97C372.751 433.472 372.231 432.443 372.17 432.328C371.984 431.983 372.066 431.55 372.367 431.299L374.311 429.7C374.672 429.306 374.71 428.709 374.398 428.266L372.942 426.196C372.636 425.764 372.077 425.594 371.579 425.791L369.455 426.727C369.236 426.826 368.984 426.82 368.771 426.716C368.557 426.612 368.393 426.421 368.333 426.191L368.163 425.567C368.097 425.32 367.873 425.156 367.632 425.156L367.626 425.173Z" fill="#24AFB5"></path><path d="M362.081 436.188C361.725 436.188 361.397 435.952 361.293 435.591L359.365 428.852C359.24 428.414 359.491 427.96 359.929 427.839C360.362 427.713 360.822 427.965 360.942 428.403L362.869 435.142C362.995 435.58 362.743 436.035 362.305 436.155C362.229 436.177 362.152 436.188 362.081 436.188Z" fill="#24AFB5"></path><path d="M350.798 440.557C350.711 440.557 350.618 440.54 350.53 440.513C347.262 439.396 345.362 437.808 344.88 435.799C344.24 433.122 346.413 430.845 346.506 430.746C346.824 430.418 347.344 430.412 347.667 430.73C347.99 431.047 348.001 431.562 347.689 431.89C347.672 431.907 346.046 433.631 346.479 435.427C346.818 436.828 348.406 438.055 351.061 438.964C351.488 439.111 351.718 439.577 351.57 440.009C351.455 440.349 351.132 440.562 350.793 440.562L350.798 440.557Z" fill="#24AFB5"></path><path d="M356.7 415.215C356.646 415.215 356.591 415.215 356.536 415.199C356.093 415.111 355.803 414.673 355.896 414.23L356.142 413.003C352.879 410.627 331.457 395.293 319.489 393.519C319.041 393.454 318.729 393.038 318.8 392.589C318.865 392.14 319.287 391.828 319.73 391.899C333.05 393.87 356.547 411.257 357.538 411.996C357.795 412.188 357.916 412.505 357.856 412.817L357.505 414.553C357.429 414.941 357.084 415.21 356.7 415.21V415.215Z" fill="#24AFB5"></path><path d="M418.75 370.505C417.775 366.147 411.967 352.926 407.28 341.089C403.541 331.64 393.282 323.209 382.519 321.835C374.509 320.817 365.821 320.609 357.467 321.266C343.539 322.361 331.577 329.669 326.973 341.889C322.823 352.893 318.301 366.41 318.197 373.253C318.088 380.545 322.495 387.514 327.302 392.923C333.367 399.75 342.017 404.004 351.363 404.869C364.71 406.106 385.541 407.343 395.006 404.256C409.514 399.515 421.104 381.049 418.744 370.499L418.75 370.505Z" fill="#24AFB5"></path><path d="M347.034 354.964H404.232C406.827 354.964 408.93 357.072 408.93 359.661V397.48C408.93 400.075 406.822 402.177 404.232 402.177H347.034C344.439 402.177 342.336 400.069 342.336 397.48V359.661C342.336 357.066 344.444 354.964 347.034 354.964Z" fill="#E4F9FA"></path><path d="M404.232 403.004H347.034C343.99 403.004 341.51 400.529 341.51 397.48V359.661C341.51 356.617 343.984 354.143 347.034 354.143H404.232C407.276 354.143 409.751 356.617 409.751 359.661V397.48C409.751 400.523 407.276 403.004 404.232 403.004ZM347.034 355.785C344.893 355.785 343.152 357.526 343.152 359.661V397.48C343.152 399.62 344.893 401.361 347.034 401.361H404.232C406.373 401.361 408.108 399.62 408.108 397.48V359.661C408.108 357.52 406.368 355.785 404.232 355.785H347.034Z" fill="#24AFB5"></path><path d="M408.021 402.412H342.265C340.634 402.412 339.309 403.736 339.309 405.368C339.309 406.999 340.634 408.324 342.265 408.324H408.021C409.658 408.324 410.977 406.999 410.977 405.368C410.977 403.736 409.652 402.412 408.021 402.412Z" fill="#E4F9FA"></path><path d="M408.021 409.145H342.265C340.179 409.145 338.488 407.448 338.488 405.368C338.488 403.287 340.185 401.59 342.265 401.59H408.021C410.107 401.59 411.804 403.287 411.804 405.368C411.804 407.448 410.107 409.145 408.021 409.145ZM342.265 403.227C341.088 403.227 340.13 404.185 340.13 405.362C340.13 406.539 341.088 407.497 342.265 407.497H408.021C409.198 407.497 410.161 406.539 410.161 405.362C410.161 404.185 409.203 403.227 408.021 403.227H342.265Z" fill="#24AFB5"></path><path d="M378.112 376.555C378.112 378.449 376.579 379.982 374.685 379.982C372.791 379.982 371.258 378.449 371.258 376.555C371.258 374.661 372.791 373.128 374.685 373.128C376.579 373.128 378.112 374.661 378.112 376.555Z" fill="white"></path><path d="M374.894 317.593C378.228 317.927 381.201 315.496 381.535 312.162L382.455 303.02C382.772 299.872 380.495 297.052 377.347 296.707L376.23 296.581C374.374 296.373 372.529 297.074 371.276 298.459L368.933 301.049C368.582 301.437 368.018 301.547 367.553 301.317C366.929 301.005 366.02 300.704 365.308 301.082C364.104 301.722 362.713 306.551 367.131 307.821L364.465 317.286C363.786 319.684 362.133 321.688 359.899 322.805C358.29 323.61 356.708 324.529 356.637 325.088C356.259 328.115 365.232 329.227 367.788 329.281C372.524 329.391 379.165 327.497 379.668 324.798C379.898 323.566 374.062 322.975 374.309 321.748C374.829 319.175 374.889 317.599 374.889 317.599L374.894 317.593Z" fill="white"></path><path d="M368.193 330.107C368.051 330.107 367.914 330.107 367.777 330.107C366.047 330.069 358.591 329.368 356.456 326.888C355.963 326.319 355.749 325.662 355.832 324.989C355.919 324.304 356.582 323.549 359.543 322.071C361.564 321.063 363.069 319.24 363.682 317.067L366.14 308.346C363.95 307.41 363.425 305.636 363.321 304.601C363.14 302.866 363.874 300.928 364.93 300.364C365.735 299.937 366.77 300.014 367.925 300.594C368.056 300.66 368.221 300.627 368.325 300.512L370.668 297.922C372.091 296.346 374.204 295.541 376.318 295.776L377.434 295.902C381.009 296.302 383.626 299.537 383.27 303.112L382.351 312.255C382.164 314.083 381.283 315.737 379.86 316.897C378.655 317.883 377.183 318.419 375.65 318.452C375.579 319.147 375.442 320.253 375.162 321.688C375.535 321.939 376.586 322.284 377.243 322.498C379.033 323.084 380.725 323.631 380.478 324.956C379.871 328.224 373.06 330.118 368.193 330.118V330.107ZM357.452 325.273C357.452 325.405 357.496 325.585 357.693 325.815C359.089 327.436 365.023 328.399 367.81 328.465C372.54 328.575 378.091 326.724 378.803 324.857C378.414 324.606 377.38 324.266 376.734 324.053C374.938 323.467 373.241 322.914 373.509 321.583C374.007 319.114 374.073 317.576 374.079 317.56L374.117 316.689L374.982 316.777C376.372 316.914 377.741 316.503 378.825 315.616C379.909 314.729 380.582 313.476 380.725 312.08L381.644 302.937C381.913 300.249 379.947 297.818 377.265 297.523L376.148 297.397C374.56 297.216 372.967 297.824 371.894 299.012L369.551 301.601C368.954 302.264 367.985 302.45 367.197 302.05C366.556 301.733 366.014 301.639 365.708 301.804C365.461 301.941 364.804 303.112 364.969 304.464C365.122 305.751 365.932 306.61 367.378 307.027L368.16 307.251L365.27 317.499C364.531 320.116 362.713 322.317 360.282 323.527C358.131 324.6 357.589 325.115 357.463 325.262L357.452 325.273Z" fill="#24AFB5"></path><path d="M375.381 318.441C375.348 318.441 375.315 318.441 375.282 318.441C374.472 318.348 370.372 317.718 369.37 314.696C369.227 314.264 369.463 313.804 369.89 313.662C370.317 313.519 370.782 313.749 370.924 314.182C371.636 316.339 375.31 316.793 375.468 316.81C375.917 316.864 376.24 317.269 376.186 317.724C376.136 318.14 375.78 318.452 375.37 318.452L375.381 318.441Z" fill="#24AFB5"></path><path d="M364.426 301.218L363.238 294.008C363.189 290.833 365.335 288.041 368.417 287.28L377.346 285.068C378.25 284.843 379.12 285.539 379.098 286.475C379.076 287.405 379.947 288.106 380.855 287.882L384.923 286.869C386.122 286.568 387.102 287.843 386.505 288.927L386.292 289.311C385.843 290.121 386.281 291.128 387.173 291.364L390.359 292.245C391.443 292.53 391.783 293.904 390.956 294.659L382.711 301.596C382.711 301.596 381.392 295.596 375.457 296.488C372.452 296.937 370.333 299.236 369.419 300.889C369.069 301.525 368.379 302.669 367.284 301.656C367.284 301.656 368.001 299.203 364.426 301.223V301.218Z" fill="#24AFB5"></path><path d="M436.893 181.623C436.499 181.623 436.148 181.333 436.082 180.933C427.953 130.069 388.645 96.4819 388.245 96.148C387.9 95.8578 387.851 95.3378 388.147 94.9929C388.437 94.648 388.957 94.5987 389.302 94.8943C389.4 94.9764 399.463 103.511 410.39 118.271C420.474 131.897 433.405 153.785 437.703 180.682C437.774 181.13 437.468 181.552 437.024 181.623C436.98 181.629 436.937 181.634 436.893 181.634V181.623Z" fill="#24AFB5"></path><path d="M445.673 181.946C445.252 181.946 444.896 181.629 444.858 181.202C441.841 148.836 419.001 117.795 418.771 117.488C418.503 117.127 418.574 116.612 418.941 116.338C419.302 116.065 419.817 116.141 420.091 116.508C420.326 116.82 443.434 148.217 446.495 181.054C446.538 181.508 446.204 181.908 445.756 181.946C445.728 181.946 445.706 181.946 445.679 181.946H445.673Z" fill="#24AFB5"></path><path d="M71.4115 86.036C71.2253 86.036 71.0392 85.9703 70.8859 85.8444C70.541 85.5543 70.4917 85.0342 70.7874 84.6893C93.1567 58.0279 122.692 38.6697 156.202 28.7168C170.152 24.5725 184.522 22.1418 198.926 21.4903C199.386 21.4465 199.764 21.8188 199.786 22.2732C199.808 22.7276 199.457 23.1108 199.003 23.1327C184.736 23.7787 170.497 26.1875 156.673 30.2935C123.475 40.1588 94.2132 59.3309 72.052 85.7513C71.8878 85.9429 71.6578 86.047 71.4224 86.047L71.4115 86.036Z" fill="#24AFB5"></path><path d="M68.3624 89.7638C68.1817 89.7638 68.0011 89.7036 67.8532 89.5831C67.4974 89.3039 67.4372 88.7838 67.7218 88.428C68.7182 87.1688 69.7475 85.9097 70.7822 84.6779C71.0723 84.333 71.5924 84.2837 71.9373 84.5739C72.2822 84.864 72.3315 85.3841 72.0413 85.729C71.0176 86.9444 69.9993 88.1981 69.0084 89.4408C68.8441 89.6434 68.6087 89.7529 68.3624 89.7529V89.7638Z" fill="#24AFB5"></path><path d="M48.5772 87.4919C48.4021 87.4919 48.2269 87.4372 48.0791 87.3222C47.7177 87.0485 47.652 86.5284 47.9312 86.1726C61.5138 68.506 77.8828 53.3139 96.5841 41.007C115.937 28.273 137.304 18.9771 160.09 13.3711C160.533 13.2616 160.977 13.5299 161.081 13.9733C161.19 14.4113 160.922 14.8602 160.478 14.9697C116.156 25.8752 76.6456 51.5128 49.2342 87.1744C49.07 87.3824 48.8291 87.4974 48.5827 87.4974L48.5772 87.4919Z" fill="#24AFB5"></path><path d="M214.885 24.6708C212.547 24.6708 210.385 23.1489 209.689 20.7948C209.279 19.4097 209.432 17.9425 210.122 16.6724C210.812 15.4023 211.956 14.4716 213.341 14.061C214.726 13.6504 216.193 13.8037 217.463 14.4935C218.734 15.1833 219.664 16.3275 220.075 17.7126C220.923 20.5758 219.286 23.5978 216.423 24.4464C215.909 24.5997 215.394 24.6708 214.885 24.6708ZM214.89 15.4735C214.529 15.4735 214.168 15.5282 213.812 15.6322C212.843 15.9169 212.049 16.5684 211.567 17.4553C211.085 18.3422 210.981 19.3604 211.266 20.3295C211.857 22.3222 213.965 23.4664 215.958 22.8751C217.951 22.2839 219.095 20.1762 218.504 18.1834C218.219 17.2144 217.567 16.4206 216.681 15.9388C216.122 15.6377 215.509 15.4789 214.885 15.4789L214.89 15.4735Z" fill="#24AFB5"></path><path d="M151.894 47.8997C151.801 47.8997 151.708 47.8833 151.615 47.8504L142.998 44.7299C142.697 44.6204 142.489 44.3522 142.462 44.0346C142.434 43.7171 142.588 43.416 142.861 43.2518L150.159 38.9214C150.389 38.7845 150.674 38.7681 150.92 38.883C151.166 38.998 151.341 39.2225 151.385 39.4852L152.705 46.9362C152.754 47.2263 152.65 47.5165 152.425 47.7081C152.278 47.834 152.086 47.8997 151.894 47.8997ZM145.188 43.7773L150.832 45.8194L149.967 40.9415L145.188 43.7773Z" fill="#24AFB5"></path><path d="M17.7338 181.59C17.2794 181.59 16.9126 181.224 16.9126 180.769V176.521C16.9126 176.067 17.2794 175.7 17.7338 175.7C18.1882 175.7 18.555 176.067 18.555 176.521V180.769C18.555 181.224 18.1882 181.59 17.7338 181.59Z" fill="#24AFB5"></path><path d="M17.7338 191.483C17.2794 191.483 16.9126 191.116 16.9126 190.662V186.419C16.9126 185.964 17.2794 185.598 17.7338 185.598C18.1882 185.598 18.555 185.964 18.555 186.419V190.662C18.555 191.116 18.1882 191.483 17.7338 191.483Z" fill="#24AFB5"></path><path d="M14.9087 184.415H10.6659C10.2115 184.415 9.84473 184.049 9.84473 183.594C9.84473 183.14 10.2115 182.773 10.6659 182.773H14.9087C15.3631 182.773 15.7299 183.14 15.7299 183.594C15.7299 184.049 15.3631 184.415 14.9087 184.415Z" fill="#24AFB5"></path><path d="M24.8019 184.415H20.5536C20.0992 184.415 19.7324 184.049 19.7324 183.594C19.7324 183.14 20.0992 182.773 20.5536 182.773H24.8019C25.2563 182.773 25.6231 183.14 25.6231 183.594C25.6231 184.049 25.2563 184.415 24.8019 184.415Z" fill="#24AFB5"></path><path d="M418.132 297.839C417.677 297.839 417.311 297.473 417.311 297.018V292.775C417.311 292.321 417.677 291.954 418.132 291.954C418.586 291.954 418.953 292.321 418.953 292.775V297.018C418.953 297.473 418.586 297.839 418.132 297.839Z" fill="#24AFB5"></path><path d="M418.132 307.727C417.677 307.727 417.311 307.36 417.311 306.906V302.658C417.311 302.203 417.677 301.836 418.132 301.836C418.586 301.836 418.953 302.203 418.953 302.658V306.906C418.953 307.36 418.586 307.727 418.132 307.727Z" fill="#24AFB5"></path><path d="M415.312 300.659H411.069C410.615 300.659 410.248 300.292 410.248 299.838C410.248 299.383 410.615 299.017 411.069 299.017H415.312C415.766 299.017 416.133 299.383 416.133 299.838C416.133 300.292 415.766 300.659 415.312 300.659Z" fill="#24AFB5"></path><path d="M425.2 300.659H420.952C420.497 300.659 420.13 300.292 420.13 299.838C420.13 299.383 420.497 299.017 420.952 299.017H425.2C425.654 299.017 426.021 299.383 426.021 299.838C426.021 300.292 425.654 300.659 425.2 300.659Z" fill="#24AFB5"></path><path d="M20.6959 211.515C18.0298 211.515 15.8618 209.347 15.8618 206.681C15.8618 204.015 18.0298 201.847 20.6959 201.847C23.362 201.847 25.53 204.015 25.53 206.681C25.53 209.347 23.362 211.515 20.6959 211.515ZM20.6959 203.484C18.9331 203.484 17.5042 204.918 17.5042 206.675C17.5042 208.433 18.9385 209.867 20.6959 209.867C22.4533 209.867 23.8876 208.433 23.8876 206.675C23.8876 204.918 22.4533 203.484 20.6959 203.484Z" fill="#24AFB5"></path><path d="M390.325 38.7578C389.871 38.7578 389.504 38.391 389.504 37.9366V33.6938C389.504 33.2394 389.871 32.8726 390.325 32.8726C390.779 32.8726 391.146 33.2394 391.146 33.6938V37.9366C391.146 38.391 390.779 38.7578 390.325 38.7578Z" fill="#24AFB5"></path><path d="M390.325 48.6503C389.871 48.6503 389.504 48.2835 389.504 47.8292V43.5863C389.504 43.1319 389.871 42.7651 390.325 42.7651C390.779 42.7651 391.146 43.1319 391.146 43.5863V47.8292C391.146 48.2835 390.779 48.6503 390.325 48.6503Z" fill="#24AFB5"></path><path d="M387.5 41.5828H383.252C382.797 41.5828 382.431 41.216 382.431 40.7616C382.431 40.3072 382.797 39.9404 383.252 39.9404H387.5C387.955 39.9404 388.321 40.3072 388.321 40.7616C388.321 41.216 387.955 41.5828 387.5 41.5828Z" fill="#24AFB5"></path><path d="M397.393 41.5828H393.144C392.69 41.5828 392.323 41.216 392.323 40.7616C392.323 40.3072 392.69 39.9404 393.144 39.9404H397.393C397.847 39.9404 398.214 40.3072 398.214 40.7616C398.214 41.216 397.847 41.5828 397.393 41.5828Z" fill="#24AFB5"></path><path d="M415.56 55.8146C415.915 53.627 414.43 51.5657 412.242 51.2106C410.054 50.8555 407.993 52.3411 407.638 54.5287C407.283 56.7163 408.769 58.7776 410.956 59.1327C413.144 59.4878 415.205 58.0023 415.56 55.8146Z" fill="#E4F9FA"></path><path d="M142.276 365.529L134.595 444.167L129.115 443.937L131.836 361.27L142.276 365.529Z" fill="#E4F9FA"></path><path d="M39.2661 362.705L46.7609 444.358L52.4271 443.937L49.7062 358.287L39.2661 362.705Z" fill="#E4F9FA"></path><path d="M13.1792 343.489L15.3855 429.232L19.809 428.274L23.8656 339.41L13.1792 343.489Z" fill="#E4F9FA"></path><path d="M99.6235 341.567L101.83 427.316L106.428 427.343L110.31 337.494L99.6235 341.567Z" fill="#E4F9FA"></path><path d="M77.4129 274.602V294.551C77.4129 314.063 92.802 329.884 111.788 329.884C130.774 329.884 146.163 345.701 146.163 365.218C146.163 366.959 144.756 368.366 143.021 368.366H52.0325C23.5755 368.366 0.5 344.649 0.5 315.399V272.828C0.5 261.194 9.67545 251.762 20.997 251.762H55.1914C67.4655 251.762 77.4129 261.988 77.4129 274.602Z" fill="#E4F9FA"></path><path d="M90.2463 281.997C90.2463 281.997 94.9216 324.475 126.297 327.256L90.2463 327.771C90.2463 327.771 76.8992 300.693 76.3572 290.149C75.8152 279.605 90.2463 282.003 90.2463 282.003V281.997Z" fill="white"></path><path d="M90.2461 328.587C89.934 328.587 89.6494 328.412 89.507 328.127C88.9595 327.016 76.0778 300.776 75.5358 290.183C75.3935 287.385 76.2146 285.162 77.9884 283.586C82.1491 279.868 90.0435 281.128 90.3775 281.182C90.7388 281.243 91.018 281.538 91.0618 281.905C91.0727 282.009 92.2826 292.553 97.2645 303.272C103.889 317.517 113.677 325.308 126.368 326.43C126.806 326.468 127.134 326.841 127.118 327.279C127.101 327.717 126.745 328.061 126.307 328.067L90.257 328.582H90.2461V328.587ZM86.9066 282.589C84.4485 282.589 81.1363 282.983 79.0779 284.817C77.6983 286.049 77.0577 287.829 77.1727 290.106C77.6599 299.615 88.9979 323.32 90.7498 326.939L118.72 326.539C109.051 323.353 101.195 315.661 95.7535 303.929C91.3793 294.502 89.8574 285.212 89.507 282.732C88.9377 282.666 88.007 282.589 86.9011 282.589H86.9066Z" fill="#24AFB5"></path><path d="M45.5894 255.002C51.6772 253.568 54.2174 253.551 76.3404 254.351C81.7493 254.548 88.1819 261.342 88.817 266.723C87.098 271.886 79.1653 297.365 93.016 317.27C94.9814 320.095 97.653 323.194 101.321 326.161C99.2626 327.831 96.0599 329.999 91.7569 331.28C84.618 333.404 81.0266 331.11 75.2783 331.28C60.0588 331.734 54.4802 348.7 44.6533 346.571C42.0309 346.001 38.5491 343.954 35.2917 337.078C33.4413 331.378 31.7989 324.683 30.8846 317.117C28.3992 296.609 32.4613 279.534 36.091 268.82C37.1695 265.437 38.4177 256.688 45.5949 255.002H45.5894Z" fill="#24AFB5"></path><path d="M94.3681 286.754C94.3681 286.754 90.7877 258.035 80.479 255.582L82.844 293.362L94.3681 286.754Z" fill="#24AFB5"></path><path d="M41.966 279.092C37.2578 281.09 31.723 283.439 26.8506 285.535C26.8506 285.596 26.8506 285.656 26.8506 285.716L41.9605 279.196V279.092H41.966Z" fill="white"></path><path d="M25.9962 286.975L26.04 284.987L26.5218 284.779C30.677 282.995 35.7629 280.827 41.6372 278.336L42.8416 277.827L42.7485 279.748L25.9907 286.98L25.9962 286.975Z" fill="#24AFB5"></path><path d="M24.2061 292.021C24.2061 292.021 25.2134 274.962 26.6861 268.365C29.7847 254.498 47.7359 254.35 47.7359 254.35L44.599 289.65L24.2061 292.021Z" fill="#24AFB5"></path><path d="M63.1941 254.367L63.8018 245.739C64.2124 245.711 64.4971 245.695 64.5847 245.689C66.988 245.662 67.7709 244.879 67.9789 242.903C68.1103 241.665 68.1541 239.831 67.5519 237.532C67.4862 237.286 67.5026 237.028 67.6012 236.793L68.0118 235.829C68.0994 235.512 67.9899 235.173 67.7326 234.964L67.5136 234.784C66.7307 234.138 66.0792 233.349 65.5537 232.468C65.0719 231.658 64.2562 230.147 63.6923 229.879C62.1101 229.123 55.6994 225.767 52.119 231.63C49.3269 236.207 53.8927 242.503 55.5515 244.567C55.9512 245.065 52.8416 254.843 52.8416 254.843L48.8232 255.817C48.8232 255.817 51.9274 261.336 61.3492 259.053C68.061 257.427 66.9935 254.93 66.9935 254.93L63.1996 254.372L63.1941 254.367Z" fill="white"></path><path d="M57.0083 260.426C50.5647 260.426 48.2216 256.419 48.1066 256.216C47.9807 255.992 47.9643 255.724 48.0683 255.488C48.1723 255.253 48.3803 255.078 48.6267 255.017L52.1961 254.152C53.4389 250.222 54.6597 245.935 54.7583 244.889C52.656 242.229 48.5008 235.977 51.4187 231.203C53.9754 227.015 58.1689 226.292 63.879 229.057L64.0487 229.139C64.7111 229.456 65.2969 230.398 66.0469 231.69L66.2604 232.051C66.7586 232.884 67.3554 233.59 68.0342 234.148L68.2532 234.329C68.7569 234.739 68.9704 235.413 68.8006 236.042C68.7897 236.081 68.7788 236.114 68.7623 236.152L68.3517 237.115C68.3244 237.176 68.3244 237.252 68.3408 237.323C68.8444 239.24 68.9868 241.09 68.7897 242.99C68.5324 245.459 67.3116 246.477 64.5907 246.51C64.5852 246.51 64.5797 246.51 64.5688 246.51L64.0651 253.665L67.109 254.114C67.3937 254.158 67.6346 254.344 67.744 254.607C67.7824 254.694 68.0835 255.472 67.5853 256.463C66.8572 257.914 64.8206 259.058 61.5358 259.852C59.8387 260.262 58.3332 260.432 57.0029 260.432L57.0083 260.426ZM50.2636 256.309C51.572 257.634 54.7966 259.791 61.1581 258.247C64.7056 257.388 65.7677 256.342 66.0852 255.795C66.1181 255.735 66.1455 255.68 66.1674 255.631L63.0797 255.176C62.6527 255.111 62.3516 254.733 62.3789 254.306L62.9866 245.678C63.014 245.267 63.3425 244.944 63.7476 244.917C64.1855 244.889 64.4867 244.868 64.5742 244.868C66.6053 244.846 66.9995 244.336 67.1637 242.82C67.3389 241.123 67.2075 239.459 66.7586 237.74C66.6491 237.318 66.6765 236.864 66.8462 236.469L67.213 235.61L66.994 235.418C66.1674 234.739 65.4447 233.885 64.8535 232.889L64.6345 232.517C64.3388 232.002 63.6381 230.809 63.3315 230.612L63.1727 230.535C61.3771 229.664 55.9025 227.02 52.8257 232.062C50.384 236.064 54.3696 241.78 56.1926 244.052C56.4937 244.43 56.8715 244.895 53.625 255.094C53.5374 255.368 53.313 255.576 53.0338 255.642L50.2581 256.315L50.2636 256.309Z" fill="#24AFB5"></path><path d="M54.0968 224.169C55.8322 223.797 57.8305 224.06 58.6736 223.753C60.0313 223.255 60.0696 221.623 61.9529 221.164C64.2303 220.611 65.1829 221.58 66.0698 222.937C66.2176 223.162 66.349 223.419 66.453 223.704C67.8873 227.547 66.0752 229.425 65.2705 230.033C65.2705 230.033 60.1462 232.682 59.2703 233.438C58.4491 234.144 57.502 235.825 58.0987 238.233C58.1754 238.546 58.0385 238.869 57.7757 239.027C57.4692 239.213 57.0695 239.126 56.856 238.819C56.1881 237.85 54.7318 235.983 53.6971 236.427C52.3942 236.985 52.7993 240.889 55.6735 241.338C56.5549 241.474 57.2721 242.378 57.1845 243.303C57.1297 243.905 56.5604 244.639 55.7173 244.83C55.2027 244.951 54.6935 244.743 54.2391 244.453C52.3668 243.254 47.0838 238.179 46.4269 233.624C45.6385 228.138 51.7756 224.667 54.0913 224.169H54.0968Z" fill="#24AFB5"></path><path d="M64.4545 246.413C64.4545 246.413 64.4381 246.413 64.4271 246.413C64.3341 246.413 62.1497 246.314 60.562 244.968C60.239 244.694 60.2007 244.212 60.4745 243.895C60.7482 243.572 61.23 243.533 61.5475 243.807C62.719 244.803 64.4655 244.891 64.4819 244.891C64.9034 244.907 65.2319 245.263 65.2155 245.685C65.199 246.095 64.8596 246.418 64.4545 246.418V246.413Z" fill="#24AFB5"></path><path d="M113.053 327.447L127.096 286.059C127.939 284.762 129.406 283.973 130.983 283.973H168.418C170.115 283.973 171.21 285.621 170.657 287.077C170.438 287.658 170.197 288.227 170.006 288.818L157.31 327.518C157.272 329.779 155.427 331.602 153.16 331.602H84.0761C81.7823 331.602 79.9209 329.741 79.9209 327.442H113.059L113.053 327.447Z" fill="#E4F9FA"></path><path d="M153.155 332.429H84.0707C81.3279 332.429 79.0942 330.195 79.0942 327.447C79.0942 326.993 79.461 326.626 79.9154 326.626H112.462L126.318 285.791C126.34 285.725 126.368 285.665 126.406 285.61C127.408 284.072 129.116 283.152 130.983 283.152H168.418C169.497 283.152 170.466 283.656 171.068 284.526C171.648 285.369 171.779 286.431 171.424 287.367L171.232 287.86C171.068 288.276 170.914 288.67 170.783 289.075L158.12 327.682C157.994 330.31 155.799 332.429 153.149 332.429H153.155ZM80.8406 328.268C81.2074 329.713 82.5159 330.786 84.0707 330.786H153.155C154.961 330.786 156.451 329.314 156.483 327.507C156.483 327.392 156.511 327.283 156.555 327.184L169.223 288.566C169.371 288.123 169.54 287.685 169.705 287.269L169.891 286.792C170.06 286.355 169.995 285.867 169.716 285.468C169.425 285.046 168.949 284.8 168.418 284.8H130.983C129.707 284.8 128.541 285.407 127.84 286.431L113.831 327.721C113.716 328.055 113.404 328.279 113.053 328.279H80.8406V328.268Z" fill="#24AFB5"></path><path d="M140.875 305.187C140.35 306.939 141.154 308.735 142.676 309.195C144.198 309.655 145.863 308.609 146.388 306.852C146.914 305.1 146.109 303.304 144.587 302.844C143.065 302.384 141.401 303.43 140.875 305.187Z" fill="#E4F9FA"></path><path d="M40.4055 286.973C45.5845 305.844 60.9737 317.888 83.2882 324.227L79.883 330.589C48.8748 329.499 32.6097 316.021 26.1113 290.159L40.4055 286.978V286.973Z" fill="white"></path><path d="M80.3647 331.427L79.8555 331.41C49.4167 330.337 32.084 317.297 25.3174 290.356L25.1094 289.535L40.9912 286.004L41.1993 286.759C46.0717 304.503 60.3057 316.848 83.5126 323.439L84.4925 323.719L80.3647 331.427ZM27.1186 290.772C33.7921 316.191 50.4295 328.591 79.4011 329.746L82.0837 324.731C59.1889 317.998 44.9767 305.625 39.8251 287.942L27.1186 290.767V290.772Z" fill="#24AFB5"></path><path d="M77.9876 323.702C78.3051 323.084 78.8307 322.597 79.4876 322.361C79.953 322.191 80.4129 321.972 80.8508 321.737L86.9222 318.512C88.0609 317.954 89.6868 319.252 90.8639 319.64C94.4279 320.812 101.808 323.566 101.2 326.155C100.543 328.947 94.2034 327.628 91.9533 327.064C91.4387 326.932 86.7798 328.624 85.3072 328.734C83.2706 328.887 82.7998 328.372 81.8089 327.847C81.3545 327.606 80.8508 327.502 80.3034 327.496C79.4657 327.491 78.6665 327.14 78.1409 326.484L78.1299 326.467C77.5496 325.744 77.4511 324.748 77.8726 323.927L77.9931 323.691L77.9876 323.702Z" fill="white"></path><path d="M84.6284 329.593C83.1941 329.593 82.5371 329.215 81.8419 328.816C81.7105 328.739 81.5736 328.662 81.4258 328.586C81.1028 328.416 80.736 328.334 80.2925 328.328C79.1812 328.323 78.1629 327.841 77.495 327.009C76.7012 326.018 76.5643 324.677 77.1337 323.566L77.2541 323.33C77.6757 322.509 78.3655 321.89 79.2031 321.589C79.5699 321.458 79.9695 321.272 80.4623 321.014L86.5336 317.795C87.7216 317.21 89.03 317.872 90.0812 318.398C90.4644 318.589 90.8257 318.77 91.1213 318.868C98.9062 321.425 102.563 323.943 101.999 326.352C101.835 327.042 101.414 327.617 100.768 328.011C98.6489 329.303 94.3021 328.504 91.8385 327.891C91.4772 327.934 90.2728 328.296 89.3749 328.558C87.8201 329.018 86.2161 329.495 85.3675 329.56C85.0993 329.582 84.8529 329.588 84.6284 329.588V329.593ZM87.5519 319.202C87.4479 319.202 87.3603 319.219 87.2836 319.257L81.2342 322.465C80.6758 322.761 80.205 322.974 79.7615 323.133C79.3181 323.292 78.9458 323.626 78.7159 324.075L78.5954 324.31C78.3217 324.847 78.3874 325.498 78.7651 325.963C79.1319 326.423 79.6903 326.681 80.3035 326.681C81.0043 326.681 81.6338 326.834 82.1868 327.124C82.351 327.212 82.5043 327.299 82.6521 327.381C83.331 327.77 83.7799 328.027 85.2416 327.918C85.915 327.869 87.5738 327.376 88.9096 326.982C91.1597 326.314 91.729 326.166 92.1506 326.275C95.7802 327.184 98.7529 327.31 99.9136 326.604C100.182 326.44 100.341 326.237 100.401 325.974C100.647 324.929 97.6854 322.75 90.6122 320.423C90.2016 320.286 89.7855 320.078 89.3476 319.859C88.7508 319.558 88.0337 319.197 87.5574 319.197L87.5519 319.202Z" fill="#24AFB5"></path><path d="M105.543 424.104C106.419 423.217 111.489 407.434 111.489 407.434L121.502 414.584L110.525 429.354L105.549 424.099L105.543 424.104Z" fill="white"></path><path d="M110.525 430.176C110.3 430.176 110.087 430.083 109.928 429.919L104.952 424.669C104.656 424.357 104.651 423.87 104.941 423.552C105.548 422.698 108.362 414.497 110.711 407.183C110.793 406.931 110.985 406.74 111.237 406.657C111.483 406.575 111.757 406.614 111.97 406.767L121.983 413.917C122.164 414.043 122.284 414.24 122.317 414.459C122.35 414.678 122.295 414.897 122.164 415.077L111.187 429.848C111.045 430.045 110.821 430.165 110.58 430.176C110.563 430.176 110.547 430.176 110.53 430.176H110.525ZM106.55 423.968L110.448 428.08L120.341 414.765L111.926 408.754C110.448 413.331 107.766 421.444 106.55 423.968ZM104.963 423.525L104.946 423.541L104.963 423.525Z" fill="#24AFB5"></path><path d="M123.587 444.056L116.929 444.017C112.522 443.99 108.427 441.751 106.024 438.055L99.438 427.621C97.6205 424.736 98.6387 420.914 101.644 419.316C104.393 417.854 107.272 416.431 107.946 416.496C109.314 416.628 109.867 423.115 109.867 423.115L115.802 423.345C115.802 423.345 118.731 435.543 121.309 436.933C123.187 437.946 124.501 439.43 125.382 440.782C126.307 442.2 125.278 444.077 123.587 444.067V444.056Z" fill="#24AFB5"></path><path d="M122.919 442.276C122.881 442.276 122.837 442.276 122.793 442.265L113.684 440.891C111.39 440.546 109.392 439.205 108.198 437.212L100.15 423.756C99.9205 423.367 100.046 422.863 100.435 422.628C100.824 422.393 101.327 422.524 101.563 422.913L109.611 436.369C110.547 437.94 112.123 438.997 113.93 439.265L123.04 440.639C123.489 440.705 123.795 441.127 123.73 441.576C123.669 441.981 123.319 442.276 122.919 442.276Z" fill="white"></path><path d="M111.674 432.154C111.312 432.154 110.984 431.913 110.88 431.546C110.759 431.108 111.017 430.659 111.455 430.539L116.53 429.154C116.968 429.033 117.416 429.291 117.537 429.729C117.657 430.167 117.4 430.615 116.962 430.736L111.887 432.121C111.816 432.143 111.745 432.148 111.668 432.148L111.674 432.154Z" fill="white"></path><path d="M114.318 434.759C113.945 434.759 113.611 434.508 113.518 434.135C113.409 433.697 113.683 433.248 114.12 433.144L117.52 432.312C117.964 432.203 118.407 432.476 118.511 432.914C118.621 433.352 118.347 433.801 117.909 433.905L114.509 434.737C114.443 434.754 114.378 434.759 114.312 434.759H114.318Z" fill="white"></path><path d="M139.705 421.094L151.328 432.788L157.492 430.522L146.778 415.56L139.705 421.094Z" fill="white"></path><path d="M151.333 433.61C151.119 433.61 150.906 433.527 150.753 433.369L139.13 421.675C138.966 421.511 138.878 421.281 138.895 421.045C138.911 420.81 139.02 420.596 139.207 420.449L146.28 414.914C146.455 414.777 146.679 414.717 146.904 414.75C147.123 414.782 147.325 414.903 147.457 415.083L158.171 430.046C158.318 430.254 158.362 430.522 158.286 430.763C158.209 431.009 158.023 431.201 157.782 431.294L151.618 433.56C151.524 433.593 151.431 433.61 151.333 433.61ZM140.942 421.171L151.541 431.836L156.194 430.122L146.608 416.737L140.942 421.171Z" fill="#24AFB5"></path><path d="M78.1749 334.777C78.1749 334.777 131.3 328.256 147.095 342.671C162.894 357.086 122.158 419.08 122.158 419.08L109.276 409.007L121.495 365.188L72.3882 350.483L78.1749 334.766V334.777Z" fill="#26D0D8"></path><path d="M48.9407 363.305C56.6599 365.889 70.4669 369.223 89.7649 368.949C95.2504 368.873 100.309 372.064 102.8 377.216C108.515 389.036 120.888 410.316 141.04 424.106L150.664 418.637L126.1 360.338C123.855 355.016 119.662 350.878 114.477 348.874L65.7915 330.052C65.7915 330.052 50.6926 325.601 43.2909 339.813C41.9715 342.348 39.5134 337.815 38.9276 339.863C36.9239 346.881 42.3109 361.093 48.9407 363.311V363.305Z" fill="#26D0D8"></path><path d="M137.202 389.391C136.885 389.391 136.589 389.21 136.452 388.904L125.35 363.885C123.209 359.062 119.141 355.251 114.192 353.434L90.8759 344.877C90.4489 344.718 90.2299 344.247 90.3887 343.826C90.5474 343.399 91.0182 343.185 91.4453 343.339L114.762 351.895C120.127 353.866 124.534 357.994 126.855 363.222L137.958 388.241C138.144 388.657 137.958 389.139 137.542 389.325C137.432 389.375 137.323 389.397 137.208 389.397L137.202 389.391Z" fill="white"></path><path d="M124.238 410.896C124.024 410.896 123.805 410.814 123.647 410.644C121.402 408.312 119.201 405.805 117.094 403.194C116.809 402.843 116.864 402.323 117.214 402.038C117.57 401.754 118.084 401.808 118.369 402.159C120.45 404.732 122.623 407.201 124.829 409.5C125.141 409.829 125.13 410.349 124.807 410.661C124.649 410.814 124.446 410.891 124.238 410.891V410.896Z" fill="white"></path><path d="M117.729 403.499C117.488 403.499 117.253 403.395 117.088 403.193C116.059 401.917 115.025 400.587 114.023 399.235C113.754 398.868 113.826 398.359 114.192 398.085C114.554 397.811 115.068 397.888 115.342 398.255C116.333 399.585 117.351 400.899 118.37 402.158C118.654 402.509 118.599 403.029 118.249 403.313C118.096 403.434 117.915 403.494 117.734 403.494L117.729 403.499Z" fill="white"></path><path d="M147.659 430.956C147.659 430.956 147.095 435.932 148.048 440.328C148.557 442.671 150.665 444.319 153.057 444.319H181.586C183.622 444.319 184.547 441.773 182.987 440.46C177.912 436.206 168.583 429.707 157.109 427.802L153.906 432.286L147.654 430.961L147.659 430.956Z" fill="#24AFB5"></path><path d="M180.233 441.215H150.67C150.216 441.215 149.849 440.848 149.849 440.394C149.849 439.94 150.216 439.573 150.67 439.573H180.233C180.688 439.573 181.054 439.94 181.054 440.394C181.054 440.848 180.688 441.215 180.233 441.215Z" fill="white"></path><path d="M163.733 435.954C163.629 435.954 163.525 435.932 163.421 435.894C162.999 435.719 162.802 435.242 162.972 434.821L164.538 431.021C164.713 430.6 165.189 430.403 165.611 430.573C166.032 430.748 166.229 431.224 166.06 431.646L164.494 435.445C164.362 435.762 164.056 435.954 163.733 435.954Z" fill="white"></path><path d="M168.879 436.955C168.791 436.955 168.709 436.945 168.622 436.912C168.189 436.769 167.959 436.304 168.102 435.877L169.235 432.45C169.377 432.017 169.843 431.787 170.27 431.93C170.702 432.072 170.932 432.537 170.79 432.964L169.656 436.392C169.541 436.737 169.224 436.955 168.879 436.955Z" fill="white"></path><path d="M184.243 330.7H6.99729C3.6961 330.7 1.12851 333.804 1.50078 337.346L13.742 453.359H22.578L14.9191 344.474C14.7822 342.558 16.1892 340.921 17.9739 340.921H170.119C172.785 340.921 174.887 343.368 174.685 346.243L167.097 454.043H175.933L188.382 335.715C188.661 333.043 186.729 330.7 184.238 330.7H184.243Z" fill="white"></path><path d="M176.678 454.864H166.221L173.869 346.182C173.957 344.961 173.546 343.773 172.747 342.919C172.041 342.164 171.11 341.742 170.119 341.742H17.974C17.3882 341.742 16.8353 341.989 16.4192 342.443C15.9374 342.963 15.6911 343.68 15.7404 344.419L23.465 454.18H13.003L0.685167 337.434C0.471657 335.419 1.10671 333.421 2.42062 331.959C3.63051 330.618 5.251 329.879 6.9974 329.879H184.243C185.618 329.879 186.893 330.459 187.846 331.516C188.875 332.66 189.373 334.22 189.209 335.802L176.683 454.87L176.678 454.864ZM167.984 453.222H175.199L187.572 335.627C187.687 334.51 187.342 333.416 186.625 332.616C185.99 331.91 185.147 331.527 184.243 331.527H6.9974C5.72729 331.527 4.53382 332.074 3.64146 333.065C2.63413 334.182 2.15236 335.715 2.3166 337.264L14.4812 452.543H21.6967L14.098 344.54C14.0159 343.346 14.421 342.175 15.2093 341.326C15.9429 340.538 16.9229 340.105 17.9685 340.105H170.119C171.57 340.105 172.927 340.708 173.946 341.803C175.052 342.991 175.621 344.633 175.506 346.303L167.984 453.222Z" fill="#24AFB5"></path><path d="M271.635 12.2617C269.314 12.0482 267.173 14.55 266.035 16.5811C263.703 20.7528 263.237 25.9208 264.776 30.4429C266.889 36.6401 272.517 41.1074 278.993 41.8793C283.187 42.3775 287.134 41.1019 291.295 42.5637C295.86 44.1622 300.087 48.1861 305.008 48.427C310.149 48.6788 315.241 45.624 320.14 44.2225C326.595 42.3775 333.049 40.2643 338.809 36.8044C341.464 35.2058 344.037 33.2404 345.482 30.4976C348.515 24.7493 345.066 22.335 340.73 19.7126C335.004 16.2472 335.502 8.68126 327.246 8.80718C324 8.85645 320.786 9.81998 317.556 9.55173C310.532 8.96594 304.264 2.69751 297.393 4.28515C290.364 5.91111 287.057 14.9059 279.688 15.6559C277.416 15.8859 275.303 14.5282 273.524 13.0883C272.889 12.5737 272.248 12.3219 271.624 12.2671L271.635 12.2617Z" fill="#24AFB5"></path><path d="M317.354 108.341C317.354 108.341 308.107 111.784 304.477 108.883C300.853 105.981 310.1 101.087 312.273 101.448C314.447 101.809 317.348 108.341 317.348 108.341H317.354Z" fill="#24AFB5"></path><path d="M363.827 182.27L355.123 197.5L350.409 190.975L358.024 176.105L363.827 182.27Z" fill="white"></path><path d="M355.123 198.321C354.86 198.321 354.614 198.195 354.455 197.982L349.741 191.456C349.561 191.204 349.533 190.876 349.676 190.602L357.291 175.733C357.411 175.498 357.641 175.333 357.904 175.295C358.167 175.257 358.435 175.35 358.616 175.547L364.419 181.711C364.665 181.974 364.715 182.368 364.534 182.68L355.829 197.911C355.692 198.152 355.441 198.31 355.161 198.321C355.145 198.321 355.134 198.321 355.118 198.321H355.123ZM351.367 190.898L355.041 195.984L362.809 182.385L358.222 177.512L351.367 190.898Z" fill="#24AFB5"></path><path d="M358.134 195.18C355.841 199.91 350.032 211.39 344.432 216.887C343.068 218.228 340.758 217.604 340.271 215.753C338.519 209.129 337.353 195.322 343.879 184.444C343.879 184.444 346.983 184.083 352.786 185.167L351.494 190.608L352.205 190.099C353.278 189.333 354.735 189.399 355.737 190.258L357.406 191.692C358.414 192.557 358.709 193.986 358.134 195.18Z" fill="#24AFB5"></path><path d="M343.517 215.731C343.183 215.731 342.871 215.529 342.751 215.2C337.616 201.623 344.295 186.212 344.579 185.566C344.76 185.15 345.247 184.964 345.663 185.145C346.079 185.325 346.266 185.813 346.085 186.229C346.019 186.382 339.395 201.678 344.289 214.62C344.448 215.047 344.234 215.518 343.813 215.677C343.72 215.715 343.621 215.731 343.523 215.731H343.517Z" fill="white"></path><path d="M354.756 202.598C354.603 202.598 354.45 202.554 354.313 202.467L349.961 199.642C349.583 199.395 349.473 198.886 349.72 198.503C349.966 198.125 350.475 198.016 350.853 198.262L355.205 201.087C355.583 201.333 355.692 201.843 355.446 202.226C355.287 202.467 355.025 202.598 354.756 202.598Z" fill="white"></path><path d="M352.583 206.463C352.407 206.463 352.232 206.409 352.084 206.294L348.093 203.233C347.732 202.959 347.666 202.439 347.94 202.084C348.214 201.722 348.734 201.657 349.09 201.93L353.081 204.991C353.442 205.264 353.508 205.784 353.234 206.14C353.07 206.348 352.829 206.463 352.583 206.463Z" fill="white"></path><path d="M391.386 182.633C391.386 182.994 399.363 200.403 399.363 200.403L390.297 201.126L384.132 186.257L391.386 182.633Z" fill="white"></path><path d="M390.297 201.952C389.969 201.952 389.667 201.755 389.536 201.443L383.372 186.574C383.207 186.175 383.377 185.72 383.76 185.523L391.014 181.899C391.266 181.773 391.573 181.784 391.813 181.937C392.005 182.058 392.136 182.244 392.186 182.463C392.498 183.372 397.075 193.45 400.107 200.064C400.217 200.31 400.206 200.589 400.069 200.819C399.932 201.049 399.691 201.202 399.429 201.224L390.363 201.952C390.363 201.952 390.319 201.952 390.297 201.952ZM385.184 186.656L390.828 200.266L398.131 199.68C393.396 189.344 391.627 185.359 390.965 183.766L385.189 186.656H385.184Z" fill="#24AFB5"></path><path d="M391.026 196.778C391.026 196.778 392.838 192.426 397.552 194.605C397.552 194.605 406.207 207.103 409.421 217.428C410.329 220.346 407.335 222.98 404.548 221.721C398.028 218.775 387.807 212.594 381.96 201.136C381.96 201.136 383.772 196.422 386.674 194.243L391.026 196.784V196.778Z" fill="#24AFB5"></path><path d="M406.792 219.389C404.296 219.389 395.208 218.157 383.47 201.974C383.202 201.607 383.284 201.093 383.651 200.83C384.018 200.562 384.533 200.644 384.801 201.01C397.683 218.77 407.137 217.735 407.23 217.724C407.679 217.67 408.09 217.976 408.155 218.425C408.216 218.874 407.915 219.285 407.466 219.35C407.411 219.361 407.181 219.389 406.792 219.389Z" fill="white"></path><path d="M399.369 209.567C399.084 209.567 398.81 209.419 398.657 209.162C398.427 208.768 398.559 208.27 398.953 208.04L403.305 205.499C403.699 205.269 404.197 205.401 404.427 205.795C404.657 206.189 404.526 206.687 404.132 206.917L399.779 209.458C399.648 209.534 399.506 209.567 399.369 209.567Z" fill="white"></path><path d="M397.189 206.305C396.899 206.305 396.615 206.146 396.467 205.872C396.253 205.473 396.401 204.974 396.801 204.761L401.514 202.221C401.914 202.007 402.412 202.155 402.626 202.555C402.839 202.954 402.691 203.452 402.292 203.666L397.578 206.206C397.452 206.272 397.321 206.305 397.189 206.305Z" fill="white"></path><path d="M344.968 94.8688C344.968 94.8688 368.607 99.0897 385.639 116.948C389.936 121.453 391.458 127.946 389.613 133.897C385.83 146.106 377.591 168.398 363.828 185.167L353.311 176.101C353.311 176.101 355.851 155.068 362.738 142.011C369.631 128.954 329.376 100.666 329.376 100.666L344.968 94.8633V94.8688Z" fill="white"></path><path d="M363.828 185.994C363.631 185.994 363.439 185.923 363.291 185.797L352.774 176.731C352.566 176.55 352.462 176.282 352.495 176.008C352.523 175.794 355.134 154.673 362.016 141.633C364.643 136.656 359.826 128.154 348.077 117.046C339.022 108.484 329.004 101.416 328.905 101.345C328.653 101.17 328.522 100.869 328.56 100.568C328.599 100.267 328.801 100.009 329.086 99.9054L344.678 94.1023C344.814 94.053 344.962 94.0366 345.11 94.064C345.351 94.1078 369.209 98.5367 386.23 116.389C390.73 121.109 392.329 127.914 390.396 134.149C386.684 146.122 378.379 168.738 364.457 185.698C364.315 185.868 364.112 185.977 363.893 185.994C363.872 185.994 363.844 185.994 363.822 185.994H363.828ZM354.181 175.773L363.724 183.995C377.147 167.331 385.201 145.361 388.83 133.656C390.588 127.99 389.137 121.809 385.047 117.517C369.259 100.962 347.437 96.1991 345.039 95.7173L331.106 100.902C338.059 105.949 369.981 130.054 363.466 142.399C357.269 154.148 354.592 172.712 354.181 175.773Z" fill="#24AFB5"></path><path d="M394.288 185.895L381.959 189.519C381.959 189.519 359.475 142.01 352.949 135.123C346.423 128.231 333.728 116.991 320.309 113C306.891 109.009 306.891 98.8592 306.891 98.8592L329.737 92.3335C329.737 92.3335 361.648 106.113 372.165 121.71C382.682 137.302 394.288 185.9 394.288 185.9V185.895Z" fill="white"></path><path d="M381.959 190.346C381.647 190.346 381.357 190.171 381.214 189.875C380.99 189.399 358.714 142.41 352.347 135.687C348.542 131.669 334.965 118.218 320.068 113.789C306.223 109.672 306.064 98.9636 306.064 98.8596C306.064 98.4928 306.305 98.1698 306.661 98.0712L329.507 91.5455C329.687 91.4962 329.884 91.5072 330.06 91.5838C331.374 92.1532 362.316 105.637 372.844 121.256C383.322 136.793 394.611 183.727 395.082 185.714C395.186 186.141 394.934 186.568 394.512 186.694L382.183 190.318C382.107 190.34 382.03 190.351 381.954 190.351L381.959 190.346ZM307.751 99.4673C307.991 101.641 309.623 108.971 320.539 112.218C335.824 116.762 349.664 130.47 353.54 134.56C359.749 141.113 379.589 182.632 382.397 188.539L393.302 185.331C391.775 179.101 381.083 136.399 371.481 122.165C361.725 107.701 332.764 94.573 329.671 93.1988L307.745 99.4618L307.751 99.4673Z" fill="#24AFB5"></path><path d="M288.394 61.5062C294.558 49.1774 304.714 47.3653 304.714 47.3653L322.123 45.9145C327.565 45.5477 333.352 48.9091 335.503 53.9239L351.5 91.2498C351.5 91.2498 348.237 99.9544 333.729 101.405C319.222 102.856 309.252 101.947 304.533 107.75C301.424 111.577 301.522 86.0653 303.312 65.8859L288.394 61.5117V61.5062Z" fill="#26D0D8"></path><path d="M334.812 94.1465L326.836 90.5223L320.672 93.0626C320.672 93.0626 287.599 88.8745 302.386 65.2077C302.452 65.1037 290.764 62.7441 290.764 62.7441C290.764 62.7441 277.285 94.8746 319.943 95.6028C319.943 95.6028 322.117 96.3254 325.018 94.8801C327.92 93.4294 332.995 96.3309 334.812 94.1575V94.1465Z" fill="white"></path><path d="M321.4 96.5988C320.622 96.5988 320.07 96.4839 319.823 96.4182C305.513 96.1554 295.855 92.356 291.131 85.1131C284.725 75.2971 289.784 62.9464 290.003 62.4208C290.156 62.0595 290.539 61.8569 290.923 61.9336C298.916 63.5504 302.987 64.5322 303.137 64.8789C303.241 65.1253 303.219 65.41 303.076 65.6399C299.321 71.651 298.434 76.8574 300.454 81.1057C304.461 89.5475 318.663 91.9345 320.562 92.2137L326.519 89.761C326.727 89.6735 326.968 89.6789 327.17 89.772L335.147 93.3962C335.382 93.5002 335.552 93.7137 335.606 93.9601C335.661 94.2119 335.601 94.4692 335.437 94.6663C334.178 96.1828 331.966 95.8543 329.831 95.5313C328.194 95.2904 326.508 95.0386 325.38 95.597C323.803 96.3853 322.407 96.5879 321.389 96.5879L321.4 96.5988ZM291.289 63.6855C290.375 66.2695 287.364 76.3428 292.516 84.2262C296.939 90.9928 306.175 94.5459 319.96 94.7813C320.042 94.7813 320.124 94.7977 320.206 94.8251C320.278 94.847 322.128 95.4108 324.657 94.1462C326.245 93.3524 328.199 93.6426 330.083 93.9218C331.095 94.0751 332.075 94.2229 332.853 94.1626L326.82 91.4199L320.984 93.8232C320.852 93.878 320.71 93.8944 320.568 93.878C319.878 93.7904 303.629 91.6279 298.976 81.8119C296.813 77.2625 297.536 71.8536 301.111 65.733C299.124 65.2895 294.596 64.3588 291.289 63.6855Z" fill="#24AFB5"></path><path d="M303.969 67.4955L287.77 62.9187L288.394 61.5117C288.394 61.5117 290.233 60.1048 290.589 60.1048C290.945 60.1048 300.098 59.7544 300.098 59.7544L305.732 61.5172L303.969 67.5064V67.4955Z" fill="#26D0D8"></path><path d="M365.361 96.5267H333.904L357.226 60.6625C357.954 59.5402 359.224 58.8613 360.587 58.8613H386.115C387.736 58.8613 388.721 60.5968 387.856 61.9271L365.361 96.5267Z" fill="#24AFB5"></path><path d="M371.627 71.4357C370.604 73.0069 368.408 74.2825 366.717 74.2825C365.025 74.2825 364.489 73.0069 365.507 71.4357C366.531 69.8645 368.726 68.5889 370.418 68.5889C372.109 68.5889 372.646 69.8645 371.627 71.4357Z" fill="white"></path><path d="M366.717 75.1036C365.272 75.1036 364.659 74.3754 364.424 73.9429C363.986 73.1327 364.128 72.0542 364.818 70.9866C365.989 69.18 368.453 67.7676 370.418 67.7676C371.864 67.7676 372.477 68.4957 372.712 68.9282C373.156 69.7384 373.008 70.8169 372.318 71.8845C371.146 73.6911 368.683 75.1036 366.717 75.1036ZM370.418 69.41C369 69.41 367.068 70.5432 366.197 71.8845C365.787 72.5195 365.765 72.9685 365.869 73.1601C365.973 73.3462 366.29 73.4612 366.717 73.4612C368.135 73.4612 370.068 72.3279 370.938 70.9866C371.349 70.3516 371.371 69.9027 371.267 69.7111C371.163 69.5249 370.845 69.41 370.418 69.41Z" fill="#24AFB5"></path><path d="M312.432 96.291H365.47V96.3512C365.47 97.9334 364.184 99.2199 362.601 99.2199H315.306C313.724 99.2199 312.438 97.9334 312.438 96.3512V96.291H312.432Z" fill="#24AFB5"></path><path d="M316.319 44.8252C316.642 44.661 321.005 39.5148 323.556 36.4819C323.365 35.6388 323.392 35.3705 323.463 34.095C323.463 34.095 322.138 32.7701 322.669 31.0511C323.288 29.0528 325.188 30.6569 325.188 30.6569C325.188 30.6569 326.069 29.1185 329.376 31.7683C332.682 34.418 336.175 31.1934 336.175 31.1934C336.175 31.1934 336.175 33.1807 334.429 35.5895C333.465 36.9199 333.301 38.6827 333.257 40.3251L331.401 40.0568C330.383 41.2667 329.622 41.858 328.221 42.4383C328.221 42.4383 327.115 42.2357 325.965 41.2831L323.934 45.9092L326.003 46.9986C326.003 46.9986 326.469 49.9002 321.032 50.6228C315.591 51.3455 311.238 46.9986 311.238 46.9986C311.238 46.9986 314.14 45.9092 316.313 44.8252H316.319Z" fill="white"></path><path d="M319.784 51.5314C314.671 51.5314 310.833 47.7539 310.658 47.5842C310.461 47.3871 310.379 47.1025 310.434 46.8287C310.494 46.555 310.685 46.3305 310.948 46.232C310.976 46.221 313.768 45.1699 315.87 44.1297C316.105 43.9053 317.249 42.6954 322.669 36.2572C322.56 35.6441 322.576 35.2335 322.62 34.374C322.177 33.7991 321.372 32.4579 321.881 30.8045C322.193 29.7917 322.79 29.4249 323.239 29.2935C323.945 29.0855 324.657 29.3592 325.138 29.6275C325.297 29.5399 325.494 29.4687 325.724 29.4249C326.819 29.2169 328.221 29.7863 329.885 31.1221C332.611 33.3064 335.496 30.695 335.617 30.5855C335.858 30.3666 336.203 30.3063 336.504 30.4377C336.805 30.5691 336.996 30.8648 336.996 31.1932C336.996 31.2863 336.975 33.4761 335.091 36.0711C334.27 37.2044 334.117 38.7975 334.073 40.3468C334.068 40.5822 333.958 40.8012 333.783 40.9545C333.608 41.1078 333.367 41.1734 333.137 41.1406L331.724 40.938C330.728 42.0494 329.879 42.6461 328.533 43.1991C328.385 43.2593 328.226 43.2757 328.073 43.2483C328.029 43.2429 327.263 43.095 326.315 42.5311L324.996 45.5367L326.387 46.2703C326.617 46.3908 326.775 46.6097 326.814 46.867C326.83 46.982 326.972 48.0167 326.157 49.1116C325.248 50.3325 323.562 51.1153 321.142 51.4383C320.682 51.4986 320.228 51.5259 319.784 51.5259V51.5314ZM312.826 47.2612C314.342 48.4109 317.425 50.2832 320.923 49.8124C324.268 49.3689 325.002 48.1098 325.155 47.4802L323.551 46.6371C323.168 46.4345 323.009 45.9747 323.178 45.5805L325.21 40.9545C325.314 40.7191 325.522 40.5439 325.773 40.4836C326.025 40.4289 326.288 40.4836 326.485 40.6479C327.164 41.2118 327.826 41.4691 328.155 41.5676C329.233 41.0913 329.879 40.5822 330.772 39.5201C330.952 39.3066 331.237 39.1971 331.516 39.2354L332.474 39.3723C332.573 37.8558 332.863 36.3394 333.761 35.0966C334.325 34.3192 334.686 33.5911 334.922 32.978C333.252 33.7608 330.963 34.0838 328.856 32.3976C327.076 30.9742 326.244 30.9907 326.031 31.0345C326.003 31.0345 325.971 31.0345 325.943 31.0345C325.921 31.0345 325.905 31.0345 325.899 31.0564C325.779 31.2699 325.571 31.4122 325.33 31.456C325.089 31.4943 324.843 31.4341 324.657 31.2753C324.377 31.0399 323.896 30.81 323.704 30.8647C323.644 30.8812 323.54 31.0016 323.458 31.2808C323.08 32.4962 324.038 33.4926 324.043 33.5035C324.208 33.6678 324.295 33.8977 324.284 34.1276L324.273 34.3247C324.213 35.4032 324.202 35.6003 324.361 36.2846C324.421 36.5364 324.356 36.7992 324.191 36.9963C317.211 45.2849 316.921 45.4272 316.691 45.5422C315.405 46.1882 313.888 46.8232 312.831 47.2448L312.826 47.2612Z" fill="#24AFB5"></path><path d="M325.964 41.288L325.368 40.7515L325.964 41.288Z" fill="white"></path><path d="M325.964 42.1093C325.767 42.1093 325.57 42.0382 325.417 41.8958L324.82 41.3538C324.481 41.0527 324.459 40.5326 324.76 40.1932C325.061 39.8593 325.581 39.8319 325.921 40.133L326.517 40.675C326.857 40.9761 326.879 41.4962 326.577 41.8356C326.413 42.0163 326.194 42.1093 325.97 42.1093H325.964Z" fill="#24AFB5"></path><path d="M407.953 251.607L408.791 255.171L412.793 255.138C413.132 255.927 413.537 256.682 413.997 257.388L411.758 260.701L414.265 263.372L417.714 261.341C418.399 261.85 419.121 262.299 419.882 262.682L419.598 266.673L423.107 267.73L425.072 264.254C425.91 264.352 426.764 264.374 427.623 264.33L429.375 267.927L432.939 267.089L432.906 263.087C433.695 262.748 434.45 262.343 435.156 261.883L438.469 264.122L441.14 261.615L439.109 258.166C439.618 257.481 440.067 256.759 440.45 255.998L444.441 256.283L445.498 252.773L442.022 250.808C442.12 249.97 442.142 249.116 442.098 248.257L445.695 246.505L444.857 242.941L440.856 242.974C440.516 242.185 440.111 241.43 439.651 240.724L441.89 237.412L439.383 234.74L435.934 236.771C435.25 236.262 434.527 235.813 433.766 235.43L434.051 231.439L430.541 230.382L428.576 233.859C427.738 233.76 426.884 233.738 426.025 233.782L424.273 230.185L420.709 231.023L420.742 235.025C419.953 235.364 419.198 235.769 418.492 236.229L415.18 233.99L412.508 236.497L414.539 239.946C414.03 240.631 413.581 241.353 413.198 242.114L409.207 241.83L408.15 245.339L411.627 247.304C411.528 248.142 411.506 248.996 411.55 249.855L407.953 251.607ZM424.662 239.881C429.731 238.693 434.806 241.835 435.994 246.905C437.188 251.974 434.04 257.049 428.97 258.237C423.901 259.43 418.826 256.283 417.638 251.213C416.444 246.144 419.592 241.069 424.662 239.875V239.881Z" fill="#E4F9FA"></path><path d="M26.7725 131.801L27.6101 135.365L31.612 135.332C31.9514 136.121 32.3566 136.876 32.8164 137.582L30.5773 140.894L33.0847 143.566L36.5337 141.535C37.218 142.044 37.9407 142.493 38.7016 142.876L38.417 146.867L41.9262 147.924L43.8916 144.447C44.7292 144.546 45.5832 144.568 46.4427 144.524L48.1946 148.121L51.7586 147.283L51.7257 143.281C52.5141 142.942 53.2696 142.537 53.9758 142.077L57.288 144.316L59.9596 141.809L57.9285 138.36C58.4376 137.675 58.8865 136.953 59.2698 136.192L63.2608 136.476L64.3174 132.967L60.841 131.002C60.9395 130.164 60.9614 129.31 60.9176 128.451L64.5145 126.699L63.6768 123.135L59.6749 123.168C59.3355 122.379 58.9303 121.624 58.4705 120.918L60.7096 117.605L58.2022 114.934L54.7532 116.965C54.0689 116.456 53.3462 116.007 52.5853 115.624L52.8699 111.633L49.3607 110.576L47.3953 114.052C46.5577 113.954 45.7037 113.932 44.8442 113.976L43.0923 110.379L39.5283 111.217L39.5612 115.218C38.7728 115.558 38.0173 115.963 37.3111 116.423L33.9989 114.184L31.3273 116.691L33.3584 120.14C32.8493 120.824 32.4004 121.547 32.0171 122.308L28.0261 122.023L26.9695 125.533L30.4459 127.498C30.3474 128.336 30.3255 129.19 30.3693 130.049L26.7725 131.801ZM43.481 120.074C48.5505 118.881 53.6254 122.029 54.8134 127.098C56.0069 132.168 52.859 137.243 47.7895 138.436C42.72 139.624 37.645 136.482 36.4571 131.412C35.2636 126.343 38.4115 121.268 43.481 120.08V120.074Z" fill="#E4F9FA"></path></svg> 