<?xml version="1.0" encoding="UTF-8" standalone="no"?>
<!DOCTYPE svg PUBLIC "-//W3C//DTD SVG 1.1//EN"
 "http://www.w3.org/Graphics/SVG/1.1/DTD/svg11.dtd">
<!-- Generated by graphviz version 2.47.0 (20210316.0004)
 -->
<!-- Title: dependencies Pages: 1 -->
<svg width="504pt" height="211pt"
 viewBox="0.00 0.00 504.00 211.00" xmlns="http://www.w3.org/2000/svg" xmlns:xlink="http://www.w3.org/1999/xlink">
<g id="graph0" class="graph" transform="scale(1 1) rotate(0) translate(4 207)">
<title>dependencies</title>
<polygon fill="white" stroke="transparent" points="-4,4 -4,-207 500,-207 500,4 -4,4"/>
<text text-anchor="start" x="227.01" y="-42.4" font-family="Times-12" font-weight="bold" font-size="14.00">Legend</text>
<polygon fill="#ffffb3" stroke="transparent" points="14,-10 14,-30 34,-30 34,-10 14,-10"/>
<text text-anchor="start" x="37.63" y="-15.4" font-family="Times-12" font-size="14.00"> &#160;Declarations</text>
<polygon fill="#8dd3c7" stroke="transparent" points="127,-10 127,-30 147,-30 147,-10 127,-10"/>
<text text-anchor="start" x="150.73" y="-15.4" font-family="Times-12" font-size="14.00"> &#160;Module</text>
<polygon fill="#80b1d3" stroke="transparent" points="213,-10 213,-30 233,-30 233,-10 213,-10"/>
<text text-anchor="start" x="236.78" y="-15.4" font-family="Times-12" font-size="14.00"> &#160;Bootstrap</text>
<polygon fill="#fdb462" stroke="transparent" points="310,-10 310,-30 330,-30 330,-10 310,-10"/>
<text text-anchor="start" x="333.67" y="-15.4" font-family="Times-12" font-size="14.00"> &#160;Providers</text>
<polygon fill="#fb8072" stroke="transparent" points="406,-10 406,-30 426,-30 426,-10 406,-10"/>
<text text-anchor="start" x="429.73" y="-15.4" font-family="Times-12" font-size="14.00"> &#160;Exports</text>
<g id="clust1" class="cluster">
<title>cluster_CostEstimatesModule</title>
<polygon fill="none" stroke="black" stroke-dasharray="1,5" points="47,-70 47,-195 449,-195 449,-70 47,-70"/>
</g>
<g id="clust4" class="cluster">
<title>cluster_CostEstimatesModule_imports</title>
<polygon fill="none" stroke="black" points="241,-78 241,-130 441,-130 441,-78 241,-78"/>
</g>
<g id="clust2" class="cluster">
<title>cluster_CostEstimatesModule_declarations</title>
<polygon fill="none" stroke="black" points="55,-78 55,-130 233,-130 233,-78 55,-78"/>
</g>
<!-- CostEstimatesComponent -->
<g id="node1" class="node">
<title>CostEstimatesComponent</title>
<polygon fill="#ffffb3" stroke="black" points="224.94,-122 63.06,-122 63.06,-86 224.94,-86 224.94,-122"/>
<text text-anchor="middle" x="144" y="-99.8" font-family="Times,serif" font-size="14.00">CostEstimatesComponent</text>
</g>
<!-- CostEstimatesModule -->
<g id="node2" class="node">
<title>CostEstimatesModule</title>
<polygon fill="#8dd3c7" stroke="black" points="311.66,-187 308.66,-191 287.66,-191 284.66,-187 172.34,-187 172.34,-151 311.66,-151 311.66,-187"/>
<text text-anchor="middle" x="242" y="-164.8" font-family="Times,serif" font-size="14.00">CostEstimatesModule</text>
</g>
<!-- CostEstimatesComponent&#45;&gt;CostEstimatesModule -->
<g id="edge1" class="edge">
<title>CostEstimatesComponent&#45;&gt;CostEstimatesModule</title>
<path fill="none" stroke="black" d="M198.45,-122.11C198.45,-122.11 198.45,-140.99 198.45,-140.99"/>
<polygon fill="black" stroke="black" points="194.95,-140.99 198.45,-150.99 201.95,-140.99 194.95,-140.99"/>
</g>
<!-- CostEstimatesRoutingModule -->
<g id="node3" class="node">
<title>CostEstimatesRoutingModule</title>
<polygon fill="#8dd3c7" stroke="black" points="433.27,-122 430.27,-126 409.27,-126 406.27,-122 248.73,-122 248.73,-86 433.27,-86 433.27,-122"/>
<text text-anchor="middle" x="341" y="-99.8" font-family="Times,serif" font-size="14.00">CostEstimatesRoutingModule</text>
</g>
<!-- CostEstimatesRoutingModule&#45;&gt;CostEstimatesModule -->
<g id="edge2" class="edge">
<title>CostEstimatesRoutingModule&#45;&gt;CostEstimatesModule</title>
<path fill="none" stroke="black" d="M280.22,-122.11C280.22,-122.11 280.22,-140.99 280.22,-140.99"/>
<polygon fill="black" stroke="black" points="276.72,-140.99 280.22,-150.99 283.72,-140.99 276.72,-140.99"/>
</g>
</g>
</svg>
