<svg width="126" height="123" viewBox="0 0 126 123" fill="none" xmlns="http://www.w3.org/2000/svg">
<ellipse cx="68" cy="57" rx="57.5" ry="57" fill="white"/>
<circle cx="57.5" cy="66" r="55" stroke="#12B9C0" stroke-width="4"/>
<circle cx="90.5214" cy="40.5039" r="1.02143" fill="#12B9C0"/>
<circle cx="98.6933" cy="40.5039" r="1.02143" fill="#12B9C0"/>
<circle cx="106.864" cy="40.5039" r="1.02143" fill="#12B9C0"/>
<circle cx="90.5214" cy="89.5312" r="1.02143" fill="#12B9C0"/>
<circle cx="98.6933" cy="89.5312" r="1.02143" fill="#12B9C0"/>
<circle cx="106.864" cy="89.5312" r="1.02143" fill="#12B9C0"/>
<circle cx="90.5214" cy="44.5878" r="1.02143" fill="#12B9C0"/>
<circle cx="98.6933" cy="44.5878" r="1.02143" fill="#12B9C0"/>
<circle cx="106.864" cy="44.5878" r="1.02143" fill="#12B9C0"/>
<circle cx="90.5214" cy="93.6171" r="1.02143" fill="#12B9C0"/>
<circle cx="98.6933" cy="93.6171" r="1.02143" fill="#12B9C0"/>
<circle cx="90.5214" cy="48.6738" r="1.02143" fill="#12B9C0"/>
<circle cx="98.6933" cy="48.6738" r="1.02143" fill="#12B9C0"/>
<circle cx="106.864" cy="48.6738" r="1.02143" fill="#12B9C0"/>
<circle cx="90.5214" cy="97.7031" r="1.02143" fill="#12B9C0"/>
<circle cx="98.6931" cy="97.7031" r="1.02143" fill="#12B9C0"/>
<circle cx="90.5214" cy="52.7597" r="1.02143" fill="#12B9C0"/>
<circle cx="98.6933" cy="52.7597" r="1.02143" fill="#12B9C0"/>
<circle cx="106.864" cy="52.7597" r="1.02143" fill="#12B9C0"/>
<circle cx="90.5214" cy="101.789" r="1.02143" fill="#12B9C0"/>
<circle cx="98.6931" cy="101.789" r="1.02143" fill="#12B9C0"/>
<circle cx="90.5214" cy="56.8456" r="1.02143" fill="#12B9C0"/>
<circle cx="98.6933" cy="56.8456" r="1.02143" fill="#12B9C0"/>
<circle cx="106.864" cy="56.8456" r="1.02143" fill="#12B9C0"/>
<circle cx="90.5214" cy="105.875" r="1.02143" fill="#12B9C0"/>
<circle cx="90.5214" cy="60.9316" r="1.02143" fill="#12B9C0"/>
<circle cx="98.6931" cy="60.9316" r="1.02143" fill="#12B9C0"/>
<circle cx="106.864" cy="60.9316" r="1.02143" fill="#12B9C0"/>
<circle cx="90.5214" cy="109.961" r="1.02143" fill="#12B9C0"/>
<circle cx="90.5214" cy="65.0175" r="1.02143" fill="#12B9C0"/>
<circle cx="98.6931" cy="65.0175" r="1.02143" fill="#12B9C0"/>
<circle cx="106.864" cy="65.0175" r="1.02143" fill="#12B9C0"/>
<circle cx="90.5214" cy="69.1035" r="1.02143" fill="#12B9C0"/>
<circle cx="98.6933" cy="69.1035" r="1.02143" fill="#12B9C0"/>
<circle cx="106.864" cy="69.1035" r="1.02143" fill="#12B9C0"/>
<circle cx="90.5214" cy="24.1601" r="1.02143" fill="#12B9C0"/>
<circle cx="90.5214" cy="73.1894" r="1.02143" fill="#12B9C0"/>
<circle cx="98.6933" cy="73.1894" r="1.02143" fill="#12B9C0"/>
<circle cx="106.864" cy="73.1894" r="1.02143" fill="#12B9C0"/>
<circle cx="90.5214" cy="28.246" r="1.02143" fill="#12B9C0"/>
<circle cx="98.6931" cy="28.246" r="1.02143" fill="#12B9C0"/>
<circle cx="90.5214" cy="77.2753" r="1.02143" fill="#12B9C0"/>
<circle cx="98.6933" cy="77.2753" r="1.02143" fill="#12B9C0"/>
<circle cx="106.864" cy="77.2753" r="1.02143" fill="#12B9C0"/>
<circle cx="90.5214" cy="32.332" r="1.02143" fill="#12B9C0"/>
<circle cx="98.6933" cy="32.332" r="1.02143" fill="#12B9C0"/>
<circle cx="90.5214" cy="81.3613" r="1.02143" fill="#12B9C0"/>
<circle cx="98.6933" cy="81.3613" r="1.02143" fill="#12B9C0"/>
<circle cx="106.864" cy="81.3613" r="1.02143" fill="#12B9C0"/>
<circle cx="90.5214" cy="36.4179" r="1.02143" fill="#12B9C0"/>
<circle cx="98.6933" cy="36.4179" r="1.02143" fill="#12B9C0"/>
<circle cx="90.5214" cy="85.4453" r="1.02143" fill="#12B9C0"/>
<circle cx="98.6933" cy="85.4453" r="1.02143" fill="#12B9C0"/>
<circle cx="106.864" cy="85.4453" r="1.02143" fill="#12B9C0"/>
<circle cx="94.6074" cy="42.5449" r="1.02143" fill="#12B9C0"/>
<circle cx="102.778" cy="42.5449" r="1.02143" fill="#12B9C0"/>
<circle cx="94.6074" cy="91.5742" r="1.02143" fill="#12B9C0"/>
<circle cx="102.778" cy="91.5742" r="1.02143" fill="#12B9C0"/>
<circle cx="94.6074" cy="46.6308" r="1.02143" fill="#12B9C0"/>
<circle cx="102.778" cy="46.6308" r="1.02143" fill="#12B9C0"/>
<circle cx="94.6074" cy="95.6601" r="1.02143" fill="#12B9C0"/>
<circle cx="102.778" cy="95.6601" r="1.02143" fill="#12B9C0"/>
<circle cx="94.6074" cy="50.7167" r="1.02143" fill="#12B9C0"/>
<circle cx="102.778" cy="50.7167" r="1.02143" fill="#12B9C0"/>
<circle cx="110.95" cy="50.7167" r="1.02143" fill="#12B9C0"/>
<circle cx="94.6074" cy="99.746" r="1.02143" fill="#12B9C0"/>
<circle cx="94.6074" cy="54.8027" r="1.02143" fill="#12B9C0"/>
<circle cx="102.778" cy="54.8027" r="1.02143" fill="#12B9C0"/>
<circle cx="110.95" cy="54.8027" r="1.02143" fill="#12B9C0"/>
<circle cx="94.6074" cy="103.832" r="1.02143" fill="#12B9C0"/>
<circle cx="94.6074" cy="58.8886" r="1.02143" fill="#12B9C0"/>
<circle cx="102.778" cy="58.8886" r="1.02143" fill="#12B9C0"/>
<circle cx="110.95" cy="58.8886" r="1.02143" fill="#12B9C0"/>
<circle cx="94.6074" cy="62.9746" r="1.02143" fill="#12B9C0"/>
<circle cx="102.778" cy="62.9746" r="1.02143" fill="#12B9C0"/>
<circle cx="110.95" cy="62.9746" r="1.02143" fill="#12B9C0"/>
<circle cx="94.6074" cy="67.0605" r="1.02143" fill="#12B9C0"/>
<circle cx="102.778" cy="67.0605" r="1.02143" fill="#12B9C0"/>
<circle cx="110.95" cy="67.0605" r="1.02143" fill="#12B9C0"/>
<circle cx="94.6074" cy="71.1464" r="1.02143" fill="#12B9C0"/>
<circle cx="102.778" cy="71.1464" r="1.02143" fill="#12B9C0"/>
<circle cx="110.95" cy="71.1464" r="1.02143" fill="#12B9C0"/>
<circle cx="94.6074" cy="26.2031" r="1.02143" fill="#12B9C0"/>
<circle cx="94.6074" cy="75.2324" r="1.02143" fill="#12B9C0"/>
<circle cx="102.778" cy="75.2324" r="1.02143" fill="#12B9C0"/>
<circle cx="110.95" cy="75.2324" r="1.02143" fill="#12B9C0"/>
<circle cx="94.6074" cy="30.289" r="1.02143" fill="#12B9C0"/>
<circle cx="94.6074" cy="79.3183" r="1.02143" fill="#12B9C0"/>
<circle cx="102.778" cy="79.3183" r="1.02143" fill="#12B9C0"/>
<circle cx="110.95" cy="79.3183" r="1.02143" fill="#12B9C0"/>
<circle cx="94.6074" cy="34.3749" r="1.02143" fill="#12B9C0"/>
<circle cx="102.778" cy="34.3749" r="1.02143" fill="#12B9C0"/>
<circle cx="94.6074" cy="83.4042" r="1.02143" fill="#12B9C0"/>
<circle cx="102.778" cy="83.4042" r="1.02143" fill="#12B9C0"/>
<circle cx="94.6074" cy="38.4589" r="1.02143" fill="#12B9C0"/>
<circle cx="102.778" cy="38.4589" r="1.02143" fill="#12B9C0"/>
<circle cx="94.6074" cy="87.4902" r="1.02143" fill="#12B9C0"/>
<circle cx="102.778" cy="87.4902" r="1.02143" fill="#12B9C0"/>
<path d="M41 48.5V85L43 88H71L73 85V48.5L71 46H64.5L63 43.5H51.5L50 46H43L41 48.5Z" fill="white"/>
<path d="M54.0833 61.0938C54.0833 60.7042 54.237 60.3306 54.5105 60.0552C54.784 59.7797 55.1549 59.625 55.5417 59.625H65.75C66.1368 59.625 66.5077 59.7797 66.7812 60.0552C67.0547 60.3306 67.2083 60.7042 67.2083 61.0938C67.2083 61.4833 67.0547 61.8569 66.7812 62.1323C66.5077 62.4078 66.1368 62.5625 65.75 62.5625H55.5417C55.1549 62.5625 54.784 62.4078 54.5105 62.1323C54.237 61.8569 54.0833 61.4833 54.0833 61.0938ZM54.0833 69.9062C54.0833 69.5167 54.237 69.1431 54.5105 68.8677C54.784 68.5922 55.1549 68.4375 55.5417 68.4375H65.75C66.1368 68.4375 66.5077 68.5922 66.7812 68.8677C67.0547 69.1431 67.2083 69.5167 67.2083 69.9062C67.2083 70.2958 67.0547 70.6694 66.7812 70.9448C66.5077 71.2203 66.1368 71.375 65.75 71.375H55.5417C55.1549 71.375 54.784 71.2203 54.5105 70.9448C54.237 70.6694 54.0833 70.2958 54.0833 69.9062ZM54.0833 78.7188C54.0833 78.3292 54.237 77.9556 54.5105 77.6802C54.784 77.4047 55.1549 77.25 55.5417 77.25H65.75C66.1368 77.25 66.5077 77.4047 66.7812 77.6802C67.0547 77.9556 67.2083 78.3292 67.2083 78.7188C67.2083 79.1083 67.0547 79.4819 66.7812 79.7573C66.5077 80.0328 66.1368 80.1875 65.75 80.1875H55.5417C55.1549 80.1875 54.784 80.0328 54.5105 79.7573C54.237 79.4819 54.0833 79.1083 54.0833 78.7188ZM51.1667 61.0938C51.1667 61.6781 50.9362 62.2384 50.526 62.6516C50.1157 63.0648 49.5593 63.2969 48.9792 63.2969C48.399 63.2969 47.8426 63.0648 47.4324 62.6516C47.0221 62.2384 46.7917 61.6781 46.7917 61.0938C46.7917 60.5094 47.0221 59.9491 47.4324 59.5359C47.8426 59.1227 48.399 58.8906 48.9792 58.8906C49.5593 58.8906 50.1157 59.1227 50.526 59.5359C50.9362 59.9491 51.1667 60.5094 51.1667 61.0938ZM51.1667 69.9062C51.1667 70.4906 50.9362 71.0509 50.526 71.4641C50.1157 71.8773 49.5593 72.1094 48.9792 72.1094C48.399 72.1094 47.8426 71.8773 47.4324 71.4641C47.0221 71.0509 46.7917 70.4906 46.7917 69.9062C46.7917 69.3219 47.0221 68.7616 47.4324 68.3484C47.8426 67.9352 48.399 67.7031 48.9792 67.7031C49.5593 67.7031 50.1157 67.9352 50.526 68.3484C50.9362 68.7616 51.1667 69.3219 51.1667 69.9062ZM48.9792 80.9219C49.5593 80.9219 50.1157 80.6898 50.526 80.2766C50.9362 79.8634 51.1667 79.3031 51.1667 78.7188C51.1667 78.1344 50.9362 77.5741 50.526 77.1609C50.1157 76.7477 49.5593 76.5156 48.9792 76.5156C48.399 76.5156 47.8426 76.7477 47.4324 77.1609C47.0221 77.5741 46.7917 78.1344 46.7917 78.7188C46.7917 79.3031 47.0221 79.8634 47.4324 80.2766C47.8426 80.6898 48.399 80.9219 48.9792 80.9219ZM48.4979 44.9375C48.7996 44.0781 49.3586 43.334 50.0977 42.8079C50.8369 42.2818 51.7199 41.9995 52.625 42H61.375C62.2801 41.9995 63.1631 42.2818 63.9023 42.8079C64.6414 43.334 65.2004 44.0781 65.5021 44.9375H70.125C71.2853 44.9375 72.3981 45.4017 73.2186 46.2281C74.0391 47.0544 74.5 48.1751 74.5 49.3438V84.5938C74.5 85.7624 74.0391 86.8831 73.2186 87.7094C72.3981 88.5358 71.2853 89 70.125 89H43.875C42.7147 89 41.6019 88.5358 40.7814 87.7094C39.9609 86.8831 39.5 85.7624 39.5 84.5938V49.3438C39.5 48.1751 39.9609 47.0544 40.7814 46.2281C41.6019 45.4017 42.7147 44.9375 43.875 44.9375H48.4979ZM52.625 44.9375C52.2382 44.9375 51.8673 45.0922 51.5938 45.3677C51.3203 45.6431 51.1667 46.0167 51.1667 46.4063C51.1667 46.7958 51.3203 47.1694 51.5938 47.4448C51.8673 47.7203 52.2382 47.875 52.625 47.875H61.375C61.7618 47.875 62.1327 47.7203 62.4062 47.4448C62.6797 47.1694 62.8333 46.7958 62.8333 46.4063C62.8333 46.0167 62.6797 45.6431 62.4062 45.3677C62.1327 45.0922 61.7618 44.9375 61.375 44.9375H52.625ZM48.4979 47.875H43.875C43.4882 47.875 43.1173 48.0297 42.8438 48.3052C42.5703 48.5806 42.4167 48.9542 42.4167 49.3438V84.5938C42.4167 84.9833 42.5703 85.3569 42.8438 85.6323C43.1173 85.9078 43.4882 86.0625 43.875 86.0625H70.125C70.5118 86.0625 70.8827 85.9078 71.1562 85.6323C71.4297 85.3569 71.5833 84.9833 71.5833 84.5938V49.3438C71.5833 48.9542 71.4297 48.5806 71.1562 48.3052C70.8827 48.0297 70.5118 47.875 70.125 47.875H65.5021C65.2004 48.7344 64.6414 49.4785 63.9023 50.0046C63.1631 50.5307 62.2801 50.813 61.375 50.8125H52.625C51.7199 50.813 50.8369 50.5307 50.0977 50.0046C49.3586 49.4785 48.7996 48.7344 48.4979 47.875Z" fill="#12B9C0"/>
</svg>
