<svg width="126" height="123" viewBox="0 0 126 123" fill="none" xmlns="http://www.w3.org/2000/svg">
<ellipse cx="67.9995" cy="57" rx="57.5" ry="57" fill="white"/>
<circle cx="57.4995" cy="66" r="55" stroke="#12B9C0" stroke-width="4"/>
<circle cx="90.5209" cy="40.5039" r="1.02143" fill="#12B9C0"/>
<circle cx="98.6928" cy="40.5039" r="1.02143" fill="#12B9C0"/>
<circle cx="106.865" cy="40.5019" r="1.02143" fill="#12B9C0"/>
<circle cx="90.5209" cy="89.5312" r="1.02143" fill="#12B9C0"/>
<circle cx="98.6928" cy="89.5312" r="1.02143" fill="#12B9C0"/>
<circle cx="106.865" cy="89.5312" r="1.02143" fill="#12B9C0"/>
<circle cx="90.5209" cy="44.5878" r="1.02143" fill="#12B9C0"/>
<circle cx="98.6928" cy="44.5878" r="1.02143" fill="#12B9C0"/>
<circle cx="106.865" cy="44.5878" r="1.02143" fill="#12B9C0"/>
<circle cx="90.5209" cy="93.6171" r="1.02143" fill="#12B9C0"/>
<circle cx="98.6928" cy="93.6171" r="1.02143" fill="#12B9C0"/>
<circle cx="90.5209" cy="48.6738" r="1.02143" fill="#12B9C0"/>
<circle cx="98.6928" cy="48.6738" r="1.02143" fill="#12B9C0"/>
<circle cx="106.865" cy="48.6738" r="1.02143" fill="#12B9C0"/>
<circle cx="90.5209" cy="97.7031" r="1.02143" fill="#12B9C0"/>
<circle cx="98.6928" cy="97.7031" r="1.02143" fill="#12B9C0"/>
<circle cx="90.5209" cy="52.7597" r="1.02143" fill="#12B9C0"/>
<circle cx="98.6928" cy="52.7597" r="1.02143" fill="#12B9C0"/>
<circle cx="106.865" cy="52.7597" r="1.02143" fill="#12B9C0"/>
<circle cx="90.5209" cy="101.789" r="1.02143" fill="#12B9C0"/>
<circle cx="98.6928" cy="101.789" r="1.02143" fill="#12B9C0"/>
<circle cx="90.5209" cy="56.8456" r="1.02143" fill="#12B9C0"/>
<circle cx="98.6928" cy="56.8456" r="1.02143" fill="#12B9C0"/>
<circle cx="106.865" cy="56.8456" r="1.02143" fill="#12B9C0"/>
<circle cx="90.5209" cy="105.875" r="1.02143" fill="#12B9C0"/>
<circle cx="90.5209" cy="60.9316" r="1.02143" fill="#12B9C0"/>
<circle cx="98.6928" cy="60.9316" r="1.02143" fill="#12B9C0"/>
<circle cx="106.865" cy="60.9316" r="1.02143" fill="#12B9C0"/>
<circle cx="90.5209" cy="109.961" r="1.02143" fill="#12B9C0"/>
<circle cx="90.5209" cy="65.0175" r="1.02143" fill="#12B9C0"/>
<circle cx="98.6928" cy="65.0175" r="1.02143" fill="#12B9C0"/>
<circle cx="106.865" cy="65.0175" r="1.02143" fill="#12B9C0"/>
<circle cx="90.5209" cy="69.1035" r="1.02143" fill="#12B9C0"/>
<circle cx="98.6928" cy="69.1035" r="1.02143" fill="#12B9C0"/>
<circle cx="106.865" cy="69.1035" r="1.02143" fill="#12B9C0"/>
<circle cx="90.5209" cy="24.1601" r="1.02143" fill="#12B9C0"/>
<circle cx="90.5209" cy="73.1894" r="1.02143" fill="#12B9C0"/>
<circle cx="98.6928" cy="73.1894" r="1.02143" fill="#12B9C0"/>
<circle cx="106.865" cy="73.1894" r="1.02143" fill="#12B9C0"/>
<circle cx="90.5209" cy="28.246" r="1.02143" fill="#12B9C0"/>
<circle cx="98.6928" cy="28.246" r="1.02143" fill="#12B9C0"/>
<circle cx="90.5209" cy="77.2753" r="1.02143" fill="#12B9C0"/>
<circle cx="98.6928" cy="77.2753" r="1.02143" fill="#12B9C0"/>
<circle cx="106.865" cy="77.2753" r="1.02143" fill="#12B9C0"/>
<circle cx="90.5209" cy="32.332" r="1.02143" fill="#12B9C0"/>
<circle cx="98.6928" cy="32.332" r="1.02143" fill="#12B9C0"/>
<circle cx="90.5209" cy="81.3613" r="1.02143" fill="#12B9C0"/>
<circle cx="98.6928" cy="81.3613" r="1.02143" fill="#12B9C0"/>
<circle cx="106.865" cy="81.3613" r="1.02143" fill="#12B9C0"/>
<circle cx="90.5209" cy="36.4179" r="1.02143" fill="#12B9C0"/>
<circle cx="98.6928" cy="36.4179" r="1.02143" fill="#12B9C0"/>
<circle cx="90.5209" cy="85.4453" r="1.02143" fill="#12B9C0"/>
<circle cx="98.6928" cy="85.4453" r="1.02143" fill="#12B9C0"/>
<circle cx="106.865" cy="85.4472" r="1.02143" fill="#12B9C0"/>
<circle cx="94.6069" cy="42.5449" r="1.02143" fill="#12B9C0"/>
<circle cx="102.779" cy="42.5449" r="1.02143" fill="#12B9C0"/>
<circle cx="94.6069" cy="91.5742" r="1.02143" fill="#12B9C0"/>
<circle cx="102.779" cy="91.5742" r="1.02143" fill="#12B9C0"/>
<circle cx="94.6069" cy="46.6308" r="1.02143" fill="#12B9C0"/>
<circle cx="102.779" cy="46.6308" r="1.02143" fill="#12B9C0"/>
<circle cx="94.6069" cy="95.6601" r="1.02143" fill="#12B9C0"/>
<circle cx="102.779" cy="95.6601" r="1.02143" fill="#12B9C0"/>
<circle cx="94.6069" cy="50.7167" r="1.02143" fill="#12B9C0"/>
<circle cx="102.779" cy="50.7167" r="1.02143" fill="#12B9C0"/>
<circle cx="110.949" cy="50.7167" r="1.02143" fill="#12B9C0"/>
<circle cx="94.6069" cy="99.746" r="1.02143" fill="#12B9C0"/>
<circle cx="94.6069" cy="54.8027" r="1.02143" fill="#12B9C0"/>
<circle cx="102.779" cy="54.8027" r="1.02143" fill="#12B9C0"/>
<circle cx="110.949" cy="54.8027" r="1.02143" fill="#12B9C0"/>
<circle cx="94.6069" cy="103.832" r="1.02143" fill="#12B9C0"/>
<circle cx="94.6069" cy="58.8886" r="1.02143" fill="#12B9C0"/>
<circle cx="102.779" cy="58.8886" r="1.02143" fill="#12B9C0"/>
<circle cx="110.949" cy="58.8886" r="1.02143" fill="#12B9C0"/>
<circle cx="94.6069" cy="62.9746" r="1.02143" fill="#12B9C0"/>
<circle cx="102.779" cy="62.9746" r="1.02143" fill="#12B9C0"/>
<circle cx="110.949" cy="62.9746" r="1.02143" fill="#12B9C0"/>
<circle cx="94.6069" cy="67.0605" r="1.02143" fill="#12B9C0"/>
<circle cx="102.779" cy="67.0605" r="1.02143" fill="#12B9C0"/>
<circle cx="110.949" cy="67.0605" r="1.02143" fill="#12B9C0"/>
<circle cx="94.6069" cy="71.1464" r="1.02143" fill="#12B9C0"/>
<circle cx="102.779" cy="71.1464" r="1.02143" fill="#12B9C0"/>
<circle cx="110.949" cy="71.1464" r="1.02143" fill="#12B9C0"/>
<circle cx="94.6069" cy="26.2031" r="1.02143" fill="#12B9C0"/>
<circle cx="94.6069" cy="75.2324" r="1.02143" fill="#12B9C0"/>
<circle cx="102.779" cy="75.2324" r="1.02143" fill="#12B9C0"/>
<circle cx="110.949" cy="75.2324" r="1.02143" fill="#12B9C0"/>
<circle cx="94.6069" cy="30.289" r="1.02143" fill="#12B9C0"/>
<circle cx="94.6069" cy="79.3183" r="1.02143" fill="#12B9C0"/>
<circle cx="102.779" cy="79.3183" r="1.02143" fill="#12B9C0"/>
<circle cx="110.949" cy="79.3183" r="1.02143" fill="#12B9C0"/>
<circle cx="94.6069" cy="34.3749" r="1.02143" fill="#12B9C0"/>
<circle cx="102.779" cy="34.3749" r="1.02143" fill="#12B9C0"/>
<circle cx="94.6069" cy="83.4042" r="1.02143" fill="#12B9C0"/>
<circle cx="102.779" cy="83.4042" r="1.02143" fill="#12B9C0"/>
<circle cx="94.6069" cy="38.4589" r="1.02143" fill="#12B9C0"/>
<circle cx="102.779" cy="38.4589" r="1.02143" fill="#12B9C0"/>
<circle cx="94.6069" cy="87.4902" r="1.02143" fill="#12B9C0"/>
<circle cx="102.779" cy="87.4902" r="1.02143" fill="#12B9C0"/>
<path fill-rule="evenodd" clip-rule="evenodd" d="M59.3771 34.3609C59.9254 35.3197 59.5927 36.5415 58.6339 37.0898L30.6484 53.0955C29.6896 53.6438 28.4678 53.3111 27.9195 52.3523C27.3711 51.3935 27.7039 50.1717 28.6626 49.6234L56.6481 33.6177C57.6069 33.0694 58.8287 33.4021 59.3771 34.3609Z" fill="#12B9C0"/>
<path fill-rule="evenodd" clip-rule="evenodd" d="M27.9191 50.3672C28.4671 49.4082 29.6888 49.075 30.6478 49.623L58.6465 65.6223C59.6055 66.1703 59.9387 67.392 59.3907 68.351C58.8427 69.31 57.6211 69.6431 56.6621 69.0951L28.6633 53.0958C27.7043 52.5478 27.3711 51.3262 27.9191 50.3672Z" fill="#12B9C0"/>
<path fill-rule="evenodd" clip-rule="evenodd" d="M27.9191 74.3661C28.4671 73.4072 29.6888 73.074 30.6478 73.622L58.6465 89.6213C59.6055 90.1693 59.9387 91.3909 59.3907 92.3499C58.8427 93.3089 57.6211 93.6421 56.6621 93.0941L28.6633 77.0948C27.7043 76.5468 27.3711 75.3251 27.9191 74.3661Z" fill="#12B9C0"/>
<path fill-rule="evenodd" clip-rule="evenodd" d="M55.9179 34.3679C56.4659 33.4089 57.6875 33.0757 58.6465 33.6237L86.6453 49.623C87.6043 50.171 87.9375 51.3927 87.3895 52.3517C86.8415 53.3107 85.6198 53.6438 84.6608 53.0958L56.6621 37.0965C55.7031 36.5485 55.3699 35.3269 55.9179 34.3679Z" fill="#12B9C0"/>
<path fill-rule="evenodd" clip-rule="evenodd" d="M87.3895 50.3672C87.9375 51.3262 87.6043 52.5478 86.6453 53.0958L58.6465 69.0951C57.6875 69.6431 56.4659 69.31 55.9179 68.351C55.3699 67.392 55.7031 66.1703 56.6621 65.6223L84.6608 49.623C85.6198 49.075 86.8415 49.4082 87.3895 50.3672Z" fill="#12B9C0"/>
<path fill-rule="evenodd" clip-rule="evenodd" d="M87.3895 74.3661C87.9375 75.3251 87.6043 76.5468 86.6453 77.0948L58.6465 93.0941C57.6875 93.6421 56.4659 93.3089 55.9179 92.3499C55.3699 91.3909 55.7031 90.1693 56.6621 89.6213L84.6608 73.622C85.6198 73.074 86.8415 73.4072 87.3895 74.3661Z" fill="#12B9C0"/>
<path fill-rule="evenodd" clip-rule="evenodd" d="M27.9191 62.3667C28.4671 61.4077 29.6888 61.0745 30.6478 61.6225L58.6465 77.6218C59.6055 78.1698 59.9387 79.3914 59.3907 80.3504C58.8427 81.3094 57.6211 81.6426 56.6621 81.0946L28.6633 65.0953C27.7043 64.5473 27.3711 63.3257 27.9191 62.3667Z" fill="#12B9C0"/>
<path fill-rule="evenodd" clip-rule="evenodd" d="M87.376 62.3668C87.9242 63.3257 87.5913 64.5474 86.6324 65.0956L58.6469 81.0944C57.688 81.6426 56.4663 81.3097 55.9181 80.3508C55.3699 79.3919 55.7028 78.1702 56.6617 77.622L84.6472 61.6232C85.6061 61.075 86.8278 61.4079 87.376 62.3668Z" fill="#12B9C0"/>
<path fill-rule="evenodd" clip-rule="evenodd" d="M41.9 56.3711C42.4475 57.3304 42.1136 58.5519 41.1543 59.0994L30.6468 65.0959C29.6875 65.6433 28.466 65.3095 27.9186 64.3502C27.3711 63.3909 27.705 62.1694 28.6643 61.6219L39.1718 55.6254C40.1311 55.078 41.3526 55.4118 41.9 56.3711Z" fill="#12B9C0"/>
<path fill-rule="evenodd" clip-rule="evenodd" d="M41.8998 68.3645C42.4476 69.3236 42.1142 70.5452 41.1552 71.093L30.6475 77.095C29.6884 77.6428 28.4668 77.3094 27.9189 76.3503C27.3711 75.3912 27.7045 74.1696 28.6636 73.6218L39.1713 67.6199C40.1304 67.072 41.352 67.4054 41.8998 68.3645Z" fill="#12B9C0"/>
<path fill-rule="evenodd" clip-rule="evenodd" d="M73.4089 56.3707C73.9569 55.4117 75.1786 55.0785 76.1376 55.6264L86.632 61.6229C87.591 62.1709 87.9242 63.3926 87.3762 64.3516C86.8283 65.3106 85.6066 65.6438 84.6476 65.0958L74.1532 59.0993C73.1942 58.5513 72.861 57.3297 73.4089 56.3707Z" fill="#12B9C0"/>
<path fill-rule="evenodd" clip-rule="evenodd" d="M73.4085 68.3644C73.9563 67.4053 75.1779 67.0719 76.137 67.6197L86.645 73.6218C87.6041 74.1696 87.9375 75.3912 87.3896 76.3503C86.8418 77.3094 85.6202 77.6428 84.6611 77.095L74.1531 71.0929C73.194 70.545 72.8606 69.3234 73.4085 68.3644Z" fill="#12B9C0"/>
</svg>
