<svg width="126" height="123" viewBox="0 0 126 123" fill="none" xmlns="http://www.w3.org/2000/svg">
<ellipse cx="68" cy="57" rx="57.5" ry="57" fill="white"/>
<circle cx="57.5" cy="66" r="55" stroke="#12B9C0" stroke-width="4"/>
<circle cx="90.5214" cy="40.5039" r="1.02143" fill="#12B9C0"/>
<circle cx="98.6933" cy="40.5039" r="1.02143" fill="#12B9C0"/>
<circle cx="106.865" cy="40.5019" r="1.02143" fill="#12B9C0"/>
<circle cx="90.5214" cy="89.5331" r="1.02143" fill="#12B9C0"/>
<circle cx="98.6933" cy="89.5331" r="1.02143" fill="#12B9C0"/>
<circle cx="106.865" cy="89.5331" r="1.02143" fill="#12B9C0"/>
<circle cx="90.5214" cy="44.5878" r="1.02143" fill="#12B9C0"/>
<circle cx="98.6933" cy="44.5878" r="1.02143" fill="#12B9C0"/>
<circle cx="106.865" cy="44.5878" r="1.02143" fill="#12B9C0"/>
<circle cx="90.5214" cy="93.6171" r="1.02143" fill="#12B9C0"/>
<circle cx="98.6933" cy="93.6171" r="1.02143" fill="#12B9C0"/>
<circle cx="90.5214" cy="48.6738" r="1.02143" fill="#12B9C0"/>
<circle cx="98.6933" cy="48.6738" r="1.02143" fill="#12B9C0"/>
<circle cx="106.865" cy="48.6738" r="1.02143" fill="#12B9C0"/>
<circle cx="90.5214" cy="97.7031" r="1.02143" fill="#12B9C0"/>
<circle cx="98.6933" cy="97.7031" r="1.02143" fill="#12B9C0"/>
<circle cx="90.5214" cy="52.7597" r="1.02143" fill="#12B9C0"/>
<circle cx="98.6933" cy="52.7597" r="1.02143" fill="#12B9C0"/>
<circle cx="106.865" cy="52.7597" r="1.02143" fill="#12B9C0"/>
<circle cx="90.5214" cy="101.789" r="1.02143" fill="#12B9C0"/>
<circle cx="98.6933" cy="101.789" r="1.02143" fill="#12B9C0"/>
<circle cx="90.5214" cy="56.8456" r="1.02143" fill="#12B9C0"/>
<circle cx="98.6933" cy="56.8456" r="1.02143" fill="#12B9C0"/>
<circle cx="106.865" cy="56.8456" r="1.02143" fill="#12B9C0"/>
<circle cx="90.5214" cy="105.875" r="1.02143" fill="#12B9C0"/>
<circle cx="90.5214" cy="60.9316" r="1.02143" fill="#12B9C0"/>
<circle cx="98.6933" cy="60.9316" r="1.02143" fill="#12B9C0"/>
<circle cx="106.865" cy="60.9316" r="1.02143" fill="#12B9C0"/>
<circle cx="90.5214" cy="109.961" r="1.02143" fill="#12B9C0"/>
<circle cx="90.5214" cy="65.0175" r="1.02143" fill="#12B9C0"/>
<circle cx="98.6933" cy="65.0175" r="1.02143" fill="#12B9C0"/>
<circle cx="106.865" cy="65.0175" r="1.02143" fill="#12B9C0"/>
<circle cx="90.5214" cy="69.1035" r="1.02143" fill="#12B9C0"/>
<circle cx="98.6933" cy="69.1035" r="1.02143" fill="#12B9C0"/>
<circle cx="106.865" cy="69.1035" r="1.02143" fill="#12B9C0"/>
<circle cx="90.5214" cy="24.1601" r="1.02143" fill="#12B9C0"/>
<circle cx="90.5214" cy="73.1894" r="1.02143" fill="#12B9C0"/>
<circle cx="98.6933" cy="73.1894" r="1.02143" fill="#12B9C0"/>
<circle cx="106.865" cy="73.1894" r="1.02143" fill="#12B9C0"/>
<circle cx="90.5214" cy="28.246" r="1.02143" fill="#12B9C0"/>
<circle cx="98.6933" cy="28.246" r="1.02143" fill="#12B9C0"/>
<circle cx="90.5214" cy="77.2753" r="1.02143" fill="#12B9C0"/>
<circle cx="98.6933" cy="77.2753" r="1.02143" fill="#12B9C0"/>
<circle cx="106.865" cy="77.2753" r="1.02143" fill="#12B9C0"/>
<circle cx="90.5214" cy="32.332" r="1.02143" fill="#12B9C0"/>
<circle cx="98.6933" cy="32.332" r="1.02143" fill="#12B9C0"/>
<circle cx="90.5214" cy="81.3613" r="1.02143" fill="#12B9C0"/>
<circle cx="98.6933" cy="81.3613" r="1.02143" fill="#12B9C0"/>
<circle cx="106.865" cy="81.3613" r="1.02143" fill="#12B9C0"/>
<circle cx="90.5214" cy="36.416" r="1.02143" fill="#12B9C0"/>
<circle cx="98.6933" cy="36.416" r="1.02143" fill="#12B9C0"/>
<circle cx="90.5214" cy="85.4453" r="1.02143" fill="#12B9C0"/>
<circle cx="98.6933" cy="85.4453" r="1.02143" fill="#12B9C0"/>
<circle cx="106.865" cy="85.4472" r="1.02143" fill="#12B9C0"/>
<circle cx="94.6074" cy="42.5449" r="1.02143" fill="#12B9C0"/>
<circle cx="102.779" cy="42.5449" r="1.02143" fill="#12B9C0"/>
<circle cx="94.6074" cy="91.5761" r="1.02143" fill="#12B9C0"/>
<circle cx="102.779" cy="91.5761" r="1.02143" fill="#12B9C0"/>
<circle cx="94.6074" cy="46.6308" r="1.02143" fill="#12B9C0"/>
<circle cx="102.779" cy="46.6308" r="1.02143" fill="#12B9C0"/>
<circle cx="94.6074" cy="95.6601" r="1.02143" fill="#12B9C0"/>
<circle cx="102.779" cy="95.6601" r="1.02143" fill="#12B9C0"/>
<circle cx="94.6074" cy="50.7167" r="1.02143" fill="#12B9C0"/>
<circle cx="102.779" cy="50.7167" r="1.02143" fill="#12B9C0"/>
<circle cx="110.951" cy="50.7167" r="1.02143" fill="#12B9C0"/>
<circle cx="94.6074" cy="99.746" r="1.02143" fill="#12B9C0"/>
<circle cx="94.6074" cy="54.8027" r="1.02143" fill="#12B9C0"/>
<circle cx="102.779" cy="54.8027" r="1.02143" fill="#12B9C0"/>
<circle cx="110.951" cy="54.8027" r="1.02143" fill="#12B9C0"/>
<circle cx="94.6074" cy="103.832" r="1.02143" fill="#12B9C0"/>
<circle cx="94.6074" cy="58.8886" r="1.02143" fill="#12B9C0"/>
<circle cx="102.779" cy="58.8886" r="1.02143" fill="#12B9C0"/>
<circle cx="110.949" cy="58.8886" r="1.02143" fill="#12B9C0"/>
<circle cx="94.6074" cy="62.9746" r="1.02143" fill="#12B9C0"/>
<circle cx="102.779" cy="62.9746" r="1.02143" fill="#12B9C0"/>
<circle cx="110.949" cy="62.9746" r="1.02143" fill="#12B9C0"/>
<circle cx="94.6074" cy="67.0605" r="1.02143" fill="#12B9C0"/>
<circle cx="102.779" cy="67.0605" r="1.02143" fill="#12B9C0"/>
<circle cx="110.949" cy="67.0605" r="1.02143" fill="#12B9C0"/>
<circle cx="94.6074" cy="71.1464" r="1.02143" fill="#12B9C0"/>
<circle cx="102.779" cy="71.1464" r="1.02143" fill="#12B9C0"/>
<circle cx="110.951" cy="71.1464" r="1.02143" fill="#12B9C0"/>
<circle cx="94.6074" cy="26.2031" r="1.02143" fill="#12B9C0"/>
<circle cx="94.6074" cy="75.2324" r="1.02143" fill="#12B9C0"/>
<circle cx="102.779" cy="75.2324" r="1.02143" fill="#12B9C0"/>
<circle cx="110.951" cy="75.2324" r="1.02143" fill="#12B9C0"/>
<circle cx="94.6074" cy="30.289" r="1.02143" fill="#12B9C0"/>
<circle cx="94.6074" cy="79.3183" r="1.02143" fill="#12B9C0"/>
<circle cx="102.779" cy="79.3183" r="1.02143" fill="#12B9C0"/>
<circle cx="110.949" cy="79.3183" r="1.02143" fill="#12B9C0"/>
<circle cx="94.6074" cy="34.373" r="1.02143" fill="#12B9C0"/>
<circle cx="102.779" cy="34.373" r="1.02143" fill="#12B9C0"/>
<circle cx="94.6074" cy="83.4042" r="1.02143" fill="#12B9C0"/>
<circle cx="102.779" cy="83.4042" r="1.02143" fill="#12B9C0"/>
<circle cx="94.6074" cy="38.4589" r="1.02143" fill="#12B9C0"/>
<circle cx="102.779" cy="38.4589" r="1.02143" fill="#12B9C0"/>
<circle cx="94.6074" cy="87.4902" r="1.02143" fill="#12B9C0"/>
<circle cx="102.779" cy="87.4902" r="1.02143" fill="#12B9C0"/>
<rect x="39.6401" y="61.6934" width="35.252" height="25.0586" rx="4" fill="white"/>
<path d="M43.0373 63.2098C42.6189 63.2098 42.2177 63.376 41.9218 63.6718C41.626 63.9677 41.4598 64.3689 41.4598 64.7873V83.7178C41.4598 84.1362 41.626 84.5374 41.9218 84.8333C42.2177 85.1291 42.6189 85.2953 43.0373 85.2953H71.433C71.8514 85.2953 72.2527 85.1291 72.5485 84.8333C72.8444 84.5374 73.0106 84.1362 73.0106 83.7178V64.7873C73.0106 64.3689 72.8444 63.9677 72.5485 63.6718C72.2527 63.376 71.8514 63.2098 71.433 63.2098H43.0373ZM43.0373 60.0547H71.433C72.6882 60.0547 73.892 60.5533 74.7795 61.4408C75.667 62.3284 76.1657 63.5321 76.1657 64.7873V83.7178C76.1657 84.973 75.667 86.1767 74.7795 87.0643C73.892 87.9518 72.6882 88.4504 71.433 88.4504H43.0373C41.7821 88.4504 40.5784 87.9518 39.6908 87.0643C38.8033 86.1767 38.3047 84.973 38.3047 83.7178V64.7873C38.3047 63.5321 38.8033 62.3284 39.6908 61.4408C40.5784 60.5533 41.7821 60.0547 43.0373 60.0547Z" fill="#12B9C0"/>
<path d="M66.7013 60.0547V56.8996C66.7013 54.3893 65.7041 51.9818 63.929 50.2067C62.1539 48.4316 59.7464 47.4344 57.236 47.4344C54.7257 47.4344 52.3182 48.4316 50.5431 50.2067C48.768 51.9818 47.7708 54.3893 47.7708 56.8996V60.0547H66.7013ZM57.236 44.2793C60.5832 44.2793 63.7932 45.6089 66.16 47.9757C68.5267 50.3425 69.8564 53.5525 69.8564 56.8996V63.2098H44.6157V56.8996C44.6157 53.5525 45.9454 50.3425 48.3121 47.9757C50.6789 45.6089 53.8889 44.2793 57.236 44.2793Z" fill="#12B9C0"/>
</svg>
