<?xml version="1.0" encoding="UTF-8" standalone="no"?>
<!DOCTYPE svg PUBLIC "-//W3C//DTD SVG 1.1//EN"
 "http://www.w3.org/Graphics/SVG/1.1/DTD/svg11.dtd">
<!-- Generated by graphviz version 2.47.0 (20210316.0004)
 -->
<!-- Title: dependencies Pages: 1 -->
<svg width="1673pt" height="211pt"
 viewBox="0.00 0.00 1673.00 211.00" xmlns="http://www.w3.org/2000/svg" xmlns:xlink="http://www.w3.org/1999/xlink">
<g id="graph0" class="graph" transform="scale(1 1) rotate(0) translate(4 207)">
<title>dependencies</title>
<polygon fill="white" stroke="transparent" points="-4,4 -4,-207 1669,-207 1669,4 -4,4"/>
<text text-anchor="start" x="811.51" y="-42.4" font-family="Times-12" font-weight="bold" font-size="14.00">Legend</text>
<polygon fill="#ffffb3" stroke="transparent" points="598.5,-10 598.5,-30 618.5,-30 618.5,-10 598.5,-10"/>
<text text-anchor="start" x="622.13" y="-15.4" font-family="Times-12" font-size="14.00"> &#160;Declarations</text>
<polygon fill="#8dd3c7" stroke="transparent" points="711.5,-10 711.5,-30 731.5,-30 731.5,-10 711.5,-10"/>
<text text-anchor="start" x="735.23" y="-15.4" font-family="Times-12" font-size="14.00"> &#160;Module</text>
<polygon fill="#80b1d3" stroke="transparent" points="797.5,-10 797.5,-30 817.5,-30 817.5,-10 797.5,-10"/>
<text text-anchor="start" x="821.28" y="-15.4" font-family="Times-12" font-size="14.00"> &#160;Bootstrap</text>
<polygon fill="#fdb462" stroke="transparent" points="894.5,-10 894.5,-30 914.5,-30 914.5,-10 894.5,-10"/>
<text text-anchor="start" x="918.17" y="-15.4" font-family="Times-12" font-size="14.00"> &#160;Providers</text>
<polygon fill="#fb8072" stroke="transparent" points="990.5,-10 990.5,-30 1010.5,-30 1010.5,-10 990.5,-10"/>
<text text-anchor="start" x="1014.23" y="-15.4" font-family="Times-12" font-size="14.00"> &#160;Exports</text>
<g id="clust1" class="cluster">
<title>cluster_ContactsModule</title>
<polygon fill="none" stroke="black" stroke-dasharray="1,5" points="8,-70 8,-195 1657,-195 1657,-70 8,-70"/>
</g>
<g id="clust8" class="cluster">
<title>cluster_ContactsModule_imports</title>
<polygon fill="none" stroke="black" points="1363,-78 1363,-130 1649,-130 1649,-78 1363,-78"/>
</g>
<g id="clust11" class="cluster">
<title>cluster_ContactsModule_providers</title>
<polygon fill="none" stroke="black" points="912,-78 912,-130 1355,-130 1355,-78 912,-78"/>
</g>
<g id="clust2" class="cluster">
<title>cluster_ContactsModule_declarations</title>
<polygon fill="none" stroke="black" points="16,-78 16,-130 904,-130 904,-78 16,-78"/>
</g>
<!-- AvatarUploadDialogComponent -->
<g id="node1" class="node">
<title>AvatarUploadDialogComponent</title>
<polygon fill="#ffffb3" stroke="black" points="896.23,-122 697.77,-122 697.77,-86 896.23,-86 896.23,-122"/>
<text text-anchor="middle" x="797" y="-99.8" font-family="Times,serif" font-size="14.00">AvatarUploadDialogComponent</text>
</g>
<!-- ContactsModule -->
<g id="node6" class="node">
<title>ContactsModule</title>
<polygon fill="#8dd3c7" stroke="black" points="851.04,-187 848.04,-191 827.04,-191 824.04,-187 742.96,-187 742.96,-151 851.04,-151 851.04,-187"/>
<text text-anchor="middle" x="797" y="-164.8" font-family="Times,serif" font-size="14.00">ContactsModule</text>
</g>
<!-- AvatarUploadDialogComponent&#45;&gt;ContactsModule -->
<g id="edge1" class="edge">
<title>AvatarUploadDialogComponent&#45;&gt;ContactsModule</title>
<path fill="none" stroke="black" d="M797,-122.11C797,-122.11 797,-140.99 797,-140.99"/>
<polygon fill="black" stroke="black" points="793.5,-140.99 797,-150.99 800.5,-140.99 793.5,-140.99"/>
</g>
<!-- ContactAvatarComponent -->
<g id="node2" class="node">
<title>ContactAvatarComponent</title>
<polygon fill="#ffffb3" stroke="black" points="679.47,-122 516.53,-122 516.53,-86 679.47,-86 679.47,-122"/>
<text text-anchor="middle" x="598" y="-99.8" font-family="Times,serif" font-size="14.00">ContactAvatarComponent</text>
</g>
<!-- ContactAvatarComponent&#45;&gt;ContactsModule -->
<g id="edge2" class="edge">
<title>ContactAvatarComponent&#45;&gt;ContactsModule</title>
<path fill="none" stroke="black" d="M598,-122.01C598,-138.05 598,-159 598,-159 598,-159 732.89,-159 732.89,-159"/>
<polygon fill="black" stroke="black" points="732.89,-162.5 742.89,-159 732.89,-155.5 732.89,-162.5"/>
</g>
<!-- ContactCardComponent -->
<g id="node3" class="node">
<title>ContactCardComponent</title>
<polygon fill="#ffffb3" stroke="black" points="498.09,-122 345.91,-122 345.91,-86 498.09,-86 498.09,-122"/>
<text text-anchor="middle" x="422" y="-99.8" font-family="Times,serif" font-size="14.00">ContactCardComponent</text>
</g>
<!-- ContactCardComponent&#45;&gt;ContactsModule -->
<g id="edge3" class="edge">
<title>ContactCardComponent&#45;&gt;ContactsModule</title>
<path fill="none" stroke="black" d="M422,-122.27C422,-140.56 422,-166 422,-166 422,-166 732.87,-166 732.87,-166"/>
<polygon fill="black" stroke="black" points="732.87,-169.5 742.87,-166 732.87,-162.5 732.87,-169.5"/>
</g>
<!-- ContactFormComponent -->
<g id="node4" class="node">
<title>ContactFormComponent</title>
<polygon fill="#ffffb3" stroke="black" points="327.71,-122 172.29,-122 172.29,-86 327.71,-86 327.71,-122"/>
<text text-anchor="middle" x="250" y="-99.8" font-family="Times,serif" font-size="14.00">ContactFormComponent</text>
</g>
<!-- ContactFormComponent&#45;&gt;ContactsModule -->
<g id="edge4" class="edge">
<title>ContactFormComponent&#45;&gt;ContactsModule</title>
<path fill="none" stroke="black" d="M250,-122.13C250,-142.57 250,-173 250,-173 250,-173 732.8,-173 732.8,-173"/>
<polygon fill="black" stroke="black" points="732.8,-176.5 742.8,-173 732.8,-169.5 732.8,-176.5"/>
</g>
<!-- ContactsComponent -->
<g id="node5" class="node">
<title>ContactsComponent</title>
<polygon fill="#ffffb3" stroke="black" points="154.32,-122 23.68,-122 23.68,-86 154.32,-86 154.32,-122"/>
<text text-anchor="middle" x="89" y="-99.8" font-family="Times,serif" font-size="14.00">ContactsComponent</text>
</g>
<!-- ContactsComponent&#45;&gt;ContactsModule -->
<g id="edge5" class="edge">
<title>ContactsComponent&#45;&gt;ContactsModule</title>
<path fill="none" stroke="black" d="M89,-122.01C89,-144.49 89,-180 89,-180 89,-180 732.91,-180 732.91,-180"/>
<polygon fill="black" stroke="black" points="732.91,-183.5 742.91,-180 732.91,-176.5 732.91,-183.5"/>
</g>
<!-- ContactsRoutingModule -->
<g id="node7" class="node">
<title>ContactsRoutingModule</title>
<polygon fill="#8dd3c7" stroke="black" points="1640.66,-122 1637.66,-126 1616.66,-126 1613.66,-122 1487.34,-122 1487.34,-86 1640.66,-86 1640.66,-122"/>
<text text-anchor="middle" x="1564" y="-99.8" font-family="Times,serif" font-size="14.00">ContactsRoutingModule</text>
</g>
<!-- ContactsRoutingModule&#45;&gt;ContactsModule -->
<g id="edge6" class="edge">
<title>ContactsRoutingModule&#45;&gt;ContactsModule</title>
<path fill="none" stroke="black" d="M1564,-122.01C1564,-144.49 1564,-180 1564,-180 1564,-180 861.24,-180 861.24,-180"/>
<polygon fill="black" stroke="black" points="861.24,-176.5 851.24,-180 861.24,-183.5 861.24,-176.5"/>
</g>
<!-- SharedModule -->
<g id="node8" class="node">
<title>SharedModule</title>
<polygon fill="#8dd3c7" stroke="black" points="1469.42,-122 1466.42,-126 1445.42,-126 1442.42,-122 1370.58,-122 1370.58,-86 1469.42,-86 1469.42,-122"/>
<text text-anchor="middle" x="1420" y="-99.8" font-family="Times,serif" font-size="14.00">SharedModule</text>
</g>
<!-- SharedModule&#45;&gt;ContactsModule -->
<g id="edge7" class="edge">
<title>SharedModule&#45;&gt;ContactsModule</title>
<path fill="none" stroke="black" d="M1420,-122.13C1420,-142.57 1420,-173 1420,-173 1420,-173 861.2,-173 861.2,-173"/>
<polygon fill="black" stroke="black" points="861.2,-169.5 851.2,-173 861.2,-176.5 861.2,-169.5"/>
</g>
<!-- LocalStorageSeederService -->
<g id="node9" class="node">
<title>LocalStorageSeederService</title>
<ellipse fill="#fdb462" stroke="black" cx="1229" cy="-104" rx="117.99" ry="18"/>
<text text-anchor="middle" x="1229" y="-99.8" font-family="Times,serif" font-size="14.00">LocalStorageSeederService</text>
</g>
<!-- LocalStorageSeederService&#45;&gt;ContactsModule -->
<g id="edge8" class="edge">
<title>LocalStorageSeederService&#45;&gt;ContactsModule</title>
<path fill="none" stroke="black" d="M1229,-122.27C1229,-140.56 1229,-166 1229,-166 1229,-166 861.28,-166 861.28,-166"/>
<polygon fill="black" stroke="black" points="861.28,-162.5 851.28,-166 861.28,-169.5 861.28,-162.5"/>
</g>
<!-- NotificationService -->
<g id="node10" class="node">
<title>NotificationService</title>
<ellipse fill="#fdb462" stroke="black" cx="1007" cy="-104" rx="86.81" ry="18"/>
<text text-anchor="middle" x="1007" y="-99.8" font-family="Times,serif" font-size="14.00">NotificationService</text>
</g>
<!-- NotificationService&#45;&gt;ContactsModule -->
<g id="edge9" class="edge">
<title>NotificationService&#45;&gt;ContactsModule</title>
<path fill="none" stroke="black" d="M1007,-122.01C1007,-138.05 1007,-159 1007,-159 1007,-159 861.08,-159 861.08,-159"/>
<polygon fill="black" stroke="black" points="861.08,-155.5 851.08,-159 861.08,-162.5 861.08,-155.5"/>
</g>
</g>
</svg>
