<svg width="46" height="46" viewBox="0 0 46 46" fill="none" xmlns="http://www.w3.org/2000/svg">
<path d="M4.74422 27.7549C3.61324 31.839 4.1159 34.2214 4.5086 34.9021L17.1536 38.0437C15.5042 41.1853 20.2166 42.2849 26.4999 41.6565C31.5264 41.1539 31.2646 38.8291 30.5054 37.7295C33.8303 37.0227 40.6685 35.5775 41.4225 35.4518C42.365 35.2948 42.4435 33.4883 41.0298 26.027C39.6161 18.5657 29.3273 15.267 26.4999 14.7958C24.2379 14.4188 12.9909 18.1992 7.65021 20.1365C7.15279 20.9743 5.8752 23.6708 4.74422 27.7549Z" fill="white"/>
<path d="M25.9062 26.5357C25.9062 26.5357 27.1813 22.5454 32.0267 24.1585C36.872 25.7716 41.8873 35.8747 41.8873 35.8747L30.4966 38.0821L27.3513 33.073L26.1613 29.8468L25.9062 26.5357Z" fill="#05B9C0"/>
<path d="M21.2617 26.5447C21.2617 26.5447 20.0391 22.5457 15.1938 24.1588C10.3484 25.7719 4.48304 34.7713 4.48304 34.7713L10.5184 36.8089L17.5739 38.1673L19.8691 33.0733L21.0592 29.8471L21.2617 26.5447Z" fill="#05B9C0"/>
<path d="M16.4707 11.253C16.4707 11.253 20.8059 9.8946 23.4411 9.9795C26.0763 10.0644 29.9866 11.253 29.9866 11.253C29.9866 11.253 38.5721 3.1875 40.3572 4.8006C41.2024 5.56431 42.2006 7.31473 41.6323 10.9134C41.0003 14.9158 38.7422 20.7618 38.7422 20.7618L40.5273 24.4974V28.0632C40.5273 28.0632 36.702 24.4974 34.4068 22.7145C32.1117 20.9316 30.0715 19.9354 27.6914 20.2524C25.3112 20.5693 24.0361 33.6666 24.0361 33.6666C24.0361 33.6666 22.6335 30.0159 21.826 25.2615C21.0184 20.5071 20.1258 20.2524 19.1908 20.0826C18.7818 20.0083 15.6833 21.093 12.9004 22.7145C9.32103 24.7999 5.92994 27.5538 5.92994 27.5538V23.6484L7.46004 20.2524C7.46004 20.2524 5.4199 18.2997 3.9748 12.0171C2.5297 5.7345 6.18495 3.1875 6.18495 3.1875C6.18495 3.1875 10.0102 4.8855 11.7103 6.4137C13.4104 7.9419 16.4707 11.253 16.4707 11.253Z" fill="#E1F9FA"/>
<path d="M7.40462 6.72852L10.5204 9.21629L13.6656 13.6311L10.9454 17.112C10.9454 17.112 9.58533 15.3291 8.14023 12.018C6.69514 8.70689 7.40462 6.72852 7.40462 6.72852Z" fill="#05B9C0"/>
<path d="M39.2523 6.41455L35.0021 9.89545L32.0075 13.994L34.6727 17.6023C34.6727 17.6023 36.7022 16.8572 38.1473 13.5461C39.5924 10.235 39.2523 6.41455 39.2523 6.41455Z" fill="#05B9C0"/>
<path d="M4.39508 34.8735C3.88312 34.1276 4.31202 30.3557 5.07707 26.7899C5.84212 23.2241 7.6253 20.101 7.6253 20.101C7.6253 20.101 6.47532 19.4462 5.16213 15.8378C3.92587 12.4409 2.69895 6.66864 5.16213 3.86695C7.62531 1.06525 16.4679 11.3381 16.4679 11.3381C16.4679 11.3381 18.9331 9.97974 23.3534 9.97974C27.7737 9.97974 29.9837 11.3381 29.9837 11.3381C29.9837 11.3381 36.6992 4.88573 39.5894 4.88574C42.4796 4.88575 41.8888 10.3622 41.0346 13.7154C40.1154 17.3239 38.7395 20.5922 38.7395 20.5922C38.7395 20.5922 40.4395 24.0731 41.3745 27.554C42.3096 31.0349 42.2247 35.0252 41.7996 35.6195M4.39508 34.8735C4.90705 35.6195 17.318 38.1665 17.318 38.1665M4.39508 34.8735C4.39508 34.8735 14.3427 21.5261 19.443 24.6674C24.5434 27.8087 17.318 38.1665 17.318 38.1665M41.7996 35.6195C41.3746 36.2138 30.4939 37.8269 30.4939 37.8269M41.7996 35.6195C41.7996 35.6195 33.214 20.4224 27.7736 24.2429C22.3332 28.0634 30.4939 37.8269 30.4939 37.8269M30.4939 37.8269C30.4939 37.8269 31.5139 39.7796 30.2388 40.6286C28.9637 41.4776 26.2435 41.987 26.2435 41.987M17.318 38.1665C17.318 38.1665 16.4678 39.6947 17.5729 40.6286C18.678 41.5625 21.1432 42.0719 21.1432 42.0719" stroke="#05B9C0" stroke-width="0.706862"/>
<path d="M27.7758 41.1389C27.7758 42.4518 25.949 43.5161 23.6955 43.5161C21.442 43.5161 19.6152 42.4518 19.6152 41.1389C19.6152 39.1777 21.442 38.7617 23.6955 38.7617C25.949 38.7617 27.7758 39.1777 27.7758 41.1389Z" fill="#05B9C0"/>
<path d="M20.2098 10.2302C20.2098 10.2302 21.9102 10.8299 22.4202 13.9712C22.7437 15.9641 23.4773 26.4578 23.2703 33.2435C23.1511 37.154 21.8252 39.3563 21.8252 39.3563" stroke="#05B9C0" stroke-width="0.706862"/>
<path d="M27.1505 10.3266C27.1505 10.3266 25.5514 10.6815 24.8523 13.9707C24.1532 17.2598 23.9138 26.1177 24.1208 32.9034C24.24 36.8138 25.4473 39.3558 25.4473 39.3558" stroke="#05B9C0" stroke-width="0.706862"/>
<ellipse cx="18.0002" cy="29.3372" rx="2.29516" ry="2.2923" fill="white"/>
<ellipse cx="18.0002" cy="29.3372" rx="2.29516" ry="2.2923" fill="white"/>
<ellipse cx="0.667761" cy="0.66693" rx="0.667761" ry="0.66693" transform="matrix(1 0 0 -1 17.4824 30.0459)" fill="#05B9C0"/>
<ellipse cx="29.5569" cy="29.3372" rx="2.29516" ry="2.2923" fill="white"/>
<ellipse cx="0.667761" cy="0.66693" rx="0.667761" ry="0.66693" transform="matrix(1 0 0 -1 28.6133 30.0459)" fill="#05B9C0"/>
<path d="M13.7493 13.2912C13.7493 13.2912 7.28667 4.95176 5.7587 5.98982C4.95491 6.53589 5.20897 10.1036 6.09875 13.1214C6.90042 15.8403 8.31115 18.0649 8.31115 18.0649C8.31115 18.0649 10.2641 17.706 11.7092 16.3476C13.1543 14.9892 13.7493 13.2912 13.7493 13.2912Z" stroke="#05B9C0" stroke-width="0.706862"/>
<path d="M31.9538 13.8615C31.9538 13.8615 38.4165 5.52207 39.9444 6.56013C40.7482 7.1062 40.4942 10.674 39.6044 13.6917C38.8027 16.4107 37.392 18.6352 37.392 18.6352C37.392 18.6352 35.439 18.2763 33.9939 16.9179C32.5488 15.5595 31.9538 13.8615 31.9538 13.8615Z" stroke="#05B9C0" stroke-width="0.706862"/>
<path d="M20.8066 10.2344H26.757L24.8019 13.8002L24.0369 24.3278L25.2269 39.2702L22.0817 39.5249L23.2718 23.9033L22.3367 13.8002L20.8066 10.2344Z" fill="#05B9C0"/>
<ellipse cx="0.169907" cy="0.169905" rx="0.169907" ry="0.169905" transform="matrix(0.866336 -0.499462 0.500538 0.865714 33.6914 15.6079)" fill="#05B9C0"/>
<ellipse cx="0.169907" cy="0.169905" rx="0.169907" ry="0.169905" transform="matrix(0.866336 -0.499462 0.500538 0.865714 34.8691 14.9282)" fill="#05B9C0"/>
<ellipse cx="0.169907" cy="0.169905" rx="0.169907" ry="0.169905" transform="matrix(0.866336 -0.499462 0.500538 0.865714 36.0449 14.2495)" fill="#05B9C0"/>
<ellipse cx="0.169907" cy="0.169905" rx="0.169907" ry="0.169905" transform="matrix(0.866336 -0.499462 0.500538 0.865714 34.0293 16.1948)" fill="#05B9C0"/>
<ellipse cx="0.169907" cy="0.169905" rx="0.169907" ry="0.169905" transform="matrix(0.866336 -0.499462 0.500538 0.865714 35.209 15.5161)" fill="#05B9C0"/>
<ellipse cx="0.169907" cy="0.169905" rx="0.169907" ry="0.169905" transform="matrix(0.866336 -0.499462 0.500538 0.865714 36.3887 14.8374)" fill="#05B9C0"/>
<ellipse cx="0.169907" cy="0.169905" rx="0.169907" ry="0.169905" transform="matrix(0.866336 -0.499462 0.500538 0.865714 26.7559 11.7637)" fill="#05B9C0"/>
<ellipse cx="0.169907" cy="0.169905" rx="0.169907" ry="0.169905" transform="matrix(0.866336 -0.499462 0.500538 0.865714 34.3691 16.7832)" fill="#05B9C0"/>
<ellipse cx="0.169907" cy="0.169905" rx="0.169907" ry="0.169905" transform="matrix(0.866336 -0.499462 0.500538 0.865714 35.5488 16.1045)" fill="#05B9C0"/>
<ellipse cx="0.169907" cy="0.169905" rx="0.169907" ry="0.169905" transform="matrix(0.866336 -0.499462 0.500538 0.865714 36.7246 15.4253)" fill="#05B9C0"/>
<ellipse cx="0.169907" cy="0.169905" rx="0.169907" ry="0.169905" transform="matrix(0.866336 -0.499462 0.500538 0.865714 27.0996 12.3511)" fill="#05B9C0"/>
<ellipse cx="0.169907" cy="0.169905" rx="0.169907" ry="0.169905" transform="matrix(0.866336 -0.499462 0.500538 0.865714 28.2754 11.6714)" fill="#05B9C0"/>
<ellipse cx="0.169907" cy="0.169905" rx="0.169907" ry="0.169905" transform="matrix(0.866336 -0.499462 0.500538 0.865714 31.8105 9.63379)" fill="#05B9C0"/>
<ellipse cx="0.169907" cy="0.169905" rx="0.169907" ry="0.169905" transform="matrix(0.866336 -0.499462 0.500538 0.865714 32.9863 8.95605)" fill="#05B9C0"/>
<ellipse cx="0.169907" cy="0.169905" rx="0.169907" ry="0.169905" transform="matrix(0.866336 -0.499462 0.500538 0.865714 34.709 17.3721)" fill="#05B9C0"/>
<ellipse cx="0.169907" cy="0.169905" rx="0.169907" ry="0.169905" transform="matrix(0.866336 -0.499462 0.500538 0.865714 35.8906 16.6924)" fill="#05B9C0"/>
<ellipse cx="0.169907" cy="0.169905" rx="0.169907" ry="0.169905" transform="matrix(0.866336 -0.499462 0.500538 0.865714 27.4355 12.939)" fill="#05B9C0"/>
<ellipse cx="0.169907" cy="0.169905" rx="0.169907" ry="0.169905" transform="matrix(0.866336 -0.499462 0.500538 0.865714 28.6172 12.2603)" fill="#05B9C0"/>
<ellipse cx="0.169907" cy="0.169905" rx="0.169907" ry="0.169905" transform="matrix(0.866336 -0.499462 0.500538 0.865714 29.7949 11.5806)" fill="#05B9C0"/>
<ellipse cx="0.169907" cy="0.169905" rx="0.169907" ry="0.169905" transform="matrix(0.866336 -0.499462 0.500538 0.865714 30.9727 10.9019)" fill="#05B9C0"/>
<ellipse cx="0.169907" cy="0.169905" rx="0.169907" ry="0.169905" transform="matrix(0.866336 -0.499462 0.500538 0.865714 32.1465 10.2231)" fill="#05B9C0"/>
<ellipse cx="0.169907" cy="0.169905" rx="0.169907" ry="0.169905" transform="matrix(0.866336 -0.499462 0.500538 0.865714 33.3262 9.54346)" fill="#05B9C0"/>
<ellipse cx="0.169907" cy="0.169905" rx="0.169907" ry="0.169905" transform="matrix(0.866336 -0.499462 0.500538 0.865714 28.9551 12.8481)" fill="#05B9C0"/>
<ellipse cx="0.169907" cy="0.169905" rx="0.169907" ry="0.169905" transform="matrix(0.866336 -0.499462 0.500538 0.865714 30.1348 12.1685)" fill="#05B9C0"/>
<ellipse cx="0.169907" cy="0.169905" rx="0.169907" ry="0.169905" transform="matrix(0.866336 -0.499462 0.500538 0.865714 31.3086 11.4897)" fill="#05B9C0"/>
<ellipse cx="0.169907" cy="0.169905" rx="0.169907" ry="0.169905" transform="matrix(0.866336 -0.499462 0.500538 0.865714 32.4902 10.8101)" fill="#05B9C0"/>
<ellipse cx="0.169907" cy="0.169905" rx="0.169907" ry="0.169905" transform="matrix(0.866336 -0.499462 0.500538 0.865714 33.668 10.1304)" fill="#05B9C0"/>
<ellipse cx="0.169907" cy="0.169905" rx="0.169907" ry="0.169905" transform="matrix(0.866336 -0.499462 0.500538 0.865714 35.3926 18.5474)" fill="#05B9C0"/>
<ellipse cx="0.169907" cy="0.169905" rx="0.169907" ry="0.169905" transform="matrix(0.866336 -0.499462 0.500538 0.865714 29.2949 13.4365)" fill="#05B9C0"/>
<ellipse cx="0.169907" cy="0.169905" rx="0.169907" ry="0.169905" transform="matrix(0.866336 -0.499462 0.500538 0.865714 30.4746 12.7568)" fill="#05B9C0"/>
<ellipse cx="0.169907" cy="0.169905" rx="0.169907" ry="0.169905" transform="matrix(0.866336 -0.499462 0.500538 0.865714 31.6504 12.0781)" fill="#05B9C0"/>
<ellipse cx="0.169907" cy="0.169905" rx="0.169907" ry="0.169905" transform="matrix(0.866336 -0.499462 0.500538 0.865714 32.8301 11.3989)" fill="#05B9C0"/>
<ellipse cx="0.169907" cy="0.169905" rx="0.169907" ry="0.169905" transform="matrix(0.866336 -0.499462 0.500538 0.865714 34.0078 10.7202)" fill="#05B9C0"/>
<ellipse cx="0.169907" cy="0.169905" rx="0.169907" ry="0.169905" transform="matrix(0.866336 -0.499462 0.500538 0.865714 35.7324 19.1367)" fill="#05B9C0"/>
<ellipse cx="0.169907" cy="0.169905" rx="0.169907" ry="0.169905" transform="matrix(0.866336 -0.499462 0.500538 0.865714 38.0879 17.7778)" fill="#05B9C0"/>
<ellipse cx="0.169907" cy="0.169905" rx="0.169907" ry="0.169905" transform="matrix(0.866336 -0.499462 0.500538 0.865714 29.6348 14.0254)" fill="#05B9C0"/>
<ellipse cx="0.169907" cy="0.169905" rx="0.169907" ry="0.169905" transform="matrix(0.866336 -0.499462 0.500538 0.865714 30.8145 13.3457)" fill="#05B9C0"/>
<ellipse cx="0.169907" cy="0.169905" rx="0.169907" ry="0.169905" transform="matrix(0.866336 -0.499462 0.500538 0.865714 31.9902 12.666)" fill="#05B9C0"/>
<ellipse cx="0.169907" cy="0.169905" rx="0.169907" ry="0.169905" transform="matrix(0.866336 -0.499462 0.500538 0.865714 33.1699 11.9873)" fill="#05B9C0"/>
<ellipse cx="0.169907" cy="0.169905" rx="0.169907" ry="0.169905" transform="matrix(0.866336 -0.499462 0.500538 0.865714 34.3496 11.3076)" fill="#05B9C0"/>
<ellipse cx="0.169907" cy="0.169905" rx="0.169907" ry="0.169905" transform="matrix(0.866336 -0.499462 0.500538 0.865714 36.0703 19.7246)" fill="#05B9C0"/>
<ellipse cx="0.169907" cy="0.169905" rx="0.169907" ry="0.169905" transform="matrix(0.866336 -0.499462 0.500538 0.865714 37.252 19.0454)" fill="#05B9C0"/>
<ellipse cx="0.169907" cy="0.169905" rx="0.169907" ry="0.169905" transform="matrix(0.866336 -0.499462 0.500538 0.865714 38.4277 18.3662)" fill="#05B9C0"/>
<ellipse cx="0.169907" cy="0.169905" rx="0.169907" ry="0.169905" transform="matrix(0.866336 -0.499462 0.500538 0.865714 31.1543 13.9331)" fill="#05B9C0"/>
<ellipse cx="0.169907" cy="0.169905" rx="0.169907" ry="0.169905" transform="matrix(0.866336 -0.499462 0.500538 0.865714 32.3301 13.2544)" fill="#05B9C0"/>
<ellipse cx="0.169907" cy="0.169905" rx="0.169907" ry="0.169905" transform="matrix(0.866336 -0.499462 0.500538 0.865714 33.5117 12.5757)" fill="#05B9C0"/>
<ellipse cx="0.169907" cy="0.169905" rx="0.169907" ry="0.169905" transform="matrix(0.866336 -0.499462 0.500538 0.865714 34.6855 11.896)" fill="#05B9C0"/>
<ellipse cx="0.169907" cy="0.169905" rx="0.169907" ry="0.169905" transform="matrix(0.866336 -0.499462 0.500538 0.865714 36.4121 20.313)" fill="#05B9C0"/>
<ellipse cx="0.169907" cy="0.169905" rx="0.169907" ry="0.169905" transform="matrix(0.866336 -0.499462 0.500538 0.865714 37.5879 19.6343)" fill="#05B9C0"/>
<ellipse cx="0.169907" cy="0.169905" rx="0.169907" ry="0.169905" transform="matrix(0.866336 -0.499462 0.500538 0.865714 38.7656 18.9546)" fill="#05B9C0"/>
<ellipse cx="0.169907" cy="0.169905" rx="0.169907" ry="0.169905" transform="matrix(0.866336 -0.499462 0.500538 0.865714 32.6699 13.8423)" fill="#05B9C0"/>
<ellipse cx="0.169907" cy="0.169905" rx="0.169907" ry="0.169905" transform="matrix(0.866336 -0.499462 0.500538 0.865714 33.8496 13.1636)" fill="#05B9C0"/>
<ellipse cx="0.169907" cy="0.169905" rx="0.169907" ry="0.169905" transform="matrix(0.866336 -0.499462 0.500538 0.865714 35.0293 12.4849)" fill="#05B9C0"/>
<ellipse cx="0.169907" cy="0.169905" rx="0.169907" ry="0.169905" transform="matrix(0.866336 -0.499462 0.500538 0.865714 36.752 20.9009)" fill="#05B9C0"/>
<ellipse cx="0.169907" cy="0.169905" rx="0.169907" ry="0.169905" transform="matrix(0.866336 -0.499462 0.500538 0.865714 37.9316 20.2212)" fill="#05B9C0"/>
<ellipse cx="0.169907" cy="0.169905" rx="0.169907" ry="0.169905" transform="matrix(0.866336 -0.499462 0.500538 0.865714 33.0137 14.4307)" fill="#05B9C0"/>
<ellipse cx="0.169907" cy="0.169905" rx="0.169907" ry="0.169905" transform="matrix(0.866336 -0.499462 0.500538 0.865714 34.1895 13.7515)" fill="#05B9C0"/>
<ellipse cx="0.169907" cy="0.169905" rx="0.169907" ry="0.169905" transform="matrix(0.866336 -0.499462 0.500538 0.865714 35.3652 13.0728)" fill="#05B9C0"/>
<ellipse cx="0.169907" cy="0.169905" rx="0.169907" ry="0.169905" transform="matrix(0.866336 -0.499462 0.500538 0.865714 37.0918 21.4893)" fill="#05B9C0"/>
<ellipse cx="0.169907" cy="0.169905" rx="0.169907" ry="0.169905" transform="matrix(0.866336 -0.499462 0.500538 0.865714 38.2676 20.8096)" fill="#05B9C0"/>
<ellipse cx="0.169907" cy="0.169905" rx="0.169907" ry="0.169905" transform="matrix(0.866336 -0.499462 0.500538 0.865714 33.3535 15.019)" fill="#05B9C0"/>
<ellipse cx="0.169907" cy="0.169905" rx="0.169907" ry="0.169905" transform="matrix(0.866336 -0.499462 0.500538 0.865714 34.5293 14.3398)" fill="#05B9C0"/>
<ellipse cx="0.169907" cy="0.169905" rx="0.169907" ry="0.169905" transform="matrix(0.866336 -0.499462 0.500538 0.865714 35.709 13.6602)" fill="#05B9C0"/>
<ellipse cx="0.169907" cy="0.169905" rx="0.169907" ry="0.169905" transform="matrix(0.866336 -0.499462 0.500538 0.865714 37.4316 22.0771)" fill="#05B9C0"/>
<ellipse cx="0.169907" cy="0.169905" rx="0.169907" ry="0.169905" transform="matrix(0.866336 -0.499462 0.500538 0.865714 38.6113 21.3984)" fill="#05B9C0"/>
<ellipse cx="0.169907" cy="0.169905" rx="0.169907" ry="0.169905" transform="matrix(0.866336 -0.499462 0.500538 0.865714 33.2715 16.2407)" fill="#05B9C0"/>
<ellipse cx="0.169907" cy="0.169905" rx="0.169907" ry="0.169905" transform="matrix(0.866336 -0.499462 0.500538 0.865714 34.4531 15.561)" fill="#05B9C0"/>
<ellipse cx="0.169907" cy="0.169905" rx="0.169907" ry="0.169905" transform="matrix(0.866336 -0.499462 0.500538 0.865714 35.627 14.8823)" fill="#05B9C0"/>
<ellipse cx="0.169907" cy="0.169905" rx="0.169907" ry="0.169905" transform="matrix(0.866336 -0.499462 0.500538 0.865714 36.8066 14.2026)" fill="#05B9C0"/>
<ellipse cx="0.169907" cy="0.169905" rx="0.169907" ry="0.169905" transform="matrix(0.866336 -0.499462 0.500538 0.865714 33.6152 16.8296)" fill="#05B9C0"/>
<ellipse cx="0.169907" cy="0.169905" rx="0.169907" ry="0.169905" transform="matrix(0.866336 -0.499462 0.500538 0.865714 34.791 16.1499)" fill="#05B9C0"/>
<ellipse cx="0.169907" cy="0.169905" rx="0.169907" ry="0.169905" transform="matrix(0.866336 -0.499462 0.500538 0.865714 35.9668 15.4702)" fill="#05B9C0"/>
<ellipse cx="0.169907" cy="0.169905" rx="0.169907" ry="0.169905" transform="matrix(0.866336 -0.499462 0.500538 0.865714 37.1465 14.7915)" fill="#05B9C0"/>
<ellipse cx="0.169907" cy="0.169905" rx="0.169907" ry="0.169905" transform="matrix(0.866336 -0.499462 0.500538 0.865714 27.5176 11.7173)" fill="#05B9C0"/>
<ellipse cx="0.169907" cy="0.169905" rx="0.169907" ry="0.169905" transform="matrix(0.866336 -0.499462 0.500538 0.865714 33.4043 8.32129)" fill="#05B9C0"/>
<ellipse cx="0.169907" cy="0.169905" rx="0.169907" ry="0.169905" transform="matrix(0.866336 -0.499462 0.500538 0.865714 35.1309 16.7383)" fill="#05B9C0"/>
<ellipse cx="0.169907" cy="0.169905" rx="0.169907" ry="0.169905" transform="matrix(0.866336 -0.499462 0.500538 0.865714 36.3066 16.0586)" fill="#05B9C0"/>
<ellipse cx="0.169907" cy="0.169905" rx="0.169907" ry="0.169905" transform="matrix(0.866336 -0.499462 0.500538 0.865714 27.8574 12.3062)" fill="#05B9C0"/>
<ellipse cx="0.169907" cy="0.169905" rx="0.169907" ry="0.169905" transform="matrix(0.866336 -0.499462 0.500538 0.865714 29.0371 11.6265)" fill="#05B9C0"/>
<ellipse cx="0.169907" cy="0.169905" rx="0.169907" ry="0.169905" transform="matrix(0.866336 -0.499462 0.500538 0.865714 31.3926 10.2686)" fill="#05B9C0"/>
<ellipse cx="0.169907" cy="0.169905" rx="0.169907" ry="0.169905" transform="matrix(0.866336 -0.499462 0.500538 0.865714 32.5664 9.58838)" fill="#05B9C0"/>
<ellipse cx="0.169907" cy="0.169905" rx="0.169907" ry="0.169905" transform="matrix(0.866336 -0.499462 0.500538 0.865714 33.748 8.90967)" fill="#05B9C0"/>
<ellipse cx="0.169907" cy="0.169905" rx="0.169907" ry="0.169905" transform="matrix(0.866336 -0.499462 0.500538 0.865714 28.1973 12.8931)" fill="#05B9C0"/>
<ellipse cx="0.169907" cy="0.169905" rx="0.169907" ry="0.169905" transform="matrix(0.866336 -0.499462 0.500538 0.865714 29.373 12.2144)" fill="#05B9C0"/>
<ellipse cx="0.169907" cy="0.169905" rx="0.169907" ry="0.169905" transform="matrix(0.866336 -0.499462 0.500538 0.865714 30.5527 11.5356)" fill="#05B9C0"/>
<ellipse cx="0.169907" cy="0.169905" rx="0.169907" ry="0.169905" transform="matrix(0.866336 -0.499462 0.500538 0.865714 31.7324 10.855)" fill="#05B9C0"/>
<ellipse cx="0.169907" cy="0.169905" rx="0.169907" ry="0.169905" transform="matrix(0.866336 -0.499462 0.500538 0.865714 32.9082 10.1763)" fill="#05B9C0"/>
<ellipse cx="0.169907" cy="0.169905" rx="0.169907" ry="0.169905" transform="matrix(0.866336 -0.499462 0.500538 0.865714 34.084 9.49854)" fill="#05B9C0"/>
<ellipse cx="0.169907" cy="0.169905" rx="0.169907" ry="0.169905" transform="matrix(0.866336 -0.499462 0.500538 0.865714 28.5371 13.4819)" fill="#05B9C0"/>
<ellipse cx="0.169907" cy="0.169905" rx="0.169907" ry="0.169905" transform="matrix(0.866336 -0.499462 0.500538 0.865714 29.7148 12.8032)" fill="#05B9C0"/>
<ellipse cx="0.169907" cy="0.169905" rx="0.169907" ry="0.169905" transform="matrix(0.866336 -0.499462 0.500538 0.865714 30.8926 12.1235)" fill="#05B9C0"/>
<ellipse cx="0.169907" cy="0.169905" rx="0.169907" ry="0.169905" transform="matrix(0.866336 -0.499462 0.500538 0.865714 32.0723 11.4448)" fill="#05B9C0"/>
<ellipse cx="0.169907" cy="0.169905" rx="0.169907" ry="0.169905" transform="matrix(0.866336 -0.499462 0.500538 0.865714 33.248 10.7651)" fill="#05B9C0"/>
<ellipse cx="0.169907" cy="0.169905" rx="0.169907" ry="0.169905" transform="matrix(0.866336 -0.499462 0.500538 0.865714 34.4277 10.0854)" fill="#05B9C0"/>
<ellipse cx="0.169907" cy="0.169905" rx="0.169907" ry="0.169905" transform="matrix(0.866336 -0.499462 0.500538 0.865714 38.5098 17.144)" fill="#05B9C0"/>
<ellipse cx="0.169907" cy="0.169905" rx="0.169907" ry="0.169905" transform="matrix(0.866336 -0.499462 0.500538 0.865714 30.0508 13.3906)" fill="#05B9C0"/>
<ellipse cx="0.169907" cy="0.169905" rx="0.169907" ry="0.169905" transform="matrix(0.866336 -0.499462 0.500538 0.865714 31.2324 12.7119)" fill="#05B9C0"/>
<ellipse cx="0.169907" cy="0.169905" rx="0.169907" ry="0.169905" transform="matrix(0.866336 -0.499462 0.500538 0.865714 32.4121 12.0332)" fill="#05B9C0"/>
<ellipse cx="0.169907" cy="0.169905" rx="0.169907" ry="0.169905" transform="matrix(0.866336 -0.499462 0.500538 0.865714 33.5879 11.3525)" fill="#05B9C0"/>
<ellipse cx="0.169907" cy="0.169905" rx="0.169907" ry="0.169905" transform="matrix(0.866336 -0.499462 0.500538 0.865714 34.7676 10.6738)" fill="#05B9C0"/>
<ellipse cx="0.169907" cy="0.169905" rx="0.169907" ry="0.169905" transform="matrix(0.866336 -0.499462 0.500538 0.865714 36.4902 19.0918)" fill="#05B9C0"/>
<ellipse cx="0.169907" cy="0.169905" rx="0.169907" ry="0.169905" transform="matrix(0.866336 -0.499462 0.500538 0.865714 37.6699 18.4121)" fill="#05B9C0"/>
<ellipse cx="0.169907" cy="0.169905" rx="0.169907" ry="0.169905" transform="matrix(0.866336 -0.499462 0.500538 0.865714 38.8457 17.7324)" fill="#05B9C0"/>
<ellipse cx="0.169907" cy="0.169905" rx="0.169907" ry="0.169905" transform="matrix(0.866336 -0.499462 0.500538 0.865714 30.3965 13.979)" fill="#05B9C0"/>
<ellipse cx="0.169907" cy="0.169905" rx="0.169907" ry="0.169905" transform="matrix(0.866336 -0.499462 0.500538 0.865714 31.5762 13.3003)" fill="#05B9C0"/>
<ellipse cx="0.169907" cy="0.169905" rx="0.169907" ry="0.169905" transform="matrix(0.866336 -0.499462 0.500538 0.865714 32.75 12.6211)" fill="#05B9C0"/>
<ellipse cx="0.169907" cy="0.169905" rx="0.169907" ry="0.169905" transform="matrix(0.866336 -0.499462 0.500538 0.865714 33.9277 11.9424)" fill="#05B9C0"/>
<ellipse cx="0.169907" cy="0.169905" rx="0.169907" ry="0.169905" transform="matrix(0.866336 -0.499462 0.500538 0.865714 35.1055 11.2627)" fill="#05B9C0"/>
<ellipse cx="0.169907" cy="0.169905" rx="0.169907" ry="0.169905" transform="matrix(0.866336 -0.499462 0.500538 0.865714 36.834 19.6797)" fill="#05B9C0"/>
<ellipse cx="0.169907" cy="0.169905" rx="0.169907" ry="0.169905" transform="matrix(0.866336 -0.499462 0.500538 0.865714 38.0098 19.0005)" fill="#05B9C0"/>
<ellipse cx="0.169907" cy="0.169905" rx="0.169907" ry="0.169905" transform="matrix(0.866336 -0.499462 0.500538 0.865714 39.1895 18.3208)" fill="#05B9C0"/>
<ellipse cx="0.169907" cy="0.169905" rx="0.169907" ry="0.169905" transform="matrix(0.866336 -0.499462 0.500538 0.865714 30.7363 14.5679)" fill="#05B9C0"/>
<ellipse cx="0.169907" cy="0.169905" rx="0.169907" ry="0.169905" transform="matrix(0.866336 -0.499462 0.500538 0.865714 31.9121 13.8882)" fill="#05B9C0"/>
<ellipse cx="0.169907" cy="0.169905" rx="0.169907" ry="0.169905" transform="matrix(0.866336 -0.499462 0.500538 0.865714 33.0879 13.2095)" fill="#05B9C0"/>
<ellipse cx="0.169907" cy="0.169905" rx="0.169907" ry="0.169905" transform="matrix(0.866336 -0.499462 0.500538 0.865714 34.2676 12.5298)" fill="#05B9C0"/>
<ellipse cx="0.169907" cy="0.169905" rx="0.169907" ry="0.169905" transform="matrix(0.866336 -0.499462 0.500538 0.865714 35.4473 11.8501)" fill="#05B9C0"/>
<ellipse cx="0.169907" cy="0.169905" rx="0.169907" ry="0.169905" transform="matrix(0.866336 -0.499462 0.500538 0.865714 37.1719 20.2671)" fill="#05B9C0"/>
<ellipse cx="0.169907" cy="0.169905" rx="0.169907" ry="0.169905" transform="matrix(0.866336 -0.499462 0.500538 0.865714 38.3496 19.5884)" fill="#05B9C0"/>
<ellipse cx="0.169907" cy="0.169905" rx="0.169907" ry="0.169905" transform="matrix(0.866336 -0.499462 0.500538 0.865714 31.0762 15.1553)" fill="#05B9C0"/>
<ellipse cx="0.169907" cy="0.169905" rx="0.169907" ry="0.169905" transform="matrix(0.866336 -0.499462 0.500538 0.865714 32.252 14.4761)" fill="#05B9C0"/>
<ellipse cx="0.169907" cy="0.169905" rx="0.169907" ry="0.169905" transform="matrix(0.866336 -0.499462 0.500538 0.865714 33.4277 13.7964)" fill="#05B9C0"/>
<ellipse cx="0.169907" cy="0.169905" rx="0.169907" ry="0.169905" transform="matrix(0.866336 -0.499462 0.500538 0.865714 34.6074 13.1177)" fill="#05B9C0"/>
<ellipse cx="0.169907" cy="0.169905" rx="0.169907" ry="0.169905" transform="matrix(0.866336 -0.499462 0.500538 0.865714 35.7871 12.438)" fill="#05B9C0"/>
<ellipse cx="0.169907" cy="0.169905" rx="0.169907" ry="0.169905" transform="matrix(0.866336 -0.499462 0.500538 0.865714 37.5117 20.856)" fill="#05B9C0"/>
<ellipse cx="0.169907" cy="0.169905" rx="0.169907" ry="0.169905" transform="matrix(0.866336 -0.499462 0.500538 0.865714 38.6895 20.1763)" fill="#05B9C0"/>
<ellipse cx="0.169907" cy="0.169905" rx="0.169907" ry="0.169905" transform="matrix(0.866336 -0.499462 0.500538 0.865714 32.5918 15.0654)" fill="#05B9C0"/>
<ellipse cx="0.169907" cy="0.169905" rx="0.169907" ry="0.169905" transform="matrix(0.866336 -0.499462 0.500538 0.865714 33.7715 14.3848)" fill="#05B9C0"/>
<ellipse cx="0.169907" cy="0.169905" rx="0.169907" ry="0.169905" transform="matrix(0.866336 -0.499462 0.500538 0.865714 34.9492 13.7061)" fill="#05B9C0"/>
<ellipse cx="0.169907" cy="0.169905" rx="0.169907" ry="0.169905" transform="matrix(0.866336 -0.499462 0.500538 0.865714 36.127 13.0273)" fill="#05B9C0"/>
<ellipse cx="0.169907" cy="0.169905" rx="0.169907" ry="0.169905" transform="matrix(0.866336 -0.499462 0.500538 0.865714 37.8496 21.4443)" fill="#05B9C0"/>
<ellipse cx="0.169907" cy="0.169905" rx="0.169907" ry="0.169905" transform="matrix(0.866336 -0.499462 0.500538 0.865714 32.9316 15.6528)" fill="#05B9C0"/>
<ellipse cx="0.169907" cy="0.169905" rx="0.169907" ry="0.169905" transform="matrix(0.866336 -0.499462 0.500538 0.865714 34.1113 14.9731)" fill="#05B9C0"/>
<ellipse cx="0.169907" cy="0.169905" rx="0.169907" ry="0.169905" transform="matrix(0.866336 -0.499462 0.500538 0.865714 35.2871 14.2944)" fill="#05B9C0"/>
<ellipse cx="0.169907" cy="0.169905" rx="0.169907" ry="0.169905" transform="matrix(0.866336 -0.499462 0.500538 0.865714 36.4668 13.6152)" fill="#05B9C0"/>
<ellipse cx="0.169907" cy="0.169905" rx="0.169907" ry="0.169905" transform="matrix(0.866336 -0.499462 0.500538 0.865714 38.1895 22.0317)" fill="#05B9C0"/>
<ellipse cx="0.169907" cy="0.169904" rx="0.169907" ry="0.169904" transform="matrix(0.866336 -0.499462 0.500538 0.865715 37.7676 22.667)" fill="#05B9C0"/>
<ellipse cx="0.169907" cy="0.169904" rx="0.169907" ry="0.169904" transform="matrix(0.866336 -0.499462 0.500538 0.865715 40.6699 30.4033)" fill="#05B9C0"/>
<ellipse cx="0.169907" cy="0.169904" rx="0.169907" ry="0.169904" transform="matrix(0.866336 -0.499462 0.500538 0.865715 38.1035 23.2544)" fill="#05B9C0"/>
<ellipse cx="0.169907" cy="0.169904" rx="0.169907" ry="0.169904" transform="matrix(0.866336 -0.499462 0.500538 0.865715 39.2832 22.5752)" fill="#05B9C0"/>
<ellipse cx="0.169907" cy="0.169904" rx="0.169907" ry="0.169904" transform="matrix(0.866336 -0.499462 0.500538 0.865715 39.8301 31.6719)" fill="#05B9C0"/>
<ellipse cx="0.169907" cy="0.169904" rx="0.169907" ry="0.169904" transform="matrix(0.866336 -0.499462 0.500538 0.865715 41.0098 30.9927)" fill="#05B9C0"/>
<ellipse cx="0.169907" cy="0.169904" rx="0.169907" ry="0.169904" transform="matrix(0.866336 -0.499462 0.500538 0.865715 38.4473 23.8433)" fill="#05B9C0"/>
<ellipse cx="0.169907" cy="0.169904" rx="0.169907" ry="0.169904" transform="matrix(0.866336 -0.499462 0.500538 0.865715 39.627 23.1636)" fill="#05B9C0"/>
<ellipse cx="0.169907" cy="0.169904" rx="0.169907" ry="0.169904" transform="matrix(0.866336 -0.499462 0.500538 0.865715 40.1699 32.2603)" fill="#05B9C0"/>
<ellipse cx="0.169907" cy="0.169904" rx="0.169907" ry="0.169904" transform="matrix(0.866336 -0.499462 0.500538 0.865715 41.3496 31.5806)" fill="#05B9C0"/>
<ellipse cx="0.169907" cy="0.169904" rx="0.169907" ry="0.169904" transform="matrix(0.866336 -0.499462 0.500538 0.865715 38.7871 24.4316)" fill="#05B9C0"/>
<ellipse cx="0.169907" cy="0.169904" rx="0.169907" ry="0.169904" transform="matrix(0.866336 -0.499462 0.500538 0.865715 40.5098 32.8477)" fill="#05B9C0"/>
<ellipse cx="0.169907" cy="0.169904" rx="0.169907" ry="0.169904" transform="matrix(0.866336 -0.499462 0.500538 0.865715 41.6895 32.1689)" fill="#05B9C0"/>
<ellipse cx="0.169907" cy="0.169904" rx="0.169907" ry="0.169904" transform="matrix(0.866336 -0.499462 0.500538 0.865715 39.127 25.0186)" fill="#05B9C0"/>
<ellipse cx="0.169907" cy="0.169904" rx="0.169907" ry="0.169904" transform="matrix(0.866336 -0.499462 0.500538 0.865715 39.6719 34.1152)" fill="#05B9C0"/>
<ellipse cx="0.169907" cy="0.169904" rx="0.169907" ry="0.169904" transform="matrix(0.866336 -0.499462 0.500538 0.865715 40.8496 33.4365)" fill="#05B9C0"/>
<ellipse cx="0.169907" cy="0.169904" rx="0.169907" ry="0.169904" transform="matrix(0.866336 -0.499462 0.500538 0.865715 39.4668 25.6074)" fill="#05B9C0"/>
<ellipse cx="0.169907" cy="0.169904" rx="0.169907" ry="0.169904" transform="matrix(0.866336 -0.499462 0.500538 0.865715 40.0137 34.7036)" fill="#05B9C0"/>
<ellipse cx="0.169907" cy="0.169904" rx="0.169907" ry="0.169904" transform="matrix(0.866336 -0.499462 0.500538 0.865715 41.1895 34.0249)" fill="#05B9C0"/>
<ellipse cx="0.169907" cy="0.169904" rx="0.169907" ry="0.169904" transform="matrix(0.866336 -0.499462 0.500538 0.865715 39.8066 26.1958)" fill="#05B9C0"/>
<ellipse cx="0.169907" cy="0.169904" rx="0.169907" ry="0.169904" transform="matrix(0.866336 -0.499462 0.500538 0.865715 40.3535 35.292)" fill="#05B9C0"/>
<ellipse cx="0.169907" cy="0.169904" rx="0.169907" ry="0.169904" transform="matrix(0.866336 -0.499462 0.500538 0.865715 41.5332 34.6128)" fill="#05B9C0"/>
<ellipse cx="0.169907" cy="0.169904" rx="0.169907" ry="0.169904" transform="matrix(0.866336 -0.499462 0.500538 0.865715 40.1465 26.7842)" fill="#05B9C0"/>
<ellipse cx="0.169907" cy="0.169904" rx="0.169907" ry="0.169904" transform="matrix(0.866336 -0.499462 0.500538 0.865715 40.6934 35.8799)" fill="#05B9C0"/>
<ellipse cx="0.169907" cy="0.169904" rx="0.169907" ry="0.169904" transform="matrix(0.866336 -0.499462 0.500538 0.865715 39.3105 28.0508)" fill="#05B9C0"/>
<ellipse cx="0.169907" cy="0.169904" rx="0.169907" ry="0.169904" transform="matrix(0.866336 -0.499462 0.500538 0.865715 40.4902 27.3721)" fill="#05B9C0"/>
<ellipse cx="0.169907" cy="0.169904" rx="0.169907" ry="0.169904" transform="matrix(0.866336 -0.499462 0.500538 0.865715 39.6504 28.6392)" fill="#05B9C0"/>
<ellipse cx="0.169907" cy="0.169904" rx="0.169907" ry="0.169904" transform="matrix(0.866336 -0.499462 0.500538 0.865715 40.8262 27.9604)" fill="#05B9C0"/>
<ellipse cx="0.169907" cy="0.169904" rx="0.169907" ry="0.169904" transform="matrix(0.866336 -0.499462 0.500538 0.865715 39.9863 29.228)" fill="#05B9C0"/>
<ellipse cx="0.169907" cy="0.169904" rx="0.169907" ry="0.169904" transform="matrix(0.866336 -0.499462 0.500538 0.865715 41.166 28.5483)" fill="#05B9C0"/>
<ellipse cx="0.169907" cy="0.169904" rx="0.169907" ry="0.169904" transform="matrix(0.866336 -0.499462 0.500538 0.865715 40.3301 29.8154)" fill="#05B9C0"/>
<ellipse cx="0.169907" cy="0.169904" rx="0.169907" ry="0.169904" transform="matrix(0.866336 -0.499462 0.500538 0.865715 41.5059 29.1367)" fill="#05B9C0"/>
<ellipse cx="0.169907" cy="0.169904" rx="0.169907" ry="0.169904" transform="matrix(0.866336 -0.499462 0.500538 0.865715 38.5254 22.6221)" fill="#05B9C0"/>
<ellipse cx="0.169907" cy="0.169904" rx="0.169907" ry="0.169904" transform="matrix(0.866336 -0.499462 0.500538 0.865715 40.248 31.0381)" fill="#05B9C0"/>
<ellipse cx="0.169907" cy="0.169904" rx="0.169907" ry="0.169904" transform="matrix(0.866336 -0.499462 0.500538 0.865715 41.4277 30.3584)" fill="#05B9C0"/>
<ellipse cx="0.169907" cy="0.169904" rx="0.169907" ry="0.169904" transform="matrix(0.866336 -0.499462 0.500538 0.865715 38.8652 23.2085)" fill="#05B9C0"/>
<ellipse cx="0.169907" cy="0.169904" rx="0.169907" ry="0.169904" transform="matrix(0.866336 -0.499462 0.500538 0.865715 40.5918 31.6255)" fill="#05B9C0"/>
<ellipse cx="0.169907" cy="0.169904" rx="0.169907" ry="0.169904" transform="matrix(0.866336 -0.499462 0.500538 0.865715 41.7676 30.9468)" fill="#05B9C0"/>
<ellipse cx="0.169907" cy="0.169904" rx="0.169907" ry="0.169904" transform="matrix(0.866336 -0.499462 0.500538 0.865715 39.2051 23.7969)" fill="#05B9C0"/>
<ellipse cx="0.169907" cy="0.169904" rx="0.169907" ry="0.169904" transform="matrix(0.866336 -0.499462 0.500538 0.865715 39.7559 32.8936)" fill="#05B9C0"/>
<ellipse cx="0.169907" cy="0.169904" rx="0.169907" ry="0.169904" transform="matrix(0.866336 -0.499462 0.500538 0.865715 40.9297 32.2148)" fill="#05B9C0"/>
<ellipse cx="0.169907" cy="0.169904" rx="0.169907" ry="0.169904" transform="matrix(0.866336 -0.499462 0.500538 0.865715 38.3691 25.0645)" fill="#05B9C0"/>
<ellipse cx="0.169907" cy="0.169904" rx="0.169907" ry="0.169904" transform="matrix(0.866336 -0.499462 0.500538 0.865715 39.5449 24.3857)" fill="#05B9C0"/>
<ellipse cx="0.169907" cy="0.169904" rx="0.169907" ry="0.169904" transform="matrix(0.866336 -0.499462 0.500538 0.865715 40.0918 33.4814)" fill="#05B9C0"/>
<ellipse cx="0.169907" cy="0.169904" rx="0.169907" ry="0.169904" transform="matrix(0.866336 -0.499462 0.500538 0.865715 41.2715 32.8027)" fill="#05B9C0"/>
<ellipse cx="0.169907" cy="0.169904" rx="0.169907" ry="0.169904" transform="matrix(0.866336 -0.499462 0.500538 0.865715 38.707 25.6533)" fill="#05B9C0"/>
<ellipse cx="0.169907" cy="0.169904" rx="0.169907" ry="0.169904" transform="matrix(0.866336 -0.499462 0.500538 0.865715 39.8848 24.9736)" fill="#05B9C0"/>
<ellipse cx="0.169907" cy="0.169904" rx="0.169907" ry="0.169904" transform="matrix(0.866336 -0.499462 0.500538 0.865715 40.4355 34.0698)" fill="#05B9C0"/>
<ellipse cx="0.169907" cy="0.169904" rx="0.169907" ry="0.169904" transform="matrix(0.866336 -0.499462 0.500538 0.865715 41.6074 33.3901)" fill="#05B9C0"/>
<ellipse cx="0.169907" cy="0.169904" rx="0.169907" ry="0.169904" transform="matrix(0.866336 -0.499462 0.500538 0.865715 39.0488 26.2407)" fill="#05B9C0"/>
<ellipse cx="0.169907" cy="0.169904" rx="0.169907" ry="0.169904" transform="matrix(0.866336 -0.499462 0.500538 0.865715 40.7715 34.6577)" fill="#05B9C0"/>
<ellipse cx="0.169907" cy="0.169904" rx="0.169907" ry="0.169904" transform="matrix(0.866336 -0.499462 0.500538 0.865715 39.3848 26.8296)" fill="#05B9C0"/>
<ellipse cx="0.169907" cy="0.169904" rx="0.169907" ry="0.169904" transform="matrix(0.866336 -0.499462 0.500538 0.865715 40.5684 26.1504)" fill="#05B9C0"/>
<ellipse cx="0.169907" cy="0.169904" rx="0.169907" ry="0.169904" transform="matrix(0.866336 -0.499462 0.500538 0.865715 41.1113 35.2461)" fill="#05B9C0"/>
<ellipse cx="0.169907" cy="0.169904" rx="0.169907" ry="0.169904" transform="matrix(0.866336 -0.499462 0.500538 0.865715 39.7285 27.418)" fill="#05B9C0"/>
<ellipse cx="0.169907" cy="0.169904" rx="0.169907" ry="0.169904" transform="matrix(0.866336 -0.499462 0.500538 0.865715 40.9082 26.7383)" fill="#05B9C0"/>
<ellipse cx="0.169907" cy="0.169904" rx="0.169907" ry="0.169904" transform="matrix(0.866336 -0.499462 0.500538 0.865715 40.0684 28.0059)" fill="#05B9C0"/>
<ellipse cx="0.169907" cy="0.169904" rx="0.169907" ry="0.169904" transform="matrix(0.866336 -0.499462 0.500538 0.865715 40.4082 28.5942)" fill="#05B9C0"/>
<ellipse cx="0.169907" cy="0.169904" rx="0.169907" ry="0.169904" transform="matrix(0.866336 -0.499462 0.500538 0.865715 39.5684 29.8613)" fill="#05B9C0"/>
<ellipse cx="0.169907" cy="0.169904" rx="0.169907" ry="0.169904" transform="matrix(0.866336 -0.499462 0.500538 0.865715 40.748 29.1826)" fill="#05B9C0"/>
<ellipse cx="0.169907" cy="0.169904" rx="0.169907" ry="0.169904" transform="matrix(0.866336 -0.499462 0.500538 0.865715 39.9121 30.4502)" fill="#05B9C0"/>
<ellipse cx="0.169907" cy="0.169904" rx="0.169907" ry="0.169904" transform="matrix(0.866336 -0.499462 0.500538 0.865715 41.0879 29.7705)" fill="#05B9C0"/>
<ellipse cx="0.169906" cy="0.169905" rx="0.169906" ry="0.169905" transform="matrix(0.866336 -0.499461 0.500539 0.865714 37.2246 13.5688)" fill="#05B9C0"/>
<ellipse cx="0.169906" cy="0.169905" rx="0.169906" ry="0.169905" transform="matrix(0.866336 -0.499461 0.500539 0.865714 40.7578 11.5312)" fill="#05B9C0"/>
<ellipse cx="0.169906" cy="0.169905" rx="0.169906" ry="0.169905" transform="matrix(0.866336 -0.499461 0.500539 0.865714 37.5625 14.1567)" fill="#05B9C0"/>
<ellipse cx="0.169906" cy="0.169905" rx="0.169906" ry="0.169905" transform="matrix(0.866336 -0.499461 0.500539 0.865714 38.7441 13.478)" fill="#05B9C0"/>
<ellipse cx="0.169906" cy="0.169905" rx="0.169906" ry="0.169905" transform="matrix(0.866336 -0.499461 0.500539 0.865714 39.9199 12.7983)" fill="#05B9C0"/>
<ellipse cx="0.169906" cy="0.169905" rx="0.169906" ry="0.169905" transform="matrix(0.866336 -0.499461 0.500539 0.865714 41.0996 12.1187)" fill="#05B9C0"/>
<ellipse cx="0.169906" cy="0.169905" rx="0.169906" ry="0.169905" transform="matrix(0.866336 -0.499461 0.500539 0.865714 36.1816 6.32861)" fill="#05B9C0"/>
<ellipse cx="0.169906" cy="0.169905" rx="0.169906" ry="0.169905" transform="matrix(0.866336 -0.499461 0.500539 0.865714 37.9023 14.7446)" fill="#05B9C0"/>
<ellipse cx="0.169906" cy="0.169905" rx="0.169906" ry="0.169905" transform="matrix(0.866336 -0.499461 0.500539 0.865714 40.2617 13.3862)" fill="#05B9C0"/>
<ellipse cx="0.169906" cy="0.169905" rx="0.169906" ry="0.169905" transform="matrix(0.866336 -0.499461 0.500539 0.865714 34.166 8.27441)" fill="#05B9C0"/>
<ellipse cx="0.169906" cy="0.169905" rx="0.169906" ry="0.169905" transform="matrix(0.866336 -0.499461 0.500539 0.865714 35.3398 7.59521)" fill="#05B9C0"/>
<ellipse cx="0.169906" cy="0.169905" rx="0.169906" ry="0.169905" transform="matrix(0.866336 -0.499461 0.500539 0.865714 36.5215 6.9165)" fill="#05B9C0"/>
<ellipse cx="0.169906" cy="0.169905" rx="0.169906" ry="0.169905" transform="matrix(0.866336 -0.499461 0.500539 0.865714 37.6973 6.23682)" fill="#05B9C0"/>
<ellipse cx="0.169906" cy="0.169905" rx="0.169906" ry="0.169905" transform="matrix(0.866336 -0.499461 0.500539 0.865714 38.877 5.55713)" fill="#05B9C0"/>
<ellipse cx="0.169906" cy="0.169905" rx="0.169906" ry="0.169905" transform="matrix(0.866336 -0.499461 0.500539 0.865714 39.4238 14.6538)" fill="#05B9C0"/>
<ellipse cx="0.169906" cy="0.169905" rx="0.169906" ry="0.169905" transform="matrix(0.866336 -0.499461 0.500539 0.865714 40.6016 13.9751)" fill="#05B9C0"/>
<ellipse cx="0.169906" cy="0.169905" rx="0.169906" ry="0.169905" transform="matrix(0.866336 -0.499461 0.500539 0.865714 34.502 8.86279)" fill="#05B9C0"/>
<ellipse cx="0.169906" cy="0.169905" rx="0.169906" ry="0.169905" transform="matrix(0.866336 -0.499461 0.500539 0.865714 35.6836 8.18359)" fill="#05B9C0"/>
<ellipse cx="0.169906" cy="0.169905" rx="0.169906" ry="0.169905" transform="matrix(0.866336 -0.499461 0.500539 0.865714 36.8613 7.50488)" fill="#05B9C0"/>
<ellipse cx="0.169906" cy="0.169905" rx="0.169906" ry="0.169905" transform="matrix(0.866336 -0.499461 0.500539 0.865714 38.0391 6.82617)" fill="#05B9C0"/>
<ellipse cx="0.169906" cy="0.169905" rx="0.169906" ry="0.169905" transform="matrix(0.866336 -0.499461 0.500539 0.865714 39.2168 6.14648)" fill="#05B9C0"/>
<ellipse cx="0.169906" cy="0.169905" rx="0.169906" ry="0.169905" transform="matrix(0.866336 -0.499461 0.500539 0.865714 38.584 15.9214)" fill="#05B9C0"/>
<ellipse cx="0.169906" cy="0.169905" rx="0.169906" ry="0.169905" transform="matrix(0.866336 -0.499461 0.500539 0.865714 39.7637 15.2422)" fill="#05B9C0"/>
<ellipse cx="0.169906" cy="0.169905" rx="0.169906" ry="0.169905" transform="matrix(0.866336 -0.499461 0.500539 0.865714 34.8457 9.45166)" fill="#05B9C0"/>
<ellipse cx="0.169906" cy="0.169905" rx="0.169906" ry="0.169905" transform="matrix(0.866336 -0.499461 0.500539 0.865714 36.0254 8.77197)" fill="#05B9C0"/>
<ellipse cx="0.169906" cy="0.169905" rx="0.169906" ry="0.169905" transform="matrix(0.866336 -0.499461 0.500539 0.865714 37.2012 8.09326)" fill="#05B9C0"/>
<ellipse cx="0.169906" cy="0.169905" rx="0.169906" ry="0.169905" transform="matrix(0.866336 -0.499461 0.500539 0.865714 38.3789 7.41455)" fill="#05B9C0"/>
<ellipse cx="0.169906" cy="0.169905" rx="0.169906" ry="0.169905" transform="matrix(0.866336 -0.499461 0.500539 0.865714 39.5566 6.73389)" fill="#05B9C0"/>
<ellipse cx="0.169906" cy="0.169905" rx="0.169906" ry="0.169905" transform="matrix(0.866336 -0.499461 0.500539 0.865714 40.7344 6.05518)" fill="#05B9C0"/>
<ellipse cx="0.169906" cy="0.169905" rx="0.169906" ry="0.169905" transform="matrix(0.866336 -0.499461 0.500539 0.865714 38.9277 16.5103)" fill="#05B9C0"/>
<ellipse cx="0.169906" cy="0.169905" rx="0.169906" ry="0.169905" transform="matrix(0.866336 -0.499461 0.500539 0.865714 40.1016 15.8306)" fill="#05B9C0"/>
<ellipse cx="0.169906" cy="0.169905" rx="0.169906" ry="0.169905" transform="matrix(0.866336 -0.499461 0.500539 0.865714 35.1875 10.0386)" fill="#05B9C0"/>
<ellipse cx="0.169906" cy="0.169905" rx="0.169906" ry="0.169905" transform="matrix(0.866336 -0.499461 0.500539 0.865714 36.3613 9.35986)" fill="#05B9C0"/>
<ellipse cx="0.169906" cy="0.169905" rx="0.169906" ry="0.169905" transform="matrix(0.866336 -0.499461 0.500539 0.865714 37.543 8.68115)" fill="#05B9C0"/>
<ellipse cx="0.169906" cy="0.169905" rx="0.169906" ry="0.169905" transform="matrix(0.866336 -0.499461 0.500539 0.865714 38.7168 8.00146)" fill="#05B9C0"/>
<ellipse cx="0.169906" cy="0.169905" rx="0.169906" ry="0.169905" transform="matrix(0.866336 -0.499461 0.500539 0.865714 39.8965 7.32178)" fill="#05B9C0"/>
<ellipse cx="0.169906" cy="0.169905" rx="0.169906" ry="0.169905" transform="matrix(0.866336 -0.499461 0.500539 0.865714 41.0742 6.64404)" fill="#05B9C0"/>
<ellipse cx="0.169906" cy="0.169905" rx="0.169906" ry="0.169905" transform="matrix(0.866336 -0.499461 0.500539 0.865714 39.2637 17.0981)" fill="#05B9C0"/>
<ellipse cx="0.169906" cy="0.169905" rx="0.169906" ry="0.169905" transform="matrix(0.866336 -0.499461 0.500539 0.865714 35.5254 10.6274)" fill="#05B9C0"/>
<ellipse cx="0.169906" cy="0.169905" rx="0.169906" ry="0.169905" transform="matrix(0.866336 -0.499461 0.500539 0.865714 36.7051 9.94873)" fill="#05B9C0"/>
<ellipse cx="0.169906" cy="0.169905" rx="0.169906" ry="0.169905" transform="matrix(0.866336 -0.499461 0.500539 0.865714 37.8789 9.26904)" fill="#05B9C0"/>
<ellipse cx="0.169906" cy="0.169905" rx="0.169906" ry="0.169905" transform="matrix(0.866336 -0.499461 0.500539 0.865714 40.2363 7.91064)" fill="#05B9C0"/>
<ellipse cx="0.169906" cy="0.169905" rx="0.169906" ry="0.169905" transform="matrix(0.866336 -0.499461 0.500539 0.865714 41.416 7.23096)" fill="#05B9C0"/>
<ellipse cx="0.169906" cy="0.169905" rx="0.169906" ry="0.169905" transform="matrix(0.866336 -0.499461 0.500539 0.865714 39.6074 17.686)" fill="#05B9C0"/>
<ellipse cx="0.169906" cy="0.169905" rx="0.169906" ry="0.169905" transform="matrix(0.866336 -0.499461 0.500539 0.865714 35.8652 11.2158)" fill="#05B9C0"/>
<ellipse cx="0.169906" cy="0.169905" rx="0.169906" ry="0.169905" transform="matrix(0.866336 -0.499461 0.500539 0.865714 37.0449 10.5366)" fill="#05B9C0"/>
<ellipse cx="0.169906" cy="0.169905" rx="0.169906" ry="0.169905" transform="matrix(0.866336 -0.499461 0.500539 0.865714 38.2207 9.85742)" fill="#05B9C0"/>
<ellipse cx="0.169906" cy="0.169905" rx="0.169906" ry="0.169905" transform="matrix(0.866336 -0.499461 0.500539 0.865714 39.3965 9.17871)" fill="#05B9C0"/>
<ellipse cx="0.169906" cy="0.169905" rx="0.169906" ry="0.169905" transform="matrix(0.866336 -0.499461 0.500539 0.865714 40.5781 8.49805)" fill="#05B9C0"/>
<ellipse cx="0.169906" cy="0.169905" rx="0.169906" ry="0.169905" transform="matrix(0.866336 -0.499461 0.500539 0.865714 36.2051 11.8032)" fill="#05B9C0"/>
<ellipse cx="0.169906" cy="0.169905" rx="0.169906" ry="0.169905" transform="matrix(0.866336 -0.499461 0.500539 0.865714 37.3828 11.1245)" fill="#05B9C0"/>
<ellipse cx="0.169906" cy="0.169905" rx="0.169906" ry="0.169905" transform="matrix(0.866336 -0.499461 0.500539 0.865714 38.5586 10.4458)" fill="#05B9C0"/>
<ellipse cx="0.169906" cy="0.169905" rx="0.169906" ry="0.169905" transform="matrix(0.866336 -0.499461 0.500539 0.865714 40.9199 9.0874)" fill="#05B9C0"/>
<ellipse cx="0.169906" cy="0.169905" rx="0.169906" ry="0.169905" transform="matrix(0.866336 -0.499461 0.500539 0.865714 36.5449 12.3921)" fill="#05B9C0"/>
<ellipse cx="0.169906" cy="0.169905" rx="0.169906" ry="0.169905" transform="matrix(0.866336 -0.499461 0.500539 0.865714 37.7227 11.7134)" fill="#05B9C0"/>
<ellipse cx="0.169906" cy="0.169905" rx="0.169906" ry="0.169905" transform="matrix(0.866336 -0.499461 0.500539 0.865714 40.082 10.354)" fill="#05B9C0"/>
<ellipse cx="0.169906" cy="0.169905" rx="0.169906" ry="0.169905" transform="matrix(0.866336 -0.499461 0.500539 0.865714 41.2559 9.67529)" fill="#05B9C0"/>
<ellipse cx="0.169906" cy="0.169905" rx="0.169906" ry="0.169905" transform="matrix(0.866336 -0.499461 0.500539 0.865714 36.8848 12.9805)" fill="#05B9C0"/>
<ellipse cx="0.169906" cy="0.169905" rx="0.169906" ry="0.169905" transform="matrix(0.866336 -0.499461 0.500539 0.865714 38.0625 12.3008)" fill="#05B9C0"/>
<ellipse cx="0.169906" cy="0.169905" rx="0.169906" ry="0.169905" transform="matrix(0.866336 -0.499461 0.500539 0.865714 39.2441 11.6216)" fill="#05B9C0"/>
<ellipse cx="0.169906" cy="0.169905" rx="0.169906" ry="0.169905" transform="matrix(0.866336 -0.499461 0.500539 0.865714 40.418 10.9419)" fill="#05B9C0"/>
<ellipse cx="0.169906" cy="0.169905" rx="0.169906" ry="0.169905" transform="matrix(0.866336 -0.499461 0.500539 0.865714 40.3379 12.1646)" fill="#05B9C0"/>
<ellipse cx="0.169906" cy="0.169905" rx="0.169906" ry="0.169905" transform="matrix(0.866336 -0.499461 0.500539 0.865714 38.3262 14.1108)" fill="#05B9C0"/>
<ellipse cx="0.169906" cy="0.169905" rx="0.169906" ry="0.169905" transform="matrix(0.866336 -0.499461 0.500539 0.865714 39.502 13.4331)" fill="#05B9C0"/>
<ellipse cx="0.169906" cy="0.169905" rx="0.169906" ry="0.169905" transform="matrix(0.866336 -0.499461 0.500539 0.865714 40.6777 12.7534)" fill="#05B9C0"/>
<ellipse cx="0.169906" cy="0.169905" rx="0.169906" ry="0.169905" transform="matrix(0.866336 -0.499461 0.500539 0.865714 34.584 7.64014)" fill="#05B9C0"/>
<ellipse cx="0.169906" cy="0.169905" rx="0.169906" ry="0.169905" transform="matrix(0.866336 -0.499461 0.500539 0.865714 35.7598 6.96143)" fill="#05B9C0"/>
<ellipse cx="0.169906" cy="0.169905" rx="0.169906" ry="0.169905" transform="matrix(0.866336 -0.499461 0.500539 0.865714 36.9414 6.28271)" fill="#05B9C0"/>
<ellipse cx="0.169906" cy="0.169905" rx="0.169906" ry="0.169905" transform="matrix(0.866336 -0.499461 0.500539 0.865714 38.1152 5.604)" fill="#05B9C0"/>
<ellipse cx="0.169906" cy="0.169905" rx="0.169906" ry="0.169905" transform="matrix(0.866336 -0.499461 0.500539 0.865714 39.8418 14.02)" fill="#05B9C0"/>
<ellipse cx="0.169906" cy="0.169905" rx="0.169906" ry="0.169905" transform="matrix(0.866336 -0.499461 0.500539 0.865714 34.9238 8.22852)" fill="#05B9C0"/>
<ellipse cx="0.169906" cy="0.169905" rx="0.169906" ry="0.169905" transform="matrix(0.866336 -0.499461 0.500539 0.865714 36.1035 7.5498)" fill="#05B9C0"/>
<ellipse cx="0.169906" cy="0.169905" rx="0.169906" ry="0.169905" transform="matrix(0.866336 -0.499461 0.500539 0.865714 37.2773 6.87109)" fill="#05B9C0"/>
<ellipse cx="0.169906" cy="0.169905" rx="0.169906" ry="0.169905" transform="matrix(0.866336 -0.499461 0.500539 0.865714 38.4551 6.19141)" fill="#05B9C0"/>
<ellipse cx="0.169906" cy="0.169905" rx="0.169906" ry="0.169905" transform="matrix(0.866336 -0.499461 0.500539 0.865714 39.6367 5.51221)" fill="#05B9C0"/>
<ellipse cx="0.169906" cy="0.169905" rx="0.169906" ry="0.169905" transform="matrix(0.866336 -0.499461 0.500539 0.865714 39.0039 15.2881)" fill="#05B9C0"/>
<ellipse cx="0.169906" cy="0.169905" rx="0.169906" ry="0.169905" transform="matrix(0.866336 -0.499461 0.500539 0.865714 40.1816 14.6074)" fill="#05B9C0"/>
<ellipse cx="0.169906" cy="0.169905" rx="0.169906" ry="0.169905" transform="matrix(0.866336 -0.499461 0.500539 0.865714 35.2637 8.81689)" fill="#05B9C0"/>
<ellipse cx="0.169906" cy="0.169905" rx="0.169906" ry="0.169905" transform="matrix(0.866336 -0.499461 0.500539 0.865714 36.4414 8.13818)" fill="#05B9C0"/>
<ellipse cx="0.169906" cy="0.169905" rx="0.169906" ry="0.169905" transform="matrix(0.866336 -0.499461 0.500539 0.865714 37.6191 7.45947)" fill="#05B9C0"/>
<ellipse cx="0.169906" cy="0.169905" rx="0.169906" ry="0.169905" transform="matrix(0.866336 -0.499461 0.500539 0.865714 38.8008 6.77979)" fill="#05B9C0"/>
<ellipse cx="0.169906" cy="0.169905" rx="0.169906" ry="0.169905" transform="matrix(0.866336 -0.499461 0.500539 0.865714 39.9746 6.1001)" fill="#05B9C0"/>
<ellipse cx="0.169906" cy="0.169905" rx="0.169906" ry="0.169905" transform="matrix(0.866336 -0.499461 0.500539 0.865714 39.3438 15.8765)" fill="#05B9C0"/>
<ellipse cx="0.169906" cy="0.169905" rx="0.169906" ry="0.169905" transform="matrix(0.866336 -0.499461 0.500539 0.865714 35.6074 9.40576)" fill="#05B9C0"/>
<ellipse cx="0.169906" cy="0.169905" rx="0.169906" ry="0.169905" transform="matrix(0.866336 -0.499461 0.500539 0.865714 36.7812 8.72607)" fill="#05B9C0"/>
<ellipse cx="0.169906" cy="0.169905" rx="0.169906" ry="0.169905" transform="matrix(0.866336 -0.499461 0.500539 0.865714 37.959 8.04736)" fill="#05B9C0"/>
<ellipse cx="0.169906" cy="0.169905" rx="0.169906" ry="0.169905" transform="matrix(0.866336 -0.499461 0.500539 0.865714 40.3145 6.68896)" fill="#05B9C0"/>
<ellipse cx="0.169906" cy="0.169905" rx="0.169906" ry="0.169905" transform="matrix(0.866336 -0.499461 0.500539 0.865714 39.6855 16.4644)" fill="#05B9C0"/>
<ellipse cx="0.169906" cy="0.169905" rx="0.169906" ry="0.169905" transform="matrix(0.866336 -0.499461 0.500539 0.865714 35.9434 9.99365)" fill="#05B9C0"/>
<ellipse cx="0.169906" cy="0.169905" rx="0.169906" ry="0.169905" transform="matrix(0.866336 -0.499461 0.500539 0.865714 37.1211 9.31396)" fill="#05B9C0"/>
<ellipse cx="0.169906" cy="0.169905" rx="0.169906" ry="0.169905" transform="matrix(0.866336 -0.499461 0.500539 0.865714 38.3027 8.63525)" fill="#05B9C0"/>
<ellipse cx="0.169906" cy="0.169905" rx="0.169906" ry="0.169905" transform="matrix(0.866336 -0.499461 0.500539 0.865714 40.6543 7.27686)" fill="#05B9C0"/>
<ellipse cx="0.169906" cy="0.169905" rx="0.169906" ry="0.169905" transform="matrix(0.866336 -0.499461 0.500539 0.865714 36.2852 10.582)" fill="#05B9C0"/>
<ellipse cx="0.169906" cy="0.169905" rx="0.169906" ry="0.169905" transform="matrix(0.866336 -0.499461 0.500539 0.865714 37.459 9.90234)" fill="#05B9C0"/>
<ellipse cx="0.169906" cy="0.169905" rx="0.169906" ry="0.169905" transform="matrix(0.866336 -0.499461 0.500539 0.865714 38.6406 9.22363)" fill="#05B9C0"/>
<ellipse cx="0.169906" cy="0.169905" rx="0.169906" ry="0.169905" transform="matrix(0.866336 -0.499461 0.500539 0.865714 40.998 7.86572)" fill="#05B9C0"/>
<ellipse cx="0.169906" cy="0.169905" rx="0.169906" ry="0.169905" transform="matrix(0.866336 -0.499461 0.500539 0.865714 36.6211 11.1709)" fill="#05B9C0"/>
<ellipse cx="0.169906" cy="0.169905" rx="0.169906" ry="0.169905" transform="matrix(0.866336 -0.499461 0.500539 0.865714 37.8027 10.4917)" fill="#05B9C0"/>
<ellipse cx="0.169906" cy="0.169905" rx="0.169906" ry="0.169905" transform="matrix(0.866336 -0.499461 0.500539 0.865714 40.1582 9.13281)" fill="#05B9C0"/>
<ellipse cx="0.169906" cy="0.169905" rx="0.169906" ry="0.169905" transform="matrix(0.866336 -0.499461 0.500539 0.865714 41.3359 8.45312)" fill="#05B9C0"/>
<ellipse cx="0.169906" cy="0.169905" rx="0.169906" ry="0.169905" transform="matrix(0.866336 -0.499461 0.500539 0.865714 36.9668 11.7583)" fill="#05B9C0"/>
<ellipse cx="0.169906" cy="0.169905" rx="0.169906" ry="0.169905" transform="matrix(0.866336 -0.499461 0.500539 0.865714 38.1426 11.0786)" fill="#05B9C0"/>
<ellipse cx="0.169906" cy="0.169905" rx="0.169906" ry="0.169905" transform="matrix(0.866336 -0.499461 0.500539 0.865714 39.3203 10.3999)" fill="#05B9C0"/>
<ellipse cx="0.169906" cy="0.169905" rx="0.169906" ry="0.169905" transform="matrix(0.866336 -0.499461 0.500539 0.865714 40.498 9.72119)" fill="#05B9C0"/>
<ellipse cx="0.169906" cy="0.169905" rx="0.169906" ry="0.169905" transform="matrix(0.866336 -0.499461 0.500539 0.865714 37.3027 12.3462)" fill="#05B9C0"/>
<ellipse cx="0.169906" cy="0.169905" rx="0.169906" ry="0.169905" transform="matrix(0.866336 -0.499461 0.500539 0.865714 38.4824 11.6675)" fill="#05B9C0"/>
<ellipse cx="0.169906" cy="0.169905" rx="0.169906" ry="0.169905" transform="matrix(0.866336 -0.499461 0.500539 0.865714 40.8379 10.3091)" fill="#05B9C0"/>
<ellipse cx="0.169906" cy="0.169905" rx="0.169906" ry="0.169905" transform="matrix(0.866336 -0.499461 0.500539 0.865714 37.6465 12.9355)" fill="#05B9C0"/>
<ellipse cx="0.169906" cy="0.169905" rx="0.169906" ry="0.169905" transform="matrix(0.866336 -0.499461 0.500539 0.865714 38.8203 12.2559)" fill="#05B9C0"/>
<ellipse cx="0.169906" cy="0.169905" rx="0.169906" ry="0.169905" transform="matrix(0.866336 -0.499461 0.500539 0.865714 39.998 11.5762)" fill="#05B9C0"/>
<ellipse cx="0.169906" cy="0.169905" rx="0.169906" ry="0.169905" transform="matrix(0.866336 -0.499461 0.500539 0.865714 41.1777 10.897)" fill="#05B9C0"/>
</svg>
