<?xml version="1.0" encoding="UTF-8" standalone="no"?>
<!DOCTYPE svg PUBLIC "-//W3C//DTD SVG 1.1//EN"
 "http://www.w3.org/Graphics/SVG/1.1/DTD/svg11.dtd">
<!-- Generated by graphviz version 2.47.0 (20210316.0004)
 -->
<!-- Title: dependencies Pages: 1 -->
<svg width="1168pt" height="211pt"
 viewBox="0.00 0.00 1168.00 211.00" xmlns="http://www.w3.org/2000/svg" xmlns:xlink="http://www.w3.org/1999/xlink">
<g id="graph0" class="graph" transform="scale(1 1) rotate(0) translate(4 207)">
<title>dependencies</title>
<polygon fill="white" stroke="transparent" points="-4,4 -4,-207 1164,-207 1164,4 -4,4"/>
<text text-anchor="start" x="559.01" y="-42.4" font-family="Times-12" font-weight="bold" font-size="14.00">Legend</text>
<polygon fill="#ffffb3" stroke="transparent" points="346,-10 346,-30 366,-30 366,-10 346,-10"/>
<text text-anchor="start" x="369.63" y="-15.4" font-family="Times-12" font-size="14.00"> &#160;Declarations</text>
<polygon fill="#8dd3c7" stroke="transparent" points="459,-10 459,-30 479,-30 479,-10 459,-10"/>
<text text-anchor="start" x="482.73" y="-15.4" font-family="Times-12" font-size="14.00"> &#160;Module</text>
<polygon fill="#80b1d3" stroke="transparent" points="545,-10 545,-30 565,-30 565,-10 545,-10"/>
<text text-anchor="start" x="568.78" y="-15.4" font-family="Times-12" font-size="14.00"> &#160;Bootstrap</text>
<polygon fill="#fdb462" stroke="transparent" points="642,-10 642,-30 662,-30 662,-10 642,-10"/>
<text text-anchor="start" x="665.67" y="-15.4" font-family="Times-12" font-size="14.00"> &#160;Providers</text>
<polygon fill="#fb8072" stroke="transparent" points="738,-10 738,-30 758,-30 758,-10 738,-10"/>
<text text-anchor="start" x="761.73" y="-15.4" font-family="Times-12" font-size="14.00"> &#160;Exports</text>
<g id="clust1" class="cluster">
<title>cluster_ConstructionsModule</title>
<polygon fill="none" stroke="black" stroke-dasharray="1,5" points="8,-70 8,-195 1152,-195 1152,-70 8,-70"/>
</g>
<g id="clust2" class="cluster">
<title>cluster_ConstructionsModule_declarations</title>
<polygon fill="none" stroke="black" points="789,-78 789,-130 1144,-130 1144,-78 789,-78"/>
</g>
<g id="clust5" class="cluster">
<title>cluster_ConstructionsModule_imports</title>
<polygon fill="none" stroke="black" points="467,-78 467,-130 781,-130 781,-78 467,-78"/>
</g>
<g id="clust8" class="cluster">
<title>cluster_ConstructionsModule_providers</title>
<polygon fill="none" stroke="black" points="16,-78 16,-130 459,-130 459,-78 16,-78"/>
</g>
<!-- ConstructionsComponent -->
<g id="node1" class="node">
<title>ConstructionsComponent</title>
<polygon fill="#ffffb3" stroke="black" points="1135.61,-122 976.39,-122 976.39,-86 1135.61,-86 1135.61,-122"/>
<text text-anchor="middle" x="1056" y="-99.8" font-family="Times,serif" font-size="14.00">ConstructionsComponent</text>
</g>
<!-- ConstructionsModule -->
<g id="node3" class="node">
<title>ConstructionsModule</title>
<polygon fill="#8dd3c7" stroke="black" points="671.82,-187 668.82,-191 647.82,-191 644.82,-187 534.18,-187 534.18,-151 671.82,-151 671.82,-187"/>
<text text-anchor="middle" x="603" y="-164.8" font-family="Times,serif" font-size="14.00">ConstructionsModule</text>
</g>
<!-- ConstructionsComponent&#45;&gt;ConstructionsModule -->
<g id="edge1" class="edge">
<title>ConstructionsComponent&#45;&gt;ConstructionsModule</title>
<path fill="none" stroke="black" d="M1056,-122.28C1056,-143.32 1056,-175 1056,-175 1056,-175 681.8,-175 681.8,-175"/>
<polygon fill="black" stroke="black" points="681.8,-171.5 671.8,-175 681.8,-178.5 681.8,-171.5"/>
</g>
<!-- FeatureDialogComponent -->
<g id="node2" class="node">
<title>FeatureDialogComponent</title>
<polygon fill="#ffffb3" stroke="black" points="958.91,-122 797.09,-122 797.09,-86 958.91,-86 958.91,-122"/>
<text text-anchor="middle" x="878" y="-99.8" font-family="Times,serif" font-size="14.00">FeatureDialogComponent</text>
</g>
<!-- FeatureDialogComponent&#45;&gt;ConstructionsModule -->
<g id="edge2" class="edge">
<title>FeatureDialogComponent&#45;&gt;ConstructionsModule</title>
<path fill="none" stroke="black" d="M878,-122.02C878,-139.37 878,-163 878,-163 878,-163 681.68,-163 681.68,-163"/>
<polygon fill="black" stroke="black" points="681.68,-159.5 671.68,-163 681.68,-166.5 681.68,-159.5"/>
</g>
<!-- ConstructionsRoutingModule -->
<g id="node4" class="node">
<title>ConstructionsRoutingModule</title>
<polygon fill="#8dd3c7" stroke="black" points="773.44,-122 770.44,-126 749.44,-126 746.44,-122 590.56,-122 590.56,-86 773.44,-86 773.44,-122"/>
<text text-anchor="middle" x="682" y="-99.8" font-family="Times,serif" font-size="14.00">ConstructionsRoutingModule</text>
</g>
<!-- ConstructionsRoutingModule&#45;&gt;ConstructionsModule -->
<g id="edge3" class="edge">
<title>ConstructionsRoutingModule&#45;&gt;ConstructionsModule</title>
<path fill="none" stroke="black" d="M631.22,-122.11C631.22,-122.11 631.22,-140.99 631.22,-140.99"/>
<polygon fill="black" stroke="black" points="627.72,-140.99 631.22,-150.99 634.72,-140.99 627.72,-140.99"/>
</g>
<!-- SharedModule -->
<g id="node5" class="node">
<title>SharedModule</title>
<polygon fill="#8dd3c7" stroke="black" points="573.42,-122 570.42,-126 549.42,-126 546.42,-122 474.58,-122 474.58,-86 573.42,-86 573.42,-122"/>
<text text-anchor="middle" x="524" y="-99.8" font-family="Times,serif" font-size="14.00">SharedModule</text>
</g>
<!-- SharedModule&#45;&gt;ConstructionsModule -->
<g id="edge4" class="edge">
<title>SharedModule&#45;&gt;ConstructionsModule</title>
<path fill="none" stroke="black" d="M553.77,-122.11C553.77,-122.11 553.77,-140.99 553.77,-140.99"/>
<polygon fill="black" stroke="black" points="550.27,-140.99 553.77,-150.99 557.27,-140.99 550.27,-140.99"/>
</g>
<!-- LocalStorageSeederService -->
<g id="node6" class="node">
<title>LocalStorageSeederService</title>
<ellipse fill="#fdb462" stroke="black" cx="333" cy="-104" rx="117.99" ry="18"/>
<text text-anchor="middle" x="333" y="-99.8" font-family="Times,serif" font-size="14.00">LocalStorageSeederService</text>
</g>
<!-- LocalStorageSeederService&#45;&gt;ConstructionsModule -->
<g id="edge5" class="edge">
<title>LocalStorageSeederService&#45;&gt;ConstructionsModule</title>
<path fill="none" stroke="black" d="M333,-122.02C333,-139.37 333,-163 333,-163 333,-163 524.17,-163 524.17,-163"/>
<polygon fill="black" stroke="black" points="524.17,-166.5 534.17,-163 524.17,-159.5 524.17,-166.5"/>
</g>
<!-- NotificationService -->
<g id="node7" class="node">
<title>NotificationService</title>
<ellipse fill="#fdb462" stroke="black" cx="111" cy="-104" rx="86.81" ry="18"/>
<text text-anchor="middle" x="111" y="-99.8" font-family="Times,serif" font-size="14.00">NotificationService</text>
</g>
<!-- NotificationService&#45;&gt;ConstructionsModule -->
<g id="edge6" class="edge">
<title>NotificationService&#45;&gt;ConstructionsModule</title>
<path fill="none" stroke="black" d="M111,-122.28C111,-143.32 111,-175 111,-175 111,-175 524.33,-175 524.33,-175"/>
<polygon fill="black" stroke="black" points="524.33,-178.5 534.33,-175 524.33,-171.5 524.33,-178.5"/>
</g>
</g>
</svg>
