<?xml version="1.0" encoding="UTF-8" standalone="no"?>
<!DOCTYPE svg PUBLIC "-//W3C//DTD SVG 1.1//EN"
 "http://www.w3.org/Graphics/SVG/1.1/DTD/svg11.dtd">
<!-- Generated by graphviz version 2.47.0 (20210316.0004)
 -->
<!-- Title: dependencies Pages: 1 -->
<svg width="4423pt" height="360pt"
 viewBox="0.00 0.00 4423.00 360.00" xmlns="http://www.w3.org/2000/svg" xmlns:xlink="http://www.w3.org/1999/xlink">
<g id="graph0" class="graph" transform="scale(1 1) rotate(0) translate(4 356)">
<title>dependencies</title>
<polygon fill="white" stroke="transparent" points="-4,4 -4,-356 4419,-356 4419,4 -4,4"/>
<text text-anchor="start" x="2186.51" y="-42.4" font-family="Times-12" font-weight="bold" font-size="14.00">Legend</text>
<polygon fill="#ffffb3" stroke="transparent" points="1973.5,-10 1973.5,-30 1993.5,-30 1993.5,-10 1973.5,-10"/>
<text text-anchor="start" x="1997.13" y="-15.4" font-family="Times-12" font-size="14.00"> &#160;Declarations</text>
<polygon fill="#8dd3c7" stroke="transparent" points="2086.5,-10 2086.5,-30 2106.5,-30 2106.5,-10 2086.5,-10"/>
<text text-anchor="start" x="2110.23" y="-15.4" font-family="Times-12" font-size="14.00"> &#160;Module</text>
<polygon fill="#80b1d3" stroke="transparent" points="2172.5,-10 2172.5,-30 2192.5,-30 2192.5,-10 2172.5,-10"/>
<text text-anchor="start" x="2196.28" y="-15.4" font-family="Times-12" font-size="14.00"> &#160;Bootstrap</text>
<polygon fill="#fdb462" stroke="transparent" points="2269.5,-10 2269.5,-30 2289.5,-30 2289.5,-10 2269.5,-10"/>
<text text-anchor="start" x="2293.17" y="-15.4" font-family="Times-12" font-size="14.00"> &#160;Providers</text>
<polygon fill="#fb8072" stroke="transparent" points="2365.5,-10 2365.5,-30 2385.5,-30 2385.5,-10 2365.5,-10"/>
<text text-anchor="start" x="2389.23" y="-15.4" font-family="Times-12" font-size="14.00"> &#160;Exports</text>
<g id="clust1" class="cluster">
<title>cluster_AppModule</title>
<polygon fill="none" stroke="black" stroke-dasharray="1,5" points="2814,-146 2814,-344 3997,-344 3997,-146 2814,-146"/>
</g>
<g id="clust2" class="cluster">
<title>cluster_AppModule_declarations</title>
<polygon fill="none" stroke="black" points="3091,-154 3091,-206 3989,-206 3989,-154 3091,-154"/>
</g>
<g id="clust9" class="cluster">
<title>cluster_AppModule_imports</title>
<polygon fill="none" stroke="black" points="2822,-154 2822,-206 3083,-206 3083,-154 2822,-154"/>
</g>
<g id="clust11" class="cluster">
<title>cluster_AppModule_bootstrap</title>
<polygon fill="none" stroke="black" points="3360,-284 3360,-336 3484,-336 3484,-284 3360,-284"/>
</g>
<g id="clust19" class="cluster">
<title>cluster_ConstructionsModule</title>
<polygon fill="none" stroke="black" stroke-dasharray="1,5" points="1414,-146 1414,-271 2442,-271 2442,-146 1414,-146"/>
</g>
<g id="clust20" class="cluster">
<title>cluster_ConstructionsModule_declarations</title>
<polygon fill="none" stroke="black" points="2079,-154 2079,-206 2434,-206 2434,-154 2079,-154"/>
</g>
<g id="clust23" class="cluster">
<title>cluster_ConstructionsModule_imports</title>
<polygon fill="none" stroke="black" points="1873,-154 1873,-206 2071,-206 2071,-154 1873,-154"/>
</g>
<g id="clust26" class="cluster">
<title>cluster_ConstructionsModule_providers</title>
<polygon fill="none" stroke="black" points="1422,-154 1422,-206 1865,-206 1865,-154 1422,-154"/>
</g>
<g id="clust33" class="cluster">
<title>cluster_ContactsModule</title>
<polygon fill="none" stroke="black" stroke-dasharray="1,5" points="8,-146 8,-271 1090,-271 1090,-146 8,-146"/>
</g>
<g id="clust34" class="cluster">
<title>cluster_ContactsModule_declarations</title>
<polygon fill="none" stroke="black" points="194,-154 194,-206 1082,-206 1082,-154 194,-154"/>
</g>
<g id="clust40" class="cluster">
<title>cluster_ContactsModule_imports</title>
<polygon fill="none" stroke="black" points="16,-154 16,-206 186,-206 186,-154 16,-154"/>
</g>
<g id="clust50" class="cluster">
<title>cluster_CostEstimatesModule</title>
<polygon fill="none" stroke="black" stroke-dasharray="1,5" points="4005,-70 4005,-206 4407,-206 4407,-70 4005,-70"/>
</g>
<g id="clust51" class="cluster">
<title>cluster_CostEstimatesModule_declarations</title>
<polygon fill="none" stroke="black" points="4221,-78 4221,-130 4399,-130 4399,-78 4221,-78"/>
</g>
<g id="clust53" class="cluster">
<title>cluster_CostEstimatesModule_imports</title>
<polygon fill="none" stroke="black" points="4013,-78 4013,-130 4213,-130 4213,-78 4013,-78"/>
</g>
<g id="clust63" class="cluster">
<title>cluster_SharedModule</title>
<polygon fill="none" stroke="black" stroke-dasharray="1,5" points="2585,-70 2585,-138 3231,-138 3231,-70 2585,-70"/>
</g>
<g id="clust64" class="cluster">
<title>cluster_SharedModule_declarations</title>
<polygon fill="none" stroke="black" points="2737,-78 2737,-130 3223,-130 3223,-78 2737,-78"/>
</g>
<g id="clust69" class="cluster">
<title>cluster_SharedModule_exports</title>
<polygon fill="none" stroke="black" points="2593,-78 2593,-130 2729,-130 2729,-78 2593,-78"/>
</g>
<g id="clust72" class="cluster">
<title>cluster_TasksModule</title>
<polygon fill="none" stroke="black" stroke-dasharray="1,5" points="1098,-146 1098,-271 1406,-271 1406,-146 1098,-146"/>
</g>
<g id="clust73" class="cluster">
<title>cluster_TasksModule_declarations</title>
<polygon fill="none" stroke="black" points="1268,-154 1268,-206 1398,-206 1398,-154 1268,-154"/>
</g>
<g id="clust75" class="cluster">
<title>cluster_TasksModule_imports</title>
<polygon fill="none" stroke="black" points="1106,-154 1106,-206 1260,-206 1260,-154 1106,-154"/>
</g>
<g id="clust85" class="cluster">
<title>cluster_UserPanelModule</title>
<polygon fill="none" stroke="black" stroke-dasharray="1,5" points="2450,-146 2450,-271 2806,-271 2806,-146 2450,-146"/>
</g>
<g id="clust86" class="cluster">
<title>cluster_UserPanelModule_declarations</title>
<polygon fill="none" stroke="black" points="2644,-154 2644,-206 2798,-206 2798,-154 2644,-154"/>
</g>
<g id="clust88" class="cluster">
<title>cluster_UserPanelModule_imports</title>
<polygon fill="none" stroke="black" points="2458,-154 2458,-206 2636,-206 2636,-154 2458,-154"/>
</g>
<!-- AppComponent -->
<g id="node1" class="node">
<title>AppComponent</title>
<polygon fill="#ffffb3" stroke="black" points="3980.94,-198 3875.06,-198 3875.06,-162 3980.94,-162 3980.94,-198"/>
<text text-anchor="middle" x="3928" y="-175.8" font-family="Times,serif" font-size="14.00">AppComponent</text>
</g>
<!-- AppModule -->
<g id="node7" class="node">
<title>AppModule</title>
<polygon fill="#8dd3c7" stroke="black" points="3463.66,-263 3460.66,-267 3439.66,-267 3436.66,-263 3380.34,-263 3380.34,-227 3463.66,-227 3463.66,-263"/>
<text text-anchor="middle" x="3422" y="-240.8" font-family="Times,serif" font-size="14.00">AppModule</text>
</g>
<!-- AppComponent&#45;&gt;AppModule -->
<g id="edge1" class="edge">
<title>AppComponent&#45;&gt;AppModule</title>
<path fill="none" stroke="black" d="M3928,-198.29C3928,-220.21 3928,-254 3928,-254 3928,-254 3473.84,-254 3473.84,-254"/>
<polygon fill="black" stroke="black" points="3473.84,-250.5 3463.84,-254 3473.84,-257.5 3473.84,-250.5"/>
</g>
<!-- HeaderComponent -->
<g id="node2" class="node">
<title>HeaderComponent</title>
<polygon fill="#ffffb3" stroke="black" points="3856.74,-198 3735.26,-198 3735.26,-162 3856.74,-162 3856.74,-198"/>
<text text-anchor="middle" x="3796" y="-175.8" font-family="Times,serif" font-size="14.00">HeaderComponent</text>
</g>
<!-- HeaderComponent&#45;&gt;AppModule -->
<g id="edge2" class="edge">
<title>HeaderComponent&#45;&gt;AppModule</title>
<path fill="none" stroke="black" d="M3796,-198.11C3796,-217.34 3796,-245 3796,-245 3796,-245 3473.81,-245 3473.81,-245"/>
<polygon fill="black" stroke="black" points="3473.81,-241.5 3463.81,-245 3473.81,-248.5 3473.81,-241.5"/>
</g>
<!-- LayoutComponent -->
<g id="node3" class="node">
<title>LayoutComponent</title>
<polygon fill="#ffffb3" stroke="black" points="3717.49,-198 3596.51,-198 3596.51,-162 3717.49,-162 3717.49,-198"/>
<text text-anchor="middle" x="3657" y="-175.8" font-family="Times,serif" font-size="14.00">LayoutComponent</text>
</g>
<!-- LayoutComponent&#45;&gt;AppModule -->
<g id="edge3" class="edge">
<title>LayoutComponent&#45;&gt;AppModule</title>
<path fill="none" stroke="black" d="M3657,-198.03C3657,-214.4 3657,-236 3657,-236 3657,-236 3473.74,-236 3473.74,-236"/>
<polygon fill="black" stroke="black" points="3473.74,-232.5 3463.74,-236 3473.74,-239.5 3473.74,-232.5"/>
</g>
<!-- MainContentComponent -->
<g id="node4" class="node">
<title>MainContentComponent</title>
<polygon fill="#ffffb3" stroke="black" points="3578.71,-198 3423.29,-198 3423.29,-162 3578.71,-162 3578.71,-198"/>
<text text-anchor="middle" x="3501" y="-175.8" font-family="Times,serif" font-size="14.00">MainContentComponent</text>
</g>
<!-- MainContentComponent&#45;&gt;AppModule -->
<g id="edge4" class="edge">
<title>MainContentComponent&#45;&gt;AppModule</title>
<path fill="none" stroke="black" d="M3443.61,-198.11C3443.61,-198.11 3443.61,-216.99 3443.61,-216.99"/>
<polygon fill="black" stroke="black" points="3440.11,-216.99 3443.61,-226.99 3447.11,-216.99 3440.11,-216.99"/>
</g>
<!-- NavbarComponent -->
<g id="node5" class="node">
<title>NavbarComponent</title>
<polygon fill="#ffffb3" stroke="black" points="3405.03,-198 3282.97,-198 3282.97,-162 3405.03,-162 3405.03,-198"/>
<text text-anchor="middle" x="3344" y="-175.8" font-family="Times,serif" font-size="14.00">NavbarComponent</text>
</g>
<!-- NavbarComponent&#45;&gt;AppModule -->
<g id="edge5" class="edge">
<title>NavbarComponent&#45;&gt;AppModule</title>
<path fill="none" stroke="black" d="M3392.72,-198.11C3392.72,-198.11 3392.72,-216.99 3392.72,-216.99"/>
<polygon fill="black" stroke="black" points="3389.22,-216.99 3392.72,-226.99 3396.22,-216.99 3389.22,-216.99"/>
</g>
<!-- PageNotFoundComponent -->
<g id="node6" class="node">
<title>PageNotFoundComponent</title>
<polygon fill="#ffffb3" stroke="black" points="3264.82,-198 3099.18,-198 3099.18,-162 3264.82,-162 3264.82,-198"/>
<text text-anchor="middle" x="3182" y="-175.8" font-family="Times,serif" font-size="14.00">PageNotFoundComponent</text>
</g>
<!-- PageNotFoundComponent&#45;&gt;AppModule -->
<g id="edge6" class="edge">
<title>PageNotFoundComponent&#45;&gt;AppModule</title>
<path fill="none" stroke="black" d="M3182,-198.01C3182,-214.05 3182,-235 3182,-235 3182,-235 3370.2,-235 3370.2,-235"/>
<polygon fill="black" stroke="black" points="3370.2,-238.5 3380.2,-235 3370.2,-231.5 3370.2,-238.5"/>
</g>
<!-- AppComponent  -->
<g id="node10" class="node">
<title>AppComponent </title>
<polygon fill="#80b1d3" stroke="black" points="3476.44,-328 3367.56,-328 3367.56,-292 3476.44,-292 3476.44,-328"/>
<text text-anchor="middle" x="3422" y="-305.8" font-family="Times,serif" font-size="14.00">AppComponent </text>
</g>
<!-- AppModule&#45;&gt;AppComponent  -->
<g id="edge9" class="edge">
<title>AppModule&#45;&gt;AppComponent </title>
<path fill="none" stroke="black" stroke-dasharray="1,5" d="M3422,-263.11C3422,-263.11 3422,-281.99 3422,-281.99"/>
<polygon fill="black" stroke="black" points="3418.5,-281.99 3422,-291.99 3425.5,-281.99 3418.5,-281.99"/>
</g>
<!-- AppRoutingModule -->
<g id="node8" class="node">
<title>AppRoutingModule</title>
<polygon fill="#8dd3c7" stroke="black" points="3075.27,-198 3072.27,-202 3051.27,-202 3048.27,-198 2946.73,-198 2946.73,-162 3075.27,-162 3075.27,-198"/>
<text text-anchor="middle" x="3011" y="-175.8" font-family="Times,serif" font-size="14.00">AppRoutingModule</text>
</g>
<!-- AppRoutingModule&#45;&gt;AppModule -->
<g id="edge7" class="edge">
<title>AppRoutingModule&#45;&gt;AppModule</title>
<path fill="none" stroke="black" d="M3011,-198.27C3011,-216.56 3011,-242 3011,-242 3011,-242 3370.33,-242 3370.33,-242"/>
<polygon fill="black" stroke="black" points="3370.33,-245.5 3380.33,-242 3370.33,-238.5 3370.33,-245.5"/>
</g>
<!-- SharedModule -->
<g id="node9" class="node">
<title>SharedModule</title>
<polygon fill="#8dd3c7" stroke="black" points="2928.42,-198 2925.42,-202 2904.42,-202 2901.42,-198 2829.58,-198 2829.58,-162 2928.42,-162 2928.42,-198"/>
<text text-anchor="middle" x="2879" y="-175.8" font-family="Times,serif" font-size="14.00">SharedModule</text>
</g>
<!-- SharedModule&#45;&gt;AppModule -->
<g id="edge8" class="edge">
<title>SharedModule&#45;&gt;AppModule</title>
<path fill="none" stroke="black" d="M2908.53,-198.13C2908.53,-218.57 2908.53,-249 2908.53,-249 2908.53,-249 3369.98,-249 3369.98,-249"/>
<polygon fill="black" stroke="black" points="3369.98,-252.5 3379.98,-249 3369.98,-245.5 3369.98,-252.5"/>
</g>
<!-- ConstructionsModule -->
<g id="node13" class="node">
<title>ConstructionsModule</title>
<polygon fill="#8dd3c7" stroke="black" points="2138.82,-263 2135.82,-267 2114.82,-267 2111.82,-263 2001.18,-263 2001.18,-227 2138.82,-227 2138.82,-263"/>
<text text-anchor="middle" x="2070" y="-240.8" font-family="Times,serif" font-size="14.00">ConstructionsModule</text>
</g>
<!-- SharedModule&#45;&gt;ConstructionsModule -->
<g id="edge13" class="edge">
<title>SharedModule&#45;&gt;ConstructionsModule</title>
<path fill="none" stroke="black" d="M2869.16,-198.06C2869.16,-209.44 2869.16,-222 2869.16,-222 2869.16,-222 2121.54,-222 2121.54,-222 2121.54,-222 2121.54,-222.49 2121.54,-222.49"/>
<polygon fill="black" stroke="black" points="2118.04,-216.88 2121.54,-226.88 2125.04,-216.88 2118.04,-216.88"/>
</g>
<!-- ContactsModule -->
<g id="node22" class="node">
<title>ContactsModule</title>
<polygon fill="#8dd3c7" stroke="black" points="880.04,-263 877.04,-267 856.04,-267 853.04,-263 771.96,-263 771.96,-227 880.04,-227 880.04,-263"/>
<text text-anchor="middle" x="826" y="-240.8" font-family="Times,serif" font-size="14.00">ContactsModule</text>
</g>
<!-- SharedModule&#45;&gt;ContactsModule -->
<g id="edge22" class="edge">
<title>SharedModule&#45;&gt;ContactsModule</title>
<path fill="none" stroke="black" d="M2849.47,-198.42C2849.47,-207.28 2849.47,-216 2849.47,-216 2849.47,-216 858.56,-216 858.56,-216 858.56,-216 858.56,-217.08 858.56,-217.08"/>
<polygon fill="black" stroke="black" points="855.06,-216.8 858.56,-226.8 862.06,-216.8 855.06,-216.8"/>
</g>
<!-- PhoneFormatPipe  -->
<g id="node30" class="node">
<title>PhoneFormatPipe </title>
<polygon fill="#fb8072" stroke="black" points="2720.82,-122 2601.18,-122 2601.18,-86 2720.82,-86 2720.82,-122"/>
<text text-anchor="middle" x="2661" y="-99.8" font-family="Times,serif" font-size="14.00">PhoneFormatPipe </text>
</g>
<!-- SharedModule&#45;&gt;PhoneFormatPipe  -->
<g id="edge30" class="edge">
<title>SharedModule&#45;&gt;PhoneFormatPipe </title>
<path fill="none" stroke="black" stroke-dasharray="5,2" d="M2845.48,-161.89C2845.48,-152.1 2845.48,-142 2845.48,-142 2845.48,-142 2686.24,-142 2686.24,-142 2686.24,-142 2686.24,-132.11 2686.24,-132.11"/>
<polygon fill="black" stroke="black" points="2689.74,-132.11 2686.24,-122.11 2682.74,-132.11 2689.74,-132.11"/>
</g>
<!-- TasksModule -->
<g id="node32" class="node">
<title>TasksModule</title>
<polygon fill="#8dd3c7" stroke="black" points="1398.21,-263 1395.21,-267 1374.21,-267 1371.21,-263 1305.79,-263 1305.79,-227 1398.21,-227 1398.21,-263"/>
<text text-anchor="middle" x="1352" y="-240.8" font-family="Times,serif" font-size="14.00">TasksModule</text>
</g>
<!-- SharedModule&#45;&gt;TasksModule -->
<g id="edge32" class="edge">
<title>SharedModule&#45;&gt;TasksModule</title>
<path fill="none" stroke="black" d="M2837.63,-161.79C2837.63,-156.45 2837.63,-152 2837.63,-152 2837.63,-152 1392.7,-152 1392.7,-152 1392.7,-152 1392.7,-216.63 1392.7,-216.63"/>
<polygon fill="black" stroke="black" points="1389.2,-216.63 1392.7,-226.63 1396.2,-216.63 1389.2,-216.63"/>
</g>
<!-- UserPanelModule -->
<g id="node35" class="node">
<title>UserPanelModule</title>
<polygon fill="#8dd3c7" stroke="black" points="2779.58,-263 2776.58,-267 2755.58,-267 2752.58,-263 2662.42,-263 2662.42,-227 2779.58,-227 2779.58,-263"/>
<text text-anchor="middle" x="2721" y="-240.8" font-family="Times,serif" font-size="14.00">UserPanelModule</text>
</g>
<!-- SharedModule&#45;&gt;UserPanelModule -->
<g id="edge37" class="edge">
<title>SharedModule&#45;&gt;UserPanelModule</title>
<path fill="none" stroke="black" d="M2888.84,-198.01C2888.84,-220.49 2888.84,-256 2888.84,-256 2888.84,-256 2789.7,-256 2789.7,-256"/>
<polygon fill="black" stroke="black" points="2789.7,-252.5 2779.7,-256 2789.7,-259.5 2789.7,-252.5"/>
</g>
<!-- ConstructionsComponent -->
<g id="node11" class="node">
<title>ConstructionsComponent</title>
<polygon fill="#ffffb3" stroke="black" points="2425.61,-198 2266.39,-198 2266.39,-162 2425.61,-162 2425.61,-198"/>
<text text-anchor="middle" x="2346" y="-175.8" font-family="Times,serif" font-size="14.00">ConstructionsComponent</text>
</g>
<!-- ConstructionsComponent&#45;&gt;ConstructionsModule -->
<g id="edge10" class="edge">
<title>ConstructionsComponent&#45;&gt;ConstructionsModule</title>
<path fill="none" stroke="black" d="M2346,-198.02C2346,-215.37 2346,-239 2346,-239 2346,-239 2148.93,-239 2148.93,-239"/>
<polygon fill="black" stroke="black" points="2148.93,-235.5 2138.93,-239 2148.93,-242.5 2148.93,-235.5"/>
</g>
<!-- FeatureDialogComponent -->
<g id="node12" class="node">
<title>FeatureDialogComponent</title>
<polygon fill="#ffffb3" stroke="black" points="2248.91,-198 2087.09,-198 2087.09,-162 2248.91,-162 2248.91,-198"/>
<text text-anchor="middle" x="2168" y="-175.8" font-family="Times,serif" font-size="14.00">FeatureDialogComponent</text>
</g>
<!-- FeatureDialogComponent&#45;&gt;ConstructionsModule -->
<g id="edge11" class="edge">
<title>FeatureDialogComponent&#45;&gt;ConstructionsModule</title>
<path fill="none" stroke="black" d="M2104.42,-198.11C2104.42,-198.11 2104.42,-216.99 2104.42,-216.99"/>
<polygon fill="black" stroke="black" points="2100.92,-216.99 2104.42,-226.99 2107.92,-216.99 2100.92,-216.99"/>
</g>
<!-- ConstructionsRoutingModule -->
<g id="node14" class="node">
<title>ConstructionsRoutingModule</title>
<polygon fill="#8dd3c7" stroke="black" points="2063.44,-198 2060.44,-202 2039.44,-202 2036.44,-198 1880.56,-198 1880.56,-162 2063.44,-162 2063.44,-198"/>
<text text-anchor="middle" x="1972" y="-175.8" font-family="Times,serif" font-size="14.00">ConstructionsRoutingModule</text>
</g>
<!-- ConstructionsRoutingModule&#45;&gt;ConstructionsModule -->
<g id="edge12" class="edge">
<title>ConstructionsRoutingModule&#45;&gt;ConstructionsModule</title>
<path fill="none" stroke="black" d="M2032.28,-198.11C2032.28,-198.11 2032.28,-216.99 2032.28,-216.99"/>
<polygon fill="black" stroke="black" points="2028.78,-216.99 2032.28,-226.99 2035.78,-216.99 2028.78,-216.99"/>
</g>
<!-- LocalStorageSeederService -->
<g id="node15" class="node">
<title>LocalStorageSeederService</title>
<ellipse fill="#fdb462" stroke="black" cx="1739" cy="-180" rx="117.99" ry="18"/>
<text text-anchor="middle" x="1739" y="-175.8" font-family="Times,serif" font-size="14.00">LocalStorageSeederService</text>
</g>
<!-- LocalStorageSeederService&#45;&gt;ConstructionsModule -->
<g id="edge14" class="edge">
<title>LocalStorageSeederService&#45;&gt;ConstructionsModule</title>
<path fill="none" stroke="black" d="M1797.87,-195.73C1797.87,-214.97 1797.87,-245 1797.87,-245 1797.87,-245 1991.33,-245 1991.33,-245"/>
<polygon fill="black" stroke="black" points="1991.33,-248.5 2001.33,-245 1991.33,-241.5 1991.33,-248.5"/>
</g>
<!-- LocalStorageSeederService&#45;&gt;ContactsModule -->
<g id="edge23" class="edge">
<title>LocalStorageSeederService&#45;&gt;ContactsModule</title>
<path fill="none" stroke="black" d="M1680.13,-195.7C1680.13,-202.96 1680.13,-210 1680.13,-210 1680.13,-210 836.85,-210 836.85,-210 836.85,-210 836.85,-216.68 836.85,-216.68"/>
<polygon fill="black" stroke="black" points="833.35,-216.68 836.85,-226.68 840.35,-216.68 833.35,-216.68"/>
</g>
<!-- LocalStorageSeederService&#45;&gt;TasksModule -->
<g id="edge34" class="edge">
<title>LocalStorageSeederService&#45;&gt;TasksModule</title>
<path fill="none" stroke="black" d="M1739,-198.03C1739,-214.4 1739,-236 1739,-236 1739,-236 1408.3,-236 1408.3,-236"/>
<polygon fill="black" stroke="black" points="1408.3,-232.5 1398.3,-236 1408.3,-239.5 1408.3,-232.5"/>
</g>
<!-- NotificationService -->
<g id="node16" class="node">
<title>NotificationService</title>
<ellipse fill="#fdb462" stroke="black" cx="1517" cy="-180" rx="86.81" ry="18"/>
<text text-anchor="middle" x="1517" y="-175.8" font-family="Times,serif" font-size="14.00">NotificationService</text>
</g>
<!-- NotificationService&#45;&gt;ConstructionsModule -->
<g id="edge15" class="edge">
<title>NotificationService&#45;&gt;ConstructionsModule</title>
<path fill="none" stroke="black" d="M1545.89,-197.16C1545.89,-219.02 1545.89,-254 1545.89,-254 1545.89,-254 1991.21,-254 1991.21,-254"/>
<polygon fill="black" stroke="black" points="1991.21,-257.5 2001.21,-254 1991.21,-250.5 1991.21,-257.5"/>
</g>
<!-- NotificationService&#45;&gt;ContactsModule -->
<g id="edge24" class="edge">
<title>NotificationService&#45;&gt;ContactsModule</title>
<path fill="none" stroke="black" d="M1488.11,-197.19C1488.11,-201.03 1488.11,-204 1488.11,-204 1488.11,-204 815.15,-204 815.15,-204 815.15,-204 815.15,-216.9 815.15,-216.9"/>
<polygon fill="black" stroke="black" points="811.65,-216.9 815.15,-226.9 818.65,-216.9 811.65,-216.9"/>
</g>
<!-- NotificationService&#45;&gt;TasksModule -->
<g id="edge35" class="edge">
<title>NotificationService&#45;&gt;TasksModule</title>
<path fill="none" stroke="black" d="M1430.25,-180C1410.6,-180 1395.4,-180 1395.4,-180 1395.4,-180 1395.4,-216.89 1395.4,-216.89"/>
<polygon fill="black" stroke="black" points="1391.9,-216.89 1395.4,-226.89 1398.9,-216.89 1391.9,-216.89"/>
</g>
<!-- AvatarUploadDialogComponent -->
<g id="node17" class="node">
<title>AvatarUploadDialogComponent</title>
<polygon fill="#ffffb3" stroke="black" points="581.23,-198 382.77,-198 382.77,-162 581.23,-162 581.23,-198"/>
<text text-anchor="middle" x="482" y="-175.8" font-family="Times,serif" font-size="14.00">AvatarUploadDialogComponent</text>
</g>
<!-- AvatarUploadDialogComponent&#45;&gt;ContactsModule -->
<g id="edge16" class="edge">
<title>AvatarUploadDialogComponent&#45;&gt;ContactsModule</title>
<path fill="none" stroke="black" d="M482,-198.27C482,-216.56 482,-242 482,-242 482,-242 761.87,-242 761.87,-242"/>
<polygon fill="black" stroke="black" points="761.87,-245.5 771.87,-242 761.87,-238.5 761.87,-245.5"/>
</g>
<!-- ContactAvatarComponent -->
<g id="node18" class="node">
<title>ContactAvatarComponent</title>
<polygon fill="#ffffb3" stroke="black" points="364.47,-198 201.53,-198 201.53,-162 364.47,-162 364.47,-198"/>
<text text-anchor="middle" x="283" y="-175.8" font-family="Times,serif" font-size="14.00">ContactAvatarComponent</text>
</g>
<!-- ContactAvatarComponent&#45;&gt;ContactsModule -->
<g id="edge17" class="edge">
<title>ContactAvatarComponent&#45;&gt;ContactsModule</title>
<path fill="none" stroke="black" d="M283,-198.13C283,-218.57 283,-249 283,-249 283,-249 761.95,-249 761.95,-249"/>
<polygon fill="black" stroke="black" points="761.95,-252.5 771.95,-249 761.95,-245.5 761.95,-252.5"/>
</g>
<!-- ContactCardComponent -->
<g id="node19" class="node">
<title>ContactCardComponent</title>
<polygon fill="#ffffb3" stroke="black" points="1074.09,-198 921.91,-198 921.91,-162 1074.09,-162 1074.09,-198"/>
<text text-anchor="middle" x="998" y="-175.8" font-family="Times,serif" font-size="14.00">ContactCardComponent</text>
</g>
<!-- ContactCardComponent&#45;&gt;ContactsModule -->
<g id="edge18" class="edge">
<title>ContactCardComponent&#45;&gt;ContactsModule</title>
<path fill="none" stroke="black" d="M998,-198.02C998,-215.37 998,-239 998,-239 998,-239 890.42,-239 890.42,-239"/>
<polygon fill="black" stroke="black" points="890.42,-235.5 880.42,-239 890.42,-242.5 890.42,-235.5"/>
</g>
<!-- ContactFormComponent -->
<g id="node20" class="node">
<title>ContactFormComponent</title>
<polygon fill="#ffffb3" stroke="black" points="903.71,-198 748.29,-198 748.29,-162 903.71,-162 903.71,-198"/>
<text text-anchor="middle" x="826" y="-175.8" font-family="Times,serif" font-size="14.00">ContactFormComponent</text>
</g>
<!-- ContactFormComponent&#45;&gt;ContactsModule -->
<g id="edge19" class="edge">
<title>ContactFormComponent&#45;&gt;ContactsModule</title>
<path fill="none" stroke="black" d="M793.44,-198.11C793.44,-198.11 793.44,-216.99 793.44,-216.99"/>
<polygon fill="black" stroke="black" points="789.94,-216.99 793.44,-226.99 796.94,-216.99 789.94,-216.99"/>
</g>
<!-- ContactsComponent -->
<g id="node21" class="node">
<title>ContactsComponent</title>
<polygon fill="#ffffb3" stroke="black" points="730.32,-198 599.68,-198 599.68,-162 730.32,-162 730.32,-198"/>
<text text-anchor="middle" x="665" y="-175.8" font-family="Times,serif" font-size="14.00">ContactsComponent</text>
</g>
<!-- ContactsComponent&#45;&gt;ContactsModule -->
<g id="edge20" class="edge">
<title>ContactsComponent&#45;&gt;ContactsModule</title>
<path fill="none" stroke="black" d="M665,-198.01C665,-214.05 665,-235 665,-235 665,-235 761.94,-235 761.94,-235"/>
<polygon fill="black" stroke="black" points="761.94,-238.5 771.94,-235 761.94,-231.5 761.94,-238.5"/>
</g>
<!-- ContactsRoutingModule -->
<g id="node23" class="node">
<title>ContactsRoutingModule</title>
<polygon fill="#8dd3c7" stroke="black" points="177.66,-198 174.66,-202 153.66,-202 150.66,-198 24.34,-198 24.34,-162 177.66,-162 177.66,-198"/>
<text text-anchor="middle" x="101" y="-175.8" font-family="Times,serif" font-size="14.00">ContactsRoutingModule</text>
</g>
<!-- ContactsRoutingModule&#45;&gt;ContactsModule -->
<g id="edge21" class="edge">
<title>ContactsRoutingModule&#45;&gt;ContactsModule</title>
<path fill="none" stroke="black" d="M101,-198.01C101,-220.49 101,-256 101,-256 101,-256 761.8,-256 761.8,-256"/>
<polygon fill="black" stroke="black" points="761.8,-259.5 771.8,-256 761.8,-252.5 761.8,-259.5"/>
</g>
<!-- CostEstimatesComponent -->
<g id="node24" class="node">
<title>CostEstimatesComponent</title>
<polygon fill="#ffffb3" stroke="black" points="4390.94,-122 4229.06,-122 4229.06,-86 4390.94,-86 4390.94,-122"/>
<text text-anchor="middle" x="4310" y="-99.8" font-family="Times,serif" font-size="14.00">CostEstimatesComponent</text>
</g>
<!-- CostEstimatesModule -->
<g id="node25" class="node">
<title>CostEstimatesModule</title>
<polygon fill="#8dd3c7" stroke="black" points="4280.66,-198 4277.66,-202 4256.66,-202 4253.66,-198 4141.34,-198 4141.34,-162 4280.66,-162 4280.66,-198"/>
<text text-anchor="middle" x="4211" y="-175.8" font-family="Times,serif" font-size="14.00">CostEstimatesModule</text>
</g>
<!-- CostEstimatesComponent&#45;&gt;CostEstimatesModule -->
<g id="edge25" class="edge">
<title>CostEstimatesComponent&#45;&gt;CostEstimatesModule</title>
<path fill="none" stroke="black" d="M4255.05,-122.01C4255.05,-122.01 4255.05,-151.85 4255.05,-151.85"/>
<polygon fill="black" stroke="black" points="4251.55,-151.85 4255.05,-161.85 4258.55,-151.85 4251.55,-151.85"/>
</g>
<!-- CostEstimatesRoutingModule -->
<g id="node26" class="node">
<title>CostEstimatesRoutingModule</title>
<polygon fill="#8dd3c7" stroke="black" points="4205.27,-122 4202.27,-126 4181.27,-126 4178.27,-122 4020.73,-122 4020.73,-86 4205.27,-86 4205.27,-122"/>
<text text-anchor="middle" x="4113" y="-99.8" font-family="Times,serif" font-size="14.00">CostEstimatesRoutingModule</text>
</g>
<!-- CostEstimatesRoutingModule&#45;&gt;CostEstimatesModule -->
<g id="edge26" class="edge">
<title>CostEstimatesRoutingModule&#45;&gt;CostEstimatesModule</title>
<path fill="none" stroke="black" d="M4173.28,-122.01C4173.28,-122.01 4173.28,-151.85 4173.28,-151.85"/>
<polygon fill="black" stroke="black" points="4169.78,-151.85 4173.28,-161.85 4176.78,-151.85 4169.78,-151.85"/>
</g>
<!-- ConfirmDialogComponent -->
<g id="node27" class="node">
<title>ConfirmDialogComponent</title>
<polygon fill="#ffffb3" stroke="black" points="3215.37,-122 3048.63,-122 3048.63,-86 3215.37,-86 3215.37,-122"/>
<text text-anchor="middle" x="3132" y="-99.8" font-family="Times,serif" font-size="14.00">ConfirmDialogComponent</text>
</g>
<!-- ConfirmDialogComponent&#45;&gt;SharedModule -->
<g id="edge27" class="edge">
<title>ConfirmDialogComponent&#45;&gt;SharedModule</title>
<path fill="none" stroke="black" d="M3061.98,-122.21C3061.98,-127.55 3061.98,-132 3061.98,-132 3061.98,-132 2911.79,-132 2911.79,-132 2911.79,-132 2911.79,-151.85 2911.79,-151.85"/>
<polygon fill="black" stroke="black" points="2908.29,-151.85 2911.79,-161.85 2915.29,-151.85 2908.29,-151.85"/>
</g>
<!-- MenuButtonComponent -->
<g id="node28" class="node">
<title>MenuButtonComponent</title>
<polygon fill="#ffffb3" stroke="black" points="3031.11,-122 2878.89,-122 2878.89,-86 3031.11,-86 3031.11,-122"/>
<text text-anchor="middle" x="2955" y="-99.8" font-family="Times,serif" font-size="14.00">MenuButtonComponent</text>
</g>
<!-- MenuButtonComponent&#45;&gt;SharedModule -->
<g id="edge28" class="edge">
<title>MenuButtonComponent&#45;&gt;SharedModule</title>
<path fill="none" stroke="black" d="M2895.37,-122.01C2895.37,-122.01 2895.37,-151.85 2895.37,-151.85"/>
<polygon fill="black" stroke="black" points="2891.87,-151.85 2895.37,-161.85 2898.87,-151.85 2891.87,-151.85"/>
</g>
<!-- PhoneFormatPipe -->
<g id="node29" class="node">
<title>PhoneFormatPipe</title>
<polygon fill="#ffffb3" stroke="black" points="2861.32,-122 2744.68,-122 2744.68,-86 2861.32,-86 2861.32,-122"/>
<text text-anchor="middle" x="2803" y="-99.8" font-family="Times,serif" font-size="14.00">PhoneFormatPipe</text>
</g>
<!-- PhoneFormatPipe&#45;&gt;SharedModule -->
<g id="edge29" class="edge">
<title>PhoneFormatPipe&#45;&gt;SharedModule</title>
<path fill="none" stroke="black" d="M2853.32,-122.01C2853.32,-122.01 2853.32,-151.85 2853.32,-151.85"/>
<polygon fill="black" stroke="black" points="2849.82,-151.85 2853.32,-161.85 2856.82,-151.85 2849.82,-151.85"/>
</g>
<!-- TasksComponent -->
<g id="node31" class="node">
<title>TasksComponent</title>
<polygon fill="#ffffb3" stroke="black" points="1389.99,-198 1276.01,-198 1276.01,-162 1389.99,-162 1389.99,-198"/>
<text text-anchor="middle" x="1333" y="-175.8" font-family="Times,serif" font-size="14.00">TasksComponent</text>
</g>
<!-- TasksComponent&#45;&gt;TasksModule -->
<g id="edge31" class="edge">
<title>TasksComponent&#45;&gt;TasksModule</title>
<path fill="none" stroke="black" d="M1347.95,-198.11C1347.95,-198.11 1347.95,-216.99 1347.95,-216.99"/>
<polygon fill="black" stroke="black" points="1344.45,-216.99 1347.95,-226.99 1351.45,-216.99 1344.45,-216.99"/>
</g>
<!-- TasksRoutingModule -->
<g id="node33" class="node">
<title>TasksRoutingModule</title>
<polygon fill="#8dd3c7" stroke="black" points="1251.82,-198 1248.82,-202 1227.82,-202 1224.82,-198 1114.18,-198 1114.18,-162 1251.82,-162 1251.82,-198"/>
<text text-anchor="middle" x="1183" y="-175.8" font-family="Times,serif" font-size="14.00">TasksRoutingModule</text>
</g>
<!-- TasksRoutingModule&#45;&gt;TasksModule -->
<g id="edge33" class="edge">
<title>TasksRoutingModule&#45;&gt;TasksModule</title>
<path fill="none" stroke="black" d="M1183,-198.28C1183,-219.32 1183,-251 1183,-251 1183,-251 1295.82,-251 1295.82,-251"/>
<polygon fill="black" stroke="black" points="1295.82,-254.5 1305.82,-251 1295.82,-247.5 1295.82,-254.5"/>
</g>
<!-- UserPanelComponent -->
<g id="node34" class="node">
<title>UserPanelComponent</title>
<polygon fill="#ffffb3" stroke="black" points="2790.36,-198 2651.64,-198 2651.64,-162 2790.36,-162 2790.36,-198"/>
<text text-anchor="middle" x="2721" y="-175.8" font-family="Times,serif" font-size="14.00">UserPanelComponent</text>
</g>
<!-- UserPanelComponent&#45;&gt;UserPanelModule -->
<g id="edge36" class="edge">
<title>UserPanelComponent&#45;&gt;UserPanelModule</title>
<path fill="none" stroke="black" d="M2721,-198.11C2721,-198.11 2721,-216.99 2721,-216.99"/>
<polygon fill="black" stroke="black" points="2717.5,-216.99 2721,-226.99 2724.5,-216.99 2717.5,-216.99"/>
</g>
<!-- UserPanelRoutingModule -->
<g id="node36" class="node">
<title>UserPanelRoutingModule</title>
<polygon fill="#8dd3c7" stroke="black" points="2628.2,-198 2625.2,-202 2604.2,-202 2601.2,-198 2465.8,-198 2465.8,-162 2628.2,-162 2628.2,-198"/>
<text text-anchor="middle" x="2547" y="-175.8" font-family="Times,serif" font-size="14.00">UserPanelRoutingModule</text>
</g>
<!-- UserPanelRoutingModule&#45;&gt;UserPanelModule -->
<g id="edge38" class="edge">
<title>UserPanelRoutingModule&#45;&gt;UserPanelModule</title>
<path fill="none" stroke="black" d="M2547,-198.28C2547,-219.32 2547,-251 2547,-251 2547,-251 2652.09,-251 2652.09,-251"/>
<polygon fill="black" stroke="black" points="2652.09,-254.5 2662.09,-251 2652.09,-247.5 2652.09,-254.5"/>
</g>
</g>
</svg>
